<?xml version="1.0" encoding="utf-8"?>
<!-- Generator: Adobe Illustrator 22.1.0, SVG Export Plug-In . SVG Version: 6.00 Build 0)  -->
<svg version="1.1" id="Layer_1" xmlns="http://www.w3.org/2000/svg" xmlns:xlink="http://www.w3.org/1999/xlink" x="0px" y="0px"
	 viewBox="0 0 517.3 320.3" style="enable-background:new 0 0 517.3 320.3;" xml:space="preserve">
<style type="text/css">
	.st0{fill:#FFFFFF;}
	.st1{fill:none;stroke:#000000;stroke-miterlimit:10;}
</style>
<rect class="st0" width="517.3" height="320.3"/>
<g>
	<g>
		<g>
			<path d="M83.6,100.1h-7.3V83.5h6.5c1.1,0,2.1,0.1,2.9,0.4c0.8,0.3,1.4,0.6,1.8,1.1c0.7,0.9,1.1,1.8,1.1,2.9
				c0,1.3-0.4,2.3-1.3,2.9c-0.3,0.2-0.5,0.4-0.6,0.4s-0.3,0.1-0.6,0.3c1,0.2,1.8,0.7,2.5,1.4c0.6,0.7,0.9,1.6,0.9,2.6
				c0,1.2-0.4,2.2-1.2,3.1C87.5,99.6,85.9,100.1,83.6,100.1z M80,90.2h1.8c1,0,1.8-0.1,2.3-0.3c0.5-0.2,0.7-0.7,0.7-1.4
				c0-0.7-0.2-1.2-0.7-1.5c-0.5-0.2-1.2-0.4-2.3-0.4H80V90.2z M80,96.9h2.5c1.1,0,1.9-0.1,2.4-0.4c0.5-0.3,0.8-0.8,0.8-1.5
				c0-0.8-0.3-1.3-0.8-1.5c-0.6-0.2-1.5-0.4-2.7-0.4H80V96.9z"/>
			<path d="M93.3,100.1V83.5H97v13.3h7.1v3.3H93.3z"/>
			<path d="M119.2,100.1l-1.5-3.6h-7l-1.5,3.6h-3.9l7.2-16.6h3.6l7.2,16.6H119.2z M114.2,88.4l-2.1,4.8h4.2L114.2,88.4z"/>
			<path d="M133.3,96.8c1.8,0,3.3-0.7,4.5-2.2l2.4,2.4c-1.9,2.1-4.1,3.2-6.7,3.2c-2.6,0-4.7-0.8-6.3-2.4c-1.7-1.6-2.5-3.7-2.5-6.1
				c0-2.5,0.8-4.5,2.5-6.2c1.7-1.6,3.8-2.5,6.2-2.5c2.7,0,5,1,6.8,3.1l-2.3,2.6c-1.2-1.5-2.6-2.2-4.4-2.2c-1.4,0-2.6,0.5-3.6,1.4
				c-1,0.9-1.5,2.1-1.5,3.7c0,1.5,0.5,2.8,1.4,3.7S131.9,96.8,133.3,96.8z"/>
			<path d="M143.6,83.5h3.7v6.8l6.3-6.8h4.6l-6.6,7.3c0.6,0.8,1.6,2.3,3.2,4.4c1.5,2.2,2.7,3.8,3.4,4.8h-4.3l-4.9-6.6l-1.7,1.9v4.7
				h-3.7V83.5z"/>
			<path d="M178.2,83.5h3.7v16.6h-3.7v-6.5h-6.6v6.5h-3.7V83.5h3.7v6.9h6.6V83.5z"/>
			<path d="M200.5,97.8c-1.7,1.6-3.7,2.5-6.2,2.5s-4.5-0.8-6.2-2.5c-1.7-1.6-2.5-3.7-2.5-6.1c0-2.4,0.8-4.5,2.5-6.1
				c1.7-1.6,3.7-2.5,6.2-2.5s4.5,0.8,6.2,2.5c1.7,1.6,2.5,3.7,2.5,6.1C203,94.1,202.2,96.2,200.5,97.8z M199.3,91.7
				c0-1.5-0.5-2.7-1.4-3.8c-1-1-2.1-1.6-3.5-1.6c-1.4,0-2.6,0.5-3.5,1.6c-1,1-1.4,2.3-1.4,3.8c0,1.5,0.5,2.7,1.4,3.8
				c0.9,1,2.1,1.6,3.5,1.6c1.4,0,2.6-0.5,3.5-1.6C198.8,94.4,199.3,93.2,199.3,91.7z"/>
			<path d="M220.2,89c0,2.7-1.1,4.4-3.2,5.2l4.2,5.9h-4.6l-3.7-5.3h-2.6v5.3h-3.7V83.5h6.3c2.6,0,4.4,0.4,5.5,1.3
				C219.7,85.7,220.2,87.1,220.2,89z M215.8,91c0.5-0.4,0.7-1.1,0.7-2c0-0.9-0.2-1.5-0.7-1.8c-0.5-0.3-1.3-0.5-2.5-0.5h-2.8v4.9h2.7
				C214.4,91.6,215.3,91.4,215.8,91z"/>
			<path d="M228.5,86.8c-0.4,0.3-0.5,0.7-0.5,1.2c0,0.5,0.2,0.9,0.7,1.2c0.4,0.3,1.4,0.6,3,1c1.6,0.4,2.8,1,3.7,1.7
				c0.9,0.8,1.3,1.9,1.3,3.4c0,1.5-0.6,2.7-1.7,3.6c-1.1,0.9-2.6,1.4-4.4,1.4c-2.6,0-5-1-7.1-2.9l2.2-2.7c1.8,1.6,3.4,2.4,5,2.4
				c0.7,0,1.2-0.1,1.6-0.4c0.4-0.3,0.6-0.7,0.6-1.2s-0.2-0.9-0.6-1.2c-0.4-0.3-1.2-0.6-2.4-0.9c-1.9-0.5-3.3-1.1-4.2-1.8
				c-0.9-0.7-1.3-1.9-1.3-3.5c0-1.6,0.6-2.8,1.7-3.6c1.1-0.9,2.5-1.3,4.2-1.3c1.1,0,2.2,0.2,3.3,0.6c1.1,0.4,2.1,0.9,2.9,1.6
				l-1.9,2.7c-1.4-1.1-2.9-1.6-4.5-1.6C229.3,86.4,228.8,86.5,228.5,86.8z"/>
			<path d="M252.3,83.5v3.3H244v3.4h7.4v3.2H244v3.4h8.5v3.3h-12.2V83.5H252.3z"/>
		</g>
		<g>
			<path d="M82.4,118.3c0.7,0,1.3-0.1,1.8-0.3c0.5-0.2,1-0.6,1.5-1.1l1.3,1.3c-1.2,1.4-2.7,2-4.5,2s-3.2-0.6-4.4-1.7
				c-1.2-1.1-1.7-2.6-1.7-4.3c0-1.7,0.6-3.2,1.8-4.3s2.7-1.7,4.5-1.7c1.8,0,3.3,0.7,4.5,2l-1.3,1.4c-0.6-0.5-1.1-0.9-1.6-1.1
				c-0.5-0.2-1.1-0.3-1.7-0.3c-1.2,0-2.2,0.4-3,1.1c-0.8,0.8-1.2,1.7-1.2,2.9s0.4,2.2,1.2,3C80.4,117.9,81.3,118.3,82.4,118.3z"/>
			<path d="M103.8,118.4c-1.2,1.1-2.6,1.7-4.4,1.7c-1.7,0-3.2-0.6-4.4-1.7c-1.2-1.1-1.8-2.6-1.8-4.3s0.6-3.1,1.8-4.3
				c1.2-1.1,2.6-1.7,4.4-1.7c1.7,0,3.2,0.6,4.4,1.7c1.2,1.1,1.8,2.6,1.8,4.3S104.9,117.3,103.8,118.4z M102.3,111.2
				c-0.8-0.8-1.8-1.2-2.9-1.2c-1.2,0-2.1,0.4-2.9,1.2c-0.8,0.8-1.2,1.8-1.2,3s0.4,2.2,1.2,3c0.8,0.8,1.8,1.2,2.9,1.2
				c1.2,0,2.1-0.4,2.9-1.2c0.8-0.8,1.2-1.8,1.2-3S103.1,112,102.3,111.2z"/>
			<path d="M114.8,110.3v3.2h5.2v1.8h-5.2v4.8h-2v-11.6h7.8l0,1.8H114.8z"/>
			<path d="M129.8,110.3v3.2h5.2v1.8h-5.2v4.8h-2v-11.6h7.8l0,1.8H129.8z"/>
			<path d="M150.9,108.4v1.8h-6.2v3.1h5.6v1.7h-5.6v3.1h6.4v1.8h-8.4v-11.6H150.9z"/>
			<path d="M166.7,108.4v1.8h-6.2v3.1h5.6v1.7h-5.6v3.1h6.4v1.8h-8.4v-11.6H166.7z"/>
			<path d="M174.3,120v-11.6h2v5h5.8v-5h2V120h-2v-4.8h-5.8v4.8H174.3z"/>
			<path d="M201.9,118.4c-1.2,1.1-2.6,1.7-4.4,1.7c-1.7,0-3.2-0.6-4.4-1.7c-1.2-1.1-1.8-2.6-1.8-4.3s0.6-3.1,1.8-4.3
				c1.2-1.1,2.6-1.7,4.4-1.7c1.7,0,3.2,0.6,4.4,1.7c1.2,1.1,1.8,2.6,1.8,4.3S203.1,117.3,201.9,118.4z M200.5,111.2
				c-0.8-0.8-1.8-1.2-2.9-1.2c-1.2,0-2.1,0.4-2.9,1.2c-0.8,0.8-1.2,1.8-1.2,3s0.4,2.2,1.2,3c0.8,0.8,1.8,1.2,2.9,1.2
				c1.2,0,2.1-0.4,2.9-1.2c0.8-0.8,1.2-1.8,1.2-3S201.3,112,200.5,111.2z"/>
			<path d="M213.6,117.4c0.5,0.6,1.3,0.9,2.2,0.9c0.9,0,1.6-0.3,2.2-0.9c0.5-0.6,0.8-1.5,0.8-2.5v-6.4h2v6.5c0,1.7-0.5,3-1.4,3.9
				c-0.9,0.9-2.1,1.4-3.6,1.4c-1.4,0-2.6-0.5-3.6-1.4c-0.9-0.9-1.4-2.2-1.4-3.9v-6.5h2v6.4C212.8,115.9,213.1,116.8,213.6,117.4z"/>
			<path d="M232.2,110c-0.6,0-1,0.1-1.4,0.4c-0.4,0.2-0.6,0.6-0.6,1.1c0,0.5,0.2,0.8,0.6,1.1c0.4,0.2,1.1,0.5,2.3,0.8
				c1.2,0.3,2.1,0.7,2.7,1.2c0.6,0.5,0.9,1.3,0.9,2.3c0,1-0.4,1.8-1.2,2.5c-0.8,0.6-1.8,0.9-3,0.9c-1.8,0-3.4-0.6-4.9-1.9l1.2-1.5
				c1.2,1,2.4,1.5,3.7,1.5c0.6,0,1.1-0.1,1.5-0.4c0.4-0.3,0.6-0.6,0.6-1.1c0-0.4-0.2-0.8-0.5-1c-0.3-0.3-1-0.5-1.8-0.7
				c-0.9-0.2-1.5-0.4-2-0.6s-0.8-0.4-1.2-0.7c-0.7-0.5-1-1.3-1-2.4c0-1.1,0.4-1.9,1.2-2.5s1.8-0.9,2.9-0.9c0.7,0,1.5,0.1,2.2,0.4
				c0.7,0.2,1.4,0.6,1.9,1l-1.1,1.5c-0.3-0.3-0.8-0.6-1.4-0.8C233.4,110.1,232.8,110,232.2,110z"/>
			<path d="M252.4,108.4v1.8h-6.2v3.1h5.6v1.7h-5.6v3.1h6.4v1.8h-8.4v-11.6H252.4z"/>
		</g>
	</g>
	<line class="st1" x1="284.1" y1="40.7" x2="284.1" y2="279.7"/>
	<g>
		<path d="M318.2,68.9V73c0,0.3,0,0.6,0,0.9h-0.6l0-0.6h0c-0.2,0.4-0.6,0.7-1.2,0.7c-0.8,0-1.4-0.7-1.4-1.7c0-1.1,0.7-1.8,1.5-1.8
			c0.5,0,0.9,0.2,1,0.5h0v-2H318.2z M317.6,71.8c0-0.1,0-0.2,0-0.3c-0.1-0.4-0.4-0.7-0.9-0.7c-0.6,0-1,0.6-1,1.3
			c0,0.7,0.3,1.3,1,1.3c0.4,0,0.8-0.3,0.9-0.7c0-0.1,0-0.2,0-0.3V71.8z"/>
		<path d="M319.2,71.5c0-0.4,0-0.7,0-1.1h0.5l0,0.7h0c0.2-0.5,0.5-0.7,0.9-0.7c0.1,0,0.1,0,0.2,0V71c-0.1,0-0.1,0-0.2,0
			c-0.4,0-0.7,0.3-0.8,0.8c0,0.1,0,0.2,0,0.3v1.8h-0.6V71.5z"/>
		<path d="M322.2,69.5c0,0.2-0.1,0.4-0.4,0.4c-0.2,0-0.4-0.2-0.4-0.4c0-0.2,0.2-0.4,0.4-0.4C322.1,69.1,322.2,69.3,322.2,69.5z
			 M321.5,73.8v-3.4h0.6v3.4H321.5z"/>
		<path d="M323.2,71.5c0-0.4,0-0.8,0-1.1h0.6l0,0.6h0c0.3-0.4,0.7-0.7,1.2-0.7c0.8,0,1.4,0.7,1.4,1.7c0,1.2-0.7,1.8-1.5,1.8
			c-0.4,0-0.8-0.2-1-0.5h0v1.8h-0.6V71.5z M323.8,72.5c0,0.1,0,0.2,0,0.3c0.1,0.4,0.5,0.7,0.9,0.7c0.7,0,1-0.5,1-1.3
			c0-0.7-0.4-1.3-1-1.3c-0.4,0-0.8,0.3-0.9,0.8c0,0.1,0,0.2,0,0.3V72.5z"/>
		<path d="M331,73.7c-0.2,0.1-0.5,0.2-1,0.2c-1,0-1.7-0.7-1.7-1.7c0-1,0.7-1.8,1.8-1.8c0.4,0,0.7,0.1,0.9,0.2l-0.1,0.5
			c-0.1-0.1-0.4-0.2-0.7-0.2c-0.8,0-1.2,0.6-1.2,1.3c0,0.8,0.5,1.3,1.2,1.3c0.3,0,0.6-0.1,0.8-0.2L331,73.7z"/>
		<path d="M334.8,72.1c0,1.3-0.9,1.8-1.7,1.8c-0.9,0-1.6-0.7-1.6-1.7c0-1.1,0.7-1.8,1.7-1.8C334.1,70.4,334.8,71.1,334.8,72.1z
			 M332.1,72.1c0,0.7,0.4,1.3,1,1.3c0.6,0,1-0.6,1-1.3c0-0.6-0.3-1.3-1-1.3C332.4,70.8,332.1,71.5,332.1,72.1z"/>
		<path d="M337.7,73.8v-2.9h-1.4v2.9h-0.6v-2.9h-0.5v-0.5h0.5v-0.1c0-0.5,0.1-0.9,0.4-1.2c0.2-0.2,0.5-0.3,0.9-0.3
			c0.2,0,0.4,0.1,0.5,0.1l-0.1,0.5c-0.1,0-0.2-0.1-0.4-0.1c-0.5,0-0.6,0.4-0.6,0.9v0.1h1.4v-0.2c0-0.5,0.1-0.9,0.4-1.2
			c0.2-0.2,0.5-0.3,0.8-0.3c0.2,0,0.4,0,0.5,0.1l-0.1,0.5c-0.1,0-0.2-0.1-0.4-0.1c-0.5,0-0.7,0.5-0.7,1v0.2h0.8v0.5h-0.8v2.9H337.7z
			"/>
		<path d="M339.9,72.2c0,0.8,0.5,1.2,1.2,1.2c0.4,0,0.7-0.1,0.9-0.2l0.1,0.4c-0.2,0.1-0.6,0.2-1.1,0.2c-1,0-1.7-0.7-1.7-1.7
			c0-1,0.6-1.8,1.6-1.8c1.1,0,1.4,1,1.4,1.6c0,0.1,0,0.2,0,0.3H339.9z M341.7,71.8c0-0.4-0.2-1-0.9-1c-0.6,0-0.9,0.6-0.9,1H341.7z"
			/>
		<path d="M343.4,72.2c0,0.8,0.5,1.2,1.2,1.2c0.4,0,0.7-0.1,0.9-0.2l0.1,0.4c-0.2,0.1-0.6,0.2-1.1,0.2c-1,0-1.7-0.7-1.7-1.7
			c0-1,0.6-1.8,1.6-1.8c1.1,0,1.4,1,1.4,1.6c0,0.1,0,0.2,0,0.3H343.4z M345.2,71.8c0-0.4-0.2-1-0.9-1c-0.6,0-0.9,0.6-0.9,1H345.2z"
			/>
		<path d="M315.3,81.9h0.6v5h-0.6V81.9z"/>
		<path d="M319.3,86c0,0.3,0,0.6,0.1,0.8h-0.6l0-0.4h0c-0.2,0.3-0.6,0.5-1,0.5c-0.7,0-1-0.5-1-1c0-0.8,0.7-1.3,2-1.3v-0.1
			c0-0.3-0.1-0.8-0.8-0.8c-0.3,0-0.6,0.1-0.9,0.3l-0.1-0.4c0.3-0.2,0.7-0.3,1.1-0.3c1,0,1.3,0.7,1.3,1.4V86z M318.7,85.1
			c-0.7,0-1.4,0.1-1.4,0.8c0,0.4,0.3,0.6,0.6,0.6c0.4,0,0.7-0.3,0.8-0.6c0-0.1,0-0.1,0-0.2V85.1z"/>
		<path d="M321,82.6v0.8h0.9v0.5H321v1.8c0,0.4,0.1,0.7,0.5,0.7c0.2,0,0.3,0,0.4,0l0,0.5c-0.1,0-0.3,0.1-0.5,0.1
			c-0.3,0-0.5-0.1-0.7-0.3c-0.2-0.2-0.2-0.5-0.2-0.9v-1.8h-0.5v-0.5h0.5v-0.6L321,82.6z"/>
		<path d="M323.3,82.6v0.8h0.9v0.5h-0.9v1.8c0,0.4,0.1,0.7,0.5,0.7c0.2,0,0.3,0,0.4,0l0,0.5c-0.1,0-0.3,0.1-0.5,0.1
			c-0.3,0-0.5-0.1-0.7-0.3c-0.2-0.2-0.2-0.5-0.2-0.9v-1.8h-0.5v-0.5h0.5v-0.6L323.3,82.6z"/>
		<path d="M325.2,85.2c0,0.8,0.5,1.2,1.2,1.2c0.4,0,0.7-0.1,0.9-0.2l0.1,0.4c-0.2,0.1-0.6,0.2-1.1,0.2c-1,0-1.7-0.7-1.7-1.7
			c0-1,0.6-1.8,1.6-1.8c1.1,0,1.4,1,1.4,1.6c0,0.1,0,0.2,0,0.3H325.2z M327,84.8c0-0.4-0.2-1-0.9-1c-0.6,0-0.9,0.6-0.9,1H327z"/>
		<path d="M317.7,99.7c-0.2,0.1-0.5,0.2-1,0.2c-1,0-1.7-0.7-1.7-1.7c0-1,0.7-1.8,1.8-1.8c0.4,0,0.7,0.1,0.9,0.2l-0.1,0.5
			c-0.1-0.1-0.4-0.2-0.7-0.2c-0.8,0-1.2,0.6-1.2,1.3c0,0.8,0.5,1.3,1.2,1.3c0.3,0,0.6-0.1,0.8-0.2L317.7,99.7z"/>
		<path d="M320.8,99c0,0.3,0,0.6,0.1,0.8h-0.6l0-0.4h0c-0.2,0.3-0.6,0.5-1,0.5c-0.7,0-1-0.5-1-1c0-0.8,0.7-1.3,2-1.3v-0.1
			c0-0.3-0.1-0.8-0.8-0.8c-0.3,0-0.6,0.1-0.9,0.3l-0.1-0.4c0.3-0.2,0.7-0.3,1.1-0.3c1,0,1.3,0.7,1.3,1.4V99z M320.2,98.1
			c-0.7,0-1.4,0.1-1.4,0.8c0,0.4,0.3,0.6,0.6,0.6c0.4,0,0.7-0.3,0.8-0.6c0-0.1,0-0.1,0-0.2V98.1z"/>
		<path d="M321.8,97.5c0-0.4,0-0.8,0-1.1h0.6l0,0.6h0c0.3-0.4,0.7-0.7,1.2-0.7c0.8,0,1.4,0.7,1.4,1.7c0,1.2-0.7,1.8-1.5,1.8
			c-0.4,0-0.8-0.2-1-0.5h0v1.8h-0.6V97.5z M322.4,98.5c0,0.1,0,0.2,0,0.3c0.1,0.4,0.5,0.7,0.9,0.7c0.7,0,1-0.5,1-1.3
			c0-0.7-0.4-1.3-1-1.3c-0.4,0-0.8,0.3-0.9,0.8c0,0.1,0,0.2,0,0.3V98.5z"/>
		<path d="M325.8,97.5c0-0.4,0-0.8,0-1.1h0.6l0,0.6h0c0.3-0.4,0.7-0.7,1.2-0.7c0.8,0,1.4,0.7,1.4,1.7c0,1.2-0.7,1.8-1.5,1.8
			c-0.4,0-0.8-0.2-1-0.5h0v1.8h-0.6V97.5z M326.4,98.5c0,0.1,0,0.2,0,0.3c0.1,0.4,0.5,0.7,0.9,0.7c0.7,0,1-0.5,1-1.3
			c0-0.7-0.4-1.3-1-1.3c-0.4,0-0.8,0.3-0.9,0.8c0,0.1,0,0.2,0,0.3V98.5z"/>
		<path d="M332.6,98.9c0,0.4,0,0.7,0,0.9h-0.5l0-0.6h0c-0.2,0.3-0.5,0.6-1.1,0.6c-0.5,0-1.2-0.3-1.2-1.5v-2h0.6v1.9
			c0,0.6,0.2,1.1,0.8,1.1c0.4,0,0.7-0.3,0.8-0.6c0-0.1,0.1-0.2,0.1-0.3v-2.1h0.6V98.9z"/>
		<path d="M336,99.7c-0.2,0.1-0.5,0.2-1,0.2c-1,0-1.7-0.7-1.7-1.7c0-1,0.7-1.8,1.8-1.8c0.4,0,0.7,0.1,0.9,0.2l-0.1,0.5
			c-0.1-0.1-0.4-0.2-0.7-0.2c-0.8,0-1.2,0.6-1.2,1.3c0,0.8,0.5,1.3,1.2,1.3c0.3,0,0.6-0.1,0.8-0.2L336,99.7z"/>
		<path d="M339.1,99.7c-0.2,0.1-0.5,0.2-1,0.2c-1,0-1.7-0.7-1.7-1.7c0-1,0.7-1.8,1.8-1.8c0.4,0,0.7,0.1,0.9,0.2L339,97
			c-0.1-0.1-0.4-0.2-0.7-0.2c-0.8,0-1.2,0.6-1.2,1.3c0,0.8,0.5,1.3,1.2,1.3c0.3,0,0.6-0.1,0.8-0.2L339.1,99.7z"/>
		<path d="M340.5,95.5c0,0.2-0.1,0.4-0.4,0.4c-0.2,0-0.4-0.2-0.4-0.4c0-0.2,0.2-0.4,0.4-0.4C340.4,95.1,340.5,95.3,340.5,95.5z
			 M339.8,99.8v-3.4h0.6v3.4H339.8z"/>
		<path d="M341.5,97.4c0-0.4,0-0.6,0-0.9h0.5l0,0.6h0c0.2-0.3,0.6-0.6,1.1-0.6c0.5,0,1.2,0.3,1.2,1.4v2h-0.6v-2c0-0.5-0.2-1-0.8-1
			c-0.4,0-0.7,0.3-0.8,0.6c0,0.1,0,0.2,0,0.3v2h-0.6V97.4z"/>
		<path d="M348.4,98.1c0,1.3-0.9,1.8-1.7,1.8c-0.9,0-1.6-0.7-1.6-1.7c0-1.1,0.7-1.8,1.7-1.8C347.8,96.4,348.4,97.1,348.4,98.1z
			 M345.7,98.1c0,0.7,0.4,1.3,1,1.3c0.6,0,1-0.6,1-1.3c0-0.6-0.3-1.3-1-1.3C346,96.8,345.7,97.5,345.7,98.1z"/>
		<path d="M317.6,112c0,0.3,0,0.6,0.1,0.8h-0.6l0-0.4h0c-0.2,0.3-0.6,0.5-1,0.5c-0.7,0-1-0.5-1-1c0-0.8,0.7-1.3,2-1.3v-0.1
			c0-0.3-0.1-0.8-0.8-0.8c-0.3,0-0.6,0.1-0.9,0.3l-0.1-0.4c0.3-0.2,0.7-0.3,1.1-0.3c1,0,1.3,0.7,1.3,1.4V112z M317,111.1
			c-0.7,0-1.4,0.1-1.4,0.8c0,0.4,0.3,0.6,0.6,0.6c0.4,0,0.7-0.3,0.8-0.6c0-0.1,0-0.1,0-0.2V111.1z"/>
		<path d="M318.6,110.4c0-0.4,0-0.6,0-0.9h0.5l0,0.5h0c0.2-0.3,0.5-0.6,1.1-0.6c0.5,0,0.8,0.3,1,0.7h0c0.1-0.2,0.2-0.3,0.4-0.4
			c0.2-0.2,0.4-0.2,0.7-0.2c0.4,0,1.1,0.3,1.1,1.5v2h-0.6v-1.9c0-0.7-0.2-1-0.7-1c-0.3,0-0.6,0.3-0.7,0.6c0,0.1,0,0.2,0,0.3v2.1
			h-0.6v-2c0-0.5-0.2-0.9-0.7-0.9c-0.4,0-0.7,0.3-0.8,0.6c0,0.1,0,0.2,0,0.3v2h-0.6V110.4z"/>
		<path d="M324.8,111.2c0,0.8,0.5,1.2,1.2,1.2c0.4,0,0.7-0.1,0.9-0.2l0.1,0.4c-0.2,0.1-0.6,0.2-1.1,0.2c-1,0-1.7-0.7-1.7-1.7
			c0-1,0.6-1.8,1.6-1.8c1.1,0,1.4,1,1.4,1.6c0,0.1,0,0.2,0,0.3H324.8z M326.6,110.8c0-0.4-0.2-1-0.9-1c-0.6,0-0.9,0.6-0.9,1H326.6z"
			/>
		<path d="M328,110.5c0-0.4,0-0.7,0-1.1h0.5l0,0.7h0c0.2-0.5,0.5-0.7,0.9-0.7c0.1,0,0.1,0,0.2,0v0.6c-0.1,0-0.1,0-0.2,0
			c-0.4,0-0.7,0.3-0.8,0.8c0,0.1,0,0.2,0,0.3v1.8H328V110.5z"/>
		<path d="M331,108.5c0,0.2-0.1,0.4-0.4,0.4c-0.2,0-0.4-0.2-0.4-0.4c0-0.2,0.2-0.4,0.4-0.4C330.8,108.1,331,108.3,331,108.5z
			 M330.3,112.8v-3.4h0.6v3.4H330.3z"/>
		<path d="M334.4,112.7c-0.2,0.1-0.5,0.2-1,0.2c-1,0-1.7-0.7-1.7-1.7c0-1,0.7-1.8,1.8-1.8c0.4,0,0.7,0.1,0.9,0.2l-0.1,0.5
			c-0.1-0.1-0.4-0.2-0.7-0.2c-0.8,0-1.2,0.6-1.2,1.3c0,0.8,0.5,1.3,1.2,1.3c0.3,0,0.6-0.1,0.8-0.2L334.4,112.7z"/>
		<path d="M337.5,112c0,0.3,0,0.6,0.1,0.8h-0.6l0-0.4h0c-0.2,0.3-0.6,0.5-1,0.5c-0.7,0-1-0.5-1-1c0-0.8,0.7-1.3,2-1.3v-0.1
			c0-0.3-0.1-0.8-0.8-0.8c-0.3,0-0.6,0.1-0.9,0.3l-0.1-0.4c0.3-0.2,0.7-0.3,1.1-0.3c1,0,1.3,0.7,1.3,1.4V112z M336.9,111.1
			c-0.7,0-1.4,0.1-1.4,0.8c0,0.4,0.3,0.6,0.6,0.6c0.4,0,0.7-0.3,0.8-0.6c0-0.1,0-0.1,0-0.2V111.1z"/>
		<path d="M338.4,110.4c0-0.4,0-0.6,0-0.9h0.5l0,0.6h0c0.2-0.3,0.6-0.6,1.1-0.6c0.5,0,1.2,0.3,1.2,1.4v2h-0.6v-2c0-0.5-0.2-1-0.8-1
			c-0.4,0-0.7,0.3-0.8,0.6c0,0.1,0,0.2,0,0.3v2h-0.6V110.4z"/>
		<path d="M345.4,111.1c0,1.3-0.9,1.8-1.7,1.8c-0.9,0-1.6-0.7-1.6-1.7c0-1.1,0.7-1.8,1.7-1.8C344.7,109.4,345.4,110.1,345.4,111.1z
			 M342.7,111.1c0,0.7,0.4,1.3,1,1.3c0.6,0,1-0.6,1-1.3c0-0.6-0.3-1.3-1-1.3C343,109.8,342.7,110.5,342.7,111.1z"/>
		<path d="M315.6,124.2c0,0.8,0.5,1.2,1.2,1.2c0.4,0,0.7-0.1,0.9-0.2l0.1,0.4c-0.2,0.1-0.6,0.2-1.1,0.2c-1,0-1.7-0.7-1.7-1.7
			c0-1,0.6-1.8,1.6-1.8c1.1,0,1.4,1,1.4,1.6c0,0.1,0,0.2,0,0.3H315.6z M317.4,123.8c0-0.4-0.2-1-0.9-1c-0.6,0-0.9,0.6-0.9,1H317.4z"
			/>
		<path d="M318.7,125.2c0.2,0.1,0.5,0.2,0.8,0.2c0.4,0,0.7-0.2,0.7-0.5c0-0.3-0.2-0.5-0.6-0.6c-0.6-0.2-0.9-0.6-0.9-1
			c0-0.5,0.4-1,1.2-1c0.3,0,0.6,0.1,0.8,0.2l-0.2,0.4c-0.1-0.1-0.4-0.2-0.7-0.2c-0.4,0-0.6,0.2-0.6,0.5c0,0.3,0.2,0.4,0.6,0.6
			c0.6,0.2,0.9,0.5,0.9,1c0,0.6-0.5,1-1.3,1c-0.4,0-0.7-0.1-1-0.2L318.7,125.2z"/>
		<path d="M321.5,123.5c0-0.4,0-0.8,0-1.1h0.6l0,0.6h0c0.3-0.4,0.7-0.7,1.2-0.7c0.8,0,1.4,0.7,1.4,1.7c0,1.2-0.7,1.8-1.5,1.8
			c-0.4,0-0.8-0.2-1-0.5h0v1.8h-0.6V123.5z M322.1,124.5c0,0.1,0,0.2,0,0.3c0.1,0.4,0.5,0.7,0.9,0.7c0.7,0,1-0.5,1-1.3
			c0-0.7-0.4-1.3-1-1.3c-0.4,0-0.8,0.3-0.9,0.8c0,0.1,0,0.2,0,0.3V124.5z"/>
		<path d="M325.5,123.5c0-0.4,0-0.7,0-1.1h0.5l0,0.7h0c0.2-0.5,0.5-0.7,0.9-0.7c0.1,0,0.1,0,0.2,0v0.6c-0.1,0-0.1,0-0.2,0
			c-0.4,0-0.7,0.3-0.8,0.8c0,0.1,0,0.2,0,0.3v1.8h-0.6V123.5z"/>
		<path d="M328.1,124.2c0,0.8,0.5,1.2,1.2,1.2c0.4,0,0.7-0.1,0.9-0.2l0.1,0.4c-0.2,0.1-0.6,0.2-1.1,0.2c-1,0-1.7-0.7-1.7-1.7
			c0-1,0.6-1.8,1.6-1.8c1.1,0,1.4,1,1.4,1.6c0,0.1,0,0.2,0,0.3H328.1z M329.9,123.8c0-0.4-0.2-1-0.9-1c-0.6,0-0.9,0.6-0.9,1H329.9z"
			/>
		<path d="M331.2,125.2c0.2,0.1,0.5,0.2,0.8,0.2c0.4,0,0.7-0.2,0.7-0.5c0-0.3-0.2-0.5-0.6-0.6c-0.6-0.2-0.9-0.6-0.9-1
			c0-0.5,0.4-1,1.2-1c0.3,0,0.6,0.1,0.8,0.2L333,123c-0.1-0.1-0.4-0.2-0.7-0.2c-0.4,0-0.6,0.2-0.6,0.5c0,0.3,0.2,0.4,0.6,0.6
			c0.6,0.2,0.9,0.5,0.9,1c0,0.6-0.5,1-1.3,1c-0.4,0-0.7-0.1-1-0.2L331.2,125.2z"/>
		<path d="M333.9,125.2c0.2,0.1,0.5,0.2,0.8,0.2c0.4,0,0.7-0.2,0.7-0.5c0-0.3-0.2-0.5-0.6-0.6c-0.6-0.2-0.9-0.6-0.9-1
			c0-0.5,0.4-1,1.2-1c0.3,0,0.6,0.1,0.8,0.2l-0.2,0.4c-0.1-0.1-0.4-0.2-0.7-0.2c-0.4,0-0.6,0.2-0.6,0.5c0,0.3,0.2,0.4,0.6,0.6
			c0.6,0.2,0.9,0.5,0.9,1c0,0.6-0.5,1-1.3,1c-0.4,0-0.7-0.1-1-0.2L333.9,125.2z"/>
		<path d="M339.9,124.1c0,1.3-0.9,1.8-1.7,1.8c-0.9,0-1.6-0.7-1.6-1.7c0-1.1,0.7-1.8,1.7-1.8C339.2,122.4,339.9,123.1,339.9,124.1z
			 M337.2,124.1c0,0.7,0.4,1.3,1,1.3c0.6,0,1-0.6,1-1.3c0-0.6-0.3-1.3-1-1.3C337.5,122.8,337.2,123.5,337.2,124.1z"/>
		<path d="M315.2,137.9c0,0.5,0.3,0.7,0.7,0.7c0.3,0,0.4,0,0.5-0.1l0.1,0.3c-0.1,0.1-0.3,0.1-0.6,0.1c-0.6,0-1-0.4-1-1s0.3-1,0.9-1
			c0.6,0,0.8,0.6,0.8,0.9c0,0.1,0,0.1,0,0.2H315.2z M316.3,137.7c0-0.2-0.1-0.6-0.5-0.6c-0.4,0-0.5,0.3-0.5,0.6H316.3z"/>
		<path d="M317.5,136.4v0.5h0.5v0.3h-0.5v1c0,0.2,0.1,0.4,0.3,0.4c0.1,0,0.2,0,0.2,0l0,0.3c-0.1,0-0.2,0.1-0.3,0.1
			c-0.2,0-0.3-0.1-0.4-0.2c-0.1-0.1-0.1-0.3-0.1-0.5v-1.1h-0.3v-0.3h0.3v-0.4L317.5,136.4z"/>
		<path d="M318.4,136h0.4v1.2h0c0.1-0.1,0.1-0.2,0.3-0.2c0.1-0.1,0.2-0.1,0.4-0.1c0.3,0,0.7,0.2,0.7,0.8v1.2h-0.4v-1.1
			c0-0.3-0.1-0.6-0.4-0.6c-0.2,0-0.4,0.2-0.5,0.4c0,0,0,0.1,0,0.2v1.2h-0.4V136z"/>
		<path d="M321,136.4c0,0.1-0.1,0.2-0.2,0.2c-0.1,0-0.2-0.1-0.2-0.2c0-0.1,0.1-0.2,0.2-0.2C320.9,136.1,321,136.2,321,136.4z
			 M320.6,138.8v-1.9h0.4v1.9H320.6z"/>
		<path d="M322.9,138.8c-0.1,0-0.3,0.1-0.6,0.1c-0.6,0-1-0.4-1-1c0-0.6,0.4-1,1-1c0.2,0,0.4,0.1,0.5,0.1l-0.1,0.3
			c-0.1,0-0.2-0.1-0.4-0.1c-0.4,0-0.7,0.3-0.7,0.7c0,0.4,0.3,0.7,0.7,0.7c0.2,0,0.3-0.1,0.4-0.1L322.9,138.8z"/>
		<path d="M324.7,138.4c0,0.2,0,0.3,0,0.5h-0.3l0-0.2h0c-0.1,0.2-0.3,0.3-0.6,0.3c-0.4,0-0.6-0.3-0.6-0.6c0-0.5,0.4-0.7,1.2-0.7v0
			c0-0.2,0-0.4-0.4-0.4c-0.2,0-0.4,0.1-0.5,0.1l-0.1-0.2c0.2-0.1,0.4-0.2,0.6-0.2c0.6,0,0.7,0.4,0.7,0.8V138.4z M324.3,137.8
			c-0.4,0-0.8,0.1-0.8,0.4c0,0.2,0.2,0.3,0.3,0.3c0.3,0,0.4-0.2,0.5-0.3c0,0,0-0.1,0-0.1V137.8z"/>
		<path d="M325.2,136h0.4v2.8h-0.4V136z"/>
		<path d="M326.2,136h0.4v2.8h-0.4V136z"/>
		<path d="M327.3,136.9l0.4,1.1c0,0.1,0.1,0.3,0.1,0.4h0c0-0.1,0.1-0.3,0.1-0.4l0.4-1.1h0.4l-0.5,1.4c-0.3,0.7-0.4,1-0.7,1.2
			c-0.2,0.2-0.3,0.2-0.4,0.2l-0.1-0.3c0.1,0,0.2-0.1,0.3-0.2c0.1-0.1,0.2-0.2,0.3-0.4c0,0,0-0.1,0-0.1s0,0,0-0.1l-0.7-1.8H327.3z"/>
		<path d="M329.8,138.5c0.1,0.1,0.3,0.1,0.5,0.1c0.3,0,0.4-0.1,0.4-0.3c0-0.2-0.1-0.3-0.4-0.4c-0.3-0.1-0.5-0.3-0.5-0.5
			c0-0.3,0.3-0.6,0.7-0.6c0.2,0,0.4,0.1,0.5,0.1l-0.1,0.3c-0.1,0-0.2-0.1-0.4-0.1c-0.2,0-0.3,0.1-0.3,0.3c0,0.2,0.1,0.2,0.4,0.3
			c0.3,0.1,0.5,0.3,0.5,0.6c0,0.3-0.3,0.6-0.7,0.6c-0.2,0-0.4-0.1-0.5-0.1L329.8,138.5z"/>
		<path d="M333.2,137.8c0,0.7-0.5,1-1,1c-0.5,0-0.9-0.4-0.9-1c0-0.6,0.4-1,1-1C332.8,136.9,333.2,137.3,333.2,137.8z M331.7,137.9
			c0,0.4,0.2,0.7,0.6,0.7c0.3,0,0.6-0.3,0.6-0.8c0-0.3-0.2-0.7-0.6-0.7S331.7,137.5,331.7,137.9z"/>
		<path d="M335.3,138.3c0,0.2,0,0.4,0,0.5H335l0-0.3h0c-0.1,0.2-0.3,0.4-0.6,0.4c-0.3,0-0.7-0.2-0.7-0.8v-1.1h0.4v1.1
			c0,0.4,0.1,0.6,0.4,0.6c0.2,0,0.4-0.2,0.5-0.3c0-0.1,0-0.1,0-0.2v-1.2h0.4V138.3z"/>
		<path d="M335.8,137.5c0-0.2,0-0.4,0-0.6h0.3l0,0.4h0c0.1-0.3,0.3-0.4,0.5-0.4c0,0,0.1,0,0.1,0v0.3c0,0-0.1,0-0.1,0
			c-0.2,0-0.4,0.2-0.5,0.5c0,0,0,0.1,0,0.2v1h-0.3V137.5z"/>
		<path d="M338.5,138.8c-0.1,0-0.3,0.1-0.6,0.1c-0.6,0-1-0.4-1-1c0-0.6,0.4-1,1-1c0.2,0,0.4,0.1,0.5,0.1l-0.1,0.3
			c-0.1,0-0.2-0.1-0.4-0.1c-0.4,0-0.7,0.3-0.7,0.7c0,0.4,0.3,0.7,0.7,0.7c0.2,0,0.3-0.1,0.4-0.1L338.5,138.8z"/>
		<path d="M339.1,137.9c0,0.5,0.3,0.7,0.7,0.7c0.3,0,0.4,0,0.5-0.1l0.1,0.3c-0.1,0.1-0.3,0.1-0.6,0.1c-0.6,0-1-0.4-1-1s0.3-1,0.9-1
			c0.6,0,0.8,0.6,0.8,0.9c0,0.1,0,0.1,0,0.2H339.1z M340.1,137.7c0-0.2-0.1-0.6-0.5-0.6c-0.4,0-0.5,0.3-0.5,0.6H340.1z"/>
		<path d="M342.6,136v2.3c0,0.2,0,0.4,0,0.5h-0.3l0-0.3h0c-0.1,0.2-0.3,0.4-0.7,0.4c-0.5,0-0.8-0.4-0.8-1c0-0.6,0.4-1,0.9-1
			c0.3,0,0.5,0.1,0.6,0.3h0V136H342.6z M342.2,137.7c0,0,0-0.1,0-0.1c-0.1-0.2-0.2-0.4-0.5-0.4c-0.4,0-0.6,0.3-0.6,0.7
			c0,0.4,0.2,0.7,0.6,0.7c0.2,0,0.5-0.2,0.5-0.4c0,0,0-0.1,0-0.2V137.7z"/>
		<path d="M342.9,139.3c0.1-0.2,0.2-0.7,0.2-1l0.4,0c-0.1,0.3-0.3,0.8-0.4,1L342.9,139.3z"/>
		<path d="M344.7,138.5c0.1,0.1,0.3,0.1,0.5,0.1c0.3,0,0.4-0.1,0.4-0.3c0-0.2-0.1-0.3-0.4-0.4c-0.3-0.1-0.5-0.3-0.5-0.5
			c0-0.3,0.3-0.6,0.7-0.6c0.2,0,0.4,0.1,0.5,0.1l-0.1,0.3c-0.1,0-0.2-0.1-0.4-0.1c-0.2,0-0.3,0.1-0.3,0.3c0,0.2,0.1,0.2,0.4,0.3
			c0.3,0.1,0.5,0.3,0.5,0.6c0,0.3-0.3,0.6-0.7,0.6c-0.2,0-0.4-0.1-0.5-0.1L344.7,138.5z"/>
		<path d="M346.4,136h0.4v1.2h0c0.1-0.1,0.1-0.2,0.3-0.2c0.1-0.1,0.2-0.1,0.4-0.1c0.3,0,0.7,0.2,0.7,0.8v1.2h-0.4v-1.1
			c0-0.3-0.1-0.6-0.4-0.6c-0.2,0-0.4,0.2-0.5,0.4c0,0,0,0.1,0,0.2v1.2h-0.4V136z"/>
		<path d="M349.9,138.4c0,0.2,0,0.3,0,0.5h-0.3l0-0.2h0c-0.1,0.2-0.3,0.3-0.6,0.3c-0.4,0-0.6-0.3-0.6-0.6c0-0.5,0.4-0.7,1.2-0.7v0
			c0-0.2,0-0.4-0.4-0.4c-0.2,0-0.4,0.1-0.5,0.1l-0.1-0.2c0.2-0.1,0.4-0.2,0.6-0.2c0.6,0,0.7,0.4,0.7,0.8V138.4z M349.6,137.8
			c-0.4,0-0.8,0.1-0.8,0.4c0,0.2,0.2,0.3,0.3,0.3c0.3,0,0.4-0.2,0.5-0.3c0,0,0-0.1,0-0.1V137.8z"/>
		<path d="M352.2,136v2.3c0,0.2,0,0.4,0,0.5h-0.3l0-0.3h0c-0.1,0.2-0.3,0.4-0.7,0.4c-0.5,0-0.8-0.4-0.8-1c0-0.6,0.4-1,0.9-1
			c0.3,0,0.5,0.1,0.6,0.3h0V136H352.2z M351.8,137.7c0,0,0-0.1,0-0.1c-0.1-0.2-0.2-0.4-0.5-0.4c-0.4,0-0.6,0.3-0.6,0.7
			c0,0.4,0.2,0.7,0.6,0.7c0.2,0,0.5-0.2,0.5-0.4c0,0,0-0.1,0-0.2V137.7z"/>
		<path d="M353,137.9c0,0.5,0.3,0.7,0.7,0.7c0.3,0,0.4,0,0.5-0.1l0.1,0.3c-0.1,0.1-0.3,0.1-0.6,0.1c-0.6,0-1-0.4-1-1s0.3-1,0.9-1
			c0.6,0,0.8,0.6,0.8,0.9c0,0.1,0,0.1,0,0.2H353z M354,137.7c0-0.2-0.1-0.6-0.5-0.6c-0.4,0-0.5,0.3-0.5,0.6H354z"/>
		<path d="M357.3,138.6c0,0.4-0.1,0.7-0.3,0.9c-0.2,0.2-0.5,0.2-0.7,0.2c-0.2,0-0.5-0.1-0.6-0.2l0.1-0.3c0.1,0.1,0.3,0.2,0.6,0.2
			c0.4,0,0.6-0.2,0.6-0.7v-0.2h0c-0.1,0.2-0.3,0.3-0.6,0.3c-0.5,0-0.8-0.4-0.8-0.9c0-0.7,0.4-1,0.9-1c0.3,0,0.5,0.2,0.6,0.3h0l0-0.3
			h0.3c0,0.1,0,0.3,0,0.5V138.6z M356.9,137.7c0-0.1,0-0.1,0-0.2c-0.1-0.2-0.2-0.4-0.5-0.4c-0.3,0-0.6,0.3-0.6,0.7
			c0,0.4,0.2,0.7,0.6,0.7c0.2,0,0.4-0.1,0.5-0.4c0-0.1,0-0.1,0-0.2V137.7z"/>
		<path d="M357.8,137.5c0-0.2,0-0.4,0-0.6h0.3l0,0.4h0c0.1-0.3,0.3-0.4,0.5-0.4c0,0,0.1,0,0.1,0v0.3c0,0-0.1,0-0.1,0
			c-0.2,0-0.4,0.2-0.5,0.5c0,0,0,0.1,0,0.2v1h-0.3V137.5z"/>
		<path d="M360.9,137.8c0,0.7-0.5,1-1,1c-0.5,0-0.9-0.4-0.9-1c0-0.6,0.4-1,1-1C360.5,136.9,360.9,137.3,360.9,137.8z M359.3,137.9
			c0,0.4,0.2,0.7,0.6,0.7c0.3,0,0.6-0.3,0.6-0.8c0-0.3-0.2-0.7-0.6-0.7S359.3,137.5,359.3,137.9z"/>
		<path d="M361.4,136.9l0.3,1c0.1,0.2,0.1,0.4,0.1,0.6h0c0-0.2,0.1-0.4,0.2-0.6l0.3-1h0.3l0.3,1c0.1,0.2,0.1,0.4,0.2,0.6h0
			c0-0.2,0.1-0.4,0.1-0.6l0.3-1h0.3l-0.6,1.9h-0.3l-0.3-0.9c-0.1-0.2-0.1-0.4-0.2-0.6h0c0,0.2-0.1,0.4-0.2,0.6l-0.3,0.9h-0.3
			l-0.6-1.9H361.4z"/>
		<path d="M364.2,137.4c0-0.2,0-0.4,0-0.5h0.3l0,0.3h0c0.1-0.2,0.3-0.4,0.6-0.4c0.3,0,0.7,0.2,0.7,0.8v1.2h-0.4v-1.1
			c0-0.3-0.1-0.6-0.4-0.6c-0.2,0-0.4,0.2-0.5,0.4c0,0,0,0.1,0,0.2v1.2h-0.4V137.4z"/>
		<path d="M369,137.8c0,0.7-0.5,1-1,1c-0.5,0-0.9-0.4-0.9-1c0-0.6,0.4-1,1-1C368.7,136.9,369,137.3,369,137.8z M367.5,137.9
			c0,0.4,0.2,0.7,0.6,0.7c0.3,0,0.6-0.3,0.6-0.8c0-0.3-0.2-0.7-0.6-0.7S367.5,137.5,367.5,137.9z"/>
		<path d="M369.5,137.5c0-0.2,0-0.4,0-0.6h0.3l0,0.4h0c0.1-0.3,0.3-0.4,0.5-0.4c0,0,0.1,0,0.1,0v0.3c0,0-0.1,0-0.1,0
			c-0.2,0-0.4,0.2-0.5,0.5c0,0,0,0.1,0,0.2v1h-0.3V137.5z"/>
		<path d="M372.4,138.6c0,0.4-0.1,0.7-0.3,0.9c-0.2,0.2-0.5,0.2-0.7,0.2c-0.2,0-0.5-0.1-0.6-0.2l0.1-0.3c0.1,0.1,0.3,0.2,0.6,0.2
			c0.4,0,0.6-0.2,0.6-0.7v-0.2h0c-0.1,0.2-0.3,0.3-0.6,0.3c-0.5,0-0.8-0.4-0.8-0.9c0-0.7,0.4-1,0.9-1c0.3,0,0.5,0.2,0.6,0.3h0l0-0.3
			h0.3c0,0.1,0,0.3,0,0.5V138.6z M372.1,137.7c0-0.1,0-0.1,0-0.2c-0.1-0.2-0.2-0.4-0.5-0.4c-0.3,0-0.6,0.3-0.6,0.7
			c0,0.4,0.2,0.7,0.6,0.7c0.2,0,0.4-0.1,0.5-0.4c0-0.1,0-0.1,0-0.2V137.7z"/>
		<path d="M374.3,138.4c0,0.2,0,0.3,0,0.5h-0.3l0-0.2h0c-0.1,0.2-0.3,0.3-0.6,0.3c-0.4,0-0.6-0.3-0.6-0.6c0-0.5,0.4-0.7,1.2-0.7v0
			c0-0.2,0-0.4-0.4-0.4c-0.2,0-0.4,0.1-0.5,0.1L373,137c0.2-0.1,0.4-0.2,0.6-0.2c0.6,0,0.7,0.4,0.7,0.8V138.4z M374,137.8
			c-0.4,0-0.8,0.1-0.8,0.4c0,0.2,0.2,0.3,0.3,0.3c0.3,0,0.4-0.2,0.5-0.3c0,0,0-0.1,0-0.1V137.8z"/>
		<path d="M374.9,137.4c0-0.2,0-0.4,0-0.5h0.3l0,0.3h0c0.1-0.2,0.3-0.4,0.6-0.4c0.3,0,0.7,0.2,0.7,0.8v1.2h-0.4v-1.1
			c0-0.3-0.1-0.6-0.4-0.6c-0.2,0-0.4,0.2-0.5,0.4c0,0,0,0.1,0,0.2v1.2h-0.4V137.4z"/>
		<path d="M377.5,136.4c0,0.1-0.1,0.2-0.2,0.2c-0.1,0-0.2-0.1-0.2-0.2c0-0.1,0.1-0.2,0.2-0.2C377.4,136.1,377.5,136.2,377.5,136.4z
			 M377.1,138.8v-1.9h0.4v1.9H377.1z"/>
		<path d="M379.5,138.8c-0.1,0-0.3,0.1-0.6,0.1c-0.6,0-1-0.4-1-1c0-0.6,0.4-1,1-1c0.2,0,0.4,0.1,0.5,0.1l-0.1,0.3
			c-0.1,0-0.2-0.1-0.4-0.1c-0.4,0-0.7,0.3-0.7,0.7c0,0.4,0.3,0.7,0.7,0.7c0.2,0,0.3-0.1,0.4-0.1L379.5,138.8z"/>
		<path d="M380.7,136h0.3v1.2h0c0.1-0.2,0.3-0.4,0.7-0.4c0.5,0,0.8,0.4,0.8,1c0,0.7-0.4,1-0.9,1c-0.3,0-0.5-0.1-0.6-0.4h0l0,0.3
			h-0.3c0-0.1,0-0.3,0-0.5V136z M381.1,138.1c0,0,0,0.1,0,0.1c0.1,0.2,0.3,0.4,0.5,0.4c0.4,0,0.6-0.3,0.6-0.7c0-0.4-0.2-0.7-0.6-0.7
			c-0.2,0-0.5,0.2-0.5,0.4c0,0,0,0.1,0,0.1V138.1z"/>
		<path d="M383.2,137.9c0,0.5,0.3,0.7,0.7,0.7c0.3,0,0.4,0,0.5-0.1l0.1,0.3c-0.1,0.1-0.3,0.1-0.6,0.1c-0.6,0-1-0.4-1-1s0.3-1,0.9-1
			c0.6,0,0.8,0.6,0.8,0.9c0,0.1,0,0.1,0,0.2H383.2z M384.2,137.7c0-0.2-0.1-0.6-0.5-0.6c-0.4,0-0.5,0.3-0.5,0.6H384.2z"/>
		<path d="M386.4,138.4c0,0.2,0,0.3,0,0.5h-0.3l0-0.2h0c-0.1,0.2-0.3,0.3-0.6,0.3c-0.4,0-0.6-0.3-0.6-0.6c0-0.5,0.4-0.7,1.2-0.7v0
			c0-0.2,0-0.4-0.4-0.4c-0.2,0-0.4,0.1-0.5,0.1L385,137c0.2-0.1,0.4-0.2,0.6-0.2c0.6,0,0.7,0.4,0.7,0.8V138.4z M386,137.8
			c-0.4,0-0.8,0.1-0.8,0.4c0,0.2,0.2,0.3,0.3,0.3c0.3,0,0.4-0.2,0.5-0.3c0,0,0-0.1,0-0.1V137.8z"/>
		<path d="M386.9,137.4c0-0.2,0-0.4,0-0.5h0.3l0,0.3h0c0.1-0.2,0.3-0.4,0.6-0.4c0.3,0,0.7,0.2,0.7,0.8v1.2h-0.4v-1.1
			c0-0.3-0.1-0.6-0.4-0.6c-0.2,0-0.4,0.2-0.5,0.4c0,0,0,0.1,0,0.2v1.2h-0.4V137.4z"/>
		<path d="M389.1,138.5c0.1,0.1,0.3,0.1,0.5,0.1c0.3,0,0.4-0.1,0.4-0.3c0-0.2-0.1-0.3-0.4-0.4c-0.3-0.1-0.5-0.3-0.5-0.5
			c0-0.3,0.3-0.6,0.7-0.6c0.2,0,0.4,0.1,0.5,0.1l-0.1,0.3c-0.1,0-0.2-0.1-0.4-0.1c-0.2,0-0.3,0.1-0.3,0.3c0,0.2,0.1,0.2,0.4,0.3
			c0.3,0.1,0.5,0.3,0.5,0.6c0,0.3-0.3,0.6-0.7,0.6c-0.2,0-0.4-0.1-0.5-0.1L389.1,138.5z"/>
	</g>
	<g>
		<path d="M435.4,69.9L435.4,69.9l-0.8,0.4l-0.1-0.5l1-0.5h0.5v4.6h-0.6V69.9z"/>
		<path d="M438.1,73.9c-0.2,0-0.4-0.2-0.4-0.4c0-0.3,0.2-0.4,0.4-0.4s0.4,0.2,0.4,0.4C438.5,73.7,438.4,73.9,438.1,73.9L438.1,73.9z
			"/>
		<path d="M441.8,69.8h-1.7l-0.2,1.2c0.1,0,0.2,0,0.4,0c0.3,0,0.7,0.1,1,0.2c0.4,0.2,0.7,0.6,0.7,1.2c0,0.9-0.7,1.6-1.7,1.6
			c-0.5,0-0.9-0.1-1.1-0.3l0.2-0.5c0.2,0.1,0.6,0.3,1,0.3c0.6,0,1.1-0.4,1.1-1c0-0.6-0.4-1-1.3-1c-0.3,0-0.5,0-0.6,0l0.3-2.2h2.2
			V69.8z"/>
		<path d="M434.2,86.1c0.2,0.1,0.6,0.3,1,0.3c0.8,0,1-0.5,1-0.9c0-0.6-0.6-0.9-1.2-0.9h-0.3v-0.5h0.3c0.4,0,1-0.2,1-0.8
			c0-0.4-0.2-0.7-0.8-0.7c-0.4,0-0.7,0.2-0.9,0.3l-0.2-0.4c0.2-0.2,0.7-0.4,1.2-0.4c0.9,0,1.3,0.5,1.3,1.1c0,0.5-0.3,0.9-0.8,1.1v0
			c0.6,0.1,1,0.5,1,1.2c0,0.7-0.6,1.4-1.7,1.4c-0.5,0-1-0.2-1.2-0.3L434.2,86.1z"/>
		<path d="M438.1,86.9c-0.2,0-0.4-0.2-0.4-0.4c0-0.3,0.2-0.4,0.4-0.4s0.4,0.2,0.4,0.4C438.5,86.7,438.4,86.9,438.1,86.9L438.1,86.9z
			"/>
		<path d="M441.8,82.8h-1.7l-0.2,1.2c0.1,0,0.2,0,0.4,0c0.3,0,0.7,0.1,1,0.2c0.4,0.2,0.7,0.6,0.7,1.2c0,0.9-0.7,1.6-1.7,1.6
			c-0.5,0-0.9-0.1-1.1-0.3l0.2-0.5c0.2,0.1,0.6,0.3,1,0.3c0.6,0,1.1-0.4,1.1-1c0-0.6-0.4-1-1.3-1c-0.3,0-0.5,0-0.6,0l0.3-2.2h2.2
			V82.8z"/>
		<path d="M434.2,99.1c0.2,0.1,0.6,0.3,1,0.3c0.8,0,1-0.5,1-0.9c0-0.6-0.6-0.9-1.2-0.9h-0.3v-0.5h0.3c0.4,0,1-0.2,1-0.8
			c0-0.4-0.2-0.7-0.8-0.7c-0.4,0-0.7,0.2-0.9,0.3l-0.2-0.4c0.2-0.2,0.7-0.4,1.2-0.4c0.9,0,1.3,0.5,1.3,1.1c0,0.5-0.3,0.9-0.8,1.1v0
			c0.6,0.1,1,0.5,1,1.2c0,0.7-0.6,1.4-1.7,1.4c-0.5,0-1-0.2-1.2-0.3L434.2,99.1z"/>
		<path d="M438.1,99.9c-0.2,0-0.4-0.2-0.4-0.4c0-0.3,0.2-0.4,0.4-0.4s0.4,0.2,0.4,0.4C438.5,99.7,438.4,99.9,438.1,99.9L438.1,99.9z
			"/>
		<path d="M441.8,95.8h-1.7l-0.2,1.2c0.1,0,0.2,0,0.4,0c0.3,0,0.7,0.1,1,0.2c0.4,0.2,0.7,0.6,0.7,1.2c0,0.9-0.7,1.6-1.7,1.6
			c-0.5,0-0.9-0.1-1.1-0.3l0.2-0.5c0.2,0.1,0.6,0.3,1,0.3c0.6,0,1.1-0.4,1.1-1c0-0.6-0.4-1-1.3-1c-0.3,0-0.5,0-0.6,0l0.3-2.2h2.2
			V95.8z"/>
		<path d="M434.2,112.1c0.2,0.1,0.6,0.3,1,0.3c0.8,0,1-0.5,1-0.9c0-0.6-0.6-0.9-1.2-0.9h-0.3v-0.5h0.3c0.4,0,1-0.2,1-0.8
			c0-0.4-0.2-0.7-0.8-0.7c-0.4,0-0.7,0.2-0.9,0.3l-0.2-0.4c0.2-0.2,0.7-0.4,1.2-0.4c0.9,0,1.3,0.5,1.3,1.1c0,0.5-0.3,0.9-0.8,1.1v0
			c0.6,0.1,1,0.5,1,1.2c0,0.7-0.6,1.4-1.7,1.4c-0.5,0-1-0.2-1.2-0.3L434.2,112.1z"/>
		<path d="M435.4,121.9L435.4,121.9l-0.8,0.4l-0.1-0.5l1-0.5h0.5v4.6h-0.6V121.9z"/>
		<path d="M438.1,125.9c-0.2,0-0.4-0.2-0.4-0.4c0-0.3,0.2-0.4,0.4-0.4s0.4,0.2,0.4,0.4C438.5,125.7,438.4,125.9,438.1,125.9
			L438.1,125.9z"/>
		<path d="M441.8,121.8h-1.7l-0.2,1.2c0.1,0,0.2,0,0.4,0c0.3,0,0.7,0.1,1,0.2c0.4,0.2,0.7,0.6,0.7,1.2c0,0.9-0.7,1.6-1.7,1.6
			c-0.5,0-0.9-0.1-1.1-0.3l0.2-0.5c0.2,0.1,0.6,0.3,1,0.3c0.6,0,1.1-0.4,1.1-1c0-0.6-0.4-1-1.3-1c-0.3,0-0.5,0-0.6,0l0.3-2.2h2.2
			V121.8z"/>
	</g>
	<g>
		<path d="M153,185.2h-4v-1.5h9.8v1.5h-4v11.8H153V185.2z"/>
		<path d="M167.1,190.7h-5.1v4.8h5.7v1.4h-7.4v-13.2h7.1v1.4h-5.4v4.2h5.1V190.7z"/>
		<path d="M172,192.8l-1.4,4.2h-1.8l4.5-13.2h2.1l4.5,13.2h-1.8l-1.4-4.2H172z M176.3,191.4l-1.3-3.8c-0.3-0.9-0.5-1.6-0.7-2.4h0
			c-0.2,0.8-0.4,1.6-0.7,2.4l-1.3,3.8H176.3z"/>
	</g>
	<g>
		<path d="M315.3,167.9h0.6v2.1h0c0.2-0.4,0.6-0.6,1.2-0.6c0.8,0,1.4,0.7,1.4,1.7c0,1.2-0.8,1.8-1.5,1.8c-0.5,0-0.9-0.2-1.1-0.6h0
			l0,0.6h-0.5c0-0.2,0-0.6,0-0.9V167.9z M315.9,171.5c0,0.1,0,0.2,0,0.2c0.1,0.4,0.5,0.7,0.9,0.7c0.6,0,1-0.5,1-1.3
			c0-0.7-0.3-1.3-1-1.3c-0.4,0-0.8,0.3-0.9,0.8c0,0.1,0,0.2,0,0.3V171.5z"/>
		<path d="M319.2,167.9h0.6v5h-0.6V167.9z"/>
		<path d="M323.3,172c0,0.3,0,0.6,0.1,0.8h-0.6l0-0.4h0c-0.2,0.3-0.6,0.5-1,0.5c-0.7,0-1-0.5-1-1c0-0.8,0.7-1.3,2-1.3v-0.1
			c0-0.3-0.1-0.8-0.8-0.8c-0.3,0-0.6,0.1-0.9,0.3l-0.1-0.4c0.3-0.2,0.7-0.3,1.1-0.3c1,0,1.3,0.7,1.3,1.4V172z M322.7,171.1
			c-0.7,0-1.4,0.1-1.4,0.8c0,0.4,0.3,0.6,0.6,0.6c0.4,0,0.7-0.3,0.8-0.6c0-0.1,0-0.1,0-0.2V171.1z"/>
		<path d="M326.7,172.7c-0.2,0.1-0.5,0.2-1,0.2c-1,0-1.7-0.7-1.7-1.7c0-1,0.7-1.8,1.8-1.8c0.4,0,0.7,0.1,0.9,0.2l-0.1,0.5
			c-0.1-0.1-0.4-0.2-0.7-0.2c-0.8,0-1.2,0.6-1.2,1.3c0,0.8,0.5,1.3,1.2,1.3c0.3,0,0.6-0.1,0.8-0.2L326.7,172.7z"/>
		<path d="M328,171L328,171c0.1-0.1,0.2-0.3,0.3-0.4l1-1.2h0.7l-1.3,1.4l1.5,2h-0.7l-1.2-1.6l-0.3,0.4v1.3h-0.6v-5h0.6V171z"/>
		<path d="M334.6,172c0,0.3,0,0.6,0.1,0.8h-0.6l0-0.4h0c-0.2,0.3-0.6,0.5-1,0.5c-0.7,0-1-0.5-1-1c0-0.8,0.7-1.3,2-1.3v-0.1
			c0-0.3-0.1-0.8-0.8-0.8c-0.3,0-0.6,0.1-0.9,0.3l-0.1-0.4c0.3-0.2,0.7-0.3,1.1-0.3c1,0,1.3,0.7,1.3,1.4V172z M334,171.1
			c-0.7,0-1.4,0.1-1.4,0.8c0,0.4,0.3,0.6,0.6,0.6c0.4,0,0.7-0.3,0.8-0.6c0-0.1,0-0.1,0-0.2V171.1z"/>
		<path d="M335.5,172.2c0.2,0.1,0.5,0.2,0.8,0.2c0.4,0,0.7-0.2,0.7-0.5c0-0.3-0.2-0.5-0.6-0.6c-0.6-0.2-0.9-0.6-0.9-1
			c0-0.5,0.4-1,1.2-1c0.3,0,0.6,0.1,0.8,0.2l-0.2,0.4c-0.1-0.1-0.4-0.2-0.7-0.2c-0.4,0-0.6,0.2-0.6,0.5c0,0.3,0.2,0.4,0.6,0.6
			c0.6,0.2,0.9,0.5,0.9,1c0,0.6-0.5,1-1.3,1c-0.4,0-0.7-0.1-1-0.2L335.5,172.2z"/>
		<path d="M338.2,172.2c0.2,0.1,0.5,0.2,0.8,0.2c0.4,0,0.7-0.2,0.7-0.5c0-0.3-0.2-0.5-0.6-0.6c-0.6-0.2-0.9-0.6-0.9-1
			c0-0.5,0.4-1,1.2-1c0.3,0,0.6,0.1,0.8,0.2L340,170c-0.1-0.1-0.4-0.2-0.7-0.2c-0.4,0-0.6,0.2-0.6,0.5c0,0.3,0.2,0.4,0.6,0.6
			c0.6,0.2,0.9,0.5,0.9,1c0,0.6-0.5,1-1.3,1c-0.4,0-0.7-0.1-1-0.2L338.2,172.2z"/>
		<path d="M343.5,172c0,0.3,0,0.6,0.1,0.8H343l0-0.4h0c-0.2,0.3-0.6,0.5-1,0.5c-0.7,0-1-0.5-1-1c0-0.8,0.7-1.3,2-1.3v-0.1
			c0-0.3-0.1-0.8-0.8-0.8c-0.3,0-0.6,0.1-0.9,0.3l-0.1-0.4c0.3-0.2,0.7-0.3,1.1-0.3c1,0,1.3,0.7,1.3,1.4V172z M342.9,171.1
			c-0.7,0-1.4,0.1-1.4,0.8c0,0.4,0.3,0.6,0.6,0.6c0.4,0,0.7-0.3,0.8-0.6c0-0.1,0-0.1,0-0.2V171.1z"/>
		<path d="M344.5,170.4c0-0.4,0-0.6,0-0.9h0.5l0,0.5h0c0.2-0.3,0.5-0.6,1.1-0.6c0.5,0,0.8,0.3,1,0.7h0c0.1-0.2,0.2-0.3,0.4-0.4
			c0.2-0.2,0.4-0.2,0.7-0.2c0.4,0,1.1,0.3,1.1,1.5v2h-0.6v-1.9c0-0.7-0.2-1-0.7-1c-0.3,0-0.6,0.3-0.7,0.6c0,0.1,0,0.2,0,0.3v2.1
			h-0.6v-2c0-0.5-0.2-0.9-0.7-0.9c-0.4,0-0.7,0.3-0.8,0.6c0,0.1,0,0.2,0,0.3v2h-0.6V170.4z"/>
		<path d="M353.2,170.7v0.5h-1.7v-0.5H353.2z"/>
		<path d="M356.1,168.5c0,0.2-0.1,0.4-0.4,0.4c-0.2,0-0.4-0.2-0.4-0.4c0-0.2,0.2-0.4,0.4-0.4C356,168.1,356.1,168.3,356.1,168.5z
			 M355.4,172.8v-3.4h0.6v3.4H355.4z"/>
		<path d="M357.1,170.4c0-0.4,0-0.6,0-0.9h0.5l0,0.6h0c0.2-0.3,0.6-0.6,1.1-0.6c0.5,0,1.2,0.3,1.2,1.4v2h-0.6v-2c0-0.5-0.2-1-0.8-1
			c-0.4,0-0.7,0.3-0.8,0.6c0,0.1,0,0.2,0,0.3v2h-0.6V170.4z"/>
		<path d="M363.9,167.9v4.1c0,0.3,0,0.6,0,0.9h-0.6l0-0.6h0c-0.2,0.4-0.6,0.7-1.2,0.7c-0.8,0-1.4-0.7-1.4-1.7c0-1.1,0.7-1.8,1.5-1.8
			c0.5,0,0.9,0.2,1,0.5h0v-2H363.9z M363.3,170.8c0-0.1,0-0.2,0-0.3c-0.1-0.4-0.4-0.7-0.9-0.7c-0.6,0-1,0.6-1,1.3
			c0,0.7,0.3,1.3,1,1.3c0.4,0,0.8-0.3,0.9-0.7c0-0.1,0-0.2,0-0.3V170.8z"/>
		<path d="M365.6,168.5c0,0.2-0.1,0.4-0.4,0.4c-0.2,0-0.4-0.2-0.4-0.4c0-0.2,0.2-0.4,0.4-0.4C365.4,168.1,365.6,168.3,365.6,168.5z
			 M364.9,172.8v-3.4h0.6v3.4H364.9z"/>
		<path d="M368.9,172c0,0.3,0,0.6,0.1,0.8h-0.6l0-0.4h0c-0.2,0.3-0.6,0.5-1,0.5c-0.7,0-1-0.5-1-1c0-0.8,0.7-1.3,2-1.3v-0.1
			c0-0.3-0.1-0.8-0.8-0.8c-0.3,0-0.6,0.1-0.9,0.3l-0.1-0.4c0.3-0.2,0.7-0.3,1.1-0.3c1,0,1.3,0.7,1.3,1.4V172z M368.3,171.1
			c-0.7,0-1.4,0.1-1.4,0.8c0,0.4,0.3,0.6,0.6,0.6c0.4,0,0.7-0.3,0.8-0.6c0-0.1,0-0.1,0-0.2V171.1z"/>
		<path d="M318.2,185.3c0,0.8-0.2,1.3-0.5,1.5c-0.3,0.3-0.8,0.4-1.2,0.4c-0.4,0-0.9-0.1-1.1-0.3l0.2-0.5c0.2,0.1,0.6,0.3,1,0.3
			c0.6,0,1.1-0.3,1.1-1.2v-0.4h0c-0.2,0.3-0.6,0.6-1.1,0.6c-0.8,0-1.4-0.7-1.4-1.7c0-1.1,0.7-1.8,1.5-1.8c0.6,0,0.9,0.3,1.1,0.6h0
			l0-0.5h0.5c0,0.2,0,0.5,0,0.9V185.3z M317.5,183.8c0-0.1,0-0.2,0-0.3c-0.1-0.4-0.4-0.7-0.9-0.7c-0.6,0-1,0.5-1,1.3
			c0,0.7,0.3,1.2,1,1.2c0.4,0,0.7-0.2,0.9-0.6c0-0.1,0-0.2,0-0.3V183.8z"/>
		<path d="M319.1,183.5c0-0.4,0-0.7,0-1.1h0.5l0,0.7h0c0.2-0.5,0.5-0.7,0.9-0.7c0.1,0,0.1,0,0.2,0v0.6c-0.1,0-0.1,0-0.2,0
			c-0.4,0-0.7,0.3-0.8,0.8c0,0.1,0,0.2,0,0.3v1.8h-0.6V183.5z"/>
		<path d="M321.7,184.2c0,0.8,0.5,1.2,1.2,1.2c0.4,0,0.7-0.1,0.9-0.2l0.1,0.4c-0.2,0.1-0.6,0.2-1.1,0.2c-1,0-1.7-0.7-1.7-1.7
			c0-1,0.6-1.8,1.6-1.8c1.1,0,1.4,1,1.4,1.6c0,0.1,0,0.2,0,0.3H321.7z M323.5,183.8c0-0.4-0.2-1-0.9-1c-0.6,0-0.9,0.6-0.9,1H323.5z"
			/>
		<path d="M325.2,184.2c0,0.8,0.5,1.2,1.2,1.2c0.4,0,0.7-0.1,0.9-0.2l0.1,0.4c-0.2,0.1-0.6,0.2-1.1,0.2c-1,0-1.7-0.7-1.7-1.7
			c0-1,0.6-1.8,1.6-1.8c1.1,0,1.4,1,1.4,1.6c0,0.1,0,0.2,0,0.3H325.2z M327,183.8c0-0.4-0.2-1-0.9-1c-0.6,0-0.9,0.6-0.9,1H327z"/>
		<path d="M328.4,183.4c0-0.4,0-0.6,0-0.9h0.5l0,0.6h0c0.2-0.3,0.6-0.6,1.1-0.6c0.5,0,1.2,0.3,1.2,1.4v2h-0.6v-2c0-0.5-0.2-1-0.8-1
			c-0.4,0-0.7,0.3-0.8,0.6c0,0.1,0,0.2,0,0.3v2h-0.6V183.4z"/>
		<path d="M332.9,186.8c0.3,0,0.5-0.1,0.7-0.3c0.2-0.2,0.2-0.5,0.2-1.3v-2.9h0.6v3.1c0,0.7-0.1,1.1-0.4,1.4
			c-0.3,0.3-0.7,0.4-1.1,0.4L332.9,186.8z M334.5,181.5c0,0.2-0.1,0.4-0.4,0.4c-0.2,0-0.4-0.2-0.4-0.4c0-0.2,0.2-0.4,0.4-0.4
			C334.4,181.1,334.5,181.3,334.5,181.5z"/>
		<path d="M337.8,185c0,0.3,0,0.6,0.1,0.8h-0.6l0-0.4h0c-0.2,0.3-0.6,0.5-1,0.5c-0.7,0-1-0.5-1-1c0-0.8,0.7-1.3,2-1.3v-0.1
			c0-0.3-0.1-0.8-0.8-0.8c-0.3,0-0.6,0.1-0.9,0.3l-0.1-0.4c0.3-0.2,0.7-0.3,1.1-0.3c1,0,1.3,0.7,1.3,1.4V185z M337.2,184.1
			c-0.7,0-1.4,0.1-1.4,0.8c0,0.4,0.3,0.6,0.6,0.6c0.4,0,0.7-0.3,0.8-0.6c0-0.1,0-0.1,0-0.2V184.1z"/>
		<path d="M341.7,180.9v4.1c0,0.3,0,0.6,0,0.9h-0.6l0-0.6h0c-0.2,0.4-0.6,0.7-1.2,0.7c-0.8,0-1.4-0.7-1.4-1.7c0-1.1,0.7-1.8,1.5-1.8
			c0.5,0,0.9,0.2,1,0.5h0v-2H341.7z M341.1,183.8c0-0.1,0-0.2,0-0.3c-0.1-0.4-0.4-0.7-0.9-0.7c-0.6,0-1,0.6-1,1.3
			c0,0.7,0.3,1.3,1,1.3c0.4,0,0.8-0.3,0.9-0.7c0-0.1,0-0.2,0-0.3V183.8z"/>
		<path d="M343.1,184.2c0,0.8,0.5,1.2,1.2,1.2c0.4,0,0.7-0.1,0.9-0.2l0.1,0.4c-0.2,0.1-0.6,0.2-1.1,0.2c-1,0-1.7-0.7-1.7-1.7
			c0-1,0.6-1.8,1.6-1.8c1.1,0,1.4,1,1.4,1.6c0,0.1,0,0.2,0,0.3H343.1z M344.9,183.8c0-0.4-0.2-1-0.9-1c-0.6,0-0.9,0.6-0.9,1H344.9z"
			/>
		<path d="M349.2,183.7v0.5h-1.7v-0.5H349.2z"/>
		<path d="M353.8,185.7c-0.2,0.1-0.5,0.2-1,0.2c-1,0-1.7-0.7-1.7-1.7c0-1,0.7-1.8,1.8-1.8c0.4,0,0.7,0.1,0.9,0.2l-0.1,0.5
			c-0.1-0.1-0.4-0.2-0.7-0.2c-0.8,0-1.2,0.6-1.2,1.3c0,0.8,0.5,1.3,1.2,1.3c0.3,0,0.6-0.1,0.8-0.2L353.8,185.7z"/>
		<path d="M354.5,180.9h0.6v2.1h0c0.1-0.2,0.3-0.3,0.4-0.4c0.2-0.1,0.4-0.2,0.6-0.2c0.5,0,1.2,0.3,1.2,1.4v2h-0.6v-1.9
			c0-0.5-0.2-1-0.8-1c-0.4,0-0.7,0.3-0.8,0.6c0,0.1,0,0.2,0,0.3v2h-0.6V180.9z"/>
		<path d="M359.1,181.5c0,0.2-0.1,0.4-0.4,0.4c-0.2,0-0.4-0.2-0.4-0.4c0-0.2,0.2-0.4,0.4-0.4C358.9,181.1,359.1,181.3,359.1,181.5z
			 M358.4,185.8v-3.4h0.6v3.4H358.4z"/>
		<path d="M360,183.4c0-0.4,0-0.6,0-0.9h0.5l0,0.6h0c0.2-0.3,0.6-0.6,1.1-0.6c0.5,0,1.2,0.3,1.2,1.4v2h-0.6v-2c0-0.5-0.2-1-0.8-1
			c-0.4,0-0.7,0.3-0.8,0.6c0,0.1,0,0.2,0,0.3v2H360V183.4z"/>
		<path d="M366.3,185c0,0.3,0,0.6,0.1,0.8h-0.6l0-0.4h0c-0.2,0.3-0.6,0.5-1,0.5c-0.7,0-1-0.5-1-1c0-0.8,0.7-1.3,2-1.3v-0.1
			c0-0.3-0.1-0.8-0.8-0.8c-0.3,0-0.6,0.1-0.9,0.3l-0.1-0.4c0.3-0.2,0.7-0.3,1.1-0.3c1,0,1.3,0.7,1.3,1.4V185z M365.7,184.1
			c-0.7,0-1.4,0.1-1.4,0.8c0,0.4,0.3,0.6,0.6,0.6c0.4,0,0.7-0.3,0.8-0.6c0-0.1,0-0.1,0-0.2V184.1z"/>
		<path d="M314.9,198.5l1.5-2c0.1-0.2,0.3-0.3,0.4-0.5v0H315v-0.5h2.6l0,0.4l-1.5,2c-0.1,0.2-0.3,0.4-0.4,0.5v0h2v0.5h-2.8V198.5z"
			/>
		<path d="M318.6,197.2c0,0.8,0.5,1.2,1.2,1.2c0.4,0,0.7-0.1,0.9-0.2l0.1,0.4c-0.2,0.1-0.6,0.2-1.1,0.2c-1,0-1.7-0.7-1.7-1.7
			c0-1,0.6-1.8,1.6-1.8c1.1,0,1.4,1,1.4,1.6c0,0.1,0,0.2,0,0.3H318.6z M320.4,196.8c0-0.4-0.2-1-0.9-1c-0.6,0-0.9,0.6-0.9,1H320.4z"
			/>
		<path d="M321.7,196.4c0-0.4,0-0.6,0-0.9h0.5l0,0.6h0c0.2-0.3,0.6-0.6,1.1-0.6c0.5,0,1.2,0.3,1.2,1.4v2H324v-2c0-0.5-0.2-1-0.8-1
			c-0.4,0-0.7,0.3-0.8,0.6c0,0.1,0,0.2,0,0.3v2h-0.6V196.4z"/>
		<path d="M327.1,196.4c0-0.4,0-0.6,0-0.9h0.5l0,0.5h0c0.2-0.3,0.5-0.6,1.1-0.6c0.5,0,0.8,0.3,1,0.7h0c0.1-0.2,0.2-0.3,0.4-0.4
			c0.2-0.2,0.4-0.2,0.7-0.2c0.4,0,1.1,0.3,1.1,1.5v2h-0.6v-1.9c0-0.7-0.2-1-0.7-1c-0.3,0-0.6,0.3-0.7,0.6c0,0.1,0,0.2,0,0.3v2.1
			h-0.6v-2c0-0.5-0.2-0.9-0.7-0.9c-0.4,0-0.7,0.3-0.8,0.6c0,0.1,0,0.2,0,0.3v2h-0.6V196.4z"/>
		<path d="M333.6,194.5c0,0.2-0.1,0.4-0.4,0.4c-0.2,0-0.4-0.2-0.4-0.4c0-0.2,0.2-0.4,0.4-0.4C333.5,194.1,333.6,194.3,333.6,194.5z
			 M332.9,198.8v-3.4h0.6v3.4H332.9z"/>
		<path d="M336,193.9h0.6v2.1h0c0.1-0.2,0.3-0.3,0.4-0.4c0.2-0.1,0.4-0.2,0.6-0.2c0.5,0,1.2,0.3,1.2,1.4v2h-0.6v-1.9
			c0-0.5-0.2-1-0.8-1c-0.4,0-0.7,0.3-0.8,0.6c0,0.1,0,0.2,0,0.3v2H336V193.9z"/>
		<path d="M342.3,198c0,0.3,0,0.6,0.1,0.8h-0.6l0-0.4h0c-0.2,0.3-0.6,0.5-1,0.5c-0.7,0-1-0.5-1-1c0-0.8,0.7-1.3,2-1.3v-0.1
			c0-0.3-0.1-0.8-0.8-0.8c-0.3,0-0.6,0.1-0.9,0.3l-0.1-0.4c0.3-0.2,0.7-0.3,1.1-0.3c1,0,1.3,0.7,1.3,1.4V198z M341.7,197.1
			c-0.7,0-1.4,0.1-1.4,0.8c0,0.4,0.3,0.6,0.6,0.6c0.4,0,0.7-0.3,0.8-0.6c0-0.1,0-0.1,0-0.2V197.1z"/>
		<path d="M344,194.5c0,0.2-0.1,0.4-0.4,0.4c-0.2,0-0.4-0.2-0.4-0.4c0-0.2,0.2-0.4,0.4-0.4C343.8,194.1,344,194.3,344,194.5z
			 M343.3,198.8v-3.4h0.6v3.4H343.3z"/>
		<path d="M347.9,196.7v0.5h-1.7v-0.5H347.9z"/>
		<path d="M352.5,198.7c-0.2,0.1-0.5,0.2-1,0.2c-1,0-1.7-0.7-1.7-1.7c0-1,0.7-1.8,1.8-1.8c0.4,0,0.7,0.1,0.9,0.2l-0.1,0.5
			c-0.1-0.1-0.4-0.2-0.7-0.2c-0.8,0-1.2,0.6-1.2,1.3c0,0.8,0.5,1.3,1.2,1.3c0.3,0,0.6-0.1,0.8-0.2L352.5,198.7z"/>
		<path d="M353.2,193.9h0.6v2.1h0c0.1-0.2,0.3-0.3,0.4-0.4c0.2-0.1,0.4-0.2,0.6-0.2c0.5,0,1.2,0.3,1.2,1.4v2h-0.6v-1.9
			c0-0.5-0.2-1-0.8-1c-0.4,0-0.7,0.3-0.8,0.6c0,0.1,0,0.2,0,0.3v2h-0.6V193.9z"/>
		<path d="M357.8,194.5c0,0.2-0.1,0.4-0.4,0.4c-0.2,0-0.4-0.2-0.4-0.4c0-0.2,0.2-0.4,0.4-0.4C357.6,194.1,357.8,194.3,357.8,194.5z
			 M357.1,198.8v-3.4h0.6v3.4H357.1z"/>
		<path d="M358.7,196.4c0-0.4,0-0.6,0-0.9h0.5l0,0.6h0c0.2-0.3,0.6-0.6,1.1-0.6c0.5,0,1.2,0.3,1.2,1.4v2H361v-2c0-0.5-0.2-1-0.8-1
			c-0.4,0-0.7,0.3-0.8,0.6c0,0.1,0,0.2,0,0.3v2h-0.6V196.4z"/>
		<path d="M365,198c0,0.3,0,0.6,0.1,0.8h-0.6l0-0.4h0c-0.2,0.3-0.6,0.5-1,0.5c-0.7,0-1-0.5-1-1c0-0.8,0.7-1.3,2-1.3v-0.1
			c0-0.3-0.1-0.8-0.8-0.8c-0.3,0-0.6,0.1-0.9,0.3l-0.1-0.4c0.3-0.2,0.7-0.3,1.1-0.3c1,0,1.3,0.7,1.3,1.4V198z M364.4,197.1
			c-0.7,0-1.4,0.1-1.4,0.8c0,0.4,0.3,0.6,0.6,0.6c0.4,0,0.7-0.3,0.8-0.6c0-0.1,0-0.1,0-0.2V197.1z"/>
		<path d="M317.6,211c0,0.3,0,0.6,0.1,0.8h-0.6l0-0.4h0c-0.2,0.3-0.6,0.5-1,0.5c-0.7,0-1-0.5-1-1c0-0.8,0.7-1.3,2-1.3v-0.1
			c0-0.3-0.1-0.8-0.8-0.8c-0.3,0-0.6,0.1-0.9,0.3l-0.1-0.4c0.3-0.2,0.7-0.3,1.1-0.3c1,0,1.3,0.7,1.3,1.4V211z M317,210.1
			c-0.7,0-1.4,0.1-1.4,0.8c0,0.4,0.3,0.6,0.6,0.6c0.4,0,0.7-0.3,0.8-0.6c0-0.1,0-0.1,0-0.2V210.1z"/>
		<path d="M318.6,211.2c0.2,0.1,0.5,0.2,0.8,0.2c0.4,0,0.7-0.2,0.7-0.5c0-0.3-0.2-0.5-0.6-0.6c-0.6-0.2-0.9-0.6-0.9-1
			c0-0.5,0.4-1,1.2-1c0.3,0,0.6,0.1,0.8,0.2l-0.2,0.4c-0.1-0.1-0.4-0.2-0.7-0.2c-0.4,0-0.6,0.2-0.6,0.5c0,0.3,0.2,0.4,0.6,0.6
			c0.6,0.2,0.9,0.5,0.9,1c0,0.6-0.5,1-1.3,1c-0.4,0-0.7-0.1-1-0.2L318.6,211.2z"/>
		<path d="M321.3,211.2c0.2,0.1,0.5,0.2,0.8,0.2c0.4,0,0.7-0.2,0.7-0.5c0-0.3-0.2-0.5-0.6-0.6c-0.6-0.2-0.9-0.6-0.9-1
			c0-0.5,0.4-1,1.2-1c0.3,0,0.6,0.1,0.8,0.2l-0.2,0.4c-0.1-0.1-0.4-0.2-0.7-0.2c-0.4,0-0.6,0.2-0.6,0.5c0,0.3,0.2,0.4,0.6,0.6
			c0.6,0.2,0.9,0.5,0.9,1c0,0.6-0.5,1-1.3,1c-0.4,0-0.7-0.1-1-0.2L321.3,211.2z"/>
		<path d="M327.2,210.1c0,1.3-0.9,1.8-1.7,1.8c-0.9,0-1.6-0.7-1.6-1.7c0-1.1,0.7-1.8,1.7-1.8C326.6,208.4,327.2,209.1,327.2,210.1z
			 M324.6,210.1c0,0.7,0.4,1.3,1,1.3c0.6,0,1-0.6,1-1.3c0-0.6-0.3-1.3-1-1.3C324.9,208.8,324.6,209.5,324.6,210.1z"/>
		<path d="M328,209.5c0-0.4,0-0.7,0-1.1h0.5l0,0.7h0c0.2-0.5,0.5-0.7,0.9-0.7c0.1,0,0.1,0,0.2,0v0.6c-0.1,0-0.1,0-0.2,0
			c-0.4,0-0.7,0.3-0.8,0.8c0,0.1,0,0.2,0,0.3v1.8H328V209.5z"/>
		<path d="M331.2,207.6v0.8h0.9v0.5h-0.9v1.8c0,0.4,0.1,0.7,0.5,0.7c0.2,0,0.3,0,0.4,0l0,0.5c-0.1,0-0.3,0.1-0.5,0.1
			c-0.3,0-0.5-0.1-0.7-0.3c-0.2-0.2-0.2-0.5-0.2-0.9v-1.8h-0.5v-0.5h0.5v-0.6L331.2,207.6z"/>
		<path d="M333.1,210.2c0,0.8,0.5,1.2,1.2,1.2c0.4,0,0.7-0.1,0.9-0.2l0.1,0.4c-0.2,0.1-0.6,0.2-1.1,0.2c-1,0-1.7-0.7-1.7-1.7
			c0-1,0.6-1.8,1.6-1.8c1.1,0,1.4,1,1.4,1.6c0,0.1,0,0.2,0,0.3H333.1z M334.9,209.8c0-0.4-0.2-1-0.9-1c-0.6,0-0.9,0.6-0.9,1H334.9z"
			/>
		<path d="M339.2,206.9v4.1c0,0.3,0,0.6,0,0.9h-0.6l0-0.6h0c-0.2,0.4-0.6,0.7-1.2,0.7c-0.8,0-1.4-0.7-1.4-1.7c0-1.1,0.7-1.8,1.5-1.8
			c0.5,0,0.9,0.2,1,0.5h0v-2H339.2z M338.6,209.8c0-0.1,0-0.2,0-0.3c-0.1-0.4-0.4-0.7-0.9-0.7c-0.6,0-1,0.6-1,1.3
			c0,0.7,0.3,1.3,1,1.3c0.4,0,0.8-0.3,0.9-0.7c0-0.1,0-0.2,0-0.3V209.8z"/>
		<path d="M341.7,206.9h0.6v2.1h0c0.1-0.2,0.3-0.3,0.4-0.4c0.2-0.1,0.4-0.2,0.6-0.2c0.5,0,1.2,0.3,1.2,1.4v2H344v-1.9
			c0-0.5-0.2-1-0.8-1c-0.4,0-0.7,0.3-0.8,0.6c0,0.1,0,0.2,0,0.3v2h-0.6V206.9z"/>
		<path d="M345.9,210.2c0,0.8,0.5,1.2,1.2,1.2c0.4,0,0.7-0.1,0.9-0.2l0.1,0.4c-0.2,0.1-0.6,0.2-1.1,0.2c-1,0-1.7-0.7-1.7-1.7
			c0-1,0.6-1.8,1.6-1.8c1.1,0,1.4,1,1.4,1.6c0,0.1,0,0.2,0,0.3H345.9z M347.7,209.8c0-0.4-0.2-1-0.9-1c-0.6,0-0.9,0.6-0.9,1H347.7z"
			/>
		<path d="M349.1,209.5c0-0.4,0-0.7,0-1.1h0.5l0,0.7h0c0.2-0.5,0.5-0.7,0.9-0.7c0.1,0,0.1,0,0.2,0v0.6c-0.1,0-0.1,0-0.2,0
			c-0.4,0-0.7,0.3-0.8,0.8c0,0.1,0,0.2,0,0.3v1.8h-0.6V209.5z"/>
		<path d="M351.4,206.9h0.6v2.1h0c0.2-0.4,0.6-0.6,1.2-0.6c0.8,0,1.4,0.7,1.4,1.7c0,1.2-0.8,1.8-1.5,1.8c-0.5,0-0.9-0.2-1.1-0.6h0
			l0,0.6h-0.5c0-0.2,0-0.6,0-0.9V206.9z M352,210.5c0,0.1,0,0.2,0,0.2c0.1,0.4,0.5,0.7,0.9,0.7c0.6,0,1-0.5,1-1.3
			c0-0.7-0.3-1.3-1-1.3c-0.4,0-0.8,0.3-0.9,0.8c0,0.1,0,0.2,0,0.3V210.5z"/>
		<path d="M357.8,211c0,0.3,0,0.6,0.1,0.8h-0.6l0-0.4h0c-0.2,0.3-0.6,0.5-1,0.5c-0.7,0-1-0.5-1-1c0-0.8,0.7-1.3,2-1.3v-0.1
			c0-0.3-0.1-0.8-0.8-0.8c-0.3,0-0.6,0.1-0.9,0.3l-0.1-0.4c0.3-0.2,0.7-0.3,1.1-0.3c1,0,1.3,0.7,1.3,1.4V211z M357.2,210.1
			c-0.7,0-1.4,0.1-1.4,0.8c0,0.4,0.3,0.6,0.6,0.6c0.4,0,0.7-0.3,0.8-0.6c0-0.1,0-0.1,0-0.2V210.1z"/>
		<path d="M358.8,206.9h0.6v5h-0.6V206.9z"/>
		<path d="M362.6,207.6v0.8h0.9v0.5h-0.9v1.8c0,0.4,0.1,0.7,0.5,0.7c0.2,0,0.3,0,0.4,0l0,0.5c-0.1,0-0.3,0.1-0.5,0.1
			c-0.3,0-0.5-0.1-0.7-0.3c-0.2-0.2-0.2-0.5-0.2-0.9v-1.8h-0.5v-0.5h0.5v-0.6L362.6,207.6z"/>
		<path d="M364.5,210.2c0,0.8,0.5,1.2,1.2,1.2c0.4,0,0.7-0.1,0.9-0.2l0.1,0.4c-0.2,0.1-0.6,0.2-1.1,0.2c-1,0-1.7-0.7-1.7-1.7
			c0-1,0.6-1.8,1.6-1.8c1.1,0,1.4,1,1.4,1.6c0,0.1,0,0.2,0,0.3H364.5z M366.3,209.8c0-0.4-0.2-1-0.9-1c-0.6,0-0.9,0.6-0.9,1H366.3z"
			/>
		<path d="M370.1,211c0,0.3,0,0.6,0.1,0.8h-0.6l0-0.4h0c-0.2,0.3-0.6,0.5-1,0.5c-0.7,0-1-0.5-1-1c0-0.8,0.7-1.3,2-1.3v-0.1
			c0-0.3-0.1-0.8-0.8-0.8c-0.3,0-0.6,0.1-0.9,0.3l-0.1-0.4c0.3-0.2,0.7-0.3,1.1-0.3c1,0,1.3,0.7,1.3,1.4V211z M369.5,210.1
			c-0.7,0-1.4,0.1-1.4,0.8c0,0.4,0.3,0.6,0.6,0.6c0.4,0,0.7-0.3,0.8-0.6c0-0.1,0-0.1,0-0.2V210.1z"/>
		<path d="M371,211.2c0.2,0.1,0.5,0.2,0.8,0.2c0.4,0,0.7-0.2,0.7-0.5c0-0.3-0.2-0.5-0.6-0.6c-0.6-0.2-0.9-0.6-0.9-1
			c0-0.5,0.4-1,1.2-1c0.3,0,0.6,0.1,0.8,0.2l-0.2,0.4c-0.1-0.1-0.4-0.2-0.7-0.2c-0.4,0-0.6,0.2-0.6,0.5c0,0.3,0.2,0.4,0.6,0.6
			c0.6,0.2,0.9,0.5,0.9,1c0,0.6-0.5,1-1.3,1c-0.4,0-0.7-0.1-1-0.2L371,211.2z"/>
	</g>
	<g>
		<path d="M435.4,168.9L435.4,168.9l-0.8,0.4l-0.1-0.5l1-0.5h0.5v4.6h-0.6V168.9z"/>
		<path d="M438.1,172.9c-0.2,0-0.4-0.2-0.4-0.4c0-0.3,0.2-0.4,0.4-0.4s0.4,0.2,0.4,0.4C438.5,172.7,438.4,172.9,438.1,172.9
			L438.1,172.9z"/>
		<path d="M441.8,168.8h-1.7l-0.2,1.2c0.1,0,0.2,0,0.4,0c0.3,0,0.7,0.1,1,0.2c0.4,0.2,0.7,0.6,0.7,1.2c0,0.9-0.7,1.6-1.7,1.6
			c-0.5,0-0.9-0.1-1.1-0.3l0.2-0.5c0.2,0.1,0.6,0.3,1,0.3c0.6,0,1.1-0.4,1.1-1c0-0.6-0.4-1-1.3-1c-0.3,0-0.5,0-0.6,0l0.3-2.2h2.2
			V168.8z"/>
	</g>
	<g>
		<path d="M134.2,249.5c0.7,0.4,1.8,0.8,2.9,0.8c1.7,0,2.6-0.9,2.6-2.1c0-1.2-0.7-1.9-2.4-2.5c-2.1-0.7-3.3-1.8-3.3-3.6
			c0-2,1.6-3.4,4.1-3.4c1.3,0,2.2,0.3,2.8,0.6l-0.4,1.3c-0.4-0.2-1.3-0.6-2.4-0.6c-1.7,0-2.4,1-2.4,1.9c0,1.2,0.8,1.8,2.5,2.4
			c2.1,0.8,3.2,1.9,3.2,3.7c0,1.9-1.4,3.6-4.4,3.6c-1.2,0-2.5-0.4-3.2-0.8L134.2,249.5z"/>
		<path d="M143.7,251.5v-12.6h1.8l4,6.4c0.9,1.5,1.7,2.8,2.3,4.1l0,0c-0.1-1.7-0.2-3.2-0.2-5.2v-5.3h1.5v12.6h-1.6l-4-6.4
			c-0.9-1.4-1.7-2.8-2.4-4.2l-0.1,0c0.1,1.6,0.1,3.1,0.1,5.2v5.4H143.7z"/>
		<path d="M158,247.6l-1.3,4H155l4.3-12.6h2l4.3,12.6h-1.7l-1.3-4H158z M162.1,246.3l-1.2-3.6c-0.3-0.8-0.5-1.6-0.7-2.3h0
			c-0.2,0.7-0.4,1.5-0.6,2.3l-1.2,3.6H162.1z"/>
		<path d="M175.9,251.1c-0.6,0.3-1.8,0.6-3.3,0.6c-3.6,0-6.2-2.3-6.2-6.4c0-3.9,2.7-6.6,6.6-6.6c1.6,0,2.6,0.3,3,0.6l-0.4,1.3
			c-0.6-0.3-1.5-0.5-2.5-0.5c-3,0-4.9,1.9-4.9,5.2c0,3.1,1.8,5.1,4.8,5.1c1,0,2-0.2,2.7-0.5L175.9,251.1z"/>
		<path d="M178,238.9h1.6v6.1h0.1c0.3-0.5,0.7-0.9,1-1.3l3.9-4.7h2l-4.6,5.3l4.9,7.3h-1.9l-4.2-6.2l-1.2,1.4v4.8H178V238.9z"/>
		<path d="M187.9,249.5c0.7,0.4,1.8,0.8,2.9,0.8c1.7,0,2.6-0.9,2.6-2.1c0-1.2-0.7-1.9-2.4-2.5c-2.1-0.7-3.3-1.8-3.3-3.6
			c0-2,1.6-3.4,4.1-3.4c1.3,0,2.2,0.3,2.8,0.6l-0.4,1.3c-0.4-0.2-1.3-0.6-2.4-0.6c-1.7,0-2.4,1-2.4,1.9c0,1.2,0.8,1.8,2.5,2.4
			c2.1,0.8,3.2,1.9,3.2,3.7c0,1.9-1.4,3.6-4.4,3.6c-1.2,0-2.5-0.4-3.2-0.8L187.9,249.5z"/>
	</g>
	<g>
		<path d="M317.6,246c0,0.3,0,0.6,0.1,0.8h-0.6l0-0.4h0c-0.2,0.3-0.6,0.5-1,0.5c-0.7,0-1-0.5-1-1c0-0.8,0.7-1.3,2-1.3v-0.1
			c0-0.3-0.1-0.8-0.8-0.8c-0.3,0-0.6,0.1-0.9,0.3l-0.1-0.4c0.3-0.2,0.7-0.3,1.1-0.3c1,0,1.3,0.7,1.3,1.4V246z M317,245.1
			c-0.7,0-1.4,0.1-1.4,0.8c0,0.4,0.3,0.6,0.6,0.6c0.4,0,0.7-0.3,0.8-0.6c0-0.1,0-0.1,0-0.2V245.1z"/>
		<path d="M318.6,246.2c0.2,0.1,0.5,0.2,0.8,0.2c0.4,0,0.7-0.2,0.7-0.5c0-0.3-0.2-0.5-0.6-0.6c-0.6-0.2-0.9-0.6-0.9-1
			c0-0.5,0.4-1,1.2-1c0.3,0,0.6,0.1,0.8,0.2l-0.2,0.4c-0.1-0.1-0.4-0.2-0.7-0.2c-0.4,0-0.6,0.2-0.6,0.5c0,0.3,0.2,0.4,0.6,0.6
			c0.6,0.2,0.9,0.5,0.9,1c0,0.6-0.5,1-1.3,1c-0.4,0-0.7-0.1-1-0.2L318.6,246.2z"/>
		<path d="M321.3,246.2c0.2,0.1,0.5,0.2,0.8,0.2c0.4,0,0.7-0.2,0.7-0.5c0-0.3-0.2-0.5-0.6-0.6c-0.6-0.2-0.9-0.6-0.9-1
			c0-0.5,0.4-1,1.2-1c0.3,0,0.6,0.1,0.8,0.2l-0.2,0.4c-0.1-0.1-0.4-0.2-0.7-0.2c-0.4,0-0.6,0.2-0.6,0.5c0,0.3,0.2,0.4,0.6,0.6
			c0.6,0.2,0.9,0.5,0.9,1c0,0.6-0.5,1-1.3,1c-0.4,0-0.7-0.1-1-0.2L321.3,246.2z"/>
		<path d="M327.2,245.1c0,1.3-0.9,1.8-1.7,1.8c-0.9,0-1.6-0.7-1.6-1.7c0-1.1,0.7-1.8,1.7-1.8C326.6,243.4,327.2,244.1,327.2,245.1z
			 M324.6,245.1c0,0.7,0.4,1.3,1,1.3c0.6,0,1-0.6,1-1.3c0-0.6-0.3-1.3-1-1.3C324.9,243.8,324.6,244.5,324.6,245.1z"/>
		<path d="M328,244.5c0-0.4,0-0.7,0-1.1h0.5l0,0.7h0c0.2-0.5,0.5-0.7,0.9-0.7c0.1,0,0.1,0,0.2,0v0.6c-0.1,0-0.1,0-0.2,0
			c-0.4,0-0.7,0.3-0.8,0.8c0,0.1,0,0.2,0,0.3v1.8H328V244.5z"/>
		<path d="M331.2,242.6v0.8h0.9v0.5h-0.9v1.8c0,0.4,0.1,0.7,0.5,0.7c0.2,0,0.3,0,0.4,0l0,0.5c-0.1,0-0.3,0.1-0.5,0.1
			c-0.3,0-0.5-0.1-0.7-0.3c-0.2-0.2-0.2-0.5-0.2-0.9v-1.8h-0.5v-0.5h0.5v-0.6L331.2,242.6z"/>
		<path d="M333.1,245.2c0,0.8,0.5,1.2,1.2,1.2c0.4,0,0.7-0.1,0.9-0.2l0.1,0.4c-0.2,0.1-0.6,0.2-1.1,0.2c-1,0-1.7-0.7-1.7-1.7
			c0-1,0.6-1.8,1.6-1.8c1.1,0,1.4,1,1.4,1.6c0,0.1,0,0.2,0,0.3H333.1z M334.9,244.8c0-0.4-0.2-1-0.9-1c-0.6,0-0.9,0.6-0.9,1H334.9z"
			/>
		<path d="M339.2,241.9v4.1c0,0.3,0,0.6,0,0.9h-0.6l0-0.6h0c-0.2,0.4-0.6,0.7-1.2,0.7c-0.8,0-1.4-0.7-1.4-1.7c0-1.1,0.7-1.8,1.5-1.8
			c0.5,0,0.9,0.2,1,0.5h0v-2H339.2z M338.6,244.8c0-0.1,0-0.2,0-0.3c-0.1-0.4-0.4-0.7-0.9-0.7c-0.6,0-1,0.6-1,1.3
			c0,0.7,0.3,1.3,1,1.3c0.4,0,0.8-0.3,0.9-0.7c0-0.1,0-0.2,0-0.3V244.8z"/>
		<path d="M341.7,244.5c0-0.4,0-0.8,0-1.1h0.6l0,0.6h0c0.3-0.4,0.7-0.7,1.2-0.7c0.8,0,1.4,0.7,1.4,1.7c0,1.2-0.7,1.8-1.5,1.8
			c-0.4,0-0.8-0.2-1-0.5h0v1.8h-0.6V244.5z M342.3,245.5c0,0.1,0,0.2,0,0.3c0.1,0.4,0.5,0.7,0.9,0.7c0.7,0,1-0.5,1-1.3
			c0-0.7-0.4-1.3-1-1.3c-0.4,0-0.8,0.3-0.9,0.8c0,0.1,0,0.2,0,0.3V245.5z"/>
		<path d="M348.1,246c0,0.3,0,0.6,0.1,0.8h-0.6l0-0.4h0c-0.2,0.3-0.6,0.5-1,0.5c-0.7,0-1-0.5-1-1c0-0.8,0.7-1.3,2-1.3v-0.1
			c0-0.3-0.1-0.8-0.8-0.8c-0.3,0-0.6,0.1-0.9,0.3l-0.1-0.4c0.3-0.2,0.7-0.3,1.1-0.3c1,0,1.3,0.7,1.3,1.4V246z M347.5,245.1
			c-0.7,0-1.4,0.1-1.4,0.8c0,0.4,0.3,0.6,0.6,0.6c0.4,0,0.7-0.3,0.8-0.6c0-0.1,0-0.1,0-0.2V245.1z"/>
		<path d="M349,246.2c0.2,0.1,0.5,0.2,0.8,0.2c0.4,0,0.7-0.2,0.7-0.5c0-0.3-0.2-0.5-0.6-0.6c-0.6-0.2-0.9-0.6-0.9-1
			c0-0.5,0.4-1,1.2-1c0.3,0,0.6,0.1,0.8,0.2l-0.2,0.4c-0.1-0.1-0.4-0.2-0.7-0.2c-0.4,0-0.6,0.2-0.6,0.5c0,0.3,0.2,0.4,0.6,0.6
			c0.6,0.2,0.9,0.5,0.9,1c0,0.6-0.5,1-1.3,1c-0.4,0-0.7-0.1-1-0.2L349,246.2z"/>
		<path d="M352.6,242.6v0.8h0.9v0.5h-0.9v1.8c0,0.4,0.1,0.7,0.5,0.7c0.2,0,0.3,0,0.4,0l0,0.5c-0.1,0-0.3,0.1-0.5,0.1
			c-0.3,0-0.5-0.1-0.7-0.3c-0.2-0.2-0.2-0.5-0.2-0.9v-1.8h-0.5v-0.5h0.5v-0.6L352.6,242.6z"/>
		<path d="M354.1,244.5c0-0.4,0-0.7,0-1.1h0.5l0,0.7h0c0.2-0.5,0.5-0.7,0.9-0.7c0.1,0,0.1,0,0.2,0v0.6c-0.1,0-0.1,0-0.2,0
			c-0.4,0-0.7,0.3-0.8,0.8c0,0.1,0,0.2,0,0.3v1.8h-0.6V244.5z"/>
		<path d="M357.1,242.5c0,0.2-0.1,0.4-0.4,0.4c-0.2,0-0.4-0.2-0.4-0.4c0-0.2,0.2-0.4,0.4-0.4C357,242.1,357.1,242.3,357.1,242.5z
			 M356.5,246.8v-3.4h0.6v3.4H356.5z"/>
		<path d="M358.4,245.2c0,0.8,0.5,1.2,1.2,1.2c0.4,0,0.7-0.1,0.9-0.2l0.1,0.4c-0.2,0.1-0.6,0.2-1.1,0.2c-1,0-1.7-0.7-1.7-1.7
			c0-1,0.6-1.8,1.6-1.8c1.1,0,1.4,1,1.4,1.6c0,0.1,0,0.2,0,0.3H358.4z M360.2,244.8c0-0.4-0.2-1-0.9-1c-0.6,0-0.9,0.6-0.9,1H360.2z"
			/>
		<path d="M361.5,246.2c0.2,0.1,0.5,0.2,0.8,0.2c0.4,0,0.7-0.2,0.7-0.5c0-0.3-0.2-0.5-0.6-0.6c-0.6-0.2-0.9-0.6-0.9-1
			c0-0.5,0.4-1,1.2-1c0.3,0,0.6,0.1,0.8,0.2l-0.2,0.4c-0.1-0.1-0.4-0.2-0.7-0.2c-0.4,0-0.6,0.2-0.6,0.5c0,0.3,0.2,0.4,0.6,0.6
			c0.6,0.2,0.9,0.5,0.9,1c0,0.6-0.5,1-1.3,1c-0.4,0-0.7-0.1-1-0.2L361.5,246.2z"/>
		<path d="M363.9,247.7c0.1-0.4,0.3-1.2,0.4-1.7l0.7-0.1c-0.2,0.6-0.5,1.4-0.7,1.7L363.9,247.7z"/>
		<path d="M367.2,244.4c0-0.4,0-0.6,0-0.9h0.5l0,0.5h0c0.2-0.3,0.5-0.6,1.1-0.6c0.5,0,0.8,0.3,1,0.7h0c0.1-0.2,0.2-0.3,0.4-0.4
			c0.2-0.2,0.4-0.2,0.7-0.2c0.4,0,1.1,0.3,1.1,1.5v2h-0.6v-1.9c0-0.7-0.2-1-0.7-1c-0.3,0-0.6,0.3-0.7,0.6c0,0.1,0,0.2,0,0.3v2.1
			h-0.6v-2c0-0.5-0.2-0.9-0.7-0.9c-0.4,0-0.7,0.3-0.8,0.6c0,0.1,0,0.2,0,0.3v2h-0.6V244.4z"/>
		<path d="M375.9,245.9c0,0.4,0,0.7,0,0.9h-0.5l0-0.6h0c-0.2,0.3-0.5,0.6-1.1,0.6c-0.5,0-1.2-0.3-1.2-1.5v-2h0.6v1.9
			c0,0.6,0.2,1.1,0.8,1.1c0.4,0,0.7-0.3,0.8-0.6c0-0.1,0.1-0.2,0.1-0.3v-2.1h0.6V245.9z"/>
		<path d="M381.2,242.5c-0.2-0.1-0.4-0.2-0.7-0.2c-0.7,0-0.8,0.5-0.8,1v0.2h2v3.4H381v-2.9h-1.4v2.9H379v-2.9h-1.4v2.9H377v-2.9
			h-0.5v-0.5h0.5v-0.1c0-0.4,0.1-0.8,0.4-1.1c0.2-0.2,0.5-0.3,0.9-0.3c0.2,0,0.5,0.1,0.6,0.2l-0.2,0.5c-0.1-0.1-0.3-0.1-0.4-0.1
			c-0.2,0-0.3,0.1-0.4,0.2c-0.2,0.2-0.2,0.5-0.2,0.8v0.1h1.4v-0.2c0-0.9,0.5-1.5,1.5-1.5c0.3,0,0.7,0.1,0.8,0.2L381.2,242.5z"/>
		<path d="M382.6,244.4c0-0.4,0-0.6,0-0.9h0.5l0,0.6h0c0.2-0.3,0.6-0.6,1.1-0.6c0.5,0,1.2,0.3,1.2,1.4v2h-0.6v-2c0-0.5-0.2-1-0.8-1
			c-0.4,0-0.7,0.3-0.8,0.6c0,0.1,0,0.2,0,0.3v2h-0.6V244.4z"/>
		<path d="M386.4,246.2c0.2,0.1,0.5,0.2,0.8,0.2c0.4,0,0.7-0.2,0.7-0.5c0-0.3-0.2-0.5-0.6-0.6c-0.6-0.2-0.9-0.6-0.9-1
			c0-0.5,0.4-1,1.2-1c0.3,0,0.6,0.1,0.8,0.2l-0.2,0.4c-0.1-0.1-0.4-0.2-0.7-0.2c-0.4,0-0.6,0.2-0.6,0.5c0,0.3,0.2,0.4,0.6,0.6
			c0.6,0.2,0.9,0.5,0.9,1c0,0.6-0.5,1-1.3,1c-0.4,0-0.7-0.1-1-0.2L386.4,246.2z"/>
		<path d="M388.8,247.7c0.1-0.4,0.3-1.2,0.4-1.7l0.7-0.1c-0.2,0.6-0.5,1.4-0.7,1.7L388.8,247.7z"/>
		<path d="M394.6,246.7c-0.2,0.1-0.5,0.2-1,0.2c-1,0-1.7-0.7-1.7-1.7c0-1,0.7-1.8,1.8-1.8c0.4,0,0.7,0.1,0.9,0.2l-0.1,0.5
			c-0.1-0.1-0.4-0.2-0.7-0.2c-0.8,0-1.2,0.6-1.2,1.3c0,0.8,0.5,1.3,1.2,1.3c0.3,0,0.6-0.1,0.8-0.2L394.6,246.7z"/>
		<path d="M397.7,246c0,0.3,0,0.6,0.1,0.8h-0.6l0-0.4h0c-0.2,0.3-0.6,0.5-1,0.5c-0.7,0-1-0.5-1-1c0-0.8,0.7-1.3,2-1.3v-0.1
			c0-0.3-0.1-0.8-0.8-0.8c-0.3,0-0.6,0.1-0.9,0.3l-0.1-0.4c0.3-0.2,0.7-0.3,1.1-0.3c1,0,1.3,0.7,1.3,1.4V246z M397.1,245.1
			c-0.7,0-1.4,0.1-1.4,0.8c0,0.4,0.3,0.6,0.6,0.6c0.4,0,0.7-0.3,0.8-0.6c0-0.1,0-0.1,0-0.2V245.1z"/>
		<path d="M399.3,245L399.3,245c0.1-0.1,0.2-0.3,0.3-0.4l1-1.2h0.7l-1.3,1.4l1.5,2h-0.7l-1.2-1.6l-0.3,0.3v1.3h-0.6v-5h0.6V245z"/>
		<path d="M402.3,245.2c0,0.8,0.5,1.2,1.2,1.2c0.4,0,0.7-0.1,0.9-0.2l0.1,0.4c-0.2,0.1-0.6,0.2-1.1,0.2c-1,0-1.7-0.7-1.7-1.7
			c0-1,0.6-1.8,1.6-1.8c1.1,0,1.4,1,1.4,1.6c0,0.1,0,0.2,0,0.3H402.3z M404.1,244.8c0-0.4-0.2-1-0.9-1c-0.6,0-0.9,0.6-0.9,1H404.1z"
			/>
		<path d="M405.4,246.2c0.2,0.1,0.5,0.2,0.8,0.2c0.4,0,0.7-0.2,0.7-0.5c0-0.3-0.2-0.5-0.6-0.6c-0.6-0.2-0.9-0.6-0.9-1
			c0-0.5,0.4-1,1.2-1c0.3,0,0.6,0.1,0.8,0.2l-0.2,0.4c-0.1-0.1-0.4-0.2-0.7-0.2c-0.4,0-0.6,0.2-0.6,0.5c0,0.3,0.2,0.4,0.6,0.6
			c0.6,0.2,0.9,0.5,0.9,1c0,0.6-0.5,1-1.3,1c-0.4,0-0.7-0.1-1-0.2L405.4,246.2z"/>
	</g>
	<g>
		<path d="M434.2,246.1c0.2,0.1,0.6,0.3,1,0.3c0.8,0,1-0.5,1-0.9c0-0.6-0.6-0.9-1.2-0.9h-0.3v-0.5h0.3c0.4,0,1-0.2,1-0.8
			c0-0.4-0.2-0.7-0.8-0.7c-0.4,0-0.7,0.2-0.9,0.3l-0.2-0.4c0.2-0.2,0.7-0.4,1.2-0.4c0.9,0,1.3,0.5,1.3,1.1c0,0.5-0.3,0.9-0.8,1.1v0
			c0.6,0.1,1,0.5,1,1.2c0,0.7-0.6,1.4-1.7,1.4c-0.5,0-1-0.2-1.2-0.3L434.2,246.1z"/>
	</g>
</g>
</svg>
