<?xml version="1.0" encoding="utf-8"?>
<!-- Generator: Adobe Illustrator 22.1.0, SVG Export Plug-In . SVG Version: 6.00 Build 0)  -->
<svg version="1.1" id="Layer_1" xmlns="http://www.w3.org/2000/svg" xmlns:xlink="http://www.w3.org/1999/xlink" x="0px" y="0px"
	 viewBox="0 0 143.7 143.4" style="enable-background:new 0 0 143.7 143.4;" xml:space="preserve">
<style type="text/css">
	.st0{fill:#D1D3CF;}
	.st1{opacity:0.49;}
	.st2{fill-rule:evenodd;clip-rule:evenodd;fill:#602F0F;}
	.st3{fill-rule:evenodd;clip-rule:evenodd;fill:url(#SVGID_1_);}
</style>
<rect x="-55.6" class="st0" width="252" height="144"/>
<g class="st1">
	<path class="st2" d="M105.6,23.2c-0.5-0.3-0.7-0.9-1.1-1.3c-0.6-0.2-1.4-0.3-2,0.2C102.3,23.9,104.5,23.7,105.6,23.2z"/>
	<path class="st2" d="M155.4,30.9c0.2,0,0.4,0.2,0.5-0.1C155.6,30.8,155.5,30.7,155.4,30.9z"/>
	<path class="st2" d="M140.5,32.5c-0.1-0.6,0.5,0,0.5-0.5c-0.1,0-0.1-0.2-0.3-0.2c0.1,0.4-0.5,0-0.6,0.4
		C140.4,32.3,140.3,32.4,140.5,32.5z"/>
	<path class="st2" d="M180.6,32.2c-0.1,0-0.1-0.1-0.1-0.2c-0.3,0-0.3,0.1-0.5,0.2C180.3,32.2,180.5,32.5,180.6,32.2z"/>
	<path class="st2" d="M120.7,34.4c0.4-0.4,0.5-0.6,0.5-1.3c-0.8-0.7-2,0-1.6,1.1C119.8,34.4,120.2,34.5,120.7,34.4z"/>
	<path class="st2" d="M140.1,33.2c0.1-0.1-0.1-0.2,0.1-0.4c-0.3,0-0.4,0.1-0.4,0.4C139.9,33.2,140,33.2,140.1,33.2z"/>
	<path class="st2" d="M137.1,33.6c-0.1,0,0-0.1,0-0.2c-0.1,0-0.2,0-0.2-0.1C136.8,33.6,136.9,33.9,137.1,33.6z"/>
	<path class="st2" d="M136.5,34.4c-0.1,0-0.2-0.1-0.3-0.1c-0.1,0.2,0,0.2,0,0.5C136.4,34.8,136.4,34.6,136.5,34.4z"/>
	<path class="st2" d="M130.2,36c-0.1,0-0.1-0.1-0.1-0.2c-0.3,0.1-0.4-0.1-0.6,0.1C129.8,35.9,130,36.2,130.2,36z"/>
	<path class="st2" d="M129.2,37.2c0.2,0,0,0.4,0.4,0.3c0.1-0.2-0.1-0.2-0.1-0.4C129.4,37.1,129.2,37,129.2,37.2z"/>
	<path class="st2" d="M125.9,38.5c0.1-0.4-0.3-0.4-0.5-0.2C125.4,38.5,125.7,38.4,125.9,38.5z"/>
	<path class="st2" d="M125,38.3c-0.1-0.1-0.5-0.1-0.5,0.1C124.7,38.5,124.9,38.5,125,38.3z"/>
	<path class="st2" d="M115.7,49c-0.2,0-0.4,0-0.5,0.2C115.4,49.2,115.7,49.3,115.7,49z"/>
	<path class="st2" d="M110.6,49.3c0,0.2,0.6,0.4,0.7,0.1C111.2,49.1,110.8,49,110.6,49.3z"/>
	<path class="st2" d="M106.7,58.6c-0.2-0.1-0.3-0.2-0.5-0.2C106.1,58.8,106.6,58.5,106.7,58.6z"/>
	<path class="st2" d="M106.2,59.3c0.1,0,0.2,0,0.3,0c0-0.2,0.1-0.4,0.2-0.5C106.4,58.6,106.3,59,106.2,59.3z"/>
	<path class="st2" d="M104.9,60.9c-0.1-0.3,0.3,0,0.2-0.2c-0.2,0-0.4,0-0.5,0C104.5,60.9,104.9,60.8,104.9,60.9z"/>
	<path class="st2" d="M101.3,62c-0.2,0-0.4,0-0.5,0.1C100.9,62.4,101.3,62.2,101.3,62z"/>
	<path class="st2" d="M100.9,62.9c-0.1-0.1-0.4-0.2-0.5-0.1C100.2,63,100.8,63,100.9,62.9z"/>
	<path class="st2" d="M102.4,63.3c-0.2-0.3-0.5-0.4-0.9-0.4c0.2,0.2,0.8,0.2,0.5,0.7C102.3,63.7,102.3,63.5,102.4,63.3z"/>
	<path class="st2" d="M99.5,64.2c-0.2-0.4-1.2,0.1-0.9-0.2c-0.3,0-0.4,0.1-0.5,0.2C98.7,64.1,99.2,64.3,99.5,64.2z"/>
	<path class="st2" d="M98.5,65.2c-0.2,0-0.5-0.3-0.7-0.1C97.9,65.3,98.3,65.4,98.5,65.2z"/>
	<path class="st2" d="M99.8,67.8c0.1,0.1,0.2,0.2,0.5,0.2c0-0.2,0-0.3-0.2-0.4C100.1,67.9,99.8,67.4,99.8,67.8z"/>
	<path class="st2" d="M97.2,74.4c-0.2,0-0.2-0.2-0.5-0.2C96.6,74.5,97.1,74.6,97.2,74.4z"/>
	<path class="st2" d="M88.7,99.6c-0.2-0.1-0.1-0.1-0.1-0.3c-0.1,0-0.3,0-0.4,0C88.3,99.4,88.6,99.8,88.7,99.6z"/>
	<path class="st2" d="M89.2,102.8c0.1-0.1,0.1-0.4-0.1-0.4c0,0.1-0.3,0.1-0.2,0.2C89.1,102.6,89,102.8,89.2,102.8z"/>
	<path class="st2" d="M92.1,120.6c-0.1,0-0.2,0-0.2,0c0-0.1,0-0.2,0-0.2c-0.2,0-0.3,0-0.3,0.2C91.7,120.5,91.9,120.8,92.1,120.6z"/>
	<path class="st2" d="M97.1,128.7c0,0.1,0,0.2,0,0.2c0.2-0.1,0.3-0.1,0.4,0.1c-0.1-0.2,0.2-0.2,0.2-0.3
		C97.4,128.8,97.3,128.8,97.1,128.7z"/>
	<path class="st2" d="M102.7,139.6c0.3,0.9-0.5,1.2-1.2,1.3c0,0.1-0.1,0.2-0.1,0.3c0.3,0,0.4-0.2,0.6-0.3c0.2,0.2,0.5,0.2,0.6,0
		c-0.1,0-0.2,0-0.2-0.2c0.3-0.1,0.5-0.6,0.3-0.9c0.2,0.2,0.2-0.2,0.4-0.2C102.9,139.5,103,139.8,102.7,139.6z"/>
	<path class="st2" d="M101.9,140.3c0.1,0,0.1,0.1,0.1,0.2c0.2,0,0.3-0.1,0.4-0.2c0,0-0.1,0-0.1-0.1c0,0,0-0.1-0.1-0.1
		c0,0.1-0.1,0.1-0.2,0.1c0.1,0,0.2-0.1,0.3-0.2c0.1,0,0-0.2,0.2-0.2c-0.1,0-0.3-0.2-0.6-0.2c0.1-0.3,0.2,0,0.4,0
		c0.2-0.1,0-0.6,0.3-0.6c0-0.2-0.4,0-0.2-0.3c-0.1,0-0.3,0-0.3,0.1c-0.2-0.1,0.3-0.5-0.2-0.5c0-0.1,0.1-0.2,0.2-0.2
		c0-0.2-0.2-0.1-0.3,0c0-0.2-0.1-0.5,0.1-0.7c-0.3-0.2-0.5-0.1-0.6-0.5c-0.1,0.4-0.5,0.4-0.9,0.5c0.1,0.2,0.2-0.1,0.3,0
		c-0.1,0.1-0.1,0.2-0.1,0.3c-0.4-0.1-0.5-0.1-0.8-0.2c0.3-0.3,1-0.2,0.9-0.9c0.1-0.2,0.4-0.1,0.5-0.3c0.3,0.1-0.2,0.2-0.2,0.3
		c0.2,0.2,0.3-0.2,0.5-0.2c0,0.1,0.1,0.1,0.2,0.2c-0.1,0.1-0.3,0.2,0,0.3c0.3,0.1,0.1-0.4,0.3-0.3c-0.3-0.1,0-0.3-0.1-0.6
		c-0.4-0.3-0.5-0.5-0.9-0.6c0-0.1,0.2-0.1,0.3-0.1c0-0.1,0-0.2,0-0.3c-0.1,0-0.1,0.1-0.1,0.2c-0.1,0-0.1-0.3-0.3-0.2
		c-0.3,0.2,0,0.4-0.4,0.5c0.1-0.3,0.1-0.6,0.2-0.8c0.1,0,0,0.2,0.2,0.2c0-0.1,0-0.1,0.2-0.2c-0.4,0-0.8-0.6-0.5-0.7
		c-0.2-0.1-0.5-0.2-0.7-0.3c-0.2,0,0.1,0.2-0.1,0.3c-0.4-0.1,0.2-0.4,0-0.5c0.1-0.2,0.2,0.2,0.3,0.2c0.1,0,0.1-0.1,0.2-0.2
		c-0.1-0.3-0.2-0.2-0.5-0.2c0-0.1,0-0.1-0.1-0.2c0.4-0.5-0.6-0.7-0.2-1.2c-0.1-0.3-0.6-0.7-0.9-1.1c-0.3,0.3,0.4,0.4,0.5,0.6
		c-0.1,0.2-0.2-0.1-0.2-0.2c-0.3,0.2-0.6,0.1-1,0.1c0.5,0.1,0,0.7-0.2,0.9c-0.2,0-0.3-0.1-0.3-0.3c-0.3,0,0.1,0.3-0.2,0.2
		c-0.1-0.2,0-0.3-0.2-0.4c0.2-0.2,0.5,0.3,0.6-0.1c0.1,0.1,0,0.1,0,0.2c0.2,0,0.2-0.1,0.4-0.1c-0.1-0.2,0-0.1,0-0.3
		c-0.2,0-0.3,0.1-0.5,0.1c0.1-0.1,0.2-0.2,0.4-0.2c-0.4-0.1,0-0.4-0.4-0.5c0.1-0.1,0.2-0.1,0.2-0.2c0.3,0.1,0.1,0.1,0.2,0.3
		c0.1-0.1,0.1-0.2,0.2-0.2c0,0.1-0.1,0.1-0.1,0.2c0,0.1,0.2,0.1,0.3,0.1c-0.2-0.5,0.2,0.1,0.5-0.2c-0.3-0.1-0.1-0.4,0.2-0.5
		c-0.1-0.2-0.3-0.3-0.5-0.4c0.2,0,0.1-0.3,0-0.5c-0.1,0.1-0.1,0.2-0.2,0.2c0.2-0.3-0.3-0.5-0.1-0.8c-0.2,0-0.2,0.1-0.3,0
		C98,129,98,129,98,129.3c-0.4,0-0.5,0.3-1.1,0.2c0.2-0.1,0.1-0.1,0.2-0.3c0,0.3,0.4,0,0.6,0c-0.2-0.2-0.4,0-0.8-0.2
		c0-0.3-0.3-0.8-0.7-0.9c0.2-0.2,0.2-0.5-0.2-0.5c0.4-0.1,0.4-0.4,0.8-0.2c0.3,0.1-0.2,0.1-0.3,0.1c0.2,0.2,0.1,0.3,0.1,0.5
		c0,0.3,0.6,0,0.5,0.5c0.2,0,0.2-0.2,0.2-0.4c0.1,0,0.3,0,0.3,0.1c0-0.2,0.2-0.4,0-0.6c-0.4,0.1-0.4-0.1-0.9,0.1
		c0.2-0.1,0.2-0.4,0.5-0.5c-0.3-0.1-0.2-0.5,0-0.6c-0.5,0.1-0.7,0.6-1.2,0.7c-0.1,0.2,0-0.2,0.2-0.2c-0.1-0.2,0-0.2-0.1-0.5
		c0.5,0.3,0.6-0.5,0.4-0.7c-0.1,0.1-0.6,0.5-0.7,0.1c0.2,0,0.3,0,0.5,0c0-0.2-0.1-0.3-0.3-0.2c0-0.3,0.1-0.5,0.3-0.6
		c-0.2,0-0.3-0.2-0.5-0.3c0-0.1,0.1-0.1,0.2-0.1c0-0.3-0.3-0.2-0.5-0.3c0.2-0.2-0.2-0.2,0-0.4c-0.1,0.1-0.2-0.1-0.5,0
		c0.2-0.2,0.2-0.5-0.2-0.4c0.1-0.2-0.1-0.3,0.2-0.5c0-0.6-1.5-0.1-1.1-0.9c0.4,0.2,0.4,0,0.8-0.1c0,0.2-0.1,0.2-0.1,0.3
		c0.1,0.1,0.3,0.1,0.5,0.2c-0.4-0.5-0.4-0.8-0.8-1.2c0.4-0.1,0.4,0.3,0.7,0.3c-0.2-0.4-0.3-0.4-0.3-0.8c-0.3-0.1-0.3,0.1-0.5,0.1
		c0-0.1,0.2-0.1,0.2-0.3c0.1,0,0.3,0,0.4,0c-0.1-0.6-0.3-1-0.9-1c0-0.1,0.1-0.2,0.1-0.3c0.2,0,0.1,0.2,0.3,0.2
		c-0.3-0.1-0.2-0.4,0-0.6c-0.1-0.3-0.2-0.4-0.1-0.7c-0.5-0.1-0.1,0.6-0.6,0.3c0.2-0.4,0.4-1-0.2-1.3c0-0.2,0.3-0.1,0.3-0.3
		c-0.1-0.2-0.3-0.2-0.5-0.2c0.1-0.1,0.2-0.2,0.3-0.3c-0.2-0.2-0.3-0.5-0.5-0.5c0.5-0.3-0.5-0.3-0.2-0.6c-0.1-0.2-0.5,0-0.7-0.1
		c-0.1-0.1,0-0.6-0.2-0.6c0.2-0.1,0.9-0.4,0.9,0.1c-0.2,0-0.3,0-0.5,0c0,0.2,0.1,0.4,0.2,0.5c0.3,0,0.4-0.2,0.6-0.3
		c0-0.2-0.4,0-0.2-0.2c0.1,0,0.2,0,0.2,0c-0.2-0.4-0.3-0.8-0.5-1.3c0-0.3,0.3-0.2,0.4-0.4c0-0.2-0.3-0.8,0.1-0.9
		c-0.1-0.5-0.3-0.6-0.1-1c0-1.1-0.4-2.4-0.3-3.6c-0.5-0.2-0.1-0.8-0.8-0.9c0-0.1,0.3,0,0.3-0.2c0-0.2-0.1-0.3-0.2-0.4
		c0-0.1,0.1-0.1,0.2-0.1c-0.1-0.2-0.3-0.3,0-0.5c-0.1-0.3-0.7-0.1-0.9-0.4c0.2-0.4,0.6,0.2,0.9-0.1c0.1-0.3-0.3-0.1-0.2-0.4
		c0.3,0.1,0.2-0.2,0.3-0.2c-0.1-0.1-0.2-0.1-0.3-0.2c0.3-0.5,0.2-0.6,0.1-1.1c0.1,0,0.2,0,0.2,0c-0.4-0.2,0-0.6-0.3-0.9
		c0.1-0.2,0.4-0.2,0.5-0.4c-0.1-0.2-0.3-0.2-0.4-0.4c0.4-0.3,0.3-1,0.4-1.4c-0.3-0.2-0.6-0.2-1.1-0.5c-0.3,0.1-0.3,0.5-0.8,0.4
		c-0.1-0.2-0.2-0.4-0.4-0.5c0.2-0.2,0.1-0.5,0.2-0.7c1.2,0,1.8-0.7,1.9-1.3c0-0.1-0.2,0-0.2-0.2c0-0.1,0-0.2,0-0.2
		c0.6,0,0.5-0.6,0.1-0.7c0.1-0.2-0.1-0.4,0.2-0.5c0.2,0.2-0.3,0.2,0.2,0.2c0.3-0.2-0.3-0.5,0-0.7c-0.5,0.1-0.5-0.1,0-0.1
		c-0.1-0.3-0.5-0.3-0.8-0.2c0-0.2,0.4-0.3,0.5-0.2c-0.1-0.4,0-0.4,0.2-0.7c0-0.1-0.1-0.1-0.1-0.2c-0.2,0.3-0.2-0.1-0.3-0.2
		c0.1-0.1,0.2-0.1,0.3-0.2c0,0.1-0.1,0.1,0,0.2c0.2,0.1,0.2-0.2,0.2-0.2c-0.2-0.1-0.2-0.1-0.2-0.2c0-0.1,0.1,0,0.2,0
		c0.1-0.2-0.2-0.2-0.2-0.2c0.6-0.3,0.1-0.8,0.5-1.2c-0.1-0.1-0.2-0.2-0.3-0.2c0.1-0.2,0.2,0.1,0.3,0c-0.4-0.2,0-0.5-0.4-0.5
		c0.1-0.2,0.2-0.3,0.3-0.1c-0.1-0.2-0.1-0.5-0.1-0.9c0.3,0.1,0.2-0.2,0.3-0.2c0-0.2-0.1,0.1-0.3,0c0-0.3,0.3-0.2,0.5-0.3
		c0-0.1-0.3,0-0.3-0.2c0-0.1,0.1-0.2,0-0.2c0-0.1,0.2-0.1,0.3-0.1c0.1-0.4-0.2-0.4,0.2-0.7c-0.1-0.1-0.1-0.1-0.2-0.2
		c0.3-0.6,0.1-0.8,0.1-1.2c0.1,0,0.2-0.2,0.4-0.2c-0.1-0.3,0.1-0.9,0.5-1.1c-0.2-0.1-0.2-0.8,0.1-0.9C93.9,85,94.2,84.2,94,84
		c0-0.1,0.2-0.1,0.2-0.2c0-0.1,0-0.2,0.1-0.2c0,0,0-0.1,0-0.1c0.1,0,0.1-0.1,0.1-0.2c0.1-0.3,0.2-0.5,0.4-0.6
		c-0.1-0.1,0.1-1.1,0.5-1.3c0-0.3,0.1-0.6-0.2-0.5c0.3-0.2,0.6-0.8,0.2-0.9c0.2-0.2,0.3-0.2,0.2-0.5c0.1,0,0.2,0,0.3,0
		c-0.1-0.4,0-0.7,0.4-0.9c0.1-0.1-0.2-0.3,0-0.3c-0.1-0.3-0.4,0-0.5-0.2c-0.1-0.3,0.4-0.3,0.5-0.1c0-0.2,0.1-0.6,0.3-0.8
		c-0.3-0.1-0.3,0.1-0.6,0.1c0.2-0.3,0.6-0.3,0.8-0.5c-0.3-0.1,0.1-0.4-0.2-0.4c0-0.3,0.6,0,0.5-0.3c-0.1-0.2-0.5,0-0.8-0.1
		c0.2-0.3,0.5-0.1,0.9-0.2c0.3-0.5-0.1-0.8,0.2-1.1c-0.1-0.2-0.4-0.3-0.6-0.4c0-0.3,0.5-0.1,0.2-0.5c0.3,0,0.4,0.3,0.7,0.3
		c0.1-0.1,0.1-0.8,0.5-0.9c-0.3-0.2,0-0.4,0.3-0.5c-0.3-0.6,0.6-0.7,0.2-1.2c0.5-0.2,0.3-0.6,0.4-1c-0.1-0.3-0.7,0-0.6-0.4
		c0.3,0,0.4,0.1,0.7,0.1c0.2,0,0-0.3,0.1-0.5c-0.1-0.2-0.4-0.2-0.7-0.2c0.1-0.3,0.5-0.2,0.7-0.3c0.1-0.3-0.2-0.2-0.2-0.4
		c0.1-0.1,0.2,0,0.4,0c-0.1-0.3,0.2-0.6,0.7-0.7c0-0.3-0.4-0.3-0.7-0.3c-0.1-0.6,0.9-0.8,0.6-1.1c0.2-0.2,0.6-0.2,0.9-0.3
		c-0.6-0.2-0.9,0.2-1.6,0.2c0.2-0.2,0.1-0.3,0.1-0.7c0.2,0,0.4-0.1,0.6-0.1c0.2,0.6,0.9,0.2,1.2,0.2c0-0.2-0.1-0.1-0.2-0.2
		c0.3-0.1,0.3-0.5,0.7-0.5c0.1,0-0.1-0.3,0.2-0.2c-0.4-0.1-0.8-0.1-0.9-0.6c0.4-0.4,1.1,0,1.4-0.5c-0.1-0.2-0.4-0.1-0.5-0.3
		c-0.5,0.5-1.3,0.4-2,0.5c0,0.2,0.1,0.2,0.2,0.2c0,0.2-0.4,0-0.5,0.1c-0.1,0.3,0.3,0.1,0.4,0.2c0.1,0.3-0.6,0.3-0.2,0.5
		c-0.2,0.2-0.9,0-0.9,0c-0.2,0.1,0.1,0.2-0.1,0.3c-1,0.1-1.1-0.4-1.8,0c0,0.4,0.6,0.2,0.5,0.6c-0.3,0-0.1-0.3-0.5-0.3
		c-0.4,0-0.3,0.5-0.7,0.5c-0.1,0.3,0.3,0.3,0.4,0.6c-0.1,0-0.8,0-1,0.1c0.1,0.1,0.2,0.1,0.3,0.2c-1.1,0.1-1,1.3-1.6,1.9
		c0.1,0.6-0.5,1.1-0.3,2c-0.1,0-0.1,0.1-0.2,0.1c-0.2,0.8,0,1.5-0.2,2.1c0,0.1-0.2,0.2-0.2,0.3c0,0.1,0.1,0.3,0.1,0.4
		c-0.2,0.7-0.8,1.2-0.7,2c-0.6,2.1-2,4.1-2,6.6c-0.6,0.6-0.9,1.9-0.9,2.7c-0.6,0.3,0,1.3-0.3,1.6c0,0.1,0.1,0.1,0.2,0.1
		c0,0.1-0.2,0.1-0.1,0.2c0,0.2-0.1,0.2-0.2,0.1c0.2,0.2-0.6,0.8-0.2,1.1c-0.2,0.3-0.3,0.3-0.3,0.6c0,0.2,0.1-0.1,0.3,0
		c-0.1,0.1-0.1,0.3-0.3,0.2c0.5,0.3-0.4,1.1,0.2,1.2c0,0.2-0.3,0.1-0.4,0.2c0.4,0,0,0.2,0.2,0.5c0,0.1-0.1,0.2-0.2,0.2
		c0.2,0.3,0.1,0.5,0.4,0.7c-0.3,0.3-0.3,0.4-0.1,0.8c-0.2,0-0.1-0.2-0.3-0.2c0.5,0.6-0.4,1.2,0.2,1.6c-0.6,0.6,0,1.2-0.3,1.6
		c0.2,0.2,0.4-0.3,0.7-0.2c0.1,0,0,0.3,0.2,0.3c-0.5-0.1,0,0.6-0.5,0.7c0-0.1,0.1-0.1,0.2-0.2c-0.1,0-0.2,0-0.3,0
		c0,0.2,0.1,0.3,0.3,0.3c0,0.2-0.2,0.1-0.2,0.2c0.1,0.2,0.3-0.1,0.5,0c-0.1,0.1,0,0.2,0.2,0.3c-0.1,0.1-0.3,0.2-0.4,0.3
		c0.1,0.1,0.3,0.1,0.4,0.2c-0.1-0.1-0.2-0.1-0.2-0.2c0.2,0,0.3,0,0.5,0c-0.2,0.2,0,0.4-0.2,0.7c-0.4-0.1-0.5-0.2-0.8-0.4
		c-0.2,0.2,0.1,0.4,0.2,0.6c-0.2,0.2-0.4-0.1-0.5,0.1c0.3,0.3,0.5,0.2,0.9,0.2c0,0-0.2,0.4,0,0.4c-0.2,0.2-0.2-0.3-0.5-0.3
		c-0.3,0.2,0.3,0.4,0,0.5c0.2,0,0.3,0,0.5,0c-0.1,0.3,0.2,0.2,0.2,0.5c-0.4-0.2-0.6,0.2-0.9-0.1c-0.2,0.1,0.4,0.2,0.2,0.6
		c0.3,0.1,0.1-0.2,0.2-0.4c0.5-0.1,0.1,0.3,0.4,0.4c-0.1,0.1-0.5,0.1-0.5,0.3c0,0.2,0.3,0.2,0.5,0.2c0,0.4,0.3,0.4,0.4,0.7
		c-0.5,0-0.6-0.4-0.9-0.5c-0.1,0.2,0,0.4-0.2,0.6c0.3,0.2,0.7-0.3,0.8,0.2c-0.2,0.1-0.1,0-0.3,0c0.1,0.1,0.3,0.3-0.1,0.2
		c0.1,0.2,0.5,0.1,0.6,0.2c0.1,0.4-0.1,0.6-0.5,0.7c0-0.2-0.1-0.2-0.1-0.3c-0.1,0-0.1,0.1-0.2,0.1c0.2,0.2,0.3,0.7-0.2,0.6
		c-0.1,0.4,0.1,0.4,0.5,0.4c-0.1,0.3,0.2,0.2,0.2,0.4c-0.3,0.1-0.4-0.2-0.6,0c0.3,0.3,0.1,0.6,0.1,0.9c0.3,0,0.4-0.3,0.5-0.5
		c0.3,0.2,0.6,0.2,0.8,0.5c-0.1,0.1-0.8-0.1-1,0.1c-0.1,0.3,0.3,0.1,0.2,0.4c-0.2,0-0.3,0.2-0.4,0.1c0.6,1.7-0.7,3.8,0.2,5.2
		c0,0,0,0,0,0c0,0,0,0,0,0h0c0,0,0,0.1,0,0.1c0,0,0,0,0,0c0.1,0.1,0.1,0.2,0.2,0.2c-0.1,0.4,0.2,0.7-0.2,0.8
		c0.1,0.6,0.7,1.1,0.5,1.7c0.1,0.2,0.5,0.3,0.5,0.7c0.7,0.1,1.1-0.1,1.5,0.1c-0.1,0.4-0.7,0.2-0.9,0.2c-0.2,0.1-0.3,0.3-0.6,0.2
		c0.2,0.3,0.2,0.4,0.3,0.6c0.1,0,0.3,0,0.4,0c0.1-0.3-0.1-0.3-0.4-0.3c0-0.2,0.4,0,0.2-0.2c0.3-0.1,0.3,0.1,0.6,0.1
		c-0.1,0.3-0.2,0.3,0,0.6c-0.2,0.1-0.4,0.1-0.6,0.2c0,0.4,0.4,0.5,0.7,0.5c0.2,0-0.1-0.2,0.1-0.3c0.6,0.2,0.5-0.3,0.9-0.4
		c0.2,0,0.2,0.2,0.4,0.2c0,0.2-0.2,0.2-0.2,0.3c-0.2,0.1-0.2-0.1-0.5-0.1c-0.2,0.1,0.1,0.2,0,0.3c-0.3,0-0.5,0-0.7,0.2
		c0.2,0.2-0.2,0.7,0.2,0.6c0,0.1-0.1,0.2-0.2,0.2c0.1,0.1,0.2,0.2,0.2,0.2c-0.1,0.2-0.2,0.3-0.3,0.5c0.2,0.1,0.3,0.2,0.1,0.4
		c0.1,0.1,0.2,0.2,0.3,0.2c0.2,0,0-0.4,0.2-0.2c0.3,0.4-0.3,0.6-0.2,1c0.1,0.2,0.4,0.1,0.4,0.4c-0.2,0-0.2,0.1-0.3,0.1
		c0.2,0.2,0.5,0.2,0.7,0.2c-0.2,0.2,0,0.5,0.2,0.5c-0.2,0.2-0.8,0.1-0.5,0.5c0.3,0,0.7-0.1,0.6,0.3c-0.2-0.2-0.2,0.2-0.5,0.1
		c0,0.3,0.1,0.4,0,0.6c0.1,0.2,0.3,0.3,0.6,0.3c0,0.3-0.1,0.4-0.3,0.5c0.1,0.3,0.5,0.2,0.8,0.2c-0.1,0.2,0.2,0.2,0.2,0.4
		c-0.1,0.1-0.4-0.1-0.5,0.2c0,0.3,0.4,0.2,0.5,0.4c-0.1,0.2-0.2-0.1-0.3,0c-0.1,0.2,0.3,0.3,0.3,0.2c0.1,0.1-0.1,0.4,0.2,0.5
		c-0.1,0.1-0.2,0.2-0.4,0.2c0,0.2,0.2,0.2,0.3,0.3c0.1,0,0.1-0.1,0.2-0.1c-0.4-0.3,0.3-0.2,0.1-0.5c0.1-0.2,0.4,0,0.5,0.1
		c0,0.2-0.6,0.4-0.2,0.6c0,0.2-0.3,0-0.4,0.1c-0.2,0,0,0.3-0.2,0.4c0.3,0.2,0.5-0.3,0.9-0.3c0.1,0.2-0.2,0.1-0.3,0.2
		c0,0.1,0.1,0.1,0.1,0.2c0.2,0.1,0.2-0.2,0.4-0.2c0,0.1,0,0.2,0.1,0.2c-0.1,0.2-0.3,0.2-0.6,0.2c0,0.1,0,0.1-0.1,0.2
		c0.2,0.3,1-0.2,0.9,0.3c-0.3,0.1-0.2-0.2-0.5-0.2c-0.1,0.1-0.1,0.3-0.2,0.5c-0.2,0-0.1-0.1-0.2-0.2c-0.2,0.3,0.1,0.3,0.1,0.6
		c0.5,0.1,0.3-0.6,0.7-0.6c-0.1,0.1-0.1,0.3,0.2,0.2c-0.2,0.3-0.4,0.7-0.6,1c0,0.1,0.3-0.1,0.5,0c0.2,0.6-0.4,0.9,0.5,1.2
		c0,0.1-0.1,0.1-0.2,0.2c0.1,0.2,0.2-0.1,0.4,0c0,0.2,0.1,0.3,0.3,0.2c-0.1,0.3,0,0.2,0.1,0.5c-0.3,0.1-0.5,0.2-0.5,0.5
		c0,0.2,0.2,0.2,0.2,0.3c0.3-0.2,0.5,0.2,0.7,0c0.2,0.2-0.2,0.4-0.4,0.2c-0.4,0.4,0.1,0.9,0.5,1.1c0.3-0.1,0.3-0.2,0.6-0.1
		c-0.1,0.2-0.2,0.1-0.3,0c-0.1,0-0.1,0.2-0.3,0.2c0,0.2,0.3,0.1,0.2,0.3c0.3-0.1,0.5-0.6,0.9-0.3c-0.1,0.3-0.2,0.2-0.5,0.1
		c-0.1,0-0.1,0.2-0.2,0.2c0.2,0.1,0.3,0.2,0.5,0.3c0.2,0,0.2,0,0.2-0.2c0.2,0,0.1,0.2,0.3,0.2c-0.1,0.2-0.3,0.1-0.3,0.4
		c-0.2-0.1-0.1-0.1-0.1-0.3c-0.1,0-0.2,0-0.3,0c0.2,0.4,0.4,0.9,0,1.2c0.2,0.3,0.3-0.1,0.3-0.2c0.2,0,0.3,0.1,0.5,0.2
		c0,0.2-0.3,0-0.4,0c0.1,0.1,0,0.1,0,0.2c0,0.2,0.2-0.2,0.2,0.1c0,0.3-0.2-0.1-0.4,0c-0.1,0.1-0.1,0.3,0.1,0.5
		c0.2-0.1-0.1-0.2,0-0.3c0.1,0.3,0.6,0,0.4-0.2c0.3-0.1,0.3,0.6,0.5,0.8c-0.1-0.3,0.6-0.1,0.3,0.2c-0.1-0.1-0.4-0.1-0.6-0.1
		c0.1-0.1,0-0.2-0.1-0.4c-0.3,0.1,0.1,0.6-0.3,0.5c0.1,0.2,0.8,0.4,0.8,0c0.1,0.2,0.6-0.1,0.5,0.2c0.1,0,0.2-0.1,0.3-0.1
		c0-0.3,0.1-0.3,0-0.5c0.1,0.1,0.3,0.2,0.2,0.5c-0.3-0.2-0.2,0.3-0.2,0.3c-0.1,0-0.4,0.1-0.5-0.2c-0.3,0,0.2,0.3-0.2,0.2
		c0.3,0.2,0.4,0.5,0.7,0.6c-0.1,0.2-0.1,0.2,0,0.5c-0.2,0-0.3,0.3-0.5,0.1c0.1,0.2-0.1,0.2-0.1,0.4c0,0.1,0.5,0,0.5,0.3
		c0.2,0,0.3-0.1,0.5-0.1c-0.1,0.3,0,0.1,0.2,0.2c0,0.1-0.1,0.1-0.1,0.2c-0.2-0.1-0.1-0.1-0.4,0c0.1-0.4-0.1-0.2-0.3-0.2
		c0.3-0.4-0.2,0-0.2-0.3c-0.4,0.2,0.3,0.5,0.6,0.6c0,0.2-0.1,0.1-0.2,0.2c0,0.1,0.3,0,0.3-0.1c0,0.1,0,0.4-0.3,0.4
		c0,0.1,0.1,0.1,0.1,0.2c0.1,0,0.3-0.1,0.6,0c-0.4,0.3,0.4,0,0.3,0.4c0.1-0.2,0.1-0.5,0.2-0.1c0.4-0.4,0.7-0.5,0.9-1.3
		c0.1,0.2,0.2,0.7-0.3,0.7c0.1,0.4,0.1,0.8-0.3,0.7c0,0.2,0.4,0,0.3,0.3c-0.2,0-0.2,0.1-0.4,0.1c-0.1-0.1-0.2-0.3-0.2-0.4
		C100.4,140.1,101.3,140.3,101.9,140.3C101.9,140.2,101.9,140.2,101.9,140.3z M101.4,136c-0.2,0-0.2,0-0.2,0.2
		c-0.3,0.1-0.2-0.2-0.3-0.2C101,135.6,101.4,135.6,101.4,136z M97.4,128c-0.2,0.2-0.3-0.2-0.4,0.2c-0.2,0-0.1-0.2-0.3-0.2
		C96.8,127.8,97.5,127.6,97.4,128z M100.5,65c-0.1,0.2,0.1,0.2,0.1,0.4c-0.1,0-0.3,0-0.4,0c0-0.1,0-0.3-0.1-0.3
		C100.1,64.9,100.4,65,100.5,65z M91.6,112.5c-0.1,0.3,0.3,0.1,0.2,0.3c-0.5,0.4-0.6-0.4-1.2-0.2c0,0.2,0.1,0.2,0.1,0.4
		c-0.1,0-0.3,0-0.4,0c-0.1-0.1-0.1-0.5,0-0.6c0.4,0,0.8,0,0.9-0.2c0.3,0.2,0.9,0.2,0.9-0.2c0.3-0.1,0.1,0.2,0.4,0.2
		C92.3,112.4,92,112.4,91.6,112.5z M88.9,108.8C88.9,108.8,88.9,108.8,88.9,108.8C88.9,108.8,88.9,108.8,88.9,108.8z M97.3,69
		c0,0.2-0.1,0.3-0.3,0.2C96.9,69.1,97.1,69,97.3,69z M93,85.6c0,0,0-0.1,0-0.1C93,85.5,93,85.5,93,85.6z M89.9,95.3
		c0-0.2,0.3,0,0.5-0.1c0,0.2-0.4,0.1-0.4,0.3C89.8,95.5,90.2,95.3,89.9,95.3z M91.5,92.9L91.5,92.9c0,0-0.1,0-0.1,0
		C91.5,92.9,91.5,92.9,91.5,92.9z M91.6,92.7C91.6,92.7,91.6,92.7,91.6,92.7C91.6,92.7,91.6,92.7,91.6,92.7z M90.4,96.1
		c0,0.1,0.1,0.3,0.2,0.3c0,0.2-0.2-0.1-0.4,0C90.1,96.2,90.2,96.1,90.4,96.1z M91.5,92.9c0,0-0.1,0-0.1,0.1
		C91.4,93,91.5,92.9,91.5,92.9z M91.5,92.9c0.1,0,0.1-0.1,0.2-0.1C91.7,92.8,91.6,92.9,91.5,92.9C91.5,92.9,91.5,92.9,91.5,92.9z
		 M92.1,85.9C92.1,85.9,92.1,85.9,92.1,85.9C92.1,85.9,92.1,85.9,92.1,85.9z M92.2,85.8C92.2,85.8,92.2,85.8,92.2,85.8
		C92.2,85.8,92.2,85.8,92.2,85.8z M92.9,86L92.9,86C92.9,86,92.9,86,92.9,86C92.9,86,92.9,86,92.9,86z M91.8,92.7
		c0.1-0.1,0.1-0.1,0.2-0.2C91.9,92.6,91.8,92.7,91.8,92.7z M92.6,86.1C92.6,86.1,92.7,86.1,92.6,86.1C92.7,86.1,92.6,86.1,92.6,86.1
		z M92.8,86.1C92.8,86.1,92.8,86.1,92.8,86.1C92.8,86.1,92.8,86.1,92.8,86.1z M92.9,86C92.9,86,92.9,86,92.9,86
		C92.9,86,92.9,86,92.9,86z M93,85.6c0,0.1,0,0.2,0,0.4C93,85.7,93,85.7,93,85.6z M95.4,71.1c0.1-0.2,0.4,0,0.6-0.1
		C95.9,71.2,95.5,71.3,95.4,71.1z M95,72.7c-0.1-0.3,0.3,0,0.2-0.2c0.1,0,0.2,0.1,0.2,0.3C95.3,72.7,95,72.9,95,72.7z M92.1,92.4
		C92.2,92.4,92.2,92.4,92.1,92.4C92.2,92.4,92.2,92.4,92.1,92.4z M93,85.9C93,85.9,93,85.9,93,85.9C93,85.9,93,85.9,93,85.9z
		 M93.2,85.8C93.2,85.8,93.2,85.8,93.2,85.8C93.2,85.8,93.2,85.8,93.2,85.8z M93.1,85.8C93.1,85.8,93.1,85.8,93.1,85.8
		C93.1,85.8,93.1,85.8,93.1,85.8z M90.9,110.2c-0.3,0-0.4-0.2-0.7-0.2c0.1-0.3,0.7,0,0.9-0.2C91.4,109.9,90.8,109.9,90.9,110.2z
		 M91.2,107.8c0.2,0,0.2,0.1,0.4,0.2C91.6,108.3,91.1,108.2,91.2,107.8z M91.8,108.4c0,0.1,0,0.3,0,0.4c-0.1,0-0.3,0-0.4,0
		c0-0.1,0-0.1-0.1-0.2C91.4,108.5,91.5,108.3,91.8,108.4z M90.5,108.7c0.2,0,0.2,0.1,0.3,0.1c0,0.1,0,0.3-0.2,0.3
		C90.8,108.9,90.5,108.9,90.5,108.7z M90.2,109.2c-0.1-0.1-0.4-0.1-0.3-0.4c0.1,0,0.2,0,0.3,0C90.1,109,90.1,108.9,90.2,109.2z
		 M90.3,110.5c0.3,0,0.4,0.1,0.5,0.3c-0.2,0.1-0.3,0-0.7,0.1C90.1,110.8,90.3,110.7,90.3,110.5z M92.5,109.8c0,0.4-0.6,0.2-0.5,0.6
		c-0.2,0-0.2-0.3-0.2-0.5C92,110,92.1,109.8,92.5,109.8z M89.8,107.3c-0.2,0.1-0.5,0.1-0.7,0.2C89.2,107.3,89.6,107.1,89.8,107.3z
		 M90.2,111.2c-0.1,0.3-0.5,0.3-0.5-0.1C89.7,111,90,111.1,90.2,111.2z M92,100.2c-0.3,0.3-0.4-0.3-0.6-0.2
		C91.6,99.7,91.7,100.2,92,100.2z M90.3,100.2c-0.3,0.1-0.3-0.1-0.2-0.3C90.3,99.9,90.3,100,90.3,100.2z M95.5,75.5
		c0-0.2,0.3-0.2,0.5-0.2C96.1,75.6,95.7,75.6,95.5,75.5z M97,73.3c0-0.1,0.1-0.1,0.1-0.2c0.2-0.1,0.2,0.2,0.3,0.2
		C97.4,73.4,97.1,73.3,97,73.3z M97.4,65.9c0.2,0.1,0.5,0.1,0.6,0.4c-0.3,0-0.3-0.1-0.6-0.1C97.4,66.1,97.4,66,97.4,65.9z
		 M97.5,66.9c0-0.2,0.4,0,0.5-0.1c0,0.1,0,0.2,0,0.3c-0.5-0.2-0.4,0.4-0.8,0.2C97.3,67,97.8,67.2,97.5,66.9z M96.8,66.8
		c0.1,0,0.1,0.1,0.2,0.1c-0.1,0.1-0.1,0.3-0.3,0.3C96.7,67,96.8,67,96.8,66.8z M97.2,67.8C97.1,68,96.8,68,96.6,68
		C96.6,67.8,97,67.8,97.2,67.8z M96.2,68.6c0.1,0.2-0.1,0.3-0.2,0.4c-0.1-0.1-0.3-0.1-0.2-0.4C96,68.6,96.1,68.6,96.2,68.6z
		 M96.2,69.2c-0.1,0.3-0.3,0.5-0.5,0.1C95.9,69.3,95.9,69.1,96.2,69.2z M89,93.4c0-0.1,0-0.1,0-0.2c0.3,0.3,0.2-0.4,0.5-0.3
		C89.5,93.2,89.2,93.4,89,93.4C88.9,93.4,88.9,93.4,89,93.4z M89.2,96.8c0.2-0.1,0.2-0.4,0.5-0.4c0,0,0.1,0,0.1,0
		C89.7,96.7,89.4,96.7,89.2,96.8z M89,105.7c0.4,0.1,0.7,0.4,0.9,0.6c-0.2-0.1-0.2,0.1-0.4,0.1c0-0.3-0.1-0.3-0.5-0.2
		C89.1,106,89,105.8,89,105.7z M89,110.9c0.2,0,0.2,0.3,0.4,0.2C89.2,111.2,89.2,110.9,89,110.9z M90.5,114.2
		c0.1-0.2,0.4-0.3,0.6-0.2C91,114.1,90.8,114.2,90.5,114.2z M91.1,113.7c0.2-0.1,0.6-0.2,0.4-0.5c0.1,0,0.3,0,0.4,0
		c-0.1,0.2-0.2,0.1-0.1,0.4C91.4,113.5,91.4,113.9,91.1,113.7z M96.3,130.6c0.4,0.1,0.3,0.8-0.2,0.5
		C96.2,130.9,96.4,130.8,96.3,130.6z M95.9,128.2c-0.1,0.3-0.6,0.1-0.8,0.1C95.4,128.1,95.6,128.3,95.9,128.2z M95.5,124.7
		c-0.1,0.3-0.4,0.4-0.7,0.5c0-0.1-0.1-0.1-0.2-0.2C94.9,124.9,95.2,124.8,95.5,124.7z M93.5,120.9c0.2,0,0.4,0,0.4,0.2
		C93.8,121,93.4,121.2,93.5,120.9z M94,118.9c0,0.3-0.5,0.1-0.4,0.5c-0.3,0-0.6,0-0.7,0.2c-0.2,0,0.1-0.2,0-0.4
		c-0.1-0.3-0.6-0.1-0.6-0.2c0.2-0.4,0.8-0.1,0.9-0.4c0.2,0,0,0.3-0.1,0.2C93.4,119.1,93.8,118.7,94,118.9z M92.1,120
		c0.1-0.1,0.2-0.3,0.5-0.2C92.6,120,92.3,119.9,92.1,120z M92.1,119.7c-0.2-0.2-0.2-0.4,0-0.5c0.2,0,0.2,0.3,0.6,0.2
		C92.7,119.7,92.3,119.6,92.1,119.7z M93.4,123.3c-0.2,0-0.3,0-0.3-0.2c0.1-0.1,0.2-0.1,0.3-0.1C93.4,123.1,93.4,123.2,93.4,123.3z
		 M94.2,125.6c0.1-0.3,0.7,0.3,0.6-0.2c0.1,0,0.4-0.1,0.4,0.1C95,125.7,94.6,125.7,94.2,125.6z M94.7,126.4c0-0.2,0.1-0.4-0.2-0.4
		c0-0.3,0.6,0.1,0.9-0.2c0.1,0.1,0,0.4,0.3,0.3c-0.1,0.3-0.4-0.2-0.9,0c0,0.2,0.5,0.1,0.2,0.3c0.2-0.1,0.3,0.1,0.4,0.2
		C95.2,126.8,94.9,126.4,94.7,126.4z M94.7,127.1c0-0.2,0.2-0.2,0.5-0.2c0,0.1,0,0.1,0.1,0.2C95.1,127.2,94.9,127,94.7,127.1z
		 M94.8,128.9c0.2-0.3,0-0.3,0-0.7c0.2,0,0.2,0.1,0.4,0.1c0,0.1-0.1,0.1-0.1,0.2c0.3-0.2,0.5,0,0.9-0.2
		C95.7,128.7,95.3,129,94.8,128.9z M95.1,129.2c0.1-0.1,0.4-0.1,0.4-0.2c0.3,0.2,0.6,0.1,0.9-0.1c0.2,0.1-0.1,0.3-0.1,0.5
		C95.6,129.4,95.6,129.3,95.1,129.2z M96.9,132c-0.3,0-0.5,0.2-0.9,0.2c0.3-0.3,1-0.5,1.2,0.1C96.9,132.3,96.9,132.2,96.9,132z
		 M99.6,135.3c0-0.1,0.2-0.1,0.2-0.2c0,0,0.1,0,0.1,0c0,0,0.1,0,0.1,0c-0.1,0.3,0.2,0.2,0.2,0.4c0,0-0.1,0-0.1,0
		C100,135.3,99.7,135.4,99.6,135.3z M100.3,134.5C100.3,134.5,100.3,134.5,100.3,134.5C100.3,134.5,100.3,134.5,100.3,134.5z
		 M100.2,134.7C100.2,134.7,100.2,134.6,100.2,134.7C100.2,134.6,100.2,134.7,100.2,134.7z M98.6,132.1c0.3-0.1,0.3-0.5,0.7-0.5
		c0.2,0.4-0.3,0.5-0.5,0.8c0,0.1,0,0.1,0.1,0.1c0,0,0.1,0,0.1,0c0.1,0.1,0.1,0.1,0.2,0.2c-0.5,0.2,0,0.5-0.7,0.3
		c0-0.1,0.1-0.2,0.3-0.2C98.7,132.4,98.7,132.5,98.6,132.1z M98.4,131.9c0.3,0,0,0.2,0.1,0.4c-0.1-0.1-0.1,0-0.4,0
		C98.1,132.1,98.4,132.2,98.4,131.9z M97.8,133.2c0-0.1,0.2-0.1,0.2-0.4c0.1,0,0.2,0.1,0.2,0C98.3,132.9,98,133.1,97.8,133.2z
		 M99.1,134.7c0.4-0.1,0.2-0.5,0-0.7c0.1-0.2,0.5,0.1,0.3-0.1c0-0.1,0.1-0.1,0.2-0.1c0,0.3,0.3,0.3,0.2,0.6
		c-0.3-0.1-0.2,0.2-0.4,0.4c0,0,0,0-0.1,0l0,0l0,0l0,0l0,0C99.2,134.8,99.3,134.7,99.1,134.7z M99.2,134.9c0,0,0,0.1,0,0.2
		C99.2,135,99.2,135,99.2,134.9z M99.9,138.5c0-0.1,0-0.2,0-0.2c0.2,0,0.2,0.1,0.4,0.2C100.5,138.6,100.1,138.4,99.9,138.5z
		 M101.9,139.2c0-0.2-0.3-0.1-0.2-0.3c0.1,0,0.3-0.1,0.3-0.2c0.1,0,0,0.1,0,0.1c0,0.1,0,0.3,0.2,0.3c-0.1,0.2-0.4,0.2-0.6,0.2
		C101.6,139.1,101.8,139.2,101.9,139.2z"/>
	<path class="st2" d="M138.3,33c0.3,0.3,1,0.7,1.5,0.5c-0.4,0.1-0.1,0.4-0.3,0.7c0.2-0.1,0.4,0.2,0.5,0c-0.3-0.4,0.2-0.6-0.2-1.1
		c-0.2,0-0.2,0.1-0.4,0.2c0-0.1-0.1-0.4,0.1-0.4c0,0.1,0.2,0.1,0.3,0.1c0.1-0.3,0.2-0.6-0.2-0.5c0.3-0.1,0.1,0.2,0,0.2
		c-0.1,0-0.2-0.1-0.2-0.2c0.1,0,0.2,0,0.2-0.1c-0.3-0.1-0.2,0.3-0.4,0.3c-0.3-0.1-0.2-0.1-0.4-0.2c0,0.2,0,0.3-0.2,0.4
		c-0.3-0.2-0.7,0.2-0.9,0.1C137.5,33.6,138.2,33.2,138.3,33z M138.7,32.9C138.8,32.9,138.8,32.8,138.7,32.9c0.1-0.1,0.2-0.1,0.2-0.1
		c0,0.1,0,0.1,0.1,0.1c0,0.1,0,0.1,0,0.2c-0.1,0-0.1,0-0.1,0.1c-0.1,0-0.1,0-0.2,0c0-0.1,0-0.1-0.1-0.1
		C138.7,33,138.7,32.9,138.7,32.9z"/>
	<path class="st2" d="M139.4,33.7c-0.4,0.3-0.3-0.3-0.9-0.2c-0.1,0.2,0.1,0.3,0.1,0.5c-0.1,0-0.2,0-0.2,0.1c-0.2,0-0.1-0.3-0.3-0.2
		c-0.2,0.1,0.2,0.2,0.2,0.4c-0.2,0-0.4,0.5-0.1,0.5c0,0,0.1,0,0.1,0c0.2,0.4,0.8,0,0.9-0.2c-0.1-0.1-0.2-0.2-0.2-0.4
		C139.1,33.9,139.4,34,139.4,33.7z"/>
	<path class="st2" d="M139.5,34.5C139.6,34.5,139.6,34.5,139.5,34.5c-0.1-0.1-0.1-0.3-0.2-0.4c0,0,0,0.1-0.1,0.1c0,0.1,0,0.1,0,0.2
		c0.1,0,0.2,0,0.2,0.2C139.4,34.5,139.5,34.5,139.5,34.5z"/>
	<path class="st2" d="M133.4,35c-0.3,0.1-0.4-0.4-0.7-0.2C132.8,35.2,133.2,35.3,133.4,35z"/>
	<path class="st2" d="M196.4,39c-0.2,0-0.1-0.3,0-0.4c0-0.2-0.4,0.1-0.5-0.1c-0.3,0.1,0,0.2-0.2,0.3c-0.3-0.1-0.5-0.3-0.5-0.5
		c0.1,0,0.2-0.1,0.2-0.2c0.1,0,0.1,0.2,0.4,0.2c0.1,0,0.1-0.1,0.2-0.2c-0.4-0.3-0.6,0.1-0.9-0.2c0-0.1,0.3,0.1,0.5,0
		c-0.1-0.2-0.5-0.5-0.6-0.2c-0.1-0.5-0.9-1.1-1.4-1.1c0-0.3-0.6-0.6-0.9-0.7c0.1-0.4-0.3-0.2-0.6-0.4c-0.1,0-0.1-0.3-0.2-0.3
		c-0.2-0.1-0.4,0-0.5-0.1c-0.3-0.2-0.2-0.6-0.4-0.9c-0.1-0.2-0.4-0.1-0.2-0.3c-1,0-1.4-0.6-2-0.9c-0.1,0-0.1,0.1-0.2,0.2
		c-0.1,0.3,0.3,0.1,0.2,0.3c-0.4,0-0.5-0.3-0.4-0.5c-0.2-0.1-1.1-0.5-1.2-0.1c-0.1,0.3-0.1-0.2-0.4-0.1c0-0.1,0.1-0.1,0.2-0.1
		c-0.2-0.3-0.7-0.2-0.9-0.1c0,0.2,0.4,0,0.5,0.2c-0.1,0.2-0.7,0.1-0.9-0.1c-0.1,0.2-0.4,0.3-0.7,0.2c-0.1,0-0.1,0.1-0.2,0.2
		c0.1,0.3,0.4,0,0.6,0.2c-0.2,0.4-0.5,0-0.8,0c-0.4,0-1.1,0.3-1.3,0.2c-0.4-0.2,0.2-0.1,0.1-0.3c-0.1-0.2-1.1-0.5-1.3-0.4
		c0.1,0.2,0.3,0.2,0.5,0.2c-0.1,0.4,0.4,0.2,0.3,0.5c-0.2,0.2-0.4-0.3-0.8-0.2c0,0.2,0.1,0.3,0.2,0.4c-0.2,0.2-0.4-0.2-0.7-0.1
		c0-0.3-0.1-0.5-0.5-0.5c-0.3,0-0.2,0.3-0.5,0.2c0-0.1-0.1-0.1-0.2-0.2c0.1-0.3,0.1-0.4,0.2-0.6c-0.3,0-0.4,0.3-0.6,0
		c0.4-0.1,0.1-0.3,0.4-0.4c-0.1-0.4-0.5-0.5-0.9-0.2c0-0.1,0.1-0.1,0.1-0.2c-0.2,0-0.4,0-0.5,0c0,0.2,0.4,0,0.2,0.2
		c-0.6-0.1-0.6,0.1-1.2,0.2c0-0.1,0.1-0.2,0.2-0.3c-0.4-0.3-0.8,0-1.2-0.2c0.1-0.2,0.5-0.1,0.5-0.3c-0.3-0.2-0.9-0.2-1.3,0
		c-0.3-0.1-0.6-0.4-0.5-0.5c-0.1-0.2-0.5-0.1-0.5,0.1c-0.3-0.1,0-0.2,0.1-0.4c-0.1-0.2-0.4,0-0.6-0.1c0.1-0.2,0.4-0.2,0.6-0.2
		c-0.2-0.3-0.7-0.7-1.1-0.5c-2.9-1.2-7.2-3.3-10.7-1.8c-0.1,0.1-0.3,0.1-0.4,0.2c0,0-0.1,0-0.1,0c-0.2,0-0.2,0.1-0.4,0.1
		c-0.9,0.6-2.2,0.3-3.2,0.8c0,0-0.1,0-0.1,0c-2-0.3-4,0.8-6.2,0.9c-1,0-2,0.1-3,0.2c-0.8,0.1-2,0.1-2.7,0.5c-0.2,0-0.2-0.1-0.1-0.2
		c-0.5,0.2-1.7,0.1-1.9,0.9c-0.1,0-0.1-0.2-0.3-0.2c-0.1,0-0.1,0.1-0.1,0.2c0,0.1,0.1,0.1,0.2,0.1c-0.4,0.4-0.6-0.1-0.9-0.3
		c-0.1,0-0.1,0.1-0.2,0.1c0,0.1,0.1,0.2,0.2,0.2c-0.3,0.2-0.5,0.1-0.9,0.1c-0.1,0.3,0.3,0.2,0.3,0.3c0.2,0,0.1-0.2,0.2-0.2
		c0.2-0.1,0.1,0.2,0.2,0.3c0.3,0.1,0.3-0.1,0.5-0.1c-0.2,0.1-0.2,0.3-0.3,0.5c-0.3,0-0.2-0.4-0.5-0.5c0,0.6-0.7,0.2-1.1-0.2
		c-0.2,0.1,0.2,0.2,0,0.4c-0.2,0.2-0.3-0.1-0.5,0.1c-0.1,0,0.1-0.3,0.3-0.3c-0.2-0.3-1.2,0.2-1.4,0.2c0.1,0.2,0.2,0.3,0.3,0.5
		c-0.7-0.3-0.5,0.4-1,0.2c0,0.3,0.3,0.2,0.5,0.3c0.1-0.1,0-0.1,0.1-0.3c0.2,0.2,0.3,0.1,0.6,0.1c-0.4-0.4,0.4-0.1,0.3-0.5
		c0.3,0,0.4,0.3,0.3,0.7c0.2,0,0.2-0.2,0.5-0.2c-0.2-0.1-0.2-0.4-0.5-0.4c0-0.1,0.1-0.1,0-0.2c0-0.2,0.4-0.1,0.6-0.2
		c-0.2,0.7,0.7,0,0.8,0.3c0,0.2-0.1,0.1-0.2,0.2c0.1,0,0,0.3,0.2,0.3c0.3,0,0.2-0.2,0.2-0.4c0.3,0,0,0.3,0.2,0.3
		c-0.1,0.2-0.5,0.2-0.7,0.1c-0.1-0.2-0.1-0.2,0-0.4c-0.1,0-0.2,0.1-0.3,0.1c0,0.3,0.3,0.4,0.5,0.5c-0.1,0.2-0.3,0.3-0.4,0.2
		c-0.3,0.2,0.2,0.7,0.1,0.9c-0.1,0.1-0.2,0.2-0.5,0.2c-0.1-0.2,0-0.1,0-0.3c-0.3,0-0.5,0-0.5,0.3c-0.3-0.1-0.4,0.1-0.7,0.1
		c0-0.3,0.2,0,0.3-0.1c-0.1-0.1-0.2-0.1-0.3-0.2c0-0.1,0.3-0.1,0.2-0.2c-0.1-0.3-0.2,0-0.4,0c0-0.1,0.1-0.4-0.2-0.3c0,0-0.1,0-0.1,0
		c-0.2-0.1-0.2-0.4-0.5-0.4c-0.1,0.1,0.2,0.5,0.1,0.9c-0.1,0-0.2,0-0.3,0c0,0.2,0,0.4,0.1,0.5c0.4-0.5,0,0.5,0.6,0.3
		c-0.4,0.3-0.6-0.1-1,0.1c0-0.2,0.1-0.2,0-0.3c-0.3,0-0.2,0.3-0.5,0c-0.2,0.2-0.1,0.5-0.3,0.9c-0.2-0.1,0-0.3-0.4-0.4
		c-0.2-0.1-0.2,0.2-0.4,0.2c-0.6-0.2-0.3-1-0.7-1c0.2-0.3,0.3-0.4,0.5-0.5c-0.1-0.2-0.1-0.1-0.1-0.3c-0.3,0-0.4,0.3-0.5,0.2
		c0.1,0.5-0.1,0.3-0.3,0.4c0,0.3,0.4,0.5,0.1,0.7c-0.1,0,0.1-0.3-0.2-0.4c-0.2,0.2,0.1,0.4-0.3,0.5c0,0.5,0.1,0.6,0,0.9
		c-0.1-0.2-0.3-0.4-0.4-0.6c-0.2,0-0.1,0.2-0.3,0.2c0.1-0.4-0.5,0-0.4-0.3c0.3,0,0.2,0.1,0.5,0c-0.1-0.4-0.7-0.4-0.6-0.8
		c-0.2,0.2-0.3,0-0.4,0.2c-0.1,0-0.1-0.1-0.1-0.2c-0.1,0-0.1,0.1-0.2,0.1c0,0.4,0.4,0.4,0.6,0.5c0,0.3-0.1,0-0.2,0.1
		c-0.1,0-0.2,0-0.2,0c-0.2,0.2-0.2-0.1-0.5-0.1c-0.1,0.2,0.1,0.2-0.2,0.2c-0.3,0.7,0.7,0.7,0.7,0.2c0.4,0-0.1,0.4,0.2,0.4
		c-0.4,0.4-0.6-0.1-1.2,0.1c0-0.3,0-0.8-0.2-1c-0.3,0.2-0.1,0.7-0.2,0.9c-0.3,0.1-0.4-0.2-0.2-0.3c-0.2,0-0.3,0.2-0.6,0.2
		c0-0.1,0-0.2,0-0.3c-0.3,0-0.1,0.3-0.3,0.1c0,0.5,0.6,0.5,0.9,0.8c-0.1,0.3-0.4,0-0.5-0.1c-0.1,0.1,0.1,0.2,0,0.5
		c-0.4,0.1-0.1-0.5-0.5-0.5c-0.1,0-0.1,0.2-0.1,0.3c-0.3,0-0.5-0.2-0.6-0.4c0.1-0.1,0.1-0.1,0.2-0.2c-0.5-0.3-0.9,0.4-0.7,0.9
		c0.1,0.1,0.3,0.1,0.3,0.2c0,0-0.1,0.4,0.4,0.3c0.2-0.1-0.1-0.2,0-0.4c0.1,0.1,0.1,0.2,0.2,0.2c0,0.4-0.6,0.5-0.4,0.9
		c-0.3-0.1-0.3-0.3-0.5-0.2c-0.3-0.2,0.3-0.4-0.2-0.4c0-0.1,0.1-0.2,0.2-0.2c-0.1-0.1-0.3-0.2-0.3-0.4c-0.2,0.2-0.6,0.2-0.5-0.2
		c0.1,0,0.2,0.2,0.4,0.2c0.2-0.1-0.1-0.2,0.1-0.3c-0.2,0-0.2,0.1-0.4,0.1c0.1-0.3,0.3-0.3,0.2-0.6c-0.2,0-0.4,0.3-0.2,0.4
		c-0.2,0.1-0.4,0.2-0.5,0.2c-0.1-0.2-0.3-0.2-0.6-0.2c0.2,0.2,0.1,0.3,0.4,0.4c-0.2,0.3,0,0.3,0.2,0.4c0,0.3,0,0.5,0.2,0.6
		c-0.2,0.2-0.1,0.5-0.1,0.9c-0.2-0.1-0.4-0.5-0.2-0.7c-0.3-0.1-0.2,0.2-0.5,0.2c0-0.2,0-0.6-0.2-0.6c0.1-0.2,0.3-0.2,0.4-0.3
		c-0.2-0.1-0.2-0.3,0.1-0.3c-0.1-0.2-0.3-0.2-0.5-0.2c0-0.1,0.1-0.1,0.2-0.1c-0.2-0.3-0.7-0.1-0.6,0.3c-0.7-0.3-2,0.1-2.1,0.9
		c-0.6-0.2-1.1,0-0.9,0.5c0.5,0.1,0.7-0.7,1.1-0.2c0,0.2-0.2,0.3-0.4,0.2c0,0.2,0.4,0.1,0.4,0.2c0,0.3-0.5,0.1-0.5,0.3
		c-0.2,0-0.3-0.1-0.5-0.1c-0.2,0.1-0.3,0.2-0.2,0.5c-0.5-0.2-0.8-0.6-1.4-0.4c0,0.1,0.1,0.1,0.1,0.2c0.3,0.1,0.4-0.2,0.5,0
		c-0.2,0.2-1,0.2-1.3,0.1c-0.1,0-0.1,0.1-0.2,0.2c0,0.2,0.2,0.2,0.2,0.3c0.3-0.3,1-0.3,1.5-0.2c-0.2,0.4,0.2,0.3,0.2,0.6
		c-0.6,0.1-0.7-0.7-1.6-0.4c-0.2,0.2-0.4,0.4-0.7,0.5c0.4-0.6-0.8-0.1-0.9,0.2c0.1,0.1,0.2,0.1,0.3,0.2c-0.3,0.2-0.9,0-1,0.3
		c0,0.1,0.2,0.1,0.3,0.1c0,0.3-0.2,0-0.2,0.3c-0.7-0.3-0.5,0.3-1,0.4c-0.1,0.3,0.4,0.1,0.3,0.4c-0.5,0.1-0.8-0.2-1.3,0.2
		c0,0.2,0,0.3-0.1,0.4c-0.3-0.1-0.4,0.1-0.6,0.2c0,0.2,0.1,0.1,0.2,0.2c-0.4,0.1-0.8,0.4-1.3,0.5c0.1,0.2-0.1,0.3-0.1,0.5
		c-0.4,0.1-0.2,0.2-0.7,0.2c-0.2,0.3-0.4,0.7-0.4,0.9c0,0.2,0.4,0.1,0.5,0.2c0.1,0.4,0,0.4,0.1,0.9c-0.8,0.2-1.3-0.2-1.6,0.4
		c0,0.4,0.6,0.3,0.5,0.7c-0.7-0.3-1.5-0.1-2.3-0.2c0.3,0.3,0.5,0.1,0.6,0.3c0.4-0.1,0.9-0.2,1.3,0c0,0.2-0.2,0.3-0.2,0.4
		c-0.3-0.1-0.4-0.4-0.7-0.2c0,0.2,0.3,0.1,0.2,0.3c-0.2,0-0.2,0.2-0.5,0.2c-0.1-0.1,0-0.1,0-0.4c-0.4,0.1-0.5-0.1-0.9-0.1
		c0,0.3,0.3,0.2,0.3,0.5c-0.1,0.2-0.5,0.2-0.8,0.2c0.3,0.5,0.7,0.1,1.3,0.3c-0.1,0.3-0.7,0.1-0.9,0.3c0-0.3-0.5-0.1-0.8-0.1
		c0.1-0.3,0.3,0.1,0.3-0.2c-0.5-0.2-1.4,0.2-1.4,0.9c0.3-0.1,0.5,0,0.6,0.2c0.1,0.3-0.3,0.1-0.3,0.2c0,0.2,0.4,0,0.2,0.2
		c-0.7,0.1-1.3-0.1-1.6-0.2c-0.1,0.4-1.1,0.5-1.6,0.9c0,0.1,0.1,0.1,0.2,0.2c-0.7,0.3-1.2,0.6-1.8,1c0,0.1,0.1,0.1,0.1,0.2
		c-0.9,0.5-0.8,1.1-1.6,1.4c0.2,0.1-0.1,0.3,0.1,0.3c-1.5,0.4-2.2,2.1-3.4,3c0.2,0.2,0.2,0.3-0.1,0.4c0.1,0.2,0.3-0.1,0.5,0
		c0.1,0.3-0.5,0.1-0.5,0.1c-0.4,0.1-0.3,0.7-0.5,1c0.1,0.1,0.3,0.1,0.5,0.2c-0.3,0.1-0.6,0.3-1.1,0.3c0.1,0.4-0.1,0.6,0.2,0.9
		c0.3-0.1,0.4-0.1,0.5,0.2c0.3,0,0.3-0.4,0.6-0.3c0.1,0.3-0.1,0.7-0.1,0.9c-0.4-0.1-0.6,0-0.5,0.5c0.3,0.1,0.2-0.2,0.5-0.2
		c0.2,0.1,0.4,0.2,0.4,0.5c-0.3-0.2-0.5,0.1-0.5,0.2c0.1,0.1,0.3,0.1,0.5,0.2c-0.1,0.1-0.1,0.1-0.2,0.2c0.3,0.2,0.7,0.2,0.7,0.6
		c-0.5,0-0.7-0.1-1-0.3c-0.1,0.1-0.2,0.2-0.3,0.4c0.4,0.2,0.9-0.1,1.3,0.1c0,0.4-0.4,0.2-0.5,0.5c0.1,0.1,0.1,0.1,0.2,0.2
		c0.1-0.2,0.3-0.2,0.4-0.4c0.1,0.1,0.1,0.1,0.2,0.2c0.1-0.6,0.8-1.1,0.5-2c0.3,0,0.4-0.1,0.6-0.2c-0.1-0.1-0.2-0.1-0.2-0.2
		c0.2-0.1,0.4-0.3,0.5-0.5c0-0.1-0.1-0.2-0.2-0.2c0.1-0.1,0.1-0.2,0.2-0.3c0.2,0,0.3,0.2,0.5,0.2c0.3-0.4,0-1.5,1.1-1.3
		c0-0.3-0.1,0-0.2-0.2c0.1-0.2,0.3-0.3,0.6-0.3c-0.3,0.7,1,1,0.7,0.4c1.1-0.5,1.3-1.9,2.3-2.5c0-0.2,0-0.3-0.2-0.3
		c0.2-0.2,0.4-0.4,0.7-0.5c0-0.1,0-0.1-0.1-0.2c0.8-0.5,1.1-1.6,1.8-2.2c-0.1-0.1-0.1-0.1-0.2-0.2c0.2,0,0.2-0.2,0.2-0.5
		c0.2-0.2,0.2,0,0.3,0.1c0.2,0-0.1-0.2,0.1-0.3c0.3-0.1,0.5,0.1,0.8-0.1c-0.2-0.2-0.4-0.1-0.7-0.1c-0.1-0.1,0-0.2-0.2-0.2
		c0-0.2,0.3-0.1,0.5-0.2c0-0.1-0.1-0.2-0.1-0.3c0.2,0.2,0.6,0.1,0.8,0c-0.1-0.1-0.2-0.2-0.4-0.2c0.2-0.2,0.8,0.2,0.9-0.2
		c-0.1-0.2-0.3-0.2-0.5-0.2c0.1-0.7,1-0.2,1.4-0.4c0-0.3-0.5-0.2-0.6-0.4c0.5-0.6,1.3-0.4,1.3-1c0.2,0,0.4,0,0.5-0.1
		c0-0.1-0.1-0.2-0.3-0.2c0.6-0.8,1.5-0.6,2.3-0.7c-0.1-0.4-0.3-0.7-0.7-0.7c0-0.1,0.1-0.2,0.1-0.3c0.3,0.2,0.6,0,0.6,0.5
		c0.2-0.1,0.2,0.1,0.4,0.1c0.2-0.4,1-0.2,1.3-0.5c-0.2-0.4-1.8,0.4-1.7-0.6c0.8,0.1,1.5,0.4,2.4,0.2c-0.2-0.2-0.4-0.4-0.6-0.6
		c-0.5-0.1-0.7,0.4-1,0.2c0-0.2,0.1-0.1,0.2-0.2c-0.8,0.4-0.9-0.4-1.6-0.5c0.3-0.3,1.1,0.3,1.6,0.4c0.6-0.2,1.1,0,1.4,0.4
		c0.5-0.3,1.8-0.3,1.6-1.1c0.6,0.1,1.1-0.2,0.8-0.6c1.2,0.2,2-0.6,3-1.1c0,0,0.1,0,0.1-0.1c0.1,0,0.1-0.1,0.2-0.1c0,0,0.1,0,0.1,0
		c0-0.2,0.3-0.2,0.4-0.4c-0.2-0.2-0.3-0.6-0.2-0.9c0.1,0,0.6,0.6,0.2,0.6c0.2,0.3,0.9-0.1,0.9-0.5c0.2,0,0.3,0,0.5,0
		c-0.1-0.4-0.7,0.1-0.5-0.5c-0.1,0-0.2,0-0.3,0c-0.1,0.1-0.1,0.2-0.2,0.3c-0.5,0-0.7-0.3-0.8-0.4c-0.2-0.1,0.1-0.3,0.1-0.4
		c0.5,0,0.9,0.3,1.4,0c0.1,0.1,0,0.2,0,0.4c0.5-0.1,0.5-0.2,0.9-0.1c-0.3,0.1-0.4,0.3-0.7,0.3c0.7,0.4,1.5-0.5,2-0.9
		c0,0,0.1,0,0.1,0c0,0,0.1,0,0.1,0c0-0.1,0.1-0.1,0.2-0.2c-0.3-0.2-0.4-0.3-0.7-0.3c0.1-0.3,0.8-0.1,0.9-0.4
		c-0.4-0.1-0.2-0.4-0.5-0.5c0-0.4,0.6-0.2,0.9-0.2c-0.1,0.3-0.2,0.2,0.1,0.3c0,0.2-0.1-0.1-0.2,0.1c0.3,0.3,0.6,0.4,1.2,0.3
		c-0.5-0.2,0-0.5,0.5-0.3c0.1-0.1,0.2-0.5,0-0.5c0.3,0.1,0.7-0.2,1.1-0.2c-0.3,0.2-0.2,0.4-0.7,0.4c0.1,0.1,0.3,0.1,0.3,0.2
		c0.8-0.6,2.1-0.6,2.6-1.7c-0.1-0.1-0.5-0.1-0.5-0.2c0.2-0.2,0.3,0.2,0.7,0.1c0.2,0-0.1-0.2-0.2-0.3c0.3-0.2,0.4,0.3,0.9,0.2
		c-0.1-0.3-0.4-0.1-0.2-0.5c0.2,0.1,0.1,0.4,0.5,0.3c-0.2,0.9,1.3,0.2,1.8-0.2c-0.2-0.4-0.6,0.1-0.8-0.1c0-0.3,0.3-0.3,0.1-0.6
		c0.3,0,0.3,0.3,0.7,0.2c0,0.1-0.2,0.1-0.2,0.2c0,0.1,0.2,0.1,0.3,0.1c0.1-0.1,0.1-0.3,0.2-0.4c0.1,0.4,0.9,0,0.5,0.2
		c0,0.2,0.5-0.1,0.4,0.2c0.4,0,0.2-0.4,0.5-0.4c0-0.3-0.5,0-0.4-0.3c0.3-0.1,0.5,0.1,0.8-0.1c0-0.1-0.1-0.1-0.1-0.2
		c-0.1,0-0.1,0.2-0.2,0.2c0-0.2,0-0.3,0-0.5c0.3,0,0.6,0.2,0.6-0.2c0.9,0.3,1.8-0.6,2.4-0.2c0,0.1-0.1,0.1-0.2,0.1
		c0,0.2,0.2,0.2,0.1,0.3c0.2-0.1,0.3-0.2,0.7-0.2c0,0.1-0.3,0.1-0.2,0.2c0.6,0.1,0.7-0.5,1.2-0.3c0.1-0.2-0.2-0.2-0.2-0.2
		c1.1,0.4,2.8,0.1,4.1-0.3c0,0,0.1,0,0.1,0c1.4-0.1,2.9-0.5,4.2-0.2c1.1-0.7,4.2,0,6.1-0.2c-0.4-0.1-0.8-0.1-1.2-0.1
		c0.4,0,0.8,0.1,1.2,0.1c0,0,0.1,0,0.1,0c0,0,0,0.1,0,0.1c1.5-0.2,2.5,0.2,3.8,0.3c0,0,0.1,0,0.1,0c0,0,0,0.1,0,0.1
		c0.1,0,0.1,0,0.2,0c1.1-0.1,2.3,0.2,3.1-0.1c1.5,0.5,3.4,1,5.2,0.9c0.2,0,0.4,0,0.6,0c0.1,0.1,0.2,0.1,0.4,0.1
		c0,0.1,0.2,0.1,0.3,0.1c0.2,0.2,0.5,0.2,0.7,0.4c1.3,0.3,2.3,0.9,3.3,1.4c0.6-0.1,1.9-0.1,2.2,0c0.1,0,0,0.1,0,0.2
		c0.7,0.5,2.5-0.2,3.3,0.3c0.3,0.2,0.5,0.7,0.8,0.9c0.9,0.1,1.3,0.5,1.9,0.9c0.5-0.2,0.8,0.3,1.3,0.4c0,0.1-0.1,0.1-0.2,0.1
		c0.5,0.7,1.5,0.9,2.5,1.2c-0.4,0.6,1.6,0.6,2.2,0.8c-0.1,0.5,0.6,0.3,0.6,0.7c0.1,0,0.2-0.1,0.2-0.2c0.2,0.5,2.3,0.7,2.1,1.6
		c0.3,0.3,2.1,0.6,2.7,0.5 M196.1,40.1c0,0.2,0,0.4,0,0.6c-0.1,0-0.2,0-0.3,0c0-0.4,0.4-0.6-0.2-0.6c0.1-0.2,0.5-0.1,0.6-0.2
		c-0.1-0.2-0.3,0-0.5,0c-0.1-0.2-0.1-0.6,0.3-0.5 M111.3,50c-0.2,0.3-0.4,0.2-0.8,0.1C110.6,49.9,111.1,50,111.3,50z M110.5,50.3
		c0.3,0.1,0.1,0.7,0.5,0.7c-0.2,0.3-0.4,0-0.8,0c0-0.3,0-0.5-0.2-0.5C110,50.2,110.5,50.5,110.5,50.3z M102.7,58.5
		c0.2,0,0.3,0.1,0.5,0.2c-0.1,0.3-0.1,0.7-0.5,0.7C102.9,59,102.6,58.8,102.7,58.5z M105.9,55.5c0.2,0.1,0.5,0.1,0.5,0.4
		c-0.2,0-0.2,0.1-0.3,0.2C106,56,106,55.7,105.9,55.5z M105.7,55.3c0,0.3-0.3,0.1-0.2,0.5c-0.3-0.1,0-0.2-0.2-0.5
		C105.4,55.3,105.6,55.3,105.7,55.3z M107.2,54.9c-0.2,0-0.5,0-0.5-0.2c0.1,0.1,0.4,0,0.3-0.3c0.3,0,0.5,0.1,0.5,0.3
		C107.3,54.5,107.1,54.6,107.2,54.9z M104.3,55.9c0-0.2,0.3,0,0.5-0.1c0,0.1,0,0.1,0.1,0.2C104.7,56.3,104.4,56,104.3,55.9z
		 M104.8,56.4c-0.1,0.2-0.5,0.2-0.5-0.2C104.6,56.2,104.6,56.3,104.8,56.4z M110.1,51.3c0.2,0,0.5-0.1,0.5,0.1
		c0,0.3-0.5,0.1-0.5,0.3C109.9,51.7,110,51.3,110.1,51.3z M108,52.5c0.1,0.2-0.1,0.2-0.2,0.3c-0.1-0.2-0.3-0.1-0.4-0.5
		C107.7,52.3,107.6,52.6,108,52.5z M105.9,54.4c-0.4,0-0.8,0-0.9-0.3C105.5,54.1,105.8,54,105.9,54.4z M105.2,55
		c0.1,0.2-0.6-0.1-0.3,0.5c-0.4-0.1-0.7-0.1-0.8-0.6C104.6,54.8,104.7,55.1,105.2,55z M102.6,57.3c-0.1,0.2,0.2,0.2,0.2,0.2
		c-0.3,0.2,0.1,0.5-0.3,0.5c0.1-0.5,0-0.5-0.3-0.7C102.2,57.2,102.5,57.3,102.6,57.3z M101.4,58.9c0-0.1,0-0.3,0.2-0.4
		c0.3,0,0.2,0.3,0.4,0.4C101.8,59.1,101.6,59,101.4,58.9z M102.3,60.1c0.1,0,0.2,0,0.3,0C102.6,60.4,102.2,60.4,102.3,60.1z
		 M106.8,56.8c0-0.5,0.3-0.1,0.6-0.2C107.3,56.8,107.1,56.9,106.8,56.8z M107.1,55.7c0.1-0.2,0.4,0,0.5,0.1c0,0.3-0.3,0.4-0.2,0.7
		C106.9,56.5,107.3,56,107.1,55.7z M109.1,56c-0.4,0-0.4,0.2-0.9,0.2c0-0.2-0.1-0.3-0.2-0.4c0.2-0.3,0.8-0.1,1-0.4
		C109.6,55.5,108.8,55.9,109.1,56z M110,54.9c-0.3,0-0.3-0.3-0.5-0.3C109.2,54.5,110.2,54.5,110,54.9z M110,53.9
		c0,0.1,0.1,0.2,0.2,0.2c-0.2,0.4-0.6-0.1-0.7-0.3c0.5,0.1,0.5,0,0.9-0.1C110.4,53.9,110.2,53.9,110,53.9z M111.1,51.1
		c0-0.1,0.7-0.1,0.4-0.2c0-0.1,0.2-0.1,0.3-0.1C111.6,50.9,111.4,51.2,111.1,51.1z M111.6,50.2c0.1,0.2-0.1,0.3,0.2,0.3
		c0,0.2-0.4,0.1-0.5,0c0-0.4,0.5-0.3,0.3-0.6c0.2,0,0.3,0,0.5,0c0,0.1-0.2,0.1-0.1,0.2C112,50.2,111.8,50.2,111.6,50.2z M112.8,48.9
		c0,0.3,0.4,0.2,0.4,0.5c-0.5-0.2-0.5-0.6-1.2-0.5c0.4-0.4,0.7-0.2,1.3-0.3C113.2,48.8,112.9,48.7,112.8,48.9z M113.4,48.5
		c0.3-0.1,0.4,0.1,0.7,0.1c-0.1,0.2,0.1,0.2,0.1,0.4c-0.2,0-0.4,0-0.6,0C113.6,48.6,113.3,48.8,113.4,48.5z M116.9,44.7
		c0-0.1,0-0.3,0-0.4c0.1,0,0.3,0,0.4,0c-0.1,0.2,0.2,0.2,0.2,0.4C117.2,44.5,117.2,44.6,116.9,44.7z M137.3,35.4
		c0.2,0,0.2,0.1,0.4,0.1c-0.2,0.3-0.3,0.3-0.5,0.3C137,35.5,137.4,35.7,137.3,35.4z M135.5,36C135.5,36,135.5,36,135.5,36
		C135.5,36,135.5,36,135.5,36z M135.4,35.9c0,0.1-0.1,0.1-0.1,0.2C135.3,36,135.4,35.9,135.4,35.9z M135.3,36.1L135.3,36.1
		C135.3,36.1,135.3,36.1,135.3,36.1C135.3,36.1,135.3,36.1,135.3,36.1z M135.5,36C135.5,36,135.5,36,135.5,36
		C135.5,36,135.5,36,135.5,36z M135.4,35.9c0-0.1,0.1-0.2,0.1-0.3C135.5,35.7,135.4,35.8,135.4,35.9z M135.2,36.3
		C135.2,36.3,135.2,36.3,135.2,36.3C135.2,36.3,135.2,36.3,135.2,36.3z M135.3,36.2C135.3,36.2,135.2,36.2,135.3,36.2
		C135.2,36.2,135.3,36.2,135.3,36.2z M135.1,36.4c0,0-0.1,0.1-0.1,0.1C135,36.4,135.1,36.4,135.1,36.4z M134.9,36.5
		c0-0.3-0.4-0.3-0.2,0c-0.3,0.2-0.6-0.2-0.9-0.2C134,35.8,135,35.8,134.9,36.5z M133.6,36.7c-0.1,0.2-0.5,0-0.5-0.2
		C133.3,36.5,133.4,36.7,133.6,36.7z M132.3,37c0.1,0.1,0,0.1,0.1,0.4c-0.2,0-0.2,0.1-0.3,0.1c0.1,0.1,0.2,0.1,0.2,0.2
		c-0.1,0-0.2,0-0.2,0C132,37.3,132.2,37.2,132.3,37z M131.6,38.2c-0.3,0-0.4-0.2-0.5-0.4C131.4,37.7,131.7,37.8,131.6,38.2z
		 M130.4,37.6c-0.1,0-0.1,0-0.2,0.1c-0.3-0.1,0.3-0.4-0.2-0.5C130.2,36.9,130.4,37.3,130.4,37.6z M127.8,38.7c0.3,0,0.4,0,0.6,0.1
		c0,0.2-0.2,0.4,0.1,0.5c0,0.4-0.4,0-0.5,0C128.2,38.9,127.9,38.9,127.8,38.7z M128.4,38.6c-0.2,0-0.3,0.2-0.5,0
		C128,38.3,128.4,38.3,128.4,38.6z M129.4,38.2C129.6,38.2,129.4,38.3,129.4,38.2c-0.1,0.2,0,0.3,0.1,0.4c-0.1,0.1-0.2,0.1-0.3,0.2
		C129.2,38.5,129.3,38.2,129.4,38.2z M129,36.6c0.1,0,0.1,0.2,0.1,0.3c-0.3,0.1-0.4-0.1-0.5-0.2C128.5,36.6,129,37,129,36.6z
		 M127.7,36.9C127.8,36.9,127.8,37,127.7,36.9c0.1,0.3,0.2,0,0.4,0.1c0.1,0.1,0,0.1,0,0.2c0.4-0.1,0.3-0.2,0.6,0
		c0,0.1-0.1,0.2-0.1,0.3c-0.1,0-0.1-0.1-0.2-0.1c-0.1,0.3,0.2,0.1,0.4,0.2c-0.1,0.2-0.2,0.3-0.1,0.5c-0.1,0-0.2,0.1-0.2,0.2
		c-0.3-0.1-0.4-0.5-0.7-0.2c-0.1-0.1-0.1-0.2-0.1-0.4c0.3,0.1,0.4,0,0.7,0.2c0-0.4-0.4-0.3-0.8-0.3c0-0.3,0.1,0,0.3-0.2
		c0-0.3-0.1-0.2-0.3-0.2c0-0.1,0-0.1-0.1-0.2C127.6,37,127.7,37,127.7,36.9z M125.9,40.4c-0.2,0-0.3,0-0.5,0
		c0.1-0.2,0.3-0.3,0.5-0.3C125.9,40.1,125.9,40.3,125.9,40.4z M125.9,39.5c0,0.1,0,0.2,0,0.3c-0.4,0-0.3-0.4-0.7-0.3
		c0-0.1,0.1-0.1,0.2-0.2C125.5,39.3,125.6,39.5,125.9,39.5z M123.7,40.8c0,0.2-0.2,0.2-0.3,0.2c-0.1-0.1-0.1-0.2-0.1-0.3
		C123.4,40.8,123.5,40.9,123.7,40.8z M124.1,41.4c-0.4-0.1-0.5,0.2-0.8,0.1C123.3,41.1,124.1,40.9,124.1,41.4z M123,40.1
		c0,0.2-0.3,0.2-0.4,0.2C122.5,40.1,122.7,40.1,123,40.1z M122.6,41.1c-0.1,0.6-0.7,0-1.2,0.2C121.5,40.6,122,41.5,122.6,41.1z
		 M120.1,42.5c0.1,0,0.5-0.3,0.5,0.1C120.4,42.5,120.1,42.9,120.1,42.5z M119.8,42.6c0,0.2-0.2,0.3-0.2,0.4c-0.1,0-0.2-0.2-0.4-0.2
		C119.2,42.6,119.6,42.5,119.8,42.6z M118.8,43.6c-0.2-0.1-0.6,0.2-0.7-0.2C118.3,43.3,119,43.2,118.8,43.6z M118.2,43.6
		c-0.1,0.2-0.5,0.1-0.6,0C117.7,43.5,117.9,43.6,118.2,43.6z M118.1,44.1c0.4-0.1,0.8-0.4,1.2-0.3c-0.3,0.1-0.7,0.2-0.7,0.6
		c-0.1,0-0.3,0-0.4,0C118.3,44.4,118.4,44,118.1,44.1z M120.5,45c0.3-0.3,0.4,0.3,0.5,0.5C120.6,45.3,120.8,45.1,120.5,45z
		 M120.9,41.8c0.3-0.3,0.3,0.4,0.7,0.3c-0.1,0.2-0.6,0.1-0.7,0C120.9,42,121.2,41.9,120.9,41.8z M122,43.9c0.2,0,0.3,0,0.4,0.1
		C122.4,44.2,121.9,44.2,122,43.9z M123.4,43.6c0,0.1,0.1,0.2,0.1,0.3c-0.3,0-0.3-0.2-0.4-0.5c0.2,0,0.4,0,0.5,0
		C123.6,43.6,123.5,43.6,123.4,43.6z M126.8,39.9c0-0.2,0.2-0.2,0.4-0.2C127.2,40,127,39.9,126.8,39.9z M126.8,39.5
		c0.3-0.4,0.8,0.1,1.2,0.1C127.7,40,127.3,39.3,126.8,39.5z M128.1,40.8c0.4-0.3-0.3-0.2-0.5-0.2c-0.1-0.2-0.2-0.4-0.1-0.5
		c0.4,0.2,0.8,0.3,1,0.7C128.4,40.8,128.2,40.8,128.1,40.8z M129.3,39.9c-0.1-0.3-0.4,0-0.5-0.4c0.3,0,0.2-0.1,0.5,0
		C129.3,39.6,129.3,39.8,129.3,39.9z M130.3,37.9c0.1,0,0.1,0,0.2,0c0.2,0.1,0.3,0.1,0.5,0.2c0,0.1,0,0.3,0,0.4
		C130.7,38.3,130.3,38.4,130.3,37.9z M132.3,38.6c0-0.1,0.3-0.1,0.2-0.2c0.1,0,0.1,0.2,0.4,0.2C132.9,38.7,132.5,38.6,132.3,38.6z
		 M134.4,37.6c-0.3,0.1-0.1-0.3-0.3-0.3C134.2,37.1,134.4,37.4,134.4,37.6z M137.5,37.3c-0.1-0.1-0.2-0.1-0.4-0.1
		c0.1-0.2,0.2-0.4,0.5-0.5C137.7,37.1,137.5,37.1,137.5,37.3z M140.5,34.4c0-0.1,0-0.2,0-0.2c0.2,0,0.1-0.6,0.5-0.2
		c0.1,0.2,0.2,0.1,0.1,0.4c0,0-0.3-0.2-0.3,0c0.1,0,0.3,0.2,0.1,0.2C140.6,34.6,140.5,34.5,140.5,34.4z M141.9,34.9
		c0-0.1,0-0.2,0-0.3c0.4-0.1,0.3,0.3,0.5,0.3C142.3,35.1,142,34.9,141.9,34.9z M151.4,30.2C151.4,30.2,151.4,30.2,151.4,30.2
		C151.4,30.2,151.4,30.2,151.4,30.2z M159.7,28.8L159.7,28.8c-0.2,0.4-0.7,0.3-1.3,0.3C159,29.1,159.5,29.2,159.7,28.8z M192.2,41.2
		c-0.2-0.1-0.2,0.1-0.4,0.1c0.1-0.1,0.1-0.3-0.1-0.3c0.1-0.2,0.4-0.2,0.6-0.1C192.4,41,192.2,41,192.2,41.2z M148.3,34.2
		C148.2,34.2,148.2,34.2,148.3,34.2C148.2,34.2,148.2,34.2,148.3,34.2z M148.2,34.2C148.2,34.1,148.2,34.1,148.2,34.2
		C148.2,34.1,148.2,34.1,148.2,34.2z M148.4,32.2c0.2-0.1,0.5,0,0.6,0.1c0,0.3-0.4,0.1-0.5,0.2C148.5,32.4,148.4,32.4,148.4,32.2z
		 M148.6,31.8c0.1-0.1,0.8-0.1,0.9,0.2C149.1,31.9,148.9,31.9,148.6,31.8z M148.8,31.5c0.1-0.1,0.2-0.2,0.5-0.2
		C149.3,31.7,149,31.6,148.8,31.5z M160.6,28.9c0.1,0,0.1,0,0.2,0C160.7,28.9,160.7,28.9,160.6,28.9z M156.7,30.7
		c0.1-0.2,0.2-0.3,0.5-0.2C157.2,30.9,156.9,30.8,156.7,30.7z M154.4,32c-0.1-0.1-0.1-0.3-0.4-0.2c0.6-0.2,1-0.2,1.3-0.6
		c-0.1-0.2-0.2-0.1-0.1-0.4c0.3-0.1,0.7,0,0.7-0.4c0.4,0,0.5,0.3,0.6,0.5c0.1,0.3-0.3,0.1-0.3,0.3c0,0.3,0.2,0.3,0.4,0.4
		C155.9,31.7,155.1,32.1,154.4,32z M150.1,33c0.1-0.1,0.3-0.2,0.5-0.2C150.6,33.1,150.3,33,150.1,33z M150.3,31.7
		c0.1,0.2,0.2,0.4,0.2,0.6c-0.1,0-0.1,0-0.2,0.1c-0.2,0,0-0.4-0.3-0.2c-0.2,0-0.1-0.4,0.1-0.2c-0.1-0.2-0.2-0.2-0.4-0.2
		C149.9,31.6,150,31.7,150.3,31.7z M150.7,34.1C150.7,34.1,150.7,34.1,150.7,34.1C150.7,34.1,150.7,34.1,150.7,34.1z M150.9,33.9
		C150.9,33.9,150.9,33.9,150.9,33.9C150.9,33.9,150.9,33.9,150.9,33.9z M150.8,34C150.8,34,150.8,34,150.8,34
		C150.8,34,150.8,34,150.8,34z M150.7,34C150.7,34,150.7,34,150.7,34C150.7,34,150.7,34,150.7,34z M151.1,34
		C151,33.9,151,33.9,151.1,34C151,33.9,151,33.9,151.1,34z M188.8,35.5c-0.2-0.2-0.3-0.3-0.7-0.3C188.5,35.2,188.6,35.4,188.8,35.5z
		 M190.2,35c-0.1,0-0.2,0-0.3,0C190,35,190.1,34.9,190.2,35z M192.2,40.5c-0.2,0-0.3,0-0.3-0.2C192.1,40.3,192.3,40.3,192.2,40.5z
		 M184.1,35.8c0.1,0,0.1,0.1,0.2,0.1c0,0.2-0.1,0.3-0.4,0.2C183.9,35.9,184.2,36.1,184.1,35.8z M184.7,36.4c0,0.1,0,0.1,0.1,0.2
		c-0.1,0.1-0.4-0.1-0.6-0.1C184.2,36.3,184.6,36.4,184.7,36.4z M184.4,35.6c-0.1,0-0.1,0-0.2,0.1C184.3,35.6,184.4,35.6,184.4,35.6z
		 M184.1,35.7c0,0,0.1,0,0.1,0C184.2,35.7,184.1,35.7,184.1,35.7z M183.9,35.8c0,0,0.1-0.1,0.1-0.1C184,35.8,184,35.8,183.9,35.8z
		 M183.5,36c0.1,0,0.2,0,0.2-0.1C183.7,35.9,183.6,36,183.5,36z M183.5,35.8c0.1,0,0.1,0,0.1,0C183.6,35.8,183.6,35.8,183.5,35.8z
		 M183.8,35.9L183.8,35.9L183.8,35.9L183.8,35.9z M183.9,35.8C183.9,35.8,183.9,35.7,183.9,35.8C183.9,35.7,183.9,35.8,183.9,35.8z
		 M183.9,35.7C183.9,35.6,183.9,35.6,183.9,35.7C183.9,35.6,183.9,35.6,183.9,35.7z M183.7,35.5c0,0,0.1,0,0.1,0
		C183.8,35.5,183.8,35.5,183.7,35.5z M183.5,36c-0.1,0-0.2,0-0.3,0C183.3,36,183.4,36,183.5,36z M190.4,38.3c0.3,0,0.5,0,0.5,0.3
		c-0.3-0.1-0.4,0.2-0.6,0C190.3,38.5,190.5,38.6,190.4,38.3z M188.7,36.5C188.7,36.5,188.7,36.5,188.7,36.5
		C188.7,36.5,188.7,36.5,188.7,36.5z M188.9,36.5C188.9,36.5,188.9,36.5,188.9,36.5C188.9,36.5,188.9,36.5,188.9,36.5z M188.5,36.5
		C188.6,36.5,188.6,36.5,188.5,36.5C188.6,36.5,188.6,36.5,188.5,36.5z M188.5,36.5c-0.1,0-0.1,0.1-0.2,0.1
		C188.3,36.6,188.4,36.5,188.5,36.5z M188.2,36.8c0,0,0.1-0.1,0.1-0.1C188.2,36.7,188.2,36.7,188.2,36.8z M187.9,37.4
		c0-0.1,0-0.2,0.1-0.3C188,37.2,188,37.3,187.9,37.4z M188,37c0-0.1,0.1-0.2,0.1-0.3C188.1,36.8,188.1,36.9,188,37z M188.9,38.4
		c0-0.1,0.1-0.2,0.1-0.3c0.2,0,0.2,0.2,0.3,0.2C189.3,38.5,189,38.4,188.9,38.4z M190.1,38c-0.2,0-0.3,0-0.4-0.1
		c0-0.1,0.1-0.2,0.1-0.3C190.1,37.6,190.1,37.8,190.1,38z M191.5,36.8c0,0.1,0,0.3,0,0.4c-0.1,0-0.2,0-0.3,0
		C191.4,37.1,191.3,36.8,191.5,36.8z M189,37.5c0-0.2,0.1-0.2,0.1-0.3c0.1,0,0.2,0.1,0.3,0.2C189.3,37.5,189.2,37.6,189,37.5z
		 M191.2,39.2c0.3,0,0.2,0.4-0.2,0.3C191,39.4,191.1,39.3,191.2,39.2z M191.2,38.8c0-0.3,0.1-0.5,0.5-0.4c0,0.2,0.2,0.3,0.3,0.4
		C191.8,38.9,191.3,38.9,191.2,38.8z M192.2,39.3c-0.2,0.2-0.2,0.5-0.5,0.5C191.7,39.5,191.8,39.2,192.2,39.3z M188.1,35.3
		L188.1,35.3c0.1,0.1,0.3,0.2,0.5,0.3C188.5,35.5,188.3,35.4,188.1,35.3z M188.4,35.1C188.4,35.1,188.4,35.1,188.4,35.1
		S188.4,35.1,188.4,35.1z M188.1,35.2L188.1,35.2c0,0-0.1-0.1-0.1-0.1C188,35.2,188.1,35.2,188.1,35.2z M186.6,36.1
		c0.1,0.1,0.3,0,0.2,0.2c-0.3,0-0.8,0-0.8-0.3C186.3,36,186.6,36.5,186.6,36.1z M192.9,40.6c0-0.3,0.3,0.1,0.2-0.5
		c0.3-0.1,0.2,0.2,0.5,0.2C193.7,40.6,193.2,40.5,192.9,40.6z M192.8,39.6c0.4-0.1,0.8-0.4,1.3-0.2C194,39.8,193,40,192.8,39.6z
		 M194,38.2c0,0.2-0.4,0.2-0.5,0.1c0.1-0.1,0.3-0.1,0.4-0.2C193.9,38.2,194,38.2,194,38.2z M192.5,37.9c0.4-0.2,0.5,0.1,0.6,0.4
		C192.9,38.5,192.4,38.3,192.5,37.9z M190.1,35.1C190.1,35,190.1,35,190.1,35.1C190.1,35,190.1,35,190.1,35.1z M190,35.1
		C190,35.1,190,35.1,190,35.1C190,35.1,190,35.1,190,35.1z M188.6,35.6c0.1,0,0.1,0.1,0.2,0.2C188.8,35.7,188.7,35.6,188.6,35.6z
		 M188.4,35.2C188.5,35.2,188.5,35.2,188.4,35.2C188.5,35.2,188.5,35.2,188.4,35.2z M182.5,34.7c0,0.1-0.1,0.2-0.1,0.3
		c-0.3,0.1-0.3-0.2-0.5-0.2C182,34.6,182.3,34.8,182.5,34.7z M181.8,34c0.2-0.3,0.3,0.2,0.4,0.2C182,34.5,181.9,34,181.8,34z
		 M190.2,39.7c-0.1,0.3-0.2,0.2-0.2,0.5c-0.3-0.1-0.6-0.1-0.7-0.3C189.4,39.2,189.8,39.7,190.2,39.7z M194.9,40.3
		c0.2,0.1,0.4,0.4,0.2,0.6c-0.1-0.2-0.3-0.4-0.7-0.3C194.6,40.5,194.7,40.3,194.9,40.3z M190.8,35.4c-0.1-0.1-0.1-0.2,0-0.3h0
		C190.7,35.2,190.8,35.4,190.8,35.4z M190.2,35c0.2,0,0.4,0.1,0.6,0.1C190.6,35.2,190.4,35,190.2,35z M190.3,35c0.1,0,0.1,0,0.2,0
		C190.4,35,190.4,35,190.3,35z M190.5,35c0,0,0.1,0,0.1,0C190.6,35,190.6,35,190.5,35z M184.5,34C184.6,34,184.6,34.1,184.5,34
		c0,0.3,0.2,0.3,0.2,0.5c-0.1,0-0.3,0-0.4,0c0-0.1-0.1-0.2-0.1-0.3C184.3,34.2,184.5,34.2,184.5,34z M184.4,35.1
		c-0.2,0.2-0.4-0.3-0.2-0.5C184.7,34.6,184.3,35.1,184.4,35.1z M160.9,28.9c0.1,0,0.1,0,0.2,0C161,28.9,160.9,28.9,160.9,28.9z
		 M160.7,28.6C160.7,28.6,160.8,28.6,160.7,28.6C160.8,28.6,160.7,28.6,160.7,28.6z M147.9,34.6c0,0-0.1,0-0.1,0
		C147.9,34.6,147.9,34.6,147.9,34.6z M148.3,34.6C148.3,34.6,148.3,34.6,148.3,34.6L148.3,34.6C148.3,34.6,148.3,34.6,148.3,34.6z
		 M148.3,34.2C148.3,34.2,148.3,34.2,148.3,34.2C148.3,34.2,148.3,34.2,148.3,34.2z M148.4,34.5C148.4,34.5,148.4,34.6,148.4,34.5
		C148.4,34.6,148.4,34.5,148.4,34.5z M150.7,34.2C150.7,34.2,150.7,34.2,150.7,34.2L150.7,34.2C150.7,34.2,150.7,34.2,150.7,34.2z
		 M151.3,34.1c-0.1,0-0.2,0-0.3,0.1C151.1,34.1,151.2,34.1,151.3,34.1z M151,34.1c-0.1,0-0.2,0.1-0.3,0.1h0
		C150.9,34.2,151,34.2,151,34.1z M151.6,34.1c-0.1,0-0.2,0-0.3,0C151.4,34.1,151.5,34.1,151.6,34.1z M154.1,34.1c-0.3,0-0.5,0-0.8,0
		C153.5,34.1,153.8,34.1,154.1,34.1z M156.3,34c-0.2,0-0.5,0-0.7,0C155.8,34,156.1,34,156.3,34z M196.2,41.5
		c0.1,0.3-0.3,0.1-0.2,0.3c-0.2-0.1-0.4-0.1-0.4-0.4C195.9,41.3,196,41.5,196.2,41.5z M195.1,38.6c0,0.2-0.3,0.2-0.4,0.3
		c0,0.2,0.2,0.2,0.2,0.5c0.1,0,0.1,0,0.2-0.1c0.1,0,0.2,0,0.2,0c0.1,0.1,0.3,0.1,0.2,0.3c-0.3-0.2-0.6,0.1-0.9,0
		C194.2,39,194.6,38.6,195.1,38.6z M194.9,37.9c-0.1,0.2-0.2,0.4-0.5,0.4C194.3,37.9,194.6,37.6,194.9,37.9z M191.1,35.3
		C191.1,35.3,191,35.3,191.1,35.3C191,35.3,191.1,35.3,191.1,35.3z M190.8,35.1c0,0-0.1,0-0.1-0.1C190.8,35.1,190.8,35.1,190.8,35.1
		z M186.5,34.6c0,0.2-0.1,0.2,0.1,0.3c-0.1,0.1-0.5,0.2-0.3,0.3c-0.2,0.2-0.3-0.3-0.6-0.2c0.4-0.2,0.2-0.5,0.3-0.8
		C186.1,34.4,186.3,34.5,186.5,34.6z M184.2,33.8c0,0.2-0.5,0.4-0.5,0C183.9,33.8,184.1,33.6,184.2,33.8z M178.7,33.1
		c-0.3,0.1-0.3-0.2-0.5-0.2C178.4,32.7,178.8,32.8,178.7,33.1z M162,28.2c0,0,0.1,0,0.1-0.1C162.1,28.2,162.1,28.2,162,28.2z
		 M161.4,28.4C161.4,28.4,161.4,28.4,161.4,28.4C161.4,28.4,161.4,28.4,161.4,28.4z M157.8,29c0.1,0,0.2,0,0.3,0
		C158,29,157.9,29,157.8,29z M157.6,29.1c-0.2,0-0.4,0.1-0.5,0.1C157.2,29.1,157.4,29.1,157.6,29.1z M153,29.9c-0.4,0-0.7,0-1.1,0.1
		h0C152.2,30,152.6,30,153,29.9z M151.8,30L151.8,30L151.8,30c0,0.2-0.2,0.1-0.3,0.1C151.5,30.1,151.8,30.2,151.8,30
		c-0.8,0.1-1.6,0.1-2.4,0.2C150.2,30.1,151,30.1,151.8,30z M151.4,30.2C151.4,30.2,151.4,30.1,151.4,30.2
		C151.4,30.1,151.4,30.2,151.4,30.2z M145.9,30.9c0,0.2-0.2,0.2-0.2,0.5c-0.5,0,0.1-0.3-0.2-0.4C145.5,30.8,145.8,30.8,145.9,30.9z
		 M145.5,31.8c-0.1,0.2-0.4,0.2-0.6,0.2c0,0.3,0.3,0.2,0.4,0.3c0,0.2-0.3,0.2-0.5,0.2c0,0.1,0.1,0.2,0.1,0.3c0.2,0,0.2-0.2,0.4-0.2
		c0.3,0.2,0,0.4,0.2,0.7c-0.3,0-0.3-0.1-0.6-0.1c-0.1,0.3,0.3,0.1,0.2,0.3c-0.5,0-0.6-0.3-0.9-0.5c0.3,0,0.4-0.1,0.7,0
		c0.2-0.2-0.2-0.4-0.3-0.5c0.1-0.3,0.4-0.4,0.4-0.8C145.2,31.7,145.3,31.8,145.5,31.8z M143.3,33.6c0.2-0.2,0.5,0,0.6-0.3
		c0.1,0,0.3,0.3,0,0.2c0,0.2,0.1,0.2,0,0.4C143.8,33.7,143.7,33.5,143.3,33.6z M144.4,34.5c0.1,0,0.3,0,0.4,0
		C144.9,34.7,144.2,34.7,144.4,34.5z M144.4,34.3c0.2-0.1,0.2-0.3,0.2-0.5c0.3-0.1,0.3,0.1,0.5,0.2C145,34.1,144.9,34.3,144.4,34.3z
		 M147.4,34.7c-0.1,0-0.1,0-0.2-0.1C147.3,34.6,147.3,34.6,147.4,34.7z M147.5,34.7c0.1,0,0.1,0,0.2,0
		C147.6,34.7,147.5,34.7,147.5,34.7z M151.9,34.2c0.4,0,0.7,0,1.1-0.1C152.6,34.1,152.2,34.2,151.9,34.2z M150.8,34.2
		c0.1,0,0.3,0,0.4,0C151.1,34.2,150.9,34.2,150.8,34.2z M154.5,34.1c0.2,0,0.5,0,0.7,0C154.9,34,154.7,34,154.5,34.1z M156.7,34
		c0.3,0,0.5,0,0.8,0C157.2,34.1,157,34.1,156.7,34z"/>
	<path class="st2" d="M99.3,65c-0.2-0.1-0.5,0-0.3-0.3c-0.2,0.2-0.7,0.1-0.8,0.2C98.4,65.1,99.1,65.4,99.3,65z"/>
	<path class="st2" d="M98,65.6c-0.5-0.1,0-0.3-0.6-0.3C97.5,65.5,97.9,65.7,98,65.6z"/>
	<path class="st2" d="M96.7,133c0.1,0.2-0.3,0.3-0.1,0.5c0-0.1,0.1-0.1,0.2-0.2c0,0.1,0.1,0.2,0.2,0.1C96.7,133.4,96.9,133,96.7,133
		z"/>
	<path class="st2" d="M98.9,136.6c0-0.2,0-0.3-0.2-0.3c-0.1,0.2-0.4,0.3-0.5,0.6C98.6,136.9,98.5,136.5,98.9,136.6z"/>
	<path class="st2" d="M104.2,142.9c0.2,0,0.4-0.3,0.2-0.5C104.3,142.5,104.2,142.7,104.2,142.9z"/>
	<path class="st2" d="M136.8,34.2c0-0.1,0.1-0.5-0.2-0.4C136.4,33.9,136.6,34.3,136.8,34.2z"/>
	<path class="st2" d="M103.6,141.2c0,0.1,0,0.2-0.1,0.3c0.1,0,0.2,0,0.3,0c-0.1-0.2,0.2-0.2,0.2-0.3
		C103.7,141.2,103.7,141.3,103.6,141.2z"/>
	<path class="st2" d="M108.2,24.7c0,0.1,0,0.3,0,0.4c1.2,0.1,2,0.9,3,0.9c-0.1,0-0.2,0-0.2,0.2c0.4-0.1,0.7,0.2,0.9-0.2
		c-0.9-1-3.3-1.8-4.6-2.1c0,0.2,0.1,0.3,0.2,0.5C108,24.3,107.8,24.9,108.2,24.7z"/>
	<path class="st2" d="M134.3,34.7c0-0.1-0.1-0.2,0-0.2c0.1,0,0,0.2,0.2,0.2c0.1-0.1,0.1-0.3,0-0.4c0.1,0,0.2,0,0.2-0.1
		c-0.4,0.1-1.3,0.1-1.1,0.5C133.7,34.5,134,34.6,134.3,34.7z"/>
	<path class="st2" d="M170.3,21.7c-0.5-0.6-1.1,0.4-1.7,0.5c-0.1,0.4-0.3,0.9-0.2,1.5C169.7,23.8,170,22.3,170.3,21.7z"/>
	<path class="st2" d="M148,26.1c-0.3-0.1-0.1-0.1-0.1-0.4c-0.2,0-0.2-0.3-0.5-0.2c0,0.2-0.1,0.3-0.1,0.5
		C147.4,26.1,147.8,26.4,148,26.1z"/>
	<path class="st2" d="M100.5,63.2c0.2,0.4-0.2,0.3,0,0.5c0.3,0.1,0.2-0.3,0.3-0.3c0.1,0.2,0.4,0.2,0.7,0.2
		C101.6,63.1,100.9,63.1,100.5,63.2z"/>
</g>
<g>
	<g>
		<path d="M36.5,91h-3.1v-7h2.7c0.5,0,0.9,0.1,1.2,0.2s0.6,0.3,0.8,0.5c0.3,0.4,0.5,0.8,0.5,1.2c0,0.5-0.2,1-0.5,1.2
			c-0.1,0.1-0.2,0.2-0.3,0.2s-0.1,0.1-0.3,0.1c0.4,0.1,0.8,0.3,1,0.6c0.3,0.3,0.4,0.7,0.4,1.1c0,0.5-0.2,0.9-0.5,1.3
			C38.1,90.8,37.5,91,36.5,91z M35,86.8h0.7c0.4,0,0.8,0,1-0.1c0.2-0.1,0.3-0.3,0.3-0.6c0-0.3-0.1-0.5-0.3-0.6
			c-0.2-0.1-0.5-0.2-1-0.2H35V86.8z M35,89.7h1.1c0.4,0,0.8-0.1,1-0.2c0.2-0.1,0.3-0.3,0.3-0.6s-0.1-0.5-0.4-0.6
			c-0.2-0.1-0.6-0.2-1.1-0.2H35V89.7z"/>
		<path d="M40.6,91v-7h1.6v5.6h3V91H40.6z"/>
		<path d="M51.5,91l-0.6-1.5h-2.9L47.2,91h-1.7l3-7h1.5l3,7H51.5z M49.4,86.1l-0.9,2h1.8L49.4,86.1z"/>
		<path d="M57.4,89.6c0.8,0,1.4-0.3,1.9-0.9l1,1c-0.8,0.9-1.7,1.3-2.8,1.3c-1.1,0-2-0.3-2.7-1c-0.7-0.7-1-1.5-1-2.6
			c0-1,0.4-1.9,1.1-2.6s1.6-1,2.6-1c1.1,0,2.1,0.4,2.9,1.3l-1,1.1c-0.5-0.6-1.1-0.9-1.8-0.9c-0.6,0-1.1,0.2-1.5,0.6
			s-0.6,0.9-0.6,1.5c0,0.7,0.2,1.2,0.6,1.6S56.8,89.6,57.4,89.6z"/>
		<path d="M61.7,84h1.6v2.9l2.6-2.9h1.9l-2.8,3.1c0.2,0.3,0.7,1,1.3,1.9s1.1,1.6,1.5,2H66l-2-2.8L63.3,89v2h-1.6V84z"/>
		<path d="M76.3,84h1.6v7h-1.6v-2.8h-2.8V91H72v-7h1.6v2.9h2.8V84z"/>
		<path d="M85.7,90c-0.7,0.7-1.6,1-2.6,1s-1.9-0.3-2.6-1c-0.7-0.7-1.1-1.5-1.1-2.6s0.4-1.9,1.1-2.6c0.7-0.7,1.6-1,2.6-1
			s1.9,0.3,2.6,1c0.7,0.7,1.1,1.5,1.1,2.6S86.4,89.3,85.7,90z M85.2,87.5c0-0.6-0.2-1.2-0.6-1.6c-0.4-0.4-0.9-0.7-1.5-0.7
			c-0.6,0-1.1,0.2-1.5,0.7c-0.4,0.4-0.6,1-0.6,1.6c0,0.6,0.2,1.2,0.6,1.6c0.4,0.4,0.9,0.7,1.5,0.7c0.6,0,1.1-0.2,1.5-0.7
			C85,88.6,85.2,88.1,85.2,87.5z"/>
		<path d="M94,86.3c0,1.1-0.4,1.8-1.3,2.2l1.8,2.5h-1.9L91,88.8h-1.1V91h-1.6v-7H91c1.1,0,1.9,0.2,2.3,0.5
			C93.8,84.9,94,85.5,94,86.3z M92.1,87.1c0.2-0.2,0.3-0.4,0.3-0.8s-0.1-0.6-0.3-0.8c-0.2-0.1-0.5-0.2-1-0.2h-1.2v2.1H91
			C91.5,87.4,91.9,87.3,92.1,87.1z"/>
		<path d="M97.5,85.4c-0.2,0.1-0.2,0.3-0.2,0.5c0,0.2,0.1,0.4,0.3,0.5s0.6,0.3,1.3,0.4c0.7,0.2,1.2,0.4,1.5,0.7
			c0.4,0.3,0.5,0.8,0.5,1.4c0,0.6-0.2,1.1-0.7,1.5s-1.1,0.6-1.9,0.6c-1.1,0-2.1-0.4-3-1.2l0.9-1.1c0.8,0.7,1.5,1,2.1,1
			c0.3,0,0.5-0.1,0.7-0.2c0.2-0.1,0.2-0.3,0.2-0.5s-0.1-0.4-0.3-0.5c-0.2-0.1-0.5-0.2-1-0.4c-0.8-0.2-1.4-0.4-1.8-0.8
			c-0.4-0.3-0.6-0.8-0.6-1.5c0-0.7,0.2-1.2,0.7-1.5c0.5-0.4,1.1-0.5,1.8-0.5c0.5,0,0.9,0.1,1.4,0.2c0.5,0.2,0.9,0.4,1.2,0.7
			l-0.8,1.1c-0.6-0.5-1.2-0.7-1.9-0.7C97.8,85.2,97.6,85.3,97.5,85.4z"/>
		<path d="M107.5,84v1.4H104v1.4h3.1v1.3H104v1.5h3.6V91h-5.1v-7H107.5z"/>
	</g>
	<g>
		<path d="M36,98.6c0.3,0,0.5,0,0.7-0.1c0.2-0.1,0.4-0.2,0.6-0.5l0.5,0.5c-0.5,0.6-1.2,0.9-1.9,0.9c-0.7,0-1.4-0.2-1.8-0.7
			c-0.5-0.5-0.7-1.1-0.7-1.8c0-0.7,0.2-1.3,0.7-1.8c0.5-0.5,1.1-0.7,1.9-0.7c0.8,0,1.4,0.3,1.9,0.8l-0.5,0.6
			c-0.2-0.2-0.5-0.4-0.7-0.5c-0.2-0.1-0.5-0.1-0.7-0.1c-0.5,0-0.9,0.2-1.3,0.5c-0.3,0.3-0.5,0.7-0.5,1.2s0.2,0.9,0.5,1.2
			C35.1,98.5,35.5,98.6,36,98.6z"/>
		<path d="M45,98.7c-0.5,0.5-1.1,0.7-1.8,0.7c-0.7,0-1.3-0.2-1.8-0.7c-0.5-0.5-0.7-1.1-0.7-1.8s0.2-1.3,0.7-1.8
			c0.5-0.5,1.1-0.7,1.8-0.7c0.7,0,1.3,0.2,1.8,0.7c0.5,0.5,0.7,1.1,0.7,1.8S45.5,98.2,45,98.7z M44.4,95.6c-0.3-0.3-0.7-0.5-1.2-0.5
			c-0.5,0-0.9,0.2-1.2,0.5c-0.3,0.3-0.5,0.8-0.5,1.3s0.2,0.9,0.5,1.3c0.3,0.3,0.7,0.5,1.2,0.5c0.5,0,0.9-0.2,1.2-0.5
			c0.3-0.3,0.5-0.8,0.5-1.3S44.7,96,44.4,95.6z"/>
		<path d="M49.6,95.3v1.3h2.2v0.8h-2.2v2h-0.8v-4.9h3.3l0,0.8H49.6z"/>
		<path d="M55.9,95.3v1.3h2.2v0.8h-2.2v2h-0.8v-4.9h3.3l0,0.8H55.9z"/>
		<path d="M64.8,94.5v0.8h-2.6v1.3h2.4v0.7h-2.4v1.3h2.7v0.8h-3.5v-4.9H64.8z"/>
		<path d="M71.5,94.5v0.8h-2.6v1.3h2.4v0.7h-2.4v1.3h2.7v0.8H68v-4.9H71.5z"/>
		<path d="M74.7,99.4v-4.9h0.8v2.1h2.4v-2.1h0.8v4.9h-0.8v-2h-2.4v2H74.7z"/>
		<path d="M86.3,98.7c-0.5,0.5-1.1,0.7-1.8,0.7c-0.7,0-1.3-0.2-1.8-0.7c-0.5-0.5-0.7-1.1-0.7-1.8s0.2-1.3,0.7-1.8
			c0.5-0.5,1.1-0.7,1.8-0.7c0.7,0,1.3,0.2,1.8,0.7c0.5,0.5,0.7,1.1,0.7,1.8S86.8,98.2,86.3,98.7z M85.7,95.6
			c-0.3-0.3-0.7-0.5-1.2-0.5c-0.5,0-0.9,0.2-1.2,0.5c-0.3,0.3-0.5,0.8-0.5,1.3s0.2,0.9,0.5,1.3c0.3,0.3,0.7,0.5,1.2,0.5
			c0.5,0,0.9-0.2,1.2-0.5c0.3-0.3,0.5-0.8,0.5-1.3S86,96,85.7,95.6z"/>
		<path d="M91.2,98.3c0.2,0.3,0.5,0.4,0.9,0.4c0.4,0,0.7-0.1,0.9-0.4c0.2-0.3,0.3-0.6,0.3-1.1v-2.7h0.8v2.7c0,0.7-0.2,1.2-0.6,1.6
			c-0.4,0.4-0.9,0.6-1.5,0.6c-0.6,0-1.1-0.2-1.5-0.6c-0.4-0.4-0.6-0.9-0.6-1.6v-2.7h0.8v2.7C90.9,97.7,91,98,91.2,98.3z"/>
		<path d="M99,95.1c-0.2,0-0.4,0-0.6,0.1c-0.2,0.1-0.2,0.2-0.2,0.4s0.1,0.3,0.2,0.5c0.2,0.1,0.5,0.2,1,0.3c0.5,0.1,0.9,0.3,1.1,0.5
			c0.3,0.2,0.4,0.5,0.4,1c0,0.4-0.2,0.8-0.5,1c-0.3,0.3-0.7,0.4-1.3,0.4c-0.8,0-1.4-0.3-2-0.8l0.5-0.6c0.5,0.4,1,0.6,1.5,0.6
			c0.3,0,0.5-0.1,0.6-0.2c0.2-0.1,0.2-0.3,0.2-0.5c0-0.2-0.1-0.3-0.2-0.4c-0.1-0.1-0.4-0.2-0.8-0.3c-0.4-0.1-0.6-0.2-0.8-0.2
			c-0.2-0.1-0.4-0.2-0.5-0.3c-0.3-0.2-0.4-0.6-0.4-1c0-0.5,0.2-0.8,0.5-1s0.7-0.4,1.2-0.4c0.3,0,0.6,0.1,0.9,0.2
			c0.3,0.1,0.6,0.2,0.8,0.4l-0.4,0.6c-0.1-0.1-0.3-0.2-0.6-0.3C99.5,95.2,99.3,95.1,99,95.1z"/>
		<path d="M107.5,94.5v0.8h-2.6v1.3h2.4v0.7h-2.4v1.3h2.7v0.8h-3.5v-4.9H107.5z"/>
	</g>
	<g>
		<path d="M33.5,106.6h1.3v3.5h-0.6v-3h-0.7V106.6z"/>
		<path d="M35.4,106.6h1.3v3.5h-0.6v-3h-0.7V106.6z"/>
		<path d="M37.4,107.6v-1h2.4v0.5l-1.5,3h-0.6l1.4-3h-1.2v0.5H37.4z"/>
		<path d="M42.9,107.1c-0.2,0-0.3,0-0.4,0.1c-0.1,0.1-0.2,0.2-0.2,0.3s0.1,0.3,0.2,0.3c0.1,0.1,0.3,0.2,0.7,0.2s0.6,0.2,0.8,0.4
			c0.2,0.2,0.3,0.4,0.3,0.7c0,0.3-0.1,0.6-0.3,0.7c-0.2,0.2-0.5,0.3-0.9,0.3c-0.5,0-1-0.2-1.4-0.6l0.4-0.4c0.4,0.3,0.7,0.5,1.1,0.5
			c0.2,0,0.3,0,0.5-0.1c0.1-0.1,0.2-0.2,0.2-0.3c0-0.1-0.1-0.2-0.2-0.3s-0.3-0.1-0.5-0.2s-0.4-0.1-0.6-0.2c-0.1-0.1-0.3-0.1-0.4-0.2
			c-0.2-0.2-0.3-0.4-0.3-0.7s0.1-0.6,0.4-0.7s0.5-0.3,0.9-0.3c0.2,0,0.4,0,0.7,0.1s0.4,0.2,0.6,0.3l-0.3,0.4
			c-0.1-0.1-0.2-0.2-0.4-0.2C43.2,107.1,43,107.1,42.9,107.1z"/>
		<path d="M44.9,110c-0.1-0.1-0.1-0.2-0.1-0.3s0-0.2,0.1-0.3c0.1-0.1,0.2-0.1,0.3-0.1c0.1,0,0.2,0,0.3,0.1c0.1,0.1,0.1,0.2,0.1,0.3
			s0,0.2-0.1,0.3s-0.2,0.1-0.3,0.1C45,110.2,45,110.1,44.9,110z"/>
		<path d="M46.9,110.1h-0.6v-3.5h0.9l1,2.2l1-2.2h0.9v3.5h-0.6v-2.7l-1.2,2.4h-0.3l-1.2-2.4V110.1z"/>
		<path d="M51.7,109.3l-0.3,0.8h-0.6l1.5-3.5h0.6l1.5,3.5h-0.6l-0.3-0.8H51.7z M53.2,108.8l-0.6-1.4l-0.6,1.4H53.2z"/>
		<path d="M54.9,106.6h0.6v3.5h-0.6V106.6z"/>
		<path d="M59.1,106.6h0.6v3.5H59l-2-2.5v2.5h-0.6v-3.5h0.6l2,2.6V106.6z"/>
		<path d="M63,107.1c-0.2,0-0.3,0-0.4,0.1c-0.1,0.1-0.2,0.2-0.2,0.3s0.1,0.3,0.2,0.3c0.1,0.1,0.3,0.2,0.7,0.2s0.6,0.2,0.8,0.4
			c0.2,0.2,0.3,0.4,0.3,0.7c0,0.3-0.1,0.6-0.3,0.7c-0.2,0.2-0.5,0.3-0.9,0.3c-0.5,0-1-0.2-1.4-0.6l0.4-0.4c0.4,0.3,0.7,0.5,1.1,0.5
			c0.2,0,0.3,0,0.5-0.1c0.1-0.1,0.2-0.2,0.2-0.3c0-0.1-0.1-0.2-0.2-0.3s-0.3-0.1-0.5-0.2s-0.4-0.1-0.6-0.2c-0.1-0.1-0.3-0.1-0.4-0.2
			c-0.2-0.2-0.3-0.4-0.3-0.7s0.1-0.6,0.4-0.7s0.5-0.3,0.9-0.3c0.2,0,0.4,0,0.7,0.1s0.4,0.2,0.6,0.3l-0.3,0.4
			c-0.1-0.1-0.2-0.2-0.4-0.2C63.4,107.1,63.2,107.1,63,107.1z"/>
		<path d="M66.4,107.2v3h-0.6v-3h-1.1v-0.5h2.7v0.5H66.4z"/>
		<path d="M67.8,110c-0.1-0.1-0.1-0.2-0.1-0.3s0-0.2,0.1-0.3c0.1-0.1,0.2-0.1,0.3-0.1c0.1,0,0.2,0,0.3,0.1c0.1,0.1,0.1,0.2,0.1,0.3
			s0,0.2-0.1,0.3s-0.2,0.1-0.3,0.1C67.9,110.2,67.9,110.1,67.8,110z"/>
		<path d="M75.8,107.6v-1h2.4v0.5l-1.5,3h-0.6l1.4-3h-1.2v0.5H75.8z"/>
		<path d="M79,109.7c-0.2-0.3-0.4-0.8-0.4-1.3c0-0.6,0.1-1,0.4-1.3c0.2-0.3,0.6-0.5,1.1-0.5s0.8,0.2,1.1,0.5
			c0.2,0.3,0.4,0.8,0.4,1.3c0,0.5-0.1,1-0.4,1.3c-0.2,0.3-0.6,0.5-1.1,0.5S79.3,110,79,109.7z M79.4,107.4c-0.1,0.2-0.2,0.6-0.2,0.9
			c0,0.4,0.1,0.7,0.2,0.9s0.4,0.4,0.6,0.4c0.3,0,0.5-0.1,0.6-0.4s0.2-0.6,0.2-0.9c0-0.4-0.1-0.7-0.2-0.9s-0.3-0.4-0.6-0.4
			C79.8,107,79.6,107.2,79.4,107.4z"/>
		<path d="M83.5,108.7v-0.6H84v0.6h0.4v0.5H84v0.9h-0.6v-0.9H82v-0.5l1.3-2.1h0.6l-1.3,2.1H83.5z"/>
		<path d="M85.1,110c-0.1-0.1-0.1-0.2-0.1-0.3s0-0.2,0.1-0.3c0.1-0.1,0.2-0.1,0.3-0.1s0.2,0,0.3,0.1c0.1,0.1,0.1,0.2,0.1,0.3
			s0,0.2-0.1,0.3s-0.2,0.1-0.3,0.1S85.1,110.1,85.1,110z"/>
		<path d="M87.9,108c0.1-0.1,0.1-0.3,0.1-0.4s-0.1-0.3-0.2-0.4c-0.1-0.1-0.2-0.1-0.4-0.1c-0.3,0-0.5,0.1-0.7,0.4l-0.5-0.3
			c0.2-0.2,0.3-0.4,0.5-0.5c0.2-0.1,0.4-0.2,0.7-0.2s0.5,0.1,0.8,0.3c0.2,0.2,0.3,0.4,0.3,0.8c0,0.2,0,0.4-0.1,0.5
			c-0.1,0.2-0.3,0.4-0.5,0.6l-0.8,0.8h1.6v0.6h-2.4v-0.5l1.1-1.1C87.6,108.3,87.8,108.1,87.9,108z"/>
		<path d="M90.3,109.6c0.3,0,0.5-0.1,0.7-0.3c0.1-0.2,0.2-0.5,0.2-0.9c-0.1,0.1-0.2,0.2-0.4,0.3s-0.3,0.1-0.5,0.1
			c-0.3,0-0.6-0.1-0.8-0.3c-0.2-0.2-0.3-0.5-0.3-0.8c0-0.3,0.1-0.6,0.3-0.8c0.2-0.2,0.5-0.3,0.9-0.3c0.6,0,0.9,0.3,1.2,0.8
			c0.1,0.3,0.2,0.6,0.2,1c0,0.4,0,0.7-0.1,0.9c-0.1,0.2-0.2,0.4-0.3,0.6c-0.3,0.3-0.6,0.4-1,0.4c-0.4,0-0.7-0.1-1-0.4l0.3-0.4
			c0.1,0.1,0.2,0.1,0.3,0.2C90.1,109.6,90.2,109.6,90.3,109.6z M90.4,108.3c0.2,0,0.4-0.1,0.5-0.2c0.1-0.1,0.2-0.3,0.2-0.4
			c0-0.2-0.1-0.3-0.2-0.5c-0.1-0.1-0.3-0.2-0.5-0.2c-0.2,0-0.4,0.1-0.5,0.2c-0.1,0.1-0.2,0.3-0.2,0.4c0,0.2,0.1,0.3,0.2,0.5
			C90,108.3,90.2,108.3,90.4,108.3z"/>
		<path d="M92.3,107.6v-1h2.4v0.5l-1.5,3h-0.6l1.4-3h-1.2v0.5H92.3z"/>
		<path d="M95,110c-0.1-0.1-0.1-0.2-0.1-0.3s0-0.2,0.1-0.3c0.1-0.1,0.2-0.1,0.3-0.1s0.2,0,0.3,0.1c0.1,0.1,0.1,0.2,0.1,0.3
			s0,0.2-0.1,0.3s-0.2,0.1-0.3,0.1S95,110.1,95,110z"/>
		<path d="M96.3,107.1v-0.5h2v0.5l-0.8,0.9c0.3,0,0.6,0.1,0.7,0.3c0.2,0.2,0.3,0.4,0.3,0.7c0,0.4-0.1,0.6-0.4,0.8
			c-0.2,0.2-0.5,0.3-0.9,0.3c-0.4,0-0.7-0.1-1.1-0.4l0.2-0.5c0.3,0.2,0.6,0.3,0.9,0.3c0.2,0,0.4,0,0.5-0.1s0.2-0.2,0.2-0.4
			c0-0.2-0.1-0.3-0.2-0.4c-0.1-0.1-0.3-0.2-0.6-0.2c-0.1,0-0.3,0-0.4,0.1v-0.5l0.8-0.9H96.3z"/>
		<path d="M100.1,109.6c0.3,0,0.5-0.1,0.7-0.3c0.1-0.2,0.2-0.5,0.2-0.9c-0.1,0.1-0.2,0.2-0.4,0.3s-0.3,0.1-0.5,0.1
			c-0.3,0-0.6-0.1-0.8-0.3c-0.2-0.2-0.3-0.5-0.3-0.8c0-0.3,0.1-0.6,0.3-0.8c0.2-0.2,0.5-0.3,0.9-0.3c0.6,0,0.9,0.3,1.2,0.8
			c0.1,0.3,0.2,0.6,0.2,1c0,0.4,0,0.7-0.1,0.9c-0.1,0.2-0.2,0.4-0.3,0.6c-0.3,0.3-0.6,0.4-1,0.4c-0.4,0-0.7-0.1-1-0.4l0.3-0.4
			c0.1,0.1,0.2,0.1,0.3,0.2C99.9,109.6,100,109.6,100.1,109.6z M100.2,108.3c0.2,0,0.4-0.1,0.5-0.2c0.1-0.1,0.2-0.3,0.2-0.4
			c0-0.2-0.1-0.3-0.2-0.5c-0.1-0.1-0.3-0.2-0.5-0.2c-0.2,0-0.4,0.1-0.5,0.2c-0.1,0.1-0.2,0.3-0.2,0.4c0,0.2,0.1,0.3,0.2,0.5
			C99.9,108.3,100,108.3,100.2,108.3z"/>
		<path d="M102.3,107.1v-0.5h2v0.5l-0.8,0.9c0.3,0,0.6,0.1,0.7,0.3c0.2,0.2,0.3,0.4,0.3,0.7c0,0.4-0.1,0.6-0.4,0.8
			c-0.2,0.2-0.5,0.3-0.9,0.3c-0.4,0-0.7-0.1-1.1-0.4l0.2-0.5c0.3,0.2,0.6,0.3,0.9,0.3c0.2,0,0.4,0,0.5-0.1s0.2-0.2,0.2-0.4
			c0-0.2-0.1-0.3-0.2-0.4c-0.1-0.1-0.3-0.2-0.6-0.2c-0.1,0-0.3,0-0.4,0.1v-0.5l0.8-0.9H102.3z"/>
		<path d="M106.1,109.6c0.3,0,0.5-0.1,0.7-0.3c0.1-0.2,0.2-0.5,0.2-0.9c-0.1,0.1-0.2,0.2-0.4,0.3s-0.3,0.1-0.5,0.1
			c-0.3,0-0.6-0.1-0.8-0.3c-0.2-0.2-0.3-0.5-0.3-0.8c0-0.3,0.1-0.6,0.3-0.8c0.2-0.2,0.5-0.3,0.9-0.3c0.6,0,0.9,0.3,1.2,0.8
			c0.1,0.3,0.2,0.6,0.2,1c0,0.4,0,0.7-0.1,0.9c-0.1,0.2-0.2,0.4-0.3,0.6c-0.3,0.3-0.6,0.4-1,0.4c-0.4,0-0.7-0.1-1-0.4l0.3-0.4
			c0.1,0.1,0.2,0.1,0.3,0.2C105.9,109.6,106,109.6,106.1,109.6z M106.2,108.3c0.2,0,0.4-0.1,0.5-0.2c0.1-0.1,0.2-0.3,0.2-0.4
			c0-0.2-0.1-0.3-0.2-0.5c-0.1-0.1-0.3-0.2-0.5-0.2c-0.2,0-0.4,0.1-0.5,0.2c-0.1,0.1-0.2,0.3-0.2,0.4c0,0.2,0.1,0.3,0.2,0.5
			C105.8,108.3,106,108.3,106.2,108.3z"/>
	</g>
</g>
<g>
	<rect x="-427.7" y="61.3" style="fill-rule:evenodd;clip-rule:evenodd;fill:none;" width="75.6" height="17.6"/>
	<text transform="matrix(1 0 0 1 -420.2081 68.4338)"><tspan x="0" y="0" style="font-family:'Montserrat-Bold'; font-size:10px;">BLACK HORSE </tspan><tspan x="-1.6" y="8.4" style="font-family:'Montserrat-Regular'; font-size:7px; letter-spacing:2;">COFFEEHOU</tspan><tspan x="53.3" y="8.4" style="font-family:'Montserrat-Regular'; font-size:7px; letter-spacing:2;">S</tspan><tspan x="58.8" y="8.4" style="font-family:'Montserrat-Regular'; font-size:7px; letter-spacing:2;">E</tspan></text>
	<text transform="matrix(0.9948 0 0 1 -421.4703 87.884)" style="font-family:'Montserrat-Regular'; font-size:5px;">117 S.MAIN ST.     704.297.3939</text>
</g>
<g class="st1">
	<path class="st2" d="M105.6,23.2c-0.5-0.3-0.7-0.9-1.1-1.3c-0.6-0.2-1.4-0.3-2,0.2C102.3,23.9,104.5,23.7,105.6,23.2z"/>
	<path class="st2" d="M155.4,30.9c0.2,0,0.4,0.2,0.5-0.1C155.6,30.8,155.5,30.7,155.4,30.9z"/>
	<path class="st2" d="M140.5,32.5c-0.1-0.6,0.5,0,0.5-0.5c-0.1,0-0.1-0.2-0.3-0.2c0.1,0.4-0.5,0-0.6,0.4
		C140.4,32.3,140.3,32.4,140.5,32.5z"/>
	<path class="st2" d="M180.6,32.2c-0.1,0-0.1-0.1-0.1-0.2c-0.3,0-0.3,0.1-0.5,0.2C180.3,32.2,180.5,32.5,180.6,32.2z"/>
	<path class="st2" d="M120.7,34.4c0.4-0.4,0.5-0.6,0.5-1.3c-0.8-0.7-2,0-1.6,1.1C119.8,34.4,120.2,34.5,120.7,34.4z"/>
	<path class="st2" d="M140.1,33.2c0.1-0.1-0.1-0.2,0.1-0.4c-0.3,0-0.4,0.1-0.4,0.4C139.9,33.2,140,33.2,140.1,33.2z"/>
	<path class="st2" d="M137.1,33.6c-0.1,0,0-0.1,0-0.2c-0.1,0-0.2,0-0.2-0.1C136.8,33.6,136.9,33.9,137.1,33.6z"/>
	<path class="st2" d="M136.5,34.4c-0.1,0-0.2-0.1-0.3-0.1c-0.1,0.2,0,0.2,0,0.5C136.4,34.8,136.4,34.6,136.5,34.4z"/>
	<path class="st2" d="M130.2,36c-0.1,0-0.1-0.1-0.1-0.2c-0.3,0.1-0.4-0.1-0.6,0.1C129.8,35.9,130,36.2,130.2,36z"/>
	<path class="st2" d="M129.2,37.2c0.2,0,0,0.4,0.4,0.3c0.1-0.2-0.1-0.2-0.1-0.4C129.4,37.1,129.2,37,129.2,37.2z"/>
	<path class="st2" d="M125.9,38.5c0.1-0.4-0.3-0.4-0.5-0.2C125.4,38.5,125.7,38.4,125.9,38.5z"/>
	<path class="st2" d="M125,38.3c-0.1-0.1-0.5-0.1-0.5,0.1C124.7,38.5,124.9,38.5,125,38.3z"/>
	<path class="st2" d="M115.7,49c-0.2,0-0.4,0-0.5,0.2C115.4,49.2,115.7,49.3,115.7,49z"/>
	<path class="st2" d="M110.6,49.3c0,0.2,0.6,0.4,0.7,0.1C111.2,49.1,110.8,49,110.6,49.3z"/>
	<path class="st2" d="M106.7,58.6c-0.2-0.1-0.3-0.2-0.5-0.2C106.1,58.8,106.6,58.5,106.7,58.6z"/>
	<path class="st2" d="M106.2,59.3c0.1,0,0.2,0,0.3,0c0-0.2,0.1-0.4,0.2-0.5C106.4,58.6,106.3,59,106.2,59.3z"/>
	<path class="st2" d="M104.9,60.9c-0.1-0.3,0.3,0,0.2-0.2c-0.2,0-0.4,0-0.5,0C104.5,60.9,104.9,60.8,104.9,60.9z"/>
	<path class="st2" d="M101.3,62c-0.2,0-0.4,0-0.5,0.1C100.9,62.4,101.3,62.2,101.3,62z"/>
	<path class="st2" d="M100.9,62.9c-0.1-0.1-0.4-0.2-0.5-0.1C100.2,63,100.8,63,100.9,62.9z"/>
	<path class="st2" d="M102.4,63.3c-0.2-0.3-0.5-0.4-0.9-0.4c0.2,0.2,0.8,0.2,0.5,0.7C102.3,63.7,102.3,63.5,102.4,63.3z"/>
	<path class="st2" d="M99.5,64.2c-0.2-0.4-1.2,0.1-0.9-0.2c-0.3,0-0.4,0.1-0.5,0.2C98.7,64.1,99.2,64.3,99.5,64.2z"/>
	<path class="st2" d="M98.5,65.2c-0.2,0-0.5-0.3-0.7-0.1C97.9,65.3,98.3,65.4,98.5,65.2z"/>
	<path class="st2" d="M99.8,67.8c0.1,0.1,0.2,0.2,0.5,0.2c0-0.2,0-0.3-0.2-0.4C100.1,67.9,99.8,67.4,99.8,67.8z"/>
	<path class="st2" d="M97.2,74.4c-0.2,0-0.2-0.2-0.5-0.2C96.6,74.5,97.1,74.6,97.2,74.4z"/>
	<path class="st2" d="M88.7,99.6c-0.2-0.1-0.1-0.1-0.1-0.3c-0.1,0-0.3,0-0.4,0C88.3,99.4,88.6,99.8,88.7,99.6z"/>
	<path class="st2" d="M89.2,102.8c0.1-0.1,0.1-0.4-0.1-0.4c0,0.1-0.3,0.1-0.2,0.2C89.1,102.6,89,102.8,89.2,102.8z"/>
	<path class="st2" d="M92.1,120.6c-0.1,0-0.2,0-0.2,0c0-0.1,0-0.2,0-0.2c-0.2,0-0.3,0-0.3,0.2C91.7,120.5,91.9,120.8,92.1,120.6z"/>
	<path class="st2" d="M97.1,128.7c0,0.1,0,0.2,0,0.2c0.2-0.1,0.3-0.1,0.4,0.1c-0.1-0.2,0.2-0.2,0.2-0.3
		C97.4,128.8,97.3,128.8,97.1,128.7z"/>
	<path class="st2" d="M102.7,139.6c0.3,0.9-0.5,1.2-1.2,1.3c0,0.1-0.1,0.2-0.1,0.3c0.3,0,0.4-0.2,0.6-0.3c0.2,0.2,0.5,0.2,0.6,0
		c-0.1,0-0.2,0-0.2-0.2c0.3-0.1,0.5-0.6,0.3-0.9c0.2,0.2,0.2-0.2,0.4-0.2C102.9,139.5,103,139.8,102.7,139.6z"/>
	<path class="st2" d="M138.3,33c0.3,0.3,1,0.7,1.5,0.5c-0.4,0.1-0.1,0.4-0.3,0.7c0.2-0.1,0.4,0.2,0.5,0c-0.3-0.4,0.2-0.6-0.2-1.1
		c-0.2,0-0.2,0.1-0.4,0.2c0-0.1-0.1-0.4,0.1-0.4c0,0.1,0.2,0.1,0.3,0.1c0.1-0.3,0.2-0.6-0.2-0.5c0.3-0.1,0.1,0.2,0,0.2
		c-0.1,0-0.2-0.1-0.2-0.2c0.1,0,0.2,0,0.2-0.1c-0.3-0.1-0.2,0.3-0.4,0.3c-0.3-0.1-0.2-0.1-0.4-0.2c0,0.2,0,0.3-0.2,0.4
		c-0.3-0.2-0.7,0.2-0.9,0.1C137.5,33.6,138.2,33.2,138.3,33z M138.7,32.9C138.8,32.9,138.8,32.8,138.7,32.9c0.1-0.1,0.2-0.1,0.2-0.1
		c0,0.1,0,0.1,0.1,0.1c0,0.1,0,0.1,0,0.2c-0.1,0-0.1,0-0.1,0.1c-0.1,0-0.1,0-0.2,0c0-0.1,0-0.1-0.1-0.1
		C138.7,33,138.7,32.9,138.7,32.9z"/>
	<path class="st2" d="M139.4,33.7c-0.4,0.3-0.3-0.3-0.9-0.2c-0.1,0.2,0.1,0.3,0.1,0.5c-0.1,0-0.2,0-0.2,0.1c-0.2,0-0.1-0.3-0.3-0.2
		c-0.2,0.1,0.2,0.2,0.2,0.4c-0.2,0-0.4,0.5-0.1,0.5c0,0,0.1,0,0.1,0c0.2,0.4,0.8,0,0.9-0.2c-0.1-0.1-0.2-0.2-0.2-0.4
		C139.1,33.9,139.4,34,139.4,33.7z"/>
	<path class="st2" d="M139.5,34.5C139.6,34.5,139.6,34.5,139.5,34.5c-0.1-0.1-0.1-0.3-0.2-0.4c0,0,0,0.1-0.1,0.1c0,0.1,0,0.1,0,0.2
		c0.1,0,0.2,0,0.2,0.2C139.4,34.5,139.5,34.5,139.5,34.5z"/>
	<path class="st2" d="M133.4,35c-0.3,0.1-0.4-0.4-0.7-0.2C132.8,35.2,133.2,35.3,133.4,35z"/>
	<linearGradient id="SVGID_1_" gradientUnits="userSpaceOnUse" x1="100.9333" y1="45.0072" x2="196.4238" y2="45.0072">
		<stop  offset="0" style="stop-color:#FFFFFF"/>
		<stop  offset="1" style="stop-color:#715745"/>
	</linearGradient>
	<path class="st3" d="M196.4,39c-0.2,0-0.1-0.3,0-0.4c0-0.2-0.4,0.1-0.5-0.1c-0.3,0.1,0,0.2-0.2,0.3c-0.3-0.1-0.5-0.3-0.5-0.5
		c0.1,0,0.2-0.1,0.2-0.2c0.1,0,0.1,0.2,0.4,0.2c0.1,0,0.1-0.1,0.2-0.2c-0.4-0.3-0.6,0.1-0.9-0.2c0-0.1,0.3,0.1,0.5,0
		c-0.1-0.2-0.5-0.5-0.6-0.2c-0.1-0.5-0.9-1.1-1.4-1.1c0-0.3-0.6-0.6-0.9-0.7c0.1-0.4-0.3-0.2-0.6-0.4c-0.1,0-0.1-0.3-0.2-0.3
		c-0.2-0.1-0.4,0-0.5-0.1c-0.3-0.2-0.2-0.6-0.4-0.9c-0.1-0.2-0.4-0.1-0.2-0.3c-1,0-1.4-0.6-2-0.9c-0.1,0-0.1,0.1-0.2,0.2
		c-0.1,0.3,0.3,0.1,0.2,0.3c-0.4,0-0.5-0.3-0.4-0.5c-0.2-0.1-1.1-0.5-1.2-0.1c-0.1,0.3-0.1-0.2-0.4-0.1c0-0.1,0.1-0.1,0.2-0.1
		c-0.2-0.3-0.7-0.2-0.9-0.1c0,0.2,0.4,0,0.5,0.2c-0.1,0.2-0.7,0.1-0.9-0.1c-0.1,0.2-0.4,0.3-0.7,0.2c-0.1,0-0.1,0.1-0.2,0.2
		c0.1,0.3,0.4,0,0.6,0.2c-0.2,0.4-0.5,0-0.8,0c-0.4,0-1.1,0.3-1.3,0.2c-0.4-0.2,0.2-0.1,0.1-0.3c-0.1-0.2-1.1-0.5-1.3-0.4
		c0.1,0.2,0.3,0.2,0.5,0.2c-0.1,0.4,0.4,0.2,0.3,0.5c-0.2,0.2-0.4-0.3-0.8-0.2c0,0.2,0.1,0.3,0.2,0.4c-0.2,0.2-0.4-0.2-0.7-0.1
		c0-0.3-0.1-0.5-0.5-0.5c-0.3,0-0.2,0.3-0.5,0.2c0-0.1-0.1-0.1-0.2-0.2c0.1-0.3,0.1-0.4,0.2-0.6c-0.3,0-0.4,0.3-0.6,0
		c0.4-0.1,0.1-0.3,0.4-0.4c-0.1-0.4-0.5-0.5-0.9-0.2c0-0.1,0.1-0.1,0.1-0.2c-0.2,0-0.4,0-0.5,0c0,0.2,0.4,0,0.2,0.2
		c-0.6-0.1-0.6,0.1-1.2,0.2c0-0.1,0.1-0.2,0.2-0.3c-0.4-0.3-0.8,0-1.2-0.2c0.1-0.2,0.5-0.1,0.5-0.3c-0.3-0.2-0.9-0.2-1.3,0
		c-0.3-0.1-0.6-0.4-0.5-0.5c-0.1-0.2-0.5-0.1-0.5,0.1c-0.3-0.1,0-0.2,0.1-0.4c-0.1-0.2-0.4,0-0.6-0.1c0.1-0.2,0.4-0.2,0.6-0.2
		c-0.2-0.3-0.7-0.7-1.1-0.5c-2.9-1.2-7.2-3.3-10.7-1.8c-0.1,0.1-0.3,0.1-0.4,0.2c0,0-0.1,0-0.1,0c-0.2,0-0.2,0.1-0.4,0.1
		c-0.9,0.6-2.2,0.3-3.2,0.8c0,0-0.1,0-0.1,0c-2-0.3-4,0.8-6.2,0.9c-1,0-2,0.1-3,0.2c-0.8,0.1-2,0.1-2.7,0.5c-0.2,0-0.2-0.1-0.1-0.2
		c-0.5,0.2-1.7,0.1-1.9,0.9c-0.1,0-0.1-0.2-0.3-0.2c-0.1,0-0.1,0.1-0.1,0.2c0,0.1,0.1,0.1,0.2,0.1c-0.4,0.4-0.6-0.1-0.9-0.3
		c-0.1,0-0.1,0.1-0.2,0.1c0,0.1,0.1,0.2,0.2,0.2c-0.3,0.2-0.5,0.1-0.9,0.1c-0.1,0.3,0.3,0.2,0.3,0.3c0.2,0,0.1-0.2,0.2-0.2
		c0.2-0.1,0.1,0.2,0.2,0.3c0.3,0.1,0.3-0.1,0.5-0.1c-0.2,0.1-0.2,0.3-0.3,0.5c-0.3,0-0.2-0.4-0.5-0.5c0,0.6-0.7,0.2-1.1-0.2
		c-0.2,0.1,0.2,0.2,0,0.4c-0.2,0.2-0.3-0.1-0.5,0.1c-0.1,0,0.1-0.3,0.3-0.3c-0.2-0.3-1.2,0.2-1.4,0.2c0.1,0.2,0.2,0.3,0.3,0.5
		c-0.7-0.3-0.5,0.4-1,0.2c0,0.3,0.3,0.2,0.5,0.3c0.1-0.1,0-0.1,0.1-0.3c0.2,0.2,0.3,0.1,0.6,0.1c-0.4-0.4,0.4-0.1,0.3-0.5
		c0.3,0,0.4,0.3,0.3,0.7c0.2,0,0.2-0.2,0.5-0.2c-0.2-0.1-0.2-0.4-0.5-0.4c0-0.1,0.1-0.1,0-0.2c0-0.2,0.4-0.1,0.6-0.2
		c-0.2,0.7,0.7,0,0.8,0.3c0,0.2-0.1,0.1-0.2,0.2c0.1,0,0,0.3,0.2,0.3c0.3,0,0.2-0.2,0.2-0.4c0.3,0,0,0.3,0.2,0.3
		c-0.1,0.2-0.5,0.2-0.7,0.1c-0.1-0.2-0.1-0.2,0-0.4c-0.1,0-0.2,0.1-0.3,0.1c0,0.3,0.3,0.4,0.5,0.5c-0.1,0.2-0.3,0.3-0.4,0.2
		c-0.3,0.2,0.2,0.7,0.1,0.9c-0.1,0.1-0.2,0.2-0.5,0.2c-0.1-0.2,0-0.1,0-0.3c-0.3,0-0.5,0-0.5,0.3c-0.3-0.1-0.4,0.1-0.7,0.1
		c0-0.3,0.2,0,0.3-0.1c-0.1-0.1-0.2-0.1-0.3-0.2c0-0.1,0.3-0.1,0.2-0.2c-0.1-0.3-0.2,0-0.4,0c0-0.1,0.1-0.4-0.2-0.3c0,0-0.1,0-0.1,0
		c-0.2-0.1-0.2-0.4-0.5-0.4c-0.1,0.1,0.2,0.5,0.1,0.9c-0.1,0-0.2,0-0.3,0c0,0.2,0,0.4,0.1,0.5c0.4-0.5,0,0.5,0.6,0.3
		c-0.4,0.3-0.6-0.1-1,0.1c0-0.2,0.1-0.2,0-0.3c-0.3,0-0.2,0.3-0.5,0c-0.2,0.2-0.1,0.5-0.3,0.9c-0.2-0.1,0-0.3-0.4-0.4
		c-0.2-0.1-0.2,0.2-0.4,0.2c-0.6-0.2-0.3-1-0.7-1c0.2-0.3,0.3-0.4,0.5-0.5c-0.1-0.2-0.1-0.1-0.1-0.3c-0.3,0-0.4,0.3-0.5,0.2
		c0.1,0.5-0.1,0.3-0.3,0.4c0,0.3,0.4,0.5,0.1,0.7c-0.1,0,0.1-0.3-0.2-0.4c-0.2,0.2,0.1,0.4-0.3,0.5c0,0.5,0.1,0.6,0,0.9
		c-0.1-0.2-0.3-0.4-0.4-0.6c-0.2,0-0.1,0.2-0.3,0.2c0.1-0.4-0.5,0-0.4-0.3c0.3,0,0.2,0.1,0.5,0c-0.1-0.4-0.7-0.4-0.6-0.8
		c-0.2,0.2-0.3,0-0.4,0.2c-0.1,0-0.1-0.1-0.1-0.2c-0.1,0-0.1,0.1-0.2,0.1c0,0.4,0.4,0.4,0.6,0.5c0,0.3-0.1,0-0.2,0.1
		c-0.1,0-0.2,0-0.2,0c-0.2,0.2-0.2-0.1-0.5-0.1c-0.1,0.2,0.1,0.2-0.2,0.2c-0.3,0.7,0.7,0.7,0.7,0.2c0.4,0-0.1,0.4,0.2,0.4
		c-0.4,0.4-0.6-0.1-1.2,0.1c0-0.3,0-0.8-0.2-1c-0.3,0.2-0.1,0.7-0.2,0.9c-0.3,0.1-0.4-0.2-0.2-0.3c-0.2,0-0.3,0.2-0.6,0.2
		c0-0.1,0-0.2,0-0.3c-0.3,0-0.1,0.3-0.3,0.1c0,0.5,0.6,0.5,0.9,0.8c-0.1,0.3-0.4,0-0.5-0.1c-0.1,0.1,0.1,0.2,0,0.5
		c-0.4,0.1-0.1-0.5-0.5-0.5c-0.1,0-0.1,0.2-0.1,0.3c-0.3,0-0.5-0.2-0.6-0.4c0.1-0.1,0.1-0.1,0.2-0.2c-0.5-0.3-0.9,0.4-0.7,0.9
		c0.1,0.1,0.3,0.1,0.3,0.2c0,0-0.1,0.4,0.4,0.3c0.2-0.1-0.1-0.2,0-0.4c0.1,0.1,0.1,0.2,0.2,0.2c0,0.4-0.6,0.5-0.4,0.9
		c-0.3-0.1-0.3-0.3-0.5-0.2c-0.3-0.2,0.3-0.4-0.2-0.4c0-0.1,0.1-0.2,0.2-0.2c-0.1-0.1-0.3-0.2-0.3-0.4c-0.2,0.2-0.6,0.2-0.5-0.2
		c0.1,0,0.2,0.2,0.4,0.2c0.2-0.1-0.1-0.2,0.1-0.3c-0.2,0-0.2,0.1-0.4,0.1c0.1-0.3,0.3-0.3,0.2-0.6c-0.2,0-0.4,0.3-0.2,0.4
		c-0.2,0.1-0.4,0.2-0.5,0.2c-0.1-0.2-0.3-0.2-0.6-0.2c0.2,0.2,0.1,0.3,0.4,0.4c-0.2,0.3,0,0.3,0.2,0.4c0,0.3,0,0.5,0.2,0.6
		c-0.2,0.2-0.1,0.5-0.1,0.9c-0.2-0.1-0.4-0.5-0.2-0.7c-0.3-0.1-0.2,0.2-0.5,0.2c0-0.2,0-0.6-0.2-0.6c0.1-0.2,0.3-0.2,0.4-0.3
		c-0.2-0.1-0.2-0.3,0.1-0.3c-0.1-0.2-0.3-0.2-0.5-0.2c0-0.1,0.1-0.1,0.2-0.1c-0.2-0.3-0.7-0.1-0.6,0.3c-0.7-0.3-2,0.1-2.1,0.9
		c-0.6-0.2-1.1,0-0.9,0.5c0.5,0.1,0.7-0.7,1.1-0.2c0,0.2-0.2,0.3-0.4,0.2c0,0.2,0.4,0.1,0.4,0.2c0,0.3-0.5,0.1-0.5,0.3
		c-0.2,0-0.3-0.1-0.5-0.1c-0.2,0.1-0.3,0.2-0.2,0.5c-0.5-0.2-0.8-0.6-1.4-0.4c0,0.1,0.1,0.1,0.1,0.2c0.3,0.1,0.4-0.2,0.5,0
		c-0.2,0.2-1,0.2-1.3,0.1c-0.1,0-0.1,0.1-0.2,0.2c0,0.2,0.2,0.2,0.2,0.3c0.3-0.3,1-0.3,1.5-0.2c-0.2,0.4,0.2,0.3,0.2,0.6
		c-0.6,0.1-0.7-0.7-1.6-0.4c-0.2,0.2-0.4,0.4-0.7,0.5c0.4-0.6-0.8-0.1-0.9,0.2c0.1,0.1,0.2,0.1,0.3,0.2c-0.3,0.2-0.9,0-1,0.3
		c0,0.1,0.2,0.1,0.3,0.1c0,0.3-0.2,0-0.2,0.3c-0.7-0.3-0.5,0.3-1,0.4c-0.1,0.3,0.4,0.1,0.3,0.4c-0.5,0.1-0.8-0.2-1.3,0.2
		c0,0.2,0,0.3-0.1,0.4c-0.3-0.1-0.4,0.1-0.6,0.2c0,0.2,0.1,0.1,0.2,0.2c-0.4,0.1-0.8,0.4-1.3,0.5c0.1,0.2-0.1,0.3-0.1,0.5
		c-0.4,0.1-0.2,0.2-0.7,0.2c-0.2,0.3-0.4,0.7-0.4,0.9c0,0.2,0.4,0.1,0.5,0.2c0.1,0.4,0,0.4,0.1,0.9c-0.8,0.2-1.3-0.2-1.6,0.4
		c0,0.4,0.6,0.3,0.5,0.7c-0.7-0.3-1.5-0.1-2.3-0.2c0.3,0.3,0.5,0.1,0.6,0.3c0.4-0.1,0.9-0.2,1.3,0c0,0.2-0.2,0.3-0.2,0.4
		c-0.3-0.1-0.4-0.4-0.7-0.2c0,0.2,0.3,0.1,0.2,0.3c-0.2,0-0.2,0.2-0.5,0.2c-0.1-0.1,0-0.1,0-0.4c-0.4,0.1-0.5-0.1-0.9-0.1
		c0,0.3,0.3,0.2,0.3,0.5c-0.1,0.2-0.5,0.2-0.8,0.2c0.3,0.5,0.7,0.1,1.3,0.3c-0.1,0.3-0.7,0.1-0.9,0.3c0-0.3-0.5-0.1-0.8-0.1
		c0.1-0.3,0.3,0.1,0.3-0.2c-0.5-0.2-1.4,0.2-1.4,0.9c0.3-0.1,0.5,0,0.6,0.2c0.1,0.3-0.3,0.1-0.3,0.2c0,0.2,0.4,0,0.2,0.2
		c-0.7,0.1-1.3-0.1-1.6-0.2c-0.1,0.4-1.1,0.5-1.6,0.9c0,0.1,0.1,0.1,0.2,0.2c-0.7,0.3-1.2,0.6-1.8,1c0,0.1,0.1,0.1,0.1,0.2
		c-0.9,0.5-0.8,1.1-1.6,1.4c0.2,0.1-0.1,0.3,0.1,0.3c-1.5,0.4-2.2,2.1-3.4,3c0.2,0.2,0.2,0.3-0.1,0.4c0.1,0.2,0.3-0.1,0.5,0
		c0.1,0.3-0.5,0.1-0.5,0.1c-0.4,0.1-0.3,0.7-0.5,1c0.1,0.1,0.3,0.1,0.5,0.2c-0.3,0.1-0.6,0.3-1.1,0.3c0.1,0.4-0.1,0.6,0.2,0.9
		c0.3-0.1,0.4-0.1,0.5,0.2c0.3,0,0.3-0.4,0.6-0.3c0.1,0.3-0.1,0.7-0.1,0.9c-0.4-0.1-0.6,0-0.5,0.5c0.3,0.1,0.2-0.2,0.5-0.2
		c0.2,0.1,0.4,0.2,0.4,0.5c-0.3-0.2-0.5,0.1-0.5,0.2c0.1,0.1,0.3,0.1,0.5,0.2c-0.1,0.1-0.1,0.1-0.2,0.2c0.3,0.2,0.7,0.2,0.7,0.6
		c-0.5,0-0.7-0.1-1-0.3c-0.1,0.1-0.2,0.2-0.3,0.4c0.4,0.2,0.9-0.1,1.3,0.1c0,0.4-0.4,0.2-0.5,0.5c0.1,0.1,0.1,0.1,0.2,0.2
		c0.1-0.2,0.3-0.2,0.4-0.4c0.1,0.1,0.1,0.1,0.2,0.2c0.1-0.6,0.8-1.1,0.5-2c0.3,0,0.4-0.1,0.6-0.2c-0.1-0.1-0.2-0.1-0.2-0.2
		c0.2-0.1,0.4-0.3,0.5-0.5c0-0.1-0.1-0.2-0.2-0.2c0.1-0.1,0.1-0.2,0.2-0.3c0.2,0,0.3,0.2,0.5,0.2c0.3-0.4,0-1.5,1.1-1.3
		c0-0.3-0.1,0-0.2-0.2c0.1-0.2,0.3-0.3,0.6-0.3c-0.3,0.7,1,1,0.7,0.4c1.1-0.5,1.3-1.9,2.3-2.5c0-0.2,0-0.3-0.2-0.3
		c0.2-0.2,0.4-0.4,0.7-0.5c0-0.1,0-0.1-0.1-0.2c0.8-0.5,1.1-1.6,1.8-2.2c-0.1-0.1-0.1-0.1-0.2-0.2c0.2,0,0.2-0.2,0.2-0.5
		c0.2-0.2,0.2,0,0.3,0.1c0.2,0-0.1-0.2,0.1-0.3c0.3-0.1,0.5,0.1,0.8-0.1c-0.2-0.2-0.4-0.1-0.7-0.1c-0.1-0.1,0-0.2-0.2-0.2
		c0-0.2,0.3-0.1,0.5-0.2c0-0.1-0.1-0.2-0.1-0.3c0.2,0.2,0.6,0.1,0.8,0c-0.1-0.1-0.2-0.2-0.4-0.2c0.2-0.2,0.8,0.2,0.9-0.2
		c-0.1-0.2-0.3-0.2-0.5-0.2c0.1-0.7,1-0.2,1.4-0.4c0-0.3-0.5-0.2-0.6-0.4c0.5-0.6,1.3-0.4,1.3-1c0.2,0,0.4,0,0.5-0.1
		c0-0.1-0.1-0.2-0.3-0.2c0.6-0.8,1.5-0.6,2.3-0.7c-0.1-0.4-0.3-0.7-0.7-0.7c0-0.1,0.1-0.2,0.1-0.3c0.3,0.2,0.6,0,0.6,0.5
		c0.2-0.1,0.2,0.1,0.4,0.1c0.2-0.4,1-0.2,1.3-0.5c-0.2-0.4-1.8,0.4-1.7-0.6c0.8,0.1,1.5,0.4,2.4,0.2c-0.2-0.2-0.4-0.4-0.6-0.6
		c-0.5-0.1-0.7,0.4-1,0.2c0-0.2,0.1-0.1,0.2-0.2c-0.8,0.4-0.9-0.4-1.6-0.5c0.3-0.3,1.1,0.3,1.6,0.4c0.6-0.2,1.1,0,1.4,0.4
		c0.5-0.3,1.8-0.3,1.6-1.1c0.6,0.1,1.1-0.2,0.8-0.6c1.2,0.2,2-0.6,3-1.1c0,0,0.1,0,0.1-0.1c0.1,0,0.1-0.1,0.2-0.1c0,0,0.1,0,0.1,0
		c0-0.2,0.3-0.2,0.4-0.4c-0.2-0.2-0.3-0.6-0.2-0.9c0.1,0,0.6,0.6,0.2,0.6c0.2,0.3,0.9-0.1,0.9-0.5c0.2,0,0.3,0,0.5,0
		c-0.1-0.4-0.7,0.1-0.5-0.5c-0.1,0-0.2,0-0.3,0c-0.1,0.1-0.1,0.2-0.2,0.3c-0.5,0-0.7-0.3-0.8-0.4c-0.2-0.1,0.1-0.3,0.1-0.4
		c0.5,0,0.9,0.3,1.4,0c0.1,0.1,0,0.2,0,0.4c0.5-0.1,0.5-0.2,0.9-0.1c-0.3,0.1-0.4,0.3-0.7,0.3c0.7,0.4,1.5-0.5,2-0.9
		c0,0,0.1,0,0.1,0c0,0,0.1,0,0.1,0c0-0.1,0.1-0.1,0.2-0.2c-0.3-0.2-0.4-0.3-0.7-0.3c0.1-0.3,0.8-0.1,0.9-0.4
		c-0.4-0.1-0.2-0.4-0.5-0.5c0-0.4,0.6-0.2,0.9-0.2c-0.1,0.3-0.2,0.2,0.1,0.3c0,0.2-0.1-0.1-0.2,0.1c0.3,0.3,0.6,0.4,1.2,0.3
		c-0.5-0.2,0-0.5,0.5-0.3c0.1-0.1,0.2-0.5,0-0.5c0.3,0.1,0.7-0.2,1.1-0.2c-0.3,0.2-0.2,0.4-0.7,0.4c0.1,0.1,0.3,0.1,0.3,0.2
		c0.8-0.6,2.1-0.6,2.6-1.7c-0.1-0.1-0.5-0.1-0.5-0.2c0.2-0.2,0.3,0.2,0.7,0.1c0.2,0-0.1-0.2-0.2-0.3c0.3-0.2,0.4,0.3,0.9,0.2
		c-0.1-0.3-0.4-0.1-0.2-0.5c0.2,0.1,0.1,0.4,0.5,0.3c-0.2,0.9,1.3,0.2,1.8-0.2c-0.2-0.4-0.6,0.1-0.8-0.1c0-0.3,0.3-0.3,0.1-0.6
		c0.3,0,0.3,0.3,0.7,0.2c0,0.1-0.2,0.1-0.2,0.2c0,0.1,0.2,0.1,0.3,0.1c0.1-0.1,0.1-0.3,0.2-0.4c0.1,0.4,0.9,0,0.5,0.2
		c0,0.2,0.5-0.1,0.4,0.2c0.4,0,0.2-0.4,0.5-0.4c0-0.3-0.5,0-0.4-0.3c0.3-0.1,0.5,0.1,0.8-0.1c0-0.1-0.1-0.1-0.1-0.2
		c-0.1,0-0.1,0.2-0.2,0.2c0-0.2,0-0.3,0-0.5c0.3,0,0.6,0.2,0.6-0.2c0.9,0.3,1.8-0.6,2.4-0.2c0,0.1-0.1,0.1-0.2,0.1
		c0,0.2,0.2,0.2,0.1,0.3c0.2-0.1,0.3-0.2,0.7-0.2c0,0.1-0.3,0.1-0.2,0.2c0.6,0.1,0.7-0.5,1.2-0.3c0.1-0.2-0.2-0.2-0.2-0.2
		c1.1,0.4,2.8,0.1,4.1-0.3c0,0,0.1,0,0.1,0c1.4-0.1,2.9-0.5,4.2-0.2c1.1-0.7,4.2,0,6.1-0.2c-0.4-0.1-0.8-0.1-1.2-0.1
		c0.4,0,0.8,0.1,1.2,0.1c0,0,0.1,0,0.1,0c0,0,0,0.1,0,0.1c1.5-0.2,2.5,0.2,3.8,0.3c0,0,0.1,0,0.1,0c0,0,0,0.1,0,0.1
		c0.1,0,0.1,0,0.2,0c1.1-0.1,2.3,0.2,3.1-0.1c1.5,0.5,3.4,1,5.2,0.9c0.2,0,0.4,0,0.6,0c0.1,0.1,0.2,0.1,0.4,0.1
		c0,0.1,0.2,0.1,0.3,0.1c0.2,0.2,0.5,0.2,0.7,0.4c1.3,0.3,2.3,0.9,3.3,1.4c0.6-0.1,1.9-0.1,2.2,0c0.1,0,0,0.1,0,0.2
		c0.7,0.5,2.5-0.2,3.3,0.3c0.3,0.2,0.5,0.7,0.8,0.9c0.9,0.1,1.3,0.5,1.9,0.9c0.5-0.2,0.8,0.3,1.3,0.4c0,0.1-0.1,0.1-0.2,0.1
		c0.5,0.7,1.5,0.9,2.5,1.2c-0.4,0.6,1.6,0.6,2.2,0.8c-0.1,0.5,0.6,0.3,0.6,0.7c0.1,0,0.2-0.1,0.2-0.2c0.2,0.5,2.3,0.7,2.1,1.6
		c0.3,0.3,2.1,0.6,2.7,0.5 M196.1,40.1c0,0.2,0,0.4,0,0.6c-0.1,0-0.2,0-0.3,0c0-0.4,0.4-0.6-0.2-0.6c0.1-0.2,0.5-0.1,0.6-0.2
		c-0.1-0.2-0.3,0-0.5,0c-0.1-0.2-0.1-0.6,0.3-0.5 M111.3,50c-0.2,0.3-0.4,0.2-0.8,0.1C110.6,49.9,111.1,50,111.3,50z M110.5,50.3
		c0.3,0.1,0.1,0.7,0.5,0.7c-0.2,0.3-0.4,0-0.8,0c0-0.3,0-0.5-0.2-0.5C110,50.2,110.5,50.5,110.5,50.3z M102.7,58.5
		c0.2,0,0.3,0.1,0.5,0.2c-0.1,0.3-0.1,0.7-0.5,0.7C102.9,59,102.6,58.8,102.7,58.5z M105.9,55.5c0.2,0.1,0.5,0.1,0.5,0.4
		c-0.2,0-0.2,0.1-0.3,0.2C106,56,106,55.7,105.9,55.5z M105.7,55.3c0,0.3-0.3,0.1-0.2,0.5c-0.3-0.1,0-0.2-0.2-0.5
		C105.4,55.3,105.6,55.3,105.7,55.3z M107.2,54.9c-0.2,0-0.5,0-0.5-0.2c0.1,0.1,0.4,0,0.3-0.3c0.3,0,0.5,0.1,0.5,0.3
		C107.3,54.5,107.1,54.6,107.2,54.9z M104.3,55.9c0-0.2,0.3,0,0.5-0.1c0,0.1,0,0.1,0.1,0.2C104.7,56.3,104.4,56,104.3,55.9z
		 M104.8,56.4c-0.1,0.2-0.5,0.2-0.5-0.2C104.6,56.2,104.6,56.3,104.8,56.4z M110.1,51.3c0.2,0,0.5-0.1,0.5,0.1
		c0,0.3-0.5,0.1-0.5,0.3C109.9,51.7,110,51.3,110.1,51.3z M108,52.5c0.1,0.2-0.1,0.2-0.2,0.3c-0.1-0.2-0.3-0.1-0.4-0.5
		C107.7,52.3,107.6,52.6,108,52.5z M105.9,54.4c-0.4,0-0.8,0-0.9-0.3C105.5,54.1,105.8,54,105.9,54.4z M105.2,55
		c0.1,0.2-0.6-0.1-0.3,0.5c-0.4-0.1-0.7-0.1-0.8-0.6C104.6,54.8,104.7,55.1,105.2,55z M102.6,57.3c-0.1,0.2,0.2,0.2,0.2,0.2
		c-0.3,0.2,0.1,0.5-0.3,0.5c0.1-0.5,0-0.5-0.3-0.7C102.2,57.2,102.5,57.3,102.6,57.3z M101.4,58.9c0-0.1,0-0.3,0.2-0.4
		c0.3,0,0.2,0.3,0.4,0.4C101.8,59.1,101.6,59,101.4,58.9z M102.3,60.1c0.1,0,0.2,0,0.3,0C102.6,60.4,102.2,60.4,102.3,60.1z
		 M106.8,56.8c0-0.5,0.3-0.1,0.6-0.2C107.3,56.8,107.1,56.9,106.8,56.8z M107.1,55.7c0.1-0.2,0.4,0,0.5,0.1c0,0.3-0.3,0.4-0.2,0.7
		C106.9,56.5,107.3,56,107.1,55.7z M109.1,56c-0.4,0-0.4,0.2-0.9,0.2c0-0.2-0.1-0.3-0.2-0.4c0.2-0.3,0.8-0.1,1-0.4
		C109.6,55.5,108.8,55.9,109.1,56z M110,54.9c-0.3,0-0.3-0.3-0.5-0.3C109.2,54.5,110.2,54.5,110,54.9z M110,53.9
		c0,0.1,0.1,0.2,0.2,0.2c-0.2,0.4-0.6-0.1-0.7-0.3c0.5,0.1,0.5,0,0.9-0.1C110.4,53.9,110.2,53.9,110,53.9z M111.1,51.1
		c0-0.1,0.7-0.1,0.4-0.2c0-0.1,0.2-0.1,0.3-0.1C111.6,50.9,111.4,51.2,111.1,51.1z M111.6,50.2c0.1,0.2-0.1,0.3,0.2,0.3
		c0,0.2-0.4,0.1-0.5,0c0-0.4,0.5-0.3,0.3-0.6c0.2,0,0.3,0,0.5,0c0,0.1-0.2,0.1-0.1,0.2C112,50.2,111.8,50.2,111.6,50.2z M112.8,48.9
		c0,0.3,0.4,0.2,0.4,0.5c-0.5-0.2-0.5-0.6-1.2-0.5c0.4-0.4,0.7-0.2,1.3-0.3C113.2,48.8,112.9,48.7,112.8,48.9z M113.4,48.5
		c0.3-0.1,0.4,0.1,0.7,0.1c-0.1,0.2,0.1,0.2,0.1,0.4c-0.2,0-0.4,0-0.6,0C113.6,48.6,113.3,48.8,113.4,48.5z M116.9,44.7
		c0-0.1,0-0.3,0-0.4c0.1,0,0.3,0,0.4,0c-0.1,0.2,0.2,0.2,0.2,0.4C117.2,44.5,117.2,44.6,116.9,44.7z M137.3,35.4
		c0.2,0,0.2,0.1,0.4,0.1c-0.2,0.3-0.3,0.3-0.5,0.3C137,35.5,137.4,35.7,137.3,35.4z M135.5,36C135.5,36,135.5,36,135.5,36
		C135.5,36,135.5,36,135.5,36z M135.4,35.9c0,0.1-0.1,0.1-0.1,0.2C135.3,36,135.4,35.9,135.4,35.9z M135.3,36.1L135.3,36.1
		C135.3,36.1,135.3,36.1,135.3,36.1C135.3,36.1,135.3,36.1,135.3,36.1z M135.5,36C135.5,36,135.5,36,135.5,36
		C135.5,36,135.5,36,135.5,36z M135.4,35.9c0-0.1,0.1-0.2,0.1-0.3C135.5,35.7,135.4,35.8,135.4,35.9z M135.2,36.3
		C135.2,36.3,135.2,36.3,135.2,36.3C135.2,36.3,135.2,36.3,135.2,36.3z M135.3,36.2C135.3,36.2,135.2,36.2,135.3,36.2
		C135.2,36.2,135.3,36.2,135.3,36.2z M135.1,36.4c0,0-0.1,0.1-0.1,0.1C135,36.4,135.1,36.4,135.1,36.4z M134.9,36.5
		c0-0.3-0.4-0.3-0.2,0c-0.3,0.2-0.6-0.2-0.9-0.2C134,35.8,135,35.8,134.9,36.5z M133.6,36.7c-0.1,0.2-0.5,0-0.5-0.2
		C133.3,36.5,133.4,36.7,133.6,36.7z M132.3,37c0.1,0.1,0,0.1,0.1,0.4c-0.2,0-0.2,0.1-0.3,0.1c0.1,0.1,0.2,0.1,0.2,0.2
		c-0.1,0-0.2,0-0.2,0C132,37.3,132.2,37.2,132.3,37z M131.6,38.2c-0.3,0-0.4-0.2-0.5-0.4C131.4,37.7,131.7,37.8,131.6,38.2z
		 M130.4,37.6c-0.1,0-0.1,0-0.2,0.1c-0.3-0.1,0.3-0.4-0.2-0.5C130.2,36.9,130.4,37.3,130.4,37.6z M127.8,38.7c0.3,0,0.4,0,0.6,0.1
		c0,0.2-0.2,0.4,0.1,0.5c0,0.4-0.4,0-0.5,0C128.2,38.9,127.9,38.9,127.8,38.7z M128.4,38.6c-0.2,0-0.3,0.2-0.5,0
		C128,38.3,128.4,38.3,128.4,38.6z M129.4,38.2C129.6,38.2,129.4,38.3,129.4,38.2c-0.1,0.2,0,0.3,0.1,0.4c-0.1,0.1-0.2,0.1-0.3,0.2
		C129.2,38.5,129.3,38.2,129.4,38.2z M129,36.6c0.1,0,0.1,0.2,0.1,0.3c-0.3,0.1-0.4-0.1-0.5-0.2C128.5,36.6,129,37,129,36.6z
		 M127.7,36.9C127.8,36.9,127.8,37,127.7,36.9c0.1,0.3,0.2,0,0.4,0.1c0.1,0.1,0,0.1,0,0.2c0.4-0.1,0.3-0.2,0.6,0
		c0,0.1-0.1,0.2-0.1,0.3c-0.1,0-0.1-0.1-0.2-0.1c-0.1,0.3,0.2,0.1,0.4,0.2c-0.1,0.2-0.2,0.3-0.1,0.5c-0.1,0-0.2,0.1-0.2,0.2
		c-0.3-0.1-0.4-0.5-0.7-0.2c-0.1-0.1-0.1-0.2-0.1-0.4c0.3,0.1,0.4,0,0.7,0.2c0-0.4-0.4-0.3-0.8-0.3c0-0.3,0.1,0,0.3-0.2
		c0-0.3-0.1-0.2-0.3-0.2c0-0.1,0-0.1-0.1-0.2C127.6,37,127.7,37,127.7,36.9z M125.9,40.4c-0.2,0-0.3,0-0.5,0
		c0.1-0.2,0.3-0.3,0.5-0.3C125.9,40.1,125.9,40.3,125.9,40.4z M125.9,39.5c0,0.1,0,0.2,0,0.3c-0.4,0-0.3-0.4-0.7-0.3
		c0-0.1,0.1-0.1,0.2-0.2C125.5,39.3,125.6,39.5,125.9,39.5z M123.7,40.8c0,0.2-0.2,0.2-0.3,0.2c-0.1-0.1-0.1-0.2-0.1-0.3
		C123.4,40.8,123.5,40.9,123.7,40.8z M124.1,41.4c-0.4-0.1-0.5,0.2-0.8,0.1C123.3,41.1,124.1,40.9,124.1,41.4z M123,40.1
		c0,0.2-0.3,0.2-0.4,0.2C122.5,40.1,122.7,40.1,123,40.1z M122.6,41.1c-0.1,0.6-0.7,0-1.2,0.2C121.5,40.6,122,41.5,122.6,41.1z
		 M120.1,42.5c0.1,0,0.5-0.3,0.5,0.1C120.4,42.5,120.1,42.9,120.1,42.5z M119.8,42.6c0,0.2-0.2,0.3-0.2,0.4c-0.1,0-0.2-0.2-0.4-0.2
		C119.2,42.6,119.6,42.5,119.8,42.6z M118.8,43.6c-0.2-0.1-0.6,0.2-0.7-0.2C118.3,43.3,119,43.2,118.8,43.6z M118.2,43.6
		c-0.1,0.2-0.5,0.1-0.6,0C117.7,43.5,117.9,43.6,118.2,43.6z M118.1,44.1c0.4-0.1,0.8-0.4,1.2-0.3c-0.3,0.1-0.7,0.2-0.7,0.6
		c-0.1,0-0.3,0-0.4,0C118.3,44.4,118.4,44,118.1,44.1z M120.5,45c0.3-0.3,0.4,0.3,0.5,0.5C120.6,45.3,120.8,45.1,120.5,45z
		 M120.9,41.8c0.3-0.3,0.3,0.4,0.7,0.3c-0.1,0.2-0.6,0.1-0.7,0C120.9,42,121.2,41.9,120.9,41.8z M122,43.9c0.2,0,0.3,0,0.4,0.1
		C122.4,44.2,121.9,44.2,122,43.9z M123.4,43.6c0,0.1,0.1,0.2,0.1,0.3c-0.3,0-0.3-0.2-0.4-0.5c0.2,0,0.4,0,0.5,0
		C123.6,43.6,123.5,43.6,123.4,43.6z M126.8,39.9c0-0.2,0.2-0.2,0.4-0.2C127.2,40,127,39.9,126.8,39.9z M126.8,39.5
		c0.3-0.4,0.8,0.1,1.2,0.1C127.7,40,127.3,39.3,126.8,39.5z M128.1,40.8c0.4-0.3-0.3-0.2-0.5-0.2c-0.1-0.2-0.2-0.4-0.1-0.5
		c0.4,0.2,0.8,0.3,1,0.7C128.4,40.8,128.2,40.8,128.1,40.8z M129.3,39.9c-0.1-0.3-0.4,0-0.5-0.4c0.3,0,0.2-0.1,0.5,0
		C129.3,39.6,129.3,39.8,129.3,39.9z M130.3,37.9c0.1,0,0.1,0,0.2,0c0.2,0.1,0.3,0.1,0.5,0.2c0,0.1,0,0.3,0,0.4
		C130.7,38.3,130.3,38.4,130.3,37.9z M132.3,38.6c0-0.1,0.3-0.1,0.2-0.2c0.1,0,0.1,0.2,0.4,0.2C132.9,38.7,132.5,38.6,132.3,38.6z
		 M134.4,37.6c-0.3,0.1-0.1-0.3-0.3-0.3C134.2,37.1,134.4,37.4,134.4,37.6z M137.5,37.3c-0.1-0.1-0.2-0.1-0.4-0.1
		c0.1-0.2,0.2-0.4,0.5-0.5C137.7,37.1,137.5,37.1,137.5,37.3z M140.5,34.4c0-0.1,0-0.2,0-0.2c0.2,0,0.1-0.6,0.5-0.2
		c0.1,0.2,0.2,0.1,0.1,0.4c0,0-0.3-0.2-0.3,0c0.1,0,0.3,0.2,0.1,0.2C140.6,34.6,140.5,34.5,140.5,34.4z M141.9,34.9
		c0-0.1,0-0.2,0-0.3c0.4-0.1,0.3,0.3,0.5,0.3C142.3,35.1,142,34.9,141.9,34.9z M151.4,30.2C151.4,30.2,151.4,30.2,151.4,30.2
		C151.4,30.2,151.4,30.2,151.4,30.2z M159.7,28.8L159.7,28.8c-0.2,0.4-0.7,0.3-1.3,0.3C159,29.1,159.5,29.2,159.7,28.8z M192.2,41.2
		c-0.2-0.1-0.2,0.1-0.4,0.1c0.1-0.1,0.1-0.3-0.1-0.3c0.1-0.2,0.4-0.2,0.6-0.1C192.4,41,192.2,41,192.2,41.2z M148.3,34.2
		C148.2,34.2,148.2,34.2,148.3,34.2C148.2,34.2,148.2,34.2,148.3,34.2z M148.2,34.2C148.2,34.1,148.2,34.1,148.2,34.2
		C148.2,34.1,148.2,34.1,148.2,34.2z M148.4,32.2c0.2-0.1,0.5,0,0.6,0.1c0,0.3-0.4,0.1-0.5,0.2C148.5,32.4,148.4,32.4,148.4,32.2z
		 M148.6,31.8c0.1-0.1,0.8-0.1,0.9,0.2C149.1,31.9,148.9,31.9,148.6,31.8z M148.8,31.5c0.1-0.1,0.2-0.2,0.5-0.2
		C149.3,31.7,149,31.6,148.8,31.5z M160.6,28.9c0.1,0,0.1,0,0.2,0C160.7,28.9,160.7,28.9,160.6,28.9z M156.7,30.7
		c0.1-0.2,0.2-0.3,0.5-0.2C157.2,30.9,156.9,30.8,156.7,30.7z M154.4,32c-0.1-0.1-0.1-0.3-0.4-0.2c0.6-0.2,1-0.2,1.3-0.6
		c-0.1-0.2-0.2-0.1-0.1-0.4c0.3-0.1,0.7,0,0.7-0.4c0.4,0,0.5,0.3,0.6,0.5c0.1,0.3-0.3,0.1-0.3,0.3c0,0.3,0.2,0.3,0.4,0.4
		C155.9,31.7,155.1,32.1,154.4,32z M150.1,33c0.1-0.1,0.3-0.2,0.5-0.2C150.6,33.1,150.3,33,150.1,33z M150.3,31.7
		c0.1,0.2,0.2,0.4,0.2,0.6c-0.1,0-0.1,0-0.2,0.1c-0.2,0,0-0.4-0.3-0.2c-0.2,0-0.1-0.4,0.1-0.2c-0.1-0.2-0.2-0.2-0.4-0.2
		C149.9,31.6,150,31.7,150.3,31.7z M150.7,34.1C150.7,34.1,150.7,34.1,150.7,34.1C150.7,34.1,150.7,34.1,150.7,34.1z M150.9,33.9
		C150.9,33.9,150.9,33.9,150.9,33.9C150.9,33.9,150.9,33.9,150.9,33.9z M150.8,34C150.8,34,150.8,34,150.8,34
		C150.8,34,150.8,34,150.8,34z M150.7,34C150.7,34,150.7,34,150.7,34C150.7,34,150.7,34,150.7,34z M151.1,34
		C151,33.9,151,33.9,151.1,34C151,33.9,151,33.9,151.1,34z M188.8,35.5c-0.2-0.2-0.3-0.3-0.7-0.3C188.5,35.2,188.6,35.4,188.8,35.5z
		 M190.2,35c-0.1,0-0.2,0-0.3,0C190,35,190.1,34.9,190.2,35z M192.2,40.5c-0.2,0-0.3,0-0.3-0.2C192.1,40.3,192.3,40.3,192.2,40.5z
		 M184.1,35.8c0.1,0,0.1,0.1,0.2,0.1c0,0.2-0.1,0.3-0.4,0.2C183.9,35.9,184.2,36.1,184.1,35.8z M184.7,36.4c0,0.1,0,0.1,0.1,0.2
		c-0.1,0.1-0.4-0.1-0.6-0.1C184.2,36.3,184.6,36.4,184.7,36.4z M184.4,35.6c-0.1,0-0.1,0-0.2,0.1C184.3,35.6,184.4,35.6,184.4,35.6z
		 M184.1,35.7c0,0,0.1,0,0.1,0C184.2,35.7,184.1,35.7,184.1,35.7z M183.9,35.8c0,0,0.1-0.1,0.1-0.1C184,35.8,184,35.8,183.9,35.8z
		 M183.5,36c0.1,0,0.2,0,0.2-0.1C183.7,35.9,183.6,36,183.5,36z M183.5,35.8c0.1,0,0.1,0,0.1,0C183.6,35.8,183.6,35.8,183.5,35.8z
		 M183.8,35.9L183.8,35.9L183.8,35.9L183.8,35.9z M183.9,35.8C183.9,35.8,183.9,35.7,183.9,35.8C183.9,35.7,183.9,35.8,183.9,35.8z
		 M183.9,35.7C183.9,35.6,183.9,35.6,183.9,35.7C183.9,35.6,183.9,35.6,183.9,35.7z M183.7,35.5c0,0,0.1,0,0.1,0
		C183.8,35.5,183.8,35.5,183.7,35.5z M183.5,36c-0.1,0-0.2,0-0.3,0C183.3,36,183.4,36,183.5,36z M190.4,38.3c0.3,0,0.5,0,0.5,0.3
		c-0.3-0.1-0.4,0.2-0.6,0C190.3,38.5,190.5,38.6,190.4,38.3z M188.7,36.5C188.7,36.5,188.7,36.5,188.7,36.5
		C188.7,36.5,188.7,36.5,188.7,36.5z M188.9,36.5C188.9,36.5,188.9,36.5,188.9,36.5C188.9,36.5,188.9,36.5,188.9,36.5z M188.5,36.5
		C188.6,36.5,188.6,36.5,188.5,36.5C188.6,36.5,188.6,36.5,188.5,36.5z M188.5,36.5c-0.1,0-0.1,0.1-0.2,0.1
		C188.3,36.6,188.4,36.5,188.5,36.5z M188.2,36.8c0,0,0.1-0.1,0.1-0.1C188.2,36.7,188.2,36.7,188.2,36.8z M187.9,37.4
		c0-0.1,0-0.2,0.1-0.3C188,37.2,188,37.3,187.9,37.4z M188,37c0-0.1,0.1-0.2,0.1-0.3C188.1,36.8,188.1,36.9,188,37z M188.9,38.4
		c0-0.1,0.1-0.2,0.1-0.3c0.2,0,0.2,0.2,0.3,0.2C189.3,38.5,189,38.4,188.9,38.4z M190.1,38c-0.2,0-0.3,0-0.4-0.1
		c0-0.1,0.1-0.2,0.1-0.3C190.1,37.6,190.1,37.8,190.1,38z M191.5,36.8c0,0.1,0,0.3,0,0.4c-0.1,0-0.2,0-0.3,0
		C191.4,37.1,191.3,36.8,191.5,36.8z M189,37.5c0-0.2,0.1-0.2,0.1-0.3c0.1,0,0.2,0.1,0.3,0.2C189.3,37.5,189.2,37.6,189,37.5z
		 M191.2,39.2c0.3,0,0.2,0.4-0.2,0.3C191,39.4,191.1,39.3,191.2,39.2z M191.2,38.8c0-0.3,0.1-0.5,0.5-0.4c0,0.2,0.2,0.3,0.3,0.4
		C191.8,38.9,191.3,38.9,191.2,38.8z M192.2,39.3c-0.2,0.2-0.2,0.5-0.5,0.5C191.7,39.5,191.8,39.2,192.2,39.3z M188.1,35.3
		L188.1,35.3c0.1,0.1,0.3,0.2,0.5,0.3C188.5,35.5,188.3,35.4,188.1,35.3z M188.4,35.1C188.4,35.1,188.4,35.1,188.4,35.1
		S188.4,35.1,188.4,35.1z M188.1,35.2L188.1,35.2c0,0-0.1-0.1-0.1-0.1C188,35.2,188.1,35.2,188.1,35.2z M186.6,36.1
		c0.1,0.1,0.3,0,0.2,0.2c-0.3,0-0.8,0-0.8-0.3C186.3,36,186.6,36.5,186.6,36.1z M192.9,40.6c0-0.3,0.3,0.1,0.2-0.5
		c0.3-0.1,0.2,0.2,0.5,0.2C193.7,40.6,193.2,40.5,192.9,40.6z M192.8,39.6c0.4-0.1,0.8-0.4,1.3-0.2C194,39.8,193,40,192.8,39.6z
		 M194,38.2c0,0.2-0.4,0.2-0.5,0.1c0.1-0.1,0.3-0.1,0.4-0.2C193.9,38.2,194,38.2,194,38.2z M192.5,37.9c0.4-0.2,0.5,0.1,0.6,0.4
		C192.9,38.5,192.4,38.3,192.5,37.9z M190.1,35.1C190.1,35,190.1,35,190.1,35.1C190.1,35,190.1,35,190.1,35.1z M190,35.1
		C190,35.1,190,35.1,190,35.1C190,35.1,190,35.1,190,35.1z M188.6,35.6c0.1,0,0.1,0.1,0.2,0.2C188.8,35.7,188.7,35.6,188.6,35.6z
		 M188.4,35.2C188.5,35.2,188.5,35.2,188.4,35.2C188.5,35.2,188.5,35.2,188.4,35.2z M182.5,34.7c0,0.1-0.1,0.2-0.1,0.3
		c-0.3,0.1-0.3-0.2-0.5-0.2C182,34.6,182.3,34.8,182.5,34.7z M181.8,34c0.2-0.3,0.3,0.2,0.4,0.2C182,34.5,181.9,34,181.8,34z
		 M190.2,39.7c-0.1,0.3-0.2,0.2-0.2,0.5c-0.3-0.1-0.6-0.1-0.7-0.3C189.4,39.2,189.8,39.7,190.2,39.7z M194.9,40.3
		c0.2,0.1,0.4,0.4,0.2,0.6c-0.1-0.2-0.3-0.4-0.7-0.3C194.6,40.5,194.7,40.3,194.9,40.3z M190.8,35.4c-0.1-0.1-0.1-0.2,0-0.3h0
		C190.7,35.2,190.8,35.4,190.8,35.4z M190.2,35c0.2,0,0.4,0.1,0.6,0.1C190.6,35.2,190.4,35,190.2,35z M190.3,35c0.1,0,0.1,0,0.2,0
		C190.4,35,190.4,35,190.3,35z M190.5,35c0,0,0.1,0,0.1,0C190.6,35,190.6,35,190.5,35z M184.5,34C184.6,34,184.6,34.1,184.5,34
		c0,0.3,0.2,0.3,0.2,0.5c-0.1,0-0.3,0-0.4,0c0-0.1-0.1-0.2-0.1-0.3C184.3,34.2,184.5,34.2,184.5,34z M184.4,35.1
		c-0.2,0.2-0.4-0.3-0.2-0.5C184.7,34.6,184.3,35.1,184.4,35.1z M160.9,28.9c0.1,0,0.1,0,0.2,0C161,28.9,160.9,28.9,160.9,28.9z
		 M160.7,28.6C160.7,28.6,160.8,28.6,160.7,28.6C160.8,28.6,160.7,28.6,160.7,28.6z M147.9,34.6c0,0-0.1,0-0.1,0
		C147.9,34.6,147.9,34.6,147.9,34.6z M148.3,34.6C148.3,34.6,148.3,34.6,148.3,34.6L148.3,34.6C148.3,34.6,148.3,34.6,148.3,34.6z
		 M148.3,34.2C148.3,34.2,148.3,34.2,148.3,34.2C148.3,34.2,148.3,34.2,148.3,34.2z M148.4,34.5C148.4,34.5,148.4,34.6,148.4,34.5
		C148.4,34.6,148.4,34.5,148.4,34.5z M150.7,34.2C150.7,34.2,150.7,34.2,150.7,34.2L150.7,34.2C150.7,34.2,150.7,34.2,150.7,34.2z
		 M151.3,34.1c-0.1,0-0.2,0-0.3,0.1C151.1,34.1,151.2,34.1,151.3,34.1z M151,34.1c-0.1,0-0.2,0.1-0.3,0.1h0
		C150.9,34.2,151,34.2,151,34.1z M151.6,34.1c-0.1,0-0.2,0-0.3,0C151.4,34.1,151.5,34.1,151.6,34.1z M154.1,34.1c-0.3,0-0.5,0-0.8,0
		C153.5,34.1,153.8,34.1,154.1,34.1z M156.3,34c-0.2,0-0.5,0-0.7,0C155.8,34,156.1,34,156.3,34z M196.2,41.5
		c0.1,0.3-0.3,0.1-0.2,0.3c-0.2-0.1-0.4-0.1-0.4-0.4C195.9,41.3,196,41.5,196.2,41.5z M195.1,38.6c0,0.2-0.3,0.2-0.4,0.3
		c0,0.2,0.2,0.2,0.2,0.5c0.1,0,0.1,0,0.2-0.1c0.1,0,0.2,0,0.2,0c0.1,0.1,0.3,0.1,0.2,0.3c-0.3-0.2-0.6,0.1-0.9,0
		C194.2,39,194.6,38.6,195.1,38.6z M194.9,37.9c-0.1,0.2-0.2,0.4-0.5,0.4C194.3,37.9,194.6,37.6,194.9,37.9z M191.1,35.3
		C191.1,35.3,191,35.3,191.1,35.3C191,35.3,191.1,35.3,191.1,35.3z M190.8,35.1c0,0-0.1,0-0.1-0.1C190.8,35.1,190.8,35.1,190.8,35.1
		z M186.5,34.6c0,0.2-0.1,0.2,0.1,0.3c-0.1,0.1-0.5,0.2-0.3,0.3c-0.2,0.2-0.3-0.3-0.6-0.2c0.4-0.2,0.2-0.5,0.3-0.8
		C186.1,34.4,186.3,34.5,186.5,34.6z M184.2,33.8c0,0.2-0.5,0.4-0.5,0C183.9,33.8,184.1,33.6,184.2,33.8z M178.7,33.1
		c-0.3,0.1-0.3-0.2-0.5-0.2C178.4,32.7,178.8,32.8,178.7,33.1z M162,28.2c0,0,0.1,0,0.1-0.1C162.1,28.2,162.1,28.2,162,28.2z
		 M161.4,28.4C161.4,28.4,161.4,28.4,161.4,28.4C161.4,28.4,161.4,28.4,161.4,28.4z M157.8,29c0.1,0,0.2,0,0.3,0
		C158,29,157.9,29,157.8,29z M157.6,29.1c-0.2,0-0.4,0.1-0.5,0.1C157.2,29.1,157.4,29.1,157.6,29.1z M153,29.9c-0.4,0-0.7,0-1.1,0.1
		h0C152.2,30,152.6,30,153,29.9z M151.8,30L151.8,30L151.8,30c0,0.2-0.2,0.1-0.3,0.1C151.5,30.1,151.8,30.2,151.8,30
		c-0.8,0.1-1.6,0.1-2.4,0.2C150.2,30.1,151,30.1,151.8,30z M151.4,30.2C151.4,30.2,151.4,30.1,151.4,30.2
		C151.4,30.1,151.4,30.2,151.4,30.2z M145.9,30.9c0,0.2-0.2,0.2-0.2,0.5c-0.5,0,0.1-0.3-0.2-0.4C145.5,30.8,145.8,30.8,145.9,30.9z
		 M145.5,31.8c-0.1,0.2-0.4,0.2-0.6,0.2c0,0.3,0.3,0.2,0.4,0.3c0,0.2-0.3,0.2-0.5,0.2c0,0.1,0.1,0.2,0.1,0.3c0.2,0,0.2-0.2,0.4-0.2
		c0.3,0.2,0,0.4,0.2,0.7c-0.3,0-0.3-0.1-0.6-0.1c-0.1,0.3,0.3,0.1,0.2,0.3c-0.5,0-0.6-0.3-0.9-0.5c0.3,0,0.4-0.1,0.7,0
		c0.2-0.2-0.2-0.4-0.3-0.5c0.1-0.3,0.4-0.4,0.4-0.8C145.2,31.7,145.3,31.8,145.5,31.8z M143.3,33.6c0.2-0.2,0.5,0,0.6-0.3
		c0.1,0,0.3,0.3,0,0.2c0,0.2,0.1,0.2,0,0.4C143.8,33.7,143.7,33.5,143.3,33.6z M144.4,34.5c0.1,0,0.3,0,0.4,0
		C144.9,34.7,144.2,34.7,144.4,34.5z M144.4,34.3c0.2-0.1,0.2-0.3,0.2-0.5c0.3-0.1,0.3,0.1,0.5,0.2C145,34.1,144.9,34.3,144.4,34.3z
		 M147.4,34.7c-0.1,0-0.1,0-0.2-0.1C147.3,34.6,147.3,34.6,147.4,34.7z M147.5,34.7c0.1,0,0.1,0,0.2,0
		C147.6,34.7,147.5,34.7,147.5,34.7z M151.9,34.2c0.4,0,0.7,0,1.1-0.1C152.6,34.1,152.2,34.2,151.9,34.2z M150.8,34.2
		c0.1,0,0.3,0,0.4,0C151.1,34.2,150.9,34.2,150.8,34.2z M154.5,34.1c0.2,0,0.5,0,0.7,0C154.9,34,154.7,34,154.5,34.1z M156.7,34
		c0.3,0,0.5,0,0.8,0C157.2,34.1,157,34.1,156.7,34z"/>
	<path class="st2" d="M99.3,65c-0.2-0.1-0.5,0-0.3-0.3c-0.2,0.2-0.7,0.1-0.8,0.2C98.4,65.1,99.1,65.4,99.3,65z"/>
	<path class="st2" d="M98,65.6c-0.5-0.1,0-0.3-0.6-0.3C97.5,65.5,97.9,65.7,98,65.6z"/>
	<path class="st2" d="M96.7,133c0.1,0.2-0.3,0.3-0.1,0.5c0-0.1,0.1-0.1,0.2-0.2c0,0.1,0.1,0.2,0.2,0.1C96.7,133.4,96.9,133,96.7,133
		z"/>
	<path class="st2" d="M98.9,136.6c0-0.2,0-0.3-0.2-0.3c-0.1,0.2-0.4,0.3-0.5,0.6C98.6,136.9,98.5,136.5,98.9,136.6z"/>
	<path class="st2" d="M104.2,142.9c0.2,0,0.4-0.3,0.2-0.5C104.3,142.5,104.2,142.7,104.2,142.9z"/>
	<path class="st2" d="M136.8,34.2c0-0.1,0.1-0.5-0.2-0.4C136.4,33.9,136.6,34.3,136.8,34.2z"/>
	<path class="st2" d="M103.6,141.2c0,0.1,0,0.2-0.1,0.3c0.1,0,0.2,0,0.3,0c-0.1-0.2,0.2-0.2,0.2-0.3
		C103.7,141.2,103.7,141.3,103.6,141.2z"/>
	<path class="st2" d="M108.2,24.7c0,0.1,0,0.3,0,0.4c1.2,0.1,2,0.9,3,0.9c-0.1,0-0.2,0-0.2,0.2c0.4-0.1,0.7,0.2,0.9-0.2
		c-0.9-1-3.3-1.8-4.6-2.1c0,0.2,0.1,0.3,0.2,0.5C108,24.3,107.8,24.9,108.2,24.7z"/>
	<path class="st2" d="M134.3,34.7c0-0.1-0.1-0.2,0-0.2c0.1,0,0,0.2,0.2,0.2c0.1-0.1,0.1-0.3,0-0.4c0.1,0,0.2,0,0.2-0.1
		c-0.4,0.1-1.3,0.1-1.1,0.5C133.7,34.5,134,34.6,134.3,34.7z"/>
	<path class="st2" d="M170.3,21.7c-0.5-0.6-1.1,0.4-1.7,0.5c-0.1,0.4-0.3,0.9-0.2,1.5C169.7,23.8,170,22.3,170.3,21.7z"/>
	<path class="st2" d="M148,26.1c-0.3-0.1-0.1-0.1-0.1-0.4c-0.2,0-0.2-0.3-0.5-0.2c0,0.2-0.1,0.3-0.1,0.5
		C147.4,26.1,147.8,26.4,148,26.1z"/>
	<path class="st2" d="M100.5,63.2c0.2,0.4-0.2,0.3,0,0.5c0.3,0.1,0.2-0.3,0.3-0.3c0.1,0.2,0.4,0.2,0.7,0.2
		C101.6,63.1,100.9,63.1,100.5,63.2z"/>
</g>
</svg>
