<?xml version="1.0" encoding="utf-8"?>
<!-- Generator: Adobe Illustrator 22.1.0, SVG Export Plug-In . SVG Version: 6.00 Build 0)  -->
<svg version="1.1" id="Layer_1" xmlns="http://www.w3.org/2000/svg" xmlns:xlink="http://www.w3.org/1999/xlink" x="0px" y="0px"
	 viewBox="0 0 216 216" style="enable-background:new 0 0 216 216;" xml:space="preserve">
<style type="text/css">
	.st0{clip-path:url(#SVGID_2_);}
	.st1{fill:#D1D3CF;}
	.st2{opacity:0.49;}
	.st3{fill-rule:evenodd;clip-rule:evenodd;fill:#602F0F;}
	.st4{fill-rule:evenodd;clip-rule:evenodd;fill:url(#SVGID_3_);}
</style>
<g>
	<defs>
		<rect id="SVGID_1_" width="216" height="216"/>
	</defs>
	<clipPath id="SVGID_2_">
		<use xlink:href="#SVGID_1_"  style="overflow:visible;"/>
	</clipPath>
	<g class="st0">
		<rect x="-209.5" y="-30" class="st1" width="635.3" height="363"/>
		<g class="st2">
			<path class="st3" d="M196.8,28.4c-1.4-0.7-1.7-2.4-2.8-3.3c-1.6-0.4-3.5-0.6-4.9,0.4C188.6,30.1,194,29.8,196.8,28.4z"/>
			<path class="st3" d="M322.3,47.9c0.4,0.1,1.1,0.5,1.2-0.2C322.8,47.7,322.6,47.4,322.3,47.9z"/>
			<path class="st3" d="M284.9,52c-0.2-1.5,1.2-0.1,1.4-1.2c-0.3-0.1-0.2-0.6-0.8-0.4c0.2,1-1.3,0.1-1.6,1
				C284.5,51.4,284.2,51.8,284.9,52z"/>
			<path class="st3" d="M385.9,51.1c-0.2,0-0.2-0.2-0.2-0.4c-0.7-0.1-0.8,0.3-1.2,0.6C385.1,51.2,385.7,51.8,385.9,51.1z"/>
			<path class="st3" d="M234.8,56.8c0.9-1,1.3-1.6,1.2-3.3c-1.9-1.8-5.1,0-4.1,2.8C232.7,56.6,233.5,56.9,234.8,56.8z"/>
			<path class="st3" d="M283.7,53.8c0.4-0.3-0.2-0.6,0.2-1c-0.7,0-1,0.3-1,1C283.2,53.8,283.4,53.8,283.7,53.8z"/>
			<path class="st3" d="M276.2,54.8c-0.3-0.1,0-0.3,0-0.6c-0.3,0-0.4-0.1-0.6-0.2C275.4,54.6,275.8,55.5,276.2,54.8z"/>
			<path class="st3" d="M274.6,56.8c-0.4,0-0.4-0.2-0.8-0.2c-0.2,0.6,0,0.4,0,1.2C274.4,57.7,274.5,57.2,274.6,56.8z"/>
			<path class="st3" d="M258.9,60.7c-0.2,0-0.2-0.2-0.2-0.4c-0.7,0.3-1.1-0.2-1.6,0.2C257.7,60.5,258.4,61.3,258.9,60.7z"/>
			<path class="st3" d="M256.3,63.7c0.6,0,0.1,1.1,1,0.8c0.2-0.6-0.3-0.5-0.2-1C256.8,63.5,256.4,63.4,256.3,63.7z"/>
			<path class="st3" d="M247.8,67c0.3-0.9-0.8-1-1.2-0.6C246.7,67,247.4,66.9,247.8,67z"/>
			<path class="st3" d="M245.7,66.6c-0.3-0.3-1.2-0.3-1.2,0.2C245,67,245.4,67.1,245.7,66.6z"/>
			<path class="st3" d="M222.2,93.6c-0.5,0-0.9,0.1-1.2,0.4C221.5,94.1,222.2,94.3,222.2,93.6z"/>
			<path class="st3" d="M209.4,94.2c0.1,0.6,1.6,1,1.8,0.2C210.9,93.8,209.9,93.6,209.4,94.2z"/>
			<path class="st3" d="M199.6,117.6c-0.4-0.2-0.7-0.5-1.4-0.4C198,118.2,199.4,117.6,199.6,117.6z"/>
			<path class="st3" d="M198.4,119.6c0.3,0,0.5,0,0.8,0c0.1-0.6,0.3-1,0.6-1.4C198.8,117.6,198.6,118.8,198.4,119.6z"/>
			<path class="st3" d="M195.1,123.5c-0.3-0.7,0.7-0.1,0.6-0.6c-0.5,0-0.9,0-1.4,0C194.1,123.6,194.9,123.2,195.1,123.5z"/>
			<path class="st3" d="M186,126.3c-0.5,0-0.9,0-1.2,0.2C184.8,127.3,186.1,126.7,186,126.3z"/>
			<path class="st3" d="M184.8,128.4c-0.3-0.3-1-0.6-1.4-0.2C183.2,128.9,184.8,128.7,184.8,128.4z"/>
			<path class="st3" d="M188.8,129.6c-0.6-0.8-1.3-1-2.4-1c0.4,0.6,2.1,0.4,1.2,1.8C188.4,130.6,188.5,130,188.8,129.6z"/>
			<path class="st3" d="M181.5,131.8c-0.5-1.1-3.1,0.2-2.2-0.6c-0.7-0.1-1,0.2-1.2,0.6C179.5,131.7,180.5,132.2,181.5,131.8z"/>
			<path class="st3" d="M178.9,134.3c-0.5-0.1-1.3-0.8-1.8-0.2C177.5,134.7,178.5,134.9,178.9,134.3z"/>
			<path class="st3" d="M182.1,140.8c0.4,0.2,0.5,0.5,1.2,0.4c0-0.5-0.1-0.8-0.4-1C183,141.1,182.1,140,182.1,140.8z"/>
			<path class="st3" d="M175.6,157.6c-0.4-0.1-0.6-0.5-1.2-0.4C174.1,157.9,175.4,158,175.6,157.6z"/>
			<path class="st3" d="M154.3,221c-0.6-0.2-0.2-0.3-0.2-0.8c-0.3,0-0.7,0-1,0C153.2,220.7,153.9,221.5,154.3,221z"/>
			<path class="st3" d="M155.5,229.1c0.3-0.3,0.3-1-0.2-1c0,0.4-0.7,0.1-0.6,0.6C155.1,228.7,155,229.2,155.5,229.1z"/>
			<path class="st3" d="M162.8,274c-0.2,0-0.4,0-0.6,0c0-0.2,0-0.4,0-0.6c-0.4-0.1-0.7,0-0.8,0.4C161.9,273.6,162.1,274.5,162.8,274
				z"/>
			<path class="st3" d="M175.4,294.4c0,0.2,0,0.4,0,0.6c0.6-0.2,0.7-0.3,1,0.2c-0.1-0.5,0.4-0.4,0.4-0.8
				C176.2,294.6,175.9,294.6,175.4,294.4z"/>
			<path class="st3" d="M189.6,322c0.6,2.4-1.3,3-3,3.2c0,0.4-0.2,0.4-0.2,0.8c0.7,0,1.1-0.5,1.6-0.8c0.5,0.4,1.2,0.6,1.6,0
				c-0.2,0-0.5-0.1-0.4-0.4c0.7-0.3,1.3-1.4,0.8-2.4c0.4,0.4,0.5-0.5,1-0.6C190,321.6,190.3,322.4,189.6,322z"/>
			<path class="st3" d="M187.4,323.6c0.2,0,0.2,0.3,0.2,0.6c0.5,0,0.7-0.4,1-0.6c-0.1,0-0.2,0-0.2-0.2c0-0.1,0-0.2-0.2-0.2
				c0.1,0.3-0.3,0.2-0.5,0.2c0.3-0.1,0.5-0.2,0.7-0.4c0.3,0,0.1-0.6,0.4-0.6c-0.4,0-0.9-0.4-1.6-0.6c0.3-0.8,0.5,0,1,0
				c0.6-0.2,0-1.6,0.8-1.6c-0.1-0.4-0.9,0-0.6-0.8c-0.3,0-0.8-0.1-0.8,0.2c-0.6-0.3,0.9-1.2-0.4-1.2c0.1-0.2,0.3-0.4,0.6-0.4
				c-0.1-0.5-0.6-0.3-0.8,0c0-0.6-0.2-1.4,0.2-1.8c-0.7-0.6-1.2-0.2-1.6-1.2c-0.3,0.9-1.3,1-2.2,1.4c0.1,0.6,0.4-0.2,0.8,0
				c-0.2,0.2-0.2,0.4-0.2,0.8c-1-0.2-1.4-0.2-2-0.6c0.8-0.7,2.5-0.5,2.4-2.2c0.3-0.4,1-0.3,1.2-0.8c0.7,0.3-0.5,0.4-0.4,0.8
				c0.5,0.5,0.7-0.4,1.4-0.4c-0.1,0.3,0.2,0.4,0.4,0.4c-0.2,0.3-0.7,0.6,0,0.8c0.7,0.2,0.2-0.9,0.8-0.8c-0.7-0.3-0.1-0.8-0.2-1.6
				c-0.9-0.8-1.3-1.3-2.4-1.6c0.1-0.3,0.5-0.2,0.8-0.2c0-0.3,0-0.5,0-0.8c-0.2,0-0.2,0.2-0.2,0.4c-0.4-0.1-0.2-0.8-0.8-0.6
				c-0.8,0.4,0,1.1-1,1.2c0.2-0.7,0.3-1.4,0.6-2c0.3,0,0.1,0.6,0.4,0.6c0.1-0.3,0.1-0.3,0.6-0.6c-0.9,0.1-2-1.6-1.2-1.8
				c-0.6-0.3-1.2-0.5-1.8-0.8c-0.4,0.1,0.3,0.5-0.2,0.8c-1-0.2,0.5-1,0-1.2c0.2-0.5,0.4,0.5,0.8,0.4c0.3-0.1,0.3-0.3,0.6-0.4
				c-0.3-0.6-0.4-0.5-1.2-0.4c0-0.2,0-0.4-0.2-0.4c1.1-1.3-1.6-1.8-0.4-3.1c-0.3-0.8-1.4-1.8-2.2-2.8c-0.7,0.8,0.9,1,1.2,1.6
				c-0.2,0.6-0.5-0.2-0.6-0.4c-0.8,0.5-1.4,0.3-2.6,0.2c1.2,0.3,0,1.8-0.6,2.2c-0.5,0-0.8-0.3-0.8-0.8c-0.8,0.1,0.2,0.7-0.6,0.6
				c-0.2-0.4,0.1-0.7-0.6-1c0.5-0.6,1.2,0.8,1.6-0.2c0.4,0.1,0,0.4,0,0.6c0.5,0.1,0.4-0.4,1-0.2c-0.3-0.4,0-0.3,0-0.8
				c-0.5,0.1-0.7,0.3-1.4,0.2c0.4-0.2,0.5-0.5,1-0.6c-0.9-0.2,0.1-1-1-1.4c0.1-0.2,0.5-0.2,0.4-0.6c0.7,0.2,0.4,0.3,0.6,0.8
				c0.2-0.1,0.2-0.5,0.6-0.4c0,0.2-0.2,0.2-0.2,0.4c0.1,0.3,0.5,0.2,0.8,0.2c-0.4-1.3,0.6,0.3,1.2-0.6c-0.7-0.3-0.2-1.1,0.4-1.2
				c-0.3-0.5-0.8-0.6-1.2-1c0.5,0.1,0.4-0.7,0-1.2c-0.2,0.1-0.2,0.5-0.6,0.4c0.4-0.6-0.7-1.3-0.2-2c-0.5,0-0.4,0.3-0.8,0
				c0.2,0.5,0.1,0.5,0.2,1.4c-1.1,0.1-1.4,0.9-2.8,0.6c0.5-0.3,0.1-0.3,0.4-0.8c0,0.8,1.1-0.1,1.6,0c-0.5-0.6-0.9-0.1-2-0.4
				c0-0.8-0.7-2-1.8-2.4c0.4-0.5,0.6-1.3-0.4-1.4c1.1-0.2,1-0.9,2-0.4c0.6,0.2-0.5,0.2-0.8,0.2c0.5,0.5,0.3,0.6,0.2,1.4
				c0,0.8,1.6,0.1,1.4,1.2c0.4,0,0.4-0.5,0.4-1c0.3,0,0.8-0.1,0.8,0.2c0-0.4,0.6-1,0-1.6c-1,0.3-1.1-0.3-2.2,0.2
				c0.6-0.2,0.5-1.1,1.2-1.2c-0.6-0.2-0.4-1.3,0-1.6c-1.2,0.4-1.7,1.4-3,1.8c-0.4,0.6,0.1-0.6,0.6-0.4c-0.2-0.5-0.1-0.5-0.2-1.4
				c1.2,0.6,1.6-1.2,1-1.8c-0.2,0.3-1.6,1.2-1.8,0.2c0.4,0,0.8,0,1.2,0c0.1-0.5-0.3-0.6-0.8-0.6c0.1-0.7,0.3-1.3,0.8-1.6
				c-0.6-0.1-0.7-0.6-1.2-0.8c0-0.2,0.4-0.2,0.6-0.2c0.1-0.7-0.7-0.6-1.2-0.8c0.5-0.5-0.5-0.5,0-1c-0.4,0.4-0.5-0.2-1.2,0
				c0.4-0.5,0.5-1.2-0.6-1c0.3-0.6-0.2-0.8,0.4-1.2c-0.1-1.5-3.7-0.3-2.8-2.2c1.1,0.6,0.9,0,2-0.2c0.1,0.4-0.1,0.5-0.2,0.8
				c0.2,0.3,0.8,0.2,1.2,0.4c-0.9-1.2-1-2-2-3c1.1-0.2,0.9,0.8,1.8,0.8c-0.5-0.9-0.7-1.1-0.8-2c-0.7-0.2-0.8,0.3-1.4,0.2
				c0.1-0.3,0.6-0.2,0.4-0.8c0.3,0,0.7,0,1,0c-0.2-1.4-0.7-2.6-2.4-2.6c0-0.4,0.2-0.4,0.2-0.8c0.4,0,0.3,0.5,0.8,0.4
				c-0.8-0.3-0.5-1.1,0-1.6c-0.2-0.8-0.5-0.9-0.2-1.8c-1.2-0.3-0.2,1.6-1.6,0.8c0.6-0.9,0.9-2.6-0.6-3.3c-0.1-0.6,0.7-0.3,0.8-0.8
				c-0.2-0.4-0.8-0.4-1.4-0.4c0.2-0.3,0.4-0.6,0.8-0.8c-0.5-0.4-0.7-1.2-1.4-1.4c1.3-0.7-1.2-0.8-0.4-1.6c-0.2-0.4-1.2-0.1-1.8-0.2
				c-0.4-0.4,0-1.4-0.6-1.6c0.4-0.3,2.2-0.9,2.2,0.2c-0.4,0-0.8,0-1.2,0c0.1,0.5,0.3,0.9,0.6,1.2c0.7,0,1-0.6,1.6-0.8
				c0.1-0.5-0.9,0.1-0.6-0.6c0.2,0,0.4,0,0.6,0c-0.6-1.1-0.9-2-1.2-3.2c0-0.7,0.7-0.6,1-1c-0.1-0.4-0.6-2.1,0.2-2.2
				c-0.1-1.2-0.8-1.5-0.2-2.6c0.1-2.9-1-6.1-0.8-9.1c-1.4-0.5-0.4-2.1-2-2.4c0-0.4,0.7-0.1,0.8-0.4c-0.1-0.5-0.2-0.8-0.6-1
				c0-0.2,0.4-0.2,0.6-0.2c-0.2-0.5-0.7-0.8,0-1.2c-0.4-0.7-1.8-0.3-2.2-1c0.4-0.9,1.6,0.5,2.4-0.2c0.1-0.7-0.8-0.2-0.6-1
				c0.8,0.3,0.4-0.5,0.8-0.6c-0.1-0.3-0.4-0.4-0.8-0.4c0.8-1.2,0.4-1.4,0.2-2.8c0.2,0,0.4,0,0.6,0c-1-0.6,0.1-1.5-0.8-2.2
				c0.2-0.5,1-0.5,1.2-1c-0.2-0.5-0.7-0.6-1-1c1.1-0.9,0.6-2.6,1-3.5c-0.8-0.5-1.6-0.6-2.8-1.2c-0.6,0.3-0.7,1.3-2,1
				c-0.2-0.5-0.6-0.9-1-1.2c0.4-0.4,0.3-1.3,0.6-1.8c2.9,0,4.5-1.8,4.7-3.3c0-0.3-0.6-0.1-0.6-0.4c0-0.2,0-0.4,0-0.6
				c1.5,0,1.2-1.4,0.2-1.8c0.3-0.6-0.3-1,0.6-1.2c0.5,0.4-0.8,0.6,0.4,0.6c0.8-0.6-0.7-1.2,0-1.8c-1.3,0.1-1.3-0.3,0-0.2
				c-0.4-0.9-1.2-0.8-2-0.4c0-0.6,1.1-0.6,1.4-0.4c-0.2-0.9,0.1-1.1,0.4-1.8c0-0.2-0.2-0.2-0.2-0.4c-0.5,0.9-0.4-0.3-0.8-0.6
				c0.1-0.3,0.4-0.4,0.8-0.4c-0.1,0.2-0.2,0.3,0,0.4c0.5,0.1,0.4-0.4,0.6-0.6c-0.5-0.3-0.5-0.3-0.6-0.6c0.1-0.3,0.2,0,0.4,0
				c0.1-0.5-0.4-0.4-0.6-0.6c1.4-0.9,0.3-2,1.2-3.1c-0.2-0.3-0.5-0.4-0.8-0.6c0.1-0.6,0.4,0.2,0.8,0c-1-0.5,0.1-1.3-1-1.4
				c0.2-0.5,0.5-0.7,0.8-0.2c-0.2-0.6-0.2-1.4-0.2-2.2c0.8,0.3,0.4-0.5,0.8-0.6c0-0.5-0.3,0.3-0.8,0c0-0.7,0.8-0.5,1.2-0.8
				c0-0.4-0.7-0.1-0.8-0.4c0-0.3,0.3-0.5,0-0.6c0.1-0.3,0.5-0.2,0.8-0.2c0.2-1-0.4-1,0.4-1.8c-0.1-0.2-0.4-0.3-0.6-0.4
				c0.7-1.5,0.3-2,0.2-3c0.4-0.1,0.5-0.4,1-0.4c-0.2-0.8,0.3-2.3,1.4-2.8c-0.6-0.4-0.5-2,0.2-2.2c-0.5-0.6,0.2-2.4-0.4-3
				c0-0.2,0.4-0.1,0.4-0.4c0-0.3,0-0.6,0.2-0.6c0-0.1,0-0.1,0-0.2c0.2,0,0.2-0.2,0.2-0.4c0.2-0.7,0.5-1.2,1-1.6
				c-0.3-0.3,0.4-2.7,1.2-3.2c0-0.6,0.2-1.5-0.6-1.4c0.7-0.6,1.6-1.9,0.6-2.2c0.5-0.5,0.7-0.5,0.4-1.4c0.3,0,0.5,0,0.8,0
				c-0.3-1,0-1.8,1-2.4c0.2-0.4-0.6-0.7,0-0.8c-0.1-0.8-0.9,0-1.2-0.4c-0.1-0.8,1-0.6,1.2-0.2c0-0.4,0.3-1.5,0.8-2
				c-0.7-0.1-0.8,0.3-1.6,0.2c0.5-0.6,1.6-0.7,2-1.4c-0.8-0.2,0.3-1-0.6-1c0-0.7,1.4,0,1.4-0.8c-0.3-0.4-1.4-0.1-2-0.2
				c0.4-0.9,1.2-0.3,2.2-0.4c0.7-1.2-0.2-2.1,0.4-2.8c-0.2-0.6-1.1-0.6-1.6-1c0.1-0.7,1.2-0.3,0.6-1.2c0.8,0,0.9,0.8,1.8,0.8
				c0.2-0.3,0.2-2.1,1.2-2.2c-0.8-0.6,0.1-1,0.8-1.2c-0.8-1.4,1.6-1.8,0.6-3c1.4-0.4,0.7-1.6,1-2.6c-0.2-0.7-1.8,0.1-1.6-1
				c0.6,0,1,0.3,1.8,0.2c0.4,0,0.1-0.8,0.2-1.2c-0.3-0.4-1-0.4-1.8-0.4c0.2-0.7,1.3-0.4,1.8-0.8c0.3-0.7-0.5-0.4-0.4-1
				c0.4-0.4,0.5,0,1,0c-0.3-0.8,0.5-1.5,1.8-1.8c0-0.8-0.9-0.8-1.8-0.8c-0.2-1.4,2.4-2,1.6-2.8c0.6-0.4,1.5-0.4,2.2-0.8
				c-1.5-0.4-2.4,0.4-3.9,0.4c0.5-0.6,0.3-0.9,0.2-1.8c0.5-0.1,0.9-0.3,1.6-0.2c0.5,1.6,2.2,0.5,3,0.4c0.1-0.4-0.3-0.4-0.6-0.4
				c0.7-0.3,0.8-1.2,1.8-1.2c0.3-0.1-0.3-0.7,0.6-0.6c-1-0.2-2.1-0.3-2.2-1.6c1.1-0.9,2.7-0.1,3.5-1.2c-0.3-0.4-1.1-0.4-1.4-0.8
				c-1.3,1.3-3.2,1-5.1,1.4c0,0.4,0.2,0.6,0.6,0.6c-0.1,0.4-1,0.1-1.4,0.2c-0.2,0.7,0.9,0.2,1,0.6c0.2,0.7-1.4,0.7-0.4,1.2
				c-0.5,0.5-2.2,0.1-2.2,0c-0.6,0.2,0.3,0.5-0.2,0.8c-2.4,0.3-2.8-1.1-4.5,0c-0.1,1,1.5,0.5,1.4,1.6c-0.9,0-0.3-0.7-1.4-0.8
				c-0.9,0.1-0.8,1.2-1.8,1.2c-0.2,0.8,0.8,0.7,1,1.6c-0.3-0.1-2-0.1-2.6,0.2c0.1,0.3,0.4,0.4,0.8,0.4c-2.7,0.2-2.4,3.3-3.9,4.7
				c0.4,1.5-1.1,2.8-0.8,4.9c-0.3-0.1-0.3,0.2-0.6,0.2c-0.5,1.9,0,3.7-0.4,5.3c-0.1,0.2-0.5,0.5-0.6,0.8c-0.1,0.3,0.3,0.6,0.2,1
				c-0.5,1.7-2.1,3.1-1.8,5.1c-1.5,5.3-5,10.4-5.1,16.7c-1.5,1.6-2.3,4.7-2.4,6.7c-1.5,0.7-0.1,3.2-0.8,3.9c0,0.2,0.4,0.2,0.6,0.2
				c-0.1,0.2-0.5,0.3-0.2,0.4c-0.1,0.4-0.3,0.4-0.6,0.2c0.5,0.5-1.6,1.9-0.4,2.8c-0.5,0.7-0.7,0.8-0.8,1.6c0,0.5,0.3-0.3,0.8,0
				c-0.2,0.3-0.2,0.8-0.8,0.6c1.2,0.6-1,2.8,0.6,3c-0.1,0.5-0.9,0.2-1,0.6c0.9-0.1,0.1,0.4,0.6,1.2c-0.1,0.2-0.3,0.4-0.6,0.4
				c0.4,0.8,0.2,1.2,1,1.8c-0.7,0.7-0.7,1-0.2,2c-0.4,0-0.3-0.5-0.8-0.4c1.2,1.5-1.1,2.9,0.4,4.1c-1.5,1.5,0.1,2.9-0.8,3.9
				c0.5,0.5,1-0.7,1.8-0.6c0.3,0.1,0,0.8,0.4,0.8c-1.1-0.3-0.1,1.6-1.4,1.8c0.1-0.3,0.3-0.3,0.4-0.6c-0.3,0-0.5,0-0.8,0
				c-0.1,0.6,0.2,0.9,0.8,0.8c0.1,0.5-0.6,0.2-0.6,0.6c0.2,0.6,0.7-0.2,1.2,0c-0.4,0.3,0.1,0.6,0.4,0.8c-0.3,0.3-0.8,0.4-1,0.8
				c0.2,0.3,0.6,0.3,1,0.4c-0.1-0.2-0.5-0.2-0.4-0.6c0.4,0,0.8,0,1.2,0c-0.6,0.4,0,1-0.4,1.8c-1.1-0.4-1.2-0.5-2-1
				c-0.5,0.4,0.3,1.1,0.4,1.6c-0.4,0.5-0.9-0.2-1.4,0.2c0.7,0.6,1.2,0.4,2.2,0.6c-0.1,0.1-0.5,0.9,0,1c-0.5,0.6-0.6-0.9-1.2-0.8
				c-0.8,0.5,0.7,0.9,0,1.4c0.4,0,0.8,0,1.2,0c-0.2,0.7,0.5,0.6,0.4,1.2c-1-0.5-1.5,0.6-2.4-0.2c-0.4,0.3,1,0.6,0.6,1.6
				c0.7,0.2,0.3-0.6,0.4-1c1.3-0.2,0.2,0.8,1,1c-0.3,0.4-1.2,0.2-1.2,0.8c0,0.5,0.7,0.4,1.2,0.4c0,0.9,0.8,1,1,1.8
				c-1.3,0.1-1.5-1-2.4-1.4c-0.2,0.4,0,1-0.6,1.6c0.7,0.5,1.7-0.8,2,0.6c-0.4,0.3-0.2,0-0.8,0c0.3,0.2,0.7,0.7-0.2,0.6
				c0.3,0.4,1.2,0.3,1.6,0.6c0.3,0.9-0.2,1.6-1.2,1.8c0.1-0.4-0.1-0.5-0.2-0.8c-0.2,0-0.2,0.2-0.4,0.2c0.4,0.4,0.7,1.7-0.4,1.6
				c-0.2,0.9,0.3,1.1,1.2,1c-0.3,0.7,0.5,0.4,0.4,1c-0.7,0.1-1.1-0.5-1.6,0c0.8,0.7,0.4,1.5,0.2,2.2c0.8-0.1,0.9-0.8,1.2-1.4
				c0.7,0.4,1.6,0.5,2,1.2c-0.2,0.2-2-0.2-2.6,0.2c-0.2,0.7,0.7,0.3,0.6,1c-0.4,0.1-0.6,0.6-1,0.2c1.6,4.3-1.7,9.7,0.5,13.2
				c0,0,0,0,0,0c0,0,0,0,0,0h0c0,0.1,0,0.2,0.1,0.2c0,0,0.1,0,0.1,0c0.1,0.2,0.3,0.4,0.5,0.6c-0.1,1,0.5,1.7-0.4,2
				c0.2,1.6,1.8,2.7,1.4,4.3c0.4,0.6,1.1,0.8,1.2,1.8c1.7,0.2,2.9-0.3,3.7,0.2c-0.2,0.9-1.8,0.5-2.2,0.4c-0.4,0.3-0.6,0.8-1.6,0.6
				c0.4,0.8,0.4,0.9,0.8,1.6c0.3,0,0.7,0,1,0c0.1-0.7-0.3-0.9-1-0.8c-0.1-0.5,0.9,0.1,0.6-0.6c0.7-0.1,0.8,0.3,1.6,0.2
				c-0.3,0.8-0.4,0.8,0,1.6c-0.4,0.3-1.1,0.3-1.6,0.6c-0.1,1.1,0.9,1.2,1.8,1.4c0.4-0.1-0.3-0.5,0.2-0.8c1.5,0.4,1.2-0.9,2.2-1
				c0.6,0,0.5,0.6,1,0.6c-0.1,0.4-0.5,0.4-0.6,0.8c-0.6,0.1-0.6-0.3-1.2-0.2c-0.6,0.1,0.2,0.4,0,0.8c-0.8-0.1-1.3,0.1-1.8,0.4
				c0.6,0.6-0.6,1.7,0.6,1.6c-0.1,0.2-0.3,0.4-0.6,0.4c0.2,0.2,0.4,0.4,0.6,0.6c-0.2,0.5-0.6,0.8-0.8,1.4c0.5,0.2,0.8,0.6,0.2,1
				c0.2,0.3,0.5,0.4,0.8,0.6c0.5,0.1-0.1-0.9,0.6-0.6c0.7,1.1-0.7,1.5-0.6,2.6c0.2,0.5,1.1,0.2,1,1c-0.4-0.1-0.5,0.1-0.8,0.2
				c0.4,0.6,1.4,0.4,1.8,0.6c-0.4,0.4-0.1,1.2,0.4,1.4c-0.4,0.6-2,0.3-1.4,1.4c0.8,0,1.8-0.2,1.6,0.8c-0.4-0.4-0.5,0.5-1.4,0.2
				c0,0.8,0.3,0.9,0,1.6c0.2,0.6,0.8,0.7,1.6,0.8c0.1,0.8-0.3,1-0.8,1.2c0.3,0.8,1.2,0.6,2,0.4c-0.1,0.6,0.5,0.4,0.4,1
				c-0.3,0.3-1-0.2-1.4,0.4c0.1,0.7,0.9,0.6,1.2,1c-0.1,0.6-0.4-0.2-0.8,0c-0.2,0.5,0.7,0.9,0.8,0.4c0.3,0.3-0.2,1,0.6,1.2
				c-0.2,0.3-0.5,0.4-1,0.4c0,0.6,0.6,0.5,0.8,0.8c0.2-0.1,0.3-0.2,0.6-0.2c-1-0.8,0.8-0.5,0.2-1.2c0.3-0.6,1,0.1,1.2,0.2
				c-0.1,0.6-1.6,1.1-0.6,1.6c0,0.4-0.7,0.1-1,0.2c-0.4,0-0.1,0.9-0.4,1c0.8,0.4,1.3-0.8,2.4-0.8c0.2,0.6-0.4,0.3-0.8,0.4
				c0.1,0.2,0.2,0.3,0.2,0.6c0.6,0.1,0.4-0.5,1-0.4c0,0.3,0,0.6,0.2,0.6c-0.2,0.5-0.9,0.6-1.6,0.6c0,0.2,0,0.3-0.2,0.4
				c0.4,0.6,2.5-0.4,2.4,0.8c-0.7,0.2-0.6-0.5-1.2-0.4c-0.3,0.3-0.3,0.9-0.6,1.2c-0.4,0.1-0.3-0.4-0.6-0.4c-0.4,0.7,0.3,0.9,0.2,1.6
				c1.2,0.1,0.8-1.5,1.8-1.6c-0.3,0.3-0.3,0.8,0.4,0.6c-0.5,0.8-0.9,1.8-1.6,2.6c0,0.4,0.7-0.2,1.2,0c0.4,1.6-0.9,2.3,1.2,3
				c-0.1,0.3-0.3,0.3-0.4,0.6c0.2,0.6,0.5-0.3,1,0c-0.1,0.5,0.3,0.6,0.8,0.6c-0.4,0.7,0,0.6,0.2,1.2c-0.7,0.2-1.3,0.6-1.4,1.4
				c0.1,0.4,0.5,0.4,0.6,0.8c0.7-0.6,1.4,0.5,1.8,0c0.5,0.6-0.6,1-1,0.4c-1.1,1,0.2,2.2,1.2,2.8c0.7-0.3,0.7-0.4,1.6-0.2
				c-0.1,0.6-0.6,0.3-0.8,0c-0.3,0.1-0.2,0.6-0.8,0.4c-0.1,0.5,0.8,0.2,0.6,0.8c0.7-0.3,1.3-1.4,2.4-0.8c-0.3,0.8-0.5,0.4-1.2,0.2
				c-0.2,0-0.1,0.4-0.4,0.4c0.4,0.2,0.8,0.5,1.2,0.8c0.4,0.1,0.6,0,0.6-0.4c0.4,0,0.3,0.5,0.8,0.4c-0.2,0.4-0.9,0.3-0.8,1
				c-0.6-0.2-0.2-0.3-0.2-0.8c-0.3,0-0.5,0-0.8,0c0.4,1.1,1,2.3,0,3c0.4,0.7,0.7-0.3,0.8-0.6c0.5,0.1,0.8,0.2,1.2,0.4
				c-0.1,0.5-0.9,0.1-1,0c0.2,0.3,0.1,0.3,0,0.6c-0.1,0.6,0.6-0.5,0.6,0.2c0,0.9-0.5-0.2-1,0c-0.2,0.2-0.2,0.8,0.2,1.2
				c0.6-0.1-0.2-0.4,0-0.8c0.3,0.7,1.4,0,1-0.4c0.7-0.4,0.8,1.6,1.4,2c-0.1-0.7,1.4-0.3,0.8,0.6c-0.3-0.3-1-0.2-1.6-0.2
				c0.4-0.3-0.1-0.6-0.2-1c-0.7,0.3,0.3,1.5-0.8,1.2c0.2,0.5,2.1,1,2,0c0.2,0.5,1.5-0.2,1.4,0.6c0.4,0,0.4-0.2,0.8-0.2
				c-0.1-0.8,0.3-0.8,0-1.4c0.2,0.3,0.7,0.5,0.6,1.2c-0.7-0.6-0.4,0.8-0.6,0.8c-0.3,0-1,0.2-1.2-0.6c-0.7,0.1,0.5,0.8-0.4,0.6
				c0.7,0.4,0.9,1.3,1.8,1.6c-0.2,0.6-0.2,0.6,0,1.2c-0.6-0.1-0.8,0.6-1.2,0.2c0.2,0.6-0.3,0.5-0.2,1c0.1,0.2,1.1,0,1.2,0.8
				c0.5-0.1,0.7-0.3,1.4-0.2c-0.2,0.9-0.1,0.3,0.4,0.6c-0.1,0.2-0.2,0.3-0.2,0.6c-0.6-0.1-0.4-0.1-1,0c0.1-0.9-0.3-0.5-0.8-0.4
				c0.6-0.9-0.4,0-0.4-0.8c-0.9,0.6,0.8,1.4,1.6,1.6c0.1,0.4-0.4,0.3-0.4,0.6c-0.1,0.3,0.7,0,0.8-0.2c0.1,0.3,0.1,1-0.8,1
				c0,0.2,0.2,0.2,0.2,0.4c0.3,0.1,0.7-0.3,1.6,0c-1.1,0.6,1,0.1,0.8,1c0.2-0.5,0.2-1.3,0.6-0.2c1-1.1,1.8-1.4,2.4-3.2
				c0.2,0.6,0.4,1.8-0.8,1.8c0.2,0.9,0.3,1.9-0.8,1.8c0.1,0.5,0.9,0.1,0.8,0.8c-0.5-0.1-0.4,0.4-1,0.2c-0.1-0.3-0.6-0.6-0.5-1
				c-0.8,1.3,1.4,1.9,2.9,1.6C187.4,323.5,187.4,323.5,187.4,323.6z M186.2,312.7c-0.4-0.1-0.6,0-0.6,0.4c-0.6,0.2-0.4-0.5-0.8-0.6
				C185.1,311.9,186.2,311.8,186.2,312.7z M176.2,292.7c-0.5,0.4-0.8-0.6-1,0.4c-0.4,0-0.2-0.5-0.8-0.4
				C174.6,292.2,176.4,291.7,176.2,292.7z M184,133.8c-0.2,0.6,0.3,0.5,0.2,1c-0.3,0-0.7,0-1,0c0-0.3,0.1-0.7-0.2-0.8
				C183,133.5,183.8,133.9,184,133.8z M161.6,253.7c-0.2,0.6,0.6,0.2,0.4,0.8c-1.1,0.9-1.5-1.1-3-0.4c-0.1,0.5,0.4,0.4,0.2,1
				c-0.3,0-0.7,0-1,0c-0.3-0.3-0.3-1.3,0-1.6c1,0.1,1.9,0.1,2.2-0.6c0.7,0.5,2.3,0.6,2.4-0.6c0.7-0.3,0.4,0.5,1,0.4
				C163.4,253.4,162.4,253.4,161.6,253.7z M154.7,244.2C154.7,244.2,154.7,244.2,154.7,244.2C154.7,244.2,154.7,244.2,154.7,244.2z
				 M175.8,144c0.1,0.5-0.3,0.6-0.8,0.6C174.9,144.1,175.3,143.9,175.8,144z M165,185.7c0-0.1,0-0.2-0.1-0.4
				C165,185.5,165,185.6,165,185.7z M157.3,210.2c0-0.4,0.8-0.1,1.2-0.2c0,0.6-1,0.2-1,0.8C156.8,210.8,158,210.2,157.3,210.2z
				 M161.3,204.2L161.3,204.2c-0.1,0-0.2,0.1-0.3,0.1C161.1,204.3,161.2,204.2,161.3,204.2z M161.6,203.7c0,0,0,0.1,0,0.1
				C161.5,203.8,161.6,203.8,161.6,203.7z M158.4,212.3c0,0.4,0.1,0.7,0.4,0.8c0,0.4-0.5-0.3-1,0
				C157.8,212.6,157.9,212.3,158.4,212.3z M161.3,204.2c-0.1,0.1-0.2,0.1-0.4,0.1C161,204.3,161.1,204.3,161.3,204.2z M161.3,204.2
				c0.2-0.1,0.4-0.2,0.5-0.4C161.7,203.9,161.5,204.1,161.3,204.2C161.3,204.2,161.3,204.2,161.3,204.2z M162.7,186.5
				C162.7,186.5,162.7,186.5,162.7,186.5C162.7,186.5,162.7,186.5,162.7,186.5z M163,186.4C163,186.4,163,186.4,163,186.4
				C163,186.4,163,186.4,163,186.4z M164.9,186.7L164.9,186.7C164.9,186.7,164.9,186.7,164.9,186.7
				C164.9,186.7,164.9,186.7,164.9,186.7z M162,203.7c0.2-0.1,0.3-0.3,0.5-0.4C162.3,203.5,162.1,203.6,162,203.7z M164,186.9
				c0.1,0,0.1,0,0.2,0C164.2,186.9,164.1,186.9,164,186.9z M164.4,187c0.1,0,0.1,0,0.2-0.1C164.5,186.9,164.5,186.9,164.4,187z
				 M164.9,186.7c-0.1,0.1-0.1,0.1-0.2,0.1C164.8,186.8,164.8,186.8,164.9,186.7z M165,185.7c0,0.3-0.1,0.4-0.1,0.9
				C164.9,186.1,165.1,186,165,185.7z M171.1,149.3c0.1-0.4,1.1-0.1,1.6-0.2C172.5,149.6,171.4,149.7,171.1,149.3z M170.1,153.3
				c-0.3-0.7,0.7-0.1,0.6-0.6c0.3,0,0.4,0.3,0.4,0.8C170.8,153.3,170,153.7,170.1,153.3z M162.8,202.9c0,0,0.1-0.1,0.1-0.1
				C162.9,202.9,162.9,202.9,162.8,202.9z M165,186.7c0.1-0.1,0.2-0.2,0.2-0.2C165.1,186.5,165,186.6,165,186.7z M165.6,186.2
				c0,0-0.1,0-0.1,0C165.6,186.2,165.6,186.2,165.6,186.2z M165.4,186.2c-0.1,0-0.1,0.1-0.2,0.2
				C165.3,186.3,165.3,186.3,165.4,186.2z M159.8,247.8c-0.7-0.1-1.1-0.5-1.8-0.6c0.2-0.7,1.8-0.1,2.2-0.6
				C161,247.1,159.6,247.1,159.8,247.8z M160.6,241.9c0.5,0,0.6,0.3,1,0.4C161.5,242.9,160.3,242.7,160.6,241.9z M162,243.2
				c0,0.3,0,0.7,0,1c-0.3,0-0.7,0-1,0c0-0.2,0-0.4-0.2-0.4C161,243.4,161.3,243.1,162,243.2z M158.8,244c0.4-0.1,0.5,0.1,0.8,0.2
				c-0.1,0.4-0.1,0.8-0.6,0.8C159.5,244.5,158.7,244.6,158.8,244z M157.9,245.2c-0.4-0.2-0.9-0.2-0.8-1c0.3,0,0.5,0,0.8,0
				C157.7,244.8,157.7,244.6,157.9,245.2z M158.3,248.6c0.6,0,1.1,0.3,1.2,0.8c-0.6,0.3-0.8-0.1-1.8,0.2
				C157.8,249.2,158.1,249,158.3,248.6z M163.8,246.8c-0.1,0.9-1.4,0.6-1.4,1.6c-0.5-0.1-0.4-0.7-0.6-1.2
				C162.4,247.2,162.8,246.8,163.8,246.8z M157.1,240.5c-0.5,0.3-1.3,0.3-1.8,0.6C155.5,240.5,156.5,240.1,157.1,240.5z
				 M157.9,250.3c-0.1,0.8-1.4,0.7-1.4-0.2C156.8,249.8,157.4,250.2,157.9,250.3z M162.4,222.6c-0.8,0.8-0.9-0.7-1.6-0.6
				C161.5,221.2,161.8,222.5,162.4,222.6z M158.3,222.6c-0.7,0.2-0.6-0.3-0.6-0.8C158.2,221.7,158.2,222.2,158.3,222.6z
				 M171.4,160.3c0-0.5,0.7-0.4,1.2-0.4C172.8,160.7,171.7,160.6,171.4,160.3z M175.2,154.8c0.1-0.2,0.2-0.3,0.2-0.6
				c0.5-0.1,0.4,0.4,0.8,0.4C176.2,155.1,175.5,154.7,175.2,154.8z M176.2,136.1c0.5,0.3,1.3,0.4,1.6,1c-0.6,0-0.8-0.3-1.6-0.2
				C176.2,136.6,176.2,136.4,176.2,136.1z M176.4,138.7c0.1-0.4,1-0.1,1.4-0.2c0,0.3,0,0.5,0,0.8c-1.2-0.4-1.1,1.1-2,0.4
				C175.9,138.9,177,139.4,176.4,138.7z M174.6,138.5c0.3-0.1,0.3,0.2,0.6,0.2c-0.2,0.3-0.2,0.9-0.8,0.8
				C174.2,138.9,174.7,139,174.6,138.5z M175.6,140.8c-0.2,0.5-0.9,0.6-1.6,0.6C174.2,140.9,175,141,175.6,140.8z M173.2,143
				c0.2,0.6-0.2,0.7-0.4,1c-0.3-0.2-0.7-0.4-0.6-1C172.6,143,172.9,143,173.2,143z M173,144.4c-0.2,0.7-0.7,1.2-1.2,0.2
				C172.3,144.6,172.4,144.2,173,144.4z M154.9,205.4c0-0.1,0-0.3,0-0.4c0.8,0.7,0.5-0.9,1.4-0.8c-0.2,0.8-0.7,1.2-1.6,1.4
				C154.7,205.5,154.8,205.4,154.9,205.4z M155.5,214.1c0.5-0.2,0.4-1,1.2-1c0.1,0,0.1,0,0.2,0C156.8,213.9,156,213.8,155.5,214.1z
				 M154.9,236.3c1,0.3,1.7,0.9,2.4,1.6c-0.6-0.2-0.5,0.3-1,0.2c0.1-0.7-0.4-0.6-1.4-0.6C155.3,237.2,155,236.8,154.9,236.3z
				 M155,249.6c0.5,0,0.4,0.7,1.1,0.6C155.4,250.2,155.6,249.6,155,249.6z M158.8,257.8c0.3-0.5,0.9-0.7,1.6-0.4
				C160.1,257.8,159.5,257.8,158.8,257.8z M160.2,256.6c0.5-0.3,1.5-0.5,1-1.4c0.3,0,0.7,0,1,0c-0.3,0.5-0.4,0.4-0.2,1
				C161.1,256,160.9,257.2,160.2,256.6z M173.4,299.2c0.9,0.3,0.9,1.9-0.4,1.2C173.2,300,173.6,299.8,173.4,299.2z M172.4,293.1
				c-0.3,0.7-1.4,0.2-2,0.2C171.1,292.8,171.6,293.4,172.4,293.1z M171.4,284.4c-0.4,0.7-1,1.1-1.8,1.4c-0.1-0.2-0.2-0.4-0.4-0.4
				C169.7,284.8,170.6,284.6,171.4,284.4z M166.3,274.7c0.6,0,1.1,0,1,0.6C167.2,274.9,166.1,275.5,166.3,274.7z M167.5,269.6
				c-0.1,0.6-1.3,0.2-1,1.2c-0.8,0-1.4,0-1.8,0.4c-0.4,0,0.3-0.5,0-1c-0.1-0.7-1.5-0.2-1.6-0.4c0.5-1,2.1-0.2,2.4-1
				c0.5,0,0,0.6-0.2,0.6C166,270.3,167,269.2,167.5,269.6z M162.8,272.4c0.3-0.3,0.5-0.7,1.2-0.6C164,272.4,163.4,272.4,162.8,272.4
				z M162.8,271.8c-0.5-0.4-0.5-1,0-1.4c0.6,0.1,0.6,0.9,1.6,0.6C164.2,271.6,163.3,271.5,162.8,271.8z M166.1,280.8
				c-0.5,0.1-0.8-0.1-0.8-0.6c0.2-0.2,0.4-0.2,0.8-0.2C166.1,280.3,166.1,280.6,166.1,280.8z M168.1,286.6c0.3-0.8,1.8,0.8,1.6-0.6
				c0.3,0.1,1-0.2,1,0.2C170,286.9,169.1,286.9,168.1,286.6z M169.3,288.5c0.1-0.5,0.3-0.9-0.4-1c0.1-0.7,1.5,0.2,2.2-0.4
				c0.3,0.2,0,1,0.8,0.8c-0.3,0.9-1-0.4-2.2,0c-0.1,0.6,1.2,0.2,0.6,0.8c0.6-0.2,0.7,0.2,1,0.4C170.7,289.6,169.9,288.6,169.3,288.5
				z M169.3,290.5c0-0.6,0.6-0.6,1.2-0.6c0,0.2,0,0.4,0.2,0.4C170.3,290.6,169.9,290.2,169.3,290.5z M169.5,295c0.5-0.8,0-0.8,0-1.8
				c0.5-0.1,0.4,0.4,1,0.2c-0.1,0.2-0.2,0.3-0.2,0.6c0.7-0.6,1.3-0.1,2.2-0.4C171.7,294.5,170.7,295.2,169.5,295z M170.3,295.8
				c0.2-0.3,0.9-0.1,1-0.6c0.8,0.4,1.5,0.2,2.2-0.2c0.5,0.2-0.2,0.9-0.2,1.2C171.7,296.2,171.6,295.8,170.3,295.8z M174.8,302.7
				c-0.8,0.1-1.3,0.5-2.2,0.6c0.8-0.8,2.5-1.2,3,0.2C174.9,303.6,174.9,303.2,174.8,302.7z M181.7,311c0-0.2,0.4-0.1,0.4-0.4
				c0.1,0,0.1,0,0.2,0c0.1,0,0.1,0,0.2,0c-0.3,0.7,0.5,0.4,0.4,1c-0.1,0-0.1,0-0.2,0C182.6,311.1,181.9,311.2,181.7,311z
				 M183.4,309.1c0,0,0-0.1,0-0.1C183.4,309,183.4,309.1,183.4,309.1z M183.1,309.5C183.2,309.4,183.2,309.4,183.1,309.5
				C183.2,309.4,183.2,309.4,183.1,309.5z M179.1,302.9c0.7-0.3,0.7-1.3,1.8-1.2c0.4,0.9-0.7,1.3-1.2,2c0,0.2,0.1,0.2,0.2,0.2
				c0.1,0,0.1,0,0.2,0c0.1,0.2,0.4,0.3,0.6,0.4c-1.1,0.4,0,1.2-1.8,0.8c0-0.3,0.3-0.4,0.8-0.4C179.5,303.8,179.3,304,179.1,302.9z
				 M178.5,302.5c0.9,0,0,0.5,0.2,1c-0.4-0.4-0.4,0.1-1,0C177.8,302.9,178.6,303.1,178.5,302.5z M177.2,305.7c0.1-0.4,0.6-0.4,0.4-1
				c0.3,0,0.5,0.3,0.6,0C178.5,304.9,177.5,305.5,177.2,305.7z M180.3,309.6c0.9-0.4,0.5-1.3,0-1.8c0.2-0.5,1.4,0.2,0.8-0.2
				c0-0.2,0.4-0.2,0.6-0.2c-0.1,0.8,0.7,0.6,0.4,1.6c-0.8-0.2-0.6,0.6-0.9,0.9c0,0-0.1,0-0.1,0.1l0,0l0,0l0,0l0,0
				C180.7,309.9,180.8,309.5,180.3,309.6z M180.8,310.2c-0.1,0.1-0.1,0.2-0.1,0.4C180.7,310.4,180.7,310.3,180.8,310.2z
				 M182.5,319.2c0-0.2,0-0.4,0-0.6c0.5,0,0.6,0.3,1,0.4C183.9,319.4,182.8,318.9,182.5,319.2z M187.6,320.8
				c0.1-0.5-0.8-0.2-0.6-0.8c0.4,0,0.7-0.1,0.8-0.4c0.2,0,0.1,0.2,0,0.2c0.1,0.4,0.1,0.8,0.6,0.8c-0.2,0.5-1,0.5-1.6,0.6
				C186.6,320.6,187.2,320.9,187.6,320.8z"/>
			<path class="st3" d="M279.2,53.2c0.7,0.8,2.5,1.7,3.7,1.4c-0.9,0.3-0.3,1-0.8,1.8c0.6-0.3,1,0.5,1.2,0c-0.7-0.9,0.5-1.6-0.6-2.8
				c-0.5,0-0.6,0.3-1,0.4c0.1-0.3-0.2-1,0.2-1c0,0.3,0.5,0.2,0.8,0.2c0.3-0.7,0.4-1.6-0.4-1.2c0.7-0.2,0.2,0.5,0,0.6
				c-0.3-0.1-0.5-0.3-0.6-0.6c0.2,0,0.4,0,0.4-0.2c-0.8-0.2-0.5,0.7-1,0.8c-0.9-0.2-0.5-0.2-1-0.6c0,0.5-0.1,0.8-0.4,1
				c-0.8-0.5-1.9,0.5-2.4,0.2C277.3,54.7,278.9,53.7,279.2,53.2z M280.3,52.8c0.2,0,0.2-0.1,0.2-0.2c0.1,0,0.3,0,0.4,0
				c0,0.2,0.1,0.2,0.2,0.2c0,0.1,0,0.3,0,0.4c-0.2,0-0.2,0.1-0.2,0.2c-0.1,0-0.3,0-0.4,0c0-0.2-0.1-0.2-0.2-0.2
				C280.3,53.1,280.3,53,280.3,52.8z"/>
			<path class="st3" d="M281.9,55c-1,0.9-0.7-0.8-2.2-0.6c-0.1,0.6,0.2,0.7,0.2,1.2c-0.3,0-0.4,0.1-0.6,0.2
				c-0.5,0.1-0.2-0.8-0.8-0.6c-0.6,0.3,0.6,0.4,0.4,1c-0.5-0.1-1,1.3-0.2,1.2c0.1,0,0.1,0,0.2,0c0.6,1.1,2-0.1,2.4-0.6
				c-0.3-0.2-0.4-0.5-0.4-1C281.2,55.5,282,55.7,281.9,55z"/>
			<path class="st3" d="M282.3,57c0.1,0,0.2,0,0.2-0.2c-0.5,0-0.5-0.5-0.8-0.8c0,0.1,0,0.2-0.2,0.2c0,0.1,0,0.3,0,0.4
				c0.2,0,0.5,0.1,0.4,0.4C282,57,282.2,57,282.3,57z"/>
			<path class="st3" d="M266.9,58.3c-0.9,0.1-1.1-1-1.8-0.4C265.3,58.8,266.5,58.9,266.9,58.3z"/>
			<path class="st3" d="M425.7,68.3c-0.4,0.1-0.2-0.9,0-0.9c-0.1-0.4-1,0.3-1.3-0.2c-0.7,0.2,0,0.4-0.4,0.8
				c-0.7-0.2-1.2-0.7-1.4-1.4c0.2-0.1,0.4-0.3,0.4-0.6c0.4,0.1,0.4,0.6,1,0.4c0.2,0,0.3-0.2,0.4-0.4c-1-0.7-1.5,0.3-2.4-0.6
				c0-0.4,0.7,0.2,1.2,0c-0.2-0.4-1.3-1.2-1.6-0.4c-0.2-1.2-2.3-2.6-3.5-2.8c0-0.8-1.6-1.6-2.4-1.8c0.2-1.1-0.8-0.6-1.6-1
				c-0.2-0.1-0.3-0.7-0.4-0.8c-0.6-0.3-1,0.1-1.4-0.2c-0.7-0.6-0.4-1.5-1-2.4c-0.2-0.4-0.9-0.4-0.6-0.8c-2.5,0-3.5-1.5-5.1-2.4
				c-0.3,0-0.3,0.3-0.6,0.4c-0.2,0.6,0.6,0.2,0.4,0.8c-1.1,0.1-1.2-0.6-1-1.2c-0.4-0.2-2.8-1.2-3.1-0.2c-0.3,0.7-0.3-0.6-1-0.2
				c0-0.2,0.3-0.2,0.6-0.2c-0.4-0.7-1.8-0.6-2.4-0.2c0.1,0.4,1,0,1.2,0.4c-0.3,0.4-1.8,0.2-2.4-0.2c-0.3,0.6-1.1,0.7-1.8,0.4
				c-0.3,0-0.2,0.3-0.4,0.4c0.3,0.8,1.1,0,1.6,0.4c-0.6,1-1.3,0-2,0c-1.1,0-2.8,0.8-3.3,0.6c-1.1-0.4,0.5-0.3,0.2-0.8
				c-0.3-0.5-2.9-1.4-3.2-1c0.2,0.4,0.8,0.4,1.4,0.4c-0.2,0.9,1,0.5,0.8,1.4c-0.6,0.4-1-0.8-2-0.6c-0.1,0.6,0.2,0.8,0.6,1
				c-0.4,0.5-1-0.4-1.8-0.2c0.1-0.7-0.2-1.3-1.2-1.4c-0.7-0.1-0.5,0.8-1.4,0.6c0-0.2-0.2-0.3-0.4-0.4c0.3-0.7,0.2-1,0.4-1.6
				c-0.9,0-1,0.7-1.6,0c0.9-0.2,0.3-0.8,1-1c-0.3-1-1.3-1.2-2.4-0.6c0-0.3,0.3-0.3,0.2-0.6c-0.5,0-0.9,0-1.4,0
				c-0.1,0.5,0.9-0.1,0.6,0.6c-1.6-0.3-1.6,0.2-3,0.4c0.1-0.3,0.3-0.5,0.4-0.8c-1.1-0.8-2,0-3.1-0.6c0.3-0.4,1.3-0.1,1.4-0.8
				c-0.7-0.4-2.4-0.4-3.3,0c-0.7-0.3-1.4-0.9-1.2-1.2c-0.2-0.5-1.3-0.1-1.4,0.2c-0.8-0.2,0.1-0.6,0.2-1c-0.1-0.4-1.1-0.1-1.6-0.2
				c0.2-0.5,1-0.4,1.6-0.6c-0.5-0.7-1.7-1.7-2.8-1.2c-7.4-3-18.1-8.4-27-4.5c-0.3,0.2-0.8,0.2-1,0.6c-0.1,0-0.1,0-0.2,0
				c-0.5-0.1-0.4,0.4-1,0.2c-2.3,1.4-5.6,0.7-8,2.1c-0.1,0-0.2,0-0.2,0c-5-0.8-10.1,2.1-15.6,2.2c-2.5,0-5,0.4-7.5,0.6
				c-2.1,0.2-5.1,0.2-6.7,1.4c-0.4-0.1-0.4-0.3-0.2-0.6c-1.2,0.4-4.3,0.4-4.7,2.2c-0.3-0.1-0.2-0.6-0.8-0.4c-0.2,0-0.2,0.4-0.2,0.6
				c0,0.2,0.4,0.2,0.6,0.2c-0.9,1-1.6-0.3-2.2-0.8c-0.3-0.1-0.3,0.2-0.6,0.2c0,0.3,0.1,0.5,0.4,0.6c-0.7,0.4-1.3,0.2-2.2,0.2
				c-0.2,0.7,0.7,0.4,0.8,0.8c0.5,0.1,0.2-0.6,0.6-0.6c0.6-0.2,0.3,0.4,0.4,0.8c0.7,0.2,0.8-0.3,1.4-0.2c-0.5,0.2-0.5,0.8-0.8,1.2
				c-0.7,0-0.5-1.1-1.2-1.2c-0.1,1.5-1.7,0.6-2.8-0.4c-0.4,0.3,0.5,0.4,0,1c-0.5,0.4-0.8-0.3-1.2,0.2c-0.4-0.1,0.3-0.8,0.8-0.8
				c-0.5-0.8-2.9,0.6-3.5,0.4c0.3,0.5,0.6,0.9,0.8,1.4c-1.9-0.6-1.2,0.9-2.6,0.6c-0.1,0.7,0.7,0.6,1.2,0.8c0.3-0.2-0.1-0.3,0.2-0.8
				c0.5,0.6,0.7,0.2,1.6,0.2c-1.1-0.9,0.9-0.2,0.8-1.2c0.8,0.1,0.9,0.8,0.8,1.8c0.6,0.1,0.6-0.4,1.2-0.4c-0.4-0.3-0.4-1.1-1.2-1
				c0.1-0.2,0.2-0.4,0-0.4c0-0.6,1-0.3,1.6-0.4c-0.6,1.7,1.8,0,2,0.8c0.1,0.4-0.3,0.4-0.6,0.4c0.3,0.1,0,0.8,0.4,0.8
				c0.7-0.1,0.5-0.5,0.4-1c0.7,0,0,0.8,0.4,0.8c-0.3,0.6-1.2,0.4-1.8,0.2c-0.1-0.6-0.1-0.4,0-1c-0.4,0-0.4,0.2-0.8,0.2
				c0.1,0.7,0.8,0.9,1.2,1.4c-0.2,0.4-0.7,0.7-1,0.4c-0.8,0.5,0.4,1.9,0.2,2.4c-0.2,0.3-0.6,0.4-1.2,0.4c-0.3-0.4,0-0.3,0-0.8
				c-0.8-0.1-1.4,0.1-1.4,0.8c-0.8-0.2-1,0.3-1.8,0.2c-0.1-0.8,0.4-0.1,0.8-0.2c-0.1-0.3-0.4-0.4-0.8-0.4c0-0.4,0.6-0.1,0.6-0.6
				c-0.3-0.8-0.4,0.1-1,0c0-0.3,0.2-1-0.4-0.8c-0.1,0-0.1,0-0.2,0c-0.6-0.2-0.5-1.1-1.4-1c-0.3,0.3,0.5,1.2,0.2,2.2
				c-0.3,0-0.5,0-0.8,0c0,0.5,0,0.9,0.2,1.2c1-1.2,0.1,1.3,1.6,0.8c-0.9,0.8-1.4-0.3-2.6,0.2c0-0.5,0.3-0.4,0-0.8
				c-0.8,0-0.6,0.6-1.2,0c-0.6,0.4-0.3,1.3-0.8,2.2c-0.6-0.3-0.1-0.8-1-1c-0.6-0.1-0.4,0.5-1,0.4c-1.4-0.4-0.9-2.5-1.8-2.6
				c0.4-0.7,0.9-1.1,1.2-1.4c-0.4-0.4-0.4-0.2-0.2-0.8c-0.7-0.1-0.9,0.9-1.4,0.4c0.2,1.2-0.3,0.8-0.8,1c-0.1,0.8,1,1.4,0.2,1.8
				c-0.3-0.1,0.2-0.8-0.4-1c-0.4,0.6,0.2,1.1-0.8,1.2c0.1,1.3,0.3,1.6,0,2.4c-0.4-0.5-0.8-0.9-1-1.6c-0.4,0-0.3,0.5-0.8,0.4
				c0.3-0.9-1.3,0.1-1-0.8c0.7,0,0.6,0.2,1.2,0c-0.3-1-1.9-0.9-1.6-2c-0.5,0.5-0.8-0.1-1,0.6c-0.2,0-0.2-0.4-0.2-0.6
				c-0.3-0.1-0.3,0.2-0.6,0.2c0,1,1,1,1.6,1.4c0,0.8-0.2,0.1-0.6,0.2c-0.2,0-0.4,0-0.6,0c-0.4,0.4-0.6-0.3-1.2-0.2
				c-0.3,0.6,0.2,0.4-0.6,0.6c-0.7,1.7,1.7,1.8,1.8,0.6c0.9,0-0.4,1.1,0.6,1c-1.1,1.1-1.5-0.3-3,0.2c0.1-0.8-0.1-2-0.4-2.6
				c-0.7,0.5-0.1,1.8-0.4,2.4c-0.7,0.2-1-0.4-0.6-0.8c-0.6,0.1-0.8,0.6-1.6,0.6c0-0.3,0-0.5,0-0.8c-0.6-0.1-0.3,0.7-0.8,0.2
				c0.1,1.3,1.4,1.3,2.2,2c-0.3,0.9-0.9,0.1-1.2-0.2c-0.3,0.3,0.3,0.4,0,1.2c-0.9,0.1-0.3-1.3-1.2-1.2c-0.3,0.1-0.2,0.5-0.2,0.8
				c-0.8,0-1.3-0.4-1.6-1c0.1-0.2,0.4-0.3,0.6-0.4c-1.3-0.8-2.2,1.1-1.8,2.2c0.1,0.3,0.7,0.2,0.8,0.4c0,0-0.4,1.1,1,0.8
				c0.6-0.2-0.3-0.5,0-1c0.2,0.1,0.2,0.5,0.6,0.4c0,1.1-1.5,1.3-1,2.4c-0.6-0.3-0.8-0.8-1.4-0.4c-0.7-0.4,0.9-0.9-0.4-1
				c0.1-0.3,0.3-0.5,0.6-0.6c-0.3-0.3-0.7-0.5-0.8-1c-0.5,0.5-1.4,0.5-1.4-0.6c0.4,0.1,0.5,0.4,1,0.4c0.6-0.2-0.3-0.5,0.2-0.8
				c-0.5-0.1-0.4,0.4-1,0.2c0.3-0.7,0.7-0.7,0.4-1.6c-0.5-0.1-1,0.8-0.6,1c-0.4,0.2-0.9,0.4-1.4,0.6c-0.2-0.5-0.9-0.6-1.6-0.6
				c0.6,0.5,0.2,0.7,1,1c-0.4,0.7,0,0.8,0.6,1c0,0.7-0.1,1.4,0.4,1.6c-0.6,0.5-0.3,1.2-0.2,2.2c-0.6-0.2-1-1.2-0.6-1.8
				c-0.7-0.2-0.6,0.5-1.2,0.4c-0.1-0.6,0.1-1.5-0.6-1.6c0.2-0.4,0.7-0.5,1-0.8c-0.5-0.3-0.4-0.7,0.2-0.8c-0.2-0.4-0.8-0.4-1.4-0.4
				c0-0.2,0.4-0.2,0.6-0.2c-0.6-0.7-1.7-0.3-1.6,0.8c-1.8-0.6-5,0.3-5.3,2.4c-1.4-0.5-2.9,0.1-2.4,1.4c1.2,0.2,1.7-1.8,2.8-0.6
				c0.1,0.6-0.4,0.6-1,0.6c0.1,0.4,0.9,0.1,1,0.6c0.1,0.8-1.2,0.1-1.2,0.8c-0.6,0.1-0.7-0.4-1.4-0.2c-0.4,0.2-0.7,0.5-0.6,1.2
				c-1.4-0.5-2.1-1.6-3.5-1c-0.1,0.3,0.2,0.3,0.2,0.6c0.7,0.2,1-0.4,1.4,0c-0.6,0.6-2.5,0.5-3.3,0.2c-0.3,0.1-0.3,0.3-0.6,0.4
				c0.1,0.4,0.5,0.4,0.6,0.8c0.8-0.9,2.4-0.7,3.7-0.4c-0.6,0.9,0.6,0.7,0.6,1.6c-1.4,0.3-1.9-1.8-3.9-1c-0.5,0.4-0.9,1.1-1.8,1.2
				c1-1.5-2.1-0.4-2.2,0.6c0.1,0.3,0.4,0.4,0.8,0.4c-0.7,0.4-2.3,0-2.6,0.8c0.1,0.3,0.5,0.2,0.8,0.2c-0.1,0.8-0.6,0.1-0.6,0.8
				c-1.7-0.8-1.3,0.9-2.6,1c-0.2,0.8,0.9,0.2,0.8,1c-1.2,0.3-2-0.5-3.2,0.4c0.1,0.5,0,0.8-0.2,1c-0.9-0.2-1,0.3-1.6,0.4
				c-0.1,0.4,0.3,0.4,0.6,0.4c-1.1,0.3-1.9,1-3.2,1.2c0.1,0.6-0.2,0.7-0.2,1.2c-1,0.2-0.6,0.5-1.8,0.4c-0.5,0.8-1,1.7-1,2.4
				c0,0.6,0.9,0.3,1.2,0.6c0.2,1,0.1,1.1,0.2,2.2c-2,0.6-3.2-0.4-4.1,1c0.1,1,1.4,0.7,1.4,1.8c-1.8-0.7-3.9-0.2-5.7-0.6
				c0.7,0.7,1.3,0.2,1.6,0.8c1.1-0.2,2.2-0.6,3.2,0c-0.1,0.4-0.4,0.6-0.6,1c-0.7-0.2-0.9-1.1-1.8-0.6c-0.1,0.5,0.8,0.2,0.6,0.8
				c-0.4,0.1-0.6,0.5-1.2,0.4c-0.4-0.4,0.1-0.4,0-1c-0.9,0.2-1.3-0.3-2.2-0.2c0,0.6,0.8,0.5,0.8,1.2c-0.3,0.5-1.1,0.4-2,0.4
				c0.7,1.3,1.9,0.3,3.3,0.8c-0.3,0.8-1.8,0.3-2.4,0.8c0.1-0.7-1.2-0.2-2-0.2c0.2-0.7,0.9,0.2,0.8-0.6c-1.2-0.6-3.5,0.6-3.5,2.2
				c0.7-0.3,1.2,0.1,1.6,0.6c0.2,0.6-0.6,0.3-0.8,0.6c-0.1,0.5,0.9-0.1,0.6,0.6c-1.7,0.3-3.2-0.2-4.1-0.4c-0.3,1-2.8,1.4-3.9,2.2
				c0.1,0.2,0.2,0.4,0.4,0.4c-1.7,0.6-3.1,1.6-4.5,2.6c0.1,0.2,0.2,0.3,0.2,0.6c-2.2,1.2-2,2.7-4.1,3.5c0.5,0.3-0.2,0.7,0.2,0.8
				c-3.7,0.9-5.5,5.4-8.5,7.7c0.5,0.5,0.4,0.7-0.2,1c0.2,0.6,0.7-0.2,1.2,0c0.2,0.7-1.2,0.4-1.4,0.2c-1,0.3-0.8,1.8-1.4,2.6
				c0.2,0.3,0.7,0.4,1.2,0.4c-0.8,0.3-1.6,0.7-2.8,0.8c0.2,1.1-0.2,1.5,0.4,2.2c0.6-0.3,1-0.2,1.2,0.4c0.7-0.1,0.7-0.9,1.6-0.8
				c0.3,0.6-0.3,1.8-0.2,2.4c-1-0.2-1.6,0.1-1.4,1.2c0.8,0.2,0.6-0.6,1.2-0.6c0.5,0.2,1,0.6,1,1.4c-0.9-0.5-1.2,0.2-1.2,0.6
				c0.2,0.3,0.8,0.2,1.2,0.4c-0.1,0.2-0.4,0.3-0.6,0.4c0.7,0.5,1.8,0.4,1.8,1.6c-1.2,0-1.9-0.3-2.6-0.8c-0.3,0.3-0.6,0.6-0.8,1
				c1,0.6,2.3-0.4,3.3,0.2c0.1,0.9-1,0.6-1.2,1.2c0.1,0.2,0.4,0.3,0.6,0.4c0.2-0.5,0.8-0.5,1-1c0.2,0.1,0.3,0.4,0.4,0.6
				c0.1-1.5,2-2.8,1.4-5.1c0.7,0.1,1.1-0.2,1.6-0.4c-0.1-0.2-0.5-0.2-0.4-0.6c0.5-0.3,1-0.7,1.4-1.2c-0.1-0.2-0.3-0.4-0.6-0.4
				c0.2-0.3,0.3-0.6,0.6-0.8c0.5,0.1,0.7,0.5,1.2,0.6c0.6-1-0.1-3.7,2.8-3.3c0-0.8-0.3,0.1-0.6-0.4c0.3-0.5,0.7-0.9,1.6-0.8
				c-0.8,1.7,2.4,2.4,1.8,1c2.8-1.3,3.3-4.9,5.9-6.3c0.1-0.4,0-0.7-0.4-0.8c0.5-0.5,1.1-0.9,1.8-1.2c0-0.2,0-0.3-0.2-0.4
				c2-1.4,2.7-4,4.5-5.5c-0.1-0.2-0.4-0.3-0.6-0.4c0.4,0.1,0.5-0.5,0.4-1.4c0.4-0.4,0.4,0.1,0.8,0.2c0.4-0.1-0.3-0.5,0.2-0.8
				c0.7-0.3,1.3,0.3,2-0.2c-0.5-0.5-1.1-0.3-1.8-0.2c-0.2-0.2-0.1-0.5-0.4-0.6c0-0.6,0.8-0.4,1.4-0.4c0-0.4-0.2-0.4-0.2-0.8
				c0.4,0.4,1.5,0.2,2,0c-0.2-0.3-0.5-0.4-1-0.4c0.5-0.5,1.9,0.5,2.2-0.6c-0.2-0.4-0.8-0.4-1.4-0.4c0.1-1.8,2.5-0.4,3.5-1
				c0-0.9-1.1-0.6-1.6-1c1.2-1.5,3.4-0.9,3.3-2.6c0.5,0,0.9,0,1.2-0.2c0-0.3-0.3-0.5-0.8-0.4c1.4-1.9,3.8-1.6,5.9-1.8
				c-0.3-0.9-0.7-1.7-1.8-1.8c0-0.4,0.2-0.4,0.2-0.8c0.7,0.5,1.5,0,1.6,1.4c0.6-0.2,0.5,0.3,1,0.2c0.6-1,2.6-0.5,3.3-1.4
				c-0.4-1-4.6,1-4.3-1.6c2,0.2,3.9,1,6.1,0.4c-0.6-0.5-1.1-1-1.6-1.6c-1.3-0.3-1.8,1-2.6,0.6c-0.1-0.4,0.4-0.3,0.4-0.6
				c-2.1,1-2.3-1.1-3.9-1.2c0.7-0.7,2.7,0.6,4.1,1c1.6-0.5,2.8,0.1,3.5,1c1.3-0.9,4.5-0.8,4.1-2.8c1.4,0.2,2.9-0.6,2-1.6
				c3.1,0.5,5-1.6,7.7-2.8c0.1,0,0.2,0,0.2-0.2c0.2,0,0.2-0.2,0.4-0.2c0.1,0,0.1,0,0.2,0c0.1-0.6,0.8-0.5,1-1
				c-0.6-0.6-0.7-1.5-0.4-2.2c0.4,0.1,1.5,1.5,0.4,1.6c0.4,0.6,2.3-0.2,2.4-1.2c0.4,0,0.8,0,1.2,0c-0.3-1-1.6,0.2-1.4-1.2
				c-0.3,0-0.5,0-0.8,0c-0.3,0.1-0.4,0.4-0.4,0.8c-1.2-0.1-1.8-0.9-2-1c-0.5-0.2,0.2-0.7,0.2-1c1.3,0,2.3,0.8,3.5,0
				c0.4,0.4,0,0.5,0,1c1.2-0.1,1.4-0.5,2.4-0.2c-0.6,0.2-1.1,0.6-1.8,0.8c1.9,1,3.7-1.3,4.9-2.2c0.1,0,0.1,0,0.2,0
				c0.1,0,0.1,0,0.2,0c0-0.2,0.2-0.3,0.4-0.4c-0.7-0.5-0.9-0.6-1.8-0.8c0.3-0.9,1.9-0.3,2.4-1c-0.9-0.3-0.4-0.9-1.2-1.2
				c-0.1-1,1.4-0.4,2.2-0.6c-0.2,0.6-0.6,0.5,0.2,0.8c-0.1,0.4-0.3-0.2-0.6,0.2c0.8,0.8,1.5,1,3,0.8c-1.1-0.5,0-1.2,1.2-0.8
				c0.2-0.3,0.6-1.2,0-1.2c0.8,0.2,1.7-0.5,2.8-0.6c-0.8,0.5-0.6,1-1.8,1c0.2,0.3,0.7,0.3,0.8,0.6c1.9-1.6,5.4-1.5,6.5-4.3
				c-0.3-0.4-1.2-0.1-1.4-0.6c0.5-0.6,0.9,0.6,1.8,0.2c0.4-0.1-0.3-0.6-0.4-0.8c0.7-0.6,1,0.8,2.2,0.4c-0.1-0.6-0.9-0.3-0.4-1.2
				c0.4,0.3,0.4,1,1.2,0.8c-0.4,2.4,3.3,0.5,4.5-0.4c-0.4-1.1-1.5,0.4-2-0.2c0-0.8,0.7-0.8,0.2-1.6c0.7,0,0.8,0.7,1.8,0.4
				c-0.1,0.3-0.4,0.2-0.6,0.4c0,0.3,0.5,0.2,0.8,0.2c0.3-0.2,0.3-0.6,0.4-1c0.4,1,2.1,0,1.2,0.6c0,0.6,1.3-0.2,1,0.6
				c0.9,0.1,0.5-1,1.4-1c0.1-0.7-1.2,0-1-0.8c0.8-0.4,1.3,0.2,2-0.2c0-0.3-0.3-0.3-0.2-0.6c-0.3,0-0.2,0.5-0.6,0.4
				c0-0.4,0-0.8,0-1.2c0.6,0.1,1.5,0.5,1.6-0.4c2.2,0.9,4.6-1.4,6.1-0.6c0,0.2-0.3,0.2-0.6,0.2c0.1,0.4,0.6,0.4,0.2,0.8
				c0.6-0.1,0.9-0.6,1.8-0.4c0,0.4-0.7,0.1-0.6,0.6c1.5,0.1,1.8-1.2,3-0.8c0.1-0.5-0.4-0.4-0.6-0.6c2.8,0.9,7,0.3,10.2-0.8
				c0.1,0,0.1,0,0.2,0c3.5-0.3,7.3-1.2,10.6-0.4c2.7-1.8,10.6-0.1,15.4-0.4c-1-0.2-2-0.3-3-0.4c1,0.1,2,0.2,3,0.4c0.1,0,0.1,0,0.2,0
				c0,0.1,0,0.1,0,0.2c3.7-0.5,6.2,0.6,9.7,0.8c0.1,0,0.1,0,0.2,0c0,0.1,0,0.1,0,0.2c0.1,0,0.3,0,0.4,0c2.8-0.3,5.7,0.6,7.9-0.2
				c3.9,1.2,8.5,2.5,13.2,2.2c0.5,0,1.1,0,1.6,0c0.2,0.2,0.5,0.3,1,0.2c0,0.3,0.5,0.2,0.8,0.2c0.5,0.4,1.2,0.6,1.8,1
				c3.2,0.7,5.7,2.2,8.3,3.5c1.5-0.2,4.7-0.2,5.5,0c0.4,0.1-0.1,0.4,0,0.4c1.8,1.2,6.2-0.4,8.3,0.8c0.9,0.5,1.2,1.8,2,2.4
				c2.2,0.1,3.3,1.3,4.7,2.2c1.3-0.5,2.1,0.8,3.3,1c0,0.2-0.2,0.2-0.4,0.2c1.3,1.7,3.8,2.3,6.3,3c-1,1.5,4,1.6,5.5,2
				c-0.2,1.3,1.4,0.8,1.6,1.8c0.2-0.1,0.4-0.3,0.4-0.6c0.6,1.4,5.7,1.8,5.3,3.9c0.9,0.8,5.2,1.5,6.8,1.2 M425.1,71.1
				c0,0.5,0,1,0,1.6c-0.3,0-0.5,0-0.8,0c0-1,0.9-1.6-0.6-1.6c0.3-0.4,1.2-0.3,1.6-0.6c-0.2-0.6-0.8,0.1-1.2,0
				c-0.2-0.5-0.2-1.5,0.8-1.4 M211.2,96c-0.5,0.8-1.1,0.6-2,0.2C209.5,95.7,210.6,96.1,211.2,96z M209.2,96.7
				c0.8,0.1,0.2,1.7,1.2,1.8c-0.5,0.8-1,0.1-2,0c0.1-0.7-0.1-1.2-0.6-1.4C207.9,96.6,209.2,97.3,209.2,96.7z M189.6,117.4
				c0.5,0.1,0.8,0.2,1.2,0.4c-0.3,0.7-0.4,1.7-1.4,1.8C190,118.8,189.1,118.3,189.6,117.4z M197.6,109.9c0.6,0.1,1.1,0.3,1.2,1
				c-0.5,0-0.6,0.3-0.8,0.6C197.7,111.2,197.8,110.5,197.6,109.9z M197,109.3c0.1,0.7-0.9,0.3-0.6,1.2c-0.7-0.2,0-0.6-0.4-1.2
				C196.4,109.3,196.7,109.3,197,109.3z M200.8,108.4c-0.6,0-1.3,0.1-1.2-0.6c0.4,0.4,1,0,0.8-0.8c0.7-0.1,1.2,0.2,1.2,0.8
				C201.2,107.4,200.6,107.7,200.8,108.4z M193.5,110.9c0-0.4,0.8-0.1,1.2-0.2c0,0.2,0,0.3,0.2,0.4
				C194.6,111.9,193.9,111.1,193.5,110.9z M194.7,112.1c-0.3,0.6-1.2,0.4-1.2-0.4C194.2,111.5,194.3,111.9,194.7,112.1z M208.1,99.3
				c0.4,0.1,1.3-0.2,1.4,0.2c0,0.8-1.2,0.2-1.4,0.8C207.6,100.2,208,99.4,208.1,99.3z M202.8,102.3c0.2,0.6-0.3,0.5-0.4,0.8
				c-0.3-0.6-0.7-0.4-1-1.2C202,101.8,201.9,102.5,202.8,102.3z M197.6,107.2c-1,0-2.1,0.1-2.2-0.8
				C196.6,106.3,197.4,106,197.6,107.2z M195.7,108.7c0.1,0.4-1.5-0.1-0.8,1.2c-1.1-0.2-1.9-0.3-2-1.6
				C194.2,108.1,194.5,108.9,195.7,108.7z M189.2,114.5c-0.1,0.5,0.4,0.4,0.6,0.6c-0.8,0.5,0.3,1.2-0.8,1.4c0.2-1.2,0.1-1.4-0.8-1.8
				C188.1,114.2,188.9,114.6,189.2,114.5z M186.2,118.4c0.1-0.4,0.1-0.8,0.4-1c0.8-0.1,0.5,0.8,1,1
				C187.2,118.9,186.7,118.7,186.2,118.4z M188.4,121.5c0.3,0,0.5,0,0.8,0C189.3,122.3,188.2,122.3,188.4,121.5z M199.8,113.3
				c0-1.4,0.8-0.3,1.6-0.4C201.1,113.2,200.5,113.3,199.8,113.3z M200.6,110.5c0.3-0.6,1.1,0.1,1.4,0.2c-0.1,0.7-0.7,0.9-0.6,1.8
				C200,112.5,201.1,111,200.6,110.5z M205.7,111.1c-1,0-1.1,0.5-2.4,0.6c0-0.5-0.4-0.7-0.6-1c0.5-0.7,2.1-0.3,2.6-1
				C206.8,110,204.8,111,205.7,111.1z M207.9,108.4c-0.8,0.1-0.7-0.8-1.4-0.8C206,107.4,208.4,107.3,207.9,108.4z M207.9,105.8
				c0.1,0.2,0.3,0.4,0.6,0.4c-0.4,0.9-1.6-0.2-1.8-0.8c1.2,0.2,1.1,0,2.2-0.2C208.9,105.8,208.4,105.8,207.9,105.8z M210.6,98.7
				c0.1-0.3,1.7-0.1,1-0.6c0.1-0.3,0.5-0.2,0.8-0.2C211.9,98.4,211.4,99.1,210.6,98.7z M212,96.5c0.3,0.5-0.3,0.8,0.4,0.8
				c-0.1,0.4-1,0.2-1.2,0c-0.1-1,1.3-0.7,0.8-1.6c0.4,0,0.8,0,1.2,0c-0.1,0.2-0.5,0.3-0.2,0.4C212.8,96.4,212.4,96.4,212,96.5z
				 M215,93.2c0.1,0.7,1,0.5,1,1.4c-1.2-0.6-1.3-1.6-3-1.4c0.9-1,1.7-0.5,3.2-0.8C216.1,93,215.3,92.9,215,93.2z M216.3,92.2
				c0.8-0.2,1,0.3,1.8,0.2c-0.2,0.6,0.3,0.5,0.2,1c-0.5,0-1,0-1.6,0C217,92.6,216.1,93,216.3,92.2z M225.2,82.6c0-0.3,0-0.7,0-1
				c0.3,0,0.7,0,1,0c-0.1,0.6,0.5,0.4,0.4,1C226,82.3,225.9,82.5,225.2,82.6z M276.6,59.1c0.5-0.1,0.4,0.4,1,0.2
				c-0.4,0.7-0.7,0.7-1.4,0.8C276,59.5,276.9,59.9,276.6,59.1z M272.3,60.8C272.3,60.8,272.3,60.8,272.3,60.8
				C272.3,60.8,272.3,60.8,272.3,60.8z M271.9,60.4c-0.1,0.2-0.1,0.4-0.2,0.5C271.8,60.8,271.8,60.6,271.9,60.4z M271.7,61L271.7,61
				C271.7,61,271.7,61,271.7,61C271.7,61,271.7,61,271.7,61z M272.2,60.8C272.2,60.8,272.2,60.8,272.2,60.8
				C272.2,60.8,272.2,60.8,272.2,60.8z M271.9,60.4c0.1-0.2,0.2-0.4,0.3-0.7C272.1,60,272,60.2,271.9,60.4z M271.4,61.5
				C271.4,61.5,271.3,61.5,271.4,61.5C271.3,61.5,271.4,61.5,271.4,61.5z M271.6,61.3C271.5,61.3,271.5,61.3,271.6,61.3
				C271.5,61.3,271.5,61.3,271.6,61.3z M271.2,61.7c-0.1,0.1-0.2,0.1-0.3,0.2C271,61.8,271.1,61.8,271.2,61.7z M270.7,61.9
				c-0.1-0.7-1-0.7-0.4,0c-0.8,0.6-1.5-0.6-2.4-0.6C268.3,60.2,271,60.2,270.7,61.9z M267.3,62.5c-0.3,0.5-1.3,0-1.2-0.6
				C266.7,61.9,266.8,62.4,267.3,62.5z M264.2,63.3c0.2,0.2,0.1,0.4,0.2,1c-0.4-0.1-0.5,0.1-0.8,0.2c0.1,0.2,0.5,0.2,0.4,0.6
				c-0.2,0-0.4,0-0.6,0C263.3,64.1,263.9,63.9,264.2,63.3z M262.4,66.4c-0.7,0-1.1-0.4-1.2-1C261.9,65.1,262.6,65.3,262.4,66.4z
				 M259.3,64.8c-0.2,0-0.4,0-0.4,0.2c-0.9-0.2,0.6-1-0.6-1.2C258.9,63,259.4,64.1,259.3,64.8z M252.8,67.6c0.7-0.1,1.1,0.1,1.6,0.2
				c-0.1,0.4-0.5,1.1,0.2,1.2c0,0.9-1.1,0.1-1.4,0C253.7,68.2,253,68.2,252.8,67.6z M254.3,67.2c-0.6-0.1-0.8,0.4-1.2,0
				C253.2,66.6,254.2,66.5,254.3,67.2z M256.9,66.2c0.3,0.1,0,0.2-0.2,0.2c0,0.4,0.1,0.7,0.4,0.8c-0.1,0.3-0.4,0.4-0.8,0.4
				C256.4,67,256.4,66.4,256.9,66.2z M255.7,62.3c0.3,0.1,0.2,0.5,0.2,0.8c-0.7,0.1-1-0.1-1.4-0.4C254.4,62.2,255.9,63.2,255.7,62.3
				z M252.6,63.1c0.2,0,0.2,0.1,0.2,0.2c0,0.5,0.3-0.3,0.8,0c0.2,0.3,0.1,0.3,0,0.6c1-0.2,0.7-0.5,1.6,0c0,0.4-0.2,0.4-0.2,0.8
				c-0.2-0.1-0.3-0.2-0.6-0.2c-0.2,0.7,0.6,0.3,1,0.4c-0.2,0.5-0.4,0.8-0.2,1.4c-0.3,0-0.5,0.1-0.6,0.4c-0.8-0.3-1.1-1.3-1.8-0.6
				c-0.2-0.2-0.3-0.5-0.2-1c0.7,0.2,1,0,1.8,0.4c0-1-1-0.8-2-0.8c0-0.7,0.3-0.1,0.8-0.4c0-0.7-0.3-0.5-0.8-0.4c0-0.2,0-0.3-0.2-0.4
				C252.2,63.2,252.6,63.3,252.6,63.1z M248,71.7c-0.4,0-0.8,0-1.2,0c0.3-0.4,0.6-0.7,1.2-0.8C248,71.2,248,71.5,248,71.7z
				 M247.8,69.6c0,0.3,0,0.5,0,0.8c-0.9,0-0.8-0.9-1.8-0.8c0.1-0.3,0.3-0.3,0.4-0.6C247,69.1,247.2,69.6,247.8,69.6z M242.3,72.9
				c0.1,0.5-0.4,0.5-0.8,0.6c-0.2-0.2-0.2-0.4-0.2-0.8C241.6,72.9,241.9,73,242.3,72.9z M243.3,74.3c-1.1-0.2-1.2,0.6-2,0.2
				C241.4,73.5,243.4,73.1,243.3,74.3z M240.6,71.1c0.1,0.6-0.6,0.4-1,0.6C239.5,71.1,240,71.1,240.6,71.1z M239.6,73.5
				c-0.2,1.5-1.7,0-3.1,0.4C237,72.4,238.1,74.5,239.6,73.5z M233.5,77.2c0.3,0,1.3-0.6,1.2,0.2C234.1,77.1,233.4,78,233.5,77.2z
				 M232.7,77.4c-0.1,0.4-0.4,0.6-0.6,1c-0.4-0.1-0.5-0.4-1-0.4C231.1,77.3,232.2,77,232.7,77.4z M230.1,80
				c-0.5-0.3-1.6,0.4-1.8-0.6C228.8,79.1,230.5,78.9,230.1,80z M228.5,80c-0.2,0.4-1.4,0.2-1.6,0C227.4,79.7,227.7,80,228.5,80z
				 M228.3,81.2c1-0.3,1.9-1.1,3-0.8c-0.9,0.3-1.8,0.4-1.8,1.6c-0.3,0-0.7,0-1,0C228.7,81.8,229,81,228.3,81.2z M234.3,83.3
				c0.8-0.7,1.1,0.7,1.2,1.4C234.6,84.3,235,83.7,234.3,83.3z M235.4,75.5c0.8-0.7,0.7,1.1,1.8,0.8c-0.2,0.4-1.5,0.2-1.8,0
				C235.2,75.9,236,75.6,235.4,75.5z M238.2,80.6c0.5-0.1,0.8,0,1,0.2C239.2,81.4,238,81.3,238.2,80.6z M241.5,79.8
				c0,0.4,0.2,0.4,0.2,0.8c-0.7,0-0.9-0.6-1-1.2c0.5,0,0.9,0,1.4,0C242.2,79.8,241.9,79.8,241.5,79.8z M250.2,70.6
				c0-0.4,0.5-0.4,1-0.4C251.2,70.9,250.7,70.7,250.2,70.6z M250.2,69.6c0.7-1.1,2,0.2,3,0.2C252.4,70.8,251.6,69.1,250.2,69.6z
				 M253.6,72.9c1.1-0.8-0.8-0.6-1.4-0.4c-0.2-0.4-0.5-1.1-0.2-1.4c0.9,0.5,2.1,0.8,2.6,1.8C254.2,72.9,253.9,72.9,253.6,72.9z
				 M256.5,70.6c-0.3-0.9-1-0.1-1.2-1c0.7,0,0.6-0.2,1.2,0C256.5,69.9,256.5,70.2,256.5,70.6z M259.1,65.6c0.1,0,0.3,0,0.4,0
				c0.6,0.3,0.7,0.3,1.2,0.4c0,0.3,0,0.7,0,1C260,66.6,259,66.7,259.1,65.6z M264.2,67.4c0-0.4,0.7-0.1,0.6-0.6
				c0.4,0.1,0.4,0.6,1,0.4C265.6,67.6,264.7,67.3,264.2,67.4z M269.3,64.8c-0.7,0.1-0.3-0.7-0.8-0.8
				C268.8,63.6,269.5,64.3,269.3,64.8z M277.2,64.1c-0.2-0.2-0.5-0.3-1-0.2c0.2-0.6,0.6-1.1,1.4-1.2
				C277.7,63.4,277.1,63.4,277.2,64.1z M284.7,56.8c0-0.2,0-0.4,0-0.6c0.6,0,0.4-1.4,1.2-0.6c0.3,0.5,0.4,0.4,0.2,1
				c-0.1-0.1-0.8-0.5-0.8,0c0.2-0.1,0.7,0.6,0.2,0.6C285.1,57.1,284.8,57,284.7,56.8z M288.2,58c0-0.3,0-0.5,0-0.8
				c0.9-0.2,0.6,0.8,1.4,0.8C289.4,58.5,288.6,57.9,288.2,58z M312.2,46.1c0,0.1,0,0.1,0,0.2C312.2,46.2,312.2,46.2,312.2,46.1z
				 M333.2,42.5L333.2,42.5c-0.5,1-1.8,0.8-3.3,0.8C331.4,43.3,332.7,43.5,333.2,42.5z M415.2,73.9c-0.6-0.2-0.5,0.3-1,0.2
				c0.3-0.3,0.3-0.7-0.2-0.8c0.4-0.4,1-0.4,1.6-0.2C415.5,73.4,415,73.3,415.2,73.9z M304.3,56.2C304.3,56.2,304.3,56.1,304.3,56.2
				C304.3,56.1,304.3,56.2,304.3,56.2z M304.2,56.1c0,0-0.1,0-0.1-0.1C304.1,56,304.2,56.1,304.2,56.1z M304.7,51.3
				c0.4-0.4,1.2-0.1,1.6,0.2c0.1,0.7-1,0.3-1.4,0.6C305,51.7,304.7,51.6,304.7,51.3z M305.1,50.1c0.4-0.3,2.1-0.3,2.4,0.4
				C306.5,50.5,305.8,50.3,305.1,50.1z M305.7,49.5c0.2-0.3,0.6-0.4,1.2-0.4C307,49.9,306.2,49.6,305.7,49.5z M335.5,42.8
				c0.2,0,0.4,0.1,0.5,0.1C335.8,42.8,335.6,42.8,335.5,42.8z M325.6,47.5c0.2-0.6,0.6-0.7,1.2-0.4C326.9,48,326.1,47.7,325.6,47.5z
				 M319.9,50.7c-0.3-0.2-0.3-0.8-1-0.6c1.6-0.5,2.4-0.4,3.3-1.6c-0.3-0.5-0.4-0.4-0.2-1c0.6-0.3,1.8-0.1,1.8-1
				c1.1-0.1,1.2,0.7,1.6,1.4c0.1,0.7-0.7,0.3-0.8,0.8c0,0.7,0.6,0.7,1,1C323.6,49.8,321.6,51,319.9,50.7z M308.9,53.2
				c0.4-0.2,0.7-0.5,1.2-0.6C310.2,53.3,309.5,53.2,308.9,53.2z M309.5,49.9c0.2,0.6,0.5,1,0.6,1.6c-0.2,0-0.4,0-0.4,0.2
				c-0.6-0.1-0.1-1-0.8-0.4c-0.4,0.1-0.3-0.9,0.2-0.6c-0.1-0.4-0.5-0.5-1-0.6C308.5,49.6,308.8,49.8,309.5,49.9z M310.4,55.9
				C310.4,55.9,310.4,55.9,310.4,55.9C310.4,55.9,310.4,55.9,310.4,55.9z M311.1,55.6c-0.1,0-0.1,0-0.2,0
				C311,55.6,311,55.6,311.1,55.6z M310.8,55.6c0,0-0.1,0-0.1,0C310.8,55.6,310.8,55.6,310.8,55.6z M310.6,55.7
				C310.6,55.7,310.6,55.7,310.6,55.7C310.6,55.7,310.6,55.7,310.6,55.7z M311.4,55.6c-0.1,0-0.2,0-0.3,0
				C311.3,55.6,311.4,55.6,311.4,55.6z M406.5,59.6c-0.4-0.4-0.8-0.8-1.7-0.7C405.8,58.8,406.1,59.2,406.5,59.6z M410.1,58.1
				c-0.2,0-0.5,0-0.8,0C409.6,58.1,409.9,58.1,410.1,58.1z M415.2,72.1c-0.5,0.1-0.8-0.1-0.8-0.6C414.9,71.5,415.3,71.6,415.2,72.1z
				 M394.7,60.3c0.3-0.1,0.3,0.2,0.6,0.2c-0.1,0.4-0.3,0.7-1,0.6C394.1,60.5,395,61,394.7,60.3z M396.3,61.7c0,0.2,0,0.3,0.2,0.4
				c-0.3,0.3-1.1-0.2-1.6-0.2C395,61.4,395.9,61.8,396.3,61.7z M395.5,59.7c-0.2,0-0.3,0.1-0.5,0.1
				C395.2,59.8,395.3,59.8,395.5,59.7z M394.7,60c0.1,0,0.2-0.1,0.3-0.1C394.8,60,394.7,60,394.7,60z M394.2,60.3
				c0.1-0.1,0.2-0.1,0.4-0.2C394.4,60.1,394.3,60.2,394.2,60.3z M393.2,60.7c0.2,0,0.4-0.1,0.6-0.2
				C393.6,60.6,393.4,60.7,393.2,60.7z M393.2,60.3c0.1,0,0.2,0,0.3,0.1C393.4,60.3,393.3,60.3,393.2,60.3z M394,60.4L394,60.4
				L394,60.4L394,60.4z M394.1,60.1C394.1,60.1,394.1,60.1,394.1,60.1C394.1,60.1,394.1,60.1,394.1,60.1z M394.1,59.9
				c0-0.1,0-0.1-0.1-0.1C394.1,59.8,394.1,59.8,394.1,59.9z M393.7,59.5c0.1,0,0.2,0.1,0.3,0.1C394,59.6,393.9,59.5,393.7,59.5z
				 M393.1,60.7c-0.2,0-0.5,0-0.8,0C392.7,60.8,392.9,60.7,393.1,60.7z M410.7,66.6c0.7-0.1,1.4,0,1.2,0.8c-0.7-0.1-1.1,0.5-1.6,0
				C410.4,67.1,410.9,67.2,410.7,66.6z M406.3,61.9C406.4,61.9,406.4,61.9,406.3,61.9C406.4,61.9,406.4,61.9,406.3,61.9z M406.8,62
				C406.8,62.1,406.8,62.1,406.8,62C406.8,62.1,406.8,62.1,406.8,62z M405.9,62c0.1,0,0.1,0,0.2-0.1C406,61.9,405.9,62,405.9,62z
				 M405.7,62.1c-0.2,0.1-0.3,0.2-0.4,0.3C405.4,62.2,405.5,62.1,405.7,62.1z M405,62.7c0.1-0.1,0.2-0.2,0.3-0.3
				C405.1,62.5,405.1,62.6,405,62.7z M404.4,64.3c0-0.3,0.1-0.5,0.2-0.8C404.5,63.7,404.4,64,404.4,64.3z M404.6,63.3
				c0.1-0.2,0.2-0.5,0.4-0.6C404.8,62.9,404.7,63.1,404.6,63.3z M406.7,66.8c0-0.4,0.2-0.4,0.2-0.8c0.4,0.1,0.5,0.4,0.8,0.6
				C407.8,67,407,66.7,406.7,66.8z M409.9,65.8c-0.5,0.1-0.8,0-1-0.2c0-0.4,0.2-0.4,0.2-0.8C409.7,64.8,409.8,65.3,409.9,65.8z
				 M413.4,62.7c0,0.3,0,0.7,0,1c-0.3,0-0.5,0-0.8,0C413.1,63.5,412.8,62.6,413.4,62.7z M406.9,64.6c-0.1-0.4,0.1-0.5,0.2-0.8
				c0.3,0.1,0.5,0.3,0.8,0.4C407.8,64.5,407.4,64.7,406.9,64.6z M412.5,68.8c0.7,0.1,0.4,1-0.4,0.8
				C412.2,69.3,412.3,69.1,412.5,68.8z M412.5,67.8c-0.1-0.8,0.3-1.1,1.2-1c0,0.6,0.5,0.7,0.8,1C414.1,68.2,412.8,68,412.5,67.8z
				 M415.2,69c-0.4,0.4-0.4,1.3-1.4,1.2C413.9,69.6,414,68.8,415.2,69z M404.9,58.9L404.9,58.9c0.3,0.3,0.8,0.5,1.2,0.7
				C405.7,59.4,405.2,59.2,404.9,58.9z M405.5,58.5C405.5,58.5,405.5,58.5,405.5,58.5S405.5,58.5,405.5,58.5z M404.8,58.8
				L404.8,58.8c-0.1-0.1-0.2-0.2-0.2-0.3C404.6,58.7,404.7,58.7,404.8,58.8z M401,61.1c0.2,0.2,0.7,0.1,0.6,0.6
				c-0.8-0.1-1.9,0.1-2-0.8C400.3,60.7,400.9,62.1,401,61.1z M417,72.3c0.1-0.7,0.9,0.1,0.6-1.2c0.8-0.2,0.6,0.6,1.4,0.4
				C418.9,72.4,417.7,72.1,417,72.3z M416.6,69.8c0.9-0.2,2.1-1,3.2-0.4C419.6,70.2,417,70.7,416.6,69.8z M419.7,66.2
				c0,0.6-1.1,0.5-1.4,0.2c0.2-0.3,0.6-0.3,1-0.4C419.4,66.2,419.6,66.2,419.7,66.2z M415.8,65.4c1-0.4,1.1,0.3,1.6,1
				C416.9,67.1,415.6,66.5,415.8,65.4z M409.8,58.4c0.1,0,0.1,0,0.2,0C409.9,58.3,409.8,58.3,409.8,58.4z M409.5,58.5
				c0.1-0.1,0.1-0.1,0.2-0.2C409.6,58.4,409.6,58.5,409.5,58.5z M406.1,59.7c0.2,0.1,0.3,0.2,0.4,0.4
				C406.4,59.9,406.3,59.8,406.1,59.7z M405.6,58.6c0,0,0.1,0.1,0.1,0.1C405.7,58.7,405.7,58.7,405.6,58.6z M390.6,57.6
				c0,0.4-0.2,0.4-0.2,0.8c-0.8,0.2-0.7-0.5-1.2-0.6C389.3,57.3,390.2,57.7,390.6,57.6z M388.8,55.8c0.4-0.7,0.6,0.4,1,0.4
				C389.4,56.9,389.2,55.8,388.8,55.8z M410.1,70c-0.3,0.6-0.5,0.6-0.6,1.2c-0.7-0.2-1.5-0.2-1.8-0.8C408,68.9,409,70.1,410.1,70z
				 M421.9,71.5c0.4,0.3,1,1,0.6,1.6c-0.3-0.5-0.7-1-1.8-0.8C421.1,72.1,421.3,71.6,421.9,71.5z M411.6,59.3c-0.2-0.2-0.2-0.6,0-0.8
				h0C411.4,58.8,411.5,59.1,411.6,59.3z M410,58.3c0.5,0,1,0.3,1.6,0.2C411,58.7,410.5,58.3,410,58.3z M410.3,58.1
				c0.1,0,0.3,0,0.4,0C410.6,58.2,410.5,58.1,410.3,58.1z M410.9,58.2c0.1,0,0.2,0.1,0.3,0.1C411.1,58.3,411,58.3,410.9,58.2z
				 M395.7,55.8c0.2,0,0.1,0.2,0,0.2c-0.1,0.6,0.6,0.4,0.4,1.2c-0.3,0-0.7,0-1,0c0-0.4-0.2-0.4-0.2-0.8
				C395.2,56.2,395.7,56.2,395.7,55.8z M395.5,58.5c-0.5,0.5-1-0.7-0.6-1.2C396.2,57.2,395.3,58.5,395.5,58.5z M336.1,42.9
				c0.2,0,0.4,0,0.6-0.1C336.5,42.8,336.3,42.9,336.1,42.9z M335.7,42.1c0.1,0,0.2,0,0.2-0.1C335.8,42.1,335.8,42.1,335.7,42.1z
				 M303.5,57.3c-0.1,0-0.2,0-0.3,0C303.3,57.3,303.4,57.3,303.5,57.3z M304.5,57.1C304.5,57.1,304.5,57.1,304.5,57.1L304.5,57.1
				C304.5,57.1,304.5,57.1,304.5,57.1z M304.4,56.3C304.4,56.3,304.4,56.3,304.4,56.3C304.4,56.3,304.4,56.3,304.4,56.3z M304.8,57
				c-0.1,0-0.2,0.1-0.2,0.1C304.6,57.1,304.7,57.1,304.8,57z M310.4,56.3C310.4,56.3,310.4,56.3,310.4,56.3L310.4,56.3
				C310.4,56.3,310.4,56.3,310.4,56.3z M312,55.9c-0.2,0-0.4,0.1-0.7,0.1C311.6,56,311.8,56,312,55.9z M311.3,56.1
				c-0.2,0.1-0.4,0.1-0.7,0.2h0C310.9,56.2,311.1,56.1,311.3,56.1z M312.7,55.9c-0.3,0-0.5,0-0.7,0
				C312.2,55.9,312.5,55.9,312.7,55.9z M318.9,55.9c-0.7,0-1.4,0.1-2.1,0.1C317.6,55.9,318.3,55.9,318.9,55.9z M324.6,55.8
				c-0.6,0-1.2,0-1.7,0C323.4,55.8,324,55.8,324.6,55.8z M425.3,74.5c0.2,0.6-0.6,0.2-0.4,0.8c-0.4-0.3-1-0.3-1-1
				C424.5,74.2,424.6,74.6,425.3,74.5z M422.3,67.2c0,0.6-0.8,0.4-1,0.8c-0.1,0.6,0.4,0.6,0.4,1.2c0.2,0,0.4,0,0.4-0.2
				c0.2,0,0.4,0,0.6,0c0.3,0.2,0.8,0.2,0.6,0.8c-0.7-0.5-1.4,0.2-2.4,0C420.1,68.4,421.1,67.3,422.3,67.2z M421.9,65.4
				c-0.2,0.6-0.5,1-1.4,1C420.4,65.5,421.2,64.9,421.9,65.4z M412.2,58.9C412.2,58.9,412.2,58.9,412.2,58.9
				C412.2,58.9,412.2,58.9,412.2,58.9z M411.6,58.5c-0.1-0.1-0.2-0.1-0.3-0.2C411.4,58.4,411.5,58.5,411.6,58.5z M400.8,57.2
				c0,0.5-0.4,0.6,0.2,0.8c-0.2,0.2-1.3,0.5-0.8,0.8c-0.5,0.6-0.8-0.8-1.6-0.6c0.9-0.4,0.5-1.3,0.8-2
				C399.8,56.7,400.3,56.9,400.8,57.2z M394.9,55.2c-0.1,0.5-1.3,1-1.2,0C394.2,55.1,394.6,54.8,394.9,55.2z M381.1,53.4
				c-0.8,0.2-0.7-0.5-1.2-0.6C380.2,52.4,381.4,52.7,381.1,53.4z M339,41.2c0.1,0,0.2-0.1,0.3-0.1C339.2,41.1,339.1,41.2,339,41.2z
				 M337.5,41.7C337.5,41.7,337.6,41.7,337.5,41.7C337.6,41.7,337.5,41.7,337.5,41.7z M328.4,43.2c0.3,0,0.5-0.1,0.8-0.1
				C328.9,43.1,328.6,43.2,328.4,43.2z M327.8,43.3c-0.5,0.1-1,0.2-1.4,0.3C326.8,43.5,327.3,43.4,327.8,43.3z M316.2,45.5
				c-0.9,0-1.9,0.1-2.8,0.1h0C314.3,45.6,315.3,45.5,316.2,45.5z M313.2,45.6L313.2,45.6L313.2,45.6c0,0.4-0.6,0.2-0.9,0.3
				C312.6,45.8,313.2,46,313.2,45.6c-1.9,0.1-3.9,0.3-6.1,0.5C309.3,46,311.3,45.8,313.2,45.6z M312.2,46.1c0,0,0-0.1,0.1-0.1
				C312.3,46,312.3,46,312.2,46.1z M298.4,47.9c0.1,0.6-0.4,0.6-0.4,1.2c-1.3-0.1,0.3-0.8-0.6-1C297.5,47.6,298.2,47.6,298.4,47.9z
				 M297.5,50.3c-0.2,0.5-0.9,0.4-1.6,0.4c0,0.6,0.7,0.5,1,0.8c0,0.5-0.7,0.4-1.2,0.4c0,0.4,0.2,0.4,0.2,0.8c0.5,0,0.4-0.6,1-0.6
				c0.6,0.5,0,1,0.4,1.8c-0.6,0-0.8-0.3-1.6-0.2c-0.2,0.6,0.6,0.1,0.4,0.8c-1.2,0.1-1.6-0.7-2.2-1.2c0.8,0,1.1-0.4,1.8,0
				c0.4-0.4-0.5-1-0.8-1.4c0.3-0.7,1-1,1-2C296.6,49.8,297,50.1,297.5,50.3z M291.9,54.6c0.4-0.6,1.1,0,1.6-0.8
				c0.3-0.1,0.7,0.8,0,0.6c-0.1,0.6,0.4,0.6,0,1C293.2,55,292.9,54.4,291.9,54.6z M294.5,57c0.3,0,0.7,0,1,0
				C295.8,57.6,294.2,57.6,294.5,57z M294.7,56.4c0.4-0.2,0.5-0.7,0.4-1.4c0.7-0.2,0.8,0.2,1.2,0.4C296,56,295.7,56.6,294.7,56.4z
				 M302.2,57.4c-0.2,0-0.3-0.1-0.4-0.2C301.9,57.3,302,57.3,302.2,57.4z M302.3,57.4c0.2,0,0.4,0,0.6,0
				C302.7,57.4,302.5,57.4,302.3,57.4z M313.5,56.2c0.9,0,1.8-0.1,2.7-0.1C315.3,56.1,314.4,56.1,313.5,56.2z M310.7,56.3
				c0.4,0,0.7,0,1.1,0C311.4,56.3,311,56.3,310.7,56.3z M320,55.8c0.6,0,1.2,0,1.8,0C321.1,55.8,320.6,55.8,320,55.8z M325.7,55.8
				c0.6,0,1.3,0.1,1.9,0.1C327,55.9,326.3,55.9,325.7,55.8z"/>
			<path class="st3" d="M180.9,134c-0.4-0.4-1.3,0-0.8-0.8c-0.4,0.5-1.7,0.3-2,0.4C178.6,134,180.4,134.8,180.9,134z"/>
			<path class="st3" d="M177.7,135.3c-1.2-0.2,0-0.7-1.6-0.8C176.3,135.1,177.4,135.6,177.7,135.3z"/>
			<path class="st3" d="M174.4,305.3c0.1,0.5-0.9,0.8-0.2,1.2c0-0.2,0.2-0.3,0.4-0.4c-0.1,0.3,0.3,0.5,0.4,0.2
				C174.4,306.3,174.8,305.3,174.4,305.3z"/>
			<path class="st3" d="M179.9,314.3c0.1-0.4,0-0.7-0.4-0.8c-0.3,0.6-1.1,0.7-1.2,1.6C179.1,315.1,178.9,314.1,179.9,314.3z"/>
			<path class="st3" d="M193.3,330.3c0.6,0.1,1.1-0.8,0.6-1.2C193.6,329.3,193.4,329.7,193.3,330.3z"/>
			<path class="st3" d="M275.4,56.2c-0.1-0.4,0.3-1.2-0.4-1C274.6,55.3,274.8,56.4,275.4,56.2z"/>
			<path class="st3" d="M191.7,325.9c0,0.3,0,0.6-0.2,0.8c0.3,0,0.5,0,0.8,0c-0.1-0.5,0.4-0.4,0.4-0.8
				C192.1,325.8,192.1,326.3,191.7,325.9z"/>
			<path class="st3" d="M203.3,32.2c0,0.3,0,0.7,0,1c3,0.3,5,2.4,7.7,2.4c-0.2,0-0.5,0.1-0.4,0.4c1-0.1,1.8,0.5,2.2-0.4
				c-2.3-2.4-8.2-4.6-11.6-5.3c0,0.6,0.4,0.8,0.4,1.4C202.8,31.2,202.4,32.7,203.3,32.2z"/>
			<path class="st3" d="M269.1,57.4c0.1-0.3-0.3-0.5,0-0.6c0.3,0,0.1,0.5,0.4,0.6c0.3-0.3,0.3-0.7,0-1c0.2,0,0.4,0,0.4-0.2
				c-1.1,0.2-3.2,0.3-2.8,1.4C267.7,57,268.3,57.3,269.1,57.4z"/>
			<path class="st3" d="M359.9,24.7c-1.3-1.5-2.7,1.1-4.3,1.2c-0.3,1.1-0.7,2.1-0.6,3.7C358.5,30,359,26.3,359.9,24.7z"/>
			<path class="st3" d="M303.6,35.7c-0.8-0.2-0.3-0.3-0.2-1c-0.6-0.1-0.5-0.8-1.4-0.6c0.1,0.6-0.4,0.7-0.2,1.4
				C302.2,35.9,303.1,36.5,303.6,35.7z"/>
			<path class="st3" d="M184,129.4c0.4,0.9-0.4,0.7,0,1.4c0.7,0.2,0.4-0.7,0.8-0.8c0.2,0.6,1.1,0.4,1.8,0.4
				C186.8,129.1,184.9,129,184,129.4z"/>
		</g>
		<g>
			<g>
				<path d="M22.6,148.9h-7.7v-17.6h6.9c1.2,0,2.2,0.1,3.1,0.4c0.9,0.3,1.5,0.7,2,1.2c0.8,0.9,1.2,1.9,1.2,3.1
					c0,1.4-0.4,2.4-1.3,3.1c-0.3,0.2-0.5,0.4-0.6,0.4s-0.3,0.2-0.6,0.3c1.1,0.2,2,0.7,2.6,1.5c0.6,0.7,1,1.7,1,2.8
					c0,1.2-0.4,2.3-1.3,3.3C26.7,148.4,25,148.9,22.6,148.9z M18.8,138.5h1.9c1.1,0,1.9-0.1,2.4-0.4c0.5-0.2,0.8-0.7,0.8-1.5
					c0-0.8-0.2-1.3-0.7-1.5c-0.5-0.3-1.3-0.4-2.5-0.4h-1.9V138.5z M18.8,145.6h2.7c1.1,0,2-0.1,2.5-0.4c0.6-0.3,0.8-0.8,0.8-1.6
					c0-0.8-0.3-1.4-0.9-1.6c-0.6-0.3-1.6-0.4-2.9-0.4h-2.3V145.6z"/>
				<path d="M32.9,148.9v-17.6h3.9v14.1h7.5v3.5H32.9z"/>
				<path d="M60.3,148.9l-1.6-3.8h-7.4l-1.6,3.8h-4.2l7.6-17.6h3.8l7.6,17.6H60.3z M55,136.6l-2.2,5.1h4.4L55,136.6z"/>
				<path d="M75.3,145.5c1.9,0,3.5-0.8,4.7-2.3l2.5,2.6c-2,2.3-4.4,3.4-7.1,3.4c-2.7,0-4.9-0.9-6.7-2.6c-1.8-1.7-2.6-3.9-2.6-6.5
					c0-2.6,0.9-4.8,2.7-6.5c1.8-1.7,4-2.6,6.6-2.6c2.9,0,5.3,1.1,7.3,3.3l-2.4,2.8c-1.2-1.5-2.8-2.3-4.6-2.3c-1.5,0-2.7,0.5-3.8,1.4
					s-1.6,2.3-1.6,3.9c0,1.6,0.5,3,1.5,3.9C72.6,145,73.8,145.5,75.3,145.5z"/>
				<path d="M86.2,131.3h3.9v7.2l6.7-7.2h4.9l-7,7.8c0.6,0.8,1.7,2.4,3.4,4.7c1.6,2.3,2.8,4,3.7,5.1h-4.6l-5.2-7l-1.8,2v5h-3.9
					V131.3z"/>
				<path d="M122.9,131.3h3.9v17.6h-3.9V142h-7v6.9H112v-17.6h3.9v7.4h7V131.3z"/>
				<path d="M146.6,146.5c-1.8,1.7-4,2.6-6.6,2.6c-2.6,0-4.8-0.9-6.6-2.6c-1.8-1.7-2.7-3.9-2.7-6.5c0-2.6,0.9-4.8,2.7-6.5
					c1.8-1.7,4-2.6,6.6-2.6c2.6,0,4.8,0.9,6.6,2.6c1.8,1.7,2.7,3.9,2.7,6.5C149.3,142.6,148.4,144.8,146.6,146.5z M145.3,140
					c0-1.6-0.5-2.9-1.5-4c-1-1.1-2.2-1.7-3.7-1.7c-1.5,0-2.7,0.6-3.7,1.7c-1,1.1-1.5,2.4-1.5,4c0,1.6,0.5,2.9,1.5,4
					c1,1.1,2.2,1.7,3.7,1.7c1.5,0,2.7-0.5,3.7-1.7C144.8,142.9,145.3,141.6,145.3,140z"/>
				<path d="M167.5,137.2c0,2.8-1.1,4.6-3.4,5.5l4.5,6.3h-4.8l-3.9-5.6h-2.7v5.6h-3.9v-17.6h6.7c2.7,0,4.7,0.5,5.9,1.4
					C166.9,133.6,167.5,135.1,167.5,137.2z M162.8,139.3c0.5-0.4,0.7-1.1,0.7-2.1c0-1-0.3-1.6-0.8-2c-0.5-0.4-1.4-0.5-2.6-0.5h-2.9
					v5.2h2.9C161.4,139.9,162.3,139.7,162.8,139.3z"/>
				<path d="M176.3,134.8c-0.4,0.3-0.6,0.7-0.6,1.2c0,0.5,0.2,0.9,0.7,1.2s1.5,0.7,3.2,1.1c1.7,0.4,3,1,3.9,1.9
					c0.9,0.8,1.4,2,1.4,3.6c0,1.6-0.6,2.9-1.8,3.8s-2.7,1.5-4.7,1.5c-2.8,0-5.3-1-7.5-3.1l2.3-2.9c1.9,1.7,3.7,2.5,5.3,2.5
					c0.7,0,1.3-0.2,1.7-0.5c0.4-0.3,0.6-0.7,0.6-1.3c0-0.5-0.2-0.9-0.7-1.3c-0.4-0.3-1.3-0.6-2.6-0.9c-2.1-0.5-3.5-1.1-4.5-1.9
					c-0.9-0.8-1.4-2-1.4-3.7c0-1.7,0.6-3,1.8-3.9c1.2-0.9,2.7-1.4,4.5-1.4c1.2,0,2.4,0.2,3.5,0.6c1.2,0.4,2.2,1,3.1,1.7l-2,2.9
					c-1.5-1.2-3.1-1.7-4.7-1.7C177.2,134.4,176.7,134.5,176.3,134.8z"/>
				<path d="M201.6,131.3v3.5h-8.8v3.6h7.9v3.4h-7.9v3.7h9v3.5h-13v-17.6H201.6z"/>
			</g>
			<g>
				<path d="M21.3,168.2c0.7,0,1.3-0.1,1.9-0.4c0.5-0.2,1.1-0.6,1.6-1.2l1.3,1.4c-1.3,1.4-2.9,2.2-4.8,2.2s-3.4-0.6-4.7-1.8
					c-1.2-1.2-1.9-2.7-1.9-4.6c0-1.8,0.6-3.4,1.9-4.6s2.8-1.8,4.8-1.8c1.9,0,3.5,0.7,4.8,2.1l-1.3,1.4c-0.6-0.6-1.1-1-1.7-1.2
					c-0.5-0.2-1.1-0.3-1.9-0.3c-1.3,0-2.3,0.4-3.2,1.2c-0.8,0.8-1.3,1.8-1.3,3.1c0,1.3,0.4,2.3,1.3,3.1
					C19.2,167.8,20.2,168.2,21.3,168.2z"/>
				<path d="M44,168.4c-1.3,1.2-2.8,1.8-4.6,1.8c-1.8,0-3.4-0.6-4.6-1.8c-1.3-1.2-1.9-2.7-1.9-4.6s0.6-3.3,1.9-4.6
					c1.3-1.2,2.8-1.8,4.6-1.8c1.8,0,3.4,0.6,4.6,1.8c1.3,1.2,1.9,2.7,1.9,4.6S45.2,167.2,44,168.4z M42.4,160.7
					c-0.8-0.9-1.9-1.3-3.1-1.3c-1.2,0-2.3,0.4-3.1,1.3c-0.8,0.9-1.3,1.9-1.3,3.2s0.4,2.3,1.3,3.2c0.8,0.9,1.9,1.3,3.1,1.3
					c1.2,0,2.3-0.4,3.1-1.3c0.8-0.9,1.3-1.9,1.3-3.2S43.3,161.6,42.4,160.7z"/>
				<path d="M55.7,159.7v3.4h5.5v1.9h-5.5v5.1h-2.1v-12.3h8.3l0,1.9H55.7z"/>
				<path d="M71.6,159.7v3.4h5.5v1.9h-5.5v5.1h-2.1v-12.3h8.3l0,1.9H71.6z"/>
				<path d="M94,157.8v2h-6.6v3.3h5.9v1.9h-5.9v3.3h6.8v2h-8.9v-12.3H94z"/>
				<path d="M110.8,157.8v2h-6.6v3.3h5.9v1.9h-5.9v3.3h6.8v2h-8.9v-12.3H110.8z"/>
				<path d="M118.8,170.1v-12.3h2.1v5.3h6.1v-5.3h2.1v12.3H127v-5h-6.1v5H118.8z"/>
				<path d="M148.1,168.4c-1.3,1.2-2.8,1.8-4.6,1.8c-1.8,0-3.4-0.6-4.6-1.8c-1.3-1.2-1.9-2.7-1.9-4.6s0.6-3.3,1.9-4.6
					c1.3-1.2,2.8-1.8,4.6-1.8c1.8,0,3.4,0.6,4.6,1.8c1.3,1.2,1.9,2.7,1.9,4.6S149.3,167.2,148.1,168.4z M146.6,160.7
					c-0.8-0.9-1.9-1.3-3.1-1.3c-1.2,0-2.3,0.4-3.1,1.3c-0.8,0.9-1.3,1.9-1.3,3.2s0.4,2.3,1.3,3.2c0.8,0.9,1.9,1.3,3.1,1.3
					c1.2,0,2.3-0.4,3.1-1.3c0.8-0.9,1.3-1.9,1.3-3.2S147.4,161.6,146.6,160.7z"/>
				<path d="M160.5,167.3c0.6,0.7,1.3,1,2.3,1c1,0,1.7-0.3,2.3-1c0.6-0.7,0.8-1.6,0.8-2.7v-6.8h2.1v6.9c0,1.8-0.5,3.1-1.5,4.1
					c-1,1-2.2,1.4-3.8,1.4c-1.5,0-2.8-0.5-3.8-1.4c-1-1-1.5-2.3-1.5-4.1v-6.9h2.1v6.8C159.7,165.7,160,166.6,160.5,167.3z"/>
				<path d="M180.3,159.4c-0.6,0-1.1,0.1-1.5,0.4c-0.4,0.2-0.6,0.6-0.6,1.1s0.2,0.9,0.6,1.1c0.4,0.3,1.2,0.5,2.5,0.9
					c1.3,0.3,2.2,0.7,2.9,1.3c0.6,0.6,1,1.4,1,2.4c0,1.1-0.4,1.9-1.2,2.6c-0.8,0.7-1.9,1-3.2,1c-1.9,0-3.7-0.7-5.2-2l1.3-1.6
					c1.3,1.1,2.5,1.6,3.9,1.6c0.7,0,1.2-0.1,1.6-0.4c0.4-0.3,0.6-0.7,0.6-1.1c0-0.5-0.2-0.8-0.6-1.1c-0.4-0.3-1-0.5-1.9-0.7
					c-0.9-0.2-1.6-0.4-2.1-0.6c-0.5-0.2-0.9-0.4-1.3-0.7c-0.7-0.6-1.1-1.4-1.1-2.5c0-1.1,0.4-2,1.3-2.6c0.8-0.6,1.9-0.9,3.1-0.9
					c0.8,0,1.6,0.1,2.4,0.4c0.8,0.3,1.5,0.6,2,1.1l-1.1,1.6c-0.4-0.3-0.9-0.6-1.5-0.8C181.5,159.5,180.9,159.4,180.3,159.4z"/>
				<path d="M201.6,157.8v2H195v3.3h5.9v1.9H195v3.3h6.8v2h-8.9v-12.3H201.6z"/>
			</g>
			<g>
				<path d="M15,188.4h3.2v8.8h-1.4v-7.5H15V188.4z"/>
				<path d="M19.8,188.4H23v8.8h-1.4v-7.5h-1.8V188.4z"/>
				<path d="M24.8,190.9v-2.5H31v1.3l-3.7,7.5h-1.6l3.6-7.5h-3.1v1.2H24.8z"/>
				<path d="M38.6,189.5c-0.4,0-0.8,0.1-1.1,0.3c-0.3,0.2-0.4,0.4-0.4,0.8s0.1,0.6,0.4,0.8c0.3,0.2,0.9,0.4,1.8,0.6
					c0.9,0.2,1.6,0.5,2,0.9c0.5,0.4,0.7,1,0.7,1.7c0,0.8-0.3,1.4-0.9,1.9c-0.6,0.5-1.3,0.7-2.3,0.7c-1.4,0-2.6-0.5-3.6-1.4l0.9-1.1
					c0.9,0.8,1.8,1.2,2.8,1.2c0.5,0,0.9-0.1,1.1-0.3c0.3-0.2,0.4-0.5,0.4-0.8c0-0.3-0.1-0.6-0.4-0.8c-0.3-0.2-0.7-0.4-1.4-0.5
					s-1.1-0.3-1.5-0.4c-0.3-0.1-0.6-0.3-0.9-0.5c-0.5-0.4-0.8-1-0.8-1.8c0-0.8,0.3-1.4,0.9-1.9c0.6-0.4,1.3-0.7,2.2-0.7
					c0.6,0,1.1,0.1,1.7,0.3c0.6,0.2,1,0.4,1.4,0.8l-0.8,1.1c-0.3-0.2-0.6-0.4-1.1-0.6C39.5,189.6,39.1,189.5,38.6,189.5z"/>
				<path d="M43.8,197c-0.2-0.2-0.3-0.4-0.3-0.7c0-0.3,0.1-0.5,0.3-0.7c0.2-0.2,0.4-0.3,0.7-0.3c0.3,0,0.5,0.1,0.7,0.3
					c0.2,0.2,0.3,0.4,0.3,0.7c0,0.3-0.1,0.5-0.3,0.7c-0.2,0.2-0.4,0.3-0.7,0.3C44.2,197.3,43.9,197.2,43.8,197z"/>
				<path d="M48.9,197.2h-1.5v-8.8h2.3l2.6,5.5l2.6-5.5h2.3v8.8h-1.5v-6.9l-3.1,6.1h-0.8l-3-6.1V197.2z"/>
				<path d="M61,195.2l-0.9,2h-1.6l3.9-8.8h1.6l3.9,8.8h-1.6l-0.9-2H61z M64.7,193.8l-1.6-3.6l-1.6,3.6H64.7z"/>
				<path d="M69,188.4h1.5v8.8H69V188.4z"/>
				<path d="M79.5,188.4H81v8.8h-1.6l-5-6.4v6.4h-1.5v-8.8h1.5l5.1,6.6V188.4z"/>
				<path d="M89.5,189.5c-0.4,0-0.8,0.1-1.1,0.3c-0.3,0.2-0.4,0.4-0.4,0.8s0.1,0.6,0.4,0.8c0.3,0.2,0.9,0.4,1.8,0.6
					c0.9,0.2,1.6,0.5,2,0.9c0.5,0.4,0.7,1,0.7,1.7c0,0.8-0.3,1.4-0.9,1.9c-0.6,0.5-1.3,0.7-2.3,0.7c-1.4,0-2.6-0.5-3.6-1.4l0.9-1.1
					c0.9,0.8,1.8,1.2,2.8,1.2c0.5,0,0.9-0.1,1.1-0.3c0.3-0.2,0.4-0.5,0.4-0.8c0-0.3-0.1-0.6-0.4-0.8c-0.3-0.2-0.7-0.4-1.4-0.5
					s-1.1-0.3-1.5-0.4c-0.3-0.1-0.6-0.3-0.9-0.5c-0.5-0.4-0.8-1-0.8-1.8c0-0.8,0.3-1.4,0.9-1.9c0.6-0.4,1.3-0.7,2.2-0.7
					c0.6,0,1.1,0.1,1.7,0.3c0.6,0.2,1,0.4,1.4,0.8l-0.8,1.1c-0.3-0.2-0.6-0.4-1.1-0.6C90.4,189.6,89.9,189.5,89.5,189.5z"/>
				<path d="M98.1,189.7v7.4h-1.5v-7.4h-2.7v-1.4h6.8v1.4H98.1z"/>
				<path d="M101.5,197c-0.2-0.2-0.3-0.4-0.3-0.7c0-0.3,0.1-0.5,0.3-0.7c0.2-0.2,0.4-0.3,0.7-0.3c0.3,0,0.5,0.1,0.7,0.3
					c0.2,0.2,0.3,0.4,0.3,0.7c0,0.3-0.1,0.5-0.3,0.7c-0.2,0.2-0.4,0.3-0.7,0.3C101.9,197.3,101.7,197.2,101.5,197z"/>
				<path d="M121.6,190.9v-2.5h6.2v1.3l-3.7,7.5h-1.6l3.6-7.5H123v1.2H121.6z"/>
				<path d="M129.8,196c-0.6-0.8-0.9-1.9-0.9-3.3c0-1.4,0.3-2.5,0.9-3.3c0.6-0.8,1.5-1.2,2.7-1.2c1.2,0,2.1,0.4,2.7,1.2
					c0.6,0.8,0.9,1.9,0.9,3.3c0,1.4-0.3,2.5-0.9,3.3c-0.6,0.8-1.5,1.2-2.7,1.2C131.3,197.3,130.4,196.9,129.8,196z M130.8,190.3
					c-0.3,0.6-0.5,1.4-0.5,2.4c0,1,0.2,1.8,0.5,2.4s0.9,0.9,1.6,0.9c0.7,0,1.3-0.3,1.6-0.9s0.5-1.4,0.5-2.4c0-1-0.2-1.8-0.5-2.4
					s-0.9-0.9-1.6-0.9C131.7,189.4,131.2,189.7,130.8,190.3z"/>
				<path d="M141,193.6V192h1.4v1.6h1.1v1.3h-1.1v2.2H141V195h-3.8v-1.3l3.2-5.3h1.6l-3.2,5.2H141z"/>
				<path d="M145.1,197c-0.2-0.2-0.3-0.4-0.3-0.7c0-0.3,0.1-0.5,0.3-0.7c0.2-0.2,0.4-0.3,0.7-0.3s0.5,0.1,0.7,0.3
					c0.2,0.2,0.3,0.4,0.3,0.7c0,0.3-0.1,0.5-0.3,0.7s-0.4,0.3-0.7,0.3S145.2,197.2,145.1,197z"/>
				<path d="M152.1,191.8c0.3-0.3,0.4-0.7,0.4-1s-0.1-0.7-0.4-0.9c-0.3-0.2-0.6-0.4-1-0.4c-0.7,0-1.3,0.4-1.8,1.1l-1.2-0.7
					c0.4-0.6,0.8-1,1.3-1.3c0.5-0.3,1.1-0.4,1.8-0.4s1.4,0.2,1.9,0.7c0.6,0.5,0.8,1.1,0.8,1.9c0,0.5-0.1,0.9-0.4,1.3
					c-0.2,0.4-0.7,0.9-1.3,1.6l-2.1,2.1h4v1.4h-6v-1.3l2.7-2.7C151.4,192.6,151.9,192.1,152.1,191.8z"/>
				<path d="M158.2,195.9c0.8,0,1.3-0.3,1.7-0.8c0.4-0.5,0.6-1.2,0.6-2.1c-0.2,0.2-0.5,0.5-0.9,0.7s-0.8,0.3-1.3,0.3
					c-0.8,0-1.4-0.3-2-0.8c-0.5-0.5-0.8-1.2-0.8-2.1c0-0.9,0.3-1.6,0.9-2.1c0.6-0.5,1.3-0.8,2.2-0.8c1.4,0,2.4,0.6,2.9,1.9
					c0.3,0.7,0.5,1.5,0.5,2.4c0,0.9-0.1,1.7-0.3,2.3c-0.2,0.6-0.5,1.1-0.8,1.4c-0.7,0.7-1.5,1-2.4,1c-1,0-1.8-0.3-2.6-0.9l0.7-1.1
					c0.2,0.2,0.4,0.3,0.8,0.5C157.7,195.9,157.9,195.9,158.2,195.9z M158.5,192.7c0.5,0,0.9-0.1,1.3-0.4c0.3-0.3,0.5-0.6,0.5-1.1
					c0-0.4-0.2-0.8-0.5-1.2c-0.3-0.3-0.7-0.5-1.2-0.5c-0.5,0-0.9,0.1-1.2,0.4c-0.3,0.3-0.5,0.7-0.5,1.1c0,0.5,0.1,0.8,0.4,1.1
					C157.6,192.5,158,192.7,158.5,192.7z"/>
				<path d="M163.2,190.9v-2.5h6.2v1.3l-3.7,7.5H164l3.6-7.5h-3.1v1.2H163.2z"/>
				<path d="M170,197c-0.2-0.2-0.3-0.4-0.3-0.7c0-0.3,0.1-0.5,0.3-0.7c0.2-0.2,0.4-0.3,0.7-0.3s0.5,0.1,0.7,0.3
					c0.2,0.2,0.3,0.4,0.3,0.7c0,0.3-0.1,0.5-0.3,0.7s-0.4,0.3-0.7,0.3S170.2,197.2,170,197z"/>
				<path d="M173.4,189.7v-1.3h5.1v1.2l-2.1,2.4c0.8,0,1.4,0.3,1.9,0.8c0.5,0.5,0.7,1.1,0.7,1.7c0,0.9-0.3,1.6-0.9,2.1
					c-0.6,0.5-1.4,0.8-2.3,0.8c-1,0-1.9-0.3-2.8-0.9l0.6-1.2c0.7,0.5,1.5,0.8,2.3,0.8c0.5,0,0.9-0.1,1.3-0.4s0.5-0.6,0.5-1
					c0-0.4-0.2-0.8-0.6-1.1c-0.4-0.3-0.9-0.4-1.5-0.4c-0.3,0-0.6,0-0.9,0.1v-1.1l2-2.4H173.4z"/>
				<path d="M183,195.9c0.8,0,1.3-0.3,1.7-0.8c0.4-0.5,0.6-1.2,0.6-2.1c-0.2,0.2-0.5,0.5-0.9,0.7c-0.4,0.2-0.8,0.3-1.3,0.3
					c-0.8,0-1.4-0.3-2-0.8c-0.5-0.5-0.8-1.2-0.8-2.1c0-0.9,0.3-1.6,0.9-2.1c0.6-0.5,1.3-0.8,2.2-0.8c1.4,0,2.4,0.6,2.9,1.9
					c0.3,0.7,0.5,1.5,0.5,2.4c0,0.9-0.1,1.7-0.3,2.3c-0.2,0.6-0.5,1.1-0.8,1.4c-0.7,0.7-1.5,1-2.4,1c-1,0-1.8-0.3-2.6-0.9l0.7-1.1
					c0.2,0.2,0.4,0.3,0.8,0.5C182.4,195.9,182.7,195.9,183,195.9z M183.2,192.7c0.5,0,0.9-0.1,1.3-0.4c0.3-0.3,0.5-0.6,0.5-1.1
					c0-0.4-0.2-0.8-0.5-1.2c-0.3-0.3-0.7-0.5-1.2-0.5c-0.5,0-0.9,0.1-1.2,0.4c-0.3,0.3-0.5,0.7-0.5,1.1c0,0.5,0.1,0.8,0.4,1.1
					C182.3,192.5,182.7,192.7,183.2,192.7z"/>
				<path d="M188.4,189.7v-1.3h5.1v1.2l-2.1,2.4c0.8,0,1.4,0.3,1.9,0.8c0.5,0.5,0.7,1.1,0.7,1.7c0,0.9-0.3,1.6-0.9,2.1
					c-0.6,0.5-1.4,0.8-2.3,0.8c-1,0-1.9-0.3-2.8-0.9l0.6-1.2c0.7,0.5,1.5,0.8,2.3,0.8c0.5,0,0.9-0.1,1.3-0.4c0.3-0.2,0.5-0.6,0.5-1
					c0-0.4-0.2-0.8-0.6-1.1c-0.4-0.3-0.9-0.4-1.5-0.4c-0.3,0-0.6,0-0.9,0.1v-1.1l2-2.4H188.4z"/>
				<path d="M198,195.9c0.8,0,1.3-0.3,1.7-0.8c0.4-0.5,0.6-1.2,0.6-2.1c-0.2,0.2-0.5,0.5-0.9,0.7c-0.4,0.2-0.8,0.3-1.3,0.3
					c-0.8,0-1.4-0.3-2-0.8c-0.5-0.5-0.8-1.2-0.8-2.1c0-0.9,0.3-1.6,0.9-2.1c0.6-0.5,1.3-0.8,2.2-0.8c1.4,0,2.4,0.6,2.9,1.9
					c0.3,0.7,0.5,1.5,0.5,2.4c0,0.9-0.1,1.7-0.3,2.3c-0.2,0.6-0.5,1.1-0.8,1.4c-0.7,0.7-1.5,1-2.4,1c-1,0-1.8-0.3-2.6-0.9l0.7-1.1
					c0.2,0.2,0.4,0.3,0.8,0.5C197.4,195.9,197.7,195.9,198,195.9z M198.3,192.7c0.5,0,0.9-0.1,1.3-0.4c0.3-0.3,0.5-0.6,0.5-1.1
					c0-0.4-0.2-0.8-0.5-1.2c-0.3-0.3-0.7-0.5-1.2-0.5c-0.5,0-0.9,0.1-1.2,0.4c-0.3,0.3-0.5,0.7-0.5,1.1c0,0.5,0.1,0.8,0.4,1.1
					C197.4,192.5,197.7,192.7,198.3,192.7z"/>
			</g>
		</g>
		<g class="st2">
			<path class="st3" d="M196.8,28.4c-1.4-0.7-1.7-2.4-2.8-3.3c-1.6-0.4-3.5-0.6-4.9,0.4C188.6,30.1,194,29.8,196.8,28.4z"/>
			<path class="st3" d="M322.3,47.9c0.4,0.1,1.1,0.5,1.2-0.2C322.8,47.7,322.6,47.4,322.3,47.9z"/>
			<path class="st3" d="M284.9,52c-0.2-1.5,1.2-0.1,1.4-1.2c-0.3-0.1-0.2-0.6-0.8-0.4c0.2,1-1.3,0.1-1.6,1
				C284.5,51.4,284.2,51.8,284.9,52z"/>
			<path class="st3" d="M385.9,51.1c-0.2,0-0.2-0.2-0.2-0.4c-0.7-0.1-0.8,0.3-1.2,0.6C385.1,51.2,385.7,51.8,385.9,51.1z"/>
			<path class="st3" d="M234.8,56.8c0.9-1,1.3-1.6,1.2-3.3c-1.9-1.8-5.1,0-4.1,2.8C232.7,56.6,233.5,56.9,234.8,56.8z"/>
			<path class="st3" d="M283.7,53.8c0.4-0.3-0.2-0.6,0.2-1c-0.7,0-1,0.3-1,1C283.2,53.8,283.4,53.8,283.7,53.8z"/>
			<path class="st3" d="M276.2,54.8c-0.3-0.1,0-0.3,0-0.6c-0.3,0-0.4-0.1-0.6-0.2C275.4,54.6,275.8,55.5,276.2,54.8z"/>
			<path class="st3" d="M274.6,56.8c-0.4,0-0.4-0.2-0.8-0.2c-0.2,0.6,0,0.4,0,1.2C274.4,57.7,274.5,57.2,274.6,56.8z"/>
			<path class="st3" d="M258.9,60.7c-0.2,0-0.2-0.2-0.2-0.4c-0.7,0.3-1.1-0.2-1.6,0.2C257.7,60.5,258.4,61.3,258.9,60.7z"/>
			<path class="st3" d="M256.3,63.7c0.6,0,0.1,1.1,1,0.8c0.2-0.6-0.3-0.5-0.2-1C256.8,63.5,256.4,63.4,256.3,63.7z"/>
			<path class="st3" d="M247.8,67c0.3-0.9-0.8-1-1.2-0.6C246.7,67,247.4,66.9,247.8,67z"/>
			<path class="st3" d="M245.7,66.6c-0.3-0.3-1.2-0.3-1.2,0.2C245,67,245.4,67.1,245.7,66.6z"/>
			<path class="st3" d="M222.2,93.6c-0.5,0-0.9,0.1-1.2,0.4C221.5,94.1,222.2,94.3,222.2,93.6z"/>
			<path class="st3" d="M209.4,94.2c0.1,0.6,1.6,1,1.8,0.2C210.9,93.8,209.9,93.6,209.4,94.2z"/>
			<path class="st3" d="M199.6,117.6c-0.4-0.2-0.7-0.5-1.4-0.4C198,118.2,199.4,117.6,199.6,117.6z"/>
			<path class="st3" d="M198.4,119.6c0.3,0,0.5,0,0.8,0c0.1-0.6,0.3-1,0.6-1.4C198.8,117.6,198.6,118.8,198.4,119.6z"/>
			<path class="st3" d="M195.1,123.5c-0.3-0.7,0.7-0.1,0.6-0.6c-0.5,0-0.9,0-1.4,0C194.1,123.6,194.9,123.2,195.1,123.5z"/>
			<path class="st3" d="M186,126.3c-0.5,0-0.9,0-1.2,0.2C184.8,127.3,186.1,126.7,186,126.3z"/>
			<path class="st3" d="M184.8,128.4c-0.3-0.3-1-0.6-1.4-0.2C183.2,128.9,184.8,128.7,184.8,128.4z"/>
			<path class="st3" d="M188.8,129.6c-0.6-0.8-1.3-1-2.4-1c0.4,0.6,2.1,0.4,1.2,1.8C188.4,130.6,188.5,130,188.8,129.6z"/>
			<path class="st3" d="M181.5,131.8c-0.5-1.1-3.1,0.2-2.2-0.6c-0.7-0.1-1,0.2-1.2,0.6C179.5,131.7,180.5,132.2,181.5,131.8z"/>
			<path class="st3" d="M178.9,134.3c-0.5-0.1-1.3-0.8-1.8-0.2C177.5,134.7,178.5,134.9,178.9,134.3z"/>
			<path class="st3" d="M182.1,140.8c0.4,0.2,0.5,0.5,1.2,0.4c0-0.5-0.1-0.8-0.4-1C183,141.1,182.1,140,182.1,140.8z"/>
			<path class="st3" d="M175.6,157.6c-0.4-0.1-0.6-0.5-1.2-0.4C174.1,157.9,175.4,158,175.6,157.6z"/>
			<path class="st3" d="M154.3,221c-0.6-0.2-0.2-0.3-0.2-0.8c-0.3,0-0.7,0-1,0C153.2,220.7,153.9,221.5,154.3,221z"/>
			<path class="st3" d="M155.5,229.1c0.3-0.3,0.3-1-0.2-1c0,0.4-0.7,0.1-0.6,0.6C155.1,228.7,155,229.2,155.5,229.1z"/>
			<path class="st3" d="M162.8,274c-0.2,0-0.4,0-0.6,0c0-0.2,0-0.4,0-0.6c-0.4-0.1-0.7,0-0.8,0.4C161.9,273.6,162.1,274.5,162.8,274
				z"/>
			<path class="st3" d="M175.4,294.4c0,0.2,0,0.4,0,0.6c0.6-0.2,0.7-0.3,1,0.2c-0.1-0.5,0.4-0.4,0.4-0.8
				C176.2,294.6,175.9,294.6,175.4,294.4z"/>
			<path class="st3" d="M189.6,322c0.6,2.4-1.3,3-3,3.2c0,0.4-0.2,0.4-0.2,0.8c0.7,0,1.1-0.5,1.6-0.8c0.5,0.4,1.2,0.6,1.6,0
				c-0.2,0-0.5-0.1-0.4-0.4c0.7-0.3,1.3-1.4,0.8-2.4c0.4,0.4,0.5-0.5,1-0.6C190,321.6,190.3,322.4,189.6,322z"/>
			<path class="st3" d="M279.2,53.2c0.7,0.8,2.5,1.7,3.7,1.4c-0.9,0.3-0.3,1-0.8,1.8c0.6-0.3,1,0.5,1.2,0c-0.7-0.9,0.5-1.6-0.6-2.8
				c-0.5,0-0.6,0.3-1,0.4c0.1-0.3-0.2-1,0.2-1c0,0.3,0.5,0.2,0.8,0.2c0.3-0.7,0.4-1.6-0.4-1.2c0.7-0.2,0.2,0.5,0,0.6
				c-0.3-0.1-0.5-0.3-0.6-0.6c0.2,0,0.4,0,0.4-0.2c-0.8-0.2-0.5,0.7-1,0.8c-0.9-0.2-0.5-0.2-1-0.6c0,0.5-0.1,0.8-0.4,1
				c-0.8-0.5-1.9,0.5-2.4,0.2C277.3,54.7,278.9,53.7,279.2,53.2z M280.3,52.8c0.2,0,0.2-0.1,0.2-0.2c0.1,0,0.3,0,0.4,0
				c0,0.2,0.1,0.2,0.2,0.2c0,0.1,0,0.3,0,0.4c-0.2,0-0.2,0.1-0.2,0.2c-0.1,0-0.3,0-0.4,0c0-0.2-0.1-0.2-0.2-0.2
				C280.3,53.1,280.3,53,280.3,52.8z"/>
			<path class="st3" d="M281.9,55c-1,0.9-0.7-0.8-2.2-0.6c-0.1,0.6,0.2,0.7,0.2,1.2c-0.3,0-0.4,0.1-0.6,0.2
				c-0.5,0.1-0.2-0.8-0.8-0.6c-0.6,0.3,0.6,0.4,0.4,1c-0.5-0.1-1,1.3-0.2,1.2c0.1,0,0.1,0,0.2,0c0.6,1.1,2-0.1,2.4-0.6
				c-0.3-0.2-0.4-0.5-0.4-1C281.2,55.5,282,55.7,281.9,55z"/>
			<path class="st3" d="M282.3,57c0.1,0,0.2,0,0.2-0.2c-0.5,0-0.5-0.5-0.8-0.8c0,0.1,0,0.2-0.2,0.2c0,0.1,0,0.3,0,0.4
				c0.2,0,0.5,0.1,0.4,0.4C282,57,282.2,57,282.3,57z"/>
			<path class="st3" d="M266.9,58.3c-0.9,0.1-1.1-1-1.8-0.4C265.3,58.8,266.5,58.9,266.9,58.3z"/>
			<linearGradient id="SVGID_3_" gradientUnits="userSpaceOnUse" x1="185.0313" y1="83.4557" x2="425.7468" y2="83.4557">
				<stop  offset="0" style="stop-color:#FFFFFF"/>
				<stop  offset="1" style="stop-color:#715745"/>
			</linearGradient>
			<path class="st4" d="M425.7,68.3c-0.4,0.1-0.2-0.9,0-0.9c-0.1-0.4-1,0.3-1.3-0.2c-0.7,0.2,0,0.4-0.4,0.8
				c-0.7-0.2-1.2-0.7-1.4-1.4c0.2-0.1,0.4-0.3,0.4-0.6c0.4,0.1,0.4,0.6,1,0.4c0.2,0,0.3-0.2,0.4-0.4c-1-0.7-1.5,0.3-2.4-0.6
				c0-0.4,0.7,0.2,1.2,0c-0.2-0.4-1.3-1.2-1.6-0.4c-0.2-1.2-2.3-2.6-3.5-2.8c0-0.8-1.6-1.6-2.4-1.8c0.2-1.1-0.8-0.6-1.6-1
				c-0.2-0.1-0.3-0.7-0.4-0.8c-0.6-0.3-1,0.1-1.4-0.2c-0.7-0.6-0.4-1.5-1-2.4c-0.2-0.4-0.9-0.4-0.6-0.8c-2.5,0-3.5-1.5-5.1-2.4
				c-0.3,0-0.3,0.3-0.6,0.4c-0.2,0.6,0.6,0.2,0.4,0.8c-1.1,0.1-1.2-0.6-1-1.2c-0.4-0.2-2.8-1.2-3.1-0.2c-0.3,0.7-0.3-0.6-1-0.2
				c0-0.2,0.3-0.2,0.6-0.2c-0.4-0.7-1.8-0.6-2.4-0.2c0.1,0.4,1,0,1.2,0.4c-0.3,0.4-1.8,0.2-2.4-0.2c-0.3,0.6-1.1,0.7-1.8,0.4
				c-0.3,0-0.2,0.3-0.4,0.4c0.3,0.8,1.1,0,1.6,0.4c-0.6,1-1.3,0-2,0c-1.1,0-2.8,0.8-3.3,0.6c-1.1-0.4,0.5-0.3,0.2-0.8
				c-0.3-0.5-2.9-1.4-3.2-1c0.2,0.4,0.8,0.4,1.4,0.4c-0.2,0.9,1,0.5,0.8,1.4c-0.6,0.4-1-0.8-2-0.6c-0.1,0.6,0.2,0.8,0.6,1
				c-0.4,0.5-1-0.4-1.8-0.2c0.1-0.7-0.2-1.3-1.2-1.4c-0.7-0.1-0.5,0.8-1.4,0.6c0-0.2-0.2-0.3-0.4-0.4c0.3-0.7,0.2-1,0.4-1.6
				c-0.9,0-1,0.7-1.6,0c0.9-0.2,0.3-0.8,1-1c-0.3-1-1.3-1.2-2.4-0.6c0-0.3,0.3-0.3,0.2-0.6c-0.5,0-0.9,0-1.4,0
				c-0.1,0.5,0.9-0.1,0.6,0.6c-1.6-0.3-1.6,0.2-3,0.4c0.1-0.3,0.3-0.5,0.4-0.8c-1.1-0.8-2,0-3.1-0.6c0.3-0.4,1.3-0.1,1.4-0.8
				c-0.7-0.4-2.4-0.4-3.3,0c-0.7-0.3-1.4-0.9-1.2-1.2c-0.2-0.5-1.3-0.1-1.4,0.2c-0.8-0.2,0.1-0.6,0.2-1c-0.1-0.4-1.1-0.1-1.6-0.2
				c0.2-0.5,1-0.4,1.6-0.6c-0.5-0.7-1.7-1.7-2.8-1.2c-7.4-3-18.1-8.4-27-4.5c-0.3,0.2-0.8,0.2-1,0.6c-0.1,0-0.1,0-0.2,0
				c-0.5-0.1-0.4,0.4-1,0.2c-2.3,1.4-5.6,0.7-8,2.1c-0.1,0-0.2,0-0.2,0c-5-0.8-10.1,2.1-15.6,2.2c-2.5,0-5,0.4-7.5,0.6
				c-2.1,0.2-5.1,0.2-6.7,1.4c-0.4-0.1-0.4-0.3-0.2-0.6c-1.2,0.4-4.3,0.4-4.7,2.2c-0.3-0.1-0.2-0.6-0.8-0.4c-0.2,0-0.2,0.4-0.2,0.6
				c0,0.2,0.4,0.2,0.6,0.2c-0.9,1-1.6-0.3-2.2-0.8c-0.3-0.1-0.3,0.2-0.6,0.2c0,0.3,0.1,0.5,0.4,0.6c-0.7,0.4-1.3,0.2-2.2,0.2
				c-0.2,0.7,0.7,0.4,0.8,0.8c0.5,0.1,0.2-0.6,0.6-0.6c0.6-0.2,0.3,0.4,0.4,0.8c0.7,0.2,0.8-0.3,1.4-0.2c-0.5,0.2-0.5,0.8-0.8,1.2
				c-0.7,0-0.5-1.1-1.2-1.2c-0.1,1.5-1.7,0.6-2.8-0.4c-0.4,0.3,0.5,0.4,0,1c-0.5,0.4-0.8-0.3-1.2,0.2c-0.4-0.1,0.3-0.8,0.8-0.8
				c-0.5-0.8-2.9,0.6-3.5,0.4c0.3,0.5,0.6,0.9,0.8,1.4c-1.9-0.6-1.2,0.9-2.6,0.6c-0.1,0.7,0.7,0.6,1.2,0.8c0.3-0.2-0.1-0.3,0.2-0.8
				c0.5,0.6,0.7,0.2,1.6,0.2c-1.1-0.9,0.9-0.2,0.8-1.2c0.8,0.1,0.9,0.8,0.8,1.8c0.6,0.1,0.6-0.4,1.2-0.4c-0.4-0.3-0.4-1.1-1.2-1
				c0.1-0.2,0.2-0.4,0-0.4c0-0.6,1-0.3,1.6-0.4c-0.6,1.7,1.8,0,2,0.8c0.1,0.4-0.3,0.4-0.6,0.4c0.3,0.1,0,0.8,0.4,0.8
				c0.7-0.1,0.5-0.5,0.4-1c0.7,0,0,0.8,0.4,0.8c-0.3,0.6-1.2,0.4-1.8,0.2c-0.1-0.6-0.1-0.4,0-1c-0.4,0-0.4,0.2-0.8,0.2
				c0.1,0.7,0.8,0.9,1.2,1.4c-0.2,0.4-0.7,0.7-1,0.4c-0.8,0.5,0.4,1.9,0.2,2.4c-0.2,0.3-0.6,0.4-1.2,0.4c-0.3-0.4,0-0.3,0-0.8
				c-0.8-0.1-1.4,0.1-1.4,0.8c-0.8-0.2-1,0.3-1.8,0.2c-0.1-0.8,0.4-0.1,0.8-0.2c-0.1-0.3-0.4-0.4-0.8-0.4c0-0.4,0.6-0.1,0.6-0.6
				c-0.3-0.8-0.4,0.1-1,0c0-0.3,0.2-1-0.4-0.8c-0.1,0-0.1,0-0.2,0c-0.6-0.2-0.5-1.1-1.4-1c-0.3,0.3,0.5,1.2,0.2,2.2
				c-0.3,0-0.5,0-0.8,0c0,0.5,0,0.9,0.2,1.2c1-1.2,0.1,1.3,1.6,0.8c-0.9,0.8-1.4-0.3-2.6,0.2c0-0.5,0.3-0.4,0-0.8
				c-0.8,0-0.6,0.6-1.2,0c-0.6,0.4-0.3,1.3-0.8,2.2c-0.6-0.3-0.1-0.8-1-1c-0.6-0.1-0.4,0.5-1,0.4c-1.4-0.4-0.9-2.5-1.8-2.6
				c0.4-0.7,0.9-1.1,1.2-1.4c-0.4-0.4-0.4-0.2-0.2-0.8c-0.7-0.1-0.9,0.9-1.4,0.4c0.2,1.2-0.3,0.8-0.8,1c-0.1,0.8,1,1.4,0.2,1.8
				c-0.3-0.1,0.2-0.8-0.4-1c-0.4,0.6,0.2,1.1-0.8,1.2c0.1,1.3,0.3,1.6,0,2.4c-0.4-0.5-0.8-0.9-1-1.6c-0.4,0-0.3,0.5-0.8,0.4
				c0.3-0.9-1.3,0.1-1-0.8c0.7,0,0.6,0.2,1.2,0c-0.3-1-1.9-0.9-1.6-2c-0.5,0.5-0.8-0.1-1,0.6c-0.2,0-0.2-0.4-0.2-0.6
				c-0.3-0.1-0.3,0.2-0.6,0.2c0,1,1,1,1.6,1.4c0,0.8-0.2,0.1-0.6,0.2c-0.2,0-0.4,0-0.6,0c-0.4,0.4-0.6-0.3-1.2-0.2
				c-0.3,0.6,0.2,0.4-0.6,0.6c-0.7,1.7,1.7,1.8,1.8,0.6c0.9,0-0.4,1.1,0.6,1c-1.1,1.1-1.5-0.3-3,0.2c0.1-0.8-0.1-2-0.4-2.6
				c-0.7,0.5-0.1,1.8-0.4,2.4c-0.7,0.2-1-0.4-0.6-0.8c-0.6,0.1-0.8,0.6-1.6,0.6c0-0.3,0-0.5,0-0.8c-0.6-0.1-0.3,0.7-0.8,0.2
				c0.1,1.3,1.4,1.3,2.2,2c-0.3,0.9-0.9,0.1-1.2-0.2c-0.3,0.3,0.3,0.4,0,1.2c-0.9,0.1-0.3-1.3-1.2-1.2c-0.3,0.1-0.2,0.5-0.2,0.8
				c-0.8,0-1.3-0.4-1.6-1c0.1-0.2,0.4-0.3,0.6-0.4c-1.3-0.8-2.2,1.1-1.8,2.2c0.1,0.3,0.7,0.2,0.8,0.4c0,0-0.4,1.1,1,0.8
				c0.6-0.2-0.3-0.5,0-1c0.2,0.1,0.2,0.5,0.6,0.4c0,1.1-1.5,1.3-1,2.4c-0.6-0.3-0.8-0.8-1.4-0.4c-0.7-0.4,0.9-0.9-0.4-1
				c0.1-0.3,0.3-0.5,0.6-0.6c-0.3-0.3-0.7-0.5-0.8-1c-0.5,0.5-1.4,0.5-1.4-0.6c0.4,0.1,0.5,0.4,1,0.4c0.6-0.2-0.3-0.5,0.2-0.8
				c-0.5-0.1-0.4,0.4-1,0.2c0.3-0.7,0.7-0.7,0.4-1.6c-0.5-0.1-1,0.8-0.6,1c-0.4,0.2-0.9,0.4-1.4,0.6c-0.2-0.5-0.9-0.6-1.6-0.6
				c0.6,0.5,0.2,0.7,1,1c-0.4,0.7,0,0.8,0.6,1c0,0.7-0.1,1.4,0.4,1.6c-0.6,0.5-0.3,1.2-0.2,2.2c-0.6-0.2-1-1.2-0.6-1.8
				c-0.7-0.2-0.6,0.5-1.2,0.4c-0.1-0.6,0.1-1.5-0.6-1.6c0.2-0.4,0.7-0.5,1-0.8c-0.5-0.3-0.4-0.7,0.2-0.8c-0.2-0.4-0.8-0.4-1.4-0.4
				c0-0.2,0.4-0.2,0.6-0.2c-0.6-0.7-1.7-0.3-1.6,0.8c-1.8-0.6-5,0.3-5.3,2.4c-1.4-0.5-2.9,0.1-2.4,1.4c1.2,0.2,1.7-1.8,2.8-0.6
				c0.1,0.6-0.4,0.6-1,0.6c0.1,0.4,0.9,0.1,1,0.6c0.1,0.8-1.2,0.1-1.2,0.8c-0.6,0.1-0.7-0.4-1.4-0.2c-0.4,0.2-0.7,0.5-0.6,1.2
				c-1.4-0.5-2.1-1.6-3.5-1c-0.1,0.3,0.2,0.3,0.2,0.6c0.7,0.2,1-0.4,1.4,0c-0.6,0.6-2.5,0.5-3.3,0.2c-0.3,0.1-0.3,0.3-0.6,0.4
				c0.1,0.4,0.5,0.4,0.6,0.8c0.8-0.9,2.4-0.7,3.7-0.4c-0.6,0.9,0.6,0.7,0.6,1.6c-1.4,0.3-1.9-1.8-3.9-1c-0.5,0.4-0.9,1.1-1.8,1.2
				c1-1.5-2.1-0.4-2.2,0.6c0.1,0.3,0.4,0.4,0.8,0.4c-0.7,0.4-2.3,0-2.6,0.8c0.1,0.3,0.5,0.2,0.8,0.2c-0.1,0.8-0.6,0.1-0.6,0.8
				c-1.7-0.8-1.3,0.9-2.6,1c-0.2,0.8,0.9,0.2,0.8,1c-1.2,0.3-2-0.5-3.2,0.4c0.1,0.5,0,0.8-0.2,1c-0.9-0.2-1,0.3-1.6,0.4
				c-0.1,0.4,0.3,0.4,0.6,0.4c-1.1,0.3-1.9,1-3.2,1.2c0.1,0.6-0.2,0.7-0.2,1.2c-1,0.2-0.6,0.5-1.8,0.4c-0.5,0.8-1,1.7-1,2.4
				c0,0.6,0.9,0.3,1.2,0.6c0.2,1,0.1,1.1,0.2,2.2c-2,0.6-3.2-0.4-4.1,1c0.1,1,1.4,0.7,1.4,1.8c-1.8-0.7-3.9-0.2-5.7-0.6
				c0.7,0.7,1.3,0.2,1.6,0.8c1.1-0.2,2.2-0.6,3.2,0c-0.1,0.4-0.4,0.6-0.6,1c-0.7-0.2-0.9-1.1-1.8-0.6c-0.1,0.5,0.8,0.2,0.6,0.8
				c-0.4,0.1-0.6,0.5-1.2,0.4c-0.4-0.4,0.1-0.4,0-1c-0.9,0.2-1.3-0.3-2.2-0.2c0,0.6,0.8,0.5,0.8,1.2c-0.3,0.5-1.1,0.4-2,0.4
				c0.7,1.3,1.9,0.3,3.3,0.8c-0.3,0.8-1.8,0.3-2.4,0.8c0.1-0.7-1.2-0.2-2-0.2c0.2-0.7,0.9,0.2,0.8-0.6c-1.2-0.6-3.5,0.6-3.5,2.2
				c0.7-0.3,1.2,0.1,1.6,0.6c0.2,0.6-0.6,0.3-0.8,0.6c-0.1,0.5,0.9-0.1,0.6,0.6c-1.7,0.3-3.2-0.2-4.1-0.4c-0.3,1-2.8,1.4-3.9,2.2
				c0.1,0.2,0.2,0.4,0.4,0.4c-1.7,0.6-3.1,1.6-4.5,2.6c0.1,0.2,0.2,0.3,0.2,0.6c-2.2,1.2-2,2.7-4.1,3.5c0.5,0.3-0.2,0.7,0.2,0.8
				c-3.7,0.9-5.5,5.4-8.5,7.7c0.5,0.5,0.4,0.7-0.2,1c0.2,0.6,0.7-0.2,1.2,0c0.2,0.7-1.2,0.4-1.4,0.2c-1,0.3-0.8,1.8-1.4,2.6
				c0.2,0.3,0.7,0.4,1.2,0.4c-0.8,0.3-1.6,0.7-2.8,0.8c0.2,1.1-0.2,1.5,0.4,2.2c0.6-0.3,1-0.2,1.2,0.4c0.7-0.1,0.7-0.9,1.6-0.8
				c0.3,0.6-0.3,1.8-0.2,2.4c-1-0.2-1.6,0.1-1.4,1.2c0.8,0.2,0.6-0.6,1.2-0.6c0.5,0.2,1,0.6,1,1.4c-0.9-0.5-1.2,0.2-1.2,0.6
				c0.2,0.3,0.8,0.2,1.2,0.4c-0.1,0.2-0.4,0.3-0.6,0.4c0.7,0.5,1.8,0.4,1.8,1.6c-1.2,0-1.9-0.3-2.6-0.8c-0.3,0.3-0.6,0.6-0.8,1
				c1,0.6,2.3-0.4,3.3,0.2c0.1,0.9-1,0.6-1.2,1.2c0.1,0.2,0.4,0.3,0.6,0.4c0.2-0.5,0.8-0.5,1-1c0.2,0.1,0.3,0.4,0.4,0.6
				c0.1-1.5,2-2.8,1.4-5.1c0.7,0.1,1.1-0.2,1.6-0.4c-0.1-0.2-0.5-0.2-0.4-0.6c0.5-0.3,1-0.7,1.4-1.2c-0.1-0.2-0.3-0.4-0.6-0.4
				c0.2-0.3,0.3-0.6,0.6-0.8c0.5,0.1,0.7,0.5,1.2,0.6c0.6-1-0.1-3.7,2.8-3.3c0-0.8-0.3,0.1-0.6-0.4c0.3-0.5,0.7-0.9,1.6-0.8
				c-0.8,1.7,2.4,2.4,1.8,1c2.8-1.3,3.3-4.9,5.9-6.3c0.1-0.4,0-0.7-0.4-0.8c0.5-0.5,1.1-0.9,1.8-1.2c0-0.2,0-0.3-0.2-0.4
				c2-1.4,2.7-4,4.5-5.5c-0.1-0.2-0.4-0.3-0.6-0.4c0.4,0.1,0.5-0.5,0.4-1.4c0.4-0.4,0.4,0.1,0.8,0.2c0.4-0.1-0.3-0.5,0.2-0.8
				c0.7-0.3,1.3,0.3,2-0.2c-0.5-0.5-1.1-0.3-1.8-0.2c-0.2-0.2-0.1-0.5-0.4-0.6c0-0.6,0.8-0.4,1.4-0.4c0-0.4-0.2-0.4-0.2-0.8
				c0.4,0.4,1.5,0.2,2,0c-0.2-0.3-0.5-0.4-1-0.4c0.5-0.5,1.9,0.5,2.2-0.6c-0.2-0.4-0.8-0.4-1.4-0.4c0.1-1.8,2.5-0.4,3.5-1
				c0-0.9-1.1-0.6-1.6-1c1.2-1.5,3.4-0.9,3.3-2.6c0.5,0,0.9,0,1.2-0.2c0-0.3-0.3-0.5-0.8-0.4c1.4-1.9,3.8-1.6,5.9-1.8
				c-0.3-0.9-0.7-1.7-1.8-1.8c0-0.4,0.2-0.4,0.2-0.8c0.7,0.5,1.5,0,1.6,1.4c0.6-0.2,0.5,0.3,1,0.2c0.6-1,2.6-0.5,3.3-1.4
				c-0.4-1-4.6,1-4.3-1.6c2,0.2,3.9,1,6.1,0.4c-0.6-0.5-1.1-1-1.6-1.6c-1.3-0.3-1.8,1-2.6,0.6c-0.1-0.4,0.4-0.3,0.4-0.6
				c-2.1,1-2.3-1.1-3.9-1.2c0.7-0.7,2.7,0.6,4.1,1c1.6-0.5,2.8,0.1,3.5,1c1.3-0.9,4.5-0.8,4.1-2.8c1.4,0.2,2.9-0.6,2-1.6
				c3.1,0.5,5-1.6,7.7-2.8c0.1,0,0.2,0,0.2-0.2c0.2,0,0.2-0.2,0.4-0.2c0.1,0,0.1,0,0.2,0c0.1-0.6,0.8-0.5,1-1
				c-0.6-0.6-0.7-1.5-0.4-2.2c0.4,0.1,1.5,1.5,0.4,1.6c0.4,0.6,2.3-0.2,2.4-1.2c0.4,0,0.8,0,1.2,0c-0.3-1-1.6,0.2-1.4-1.2
				c-0.3,0-0.5,0-0.8,0c-0.3,0.1-0.4,0.4-0.4,0.8c-1.2-0.1-1.8-0.9-2-1c-0.5-0.2,0.2-0.7,0.2-1c1.3,0,2.3,0.8,3.5,0
				c0.4,0.4,0,0.5,0,1c1.2-0.1,1.4-0.5,2.4-0.2c-0.6,0.2-1.1,0.6-1.8,0.8c1.9,1,3.7-1.3,4.9-2.2c0.1,0,0.1,0,0.2,0
				c0.1,0,0.1,0,0.2,0c0-0.2,0.2-0.3,0.4-0.4c-0.7-0.5-0.9-0.6-1.8-0.8c0.3-0.9,1.9-0.3,2.4-1c-0.9-0.3-0.4-0.9-1.2-1.2
				c-0.1-1,1.4-0.4,2.2-0.6c-0.2,0.6-0.6,0.5,0.2,0.8c-0.1,0.4-0.3-0.2-0.6,0.2c0.8,0.8,1.5,1,3,0.8c-1.1-0.5,0-1.2,1.2-0.8
				c0.2-0.3,0.6-1.2,0-1.2c0.8,0.2,1.7-0.5,2.8-0.6c-0.8,0.5-0.6,1-1.8,1c0.2,0.3,0.7,0.3,0.8,0.6c1.9-1.6,5.4-1.5,6.5-4.3
				c-0.3-0.4-1.2-0.1-1.4-0.6c0.5-0.6,0.9,0.6,1.8,0.2c0.4-0.1-0.3-0.6-0.4-0.8c0.7-0.6,1,0.8,2.2,0.4c-0.1-0.6-0.9-0.3-0.4-1.2
				c0.4,0.3,0.4,1,1.2,0.8c-0.4,2.4,3.3,0.5,4.5-0.4c-0.4-1.1-1.5,0.4-2-0.2c0-0.8,0.7-0.8,0.2-1.6c0.7,0,0.8,0.7,1.8,0.4
				c-0.1,0.3-0.4,0.2-0.6,0.4c0,0.3,0.5,0.2,0.8,0.2c0.3-0.2,0.3-0.6,0.4-1c0.4,1,2.1,0,1.2,0.6c0,0.6,1.3-0.2,1,0.6
				c0.9,0.1,0.5-1,1.4-1c0.1-0.7-1.2,0-1-0.8c0.8-0.4,1.3,0.2,2-0.2c0-0.3-0.3-0.3-0.2-0.6c-0.3,0-0.2,0.5-0.6,0.4
				c0-0.4,0-0.8,0-1.2c0.6,0.1,1.5,0.5,1.6-0.4c2.2,0.9,4.6-1.4,6.1-0.6c0,0.2-0.3,0.2-0.6,0.2c0.1,0.4,0.6,0.4,0.2,0.8
				c0.6-0.1,0.9-0.6,1.8-0.4c0,0.4-0.7,0.1-0.6,0.6c1.5,0.1,1.8-1.2,3-0.8c0.1-0.5-0.4-0.4-0.6-0.6c2.8,0.9,7,0.3,10.2-0.8
				c0.1,0,0.1,0,0.2,0c3.5-0.3,7.3-1.2,10.6-0.4c2.7-1.8,10.6-0.1,15.4-0.4c-1-0.2-2-0.3-3-0.4c1,0.1,2,0.2,3,0.4c0.1,0,0.1,0,0.2,0
				c0,0.1,0,0.1,0,0.2c3.7-0.5,6.2,0.6,9.7,0.8c0.1,0,0.1,0,0.2,0c0,0.1,0,0.1,0,0.2c0.1,0,0.3,0,0.4,0c2.8-0.3,5.7,0.6,7.9-0.2
				c3.9,1.2,8.5,2.5,13.2,2.2c0.5,0,1.1,0,1.6,0c0.2,0.2,0.5,0.3,1,0.2c0,0.3,0.5,0.2,0.8,0.2c0.5,0.4,1.2,0.6,1.8,1
				c3.2,0.7,5.7,2.2,8.3,3.5c1.5-0.2,4.7-0.2,5.5,0c0.4,0.1-0.1,0.4,0,0.4c1.8,1.2,6.2-0.4,8.3,0.8c0.9,0.5,1.2,1.8,2,2.4
				c2.2,0.1,3.3,1.3,4.7,2.2c1.3-0.5,2.1,0.8,3.3,1c0,0.2-0.2,0.2-0.4,0.2c1.3,1.7,3.8,2.3,6.3,3c-1,1.5,4,1.6,5.5,2
				c-0.2,1.3,1.4,0.8,1.6,1.8c0.2-0.1,0.4-0.3,0.4-0.6c0.6,1.4,5.7,1.8,5.3,3.9c0.9,0.8,5.2,1.5,6.8,1.2 M425.1,71.1
				c0,0.5,0,1,0,1.6c-0.3,0-0.5,0-0.8,0c0-1,0.9-1.6-0.6-1.6c0.3-0.4,1.2-0.3,1.6-0.6c-0.2-0.6-0.8,0.1-1.2,0
				c-0.2-0.5-0.2-1.5,0.8-1.4 M211.2,96c-0.5,0.8-1.1,0.6-2,0.2C209.5,95.7,210.6,96.1,211.2,96z M209.2,96.7
				c0.8,0.1,0.2,1.7,1.2,1.8c-0.5,0.8-1,0.1-2,0c0.1-0.7-0.1-1.2-0.6-1.4C207.9,96.6,209.2,97.3,209.2,96.7z M189.6,117.4
				c0.5,0.1,0.8,0.2,1.2,0.4c-0.3,0.7-0.4,1.7-1.4,1.8C190,118.8,189.1,118.3,189.6,117.4z M197.6,109.9c0.6,0.1,1.1,0.3,1.2,1
				c-0.5,0-0.6,0.3-0.8,0.6C197.7,111.2,197.8,110.5,197.6,109.9z M197,109.3c0.1,0.7-0.9,0.3-0.6,1.2c-0.7-0.2,0-0.6-0.4-1.2
				C196.4,109.3,196.7,109.3,197,109.3z M200.8,108.4c-0.6,0-1.3,0.1-1.2-0.6c0.4,0.4,1,0,0.8-0.8c0.7-0.1,1.2,0.2,1.2,0.8
				C201.2,107.4,200.6,107.7,200.8,108.4z M193.5,110.9c0-0.4,0.8-0.1,1.2-0.2c0,0.2,0,0.3,0.2,0.4
				C194.6,111.9,193.9,111.1,193.5,110.9z M194.7,112.1c-0.3,0.6-1.2,0.4-1.2-0.4C194.2,111.5,194.3,111.9,194.7,112.1z M208.1,99.3
				c0.4,0.1,1.3-0.2,1.4,0.2c0,0.8-1.2,0.2-1.4,0.8C207.6,100.2,208,99.4,208.1,99.3z M202.8,102.3c0.2,0.6-0.3,0.5-0.4,0.8
				c-0.3-0.6-0.7-0.4-1-1.2C202,101.8,201.9,102.5,202.8,102.3z M197.6,107.2c-1,0-2.1,0.1-2.2-0.8
				C196.6,106.3,197.4,106,197.6,107.2z M195.7,108.7c0.1,0.4-1.5-0.1-0.8,1.2c-1.1-0.2-1.9-0.3-2-1.6
				C194.2,108.1,194.5,108.9,195.7,108.7z M189.2,114.5c-0.1,0.5,0.4,0.4,0.6,0.6c-0.8,0.5,0.3,1.2-0.8,1.4c0.2-1.2,0.1-1.4-0.8-1.8
				C188.1,114.2,188.9,114.6,189.2,114.5z M186.2,118.4c0.1-0.4,0.1-0.8,0.4-1c0.8-0.1,0.5,0.8,1,1
				C187.2,118.9,186.7,118.7,186.2,118.4z M188.4,121.5c0.3,0,0.5,0,0.8,0C189.3,122.3,188.2,122.3,188.4,121.5z M199.8,113.3
				c0-1.4,0.8-0.3,1.6-0.4C201.1,113.2,200.5,113.3,199.8,113.3z M200.6,110.5c0.3-0.6,1.1,0.1,1.4,0.2c-0.1,0.7-0.7,0.9-0.6,1.8
				C200,112.5,201.1,111,200.6,110.5z M205.7,111.1c-1,0-1.1,0.5-2.4,0.6c0-0.5-0.4-0.7-0.6-1c0.5-0.7,2.1-0.3,2.6-1
				C206.8,110,204.8,111,205.7,111.1z M207.9,108.4c-0.8,0.1-0.7-0.8-1.4-0.8C206,107.4,208.4,107.3,207.9,108.4z M207.9,105.8
				c0.1,0.2,0.3,0.4,0.6,0.4c-0.4,0.9-1.6-0.2-1.8-0.8c1.2,0.2,1.1,0,2.2-0.2C208.9,105.8,208.4,105.8,207.9,105.8z M210.6,98.7
				c0.1-0.3,1.7-0.1,1-0.6c0.1-0.3,0.5-0.2,0.8-0.2C211.9,98.4,211.4,99.1,210.6,98.7z M212,96.5c0.3,0.5-0.3,0.8,0.4,0.8
				c-0.1,0.4-1,0.2-1.2,0c-0.1-1,1.3-0.7,0.8-1.6c0.4,0,0.8,0,1.2,0c-0.1,0.2-0.5,0.3-0.2,0.4C212.8,96.4,212.4,96.4,212,96.5z
				 M215,93.2c0.1,0.7,1,0.5,1,1.4c-1.2-0.6-1.3-1.6-3-1.4c0.9-1,1.7-0.5,3.2-0.8C216.1,93,215.3,92.9,215,93.2z M216.3,92.2
				c0.8-0.2,1,0.3,1.8,0.2c-0.2,0.6,0.3,0.5,0.2,1c-0.5,0-1,0-1.6,0C217,92.6,216.1,93,216.3,92.2z M225.2,82.6c0-0.3,0-0.7,0-1
				c0.3,0,0.7,0,1,0c-0.1,0.6,0.5,0.4,0.4,1C226,82.3,225.9,82.5,225.2,82.6z M276.6,59.1c0.5-0.1,0.4,0.4,1,0.2
				c-0.4,0.7-0.7,0.7-1.4,0.8C276,59.5,276.9,59.9,276.6,59.1z M272.3,60.8C272.3,60.8,272.3,60.8,272.3,60.8
				C272.3,60.8,272.3,60.8,272.3,60.8z M271.9,60.4c-0.1,0.2-0.1,0.4-0.2,0.5C271.8,60.8,271.8,60.6,271.9,60.4z M271.7,61L271.7,61
				C271.7,61,271.7,61,271.7,61C271.7,61,271.7,61,271.7,61z M272.2,60.8C272.2,60.8,272.2,60.8,272.2,60.8
				C272.2,60.8,272.2,60.8,272.2,60.8z M271.9,60.4c0.1-0.2,0.2-0.4,0.3-0.7C272.1,60,272,60.2,271.9,60.4z M271.4,61.5
				C271.4,61.5,271.3,61.5,271.4,61.5C271.3,61.5,271.4,61.5,271.4,61.5z M271.6,61.3C271.5,61.3,271.5,61.3,271.6,61.3
				C271.5,61.3,271.5,61.3,271.6,61.3z M271.2,61.7c-0.1,0.1-0.2,0.1-0.3,0.2C271,61.8,271.1,61.8,271.2,61.7z M270.7,61.9
				c-0.1-0.7-1-0.7-0.4,0c-0.8,0.6-1.5-0.6-2.4-0.6C268.3,60.2,271,60.2,270.7,61.9z M267.3,62.5c-0.3,0.5-1.3,0-1.2-0.6
				C266.7,61.9,266.8,62.4,267.3,62.5z M264.2,63.3c0.2,0.2,0.1,0.4,0.2,1c-0.4-0.1-0.5,0.1-0.8,0.2c0.1,0.2,0.5,0.2,0.4,0.6
				c-0.2,0-0.4,0-0.6,0C263.3,64.1,263.9,63.9,264.2,63.3z M262.4,66.4c-0.7,0-1.1-0.4-1.2-1C261.9,65.1,262.6,65.3,262.4,66.4z
				 M259.3,64.8c-0.2,0-0.4,0-0.4,0.2c-0.9-0.2,0.6-1-0.6-1.2C258.9,63,259.4,64.1,259.3,64.8z M252.8,67.6c0.7-0.1,1.1,0.1,1.6,0.2
				c-0.1,0.4-0.5,1.1,0.2,1.2c0,0.9-1.1,0.1-1.4,0C253.7,68.2,253,68.2,252.8,67.6z M254.3,67.2c-0.6-0.1-0.8,0.4-1.2,0
				C253.2,66.6,254.2,66.5,254.3,67.2z M256.9,66.2c0.3,0.1,0,0.2-0.2,0.2c0,0.4,0.1,0.7,0.4,0.8c-0.1,0.3-0.4,0.4-0.8,0.4
				C256.4,67,256.4,66.4,256.9,66.2z M255.7,62.3c0.3,0.1,0.2,0.5,0.2,0.8c-0.7,0.1-1-0.1-1.4-0.4C254.4,62.2,255.9,63.2,255.7,62.3
				z M252.6,63.1c0.2,0,0.2,0.1,0.2,0.2c0,0.5,0.3-0.3,0.8,0c0.2,0.3,0.1,0.3,0,0.6c1-0.2,0.7-0.5,1.6,0c0,0.4-0.2,0.4-0.2,0.8
				c-0.2-0.1-0.3-0.2-0.6-0.2c-0.2,0.7,0.6,0.3,1,0.4c-0.2,0.5-0.4,0.8-0.2,1.4c-0.3,0-0.5,0.1-0.6,0.4c-0.8-0.3-1.1-1.3-1.8-0.6
				c-0.2-0.2-0.3-0.5-0.2-1c0.7,0.2,1,0,1.8,0.4c0-1-1-0.8-2-0.8c0-0.7,0.3-0.1,0.8-0.4c0-0.7-0.3-0.5-0.8-0.4c0-0.2,0-0.3-0.2-0.4
				C252.2,63.2,252.6,63.3,252.6,63.1z M248,71.7c-0.4,0-0.8,0-1.2,0c0.3-0.4,0.6-0.7,1.2-0.8C248,71.2,248,71.5,248,71.7z
				 M247.8,69.6c0,0.3,0,0.5,0,0.8c-0.9,0-0.8-0.9-1.8-0.8c0.1-0.3,0.3-0.3,0.4-0.6C247,69.1,247.2,69.6,247.8,69.6z M242.3,72.9
				c0.1,0.5-0.4,0.5-0.8,0.6c-0.2-0.2-0.2-0.4-0.2-0.8C241.6,72.9,241.9,73,242.3,72.9z M243.3,74.3c-1.1-0.2-1.2,0.6-2,0.2
				C241.4,73.5,243.4,73.1,243.3,74.3z M240.6,71.1c0.1,0.6-0.6,0.4-1,0.6C239.5,71.1,240,71.1,240.6,71.1z M239.6,73.5
				c-0.2,1.5-1.7,0-3.1,0.4C237,72.4,238.1,74.5,239.6,73.5z M233.5,77.2c0.3,0,1.3-0.6,1.2,0.2C234.1,77.1,233.4,78,233.5,77.2z
				 M232.7,77.4c-0.1,0.4-0.4,0.6-0.6,1c-0.4-0.1-0.5-0.4-1-0.4C231.1,77.3,232.2,77,232.7,77.4z M230.1,80
				c-0.5-0.3-1.6,0.4-1.8-0.6C228.8,79.1,230.5,78.9,230.1,80z M228.5,80c-0.2,0.4-1.4,0.2-1.6,0C227.4,79.7,227.7,80,228.5,80z
				 M228.3,81.2c1-0.3,1.9-1.1,3-0.8c-0.9,0.3-1.8,0.4-1.8,1.6c-0.3,0-0.7,0-1,0C228.7,81.8,229,81,228.3,81.2z M234.3,83.3
				c0.8-0.7,1.1,0.7,1.2,1.4C234.6,84.3,235,83.7,234.3,83.3z M235.4,75.5c0.8-0.7,0.7,1.1,1.8,0.8c-0.2,0.4-1.5,0.2-1.8,0
				C235.2,75.9,236,75.6,235.4,75.5z M238.2,80.6c0.5-0.1,0.8,0,1,0.2C239.2,81.4,238,81.3,238.2,80.6z M241.5,79.8
				c0,0.4,0.2,0.4,0.2,0.8c-0.7,0-0.9-0.6-1-1.2c0.5,0,0.9,0,1.4,0C242.2,79.8,241.9,79.8,241.5,79.8z M250.2,70.6
				c0-0.4,0.5-0.4,1-0.4C251.2,70.9,250.7,70.7,250.2,70.6z M250.2,69.6c0.7-1.1,2,0.2,3,0.2C252.4,70.8,251.6,69.1,250.2,69.6z
				 M253.6,72.9c1.1-0.8-0.8-0.6-1.4-0.4c-0.2-0.4-0.5-1.1-0.2-1.4c0.9,0.5,2.1,0.8,2.6,1.8C254.2,72.9,253.9,72.9,253.6,72.9z
				 M256.5,70.6c-0.3-0.9-1-0.1-1.2-1c0.7,0,0.6-0.2,1.2,0C256.5,69.9,256.5,70.2,256.5,70.6z M259.1,65.6c0.1,0,0.3,0,0.4,0
				c0.6,0.3,0.7,0.3,1.2,0.4c0,0.3,0,0.7,0,1C260,66.6,259,66.7,259.1,65.6z M264.2,67.4c0-0.4,0.7-0.1,0.6-0.6
				c0.4,0.1,0.4,0.6,1,0.4C265.6,67.6,264.7,67.3,264.2,67.4z M269.3,64.8c-0.7,0.1-0.3-0.7-0.8-0.8
				C268.8,63.6,269.5,64.3,269.3,64.8z M277.2,64.1c-0.2-0.2-0.5-0.3-1-0.2c0.2-0.6,0.6-1.1,1.4-1.2
				C277.7,63.4,277.1,63.4,277.2,64.1z M284.7,56.8c0-0.2,0-0.4,0-0.6c0.6,0,0.4-1.4,1.2-0.6c0.3,0.5,0.4,0.4,0.2,1
				c-0.1-0.1-0.8-0.5-0.8,0c0.2-0.1,0.7,0.6,0.2,0.6C285.1,57.1,284.8,57,284.7,56.8z M288.2,58c0-0.3,0-0.5,0-0.8
				c0.9-0.2,0.6,0.8,1.4,0.8C289.4,58.5,288.6,57.9,288.2,58z M312.2,46.1c0,0.1,0,0.1,0,0.2C312.2,46.2,312.2,46.2,312.2,46.1z
				 M333.2,42.5L333.2,42.5c-0.5,1-1.8,0.8-3.3,0.8C331.4,43.3,332.7,43.5,333.2,42.5z M415.2,73.9c-0.6-0.2-0.5,0.3-1,0.2
				c0.3-0.3,0.3-0.7-0.2-0.8c0.4-0.4,1-0.4,1.6-0.2C415.5,73.4,415,73.3,415.2,73.9z M304.3,56.2C304.3,56.2,304.3,56.1,304.3,56.2
				C304.3,56.1,304.3,56.2,304.3,56.2z M304.2,56.1c0,0-0.1,0-0.1-0.1C304.1,56,304.2,56.1,304.2,56.1z M304.7,51.3
				c0.4-0.4,1.2-0.1,1.6,0.2c0.1,0.7-1,0.3-1.4,0.6C305,51.7,304.7,51.6,304.7,51.3z M305.1,50.1c0.4-0.3,2.1-0.3,2.4,0.4
				C306.5,50.5,305.8,50.3,305.1,50.1z M305.7,49.5c0.2-0.3,0.6-0.4,1.2-0.4C307,49.9,306.2,49.6,305.7,49.5z M335.5,42.8
				c0.2,0,0.4,0.1,0.5,0.1C335.8,42.8,335.6,42.8,335.5,42.8z M325.6,47.5c0.2-0.6,0.6-0.7,1.2-0.4C326.9,48,326.1,47.7,325.6,47.5z
				 M319.9,50.7c-0.3-0.2-0.3-0.8-1-0.6c1.6-0.5,2.4-0.4,3.3-1.6c-0.3-0.5-0.4-0.4-0.2-1c0.6-0.3,1.8-0.1,1.8-1
				c1.1-0.1,1.2,0.7,1.6,1.4c0.1,0.7-0.7,0.3-0.8,0.8c0,0.7,0.6,0.7,1,1C323.6,49.8,321.6,51,319.9,50.7z M308.9,53.2
				c0.4-0.2,0.7-0.5,1.2-0.6C310.2,53.3,309.5,53.2,308.9,53.2z M309.5,49.9c0.2,0.6,0.5,1,0.6,1.6c-0.2,0-0.4,0-0.4,0.2
				c-0.6-0.1-0.1-1-0.8-0.4c-0.4,0.1-0.3-0.9,0.2-0.6c-0.1-0.4-0.5-0.5-1-0.6C308.5,49.6,308.8,49.8,309.5,49.9z M310.4,55.9
				C310.4,55.9,310.4,55.9,310.4,55.9C310.4,55.9,310.4,55.9,310.4,55.9z M311.1,55.6c-0.1,0-0.1,0-0.2,0
				C311,55.6,311,55.6,311.1,55.6z M310.8,55.6c0,0-0.1,0-0.1,0C310.8,55.6,310.8,55.6,310.8,55.6z M310.6,55.7
				C310.6,55.7,310.6,55.7,310.6,55.7C310.6,55.7,310.6,55.7,310.6,55.7z M311.4,55.6c-0.1,0-0.2,0-0.3,0
				C311.3,55.6,311.4,55.6,311.4,55.6z M406.5,59.6c-0.4-0.4-0.8-0.8-1.7-0.7C405.8,58.8,406.1,59.2,406.5,59.6z M410.1,58.1
				c-0.2,0-0.5,0-0.8,0C409.6,58.1,409.9,58.1,410.1,58.1z M415.2,72.1c-0.5,0.1-0.8-0.1-0.8-0.6C414.9,71.5,415.3,71.6,415.2,72.1z
				 M394.7,60.3c0.3-0.1,0.3,0.2,0.6,0.2c-0.1,0.4-0.3,0.7-1,0.6C394.1,60.5,395,61,394.7,60.3z M396.3,61.7c0,0.2,0,0.3,0.2,0.4
				c-0.3,0.3-1.1-0.2-1.6-0.2C395,61.4,395.9,61.8,396.3,61.7z M395.5,59.7c-0.2,0-0.3,0.1-0.5,0.1
				C395.2,59.8,395.3,59.8,395.5,59.7z M394.7,60c0.1,0,0.2-0.1,0.3-0.1C394.8,60,394.7,60,394.7,60z M394.2,60.3
				c0.1-0.1,0.2-0.1,0.4-0.2C394.4,60.1,394.3,60.2,394.2,60.3z M393.2,60.7c0.2,0,0.4-0.1,0.6-0.2
				C393.6,60.6,393.4,60.7,393.2,60.7z M393.2,60.3c0.1,0,0.2,0,0.3,0.1C393.4,60.3,393.3,60.3,393.2,60.3z M394,60.4L394,60.4
				L394,60.4L394,60.4z M394.1,60.1C394.1,60.1,394.1,60.1,394.1,60.1C394.1,60.1,394.1,60.1,394.1,60.1z M394.1,59.9
				c0-0.1,0-0.1-0.1-0.1C394.1,59.8,394.1,59.8,394.1,59.9z M393.7,59.5c0.1,0,0.2,0.1,0.3,0.1C394,59.6,393.9,59.5,393.7,59.5z
				 M393.1,60.7c-0.2,0-0.5,0-0.8,0C392.7,60.8,392.9,60.7,393.1,60.7z M410.7,66.6c0.7-0.1,1.4,0,1.2,0.8c-0.7-0.1-1.1,0.5-1.6,0
				C410.4,67.1,410.9,67.2,410.7,66.6z M406.3,61.9C406.4,61.9,406.4,61.9,406.3,61.9C406.4,61.9,406.4,61.9,406.3,61.9z M406.8,62
				C406.8,62.1,406.8,62.1,406.8,62C406.8,62.1,406.8,62.1,406.8,62z M405.9,62c0.1,0,0.1,0,0.2-0.1C406,61.9,405.9,62,405.9,62z
				 M405.7,62.1c-0.2,0.1-0.3,0.2-0.4,0.3C405.4,62.2,405.5,62.1,405.7,62.1z M405,62.7c0.1-0.1,0.2-0.2,0.3-0.3
				C405.1,62.5,405.1,62.6,405,62.7z M404.4,64.3c0-0.3,0.1-0.5,0.2-0.8C404.5,63.7,404.4,64,404.4,64.3z M404.6,63.3
				c0.1-0.2,0.2-0.5,0.4-0.6C404.8,62.9,404.7,63.1,404.6,63.3z M406.7,66.8c0-0.4,0.2-0.4,0.2-0.8c0.4,0.1,0.5,0.4,0.8,0.6
				C407.8,67,407,66.7,406.7,66.8z M409.9,65.8c-0.5,0.1-0.8,0-1-0.2c0-0.4,0.2-0.4,0.2-0.8C409.7,64.8,409.8,65.3,409.9,65.8z
				 M413.4,62.7c0,0.3,0,0.7,0,1c-0.3,0-0.5,0-0.8,0C413.1,63.5,412.8,62.6,413.4,62.7z M406.9,64.6c-0.1-0.4,0.1-0.5,0.2-0.8
				c0.3,0.1,0.5,0.3,0.8,0.4C407.8,64.5,407.4,64.7,406.9,64.6z M412.5,68.8c0.7,0.1,0.4,1-0.4,0.8
				C412.2,69.3,412.3,69.1,412.5,68.8z M412.5,67.8c-0.1-0.8,0.3-1.1,1.2-1c0,0.6,0.5,0.7,0.8,1C414.1,68.2,412.8,68,412.5,67.8z
				 M415.2,69c-0.4,0.4-0.4,1.3-1.4,1.2C413.9,69.6,414,68.8,415.2,69z M404.9,58.9L404.9,58.9c0.3,0.3,0.8,0.5,1.2,0.7
				C405.7,59.4,405.2,59.2,404.9,58.9z M405.5,58.5C405.5,58.5,405.5,58.5,405.5,58.5S405.5,58.5,405.5,58.5z M404.8,58.8
				L404.8,58.8c-0.1-0.1-0.2-0.2-0.2-0.3C404.6,58.7,404.7,58.7,404.8,58.8z M401,61.1c0.2,0.2,0.7,0.1,0.6,0.6
				c-0.8-0.1-1.9,0.1-2-0.8C400.3,60.7,400.9,62.1,401,61.1z M417,72.3c0.1-0.7,0.9,0.1,0.6-1.2c0.8-0.2,0.6,0.6,1.4,0.4
				C418.9,72.4,417.7,72.1,417,72.3z M416.6,69.8c0.9-0.2,2.1-1,3.2-0.4C419.6,70.2,417,70.7,416.6,69.8z M419.7,66.2
				c0,0.6-1.1,0.5-1.4,0.2c0.2-0.3,0.6-0.3,1-0.4C419.4,66.2,419.6,66.2,419.7,66.2z M415.8,65.4c1-0.4,1.1,0.3,1.6,1
				C416.9,67.1,415.6,66.5,415.8,65.4z M409.8,58.4c0.1,0,0.1,0,0.2,0C409.9,58.3,409.8,58.3,409.8,58.4z M409.5,58.5
				c0.1-0.1,0.1-0.1,0.2-0.2C409.6,58.4,409.6,58.5,409.5,58.5z M406.1,59.7c0.2,0.1,0.3,0.2,0.4,0.4
				C406.4,59.9,406.3,59.8,406.1,59.7z M405.6,58.6c0,0,0.1,0.1,0.1,0.1C405.7,58.7,405.7,58.7,405.6,58.6z M390.6,57.6
				c0,0.4-0.2,0.4-0.2,0.8c-0.8,0.2-0.7-0.5-1.2-0.6C389.3,57.3,390.2,57.7,390.6,57.6z M388.8,55.8c0.4-0.7,0.6,0.4,1,0.4
				C389.4,56.9,389.2,55.8,388.8,55.8z M410.1,70c-0.3,0.6-0.5,0.6-0.6,1.2c-0.7-0.2-1.5-0.2-1.8-0.8C408,68.9,409,70.1,410.1,70z
				 M421.9,71.5c0.4,0.3,1,1,0.6,1.6c-0.3-0.5-0.7-1-1.8-0.8C421.1,72.1,421.3,71.6,421.9,71.5z M411.6,59.3c-0.2-0.2-0.2-0.6,0-0.8
				h0C411.4,58.8,411.5,59.1,411.6,59.3z M410,58.3c0.5,0,1,0.3,1.6,0.2C411,58.7,410.5,58.3,410,58.3z M410.3,58.1
				c0.1,0,0.3,0,0.4,0C410.6,58.2,410.5,58.1,410.3,58.1z M410.9,58.2c0.1,0,0.2,0.1,0.3,0.1C411.1,58.3,411,58.3,410.9,58.2z
				 M395.7,55.8c0.2,0,0.1,0.2,0,0.2c-0.1,0.6,0.6,0.4,0.4,1.2c-0.3,0-0.7,0-1,0c0-0.4-0.2-0.4-0.2-0.8
				C395.2,56.2,395.7,56.2,395.7,55.8z M395.5,58.5c-0.5,0.5-1-0.7-0.6-1.2C396.2,57.2,395.3,58.5,395.5,58.5z M336.1,42.9
				c0.2,0,0.4,0,0.6-0.1C336.5,42.8,336.3,42.9,336.1,42.9z M335.7,42.1c0.1,0,0.2,0,0.2-0.1C335.8,42.1,335.8,42.1,335.7,42.1z
				 M303.5,57.3c-0.1,0-0.2,0-0.3,0C303.3,57.3,303.4,57.3,303.5,57.3z M304.5,57.1C304.5,57.1,304.5,57.1,304.5,57.1L304.5,57.1
				C304.5,57.1,304.5,57.1,304.5,57.1z M304.4,56.3C304.4,56.3,304.4,56.3,304.4,56.3C304.4,56.3,304.4,56.3,304.4,56.3z M304.8,57
				c-0.1,0-0.2,0.1-0.2,0.1C304.6,57.1,304.7,57.1,304.8,57z M310.4,56.3C310.4,56.3,310.4,56.3,310.4,56.3L310.4,56.3
				C310.4,56.3,310.4,56.3,310.4,56.3z M312,55.9c-0.2,0-0.4,0.1-0.7,0.1C311.6,56,311.8,56,312,55.9z M311.3,56.1
				c-0.2,0.1-0.4,0.1-0.7,0.2h0C310.9,56.2,311.1,56.1,311.3,56.1z M312.7,55.9c-0.3,0-0.5,0-0.7,0
				C312.2,55.9,312.5,55.9,312.7,55.9z M318.9,55.9c-0.7,0-1.4,0.1-2.1,0.1C317.6,55.9,318.3,55.9,318.9,55.9z M324.6,55.8
				c-0.6,0-1.2,0-1.7,0C323.4,55.8,324,55.8,324.6,55.8z M425.3,74.5c0.2,0.6-0.6,0.2-0.4,0.8c-0.4-0.3-1-0.3-1-1
				C424.5,74.2,424.6,74.6,425.3,74.5z M422.3,67.2c0,0.6-0.8,0.4-1,0.8c-0.1,0.6,0.4,0.6,0.4,1.2c0.2,0,0.4,0,0.4-0.2
				c0.2,0,0.4,0,0.6,0c0.3,0.2,0.8,0.2,0.6,0.8c-0.7-0.5-1.4,0.2-2.4,0C420.1,68.4,421.1,67.3,422.3,67.2z M421.9,65.4
				c-0.2,0.6-0.5,1-1.4,1C420.4,65.5,421.2,64.9,421.9,65.4z M412.2,58.9C412.2,58.9,412.2,58.9,412.2,58.9
				C412.2,58.9,412.2,58.9,412.2,58.9z M411.6,58.5c-0.1-0.1-0.2-0.1-0.3-0.2C411.4,58.4,411.5,58.5,411.6,58.5z M400.8,57.2
				c0,0.5-0.4,0.6,0.2,0.8c-0.2,0.2-1.3,0.5-0.8,0.8c-0.5,0.6-0.8-0.8-1.6-0.6c0.9-0.4,0.5-1.3,0.8-2
				C399.8,56.7,400.3,56.9,400.8,57.2z M394.9,55.2c-0.1,0.5-1.3,1-1.2,0C394.2,55.1,394.6,54.8,394.9,55.2z M381.1,53.4
				c-0.8,0.2-0.7-0.5-1.2-0.6C380.2,52.4,381.4,52.7,381.1,53.4z M339,41.2c0.1,0,0.2-0.1,0.3-0.1C339.2,41.1,339.1,41.2,339,41.2z
				 M337.5,41.7C337.5,41.7,337.6,41.7,337.5,41.7C337.6,41.7,337.5,41.7,337.5,41.7z M328.4,43.2c0.3,0,0.5-0.1,0.8-0.1
				C328.9,43.1,328.6,43.2,328.4,43.2z M327.8,43.3c-0.5,0.1-1,0.2-1.4,0.3C326.8,43.5,327.3,43.4,327.8,43.3z M316.2,45.5
				c-0.9,0-1.9,0.1-2.8,0.1h0C314.3,45.6,315.3,45.5,316.2,45.5z M313.2,45.6L313.2,45.6L313.2,45.6c0,0.4-0.6,0.2-0.9,0.3
				C312.6,45.8,313.2,46,313.2,45.6c-1.9,0.1-3.9,0.3-6.1,0.5C309.3,46,311.3,45.8,313.2,45.6z M312.2,46.1c0,0,0-0.1,0.1-0.1
				C312.3,46,312.3,46,312.2,46.1z M298.4,47.9c0.1,0.6-0.4,0.6-0.4,1.2c-1.3-0.1,0.3-0.8-0.6-1C297.5,47.6,298.2,47.6,298.4,47.9z
				 M297.5,50.3c-0.2,0.5-0.9,0.4-1.6,0.4c0,0.6,0.7,0.5,1,0.8c0,0.5-0.7,0.4-1.2,0.4c0,0.4,0.2,0.4,0.2,0.8c0.5,0,0.4-0.6,1-0.6
				c0.6,0.5,0,1,0.4,1.8c-0.6,0-0.8-0.3-1.6-0.2c-0.2,0.6,0.6,0.1,0.4,0.8c-1.2,0.1-1.6-0.7-2.2-1.2c0.8,0,1.1-0.4,1.8,0
				c0.4-0.4-0.5-1-0.8-1.4c0.3-0.7,1-1,1-2C296.6,49.8,297,50.1,297.5,50.3z M291.9,54.6c0.4-0.6,1.1,0,1.6-0.8
				c0.3-0.1,0.7,0.8,0,0.6c-0.1,0.6,0.4,0.6,0,1C293.2,55,292.9,54.4,291.9,54.6z M294.5,57c0.3,0,0.7,0,1,0
				C295.8,57.6,294.2,57.6,294.5,57z M294.7,56.4c0.4-0.2,0.5-0.7,0.4-1.4c0.7-0.2,0.8,0.2,1.2,0.4C296,56,295.7,56.6,294.7,56.4z
				 M302.2,57.4c-0.2,0-0.3-0.1-0.4-0.2C301.9,57.3,302,57.3,302.2,57.4z M302.3,57.4c0.2,0,0.4,0,0.6,0
				C302.7,57.4,302.5,57.4,302.3,57.4z M313.5,56.2c0.9,0,1.8-0.1,2.7-0.1C315.3,56.1,314.4,56.1,313.5,56.2z M310.7,56.3
				c0.4,0,0.7,0,1.1,0C311.4,56.3,311,56.3,310.7,56.3z M320,55.8c0.6,0,1.2,0,1.8,0C321.1,55.8,320.6,55.8,320,55.8z M325.7,55.8
				c0.6,0,1.3,0.1,1.9,0.1C327,55.9,326.3,55.9,325.7,55.8z"/>
			<path class="st3" d="M180.9,134c-0.4-0.4-1.3,0-0.8-0.8c-0.4,0.5-1.7,0.3-2,0.4C178.6,134,180.4,134.8,180.9,134z"/>
			<path class="st3" d="M177.7,135.3c-1.2-0.2,0-0.7-1.6-0.8C176.3,135.1,177.4,135.6,177.7,135.3z"/>
			<path class="st3" d="M174.4,305.3c0.1,0.5-0.9,0.8-0.2,1.2c0-0.2,0.2-0.3,0.4-0.4c-0.1,0.3,0.3,0.5,0.4,0.2
				C174.4,306.3,174.8,305.3,174.4,305.3z"/>
			<path class="st3" d="M179.9,314.3c0.1-0.4,0-0.7-0.4-0.8c-0.3,0.6-1.1,0.7-1.2,1.6C179.1,315.1,178.9,314.1,179.9,314.3z"/>
			<path class="st3" d="M193.3,330.3c0.6,0.1,1.1-0.8,0.6-1.2C193.6,329.3,193.4,329.7,193.3,330.3z"/>
			<path class="st3" d="M275.4,56.2c-0.1-0.4,0.3-1.2-0.4-1C274.6,55.3,274.8,56.4,275.4,56.2z"/>
			<path class="st3" d="M191.7,325.9c0,0.3,0,0.6-0.2,0.8c0.3,0,0.5,0,0.8,0c-0.1-0.5,0.4-0.4,0.4-0.8
				C192.1,325.8,192.1,326.3,191.7,325.9z"/>
			<path class="st3" d="M203.3,32.2c0,0.3,0,0.7,0,1c3,0.3,5,2.4,7.7,2.4c-0.2,0-0.5,0.1-0.4,0.4c1-0.1,1.8,0.5,2.2-0.4
				c-2.3-2.4-8.2-4.6-11.6-5.3c0,0.6,0.4,0.8,0.4,1.4C202.8,31.2,202.4,32.7,203.3,32.2z"/>
			<path class="st3" d="M269.1,57.4c0.1-0.3-0.3-0.5,0-0.6c0.3,0,0.1,0.5,0.4,0.6c0.3-0.3,0.3-0.7,0-1c0.2,0,0.4,0,0.4-0.2
				c-1.1,0.2-3.2,0.3-2.8,1.4C267.7,57,268.3,57.3,269.1,57.4z"/>
			<path class="st3" d="M359.9,24.7c-1.3-1.5-2.7,1.1-4.3,1.2c-0.3,1.1-0.7,2.1-0.6,3.7C358.5,30,359,26.3,359.9,24.7z"/>
			<path class="st3" d="M303.6,35.7c-0.8-0.2-0.3-0.3-0.2-1c-0.6-0.1-0.5-0.8-1.4-0.6c0.1,0.6-0.4,0.7-0.2,1.4
				C302.2,35.9,303.1,36.5,303.6,35.7z"/>
			<path class="st3" d="M184,129.4c0.4,0.9-0.4,0.7,0,1.4c0.7,0.2,0.4-0.7,0.8-0.8c0.2,0.6,1.1,0.4,1.8,0.4
				C186.8,129.1,184.9,129,184,129.4z"/>
		</g>
	</g>
</g>
</svg>
