<?xml version="1.0" encoding="utf-8"?>
<!-- Generator: Adobe Illustrator 22.1.0, SVG Export Plug-In . SVG Version: 6.00 Build 0)  -->
<svg version="1.1" id="Layer_1" xmlns="http://www.w3.org/2000/svg" xmlns:xlink="http://www.w3.org/1999/xlink" x="0px" y="0px"
	 viewBox="0 0 216 216" style="enable-background:new 0 0 216 216;" xml:space="preserve">
<style type="text/css">
	.st0{clip-path:url(#SVGID_2_);}
	.st1{fill:#0D1F41;}
	.st2{fill:#6D1213;stroke:#FFFFFF;stroke-width:0.5;stroke-miterlimit:10;}
	.st3{fill:#FFFFFF;}
	.st4{fill:#0D1F41;stroke:#FFFFFF;stroke-width:0.1;stroke-miterlimit:10;}
	.st5{fill:#896327;stroke:#FFFFFF;stroke-width:0.25;stroke-linecap:round;stroke-miterlimit:10;}
	.st6{fill:#896327;stroke:#FFFFFF;stroke-width:0.11;stroke-miterlimit:10;}
</style>
<g>
	<defs>
		<rect id="SVGID_1_" width="216" height="216"/>
	</defs>
	<clipPath id="SVGID_2_">
		<use xlink:href="#SVGID_1_"  style="overflow:visible;"/>
	</clipPath>
	<g class="st0">
		<path class="st1" d="M215.5,234.6l-94.1,69.6c-8,5.9-18.9,5.9-26.9,0L0.5,234.6c-5.7-4.2-9-10.8-9-17.9V0.2
			C-7.2-11,1.9-20,13.9-22h188.5c12.3,1.9,21,10.1,22.2,22.2v216.6C224.6,223.8,221.2,230.4,215.5,234.6z"/>
		<path class="st2" d="M211,231l-90.1,67.3c-7.6,5.7-18.1,5.7-25.7,0L5,231c-5.4-4.1-8.6-10.5-8.6-17.2V4.5C-3.7-7.4,6-17,17.9-17
			h180.3c11.9,0,21.5,9.6,21.5,21.5v209.2C219.7,220.6,216.4,227,211,231z"/>
		<g>
			<g>
				<path class="st3" d="M14.3,83.8H36v3.1H17.8v18.1h16.5v3.1H17.8v12h-3.5V83.8z"/>
				<path class="st3" d="M43.3,83.8h3.5v36.3h-3.5V83.8z"/>
				<path class="st3" d="M64.3,86.9H53.1v-3.1H79v3.1H67.8v33.2h-3.5V86.9z"/>
				<path class="st3" d="M88.3,91.6v28.6H85v-37h0.3l24.5,29.3V83.8h3.3v37.1h-0.3L88.3,91.6z"/>
				<path class="st3" d="M122.3,83.8h21.9v3.1h-18.4v18.1h16.4v3h-16.4v8.9H145v3.1h-22.6V83.8z"/>
				<path class="st3" d="M152.7,111.7c1.9,3.6,5.2,5.7,9.5,5.7c5,0,7.9-2.5,7.9-6.2c0-4-2.5-5.8-6.8-7.8l-2.9-1.4
					c-5.2-2.5-8.4-4.8-8.4-9.9c0-5.2,4-8.6,9.3-8.6c4.5,0,7.7,1.7,9.9,5.3l-2.7,1.7c-1.7-2.7-3.9-4-7.2-4c-3.6,0-6,2.3-6,5.5
					c0,3.5,2,4.8,6.4,6.8l2.9,1.4c5.8,2.8,8.9,5.4,8.9,10.9c0,6-4.5,9.5-11.3,9.5c-5.9,0-10.1-2.9-12.5-7.3L152.7,111.7z"/>
				<path class="st3" d="M180.8,111.7c1.9,3.6,5.2,5.7,9.5,5.7c5,0,7.9-2.5,7.9-6.2c0-4-2.5-5.8-6.8-7.8l-2.9-1.4
					c-5.2-2.5-8.4-4.8-8.4-9.9c0-5.2,4-8.6,9.3-8.6c4.5,0,7.7,1.7,9.9,5.3l-2.7,1.7c-1.7-2.7-3.9-4-7.2-4c-3.6,0-6,2.3-6,5.5
					c0,3.5,2,4.8,6.4,6.8l2.9,1.4c5.8,2.8,8.9,5.4,8.9,10.9c0,6-4.5,9.5-11.3,9.5c-5.9,0-10.1-2.9-12.5-7.3L180.8,111.7z"/>
			</g>
		</g>
		<g>
			<path class="st4" d="M168.9,159.9c-9.4,0-17,7.2-17.9,16.4H66c-0.8-9.2-8.5-16.4-17.9-16.4c-10,0-18,8.1-18,18s8.1,18,18,18
				c9.4,0,17-7.2,17.9-16.4h85c0.8,9.2,8.5,16.4,17.9,16.4c10,0,18-8.1,18-18S178.8,159.9,168.9,159.9z"/>
			<g>
				<line class="st5" x1="26.2" y1="170.4" x2="21.6" y2="168.6"/>
				<line class="st5" x1="29.3" y1="164.6" x2="19.9" y2="157.9"/>
				<line class="st5" x1="25.2" y1="177.1" x2="13.4" y2="175.9"/>
				<line class="st5" x1="25.7" y1="183.5" x2="21.9" y2="184.3"/>
				<line class="st5" x1="28.1" y1="188.9" x2="20" y2="193.5"/>
				<line class="st5" x1="31.9" y1="194" x2="28.5" y2="198"/>
				<line class="st5" x1="37.6" y1="198.5" x2="32.3" y2="207.7"/>
				<line class="st5" x1="44" y1="200.4" x2="43.2" y2="203.9"/>
				<line class="st5" x1="49.9" y1="201" x2="50.7" y2="210.1"/>
				<line class="st5" x1="45.1" y1="154.9" x2="44.8" y2="150.8"/>
				<line class="st5" x1="51.7" y1="155.3" x2="53.8" y2="143.9"/>
				<line class="st5" x1="38.6" y1="156.9" x2="34.4" y2="144.8"/>
				<line class="st5" x1="33.1" y1="160.1" x2="30.2" y2="156.2"/>
				<line class="st5" x1="57.4" y1="199.1" x2="59.7" y2="204.5"/>
				<line class="st5" x1="63.2" y1="195.6" x2="70.1" y2="204.1"/>
				<line class="st5" x1="67.9" y1="190.8" x2="70.8" y2="192.7"/>
				<line class="st5" x1="67.5" y1="165.3" x2="71.7" y2="162.9"/>
				<line class="st5" x1="63.3" y1="159.9" x2="72.2" y2="151"/>
				<line class="st5" x1="57.7" y1="156.4" x2="59.9" y2="152.2"/>
			</g>
			<g>
				<line class="st5" x1="189.8" y1="170.2" x2="194.4" y2="168.4"/>
				<line class="st5" x1="186.7" y1="164.4" x2="196.1" y2="157.7"/>
				<line class="st5" x1="190.8" y1="176.9" x2="202.6" y2="175.7"/>
				<line class="st5" x1="190.3" y1="183.3" x2="194.1" y2="184.1"/>
				<line class="st5" x1="187.9" y1="188.7" x2="196" y2="193.3"/>
				<line class="st5" x1="184.1" y1="193.9" x2="187.5" y2="197.8"/>
				<line class="st5" x1="178.4" y1="198.4" x2="183.7" y2="207.5"/>
				<line class="st5" x1="172" y1="200.3" x2="172.8" y2="203.8"/>
				<line class="st5" x1="166.1" y1="200.9" x2="165.3" y2="209.9"/>
				<line class="st5" x1="170.9" y1="154.8" x2="171.2" y2="150.6"/>
				<line class="st5" x1="164.3" y1="155.1" x2="162.2" y2="143.7"/>
				<line class="st5" x1="177.4" y1="156.7" x2="181.6" y2="144.6"/>
				<line class="st5" x1="182.9" y1="159.9" x2="185.8" y2="156"/>
				<line class="st5" x1="158.6" y1="198.9" x2="156.3" y2="204.3"/>
				<line class="st5" x1="152.8" y1="195.4" x2="145.9" y2="203.9"/>
				<line class="st5" x1="148.1" y1="190.6" x2="145.2" y2="192.5"/>
				<line class="st5" x1="148.5" y1="165.1" x2="144.3" y2="162.7"/>
				<line class="st5" x1="152.7" y1="159.7" x2="143.8" y2="150.8"/>
				<line class="st5" x1="158.3" y1="156.2" x2="156.1" y2="152"/>
			</g>
		</g>
		<g>
			<polygon class="st6" points="108.4,224 115.5,238.4 131.3,240.7 119.9,251.8 122.6,267.5 108.4,260.1 94.3,267.5 97,251.8 
				85.6,240.7 101.4,238.4 			"/>
			<polygon class="st6" points="61.2,229.7 64.2,235.6 70.7,236.5 66,241.1 67.1,247.6 61.2,244.6 55.4,247.6 56.5,241.1 
				51.8,236.5 58.3,235.6 			"/>
			<polygon class="st6" points="154,229.7 156.9,235.6 163.4,236.5 158.7,241.1 159.8,247.6 154,244.6 148.1,247.6 149.2,241.1 
				144.5,236.5 151,235.6 			"/>
		</g>
		<g>
			<path class="st3" d="M14.3,65.8V7.1h32.1V16H23.7v7.9h21.4v8.9H23.7v24.1h22.8v8.9H14.3z M43.3,62.6v-2.5H20.5V29.6h21.4v-2.5
				H20.5V12.8h22.8v-2.5H17.5v52.4H43.3z"/>
			<path class="st3" d="M60.3,7.1h9.3v49.9h22.8v8.9H60.3V7.1z M63.5,62.6h25.7v-2.5H66.5V10.3h-2.9V62.6z"/>
			<path class="st3" d="M102.9,65.8V7.1h9.3v58.8H102.9z M109,62.6V10.3h-2.9v52.4H109z"/>
			<path class="st3" d="M123.4,15.8V7.1h34.8v8.7h-12.9v50h-9.3v-50H123.4z M139.3,12.6v50h2.9v-50h12.9v-2.3h-28.4v2.3H139.3z"/>
			<path class="st3" d="M169.5,65.8V7.1h32.1V16h-22.8v7.9h21.4v8.9h-21.4v24.1h22.8v8.9H169.5z M198.5,62.6v-2.5h-22.8V29.6h21.4
				v-2.5h-21.4V12.8h22.8v-2.5h-25.7v52.4H198.5z"/>
		</g>
	</g>
</g>
</svg>
