<?xml version="1.0" encoding="utf-8"?>
<!-- Generator: Adobe Illustrator 22.1.0, SVG Export Plug-In . SVG Version: 6.00 Build 0)  -->
<svg version="1.1" id="Layer_1" xmlns="http://www.w3.org/2000/svg" xmlns:xlink="http://www.w3.org/1999/xlink" x="0px" y="0px"
	 viewBox="0 0 169 216" style="enable-background:new 0 0 169 216;" xml:space="preserve">
<style type="text/css">
	.st0{fill:#0E1F41;}
	.st1{fill:#6D1313;stroke:#FFFFFF;stroke-width:0.5;stroke-miterlimit:10;}
	.st2{fill:#FFFFFF;}
	.st3{fill:#0E1F41;stroke:#FFFFFF;stroke-width:0.1;stroke-miterlimit:10;}
	.st4{fill:#8A6327;stroke:#FFFFFF;stroke-width:0.25;stroke-linecap:round;stroke-miterlimit:10;}
	.st5{fill:#8A6327;stroke:#FFFFFF;stroke-width:0.11;stroke-miterlimit:10;}
</style>
<path class="st0" d="M142.7,159.4L90.5,198c-4.4,3.3-10.5,3.3-14.9,0l-52.2-38.6c-3.2-2.3-5-6-5-9.9V29.3
	c0.8-6.2,5.8-11.2,12.5-12.3h104.6c6.8,1,11.6,5.6,12.3,12.3v120.2C147.7,153.4,145.8,157.1,142.7,159.4z"/>
<path class="st1" d="M140.2,157.4l-50,37.3c-4.2,3.2-10.1,3.2-14.3,0l-50-37.3c-3-2.3-4.8-5.8-4.8-9.6V31.7
	c0-6.6,5.3-11.9,11.9-11.9h100c6.6,0,11.9,5.3,11.9,11.9v116.1C145,151.6,143.2,155.2,140.2,157.4z"/>
<g>
	<g>
		<path class="st2" d="M31,75.7h12v1.7H32.9v10.1h9.2v1.7h-9.2v6.6H31V75.7z"/>
		<path class="st2" d="M47.1,75.7h2v20.1h-2V75.7z"/>
		<path class="st2" d="M58.8,77.4h-6.3v-1.7h14.4v1.7h-6.2v18.4h-1.9V77.4z"/>
		<path class="st2" d="M72,80v15.9h-1.8V75.3h0.2L84,91.6V75.7h1.8v20.6h-0.2L72,80z"/>
		<path class="st2" d="M91,75.7h12.2v1.7H92.9v10.1h9.1v1.7h-9.1v4.9h10.6v1.7H91V75.7z"/>
		<path class="st2" d="M107.8,91.2c1.1,2,2.9,3.2,5.3,3.2c2.8,0,4.4-1.4,4.4-3.5c0-2.2-1.4-3.2-3.8-4.4l-1.6-0.8
			c-2.9-1.4-4.7-2.7-4.7-5.5c0-2.9,2.2-4.8,5.2-4.8c2.5,0,4.3,0.9,5.5,3l-1.5,0.9c-0.9-1.5-2.2-2.2-4-2.2c-2,0-3.3,1.3-3.3,3.1
			c0,1.9,1.1,2.6,3.6,3.8l1.6,0.8c3.2,1.5,4.9,3,4.9,6c0,3.3-2.5,5.3-6.3,5.3c-3.3,0-5.6-1.6-6.9-4.1L107.8,91.2z"/>
		<path class="st2" d="M123.4,91.2c1.1,2,2.9,3.2,5.3,3.2c2.8,0,4.4-1.4,4.4-3.5c0-2.2-1.4-3.2-3.8-4.4l-1.6-0.8
			c-2.9-1.4-4.7-2.7-4.7-5.5c0-2.9,2.2-4.8,5.2-4.8c2.5,0,4.3,0.9,5.5,3l-1.5,0.9c-0.9-1.5-2.2-2.2-4-2.2c-2,0-3.3,1.3-3.3,3.1
			c0,1.9,1.1,2.6,3.6,3.8l1.6,0.8c3.2,1.5,4.9,3,4.9,6c0,3.3-2.5,5.3-6.3,5.3c-3.3,0-5.6-1.6-6.9-4.1L123.4,91.2z"/>
	</g>
</g>
<g>
	<path class="st3" d="M116.8,118c-5.2,0-9.5,4-9.9,9.1H59.7c-0.5-5.1-4.7-9.1-9.9-9.1c-5.5,0-10,4.5-10,10c0,5.5,4.5,10,10,10
		c5.2,0,9.5-4,9.9-9.1h47.2c0.5,5.1,4.7,9.1,9.9,9.1c5.5,0,10-4.5,10-10C126.8,122.4,122.3,118,116.8,118z"/>
	<g>
		<line class="st4" x1="37.6" y1="123.8" x2="35" y2="122.8"/>
		<line class="st4" x1="39.3" y1="120.5" x2="34.1" y2="116.8"/>
		<line class="st4" x1="37" y1="127.5" x2="30.5" y2="126.8"/>
		<line class="st4" x1="37.3" y1="131" x2="35.2" y2="131.5"/>
		<line class="st4" x1="38.6" y1="134" x2="34.2" y2="136.6"/>
		<line class="st4" x1="40.8" y1="136.9" x2="38.9" y2="139.1"/>
		<line class="st4" x1="44" y1="139.4" x2="41" y2="144.5"/>
		<line class="st4" x1="47.5" y1="140.4" x2="47" y2="142.4"/>
		<line class="st4" x1="50.7" y1="140.8" x2="51.2" y2="145.8"/>
		<line class="st4" x1="48.1" y1="115.2" x2="47.9" y2="112.9"/>
		<line class="st4" x1="51.8" y1="115.4" x2="52.9" y2="109.1"/>
		<line class="st4" x1="44.5" y1="116.2" x2="42.1" y2="109.5"/>
		<line class="st4" x1="41.4" y1="118" x2="39.8" y2="115.9"/>
		<line class="st4" x1="54.9" y1="139.7" x2="56.2" y2="142.7"/>
		<line class="st4" x1="58.2" y1="137.7" x2="61.9" y2="142.5"/>
		<line class="st4" x1="60.7" y1="135.1" x2="62.4" y2="136.2"/>
		<line class="st4" x1="60.5" y1="120.9" x2="62.9" y2="119.6"/>
		<line class="st4" x1="58.2" y1="117.9" x2="63.1" y2="113"/>
		<line class="st4" x1="55.1" y1="116" x2="56.3" y2="113.6"/>
	</g>
	<g>
		<line class="st4" x1="128.4" y1="123.7" x2="131" y2="122.7"/>
		<line class="st4" x1="126.7" y1="120.4" x2="131.9" y2="116.7"/>
		<line class="st4" x1="129" y1="127.4" x2="135.5" y2="126.7"/>
		<line class="st4" x1="128.7" y1="130.9" x2="130.8" y2="131.4"/>
		<line class="st4" x1="127.4" y1="133.9" x2="131.8" y2="136.5"/>
		<line class="st4" x1="125.2" y1="136.8" x2="127.1" y2="139"/>
		<line class="st4" x1="122" y1="139.3" x2="125" y2="144.4"/>
		<line class="st4" x1="118.5" y1="140.3" x2="119" y2="142.3"/>
		<line class="st4" x1="115.3" y1="140.7" x2="114.8" y2="145.7"/>
		<line class="st4" x1="117.9" y1="115.1" x2="118.1" y2="112.8"/>
		<line class="st4" x1="114.2" y1="115.3" x2="113.1" y2="109"/>
		<line class="st4" x1="121.5" y1="116.1" x2="123.9" y2="109.4"/>
		<line class="st4" x1="124.6" y1="117.9" x2="126.2" y2="115.8"/>
		<line class="st4" x1="111.1" y1="139.6" x2="109.8" y2="142.6"/>
		<line class="st4" x1="107.8" y1="137.6" x2="104.1" y2="142.4"/>
		<line class="st4" x1="105.3" y1="135" x2="103.6" y2="136"/>
		<line class="st4" x1="105.5" y1="120.8" x2="103.1" y2="119.5"/>
		<line class="st4" x1="107.8" y1="117.8" x2="102.9" y2="112.9"/>
		<line class="st4" x1="110.9" y1="115.9" x2="109.7" y2="113.5"/>
	</g>
</g>
<g>
	<polygon class="st5" points="83.2,153.5 87.2,161.5 95.9,162.8 89.6,168.9 91.1,177.7 83.2,173.6 75.4,177.7 76.9,168.9 
		70.5,162.8 79.3,161.5 	"/>
	<polygon class="st5" points="57.1,156.7 58.7,159.9 62.3,160.5 59.7,163 60.3,166.6 57.1,164.9 53.8,166.6 54.4,163 51.8,160.5 
		55.4,159.9 	"/>
	<polygon class="st5" points="108.5,156.7 110.1,159.9 113.8,160.5 111.1,163 111.8,166.6 108.5,164.9 105.3,166.6 105.9,163 
		103.3,160.5 106.9,159.9 	"/>
</g>
<g>
	<path class="st2" d="M31,65.7V33.1h17.8v4.9H36.2v4.4h11.9v4.9H36.2v13.4h12.7v4.9H31z M47.1,63.9v-1.4H34.4V45.6h11.9v-1.4H34.4
		v-8h12.7v-1.4H32.8v29.1H47.1z"/>
	<path class="st2" d="M56.5,33.1h5.2v27.7h12.7v4.9H56.5V33.1z M58.3,63.9h14.3v-1.4H59.9V34.9h-1.6V63.9z"/>
	<path class="st2" d="M80.2,65.7V33.1h5.2v32.6H80.2z M83.6,63.9V34.9h-1.6v29.1H83.6z"/>
	<path class="st2" d="M91.6,38v-4.8h19.3V38h-7.1v27.8h-5.2V38H91.6z M100.3,36.2v27.8h1.6V36.2h7.1v-1.3H93.3v1.3H100.3z"/>
	<path class="st2" d="M117.1,65.7V33.1H135v4.9h-12.7v4.4h11.9v4.9h-11.9v13.4H135v4.9H117.1z M133.2,63.9v-1.4h-12.7V45.6h11.9
		v-1.4h-11.9v-8h12.7v-1.4h-14.3v29.1H133.2z"/>
</g>
</svg>
