<?xml version="1.0" encoding="utf-8"?>
<!-- Generator: Adobe Illustrator 22.1.0, SVG Export Plug-In . SVG Version: 6.00 Build 0)  -->
<svg version="1.1" id="Layer_1" xmlns="http://www.w3.org/2000/svg" xmlns:xlink="http://www.w3.org/1999/xlink" x="0px" y="0px"
	 viewBox="0 0 252 144" style="enable-background:new 0 0 252 144;" xml:space="preserve">
<style type="text/css">
	.st0{fill:#FFFFFF;}
</style>
<rect width="252" height="144"/>
<rect x="13.7" y="204.3" style="fill:none;" width="244.3" height="60.7"/>
<text transform="matrix(1 0 0 1 145.6816 212.8291)"><tspan x="0" y="0" style="font-family:'Acustica-Caps'; font-size:16px;">EMILY THOMPSON</tspan><tspan x="5.6" y="21.6" style="font-family:'AsterismClean-Regular'; font-size:18px;">wedding photography</tspan><tspan x="-29.2" y="34.8" style="font-family:'Acustica-CapsItalic'; font-size:11px;">emilythompsonweddings.com</tspan><tspan x="56.2" y="48" style="font-family:'Acustica-CapsItalic'; font-size:11px;">243.349.9898</tspan></text>
<g>
	<path class="st0" d="M100,64.2h-1.6V64h7.6v3.9h-0.3v-3.6h-4.4V69h2.5v-2.4h0.2v5.1h-0.2v-2.4h-2.5v5.3h4.4v-3.6h0.3v3.9h-7.6v-0.2
		h1.6V64.2z"/>
	<path class="st0" d="M110.6,65.2v9.4h2.1v0.2h-4.5v-0.2h2.1V64.2h-2.1V64h3.5l0.3,1.2l2.4,7.5l2.6-8.7h3.1v0.2h-1.6v10.3h1.6v0.2
		h-4.7v-0.2h1.6v-9.3l-3,9.6h-0.4L110.6,65.2z"/>
	<path class="st0" d="M124.8,74.6h1.6v0.2h-4.6v-0.2h1.6V64.2h-1.6V64h4.5v0.2h-1.6V74.6z"/>
	<path class="st0" d="M129.4,74.6V64.2h-1.1V64h3.6v0.2h-1.1v10.3h4.4v-3.6h0.3v3.9h-7.2v-0.2H129.4z"/>
	<path class="st0" d="M142.4,69.3v5.3h1.8v0.2h-4.8v-0.2h1.7v-5.1l-2.4-5.3h-1.2V64h3.8v0.2h-1.2l2.1,4.9l2.2-4.9H143V64h3v0.2h-1.4
		L142.4,69.3z"/>
	<path class="st0" d="M153.5,64.2v3.1h-0.3V64h8.3v3.3h-0.3v-3.1H158v10.3h2.4v0.2h-6v-0.2h2.3V64.2H153.5z"/>
	<path class="st0" d="M166.2,69.2v5.4h1.6v0.2h-4.6v-0.2h1.6V64.2h-1.6V64h4.5v0.2h-1.6V69h4.4v-4.7H169V64h4.5v0.2h-1.6v10.3h1.6
		v0.2H169v-0.2h1.6v-5.4H166.2z"/>
	<path class="st0" d="M179.9,75c-2.5,0-4.5-3-4.5-5.6c0-2.7,1.9-5.5,4.5-5.5c2.6,0,4.5,2.9,4.5,5.5C184.4,72.1,182.4,75,179.9,75z
		 M179.9,64.1c-1.9,0-2.8,2.2-2.8,5.3c0,3.4,0.9,5.4,2.8,5.4c1.8,0,2.9-2.2,2.9-5.4C182.8,66,181.7,64.1,179.9,64.1z"/>
	<path class="st0" d="M188.4,65.2v9.4h2.1v0.2h-4.5v-0.2h2.1V64.2h-2.1V64h3.5l0.3,1.2l2.4,7.5l2.6-8.7h3.1v0.2h-1.6v10.3h1.6v0.2
		h-4.7v-0.2h1.6v-9.3l-3,9.6h-0.4L188.4,65.2z"/>
	<path class="st0" d="M202.7,70.6v4h1.5v0.2h-4.4v-0.2h1.6V64.2h-1.6V64h4.6c2.6,0,3.5,1.5,3.5,3.2c0,1.6-0.9,3.4-3.5,3.4H202.7z
		 M202.7,70.3h1.4c1.9,0,2.5-1.6,2.5-3.2c0-1.5-0.7-3-2.5-3h-1.4V70.3z"/>
	<path class="st0" d="M216.6,72.9c0-1-0.4-1.8-2.9-3.1c-2.5-1.3-3.3-2.1-3.3-3.4s1.5-2.6,3.3-2.6c1.3,0,2.6,1,3,2.1v-2.4h0.3v3.5
		h-0.3c-0.2-2.1-1.8-3.1-3-3.1c-1.5,0-2.4,0.9-2.4,1.8c0,1.1,0.6,1.5,2.4,2.4c2.9,1.6,3.8,2.5,3.8,3.9c0,1.6-1.6,2.9-3.4,2.9
		c-1.7,0-2.9-1.3-3.5-2.8v2.6h-0.3V71h0.3c0.2,2.1,1.9,3.7,3.5,3.7C215.4,74.7,216.6,73.9,216.6,72.9z"/>
	<path class="st0" d="M224.1,75c-2.5,0-4.5-3-4.5-5.6c0-2.7,1.9-5.5,4.5-5.5c2.6,0,4.5,2.9,4.5,5.5C228.6,72.1,226.7,75,224.1,75z
		 M224.1,64.1c-1.9,0-2.8,2.2-2.8,5.3c0,3.4,0.9,5.4,2.8,5.4c1.8,0,2.9-2.2,2.9-5.4C227,66,226,64.1,224.1,64.1z"/>
	<path class="st0" d="M239.1,75.1l-6.6-9.6v9.1h2v0.2h-4.1v-0.2h1.8V64.2h-1.8V64h2.7l5.9,8.6v-8.3h-2.2V64h3.8v0.3h-1.3v10.8H239.1
		z"/>
	<path class="st0" d="M100.5,115.9h-0.8l0-0.1h4.1l-0.5,2.1h-0.2l0.4-2h-2.3l-0.5,2.6h1.3l0.3-1.3h0.2l-0.6,2.8h-0.2l0.3-1.3h-1.3
		l-0.6,2.8h2.4l0.4-2h0.2l-0.4,2.1h-4.1l0-0.1h0.8L100.5,115.9z"/>
	<path class="st0" d="M106.3,116.4l-1.1,5.1h1.2l0,0.1h-2.4l0-0.1h1.1l1.2-5.6h-1.1l0-0.1h1.9l0,0.6l0.4,4l2.4-4.7h1.6l0,0.1h-0.8
		l-1.2,5.6h0.8l0,0.1h-2.5l0-0.1h0.9l1.1-5l-2.7,5.2h-0.2L106.3,116.4z"/>
	<path class="st0" d="M113,121.5h0.9l0,0.1h-2.5l0-0.1h0.9l1.2-5.6h-0.9l0-0.1h2.5l0,0.1h-0.9L113,121.5z"/>
	<path class="st0" d="M116.5,118.6l0.6-2.7h-0.6l0-0.1h2l0,0.1h-0.6l-1.2,5.6h2.4l0.4-2h0.2l-0.4,2.1h-3.9l0-0.1h0.6L116.5,118.6z"
		/>
	<path class="st0" d="M122.8,118.6l-0.6,2.9h0.9l0,0.1h-2.6l0-0.1h0.9l0.6-2.7l-0.7-2.8h-0.6l0-0.1h2l0,0.1h-0.6L122.8,118.6
		l1.7-2.7h-0.7l0-0.1h1.6l0,0.1h-0.7L122.8,118.6z"/>
	<path class="st0" d="M126.2,115.9l-0.4,1.7h-0.1l0.4-1.8h4.5l-0.4,1.8h-0.1l0.4-1.7h-1.8l-1.2,5.6h1.3l0,0.1h-3.2l0-0.1h1.2
		l1.2-5.6H126.2z"/>
	<path class="st0" d="M132.3,118.6l-0.6,2.9h0.9l0,0.1h-2.3l0-0.1h0.7l1.2-5.6h-0.9l0-0.1h2.5l0,0.1h-0.9l-0.5,2.6h2.4l0.5-2.6h-0.9
		l0-0.1h2.5l0,0.1H136l-1.2,5.6h0.9l0,0.1h-2.5l0-0.1h0.9l0.6-2.9H132.3z"/>
	<path class="st0" d="M137.1,119.2c0-1.7,1.3-3.6,3-3.6c1.3,0,1.9,1.3,1.9,2.6c0,1.7-1.3,3.6-3,3.6
		C137.8,121.8,137.1,120.5,137.1,119.2z M141.4,117.5c0-1.2-0.4-1.9-1.3-1.9c-1.3,0-2.2,1.8-2.2,4.1c0,1.2,0.3,1.9,1.2,1.9
		C140.4,121.7,141.4,119.8,141.4,117.5z"/>
	<path class="st0" d="M144.7,116.4l-1.1,5.1h1.2l0,0.1h-2.4l0-0.1h1.1l1.2-5.6h-1.1l0-0.1h1.9l0,0.6l0.4,4l2.4-4.7h1.6l0,0.1h-0.8
		l-1.2,5.6h0.8l0,0.1h-2.5l0-0.1h0.9l1.1-5l-2.7,5.2h-0.2L144.7,116.4z"/>
	<path class="st0" d="M151.5,119.4l-0.4,2.1h0.8l0,0.1h-2.3l0-0.1h0.8l1.2-5.6h-0.8l0-0.1h2.6c1.1,0,1.6,0.7,1.6,1.4
		c0,1-0.8,2.2-2.2,2.2H151.5z M151.6,119.3h1c1,0,1.6-1.2,1.6-2.1c0-0.6-0.1-1.2-0.9-1.2h-1L151.6,119.3z"/>
	<path class="st0" d="M159.3,120.3c0-0.4-0.3-0.8-1.2-1.4c-1.1-0.6-1.6-1-1.6-1.6c0-0.9,1-1.6,2-1.6c0.6,0,1.3,0.3,1.5,1.1l0.3-1.3
		h0.1l-0.4,1.9h-0.1c0-0.1,0-0.3,0-0.4c0-0.9-0.7-1.3-1.4-1.3c-0.7,0-1.5,0.4-1.5,1.1c0,0.5,0.4,0.7,1.2,1.2
		c1.2,0.7,1.6,1.2,1.6,1.8c0,1-1,1.8-2,1.8c-0.9,0-1.6-0.7-1.7-1.5l-0.3,1.4h-0.1l0.4-2h0.1c0,0.1,0,0.2,0,0.3c0,1,0.8,1.7,1.6,1.7
		C158.7,121.6,159.3,121,159.3,120.3z"/>
	<path class="st0" d="M161.3,119.2c0-1.7,1.3-3.6,3-3.6c1.3,0,1.9,1.3,1.9,2.6c0,1.7-1.3,3.6-3,3.6
		C162,121.8,161.3,120.5,161.3,119.2z M165.6,117.5c0-1.2-0.4-1.9-1.3-1.9c-1.3,0-2.2,1.8-2.2,4.1c0,1.2,0.3,1.9,1.2,1.9
		C164.6,121.7,165.6,119.8,165.6,117.5z"/>
	<path class="st0" d="M171.2,121.8l-2.5-5.2l-1,4.9h1.1l0,0.1h-2l0-0.1h0.7l1.2-5.6h-1l0-0.1h1.5l2.2,4.6l1-4.5h-1.2l0-0.1h2l0,0.1
		h-0.6l-1.2,5.9H171.2z"/>
	<path class="st0" d="M176.4,115.9l0-0.1h2l0,0.1h-0.7l0.2,4.7l2.6-4.7h-0.9l0-0.1h1.4l0,0.1h-0.4l-3.1,5.8h-0.3l-0.3-4.3l-2.1,4.3
		h-0.3l-0.6-5.8h-0.4l0-0.1h2l0,0.1h-0.7l0.4,4.7l1.8-3.6l-0.1-1.2H176.4z"/>
	<path class="st0" d="M182.3,115.9h-0.8l0-0.1h4.1l-0.5,2.1h-0.2l0.4-2H183l-0.6,2.6h1.3l0.3-1.3h0.2l-0.6,2.8h-0.2l0.3-1.3h-1.3
		l-0.6,2.8h2.4l0.4-2h0.2l-0.4,2.1h-4.1l0-0.1h0.8L182.3,115.9z"/>
	<path class="st0" d="M185.7,121.5h0.7l1.2-5.6h-0.8l0-0.1h1.8c1.8,0,2.6,1.1,2.6,2.2c0,1.9-1,3.6-3.3,3.6h-2.1L185.7,121.5z
		 M187.1,121.5h0.4c2.2,0,2.9-2.1,2.9-3.7c0-1-0.4-1.9-1.7-1.9h-0.4L187.1,121.5z"/>
	<path class="st0" d="M191.5,121.5h0.7l1.2-5.6h-0.8l0-0.1h1.8c1.8,0,2.6,1.1,2.6,2.2c0,1.9-1,3.6-3.3,3.6h-2.1L191.5,121.5z
		 M192.9,121.5h0.4c2.2,0,2.9-2.1,2.9-3.7c0-1-0.4-1.9-1.7-1.9h-0.4L192.9,121.5z"/>
	<path class="st0" d="M199.1,121.5h0.9l0,0.1h-2.5l0-0.1h0.9l1.2-5.6h-0.9l0-0.1h2.5l0,0.1h-0.9L199.1,121.5z"/>
	<path class="st0" d="M205.5,121.8l-2.5-5.2l-1,4.9h1.1l0,0.1h-2l0-0.1h0.7l1.2-5.6h-1l0-0.1h1.5l2.2,4.6l1-4.5h-1.2l0-0.1h2l0,0.1
		h-0.6l-1.2,5.9H205.5z"/>
	<path class="st0" d="M208.8,119.6c0,1.1,0.3,2.1,1,2.1c0.6,0,1.3-0.3,1.6-1.6l0.3-1.3h-0.9l0-0.1h2.3l0,0.1h-0.6l-0.6,2.9h-0.2
		l-0.2-0.8l-0.2,0.3c-0.3,0.4-0.9,0.6-1.5,0.6c-1.3,0-1.8-1.1-1.8-2.3c0-1.8,1.2-3.9,3.1-3.9c0.9,0,1.5,0.5,1.6,1.3l0.3-1.3h0.1
		l-0.4,1.9h-0.1c0-0.1,0-0.2,0-0.3c0-0.9-0.7-1.5-1.5-1.5C209.5,115.7,208.8,117.9,208.8,119.6z"/>
	<path class="st0" d="M217.3,120.3c0-0.4-0.3-0.8-1.2-1.4c-1.1-0.6-1.6-1-1.6-1.6c0-0.9,1-1.6,2-1.6c0.6,0,1.3,0.3,1.5,1.1l0.3-1.3
		h0.1l-0.4,1.9h-0.1c0-0.1,0-0.3,0-0.4c0-0.9-0.7-1.3-1.4-1.3c-0.7,0-1.5,0.4-1.5,1.1c0,0.5,0.4,0.7,1.2,1.2
		c1.2,0.7,1.6,1.2,1.6,1.8c0,1-1,1.8-2,1.8c-0.9,0-1.6-0.7-1.7-1.5l-0.3,1.4h-0.1l0.4-2h0.1c0,0.1,0,0.2,0,0.3c0,1,0.8,1.7,1.6,1.7
		C216.7,121.6,217.3,121,217.3,120.3z"/>
	<path class="st0" d="M220,120.5c0.3,0,0.6,0.3,0.6,0.6c0,0.3-0.3,0.6-0.6,0.6s-0.6-0.3-0.6-0.6C219.4,120.8,219.7,120.5,220,120.5z
		"/>
	<path class="st0" d="M226.3,119.8h0.2c-0.3,1.3-1.2,1.9-2.3,1.9c-1.4,0-2.1-1.2-2.1-2.6c0-1.7,1.3-3.6,3-3.6c0.9,0,1.5,0.5,1.6,1.3
		l0.3-1.3h0.1l-0.4,1.9h-0.1c0-0.1,0-0.2,0-0.3c0-0.9-0.6-1.6-1.5-1.6c-1.3,0-2.2,1.8-2.2,4.1c0,1.2,0.4,1.9,1.2,1.9
		C225.1,121.7,226,121.1,226.3,119.8z"/>
	<path class="st0" d="M227.9,119.2c0-1.7,1.3-3.6,3-3.6c1.3,0,1.9,1.3,1.9,2.6c0,1.7-1.3,3.6-3,3.6
		C228.6,121.8,227.9,120.5,227.9,119.2z M232.1,117.5c0-1.2-0.4-1.9-1.3-1.9c-1.3,0-2.2,1.8-2.2,4.1c0,1.2,0.3,1.9,1.2,1.9
		C231.1,121.7,232.1,119.8,232.1,117.5z"/>
	<path class="st0" d="M235.5,116.4l-1.1,5.1h1.2l0,0.1h-2.4l0-0.1h1.1l1.2-5.6h-1.1l0-0.1h1.9l0,0.6l0.4,4l2.4-4.7h1.6l0,0.1h-0.8
		l-1.2,5.6h0.8l0,0.1H237l0-0.1h0.9l1.1-5l-2.7,5.2H236L235.5,116.4z"/>
	<path class="st0" d="M185.1,127.3c0-0.9,1-1.5,1.9-1.5c0.8,0,1.5,0.4,1.5,1.2c0,0.7-0.2,1.1-1.7,2c-1.6,1-1.9,1.5-2.1,2.2h2.8
		l0.4-1.6h0.1l-0.5,2.1h-3.3c0-0.7,0.5-1.6,1.7-2.4c0.8-0.6,1.8-1.2,1.8-2.3c0-0.7-0.5-1-1-1c-0.5,0-1.2,0.4-1.4,0.9
		c0,0,0.1,0,0.1,0c0.2,0,0.4,0.2,0.4,0.4c0,0.2-0.2,0.4-0.4,0.4S185.1,127.6,185.1,127.3L185.1,127.3z"/>
	<path class="st0" d="M193.2,126l-0.8,4h0.7l0,0.2h-0.7l-0.3,1.6h0.9l0,0.1h-2.5l0-0.1h0.9l0.3-1.6h-2.3c0.2-0.9,1.7-2.3,2-3.6
		c0.1-0.3,0.1-0.6-0.1-0.8c0,0,0.3,0,0.3,0c0.1,0,0.4,0.2,0.2,0.8c-0.2,1.1-2,2.9-2.2,3.5h1.9l0.8-3.8L193.2,126z"/>
	<path class="st0" d="M195.1,127.3c0-0.9,1-1.5,1.9-1.5c0.8,0,1.5,0.4,1.5,1.2c0,0.8-0.6,1.7-1.7,1.7c1,0.2,1.5,0.7,1.5,1.2
		c0,0.9-0.7,2-2.5,2c-0.9,0-1.5-0.4-1.5-1.1v0c0-0.2,0.2-0.4,0.4-0.4s0.4,0.2,0.4,0.4s-0.2,0.4-0.4,0.4c0,0-0.1,0-0.1,0
		c0.2,0.3,0.6,0.5,1.1,0.5c1.3,0,1.8-1,1.8-1.9c0-0.6-0.4-1.1-1.4-1.1h-0.5l0-0.1h0.5c1.1,0,1.7-0.9,1.7-1.7c0-0.7-0.5-1-1-1
		c-0.5,0-1.2,0.4-1.4,0.9c0,0,0.1,0,0.1,0c0.2,0,0.4,0.2,0.4,0.4c0,0.2-0.2,0.4-0.4,0.4S195.1,127.6,195.1,127.3L195.1,127.3z"/>
	<path class="st0" d="M200.3,130.7c0.3,0,0.6,0.3,0.6,0.6c0,0.3-0.3,0.6-0.6,0.6s-0.6-0.3-0.6-0.6C199.7,131,200,130.7,200.3,130.7z
		"/>
	<path class="st0" d="M203.1,127.3c0-0.9,1-1.5,1.9-1.5c0.8,0,1.5,0.4,1.5,1.2c0,0.8-0.6,1.7-1.7,1.7c1,0.2,1.5,0.7,1.5,1.2
		c0,0.9-0.7,2-2.5,2c-0.9,0-1.5-0.4-1.5-1.1v0c0-0.2,0.2-0.4,0.4-0.4s0.4,0.2,0.4,0.4s-0.2,0.4-0.4,0.4c0,0-0.1,0-0.1,0
		c0.2,0.3,0.6,0.5,1.1,0.5c1.3,0,1.8-1,1.8-1.9c0-0.6-0.4-1.1-1.4-1.1h-0.5l0-0.1h0.5c1.1,0,1.7-0.9,1.7-1.7c0-0.7-0.5-1-1-1
		c-0.5,0-1.2,0.4-1.4,0.9c0,0,0.1,0,0.1,0c0.2,0,0.4,0.2,0.4,0.4c0,0.2-0.2,0.4-0.4,0.4S203.1,127.6,203.1,127.3L203.1,127.3z"/>
	<path class="st0" d="M211.4,126l-0.8,4h0.7l0,0.2h-0.7l-0.3,1.6h0.9l0,0.1h-2.5l0-0.1h0.9l0.3-1.6h-2.3c0.2-0.9,1.7-2.3,2-3.6
		c0.1-0.3,0.1-0.6-0.1-0.8c0,0,0.3,0,0.3,0c0.1,0,0.4,0.2,0.2,0.8c-0.2,1.1-2,2.9-2.2,3.5h1.9l0.8-3.8L211.4,126z"/>
	<path class="st0" d="M213.2,131.3c-0.1,0-0.1,0-0.2,0c0.1,0.3,0.4,0.6,1,0.6c0.9,0,1.4-0.7,1.8-2.8c-0.4,0.3-0.9,0.6-1.3,0.6
		c-1,0-1.3-0.7-1.3-1.4c0-1.6,0.9-2.4,2.1-2.4c0.9,0,1.5,0.6,1.5,1.7c0,0.3,0,0.7-0.1,1.1c-0.4,2-1.4,3.4-2.7,3.4
		c-0.9,0-1.2-0.5-1.2-1.1v0c0-0.2,0.2-0.4,0.4-0.4c0.2,0,0.4,0.2,0.4,0.4S213.4,131.3,213.2,131.3z M215.9,128.7l0-0.1
		c0.1-0.4,0.2-0.9,0.2-1.5c0-0.6-0.2-1.2-0.8-1.2c-0.7,0-1.4,1-1.4,2.4c0,0.5,0.2,1,0.7,1C215,129.4,215.5,129.2,215.9,128.7z"/>
	<path class="st0" d="M218.4,130.7c0.3,0,0.6,0.3,0.6,0.6c0,0.3-0.3,0.6-0.6,0.6s-0.6-0.3-0.6-0.6
		C217.8,131,218.1,130.7,218.4,130.7z"/>
	<path class="st0" d="M221,131.3c-0.1,0-0.1,0-0.2,0c0.1,0.3,0.4,0.6,1,0.6c0.9,0,1.4-0.7,1.8-2.8c-0.4,0.3-0.9,0.6-1.3,0.6
		c-1,0-1.3-0.7-1.3-1.4c0-1.6,0.9-2.4,2.1-2.4c0.9,0,1.5,0.6,1.5,1.7c0,0.3,0,0.7-0.1,1.1c-0.4,2-1.4,3.4-2.7,3.4
		c-0.9,0-1.2-0.5-1.2-1.1v0c0-0.2,0.2-0.4,0.4-0.4c0.2,0,0.4,0.2,0.4,0.4S221.3,131.3,221,131.3z M223.7,128.7l0-0.1
		c0.1-0.4,0.2-0.9,0.2-1.5c0-0.6-0.2-1.2-0.8-1.2c-0.7,0-1.4,1-1.4,2.4c0,0.5,0.2,1,0.7,1C222.9,129.4,223.4,129.2,223.7,128.7z"/>
	<path class="st0" d="M227.5,128.6c-0.4-0.5-0.8-1-0.6-1.7c0.2-0.7,1-1.1,1.7-1.1c0.7,0,1.3,0.3,1.2,1c-0.1,0.7-0.9,1.2-1.4,1.5
		c0.6,0.6,1.2,1.3,1.1,2.1c-0.2,0.9-1.1,1.5-2.2,1.5c-1.1,0-1.7-0.6-1.6-1.4C225.8,129.9,226.8,129,227.5,128.6z M227.5,128.7
		c-0.6,0.4-1.3,1.3-1.4,1.8c-0.2,0.7,0.3,1.3,1.1,1.3c0.7,0,1.4-0.5,1.5-1.1C228.9,130,228.2,129.4,227.5,128.7z M228.3,128.3
		c0.4-0.3,1-0.8,1.1-1.4c0.1-0.5-0.3-0.8-0.8-0.8c-0.5,0-1,0.2-1.1,0.7C227.3,127.2,227.7,127.7,228.3,128.3z"/>
	<path class="st0" d="M231.4,131.3c-0.1,0-0.1,0-0.2,0c0.1,0.3,0.4,0.6,1,0.6c0.9,0,1.4-0.7,1.8-2.8c-0.4,0.3-0.9,0.6-1.3,0.6
		c-1,0-1.3-0.7-1.3-1.4c0-1.6,0.9-2.4,2.1-2.4c0.9,0,1.5,0.6,1.5,1.7c0,0.3,0,0.7-0.1,1.1c-0.4,2-1.4,3.4-2.7,3.4
		c-0.9,0-1.2-0.5-1.2-1.1v0c0-0.2,0.2-0.4,0.4-0.4c0.2,0,0.4,0.2,0.4,0.4S231.6,131.3,231.4,131.3z M234.1,128.7l0-0.1
		c0.1-0.4,0.2-0.9,0.2-1.5c0-0.6-0.2-1.2-0.8-1.2c-0.7,0-1.4,1-1.4,2.4c0,0.5,0.2,1,0.7,1C233.2,129.4,233.7,129.2,234.1,128.7z"/>
	<path class="st0" d="M237.8,128.6c-0.4-0.5-0.8-1-0.6-1.7c0.2-0.7,1-1.1,1.7-1.1c0.7,0,1.3,0.3,1.2,1c-0.1,0.7-0.9,1.2-1.4,1.5
		c0.6,0.6,1.2,1.3,1.1,2.1c-0.2,0.9-1.1,1.5-2.2,1.5c-1.1,0-1.7-0.6-1.6-1.4C236.1,129.9,237.1,129,237.8,128.6z M237.9,128.7
		c-0.6,0.4-1.3,1.3-1.4,1.8c-0.2,0.7,0.3,1.3,1.1,1.3c0.7,0,1.4-0.5,1.5-1.1C239.2,130,238.5,129.4,237.9,128.7z M238.6,128.3
		c0.4-0.3,1-0.8,1.1-1.4c0.1-0.5-0.3-0.8-0.8-0.8c-0.5,0-1,0.2-1.1,0.7C237.6,127.2,238.1,127.7,238.6,128.3z"/>
</g>
<g>
	<path class="st0" d="M142.5,90.2c0.1-0.1,0.2,0,0.1,0.1c-0.3,0.4-0.8,1.1-1.3,1.1c-0.6,0-1-1-1.1-2.1c-0.2,0.4-0.5,0.7-0.8,1
		c-0.6,0.8-2.6,3.2-3.3,3.2c-0.3,0-0.4-0.4-0.4-0.9c0-0.5,0.1-1.1,0.4-1.7c-0.8,0.9-1.9,2-2.4,2.2c0,0-0.1,0-0.1,0
		c-0.3,0-0.6-0.3-0.6-1.3c0-0.7,0.8-2.6,1.8-3.6c0.1-0.1,0.2-0.1,0.3-0.1c0.2,0,0.4,0.1,0.4,0.3c0,0.1,0,0.1-0.1,0.2
		c-0.3,0.5-1.8,3.2-1.8,4.2c0,0.1,0,0.1,0,0.2c0.6-0.3,2-1.7,2.7-2.6c0.2-0.5,0.5-0.9,0.9-1.5c0.1-0.2,0.3-0.4,0.4-0.6
		c0.1-0.1,0.4-0.2,0.6-0.2c0.2,0,0.3,0.1,0.3,0.1c0,0.4-0.8,1.7-1,2c-0.6,1-1.3,2.1-1.3,2.9c0,0.1,0,0.1,0,0.1
		c0.6-0.2,1.8-1.5,3-3.1c0.3-0.4,0.6-0.8,0.8-1.2c-0.3-2.4,0.6-4,1.3-4c0.2,0,0.4,0.1,0.4,0.5c0,0.8-0.8,2.2-1.2,2.9
		c0,0.8-0.1,2.7,0.7,2.7C141.8,91.3,142.3,90.6,142.5,90.2L142.5,90.2z M141.6,85.4c-0.6,0-0.8,2.3-0.9,2.9c0.4-0.6,1.1-1.8,1.1-2.6
		C141.8,85.5,141.8,85.4,141.6,85.4z"/>
	<path class="st0" d="M145.1,87.5c0,0.6-0.6,1.7-1.6,2.1c-0.3,0.9-0.7,1.9-0.7,2.6c0,0.4,0.1,0.9,0.5,0.9c1.3,0,3.3-3,3.9-3.9
		c0.1-0.1,0.2,0,0.1,0.1c-0.8,1-2.7,3.9-4,3.9c-0.5,0-1.3-0.4-1.3-1.5c0-2.2,1.8-4.7,2.7-4.7C144.8,87.1,145.1,87.1,145.1,87.5z
		 M143.6,89.2c0,0.1-0.1,0.1-0.1,0.2c0.8-0.4,1.3-1.3,1.3-1.8c0-0.2-0.1-0.2-0.1-0.2C144.6,87.4,144.1,87.9,143.6,89.2z"/>
	<path class="st0" d="M155.5,80.4c0,0.9-0.5,1.8-1,2.5c-0.9,1.4-1.6,1.9-4.1,4.2c-1,2.5-1.6,4.8-1.6,6c0,0.6,0.1,0.9,0.3,0.9
		c0.7,0,2.8-3.3,3.1-3.6c0.1-0.1,0.2,0,0.1,0.1c-0.5,0.6-2.4,3.7-3.3,3.7c-0.8,0-1-1-1-1.8c0-0.5,0.1-1.3,0.4-2.3
		c-0.6,1.3-1.2,2.3-1.6,2.3c-0.5,0-0.7-0.5-0.7-1.2c0-1.8,1.3-4.8,2.3-4.8c0.4,0,0.8,0.3,0.9,0.8c0.8-2,3.2-7.5,5.4-7.5
		C155.4,79.7,155.5,80.1,155.5,80.4z M148.8,86.7c-0.6,0-1.9,4.1-1.9,5.2c0,0.2,0,0.3,0.1,0.4c0.5-0.3,1.3-2.2,1.8-3
		c0.2-0.6,0.4-1.2,0.6-1.9C149.4,87.2,149.1,86.7,148.8,86.7L148.8,86.7z M150.6,86.8c2.2-2.1,2.9-2.6,3.8-4
		c0.4-0.6,0.9-1.5,0.9-2.2c0-0.3-0.1-0.7-0.5-0.7C153.5,80,151.2,85.5,150.6,86.8z"/>
	<path class="st0" d="M161.5,80.4c0,0.9-0.5,1.8-1,2.5c-0.9,1.4-1.6,1.9-4.1,4.2c-1,2.5-1.6,4.8-1.6,6c0,0.6,0.1,0.9,0.3,0.9
		c0.7,0,2.8-3.3,3.1-3.6c0.1-0.1,0.2,0,0.1,0.1c-0.5,0.6-2.4,3.7-3.3,3.7c-0.8,0-1-1-1-1.8c0-0.5,0.1-1.3,0.4-2.3
		c-0.6,1.3-1.2,2.3-1.6,2.3c-0.5,0-0.7-0.5-0.7-1.2c0-1.8,1.3-4.8,2.3-4.8c0.4,0,0.8,0.3,0.9,0.8c0.8-2,3.2-7.5,5.4-7.5
		C161.4,79.7,161.5,80.1,161.5,80.4z M154.8,86.7c-0.6,0-1.9,4.1-1.9,5.2c0,0.2,0,0.3,0.1,0.4c0.5-0.3,1.3-2.2,1.8-3
		c0.2-0.6,0.4-1.2,0.6-1.9C155.4,87.2,155.1,86.7,154.8,86.7L154.8,86.7z M156.6,86.8c2.2-2.1,2.9-2.6,3.8-4
		c0.4-0.6,0.9-1.5,0.9-2.2c0-0.3-0.1-0.7-0.5-0.7C159.5,80,157.2,85.5,156.6,86.8z"/>
	<path class="st0" d="M160.1,86.7c0.2,0,0.3,0.1,0.3,0.4c0,0.5-1.8,4.3-1.8,5.5c0,0.3,0.1,0.5,0.3,0.5c0.7,0,2.5-2.2,3.1-3.1
		c0.1-0.1,0.2,0,0.1,0.1c-0.6,0.8-2.3,3.1-3.3,3.1c-0.6,0-0.8-0.5-0.8-1.1c0-0.8,0.7-3.2,1.8-5.1C159.8,86.8,159.9,86.7,160.1,86.7
		L160.1,86.7z M161.4,83.8c0.1,0,0.2,0.1,0.2,0.2c0,0.4-0.4,0.5-0.6,0.5c-0.2,0-0.3-0.1-0.3-0.3C160.7,84,161.2,83.8,161.4,83.8
		L161.4,83.8z"/>
	<path class="st0" d="M166.2,87.3c0.2,0,0.3,0.1,0.3,0.4c0,1.2-2.5,3.6-2.5,5.1c0,0.3,0.1,0.5,0.4,0.5c0.7,0,2-1.1,3.2-2.8
		c0.1-0.1,0.2,0,0.1,0.1c-0.8,1.1-2.3,2.9-3.3,2.9c-0.6,0-0.9-0.6-0.9-1.3c0-1.7,2.1-3.7,2.2-4.4c-0.9,0.7-3.3,3-4.1,3.8
		c-0.1,0.2-0.3,0.5-0.4,0.7c-0.3,0.1-0.7,0-0.7-0.3c0.4-0.9,1.1-2.4,1.7-3.2c0.3-0.3,0.5-0.5,0.6-0.5c0.2,0,0.4,0.2,0.2,0.6
		c-0.1,0.4-0.7,1.4-1.2,2.3C164.1,89,165.8,87.3,166.2,87.3L166.2,87.3z"/>
	<path class="st0" d="M173.1,86.3c0.2,0,0.2,0.1,0.2,0.2c-0.8,1.3-2.1,4-3.3,7.2c2.3-1.5,2.9-2.1,3.6-3.2c0.1-0.1,0.2,0,0.1,0.1
		c-0.8,1.1-1.4,1.7-3.8,3.3c-0.6,1.7-2.4,6.6-4.2,6.6c-0.4,0-0.7-0.4-0.7-0.9c0-2.1,1.9-3.8,3.7-5.1c0.6-1.6,1.1-3.7,2.2-5.8
		c-1.1,1.2-2.7,3.1-3.2,3.1c-0.1,0-0.4-0.2-0.4-0.7c0-1,1.3-4.2,2.7-4.2c0.3,0,0.5,0.2,0.5,0.6c0,0.4-0.2,0.9-0.2,1.1
		c0,0.1-0.1,0.1-0.1,0c0-0.3,0.2-0.8,0.2-1.1c0-0.2-0.1-0.3-0.2-0.4c-0.6,0.1-2.3,3.7-2.2,4.6c0.8-0.5,2.5-2.6,3.2-3.3c0,0,0,0,0,0
		C171.9,86.9,172.6,86.3,173.1,86.3L173.1,86.3z M165.2,99.6c0,0.4,0.2,0.8,0.5,0.8c0.7,0,1.5-1.4,3-5.6
		C167.1,95.9,165.2,97.6,165.2,99.6z"/>
	<path class="st0" d="M181.4,87.1c0.2,0,0.3,0.1,0.3,0.2c0,0.1-1.2,3.1-1.2,3.1c0.5-0.5,1.6-1.5,2.3-1.5c0.3,0,0.5,0.2,0.5,0.7
		c0,0.7-0.4,1.5-1,2.2c0.2,0.3,0.5,0.4,0.8,0.4c0.5,0,1.3-0.9,2-1.8c0.1-0.1,0.2,0,0.1,0.1c-0.7,1-1.6,1.9-2.1,1.9
		c-0.4,0-0.6-0.2-0.9-0.5c-0.4,0.5-1.4,1.5-1.8,1.5c-0.2,0-0.4-0.2-0.4-0.4c0-0.3,0.9-1.3,1.8-1.7c0,0,0-0.1,0.1-0.1
		c0.4-0.9,0.6-1.8,0.6-2.1c-0.7,0.1-1.7,1.1-2.2,1.6c-0.8,2.1-2.2,5.3-3.3,7.2c-0.3,0.5-1,1.7-1.5,1.7c-0.3,0-0.4-0.3-0.4-0.7
		c0-1.5,2.4-6.5,4.1-7.8c0.7-1.7,1.3-3.2,1.8-3.9C181.1,87.2,181.3,87.1,181.4,87.1L181.4,87.1z M175.3,99c0,0.2,0,0.5,0.2,0.5
		c0.3,0,0.9-1.3,1.2-1.9c0.7-1.6,1.7-4.1,2.5-6.1C177.4,93,175.3,97.6,175.3,99z M180.2,93.1c0,0.1,0.1,0.2,0.2,0.2
		c0.5,0,1.1-1.2,1.3-1.7C181,92,180.2,92.9,180.2,93.1z"/>
	<path class="st0" d="M192.3,80c0,1.8-3.5,4.8-4.8,6c-0.6,1.5-1.1,3.1-1.5,4.5c0.8-1.2,3-4.3,4.3-4.5h0c0.1,0,0.3,0.1,0.3,0.4
		c0,1.4-2.5,4.7-2.5,6.2c0,0.3,0.1,0.5,0.3,0.5c0.8,0,2.9-2.8,3.1-3.2c0,0,0,0,0.1,0c0.1,0,0.1,0.1,0.1,0.1
		c-0.3,0.4-2.3,3.3-3.3,3.3c-0.5,0-0.9-0.6-0.9-1c0-0.6,0.7-2.9,2.5-5.9c-1.2,0.6-3.2,3-4.2,4.9c0,0.1-0.1,0.2-0.1,0.3
		c-0.1,0.2-0.2,0.3-0.4,0.3c-0.2,0-0.4-0.1-0.4-0.3l0,0l0,0c0.8-2.9,3.7-12.5,6.6-12.5C192,78.8,192.3,79.4,192.3,80z M191.5,79
		c-1.5,0-3.4,5-4,6.7c1.3-1.1,4.6-4,4.6-5.7C192.1,79.5,191.9,79,191.5,79L191.5,79z"/>
	<path class="st0" d="M196.1,90.3c0,0,0.1,0.1,0,0.1c-0.3,0.6-0.9,0.8-1.2,0.8c-0.5,0-0.8-0.5-1.1-1.1c-0.5,1-1.4,2.4-2.2,2.4
		c-0.6,0-0.9-0.7-0.9-1.4c0-1.9,1.9-4.3,2.3-4.3c0.2,0,0.3,0.1,0.3,0.3c0,0.2-1.8,3-1.8,4.6c0,0.5,0.1,0.7,0.3,0.7
		c0.6,0,1.5-1.4,2-2.4c-0.5-2-0.1-5.4,1.3-5.4c0.4,0,0.5,0.6,0.5,0.8c0,0.7-0.5,2.2-1.2,3.7l-0.1,0.2c0,0,0,0.1-0.1,0.1
		c0.1,1,0.3,1.7,0.7,1.7c0.4,0,0.8-0.3,1.1-0.8C196.1,90.3,196.1,90.3,196.1,90.3L196.1,90.3z M194.2,89.2l0.1-0.2
		c0.7-1.4,1.1-2.8,1.1-3.5c0-0.2-0.1-0.4-0.2-0.5C194.4,85.6,194.1,87.6,194.2,89.2z"/>
	<path class="st0" d="M200,81.2c0.1,0,0.3,0.1,0.3,0.4c0,0.4-0.1,0.9-0.2,1.4c0.5,0.1,1,0.1,1.4,0.1c0.4,0,0.8-0.1,1-0.2
		c0.1,0,0.2,0.1,0.1,0.1c-0.3,0.1-0.6,0.2-1.1,0.2c-0.4,0-0.9-0.1-1.5-0.2c-0.7,2.6-4.5,9.2-4.5,11.4c0,0.3,0.1,0.3,0.1,0.3
		c0.2,0,0.6-0.2,0.9-0.6c0.7-0.7,2.3-2.8,3.3-4.2c0,0,0.1,0,0.1,0c0,0,0,0.1,0,0.1c-0.8,1.2-2.5,3.4-3.3,4.2
		c-0.3,0.3-0.8,0.7-1.2,0.7c-0.4,0-0.7-0.5-0.7-1.2c0-2.1,2.8-6.7,4.3-10.9c-0.6-0.1-1.2-0.2-1.9-0.2c-2.1,0-2.8,0.6-3.2,1.2
		c-0.1,0.1-0.2,0-0.1-0.1c0.7-1.1,2-1.3,3.3-1.3c0.7,0,1.3,0.1,1.9,0.2c0.2-0.5,0.3-1,0.5-1.5C199.7,81.3,199.8,81.2,200,81.2
		L200,81.2z"/>
	<path class="st0" d="M204.8,90.3c0,0,0.1,0.1,0,0.1c-0.3,0.6-0.9,0.8-1.2,0.8c-0.5,0-0.8-0.5-1.1-1.1c-0.5,1-1.4,2.4-2.2,2.4
		c-0.6,0-0.9-0.7-0.9-1.4c0-1.9,1.9-4.3,2.3-4.3c0.2,0,0.3,0.1,0.3,0.3c0,0.2-1.8,3-1.8,4.6c0,0.5,0.1,0.7,0.3,0.7
		c0.6,0,1.5-1.4,2-2.4c-0.5-2-0.1-5.4,1.3-5.4c0.4,0,0.5,0.6,0.5,0.8c0,0.7-0.5,2.2-1.2,3.7l-0.1,0.2c0,0,0,0.1-0.1,0.1
		c0.1,1,0.3,1.7,0.7,1.7c0.4,0,0.8-0.3,1.1-0.8C204.7,90.3,204.8,90.3,204.8,90.3L204.8,90.3z M202.8,89.2l0.1-0.2
		c0.7-1.4,1.1-2.8,1.1-3.5c0-0.2-0.1-0.4-0.2-0.5C203.1,85.6,202.8,87.6,202.8,89.2z"/>
	<path class="st0" d="M210.1,86.3c0.2,0,0.2,0.1,0.2,0.2c-0.8,1.3-2.1,4-3.3,7.2c2.3-1.5,2.9-2.1,3.6-3.2c0.1-0.1,0.2,0,0.1,0.1
		c-0.8,1.1-1.4,1.7-3.8,3.3c-0.6,1.7-2.4,6.6-4.2,6.6c-0.4,0-0.7-0.4-0.7-0.9c0-2.1,1.9-3.8,3.7-5.1c0.6-1.6,1.1-3.7,2.2-5.8
		c-1.1,1.2-2.7,3.1-3.2,3.1c-0.1,0-0.4-0.2-0.4-0.7c0-1,1.3-4.2,2.7-4.2c0.3,0,0.5,0.2,0.5,0.6c0,0.4-0.2,0.9-0.2,1.1
		c0,0.1-0.1,0.1-0.1,0c0-0.3,0.2-0.8,0.2-1.1c0-0.2-0.1-0.3-0.2-0.4c-0.6,0.1-2.3,3.7-2.2,4.6c0.8-0.5,2.5-2.6,3.2-3.3c0,0,0,0,0,0
		C208.9,86.9,209.5,86.3,210.1,86.3L210.1,86.3z M202.2,99.6c0,0.4,0.2,0.8,0.5,0.8c0.7,0,1.5-1.4,3-5.6
		C204.1,95.9,202.2,97.6,202.2,99.6z"/>
	<path class="st0" d="M214.4,84c0,0.8-1,2.7-1.5,3.6c0.1,0.5,0.4,0.9,0.8,1.2c0,0,0.1,0,0.1,0c0.1,0,0.3,0.1,0.3,0.3
		c0,0.1,0,0.1-0.1,0.2c-0.5,0.7-2.4,3.5-2.4,5c0,0.5,0.1,0.7,0.3,0.7c0.1,0,0.2,0,0.3-0.1c0.8-0.7,3.3-3.5,3.9-4.4c0,0,0,0,0.1,0
		c0,0,0.1,0,0.1,0.1c0,0,0,0,0,0c-0.6,0.9-3.1,3.7-3.9,4.4c-0.1,0.1-0.2,0.2-0.4,0.2c-0.5,0-1.1-0.4-1.1-1.2c0-1.4,1.6-4.3,2.5-5
		c-0.3-0.1-0.7-0.4-0.9-0.7c-0.6,0.8-1.1,1.4-1.6,2.3c0,0,0,0-0.1,0c0,0-0.1,0-0.1-0.1c0,0,0,0,0,0c0.6-0.9,1.1-1.4,1.7-2.3
		c-0.2-0.4-0.4-0.9-0.4-1.4c0-1.7,1.2-3.2,2-3.2C214.2,83.5,214.4,83.7,214.4,84z M212.8,87.1c0,0.1,0,0.2,0,0.3
		c0.5-0.8,1.4-2.6,1.4-3.4c0-0.1-0.1-0.2-0.2-0.2C213.5,83.9,212.8,85.8,212.8,87.1z"/>
	<path class="st0" d="M219.8,85.5c0.5,0,0.6,0.6,0.6,1.1c0,1-0.4,2.3-1.1,2.8c-0.1,0.1-0.2-0.1-0.1-0.1c0.7-0.5,1-1.8,1-2.7
		c0-0.4-0.1-0.8-0.2-0.8c-1.2,0-3.8,5.9-3.8,7.6c0,0.3,0.1,0.4,0.1,0.4c0.2,0,1-1,2.1-2.4c0.8-1,1.6-2,2.3-2.7
		c0.2-0.3,0.4-0.7,0.5-0.9l0,0c0.1-0.2,0.3-0.3,0.5-0.3c0.2,0,0.3,0.1,0.3,0.3c0,0.1,0,0.1,0,0.2c-0.1,0.2-0.4,0.9-0.8,1.8
		c-0.7,1.6-1.8,4.2-1.8,4.5c0,0,0,0.1,0,0.1c0.1,0,0.2-0.1,0.7-0.4c0.9-0.7,2.5-2.3,3.4-3.5c0,0,0.1,0,0.1,0c0,0,0,0.1,0,0.1
		c-0.9,1.2-2.5,2.8-3.4,3.5c-0.5,0.4-0.7,0.4-0.8,0.4c-0.1,0-0.6-0.2-0.6-0.9c0-0.3,0.3-1.3,0.8-2.5c0.3-0.7,0.6-1.4,0.9-2
		c-0.6,0.7-1.3,1.5-1.9,2.3c-1.8,2.2-2,2.5-2.3,2.5c-0.5-0.1-0.8-0.9-0.8-1.7C215.5,90.4,218.1,85.5,219.8,85.5L219.8,85.5z"/>
	<path class="st0" d="M225.3,87.1c0.2,0,0.3,0.1,0.3,0.2c0,0.1-1.2,3.1-1.2,3.1c0.5-0.5,1.6-1.5,2.3-1.5c0.3,0,0.5,0.2,0.5,0.7
		c0,0.7-0.4,1.5-1,2.2c0.2,0.3,0.5,0.4,0.8,0.4c0.5,0,1.3-0.9,2-1.8c0.1-0.1,0.2,0,0.1,0.1c-0.7,1-1.6,1.9-2.1,1.9
		c-0.4,0-0.6-0.2-0.9-0.5c-0.4,0.5-1.4,1.5-1.8,1.5c-0.2,0-0.4-0.2-0.4-0.4c0-0.3,0.9-1.3,1.8-1.7c0,0,0-0.1,0.1-0.1
		c0.4-0.9,0.6-1.8,0.6-2.1c-0.7,0.1-1.7,1.1-2.2,1.6c-0.8,2.1-2.2,5.3-3.3,7.2c-0.3,0.5-1,1.7-1.5,1.7c-0.3,0-0.4-0.3-0.4-0.7
		c0-1.5,2.4-6.5,4.1-7.8c0.7-1.7,1.3-3.2,1.8-3.9C224.9,87.2,225.1,87.1,225.3,87.1L225.3,87.1z M219.1,99c0,0.2,0,0.5,0.2,0.5
		c0.3,0,0.9-1.3,1.2-1.9c0.7-1.6,1.7-4.1,2.5-6.1C221.3,93,219.1,97.6,219.1,99z M224,93.1c0,0.1,0.1,0.2,0.2,0.2
		c0.5,0,1.1-1.2,1.3-1.7C224.8,92,224,92.9,224,93.1z"/>
	<path class="st0" d="M236.1,80c0,1.8-3.5,4.8-4.8,6c-0.6,1.5-1.1,3.1-1.5,4.5c0.8-1.2,3-4.3,4.3-4.5h0c0.1,0,0.3,0.1,0.3,0.4
		c0,1.4-2.5,4.7-2.5,6.2c0,0.3,0.1,0.5,0.3,0.5c0.8,0,2.9-2.8,3.1-3.2c0,0,0,0,0.1,0c0.1,0,0.1,0.1,0.1,0.1
		c-0.3,0.4-2.3,3.3-3.3,3.3c-0.5,0-0.9-0.6-0.9-1c0-0.6,0.7-2.9,2.5-5.9c-1.2,0.6-3.2,3-4.2,4.9c0,0.1-0.1,0.2-0.1,0.3
		c-0.1,0.2-0.2,0.3-0.4,0.3c-0.2,0-0.4-0.1-0.4-0.3l0,0l0,0c0.8-2.9,3.7-12.5,6.6-12.5C235.8,78.8,236.1,79.4,236.1,80z M235.4,79
		c-1.5,0-3.4,5-4,6.7c1.3-1.1,4.6-4,4.6-5.7C236,79.5,235.7,79,235.4,79L235.4,79z"/>
	<path class="st0" d="M239.7,86c0.4-0.4,0.8-0.2,0.4,0.5c-1.5,2.6-1.9,4.5-2.5,6.7c0.9-0.6,1.9-1.3,2.9-2.7c0.1-0.1,0.2,0,0.1,0.1
		c-1,1.5-2.1,2.2-3.1,2.9c-0.3,1.2-0.7,2.5-1.1,3.6c-0.4,1.1-1.2,3.2-2.3,3.2c-0.4,0-0.6-0.3-0.6-0.9c0-1,0.4-2.6,1.3-3.8
		c0.5-0.6,1-1.1,1.6-1.5c0.2-1,0.6-2.8,1.3-4.8c-1.6,1.6-2.4,2.6-2.7,2.6c-0.3,0-0.5-0.5-0.5-1c0-1,1.4-3.1,1.9-3.9
		c0.1-0.1,0.2-0.1,0.3-0.1c0.2,0,0.4,0.1,0.4,0.3c0,0.1,0,0.1-0.1,0.2c-0.5,0.8-2,3.4-2,4.3c0.6-0.3,1.4-1.3,2.7-2.7
		C238.5,87.6,239.1,86.7,239.7,86L239.7,86z M235,95.6c-0.9,1.1-1.3,2.7-1.3,3.8c0,0.5,0.2,0.8,0.4,0.8c0.6,0,1-0.7,1.9-4
		c0.2-0.7,0.3-1.3,0.5-1.9C235.9,94.6,235.4,95,235,95.6z"/>
</g>
</svg>
