<?xml version="1.0" encoding="utf-8"?>
<!-- Generator: Adobe Illustrator 22.1.0, SVG Export Plug-In . SVG Version: 6.00 Build 0)  -->
<svg version="1.1" id="Layer_1" xmlns="http://www.w3.org/2000/svg" xmlns:xlink="http://www.w3.org/1999/xlink" x="0px" y="0px"
	 viewBox="0 0 216 216" style="enable-background:new 0 0 216 216;" xml:space="preserve">
<style type="text/css">
	.st0{clip-path:url(#SVGID_2_);}
	.st1{fill:#FFFFFF;}
</style>
<g>
	<defs>
		<rect id="SVGID_1_" width="216" height="216"/>
	</defs>
	<clipPath id="SVGID_2_">
		<use xlink:href="#SVGID_1_"  style="overflow:visible;"/>
	</clipPath>
	<g class="st0">
		<rect x="-179.9" y="0.8" width="509.3" height="291"/>
		<g>
			<path class="st1" d="M22.2,130.6H19v-0.5h15.3v7.9h-0.7v-7.3h-8.8v9.6H30v-4.9h0.5v10.4H30v-4.9h-5.1v10.7h8.8v-7.4h0.7v7.8H19
				v-0.5h3.2V130.6z"/>
			<path class="st1" d="M43.5,132.5v19h4.3v0.5h-9.1v-0.5H43v-20.9h-4.2v-0.5h7.1l0.6,2.4l4.8,15.1l5.3-17.5h6.2v0.5h-3.3v20.9h3.3
				v0.5h-9.5v-0.5h3.2v-18.8l-6,19.4h-0.9L43.5,132.5z"/>
			<path class="st1" d="M72.2,151.5h3.3v0.5h-9.2v-0.5h3.3v-20.9h-3.3v-0.5h9.2v0.5h-3.3V151.5z"/>
			<path class="st1" d="M81.6,151.5v-20.9h-2.3v-0.5h7.3v0.5h-2.3v20.9h8.8v-7.4h0.7v7.8H79.3v-0.5H81.6z"/>
			<path class="st1" d="M107.8,140.8v10.7h3.5v0.5h-9.7v-0.5h3.4v-10.2l-4.8-10.7h-2.4v-0.5h7.7v0.5h-2.4l4.2,9.9l4.4-9.9H109v-0.5
				h6v0.5h-2.8L107.8,140.8z"/>
			<path class="st1" d="M130.2,130.6v6.2h-0.5v-6.7h16.9v6.7H146v-6.2h-6.6v20.9h4.8v0.5H132v-0.5h4.6v-20.9H130.2z"/>
			<path class="st1" d="M155.8,140.7v10.9h3.3v0.5h-9.2v-0.5h3.3v-20.9h-3.3v-0.5h9.2v0.5h-3.3v9.5h9v-9.5h-3.3v-0.5h9.2v0.5h-3.3
				v20.9h3.3v0.5h-9.2v-0.5h3.3v-10.9H155.8z"/>
			<path class="st1" d="M183.6,152.3c-5.1,0-9-6-9-11.4c0-5.6,3.8-11.2,9-11.2c5.3,0,9,5.9,9,11.2
				C192.6,146.4,188.7,152.3,183.6,152.3z M183.6,130.2c-3.9,0-5.7,4.4-5.7,10.7c0,6.8,1.8,10.9,5.7,10.9c3.6,0,5.8-4.4,5.8-10.9
				C189.4,134.2,187.2,130.2,183.6,130.2z"/>
			<path class="st1" d="M200.8,132.5v19h4.3v0.5h-9.1v-0.5h4.2v-20.9h-4.2v-0.5h7.1l0.6,2.4l4.8,15.1l5.3-17.5h6.2v0.5h-3.3v20.9
				h3.3v0.5h-9.5v-0.5h3.2v-18.8l-6,19.4h-0.9L200.8,132.5z"/>
			<path class="st1" d="M229.6,143.5v8.1h3.1v0.5h-9v-0.5h3.2v-20.9h-3.2v-0.5h9.2c5.3,0,7.1,3.1,7.1,6.5c0,3.3-1.8,6.9-7.1,6.9
				H229.6z M229.6,143h2.8c3.8,0,5.1-3.3,5.1-6.4c0-3.1-1.3-6-5.1-6h-2.8V143z"/>
			<path class="st1" d="M257.7,148.2c0-2-0.8-3.7-5.8-6.3c-5.1-2.6-6.6-4.2-6.6-6.9c0-2.7,3-5.2,6.6-5.2c2.6,0,5.3,2.1,6,4.3v-4.8
				h0.5v7.1h-0.5c-0.5-4.2-3.6-6.2-6-6.2c-3,0-4.9,1.7-4.9,3.5c0,2.3,1.2,3,4.9,4.9c5.9,3.2,7.6,5.1,7.6,7.9c0,3.3-3.3,5.8-6.8,5.8
				c-3.5,0-5.9-2.6-7.1-5.6v5.3H245v-7.6h0.5c0.5,4.2,3.8,7.4,7.1,7.4C255.2,151.8,257.7,150.2,257.7,148.2z"/>
			<path class="st1" d="M273,152.3c-5.1,0-9-6-9-11.4c0-5.6,3.8-11.2,9-11.2c5.3,0,9,5.9,9,11.2C282.1,146.4,278.1,152.3,273,152.3z
				 M273,130.2c-3.9,0-5.7,4.4-5.7,10.7c0,6.8,1.8,10.9,5.7,10.9c3.6,0,5.8-4.4,5.8-10.9C278.9,134.2,276.7,130.2,273,130.2z"/>
			<path class="st1" d="M303.2,152.5L290,133.1v18.4h4v0.5h-8.2v-0.5h3.6v-20.9h-3.6v-0.5h5.5l12,17.3v-16.7h-4.5v-0.5h7.7v0.5h-2.6
				v21.9H303.2z"/>
			<path class="st1" d="M23.1,235.1h-1.7l0.1-0.3h8.2l-0.9,4.2h-0.4l0.8-4h-4.7l-1.1,5.2H26l0.6-2.6h0.3l-1.2,5.6h-0.3l0.5-2.5h-2.6
				l-1.2,5.7H27l0.8-4h0.4l-0.9,4.2H19l0-0.2h1.6L23.1,235.1z"/>
			<path class="st1" d="M34.8,236.1l-2.2,10.3H35l0,0.2h-4.9l0-0.2h2.2l2.4-11.3h-2.2l0-0.3h3.8l0.1,1.3l0.8,8.2l4.9-9.4h3.2l0,0.3
				h-1.6l-2.4,11.3h1.6l0,0.2h-5l0-0.2h1.7l2.2-10.2l-5.5,10.5h-0.5L34.8,236.1z"/>
			<path class="st1" d="M48.5,246.3h1.8l0,0.2h-5l0-0.2H47l2.4-11.3h-1.8l0-0.3h5l0,0.3h-1.8L48.5,246.3z"/>
			<path class="st1" d="M55.5,240.4l1.1-5.4h-1.2l0-0.3h4l0,0.3h-1.2l-2.4,11.3h4.8l0.8-4h0.4l-0.9,4.2H53l0-0.2h1.2L55.5,240.4z"/>
			<path class="st1" d="M68.3,240.6l-1.2,5.8h1.9l0,0.2h-5.2l0-0.2h1.8l1.2-5.5l-1.4-5.8h-1.3l0-0.3h4.1l0,0.3h-1.3l1.1,5.3l3.5-5.3
				h-1.5l0-0.3h3.2l0,0.3h-1.5L68.3,240.6z"/>
			<path class="st1" d="M75.1,235.1l-0.7,3.4h-0.3l0.8-3.6h9.1l-0.8,3.6h-0.3l0.7-3.4H80l-2.4,11.3h2.6l0,0.2h-6.6l0-0.2h2.5
				l2.4-11.3H75.1z"/>
			<path class="st1" d="M87.5,240.5l-1.2,5.9H88l0,0.2h-4.7l0-0.2h1.5l2.4-11.3h-1.8l0-0.3h5l0,0.3h-1.8l-1.1,5.2h4.8l1.1-5.2h-1.8
				l0-0.3h5l0,0.3h-1.8l-2.4,11.3h1.8l0,0.2h-5l0-0.2h1.8l1.2-5.9H87.5z"/>
			<path class="st1" d="M97.1,241.6c0-3.4,2.6-7.2,6-7.2c2.6,0,3.9,2.6,3.9,5.2c0,3.4-2.6,7.2-6,7.2
				C98.5,246.8,97.1,244.2,97.1,241.6z M105.7,238.3c0-2.4-0.8-3.8-2.6-3.8c-2.6,0-4.4,3.7-4.4,8.3c0,2.4,0.7,3.8,2.4,3.8
				C103.7,246.7,105.7,243,105.7,238.3z"/>
			<path class="st1" d="M112.4,236.1l-2.2,10.3h2.3l0,0.2h-4.9l0-0.2h2.2l2.4-11.3h-2.2l0-0.3h3.8l0.1,1.3l0.8,8.2l4.9-9.4h3.2
				l0,0.3h-1.6l-2.4,11.3h1.6l0,0.2h-5l0-0.2h1.7l2.2-10.2l-5.5,10.5h-0.5L112.4,236.1z"/>
			<path class="st1" d="M126.3,242.1l-0.9,4.2h1.7l0,0.2h-4.7l0-0.2h1.6l2.4-11.3h-1.7l0-0.3h5.2c2.3,0,3.2,1.5,3.2,2.9
				c0,2-1.6,4.4-4.4,4.4H126.3z M126.4,241.8h2c2.1,0,3.2-2.4,3.2-4.3c0-1.2-0.3-2.5-1.8-2.5h-2L126.4,241.8z"/>
			<path class="st1" d="M142,244c0-0.8-0.5-1.7-2.5-2.8c-2.2-1.2-3.2-2.1-3.2-3.3c0-1.8,2.1-3.3,4.1-3.3c1.3,0,2.6,0.6,2.9,2.3
				l0.6-2.6h0.3l-0.8,3.8h-0.3c0-0.3,0.1-0.5,0.1-0.8c0-1.8-1.4-2.5-2.7-2.5c-1.4,0-3,0.8-3,2.3c0,1,0.9,1.4,2.4,2.3
				c2.4,1.4,3.3,2.5,3.3,3.6c0,2.1-2,3.7-4.1,3.7c-1.9,0-3.2-1.4-3.5-3l-0.6,2.9h-0.3l0.9-4.1h0.3c0,0.2,0,0.3,0,0.5
				c0,2,1.6,3.5,3.3,3.5C140.8,246.5,142,245.3,142,244z"/>
			<path class="st1" d="M146,241.6c0-3.4,2.6-7.2,6-7.2c2.6,0,3.9,2.6,3.9,5.2c0,3.4-2.6,7.2-6,7.2C147.4,246.8,146,244.2,146,241.6
				z M154.6,238.3c0-2.4-0.8-3.8-2.6-3.8c-2.6,0-4.4,3.7-4.4,8.3c0,2.4,0.7,3.8,2.4,3.8C152.6,246.7,154.6,243,154.6,238.3z"/>
			<path class="st1" d="M165.9,246.9l-5-10.5l-2.1,10h2.2l0,0.2h-4l0-0.2h1.5l2.4-11.3h-2l0.1-0.3h3l4.5,9.3l1.9-9H166l0.1-0.3h4.1
				l-0.1,0.3h-1.3l-2.5,11.8H165.9z"/>
			<path class="st1" d="M176.4,235.1l0-0.3h4.1l0,0.3h-1.4l0.4,9.5l5.2-9.5H183l0-0.3h2.9l0,0.3h-0.8l-6.2,11.7h-0.7l-0.6-8.7
				l-4.3,8.7h-0.7l-1.2-11.7h-0.8l0-0.3h4.1l0,0.3h-1.4l0.7,9.5l3.6-7.2l-0.2-2.3H176.4z"/>
			<path class="st1" d="M188.4,235.1h-1.7l0.1-0.3h8.2L194,239h-0.4l0.8-4h-4.7l-1.1,5.2h2.6l0.6-2.6h0.3l-1.2,5.6h-0.3l0.5-2.5
				h-2.6l-1.2,5.7h4.9l0.8-4h0.4l-0.9,4.2h-8.3l0-0.2h1.6L188.4,235.1z"/>
			<path class="st1" d="M195.3,246.3h1.4l2.4-11.3h-1.6l0-0.3h3.6c3.7,0,5.2,2.1,5.2,4.5c0,3.9-2.1,7.3-6.7,7.3h-4.2L195.3,246.3z
				 M198.1,246.3h0.9c4.4,0,5.8-4.2,5.8-7.5c0-2-0.8-3.8-3.4-3.8h-0.8L198.1,246.3z"/>
			<path class="st1" d="M207,246.3h1.4l2.4-11.3h-1.6l0-0.3h3.6c3.7,0,5.2,2.1,5.2,4.5c0,3.9-2.1,7.3-6.7,7.3H207L207,246.3z
				 M209.9,246.3h0.9c4.4,0,5.8-4.2,5.8-7.5c0-2-0.8-3.8-3.4-3.8h-0.8L209.9,246.3z"/>
			<path class="st1" d="M222.5,246.3h1.8l0,0.2h-5l0-0.2h1.8l2.4-11.3h-1.8l0-0.3h5l0,0.3h-1.8L222.5,246.3z"/>
			<path class="st1" d="M235.2,246.9l-5-10.5l-2.1,10h2.2l0,0.2h-4l0-0.2h1.5l2.4-11.3h-2l0.1-0.3h3l4.5,9.3l1.9-9h-2.4l0.1-0.3h4.1
				l-0.1,0.3h-1.3l-2.5,11.8H235.2z"/>
			<path class="st1" d="M242,242.5c0,2.3,0.7,4.2,2,4.2c1.3,0,2.7-0.7,3.3-3.3l0.5-2.5h-1.9l0.1-0.2h4.6l0,0.2h-1.2l-1.2,5.8h-0.4
				l-0.4-1.5l-0.4,0.5c-0.6,0.7-1.9,1.3-2.9,1.3c-2.5,0-3.7-2.1-3.7-4.6c0-3.6,2.3-7.9,6.3-7.9c1.9,0,2.9,1,3.2,2.7l0.6-2.6h0.3
				l-0.8,3.8h-0.3c0-0.2,0-0.4,0-0.6c0-1.9-1.4-3.1-3-3.1C243.5,234.6,242,239,242,242.5z"/>
			<path class="st1" d="M259.1,244c0-0.8-0.5-1.7-2.5-2.8c-2.2-1.2-3.2-2.1-3.2-3.3c0-1.8,2.1-3.3,4.1-3.3c1.3,0,2.6,0.6,2.9,2.3
				l0.6-2.6h0.3l-0.8,3.8h-0.3c0-0.3,0.1-0.5,0.1-0.8c0-1.8-1.4-2.5-2.7-2.5c-1.4,0-3,0.8-3,2.3c0,1,0.9,1.4,2.4,2.3
				c2.4,1.4,3.3,2.5,3.3,3.6c0,2.1-2,3.7-4.1,3.7c-1.9,0-3.2-1.4-3.5-3l-0.6,2.9h-0.3l0.9-4.1h0.3c0,0.2,0,0.3,0,0.5
				c0,2,1.6,3.5,3.3,3.5C258,246.5,259.1,245.3,259.1,244z"/>
			<path class="st1" d="M264.7,244.3c0.7,0,1.3,0.6,1.3,1.3c0,0.7-0.6,1.3-1.3,1.3c-0.7,0-1.3-0.6-1.3-1.3
				C263.5,244.9,264,244.3,264.7,244.3z"/>
			<path class="st1" d="M277.3,243h0.3c-0.6,2.5-2.4,3.9-4.6,3.9c-2.8,0-4.2-2.4-4.2-5.2c0-3.4,2.6-7.2,6-7.2c1.9,0,2.9,1,3.2,2.7
				l0.6-2.6h0.3l-0.8,3.8h-0.3c0-0.2,0-0.4,0-0.6c0-1.9-1.1-3.1-3.1-3.1c-2.6,0-4.4,3.7-4.4,8.3c0,2.4,0.7,3.8,2.5,3.8
				C274.9,246.6,276.8,245.5,277.3,243z"/>
			<path class="st1" d="M280.6,241.6c0-3.4,2.6-7.2,6-7.2c2.6,0,3.9,2.6,3.9,5.2c0,3.4-2.6,7.2-6,7.2
				C282,246.8,280.6,244.2,280.6,241.6z M289.2,238.3c0-2.4-0.8-3.8-2.6-3.8c-2.6,0-4.4,3.7-4.4,8.3c0,2.4,0.7,3.8,2.4,3.8
				C287.1,246.7,289.2,243,289.2,238.3z"/>
			<path class="st1" d="M295.9,236.1l-2.2,10.3h2.3l0,0.2h-4.9l0-0.2h2.2l2.4-11.3h-2.2l0-0.3h3.8l0.1,1.3l0.8,8.2l4.9-9.4h3.2
				l0,0.3h-1.6l-2.4,11.3h1.6l0,0.2h-5l0-0.2h1.7l2.2-10.2l-5.5,10.5h-0.5L295.9,236.1z"/>
			<path class="st1" d="M194.1,258.1c0.1-1.9,2-3,3.8-3c1.6,0,3,0.8,3,2.5c0,1.4-0.5,2.3-3.4,4c-3.2,2-3.9,3-4.3,4.5h5.7l0.7-3.2
				h0.3l-0.9,4.3h-6.6c0-1.5,1-3.2,3.4-4.9c1.7-1.3,3.7-2.5,3.7-4.7c0-1.5-0.9-2.1-2-2.1c-1.1,0-2.4,0.8-2.8,1.9c0.1,0,0.2,0,0.2,0
				c0.5,0,0.9,0.4,0.9,0.9c0,0.5-0.4,0.9-0.9,0.9C194.5,259.1,194.1,258.7,194.1,258.1L194.1,258.1z"/>
			<path class="st1" d="M210.6,255.4l-1.7,8.1h1.5l-0.1,0.3h-1.5l-0.7,3.1h1.8l0,0.2h-5l0-0.2h1.8l0.7-3.1h-4.6
				c0.4-1.7,3.5-4.7,4.1-7.3c0.1-0.6,0.1-1.1-0.1-1.6c0.1,0,0.6,0,0.6,0c0.3,0,0.8,0.3,0.5,1.6c-0.5,2.2-4.1,5.8-4.4,7h3.9l1.6-7.6
				L210.6,255.4z"/>
			<path class="st1" d="M214.3,258.1c0.1-1.9,2-3,3.8-3c1.6,0,3,0.8,3,2.5c0,1.6-1.2,3.4-3.5,3.4c2.1,0.3,3,1.3,3,2.5
				c0,1.8-1.4,4-5.1,4c-1.8,0-3.1-0.9-3.1-2.2v0c0-0.5,0.4-0.9,0.9-0.9c0.5,0,0.9,0.4,0.9,0.9s-0.4,0.9-0.9,0.9c-0.1,0-0.1,0-0.2,0
				c0.4,0.6,1.2,1,2.3,1c2.6,0,3.6-2.1,3.6-3.8c0-1.2-0.8-2.2-2.7-2.2h-1.1l0.1-0.3h1.1c2.3,0,3.4-1.9,3.4-3.4c0-1.5-0.9-2.1-2-2.1
				c-1.1,0-2.4,0.8-2.8,1.9c0.1,0,0.2,0,0.2,0c0.5,0,0.9,0.4,0.9,0.9c0,0.5-0.4,0.9-0.9,0.9S214.3,258.7,214.3,258.1L214.3,258.1z"
				/>
			<path class="st1" d="M224.9,265c0.7,0,1.3,0.6,1.3,1.3c0,0.7-0.6,1.3-1.3,1.3c-0.7,0-1.3-0.6-1.3-1.3
				C223.6,265.5,224.2,265,224.9,265z"/>
			<path class="st1" d="M230.4,258.1c0.1-1.9,2-3,3.8-3c1.6,0,3,0.8,3,2.5c0,1.6-1.2,3.4-3.5,3.4c2.1,0.3,3,1.3,3,2.5
				c0,1.8-1.4,4-5.1,4c-1.8,0-3.1-0.9-3.1-2.2v0c0-0.5,0.4-0.9,0.9-0.9c0.5,0,0.9,0.4,0.9,0.9s-0.4,0.9-0.9,0.9c-0.1,0-0.1,0-0.2,0
				c0.4,0.6,1.2,1,2.3,1c2.6,0,3.6-2.1,3.6-3.8c0-1.2-0.8-2.2-2.7-2.2h-1.1l0.1-0.3h1.1c2.3,0,3.4-1.9,3.4-3.4c0-1.5-0.9-2.1-2-2.1
				c-1.1,0-2.4,0.8-2.8,1.9c0.1,0,0.2,0,0.2,0c0.5,0,0.9,0.4,0.9,0.9c0,0.5-0.4,0.9-0.9,0.9S230.4,258.7,230.4,258.1L230.4,258.1z"
				/>
			<path class="st1" d="M247.3,255.4l-1.7,8.1h1.5l-0.1,0.3h-1.5l-0.7,3.1h1.8l0,0.2h-5l0-0.2h1.8l0.7-3.1h-4.6
				c0.4-1.7,3.5-4.7,4.1-7.3c0.1-0.6,0.1-1.1-0.1-1.6c0.1,0,0.6,0,0.6,0c0.3,0,0.8,0.3,0.5,1.6c-0.5,2.2-4.1,5.8-4.4,7h3.9l1.6-7.6
				L247.3,255.4z"/>
			<path class="st1" d="M250.8,266.2c-0.2,0-0.3,0-0.4-0.1c0.2,0.7,0.8,1.1,2.1,1.1c1.9,0,2.8-1.5,3.7-5.7c-0.8,0.7-1.8,1.2-2.6,1.2
				c-1.9,0-2.7-1.4-2.7-2.8c0-3.2,1.8-4.8,4.2-4.8c1.8,0,3,1.1,3,3.4c0,0.6-0.1,1.4-0.3,2.2c-0.8,4-2.8,6.8-5.4,6.8
				c-1.8,0-2.5-0.9-2.5-2.2v0c0-0.5,0.4-0.9,0.9-0.9c0.5,0,0.9,0.4,0.9,0.9C251.7,265.8,251.3,266.2,250.8,266.2z M256.3,260.9
				l0.1-0.2c0.2-0.8,0.4-1.9,0.4-2.9c0-1.3-0.4-2.4-1.7-2.4c-1.5,0-2.8,1.9-2.8,4.8c0,1,0.4,2.1,1.4,2.1
				C254.5,262.3,255.6,261.8,256.3,260.9z"/>
			<path class="st1" d="M261.4,265c0.7,0,1.3,0.6,1.3,1.3c0,0.7-0.6,1.3-1.3,1.3s-1.3-0.6-1.3-1.3C260.2,265.5,260.8,265,261.4,265z
				"/>
			<path class="st1" d="M266.7,266.2c-0.2,0-0.3,0-0.4-0.1c0.2,0.7,0.8,1.1,2.1,1.1c1.9,0,2.8-1.5,3.7-5.7c-0.8,0.7-1.8,1.2-2.6,1.2
				c-1.9,0-2.7-1.4-2.7-2.8c0-3.2,1.8-4.8,4.2-4.8c1.8,0,3,1.1,3,3.4c0,0.6-0.1,1.4-0.3,2.2c-0.8,4-2.8,6.8-5.4,6.8
				c-1.8,0-2.5-0.9-2.5-2.2v0c0-0.5,0.4-0.9,0.9-0.9c0.5,0,0.9,0.4,0.9,0.9C267.6,265.8,267.2,266.2,266.7,266.2z M272.2,260.9
				l0.1-0.2c0.2-0.8,0.4-1.9,0.4-2.9c0-1.3-0.4-2.4-1.7-2.4c-1.5,0-2.8,1.9-2.8,4.8c0,1,0.4,2.1,1.4,2.1
				C270.4,262.3,271.4,261.8,272.2,260.9z"/>
			<path class="st1" d="M279.7,260.8c-0.9-1-1.6-2-1.3-3.4c0.3-1.5,2-2.2,3.5-2.2c1.4,0,2.6,0.7,2.3,2c-0.3,1.3-1.8,2.4-2.8,3
				c1.2,1.3,2.5,2.6,2.2,4.2c-0.4,1.8-2.3,3.1-4.5,3.1c-2.1,0-3.5-1.2-3.1-2.8C276.3,263.4,278.4,261.6,279.7,260.8z M279.9,261
				c-1.2,0.8-2.7,2.5-2.9,3.7c-0.3,1.5,0.6,2.6,2.2,2.6c1.5,0,2.9-1,3.1-2.2C282.6,263.4,281.1,262.3,279.9,261z M281.3,260
				c0.9-0.7,1.9-1.7,2.2-2.9c0.2-1.1-0.7-1.6-1.7-1.6c-1,0-2,0.5-2.2,1.4C279.4,257.9,280.3,258.9,281.3,260z"/>
			<path class="st1" d="M287.6,266.2c-0.2,0-0.3,0-0.4-0.1c0.2,0.7,0.8,1.1,2.1,1.1c1.9,0,2.8-1.5,3.7-5.7c-0.8,0.7-1.8,1.2-2.6,1.2
				c-1.9,0-2.7-1.4-2.7-2.8c0-3.2,1.8-4.8,4.2-4.8c1.8,0,3,1.1,3,3.4c0,0.6-0.1,1.4-0.3,2.2c-0.8,4-2.8,6.8-5.4,6.8
				c-1.8,0-2.5-0.9-2.5-2.2v0c0-0.5,0.4-0.9,0.9-0.9c0.5,0,0.9,0.4,0.9,0.9C288.5,265.8,288.1,266.2,287.6,266.2z M293.1,260.9
				l0.1-0.2c0.2-0.8,0.4-1.9,0.4-2.9c0-1.3-0.4-2.4-1.7-2.4c-1.5,0-2.8,1.9-2.8,4.8c0,1,0.4,2.1,1.4,2.1
				C291.3,262.3,292.3,261.8,293.1,260.9z"/>
			<path class="st1" d="M300.6,260.8c-0.9-1-1.6-2-1.3-3.4c0.3-1.5,2-2.2,3.5-2.2c1.4,0,2.6,0.7,2.3,2c-0.3,1.3-1.8,2.4-2.8,3
				c1.2,1.3,2.5,2.6,2.2,4.2c-0.4,1.8-2.3,3.1-4.5,3.1c-2.1,0-3.5-1.2-3.1-2.8C297.2,263.4,299.3,261.6,300.6,260.8z M300.8,261
				c-1.2,0.8-2.7,2.5-2.9,3.7c-0.3,1.5,0.6,2.6,2.2,2.6c1.5,0,2.9-1,3.1-2.2C303.5,263.4,302,262.3,300.8,261z M302.2,260
				c0.9-0.7,1.9-1.7,2.2-2.9c0.2-1.1-0.7-1.6-1.7-1.6c-1,0-2,0.5-2.2,1.4C300.3,257.9,301.2,258.9,302.2,260z"/>
		</g>
		<g>
			<path class="st1" d="M108.1,183.1c0.1-0.2,0.4,0,0.2,0.2c-0.6,0.9-1.6,2.2-2.6,2.2c-1.3,0-2-2-2.3-4.1c-0.5,0.7-1,1.4-1.5,2.1
				c-1.3,1.6-5.3,6.5-6.6,6.5c-0.5,0-0.8-0.7-0.8-1.8c0-1,0.3-2.3,0.7-3.4c-1.6,1.8-3.8,4-4.9,4.5c-0.1,0-0.2,0.1-0.3,0.1
				c-0.5,0-1.2-0.6-1.2-2.6c0-1.4,1.7-5.2,3.7-7.4c0.1-0.1,0.3-0.2,0.5-0.2c0.4,0,0.8,0.2,0.8,0.6c0,0.1-0.1,0.3-0.2,0.5
				c-0.6,1-3.7,6.5-3.7,8.4c0,0.2,0,0.3,0.1,0.4c1.1-0.6,4-3.5,5.5-5.3c0.5-0.9,1.1-1.9,1.8-2.9c0.3-0.4,0.5-0.8,0.8-1.3
				c0.2-0.3,0.8-0.4,1.2-0.4c0.5,0,0.5,0.2,0.5,0.3c0,0.7-1.6,3.5-2,4c-1.2,2-2.5,4.3-2.5,5.9c0,0.2,0,0.2,0,0.3
				c1.1-0.5,3.6-3,6.1-6.3c0.6-0.8,1.2-1.6,1.7-2.4c-0.6-4.9,1.1-8,2.7-8c0.3,0,0.9,0.3,0.9,1.1c0,1.6-1.6,4.4-2.5,5.8
				c-0.1,1.6-0.2,5.4,1.4,5.4C106.5,185.2,107.6,183.8,108.1,183.1L108.1,183.1z M106.2,173.4c-1.2,0-1.7,4.6-1.8,5.8
				c0.8-1.3,2.2-3.7,2.2-5.2C106.6,173.7,106.6,173.4,106.2,173.4z"/>
			<path class="st1" d="M113.2,177.6c0,1.2-1.2,3.4-3.3,4.3c-0.7,1.8-1.3,3.9-1.3,5.3c0,0.8,0.2,1.9,1,1.9c2.6,0,6.6-6.1,7.9-7.8
				c0.1-0.2,0.3,0,0.2,0.2c-1.6,2.1-5.4,7.9-8.2,7.9c-0.9,0-2.6-0.8-2.6-3.1c0-4.4,3.6-9.5,5.5-9.5
				C112.8,176.8,113.2,176.9,113.2,177.6z M110.2,181.1c-0.1,0.1-0.1,0.3-0.2,0.4c1.6-0.8,2.7-2.6,2.7-3.7c0-0.3-0.2-0.4-0.2-0.4
				C112.2,177.4,111.3,178.5,110.2,181.1z"/>
			<path class="st1" d="M134.4,163.3c0,1.8-1,3.6-2,5.1c-1.9,2.8-3.2,3.9-8.2,8.5c-1.9,5.1-3.2,9.7-3.2,12.2c0,1.1,0.2,1.9,0.7,1.9
				c1.4,0,5.7-6.7,6.3-7.4c0.1-0.1,0.3,0,0.2,0.2c-1.1,1.3-4.8,7.5-6.7,7.5c-1.7,0-2-2-2-3.7c0-1.1,0.3-2.7,0.8-4.6
				c-1.2,2.6-2.3,4.7-3.3,4.7c-1,0-1.4-1-1.4-2.4c0-3.6,2.6-9.8,4.7-9.8c0.8,0,1.5,0.6,1.9,1.6c1.6-4.1,6.5-15.3,10.9-15.3
				C134.1,161.8,134.4,162.6,134.4,163.3z M120.8,176c-1.2,0-3.8,8.3-3.8,10.5c0,0.4,0.1,0.7,0.2,0.8c1.1-0.5,2.7-4.4,3.5-6.1
				c0.4-1.2,0.8-2.5,1.3-3.8C121.9,177,121.4,176,120.8,176L120.8,176z M124.4,176.2c4.5-4.2,5.9-5.3,7.7-8.1
				c0.8-1.3,1.9-3.1,1.9-4.4c0-0.7-0.2-1.3-0.9-1.3C130.2,162.4,125.5,173.5,124.4,176.2z"/>
			<path class="st1" d="M146.5,163.3c0,1.8-1,3.6-2,5.1c-1.9,2.8-3.2,3.9-8.2,8.5c-1.9,5.1-3.2,9.7-3.2,12.2c0,1.1,0.2,1.9,0.7,1.9
				c1.4,0,5.7-6.7,6.3-7.4c0.1-0.1,0.3,0,0.2,0.2c-1.1,1.3-4.8,7.5-6.7,7.5c-1.7,0-2-2-2-3.7c0-1.1,0.3-2.7,0.8-4.6
				c-1.2,2.6-2.3,4.7-3.3,4.7c-1,0-1.4-1-1.4-2.4c0-3.6,2.6-9.8,4.7-9.8c0.8,0,1.5,0.6,1.9,1.6c1.6-4.1,6.5-15.3,10.9-15.3
				C146.2,161.8,146.5,162.6,146.5,163.3z M132.9,176c-1.2,0-3.8,8.3-3.8,10.5c0,0.4,0.1,0.7,0.2,0.8c1.1-0.5,2.7-4.4,3.5-6.1
				c0.4-1.2,0.8-2.5,1.3-3.8C134,177,133.5,176,132.9,176L132.9,176z M136.6,176.2c4.5-4.2,5.9-5.3,7.7-8.1c0.8-1.3,1.9-3.1,1.9-4.4
				c0-0.7-0.2-1.3-0.9-1.3C142.3,162.4,137.6,173.5,136.6,176.2z"/>
			<path class="st1" d="M143.6,176c0.3,0,0.6,0.2,0.6,0.7c0,1-3.7,8.6-3.7,11.1c0,0.6,0.2,0.9,0.6,0.9c1.5,0,5.1-4.5,6.2-6.2
				c0.1-0.2,0.3,0,0.2,0.2c-1.1,1.7-4.7,6.3-6.7,6.3c-1.2,0-1.7-1.1-1.7-2.2c0-1.5,1.4-6.6,3.6-10.4C143,176.2,143.3,176,143.6,176
				L143.6,176z M146.2,170.1c0.3,0,0.4,0.2,0.4,0.5c0,0.7-0.8,1.1-1.2,1.1c-0.3,0-0.6-0.3-0.6-0.6
				C144.8,170.5,145.8,170.1,146.2,170.1L146.2,170.1z"/>
			<path class="st1" d="M156,177.2c0.4,0,0.7,0.3,0.7,0.8c0,2.3-5.1,7.3-5.1,10.3c0,0.7,0.3,1.1,0.8,1.1c1.4,0,4.1-2.3,6.4-5.7
				c0.1-0.2,0.3,0,0.2,0.2c-1.6,2.3-4.6,5.8-6.8,5.8c-1.2,0-1.8-1.1-1.8-2.6c0-3.4,4.3-7.6,4.5-8.9c-1.8,1.5-6.6,6-8.3,7.6
				c-0.3,0.5-0.5,1-0.8,1.4c-0.7,0.2-1.3,0.1-1.5-0.6c0.8-1.8,2.3-4.9,3.4-6.5c0.5-0.7,1-1,1.3-1c0.5,0,0.8,0.4,0.5,1.3
				c-0.3,0.7-1.5,2.8-2.5,4.6C151.7,180.6,155.1,177.2,156,177.2L156,177.2z"/>
			<path class="st1" d="M169.9,175.1c0.3,0,0.4,0.2,0.3,0.3c-1.6,2.6-4.3,8.2-6.6,14.6c4.7-3,5.9-4.3,7.4-6.4c0.1-0.2,0.3,0,0.2,0.2
				c-1.6,2.2-2.8,3.5-7.8,6.7c-1.2,3.4-4.8,13.3-8.4,13.3c-0.8,0-1.4-0.8-1.4-1.8c0-4.2,3.9-7.7,7.6-10.3c1.1-3.2,2.2-7.4,4.4-11.8
				c-2.2,2.4-5.4,6.3-6.5,6.3c-0.3,0-0.9-0.4-0.9-1.5c0-2.1,2.7-8.6,5.4-8.6c0.6,0,1.1,0.4,1.1,1.2c0,0.8-0.4,1.7-0.4,2.3
				c0,0.2-0.3,0.2-0.3,0c0-0.6,0.4-1.6,0.4-2.3c0-0.3-0.1-0.7-0.4-0.8c-1.1,0.3-4.5,7.4-4.5,9.2c1.6-1,5.1-5.3,6.5-6.7c0,0,0,0,0,0
				C167.5,176.4,168.8,175.1,169.9,175.1L169.9,175.1z M153.9,202c0,0.9,0.5,1.5,1.1,1.5c1.4,0,2.9-2.8,6-11.4
				C157.7,194.5,153.9,197.9,153.9,202z"/>
			<path class="st1" d="M186.7,176.8c0.3,0,0.6,0.2,0.6,0.4c0,0.2-2.4,6.2-2.5,6.3c1-1,3.3-3,4.7-3c0.6,0,1,0.4,1,1.3
				c0,1.3-0.9,3-2,4.4c0.4,0.5,0.9,0.9,1.6,0.9c1,0,2.7-1.8,4-3.7c0.1-0.2,0.4,0,0.2,0.2c-1.4,2.1-3.2,3.8-4.3,3.8
				c-0.7,0-1.3-0.4-1.8-0.9c-0.8,1-2.8,3.1-3.7,3.1c-0.4,0-0.7-0.4-0.7-0.8c0-0.6,1.9-2.7,3.6-3.3c0-0.1,0.1-0.2,0.1-0.3
				c0.8-1.9,1.3-3.7,1.3-4.2c-1.4,0.3-3.4,2.1-4.4,3.2c-1.7,4.2-4.4,10.6-6.7,14.5c-0.6,1.1-1.9,3.4-3.1,3.4c-0.5,0-0.9-0.6-0.9-1.5
				c0-2.9,4.8-13.1,8.3-15.7c1.4-3.4,2.7-6.4,3.6-7.8C186.1,177,186.4,176.8,186.7,176.8L186.7,176.8z M174.2,200.8
				c0,0.4,0.1,1.1,0.4,1.1c0.7,0,1.8-2.7,2.4-3.8c1.5-3.3,3.3-8.2,5-12.4C178.6,188.6,174.2,198.1,174.2,200.8z M184.3,189
				c0,0.2,0.2,0.5,0.5,0.5c1,0,2.2-2.5,2.6-3.4C185.8,186.8,184.3,188.6,184.3,189z"/>
			<path class="st1" d="M208.6,162.4c0,3.5-7,9.8-9.7,12.1c-1.1,3.1-2.2,6.3-3.1,9.1c1.5-2.5,6.1-8.7,8.7-9.1h0
				c0.2,0,0.6,0.1,0.6,0.8c0,2.8-5,9.5-5,12.5c0,0.7,0.2,1,0.6,1c1.6,0,5.8-5.7,6.3-6.5c0,0,0.1-0.1,0.1-0.1c0.1,0,0.2,0.1,0.1,0.2
				c-0.6,0.9-4.6,6.7-6.6,6.7c-1.1,0-1.9-1.2-1.9-2c0-1.3,1.5-5.8,5-12c-2.4,1.2-6.4,6.1-8.5,10c-0.1,0.2-0.1,0.3-0.2,0.5
				c-0.1,0.3-0.4,0.5-0.8,0.5c-0.4,0-0.8-0.2-0.8-0.7l0,0l0,0c1.5-5.8,7.4-25.3,13.4-25.3C208.1,160,208.6,161.2,208.6,162.4z
				 M207.1,160.5c-3.1,0-6.8,10-8,13.5c2.5-2.2,9.2-8.2,9.2-11.5C208.3,161.5,207.9,160.5,207.1,160.5L207.1,160.5z"/>
			<path class="st1" d="M216.4,183.3c0.1,0,0.1,0.1,0,0.2c-0.7,1.1-1.9,1.7-2.5,1.7c-1,0-1.7-0.9-2.1-2.3c-1.1,2.1-2.8,4.8-4.4,4.8
				c-1.1,0-1.9-1.3-1.9-2.8c0-3.8,3.8-8.7,4.7-8.7c0.3,0,0.5,0.2,0.5,0.6c0,0.5-3.7,6-3.7,9.2c0,1,0.2,1.4,0.6,1.4
				c1.1,0,2.9-2.9,4-4.9c-1.1-3.9-0.2-10.8,2.5-10.8c0.8,0,1,1.2,1,1.7c0,1.5-1,4.4-2.4,7.4l-0.2,0.5c0,0.1-0.1,0.2-0.1,0.3
				c0.2,1.9,0.7,3.4,1.5,3.4c0.7,0,1.7-0.7,2.2-1.5C216.3,183.3,216.3,183.2,216.4,183.3L216.4,183.3z M212.4,181l0.2-0.5
				c1.4-2.9,2.3-5.7,2.3-7.2c0-0.4-0.1-0.7-0.4-1C212.9,173.8,212.3,177.9,212.4,181z"/>
			<path class="st1" d="M224.2,164.8c0.3,0,0.6,0.2,0.6,0.9c0,0.9-0.2,1.9-0.4,2.9c1,0.2,2,0.3,2.9,0.3c0.8,0,1.5-0.1,2-0.4
				c0.2-0.1,0.3,0.2,0.1,0.3c-0.6,0.3-1.3,0.4-2.2,0.4c-0.9,0-1.9-0.1-2.9-0.3c-1.5,5.3-9.1,18.6-9.1,23c0,0.6,0.2,0.6,0.3,0.6
				c0.4,0,1.1-0.5,1.9-1.2c1.3-1.3,4.7-5.6,6.7-8.4c0-0.1,0.1-0.1,0.2,0c0.1,0,0.1,0.1,0,0.2c-1.7,2.4-5.1,6.9-6.7,8.5
				c-0.5,0.5-1.7,1.4-2.3,1.4c-0.8,0-1.4-1-1.4-2.4c0-4.2,5.6-13.4,8.7-22c-1.2-0.2-2.5-0.4-3.8-0.4c-4.2,0-5.6,1.3-6.4,2.5
				c-0.1,0.2-0.4,0-0.2-0.2c1.5-2.1,4-2.6,6.6-2.6c1.3,0,2.6,0.2,3.9,0.4c0.4-1,0.7-2,1-3C223.7,165,223.9,164.8,224.2,164.8
				L224.2,164.8z"/>
			<path class="st1" d="M233.9,183.3c0.1,0,0.1,0.1,0,0.2c-0.7,1.1-1.9,1.7-2.5,1.7c-1,0-1.7-0.9-2.1-2.3c-1.1,2.1-2.8,4.8-4.4,4.8
				c-1.1,0-1.9-1.3-1.9-2.8c0-3.8,3.8-8.7,4.7-8.7c0.3,0,0.5,0.2,0.5,0.6c0,0.5-3.7,6-3.7,9.2c0,1,0.2,1.4,0.6,1.4
				c1.1,0,2.9-2.9,4-4.9c-1.1-3.9-0.2-10.8,2.5-10.8c0.8,0,1,1.2,1,1.7c0,1.5-1,4.4-2.4,7.4l-0.2,0.5c0,0.1-0.1,0.2-0.1,0.3
				c0.2,1.9,0.7,3.4,1.5,3.4c0.7,0,1.7-0.7,2.2-1.5C233.8,183.3,233.9,183.2,233.9,183.3L233.9,183.3z M229.9,181l0.2-0.5
				c1.4-2.9,2.3-5.7,2.3-7.2c0-0.4-0.1-0.7-0.4-1C230.4,173.8,229.8,177.9,229.9,181z"/>
			<path class="st1" d="M244.6,175.1c0.3,0,0.4,0.2,0.3,0.3c-1.6,2.6-4.3,8.2-6.6,14.6c4.7-3,5.9-4.3,7.4-6.4c0.1-0.2,0.3,0,0.2,0.2
				c-1.6,2.2-2.8,3.5-7.8,6.7c-1.2,3.4-4.8,13.3-8.4,13.3c-0.8,0-1.4-0.8-1.4-1.8c0-4.2,3.9-7.7,7.6-10.3c1.1-3.2,2.2-7.4,4.4-11.8
				c-2.2,2.4-5.4,6.3-6.5,6.3c-0.3,0-0.9-0.4-0.9-1.5c0-2.1,2.7-8.6,5.4-8.6c0.6,0,1.1,0.4,1.1,1.2c0,0.8-0.4,1.7-0.4,2.3
				c0,0.2-0.3,0.2-0.3,0c0-0.6,0.4-1.6,0.4-2.3c0-0.3-0.1-0.7-0.4-0.8c-1.1,0.3-4.5,7.4-4.5,9.2c1.6-1,5.1-5.3,6.5-6.7c0,0,0,0,0,0
				C242.2,176.4,243.5,175.1,244.6,175.1L244.6,175.1z M228.6,202c0,0.9,0.5,1.5,1.1,1.5c1.4,0,2.9-2.8,6-11.4
				C232.4,194.5,228.6,197.9,228.6,202z"/>
			<path class="st1" d="M253.3,170.6c0,1.7-2,5.4-3.1,7.3c0.2,1,0.7,1.9,1.6,2.4c0.1,0,0.1,0,0.2,0c0.3,0,0.5,0.2,0.5,0.6
				c0,0.1,0,0.3-0.2,0.4c-1,1.3-4.8,7-4.8,10.1c0,1,0.3,1.4,0.7,1.4c0.2,0,0.4-0.1,0.6-0.3c1.7-1.4,6.6-7.1,7.8-8.9
				c0,0,0.1-0.1,0.1-0.1c0.1,0,0.2,0.1,0.2,0.1c0,0,0,0.1,0,0.1c-1.3,1.8-6.2,7.5-7.9,8.9c-0.2,0.2-0.5,0.4-0.8,0.4
				c-0.9,0-2.2-0.8-2.2-2.4c0-2.8,3.3-8.6,5-10c-0.7-0.3-1.3-0.7-1.8-1.4c-1.1,1.7-2.1,2.8-3.3,4.5c0,0-0.1,0.1-0.1,0.1
				c-0.1,0-0.2-0.1-0.2-0.1c0,0,0-0.1,0-0.1c1.2-1.8,2.2-2.9,3.4-4.6c-0.5-0.8-0.7-1.7-0.7-2.9c0-3.4,2.3-6.6,4-6.6
				C252.9,169.6,253.3,169.9,253.3,170.6z M250.1,176.9c0,0.2,0,0.4,0,0.6c0.9-1.6,2.9-5.2,2.9-6.8c0-0.2-0.1-0.4-0.3-0.4
				C251.6,170.2,250.1,174.3,250.1,176.9z"/>
			<path class="st1" d="M264.2,173.6c0.9,0,1.1,1.3,1.1,2.2c0,2-0.8,4.7-2.1,5.7c-0.2,0.1-0.3-0.1-0.2-0.2c1.4-1,2-3.7,2-5.4
				c0-0.7-0.1-1.5-0.4-1.6c-2.4,0-7.7,11.9-7.7,15.4c0,0.6,0.2,0.8,0.2,0.8c0.4,0,2-1.9,4.3-4.9c1.6-1.9,3.3-4.1,4.6-5.5
				c0.4-0.7,0.7-1.3,1.1-1.9l0,0c0.2-0.3,0.6-0.5,0.9-0.5c0.3,0,0.5,0.2,0.5,0.6c0,0.1,0,0.3-0.1,0.4c-0.1,0.4-0.8,1.8-1.5,3.7
				c-1.4,3.2-3.7,8.6-3.7,9.2c0,0.1,0,0.1,0.1,0.1c0.1,0,0.5-0.1,1.4-0.8c1.8-1.4,5-4.6,6.8-7.1c0-0.1,0.1-0.1,0.2,0
				c0.1,0,0.1,0.1,0,0.2c-1.8,2.5-5,5.7-6.8,7.1c-1,0.8-1.4,0.9-1.6,0.9c-0.3,0-1.2-0.5-1.2-1.7c0-0.7,0.6-2.7,1.6-5.1
				c0.6-1.4,1.2-2.8,1.8-4.1c-1.2,1.3-2.6,3.1-3.9,4.7c-3.6,4.5-4.1,5.1-4.6,5c-1-0.2-1.6-1.8-1.6-3.4
				C255.5,183.5,260.8,173.6,264.2,173.6L264.2,173.6z"/>
			<path class="st1" d="M275.3,176.8c0.3,0,0.6,0.2,0.6,0.4c0,0.2-2.4,6.2-2.5,6.3c1-1,3.3-3,4.7-3c0.6,0,1,0.4,1,1.3
				c0,1.3-0.9,3-2,4.4c0.4,0.5,0.9,0.9,1.6,0.9c1,0,2.7-1.8,4-3.7c0.1-0.2,0.4,0,0.2,0.2c-1.4,2.1-3.2,3.8-4.3,3.8
				c-0.7,0-1.3-0.4-1.8-0.9c-0.8,1-2.8,3.1-3.7,3.1c-0.4,0-0.7-0.4-0.7-0.8c0-0.6,1.9-2.7,3.6-3.3c0-0.1,0.1-0.2,0.1-0.3
				c0.8-1.9,1.3-3.7,1.3-4.2c-1.4,0.3-3.4,2.1-4.4,3.2c-1.7,4.2-4.4,10.6-6.7,14.5c-0.6,1.1-1.9,3.4-3.1,3.4c-0.5,0-0.9-0.6-0.9-1.5
				c0-2.9,4.8-13.1,8.3-15.7c1.4-3.4,2.7-6.4,3.6-7.8C274.6,177,275,176.8,275.3,176.8L275.3,176.8z M262.8,200.8
				c0,0.4,0.1,1.1,0.4,1.1c0.7,0,1.8-2.7,2.4-3.8c1.5-3.3,3.3-8.2,5-12.4C267.2,188.6,262.8,198.1,262.8,200.8z M272.8,189
				c0,0.2,0.2,0.5,0.5,0.5c1,0,2.2-2.5,2.6-3.4C274.3,186.8,272.8,188.6,272.8,189z"/>
			<path class="st1" d="M297.2,162.4c0,3.5-7,9.8-9.7,12.1c-1.1,3.1-2.2,6.3-3.1,9.1c1.5-2.5,6.1-8.7,8.7-9.1h0
				c0.2,0,0.6,0.1,0.6,0.8c0,2.8-5,9.5-5,12.5c0,0.7,0.2,1,0.6,1c1.6,0,5.8-5.7,6.3-6.5c0,0,0.1-0.1,0.1-0.1c0.1,0,0.2,0.1,0.1,0.2
				c-0.6,0.9-4.6,6.7-6.6,6.7c-1.1,0-1.9-1.2-1.9-2c0-1.3,1.5-5.8,5-12c-2.4,1.2-6.4,6.1-8.5,10c-0.1,0.2-0.1,0.3-0.2,0.5
				c-0.1,0.3-0.4,0.5-0.8,0.5c-0.4,0-0.8-0.2-0.8-0.7l0,0l0,0c1.5-5.8,7.4-25.3,13.4-25.3C296.7,160,297.2,161.2,297.2,162.4z
				 M295.7,160.5c-3.1,0-6.8,10-8,13.5c2.5-2.2,9.2-8.2,9.2-11.5C296.9,161.5,296.4,160.5,295.7,160.5L295.7,160.5z"/>
			<path class="st1" d="M304.5,174.7c0.8-0.7,1.7-0.4,0.9,1c-3,5.3-3.9,9.1-5.1,13.5c1.9-1.3,3.8-2.7,5.8-5.5c0.1-0.2,0.3,0,0.2,0.2
				c-2.1,3-4.2,4.5-6.2,5.8c-0.7,2.4-1.4,5-2.3,7.3c-0.8,2.1-2.5,6.5-4.7,6.5c-0.7,0-1.2-0.7-1.2-1.8c0-2,0.9-5.3,2.7-7.8
				c1-1.3,2.1-2.2,3.2-3c0.4-1.9,1.1-5.7,2.7-9.8c-3.2,3.2-4.9,5.2-5.5,5.2c-0.6,0-1.1-1-1.1-2.1c0-2,2.8-6.3,3.9-7.8
				c0.1-0.2,0.4-0.3,0.7-0.3c0.5,0,0.8,0.2,0.8,0.6c0,0.1,0,0.2-0.1,0.4c-0.9,1.6-4.1,6.9-4,8.8c1.2-0.7,2.8-2.7,5.5-5.4
				C302,177.8,303.2,175.9,304.5,174.7L304.5,174.7z M295,193.9c-1.7,2.3-2.7,5.5-2.7,7.6c0,1,0.3,1.5,0.9,1.5c1.3,0,2-1.5,3.7-8.1
				c0.3-1.3,0.7-2.6,0.9-3.8C296.8,191.9,295.8,192.8,295,193.9z"/>
		</g>
	</g>
</g>
</svg>
