<?xml version="1.0" encoding="utf-8"?>
<!-- Generator: Adobe Illustrator 22.1.0, SVG Export Plug-In . SVG Version: 6.00 Build 0)  -->
<svg version="1.1" id="Layer_1" xmlns="http://www.w3.org/2000/svg" xmlns:xlink="http://www.w3.org/1999/xlink" x="0px" y="0px"
	 viewBox="0 0 216 216" style="enable-background:new 0 0 216 216;" xml:space="preserve">
<style type="text/css">
	.st0{clip-path:url(#SVGID_2_);}
	.st1{fill:#EC297B;}
	.st2{fill-rule:evenodd;clip-rule:evenodd;fill:#AF8F6E;stroke:#EC297B;stroke-miterlimit:10;}
	.st3{fill:#FFFFFF;}
</style>
<g>
	<defs>
		<rect id="SVGID_1_" width="216" height="216"/>
	</defs>
	<clipPath id="SVGID_2_">
		<use xlink:href="#SVGID_1_"  style="overflow:visible;"/>
	</clipPath>
	<g class="st0">
		<rect x="-44.9" y="-18" class="st1" width="309.7" height="542"/>
		<g>
			<polygon class="st2" points="89.7,307.5 89.7,32.2 103.1,32.2 125.5,86.8 148.2,32.2 160.1,32.2 160.1,307.5 144.1,307.5 
				144.1,61.9 123.5,110.9 99.2,59 99.2,307.5 			"/>
			<polygon class="st2" points="58.1,32.7 58.1,307.2 74.9,307.2 74.9,112.9 123.3,112.9 126.4,104.8 76.5,104.8 75.2,39.9 
				160.7,39.9 160.7,32.7 			"/>
		</g>
		<g>
			<path class="st3" d="M15.7,362v-18.3h14.4v2.2h-12v5.6h7.4v2.2h-7.4v8.4H15.7z"/>
			<path class="st3" d="M58.8,362v-18.3h2.4V362H58.8z"/>
			<path class="st3" d="M101.1,343.2c5.6,0,10.2,4.3,10.2,9.6c0,5.4-4.5,9.6-10.2,9.6c-5.7,0-10.1-4.3-10.1-9.6
				C91,347.5,95.4,343.2,101.1,343.2z M101.1,360.3c4.3,0,7.6-3.4,7.6-7.5c0-4.1-3.4-7.4-7.6-7.4c-4.3,0-7.6,3.3-7.6,7.4
				C93.5,356.9,96.8,360.3,101.1,360.3z"/>
			<path class="st3" d="M157.3,343.7V362h-2.2l-11.6-14h0v14h-2.4v-18.3h2.2l11.6,14h0v-14H157.3z"/>
			<path class="st3" d="M186.3,362l8.5-18.3h2.3l8.5,18.3h-2.7l-2.5-5.5h-9.1l-2.5,5.5H186.3z M192.2,354.5h7.4l-3.6-8h-0.2
				L192.2,354.5z"/>
			<path class="st3" d="M32,395.5v-13.8h-0.1l-6.6,11.1h-0.5l-6.6-11.1h-0.1v13.8h-2.3v-18.3h2.6l6.8,11.5h0.1l6.8-11.5h2.5v18.3H32
				z"/>
			<path class="st3" d="M57.5,395.5v-18.3H60v18.3H57.5z"/>
			<path class="st3" d="M85.4,377.3v16.1H97v2.2H83v-18.3H85.4z"/>
			<path class="st3" d="M119.7,377.3v16.1h11.5v2.2h-14v-18.3H119.7z"/>
			<path class="st3" d="M161.2,387h-7.4v6.4h12.9v2.2h-15.3v-18.3h14.7v2.2h-12.2v5.4h7.4V387z"/>
			<path class="st3" d="M187.8,395.5v-18.3h10.1c2.4,0,4,0.6,5.1,1.8c0.9,0.9,1.4,2.2,1.4,3.6c0,2.5-1.7,4.4-4.2,5.1l4.5,7.7h-2.8
				l-4.2-7.4h-7.4v7.4H187.8z M190.2,379.4v6.5h8.2c2,0,3.5-1.5,3.5-3.3c0-0.8-0.3-1.6-0.9-2.1c-0.9-0.9-2-1.1-3.2-1.1H190.2z"/>
			<path class="st3" d="M14.4,417v-9.5h1.5v9.5H14.4z"/>
			<path class="st3" d="M41.2,407.5v9.5h-1.3l-6.3-7.2h0v7.2h-1.5v-9.5h1.3l6.3,7.2h0v-7.2H41.2z"/>
			<path class="st3" d="M56,407.5h9.4v1.3h-4v8.2h-1.5v-8.2h-4V407.5z"/>
			<path class="st3" d="M85.7,412.7h-4.1v3h7.1v1.3h-8.6v-9.5h8.2v1.3h-6.7v2.6h4.1V412.7z"/>
			<path class="st3" d="M103.8,417v-9.5h5.6c1.5,0,2.3,0.4,3,1c0.5,0.5,0.8,1.2,0.8,1.9c0,1.3-0.9,2.3-2.3,2.7l2.5,4h-1.7l-2.3-3.8
				h-4v3.8H103.8z M105.2,408.8v3.1h4.4c1.1,0,1.9-0.7,1.9-1.6c0-0.4-0.2-0.7-0.4-1c-0.5-0.5-1-0.6-1.9-0.6H105.2z"/>
			<path class="st3" d="M128.6,417v-9.5h1.5v9.5H128.6z"/>
			<path class="st3" d="M150.9,407.2c3.1,0,5.6,2.3,5.6,5.1c0,2.8-2.5,5.1-5.6,5.1c-3.1,0-5.5-2.3-5.5-5.1
				C145.3,409.5,147.8,407.2,150.9,407.2z M150.9,416c2.3,0,4-1.7,4-3.8c0-2.1-1.8-3.7-4-3.7c-2.2,0-4,1.7-4,3.7
				C146.9,414.3,148.6,416,150.9,416z"/>
			<path class="st3" d="M171.7,417v-9.5h5.6c1.5,0,2.3,0.4,3,1c0.5,0.5,0.8,1.2,0.8,1.9c0,1.3-0.9,2.3-2.3,2.7l2.5,4h-1.7l-2.3-3.8
				h-4v3.8H171.7z M173.2,408.8v3.1h4.4c1.1,0,1.9-0.7,1.9-1.6c0-0.4-0.2-0.7-0.4-1c-0.5-0.5-1-0.6-1.9-0.6H173.2z"/>
			<path class="st3" d="M203.8,409.6c-0.6-0.5-1.9-1.1-3.8-1.1c-1.3,0-2.5,0.4-2.5,1.5c0,1.1,1.6,1.2,3.2,1.3
				c1.8,0.1,4.7,0.3,4.7,2.9c0,2.3-2.1,3.2-4.5,3.2c-2.6,0-4.3-1-5.4-2l0.9-1c0.8,0.7,2.3,1.8,4.6,1.8c1.7,0,3-0.5,3-1.7
				c0-1.3-1.4-1.5-3.2-1.7c-2.2-0.2-4.7-0.3-4.7-2.6c0-2.2,2.2-2.9,4.1-2.9c2.1,0,3.9,0.8,4.7,1.4L203.8,409.6z"/>
			<path class="st3" d="M13.1,430.2h7.5v1.2l-4.7,7.2h-1.7l4.9-7.2h-6V430.2z"/>
			<path class="st3" d="M34.5,429.9c2.5,0,4.6,2,4.6,4.4c0,2.5-2.1,4.4-4.6,4.4c-2.5,0-4.6-2-4.6-4.4C30,431.9,32,429.9,34.5,429.9z
				 M34.5,437.6c1.8,0,3.3-1.5,3.3-3.3c0-1.8-1.5-3.3-3.3-3.3c-1.8,0-3.3,1.5-3.3,3.3C31.3,436.2,32.7,437.6,34.5,437.6z"/>
			<path class="st3" d="M57.6,436.6H56v1.9h-1.3v-1.9h-6.3v-0.9l6.4-5.5H56v5.4h1.7V436.6z M50.3,435.6h4.4v-3.7h-0.1
				C53.2,433,51.7,434.3,50.3,435.6L50.3,435.6z"/>
			<path class="st3" d="M68.2,436.9c0.6,0,1,0.4,1,0.9c0,0.5-0.4,0.9-1,0.9s-1-0.4-1-0.9C67.2,437.3,67.7,436.9,68.2,436.9z"/>
			<path class="st3" d="M79.2,431.4c0.9-0.8,1.9-1.5,3.6-1.5c1.7,0,3.4,0.7,3.4,2.3c0,1.9-2.2,2.4-3.4,2.8c-1.3,0.4-2.4,0.9-2.4,2.3
				v0.1h5.7v1h-7v-1.1c0-2.1,1.8-3.1,3.6-3.6c0.6-0.2,2.2-0.5,2.2-1.6c0-0.9-1-1.2-2-1.2c-1.3,0-2.1,0.6-2.9,1.2L79.2,431.4z"/>
			<path class="st3" d="M103.1,431.7c-0.6-0.4-1.6-0.6-2.5-0.6c-1.8,0-3.4,1.2-3.5,3.2c0.8-0.6,2.1-1.2,3.7-1.2
				c2.4,0,3.5,1.4,3.5,2.7c0,1.7-1.6,3.1-3.8,3.1c-2.3,0-4.6-1.5-4.6-4.3c0-2.9,2.2-4.6,4.7-4.6c1.8,0,2.8,0.6,3.1,0.8L103.1,431.7z
				 M97.2,435.3c0.3,1.6,1.7,2.4,3.3,2.4c1.4,0,2.5-0.9,2.5-1.9c0-0.7-0.7-1.6-2.3-1.6C99.3,434.1,98,434.8,97.2,435.3z"/>
			<path class="st3" d="M114.9,437c0.6,0.4,1.6,0.6,2.5,0.6c1.8,0,3.4-1.2,3.5-3.2c-0.8,0.6-2.1,1.2-3.7,1.2c-2.4,0-3.5-1.4-3.5-2.7
				c0-1.7,1.6-3.1,3.8-3.1c2.3,0,4.5,1.5,4.5,4.3c0,2.9-2.2,4.6-4.7,4.6c-1.8,0-2.8-0.6-3.2-0.9L114.9,437z M120.8,433.5
				c-0.3-1.6-1.7-2.4-3.3-2.4c-1.4,0-2.5,0.9-2.5,1.9c0,0.7,0.7,1.6,2.3,1.6C118.7,434.6,120,434,120.8,433.5z"/>
			<path class="st3" d="M132.5,436.9c0.6,0,1,0.4,1,0.9c0,0.5-0.4,0.9-1,0.9c-0.6,0-1-0.4-1-0.9C131.6,437.3,132,436.9,132.5,436.9z
				"/>
			<path class="st3" d="M152.3,436.6h-1.7v1.9h-1.3v-1.9H143v-0.9l6.4-5.5h1.2v5.4h1.7V436.6z M144.9,435.6h4.4v-3.7h-0.1
				C147.8,433,146.3,434.3,144.9,435.6L144.9,435.6z"/>
			<path class="st3" d="M162.7,437c0.6,0.4,1.6,0.6,2.5,0.6c1.8,0,3.4-1.2,3.5-3.2c-0.8,0.6-2.1,1.2-3.7,1.2c-2.4,0-3.5-1.4-3.5-2.7
				c0-1.7,1.6-3.1,3.8-3.1c2.3,0,4.5,1.5,4.5,4.3c0,2.9-2.2,4.6-4.7,4.6c-1.8,0-2.8-0.6-3.2-0.9L162.7,437z M168.6,433.5
				c-0.3-1.6-1.7-2.4-3.3-2.4c-1.4,0-2.5,0.9-2.5,1.9c0,0.7,0.7,1.6,2.3,1.6C166.5,434.6,167.9,434,168.6,433.5z"/>
			<path class="st3" d="M179.6,436.1c0-1.3,1.1-2,2.2-2.2c-1.1-0.2-1.7-0.8-1.7-1.7c0-1.6,2-2.3,3.6-2.3c1.6,0,3.6,0.7,3.6,2.3
				c0,1-0.6,1.6-1.7,1.7c1.2,0.2,2.3,0.9,2.3,2.2c0,1.7-2.1,2.7-4.2,2.7C181.6,438.8,179.6,437.8,179.6,436.1z M186.5,436
				c0-1.1-1.5-1.6-2.8-1.6c-1.2,0-2.8,0.5-2.8,1.6s1.4,1.7,2.8,1.7C185.1,437.7,186.5,437.1,186.5,436z M186,432.3
				c0-0.9-1.2-1.4-2.2-1.4c-1,0-2.2,0.4-2.2,1.4c0,0.8,0.8,1.2,2.2,1.2C185.2,433.5,186,433.1,186,432.3z"/>
			<path class="st3" d="M204.7,431.3h-5.4v2.5c0.8-0.4,1.5-0.8,2.7-0.8c1.8,0,3.6,0.8,3.6,2.7c0,2.2-2.2,3-4.2,3
				c-2.1,0-3.4-0.8-4.1-1.3l0.7-0.9c0.6,0.4,1.7,1.1,3.4,1.1c1.4,0,2.9-0.5,2.9-1.9c0-1.1-1.2-1.6-2.4-1.6c-1.4,0-2.2,0.4-3.1,0.8
				l-0.8-0.6v-4.2h6.6V431.3z"/>
			<path class="st3" d="M13.7,460v-6h0.9v2.3h3.8v-2.3h0.9v6h-0.9v-2.8h-3.8v2.8H13.7z"/>
			<path class="st3" d="M27.4,457.3h-2.6v1.9h4.4v0.8h-5.4v-6h5.1v0.8h-4.2v1.6h2.6V457.3z"/>
			<path class="st3" d="M34.2,454.1v5.2h4v0.8h-4.9v-6H34.2z"/>
			<path class="st3" d="M42.8,454.1v5.2h4v0.8h-4.9v-6H42.8z"/>
			<path class="st3" d="M53.2,453.9c1.9,0,3.5,1.4,3.5,3.2c0,1.8-1.6,3.2-3.5,3.2c-1.9,0-3.5-1.4-3.5-3.2
				C49.8,455.3,51.3,453.9,53.2,453.9z M53.2,459.4c1.4,0,2.5-1.1,2.5-2.4c0-1.3-1.1-2.3-2.5-2.3c-1.4,0-2.5,1.1-2.5,2.3
				C50.7,458.3,51.8,459.4,53.2,459.4z"/>
			<path class="st3" d="M67.3,455l-1,2.9c0,0.1,0,0.2,0,0.2c0,0.4,0.2,0.6,0.6,0.6c0.8,0,1.9-1,1.9-2.5c0-1.6-1.4-2.8-3.5-2.8
				c-2.4,0-4.5,1.6-4.5,4c0,2.4,2.1,3.5,4,3.5c1,0,2.2-0.3,2.8-0.6l0.2,0.6c-0.6,0.3-1.9,0.7-3,0.7c-2.2,0-4.7-1.4-4.7-4.2
				c0-2.8,2.5-4.6,5.2-4.6c2.5,0,4.2,1.5,4.2,3.5c0,1.9-1.6,3.2-2.8,3.2c-0.6,0-1.1-0.3-1.1-0.8v-0.1c-0.5,0.6-1.1,0.9-1.7,0.9
				c-0.8,0-1.5-0.5-1.5-1.7c0-1.7,1.5-2.9,2.6-2.9c0.7,0,1.2,0.5,1.3,1l0.3-0.8H67.3z M65.6,457.9l0.4-1.3c-0.1-0.5-0.5-1-1-1
				c-0.7,0-1.7,0.8-1.7,2c0,0.7,0.4,1.1,0.9,1.1C64.6,458.6,65.1,458.4,65.6,457.9z"/>
			<path class="st3" d="M73.5,460v-6h5.1v0.8h-4.1v1.6H77v0.8h-2.5v2.7H73.5z"/>
			<path class="st3" d="M82.3,454.1h1l2.3,3.6h0l2.3-3.6h0.9v6h-0.9v-4.3h0l-2.2,3.5h-0.2l-2.2-3.5h-0.1v4.3h-0.9V454.1z"/>
			<path class="st3" d="M93.5,460v-6h0.9v6H93.5z"/>
			<path class="st3" d="M104.8,454.1v6h-0.8l-3.9-4.5h0v4.5h-0.9v-6h0.8l3.9,4.5h0v-4.5H104.8z"/>
			<path class="st3" d="M108.5,454.1h5.9v0.8h-2.5v5.1H111v-5.1h-2.5V454.1z"/>
			<path class="st3" d="M121.7,457.3h-2.6v1.9h4.4v0.8h-5.4v-6h5.1v0.8h-4.2v1.6h2.6V457.3z"/>
			<path class="st3" d="M127.5,460v-6h3.5c0.9,0,1.5,0.2,1.9,0.6c0.3,0.3,0.5,0.7,0.5,1.2c0,0.8-0.6,1.5-1.5,1.7l1.5,2.5h-1.1
				l-1.4-2.4h-2.5v2.4H127.5z M128.4,454.9v2h2.8c0.7,0,1.2-0.5,1.2-1c0-0.2-0.1-0.4-0.2-0.6c-0.3-0.3-0.6-0.4-1.2-0.4H128.4z"/>
			<path class="st3" d="M137.5,460v-6h0.9v6H137.5z"/>
			<path class="st3" d="M146,453.9c1.9,0,3.5,1.4,3.5,3.2c0,1.8-1.6,3.2-3.5,3.2c-1.9,0-3.5-1.4-3.5-3.2
				C142.5,455.3,144.1,453.9,146,453.9z M146,459.4c1.4,0,2.5-1.1,2.5-2.4c0-1.3-1.1-2.3-2.5-2.3c-1.4,0-2.5,1.1-2.5,2.3
				C143.5,458.3,144.6,459.4,146,459.4z"/>
			<path class="st3" d="M153.6,460v-6h3.5c0.9,0,1.5,0.2,1.9,0.6c0.3,0.3,0.5,0.7,0.5,1.2c0,0.8-0.6,1.5-1.5,1.7l1.5,2.5h-1.1
				l-1.4-2.4h-2.5v2.4H153.6z M154.5,454.9v2h2.8c0.7,0,1.2-0.5,1.2-1c0-0.2-0.1-0.4-0.2-0.6c-0.3-0.3-0.6-0.4-1.2-0.4H154.5z"/>
			<path class="st3" d="M168.2,455.4c-0.4-0.3-1.2-0.7-2.4-0.7c-0.8,0-1.6,0.2-1.6,0.9c0,0.7,1,0.7,2,0.8c1.1,0.1,2.9,0.2,2.9,1.8
				c0,1.4-1.3,2-2.8,2c-1.6,0-2.7-0.7-3.4-1.2l0.6-0.6c0.5,0.5,1.4,1.1,2.9,1.1c1,0,1.9-0.3,1.9-1.1c0-0.8-0.9-1-2-1
				c-1.4-0.1-3-0.2-3-1.6c0-1.4,1.4-1.8,2.6-1.8c1.3,0,2.4,0.5,2.9,0.9L168.2,455.4z"/>
			<path class="st3" d="M173.4,458.9c0.4,0,0.7,0.3,0.7,0.6c0,0.4-0.3,0.6-0.7,0.6c-0.4,0-0.7-0.3-0.7-0.6
				C172.7,459.2,173,458.9,173.4,458.9z"/>
			<path class="st3" d="M184.2,459c-0.7,0.6-1.8,1.2-3.1,1.2c-2.1,0-3.5-1.4-3.5-3.2s1.4-3.2,3.5-3.2c1.1,0,2.2,0.4,2.9,1l-0.6,0.6
				c-0.6-0.5-1.5-0.9-2.3-0.9c-1.5,0-2.5,1.1-2.5,2.4c0,1.3,1,2.3,2.5,2.3c1,0,1.9-0.5,2.4-1L184.2,459z"/>
			<path class="st3" d="M191,453.9c1.9,0,3.5,1.4,3.5,3.2c0,1.8-1.6,3.2-3.5,3.2c-1.9,0-3.5-1.4-3.5-3.2
				C187.5,455.3,189.1,453.9,191,453.9z M191,459.4c1.4,0,2.5-1.1,2.5-2.4c0-1.3-1.1-2.3-2.5-2.3c-1.4,0-2.5,1.1-2.5,2.3
				C188.5,458.3,189.6,459.4,191,459.4z"/>
			<path class="st3" d="M198.6,454.1h1l2.3,3.6h0l2.3-3.6h0.9v6h-0.9v-4.3h0l-2.2,3.5h-0.2l-2.2-3.5h-0.1v4.3h-0.9V454.1z"/>
			<path class="st3" d="M13.7,481.6v-6h5.1v0.8h-4.1v1.6h2.5v0.8h-2.5v2.7H13.7z"/>
			<path class="st3" d="M26.7,475.6h1l2.3,3.6h0l2.3-3.6h0.9v6h-0.9v-4.3h0l-2.2,3.5h-0.2l-2.2-3.5h-0.1v4.3h-0.9V475.6z"/>
			<path class="st3" d="M42.2,481.6v-6h0.9v6H42.2z"/>
			<path class="st3" d="M57.7,475.6v6h-0.8l-3.9-4.5h0v4.5H52v-6h0.8l3.9,4.5h0v-4.5H57.7z"/>
			<path class="st3" d="M65.8,475.6h5.9v0.8h-2.5v5.1h-0.9v-5.1h-2.5V475.6z"/>
			<path class="st3" d="M83.2,478.8h-2.6v1.9h4.4v0.8h-5.4v-6h5.1v0.8h-4.2v1.6h2.6V478.8z"/>
			<path class="st3" d="M93.3,481.6v-6h3.5c0.9,0,1.5,0.2,1.9,0.6c0.3,0.3,0.5,0.7,0.5,1.2c0,0.8-0.6,1.5-1.5,1.7l1.5,2.5h-1.1
				l-1.4-2.4h-2.5v2.4H93.3z M94.2,476.4v2H97c0.7,0,1.2-0.5,1.2-1c0-0.2-0.1-0.4-0.2-0.6c-0.3-0.3-0.6-0.4-1.2-0.4H94.2z"/>
			<path class="st3" d="M107.6,481.6v-6h0.9v6H107.6z"/>
			<path class="st3" d="M120.4,475.4c1.9,0,3.5,1.4,3.5,3.2c0,1.8-1.6,3.2-3.5,3.2c-1.9,0-3.5-1.4-3.5-3.2
				C116.9,476.8,118.4,475.4,120.4,475.4z M120.4,480.9c1.4,0,2.5-1.1,2.5-2.4c0-1.3-1.1-2.3-2.5-2.3c-1.4,0-2.5,1.1-2.5,2.3
				C117.9,479.9,119,480.9,120.4,480.9z"/>
			<path class="st3" d="M132.2,481.6v-6h3.5c0.9,0,1.5,0.2,1.9,0.6c0.3,0.3,0.5,0.7,0.5,1.2c0,0.8-0.6,1.5-1.5,1.7l1.5,2.5h-1.1
				l-1.4-2.4h-2.5v2.4H132.2z M133.1,476.4v2h2.8c0.7,0,1.2-0.5,1.2-1c0-0.2-0.1-0.4-0.2-0.6c-0.3-0.3-0.6-0.4-1.2-0.4H133.1z"/>
			<path class="st3" d="M151.1,476.9c-0.4-0.3-1.2-0.7-2.4-0.7c-0.8,0-1.6,0.2-1.6,0.9c0,0.7,1,0.7,2,0.8c1.1,0.1,2.9,0.2,2.9,1.8
				c0,1.4-1.3,2-2.8,2c-1.6,0-2.7-0.7-3.4-1.2l0.6-0.6c0.5,0.5,1.4,1.1,2.9,1.1c1,0,1.9-0.3,1.9-1.1c0-0.8-0.9-1-2-1
				c-1.4-0.1-3-0.2-3-1.6c0-1.4,1.4-1.8,2.6-1.8c1.3,0,2.4,0.5,2.9,0.9L151.1,476.9z"/>
			<path class="st3" d="M160.6,480.4c0.4,0,0.7,0.3,0.7,0.6c0,0.4-0.3,0.6-0.7,0.6c-0.4,0-0.7-0.3-0.7-0.6
				C159.9,480.7,160.2,480.4,160.6,480.4z"/>
			<path class="st3" d="M175.7,480.5c-0.7,0.6-1.8,1.2-3.1,1.2c-2.1,0-3.5-1.4-3.5-3.2s1.4-3.2,3.5-3.2c1.1,0,2.2,0.4,2.9,1
				l-0.6,0.6c-0.6-0.5-1.5-0.9-2.3-0.9c-1.5,0-2.5,1.1-2.5,2.4c0,1.3,1,2.3,2.5,2.3c1,0,1.9-0.5,2.4-1L175.7,480.5z"/>
			<path class="st3" d="M186.7,475.4c1.9,0,3.5,1.4,3.5,3.2c0,1.8-1.6,3.2-3.5,3.2c-1.9,0-3.5-1.4-3.5-3.2
				C183.3,476.8,184.8,475.4,186.7,475.4z M186.7,480.9c1.4,0,2.5-1.1,2.5-2.4c0-1.3-1.1-2.3-2.5-2.3c-1.4,0-2.5,1.1-2.5,2.3
				C184.2,479.9,185.3,480.9,186.7,480.9z"/>
			<path class="st3" d="M198.6,475.6h1l2.3,3.6h0l2.3-3.6h0.9v6h-0.9v-4.3h0l-2.2,3.5h-0.2l-2.2-3.5h-0.1v4.3h-0.9V475.6z"/>
		</g>
	</g>
</g>
</svg>
