<?xml version="1.0" encoding="utf-8"?>
<!-- Generator: Adobe Illustrator 22.1.0, SVG Export Plug-In . SVG Version: 6.00 Build 0)  -->
<svg version="1.1" id="Layer_1" xmlns="http://www.w3.org/2000/svg" xmlns:xlink="http://www.w3.org/1999/xlink" x="0px" y="0px"
	 viewBox="0 0 144 252" style="enable-background:new 0 0 144 252;" xml:space="preserve">
<style type="text/css">
	.st0{fill:#EE2A7B;}
	.st1{fill-rule:evenodd;clip-rule:evenodd;fill:#AF8F6E;stroke:#EE2A7B;stroke-miterlimit:10;}
	.st2{fill:#FFFFFF;}
</style>
<rect class="st0" width="144" height="252"/>
<g>
	<polygon class="st1" points="62.6,151.3 62.6,23.3 68.8,23.3 79.2,48.7 89.8,23.3 95.3,23.3 95.3,151.3 87.8,151.3 87.8,37.2 
		78.3,59.9 67,35.8 67,151.3 	"/>
	<polygon class="st1" points="47.9,23.6 47.9,151.2 55.7,151.2 55.7,60.9 78.2,60.9 79.6,57.1 56.4,57.1 55.8,26.9 95.6,26.9 
		95.6,23.6 	"/>
</g>
<rect x="-122.2" y="116.3" style="fill-rule:evenodd;clip-rule:evenodd;fill:none;" width="90.2" height="142.2"/>
<text transform="matrix(1 0 0 1 -122.243 123.4968)"><tspan x="0" y="0" style="font-family:'SweetSans-SC'; font-size:13px; letter-spacing:11;">FION</tspan><tspan x="80.5" y="0" style="font-family:'SweetSans-SC'; font-size:13px;">A</tspan><tspan x="0" y="15.6" style="font-family:'SweetSans-SC'; font-size:13px; letter-spacing:7;">MILLE</tspan><tspan x="80" y="15.6" style="font-family:'SweetSans-SC'; font-size:13px;">R</tspan><tspan x="0" y="25.6" style="font-family:'SweetSans-SC'; font-size:8px; letter-spacing:5;">interior</tspan><tspan x="84.7" y="25.6" style="font-family:'SweetSans-SC'; font-size:8px;">s</tspan><tspan x="0" y="35.6" style="font-family:'SweetSans-SC'; font-size:7px; letter-spacing:3;">704.269.498</tspan><tspan x="85.7" y="35.6" style="font-family:'SweetSans-SC'; font-size:7px;">5</tspan><tspan x="0" y="45.6" style="font-family:'SweetSans-SC'; font-size:5px;">hello@fminteriors.co</tspan><tspan x="86" y="45.6" style="font-family:'SweetSans-SC'; font-size:5px;">m</tspan><tspan x="0" y="55.6" style="font-family:'SweetSans-SC'; font-size:5px; letter-spacing:2;">fminteriors.co</tspan><tspan x="86" y="55.6" style="font-family:'SweetSans-SC'; font-size:5px;">m</tspan></text>
<g>
	<path class="st2" d="M28.2,176.7v-8.5h6.7v1h-5.6v2.6h3.4v1h-3.4v3.9H28.2z"/>
	<path class="st2" d="M48.2,176.7v-8.5h1.1v8.5H48.2z"/>
	<path class="st2" d="M67.9,168c2.6,0,4.7,2,4.7,4.4c0,2.5-2.1,4.5-4.7,4.5c-2.6,0-4.7-2-4.7-4.5C63.2,169.9,65.2,168,67.9,168z
		 M67.9,175.9c2,0,3.5-1.6,3.5-3.5c0-1.9-1.6-3.4-3.5-3.4s-3.5,1.5-3.5,3.4C64.3,174.3,65.9,175.9,67.9,175.9z"/>
	<path class="st2" d="M94,168.2v8.5h-1l-5.4-6.5h0v6.5h-1.1v-8.5h1l5.4,6.5h0v-6.5H94z"/>
	<path class="st2" d="M107.5,176.7l3.9-8.5h1.1l3.9,8.5h-1.2l-1.2-2.5h-4.2l-1.1,2.5H107.5z M110.2,173.2h3.4l-1.7-3.7h-0.1
		L110.2,173.2z"/>
	<path class="st2" d="M35.7,192.3v-6.4h-0.1l-3.1,5.2h-0.2l-3.1-5.2h-0.1v6.4h-1.1v-8.5h1.2l3.2,5.3h0l3.2-5.3h1.1v8.5H35.7z"/>
	<path class="st2" d="M47.6,192.3v-8.5h1.1v8.5H47.6z"/>
	<path class="st2" d="M60.6,183.8v7.5h5.4v1h-6.5v-8.5H60.6z"/>
	<path class="st2" d="M76.5,183.8v7.5h5.4v1h-6.5v-8.5H76.5z"/>
	<path class="st2" d="M95.8,188.3h-3.4v3h6v1h-7.1v-8.5h6.8v1h-5.7v2.5h3.4V188.3z"/>
	<path class="st2" d="M108.2,192.3v-8.5h4.7c1.1,0,1.8,0.3,2.4,0.9c0.4,0.4,0.7,1,0.7,1.7c0,1.1-0.8,2-2,2.4l2.1,3.6h-1.3l-2-3.5
		h-3.5v3.5H108.2z M109.3,184.8v3h3.8c0.9,0,1.6-0.7,1.6-1.5c0-0.4-0.2-0.7-0.4-1c-0.4-0.4-0.9-0.5-1.5-0.5H109.3z"/>
	<path class="st2" d="M27.6,202.3v-4.4h0.7v4.4H27.6z"/>
	<path class="st2" d="M40,197.8v4.4h-0.6l-2.9-3.3h0v3.3h-0.7v-4.4h0.6l2.9,3.3h0v-3.3H40z"/>
	<path class="st2" d="M46.9,197.8h4.4v0.6h-1.8v3.8h-0.7v-3.8h-1.9V197.8z"/>
	<path class="st2" d="M60.7,200.2h-1.9v1.4h3.3v0.6h-4v-4.4h3.8v0.6h-3.1v1.2h1.9V200.2z"/>
	<path class="st2" d="M69.1,202.3v-4.4h2.6c0.7,0,1.1,0.2,1.4,0.5c0.2,0.2,0.4,0.5,0.4,0.9c0,0.6-0.4,1.1-1.1,1.2l1.1,1.9h-0.8
		l-1.1-1.8h-1.9v1.8H69.1z M69.8,198.4v1.5h2.1c0.5,0,0.9-0.3,0.9-0.7c0-0.2-0.1-0.3-0.2-0.4c-0.2-0.2-0.5-0.3-0.9-0.3H69.8z"/>
	<path class="st2" d="M80.6,202.3v-4.4h0.7v4.4H80.6z"/>
	<path class="st2" d="M91,197.7c1.4,0,2.6,1.1,2.6,2.4c0,1.3-1.2,2.4-2.6,2.4c-1.4,0-2.6-1-2.6-2.4C88.4,198.7,89.6,197.7,91,197.7z
		 M91,201.8c1,0,1.9-0.8,1.9-1.8c0-1-0.8-1.7-1.9-1.7c-1,0-1.9,0.8-1.9,1.7C89.1,201,90,201.8,91,201.8z"/>
	<path class="st2" d="M100.7,202.3v-4.4h2.6c0.7,0,1.1,0.2,1.4,0.5c0.2,0.2,0.4,0.5,0.4,0.9c0,0.6-0.4,1.1-1.1,1.2l1.1,1.9h-0.8
		l-1.1-1.8h-1.9v1.8H100.7z M101.4,198.4v1.5h2.1c0.5,0,0.9-0.3,0.9-0.7c0-0.2-0.1-0.3-0.2-0.4c-0.2-0.2-0.5-0.3-0.9-0.3H101.4z"/>
	<path class="st2" d="M115.6,198.8c-0.3-0.2-0.9-0.5-1.8-0.5c-0.6,0-1.2,0.2-1.2,0.7c0,0.5,0.8,0.5,1.5,0.6c0.8,0,2.2,0.1,2.2,1.3
		c0,1.1-1,1.5-2.1,1.5c-1.2,0-2-0.5-2.5-0.9l0.4-0.5c0.4,0.3,1.1,0.8,2.1,0.8c0.8,0,1.4-0.2,1.4-0.8c0-0.6-0.7-0.7-1.5-0.8
		c-1-0.1-2.2-0.1-2.2-1.2c0-1,1-1.4,1.9-1.4c1,0,1.8,0.4,2.2,0.7L115.6,198.8z"/>
	<path class="st2" d="M26.9,208.4h3.5v0.5l-2.2,3.3h-0.8l2.3-3.3h-2.8V208.4z"/>
	<path class="st2" d="M36.9,208.3c1.2,0,2.1,0.9,2.1,2.1c0,1.1-1,2.1-2.1,2.1c-1.2,0-2.1-0.9-2.1-2.1
		C34.8,209.2,35.8,208.3,36.9,208.3z M36.9,211.9c0.8,0,1.5-0.7,1.5-1.5c0-0.8-0.7-1.5-1.5-1.5c-0.8,0-1.5,0.7-1.5,1.5
		C35.4,211.2,36.1,211.9,36.9,211.9z"/>
	<path class="st2" d="M47.7,211.4h-0.8v0.9h-0.6v-0.9h-2.9v-0.4l3-2.6h0.6v2.5h0.8V211.4z M44.2,210.9h2.1v-1.7h-0.1
		C45.6,209.7,44.9,210.3,44.2,210.9L44.2,210.9z"/>
	<path class="st2" d="M52.6,211.5c0.3,0,0.5,0.2,0.5,0.4s-0.2,0.4-0.5,0.4s-0.5-0.2-0.5-0.4S52.3,211.5,52.6,211.5z"/>
	<path class="st2" d="M57.7,208.9c0.4-0.4,0.9-0.7,1.7-0.7c0.8,0,1.6,0.3,1.6,1.1c0,0.9-1,1.1-1.6,1.3c-0.6,0.2-1.1,0.4-1.1,1.1v0.1
		h2.6v0.5h-3.2v-0.5c0-1,0.8-1.4,1.7-1.7c0.3-0.1,1-0.2,1-0.7c0-0.4-0.5-0.6-0.9-0.6c-0.6,0-1,0.3-1.4,0.6L57.7,208.9z"/>
	<path class="st2" d="M68.8,209.1c-0.3-0.2-0.7-0.3-1.2-0.3c-0.8,0-1.6,0.5-1.6,1.5c0.4-0.3,1-0.6,1.7-0.6c1.1,0,1.6,0.7,1.6,1.2
		c0,0.8-0.7,1.4-1.8,1.4c-1.1,0-2.1-0.7-2.1-2c0-1.3,1-2.1,2.2-2.1c0.8,0,1.3,0.3,1.5,0.4L68.8,209.1z M66,210.7
		c0.2,0.7,0.8,1.1,1.5,1.1c0.7,0,1.2-0.4,1.2-0.9c0-0.3-0.3-0.7-1.1-0.7C67,210.2,66.4,210.5,66,210.7z"/>
	<path class="st2" d="M74.3,211.6c0.3,0.2,0.7,0.3,1.2,0.3c0.8,0,1.6-0.5,1.6-1.5c-0.4,0.3-1,0.6-1.7,0.6c-1.1,0-1.6-0.7-1.6-1.2
		c0-0.8,0.7-1.4,1.8-1.4c1.1,0,2.1,0.7,2.1,2c0,1.3-1,2.1-2.2,2.1c-0.8,0-1.3-0.3-1.5-0.4L74.3,211.6z M77,209.9
		c-0.2-0.7-0.8-1.1-1.5-1.1c-0.7,0-1.2,0.4-1.2,0.9c0,0.3,0.3,0.7,1.1,0.7C76,210.4,76.7,210.1,77,209.9z"/>
	<path class="st2" d="M82.5,211.5c0.3,0,0.5,0.2,0.5,0.4s-0.2,0.4-0.5,0.4s-0.5-0.2-0.5-0.4S82.2,211.5,82.5,211.5z"/>
	<path class="st2" d="M91.7,211.4h-0.8v0.9h-0.6v-0.9h-2.9v-0.4l3-2.6h0.6v2.5h0.8V211.4z M88.2,210.9h2.1v-1.7h-0.1
		C89.6,209.7,88.9,210.3,88.2,210.9L88.2,210.9z"/>
	<path class="st2" d="M96.5,211.6c0.3,0.2,0.7,0.3,1.2,0.3c0.8,0,1.6-0.5,1.6-1.5c-0.4,0.3-1,0.6-1.7,0.6c-1.1,0-1.6-0.7-1.6-1.2
		c0-0.8,0.7-1.4,1.8-1.4c1.1,0,2.1,0.7,2.1,2c0,1.3-1,2.1-2.2,2.1c-0.8,0-1.3-0.3-1.5-0.4L96.5,211.6z M99.3,209.9
		c-0.2-0.7-0.8-1.1-1.5-1.1c-0.7,0-1.2,0.4-1.2,0.9c0,0.3,0.3,0.7,1.1,0.7C98.3,210.4,98.9,210.1,99.3,209.9z"/>
	<path class="st2" d="M104.3,211.2c0-0.6,0.5-0.9,1-1c-0.5-0.1-0.8-0.4-0.8-0.8c0-0.7,0.9-1.1,1.7-1.1c0.8,0,1.7,0.3,1.7,1.1
		c0,0.4-0.3,0.7-0.8,0.8c0.5,0.1,1.1,0.4,1.1,1c0,0.8-1,1.2-1.9,1.2C105.3,212.4,104.3,211.9,104.3,211.2z M107.6,211.1
		c0-0.5-0.7-0.7-1.3-0.7c-0.6,0-1.3,0.2-1.3,0.7s0.7,0.8,1.3,0.8C106.9,211.9,107.6,211.6,107.6,211.1z M107.3,209.4
		c0-0.4-0.6-0.6-1-0.6c-0.5,0-1,0.2-1,0.6c0,0.4,0.4,0.6,1,0.6C107,209.9,107.3,209.7,107.3,209.4z"/>
	<path class="st2" d="M116,208.9h-2.5v1.1c0.4-0.2,0.7-0.4,1.3-0.4c0.8,0,1.7,0.4,1.7,1.3c0,1-1,1.4-2,1.4c-1,0-1.6-0.4-1.9-0.6
		l0.3-0.4c0.3,0.2,0.8,0.5,1.6,0.5c0.7,0,1.4-0.2,1.4-0.9c0-0.5-0.5-0.8-1.1-0.8c-0.6,0-1,0.2-1.4,0.4l-0.4-0.3v-1.9h3.1V208.9z"/>
	<path class="st2" d="M27.2,222.3v-2.8h0.4v1.1h1.8v-1.1h0.4v2.8h-0.4v-1.3h-1.8v1.3H27.2z"/>
	<path class="st2" d="M33.6,221h-1.2v0.9h2.1v0.4H32v-2.8h2.4v0.4h-2v0.7h1.2V221z"/>
	<path class="st2" d="M36.7,219.5v2.4h1.9v0.4h-2.3v-2.8H36.7z"/>
	<path class="st2" d="M40.8,219.5v2.4h1.9v0.4h-2.3v-2.8H40.8z"/>
	<path class="st2" d="M45.6,219.4c0.9,0,1.6,0.7,1.6,1.5c0,0.8-0.7,1.5-1.6,1.5c-0.9,0-1.6-0.7-1.6-1.5
		C44,220.1,44.7,219.4,45.6,219.4z M45.6,222c0.7,0,1.2-0.5,1.2-1.1s-0.5-1.1-1.2-1.1c-0.7,0-1.2,0.5-1.2,1.1S45,222,45.6,222z"/>
	<path class="st2" d="M52.1,219.9l-0.5,1.4c0,0,0,0.1,0,0.1c0,0.2,0.1,0.3,0.3,0.3c0.4,0,0.9-0.5,0.9-1.2c0-0.7-0.6-1.3-1.6-1.3
		c-1.1,0-2.1,0.7-2.1,1.8s1,1.6,1.9,1.6c0.5,0,1-0.1,1.3-0.3l0.1,0.3c-0.3,0.2-0.9,0.3-1.4,0.3c-1,0-2.2-0.6-2.2-2
		c0-1.3,1.2-2.2,2.4-2.2c1.2,0,1.9,0.7,1.9,1.6c0,0.9-0.8,1.5-1.3,1.5c-0.3,0-0.5-0.1-0.5-0.4v0c-0.2,0.3-0.5,0.4-0.8,0.4
		c-0.4,0-0.7-0.2-0.7-0.8c0-0.8,0.7-1.3,1.2-1.3c0.3,0,0.5,0.2,0.6,0.5l0.1-0.4H52.1z M51.3,221.2l0.2-0.6c0-0.2-0.2-0.5-0.5-0.5
		c-0.3,0-0.8,0.4-0.8,0.9c0,0.3,0.2,0.5,0.4,0.5C50.9,221.6,51.1,221.5,51.3,221.2z"/>
	<path class="st2" d="M55,222.3v-2.8h2.4v0.4h-1.9v0.8h1.2v0.4h-1.2v1.3H55z"/>
	<path class="st2" d="M59.1,219.5h0.5l1.1,1.7h0l1.1-1.7h0.4v2.8h-0.4v-2h0l-1,1.6h-0.1l-1-1.6h0v2h-0.4V219.5z"/>
	<path class="st2" d="M64.3,222.3v-2.8h0.4v2.8H64.3z"/>
	<path class="st2" d="M69.6,219.5v2.8h-0.4l-1.8-2.1h0v2.1h-0.4v-2.8h0.4l1.8,2.1h0v-2.1H69.6z"/>
	<path class="st2" d="M71.3,219.5h2.7v0.4h-1.2v2.4h-0.4v-2.4h-1.2V219.5z"/>
	<path class="st2" d="M77.4,221h-1.2v0.9h2.1v0.4h-2.5v-2.8h2.4v0.4h-2v0.7h1.2V221z"/>
	<path class="st2" d="M80.1,222.3v-2.8h1.6c0.4,0,0.7,0.1,0.9,0.3c0.1,0.2,0.2,0.3,0.2,0.5c0,0.4-0.3,0.7-0.7,0.8l0.7,1.2h-0.5
		l-0.7-1.1h-1.2v1.1H80.1z M80.6,219.9v0.9h1.3c0.3,0,0.6-0.2,0.6-0.5c0-0.1,0-0.2-0.1-0.3c-0.1-0.1-0.3-0.2-0.5-0.2H80.6z"/>
	<path class="st2" d="M84.8,222.3v-2.8h0.4v2.8H84.8z"/>
	<path class="st2" d="M88.7,219.4c0.9,0,1.6,0.7,1.6,1.5c0,0.8-0.7,1.5-1.6,1.5c-0.9,0-1.6-0.7-1.6-1.5
		C87.1,220.1,87.8,219.4,88.7,219.4z M88.7,222c0.7,0,1.2-0.5,1.2-1.1s-0.5-1.1-1.2-1.1c-0.7,0-1.2,0.5-1.2,1.1S88.1,222,88.7,222z"
		/>
	<path class="st2" d="M92.3,222.3v-2.8h1.6c0.4,0,0.7,0.1,0.9,0.3c0.1,0.2,0.2,0.3,0.2,0.5c0,0.4-0.3,0.7-0.7,0.8l0.7,1.2h-0.5
		l-0.7-1.1h-1.2v1.1H92.3z M92.7,219.9v0.9H94c0.3,0,0.6-0.2,0.6-0.5c0-0.1,0-0.2-0.1-0.3c-0.1-0.1-0.3-0.2-0.5-0.2H92.7z"/>
	<path class="st2" d="M99.1,220.1c-0.2-0.1-0.6-0.3-1.1-0.3c-0.4,0-0.7,0.1-0.7,0.4c0,0.3,0.5,0.3,0.9,0.4c0.5,0,1.4,0.1,1.4,0.8
		c0,0.7-0.6,0.9-1.3,0.9c-0.8,0-1.3-0.3-1.6-0.6l0.3-0.3c0.2,0.2,0.7,0.5,1.3,0.5c0.5,0,0.9-0.2,0.9-0.5c0-0.4-0.4-0.5-0.9-0.5
		c-0.6,0-1.4-0.1-1.4-0.7c0-0.7,0.7-0.9,1.2-0.9c0.6,0,1.1,0.2,1.4,0.4L99.1,220.1z"/>
	<path class="st2" d="M101.5,221.7c0.2,0,0.3,0.1,0.3,0.3s-0.1,0.3-0.3,0.3c-0.2,0-0.3-0.1-0.3-0.3S101.3,221.7,101.5,221.7z"/>
	<path class="st2" d="M106.5,221.8c-0.3,0.3-0.8,0.6-1.4,0.6c-1,0-1.6-0.7-1.6-1.5s0.7-1.5,1.6-1.5c0.5,0,1,0.2,1.4,0.5l-0.3,0.3
		c-0.3-0.2-0.7-0.4-1.1-0.4c-0.7,0-1.2,0.5-1.2,1.1c0,0.6,0.5,1.1,1.2,1.1c0.5,0,0.9-0.2,1.1-0.5L106.5,221.8z"/>
	<path class="st2" d="M109.7,219.4c0.9,0,1.6,0.7,1.6,1.5c0,0.8-0.7,1.5-1.6,1.5c-0.9,0-1.6-0.7-1.6-1.5
		C108,220.1,108.8,219.4,109.7,219.4z M109.7,222c0.7,0,1.2-0.5,1.2-1.1s-0.5-1.1-1.2-1.1c-0.7,0-1.2,0.5-1.2,1.1S109,222,109.7,222
		z"/>
	<path class="st2" d="M113.2,219.5h0.5l1.1,1.7h0l1.1-1.7h0.4v2.8h-0.4v-2h0l-1,1.6h-0.1l-1-1.6h0v2h-0.4V219.5z"/>
	<path class="st2" d="M27.2,232.3v-2.8h2.4v0.4h-1.9v0.8h1.2v0.4h-1.2v1.3H27.2z"/>
	<path class="st2" d="M33.3,229.5h0.5l1.1,1.7h0l1.1-1.7h0.4v2.8h-0.4v-2h0l-1,1.6h-0.1l-1-1.6h0v2h-0.4V229.5z"/>
	<path class="st2" d="M40.5,232.3v-2.8h0.4v2.8H40.5z"/>
	<path class="st2" d="M47.7,229.5v2.8h-0.4l-1.8-2.1h0v2.1h-0.4v-2.8h0.4l1.8,2.1h0v-2.1H47.7z"/>
	<path class="st2" d="M51.4,229.5h2.7v0.4H53v2.4h-0.4v-2.4h-1.2V229.5z"/>
	<path class="st2" d="M59.5,231h-1.2v0.9h2.1v0.4h-2.5v-2.8h2.4v0.4h-2v0.7h1.2V231z"/>
	<path class="st2" d="M64.2,232.3v-2.8h1.6c0.4,0,0.7,0.1,0.9,0.3c0.1,0.2,0.2,0.3,0.2,0.5c0,0.4-0.3,0.7-0.7,0.8l0.7,1.2h-0.5
		l-0.7-1.1h-1.2v1.1H64.2z M64.7,229.9v0.9H66c0.3,0,0.6-0.2,0.6-0.5c0-0.1,0-0.2-0.1-0.3c-0.1-0.1-0.3-0.2-0.5-0.2H64.7z"/>
	<path class="st2" d="M70.9,232.3v-2.8h0.4v2.8H70.9z"/>
	<path class="st2" d="M76.8,229.4c0.9,0,1.6,0.7,1.6,1.5c0,0.8-0.7,1.5-1.6,1.5c-0.9,0-1.6-0.7-1.6-1.5
		C75.2,230.1,75.9,229.4,76.8,229.4z M76.8,232c0.7,0,1.2-0.5,1.2-1.1s-0.5-1.1-1.2-1.1c-0.7,0-1.2,0.5-1.2,1.1S76.2,232,76.8,232z"
		/>
	<path class="st2" d="M82.3,232.3v-2.8H84c0.4,0,0.7,0.1,0.9,0.3c0.1,0.2,0.2,0.3,0.2,0.5c0,0.4-0.3,0.7-0.7,0.8l0.7,1.2h-0.5
		l-0.7-1.1h-1.2v1.1H82.3z M82.8,229.9v0.9h1.3c0.3,0,0.6-0.2,0.6-0.5c0-0.1,0-0.2-0.1-0.3c-0.1-0.1-0.3-0.2-0.5-0.2H82.8z"/>
	<path class="st2" d="M91.1,230.1c-0.2-0.1-0.6-0.3-1.1-0.3c-0.4,0-0.7,0.1-0.7,0.4c0,0.3,0.5,0.3,0.9,0.4c0.5,0,1.4,0.1,1.4,0.8
		c0,0.7-0.6,0.9-1.3,0.9c-0.8,0-1.3-0.3-1.6-0.6l0.3-0.3c0.2,0.2,0.7,0.5,1.3,0.5c0.5,0,0.9-0.2,0.9-0.5c0-0.4-0.4-0.5-0.9-0.5
		c-0.6,0-1.4-0.1-1.4-0.7c0-0.7,0.7-0.9,1.2-0.9c0.6,0,1.1,0.2,1.4,0.4L91.1,230.1z"/>
	<path class="st2" d="M95.5,231.7c0.2,0,0.3,0.1,0.3,0.3s-0.1,0.3-0.3,0.3c-0.2,0-0.3-0.1-0.3-0.3S95.3,231.7,95.5,231.7z"/>
	<path class="st2" d="M102.5,231.8c-0.3,0.3-0.8,0.6-1.4,0.6c-1,0-1.6-0.7-1.6-1.5s0.7-1.5,1.6-1.5c0.5,0,1,0.2,1.4,0.5l-0.3,0.3
		c-0.3-0.2-0.7-0.4-1.1-0.4c-0.7,0-1.2,0.5-1.2,1.1c0,0.6,0.5,1.1,1.2,1.1c0.5,0,0.9-0.2,1.1-0.5L102.5,231.8z"/>
	<path class="st2" d="M107.7,229.4c0.9,0,1.6,0.7,1.6,1.5c0,0.8-0.7,1.5-1.6,1.5c-0.9,0-1.6-0.7-1.6-1.5
		C106.1,230.1,106.8,229.4,107.7,229.4z M107.7,232c0.7,0,1.2-0.5,1.2-1.1s-0.5-1.1-1.2-1.1c-0.7,0-1.2,0.5-1.2,1.1
		S107,232,107.7,232z"/>
	<path class="st2" d="M113.2,229.5h0.5l1.1,1.7h0l1.1-1.7h0.4v2.8h-0.4v-2h0l-1,1.6h-0.1l-1-1.6h0v2h-0.4V229.5z"/>
</g>
</svg>
