<?xml version="1.0" encoding="utf-8"?>
<!-- Generator: Adobe Illustrator 22.1.0, SVG Export Plug-In . SVG Version: 6.00 Build 0)  -->
<svg version="1.1" id="Layer_1" xmlns="http://www.w3.org/2000/svg" xmlns:xlink="http://www.w3.org/1999/xlink" x="0px" y="0px"
	 viewBox="0 0 252 144" style="enable-background:new 0 0 252 144;" xml:space="preserve">
<style type="text/css">
	.st0{fill:#FFFFFF;}
	.st1{fill:#909044;}
	.st2{fill:#909044;stroke:#909044;stroke-width:0.5;stroke-miterlimit:10;}
	.st3{fill:#909044;stroke:#909044;stroke-width:0.25;stroke-miterlimit:10;}
	.st4{fill:#909044;stroke:#909044;stroke-width:0.1;stroke-miterlimit:10;}
</style>
<rect class="st0" width="252" height="144"/>
<g>
	<g>
		<g>
			<path class="st1" d="M156.1,102.3c0.4-0.6,0.7-1.2,1.1-1.8c0.4,0,0.7,0,1.1,0c-0.2,0.2-0.4,0.5-0.5,0.8c-0.2,0.3-0.4,0.6-0.5,0.9
				c-0.1,0.2,0.1,0.4,0.2,0.2c0.2-0.3,0.4-0.6,0.6-0.9c0.2-0.3,0.4-0.6,0.6-0.8c0,0,0-0.1,0-0.1c2.6,0,5.3-0.1,7.9-0.1
				c4.3-0.1,8.7-0.1,13-0.1c0,0,0,0,0.1,0c0,0.2-0.1,0.4-0.1,0.6c0,0.1,0.1,0.1,0.1,0.1c0.4,0,0.8-0.3,1.1-0.4
				c0.2-0.1,0.4-0.2,0.6-0.2c0.2-0.1,0.4-0.1,0.6-0.2c0.1-0.1,0.1-0.1,0.1-0.2c0-0.1-0.2-0.1-0.3-0.2c-0.2-0.1-0.4-0.2-0.6-0.3
				c-0.2-0.1-0.5-0.2-0.7-0.3c-0.2-0.1-0.4-0.2-0.5-0.3c-0.1-0.1-0.3,0-0.3,0.1c0,0,0,0,0,0c0,0.1,0,0.2,0,0.3
				c0,0.2,0.1,0.3,0.1,0.5c0,0-0.1,0-0.1,0c-4.3,0-8.6,0-12.9,0.1c-2.7,0-5.4,0.1-8,0.1c0,0,0-0.1,0-0.1c-0.2-0.3-0.4-0.5-0.6-0.8
				c-0.2-0.3-0.4-0.7-0.6-0.9c-0.1-0.1-0.3,0-0.2,0.2c0.1,0.3,0.4,0.6,0.5,0.9c0.2,0.3,0.4,0.5,0.6,0.8c-0.4,0-0.7,0-1.1,0
				c-0.3-0.6-0.7-1.3-1.1-1.9c-0.1-0.2-0.3,0-0.3,0.2c0.3,0.6,0.7,1.1,1,1.7c-0.3,0-0.6,0-1,0c-0.4-0.6-0.8-1.2-1.2-1.8
				c-0.1-0.2-0.4,0-0.3,0.2c0.4,0.6,0.8,1.1,1.2,1.6c-0.6,0-1.2,0-1.8,0c-0.3,0-0.3,0.6,0,0.6c0.6,0,1.2,0,1.8,0
				c-0.4,0.5-0.8,1-1.2,1.6c-0.1,0.2,0.2,0.4,0.3,0.2c0.4-0.6,0.8-1.2,1.2-1.8c0.3,0,0.7,0,1,0c-0.4,0.6-0.7,1.1-1,1.7
				C155.7,102.3,156,102.4,156.1,102.3z"/>
			<path class="st1" d="M95.9,97.9c-0.4,0.6-0.7,1.2-1.1,1.8c-0.4,0-0.7,0-1.1,0c0.2-0.2,0.4-0.5,0.5-0.8c0.2-0.3,0.4-0.6,0.5-0.9
				c0.1-0.2-0.1-0.4-0.2-0.2c-0.2,0.3-0.4,0.6-0.6,0.9c-0.2,0.3-0.4,0.6-0.6,0.8c0,0,0,0.1,0,0.1c-2.6,0-5.3,0.1-7.9,0.1
				c-4.3,0.1-8.7,0.1-13,0.1c0,0,0,0-0.1,0c0-0.2,0.1-0.4,0.1-0.6c0-0.1-0.1-0.1-0.1-0.1c-0.4,0-0.8,0.3-1.1,0.4
				c-0.2,0.1-0.4,0.2-0.6,0.2c-0.2,0.1-0.4,0.1-0.6,0.2c-0.1,0-0.1,0.1-0.1,0.2c0,0.1,0.2,0.1,0.3,0.2c0.2,0.1,0.4,0.2,0.6,0.3
				c0.2,0.1,0.5,0.2,0.7,0.3c0.2,0.1,0.4,0.2,0.5,0.3c0.1,0.1,0.3,0,0.3-0.1c0,0,0,0,0,0c0-0.1,0-0.2,0-0.3c0-0.2-0.1-0.3-0.1-0.5
				c0,0,0.1,0,0.1,0c4.3,0,8.6,0,12.9-0.1c2.7,0,5.4-0.1,8-0.1c0,0,0,0.1,0,0.1c0.2,0.3,0.4,0.5,0.6,0.8c0.2,0.3,0.4,0.7,0.6,0.9
				c0.1,0.1,0.3,0,0.2-0.2c-0.1-0.3-0.4-0.6-0.5-0.9c-0.2-0.3-0.4-0.5-0.6-0.8c0.4,0,0.7,0,1.1,0c0.3,0.6,0.7,1.3,1.1,1.9
				c0.1,0.2,0.3,0,0.3-0.2c-0.3-0.6-0.7-1.1-1-1.7c0.3,0,0.6,0,1,0c0.4,0.6,0.8,1.2,1.2,1.8c0.1,0.2,0.4,0,0.3-0.2
				c-0.4-0.6-0.8-1.1-1.2-1.6c0.6,0,1.2,0,1.8,0c0.3,0,0.3-0.6,0-0.6c-0.6,0-1.2,0-1.8,0c0.4-0.5,0.8-1,1.2-1.6
				c0.1-0.2-0.2-0.4-0.3-0.2c-0.4,0.6-0.8,1.2-1.2,1.8c-0.3,0-0.7,0-1,0c0.4-0.6,0.7-1.1,1-1.7C96.3,97.9,96,97.8,95.9,97.9z"/>
		</g>
		<g>
			<path class="st2" d="M70.2,89.6h1.5v-9.9h-1.5v-0.2h6.9v2.3h-0.2v-2.1H72v4.8h3.8v0.2H72v4.9h1.6v0.2h-3.4V89.6z"/>
			<path class="st2" d="M78.5,89.6h1.6v-9.9h-1.6v-0.2H82v0.2h-1.6v9.9H82v0.2h-3.5V89.6z"/>
			<path class="st2" d="M83.2,89.6h1.5v-9.9h-1.5v-0.2H87c2.1,0,3.4,1.2,3.4,2.8c0,1.6-1.1,2.6-2.7,2.8l2.7,4.5h1.3v0.2h-1.5
				l-2.8-4.6c-0.2,0-0.4,0-0.6,0c-0.7,0-1.2,0-1.9,0v4.4h1.6v0.2h-3.4V89.6z M90.2,82.3c0-1.5-1.1-2.6-3.2-2.6h-2.1V85
				c0.6,0,1.2,0,1.9,0C88.8,85,90.2,84.1,90.2,82.3z"/>
			<path class="st2" d="M92.5,88c0-0.3,0.1-0.4,0.3-0.4c0.1,0,0.3,0.1,0.3,0.3c0,0.2-0.1,0.3-0.3,0.3c0.2,0.8,1.2,1.6,2.8,1.6
				c1.7,0,2.9-1,2.9-2.4c0-1.5-1.4-2.2-2.7-2.8c-1.3-0.5-2.8-1.2-2.8-2.8c0-1.4,1.2-2.4,2.9-2.4c1.5,0,2.7,1,2.7,1.9
				c0,0.3-0.1,0.4-0.3,0.4c-0.1,0-0.3-0.1-0.3-0.3c0-0.2,0.1-0.3,0.3-0.3c-0.2-0.8-1.2-1.5-2.4-1.5c-1.5,0-2.7,1-2.7,2.2
				c0,1.6,1.4,2.1,2.7,2.7c1.3,0.5,2.8,1.3,2.8,2.9c0,1.5-1.3,2.6-3.1,2.6C93.7,90,92.5,88.9,92.5,88z"/>
			<path class="st2" d="M102.2,89.6h1.7v-9.9H100v2.1h-0.2v-2.3h8.4v2.3h-0.2v-2.1h-3.8v9.9h1.6v0.2h-3.5V89.6z"/>
			<path class="st2" d="M113.1,88c0-0.3,0.1-0.4,0.3-0.4c0.1,0,0.3,0.1,0.3,0.3c0,0.2-0.1,0.3-0.3,0.3c0.2,0.8,1.2,1.6,2.8,1.6
				c1.7,0,2.9-1,2.9-2.4c0-1.5-1.4-2.2-2.7-2.8c-1.3-0.5-2.8-1.2-2.8-2.8c0-1.4,1.2-2.4,2.9-2.4c1.5,0,2.7,1,2.7,1.9
				c0,0.3-0.1,0.4-0.3,0.4c-0.1,0-0.3-0.1-0.3-0.3c0-0.2,0.1-0.3,0.3-0.3c-0.2-0.8-1.2-1.5-2.4-1.5c-1.5,0-2.7,1-2.7,2.2
				c0,1.6,1.4,2.1,2.7,2.7c1.3,0.5,2.8,1.3,2.8,2.9c0,1.5-1.3,2.6-3.1,2.6C114.2,90,113.1,88.9,113.1,88z"/>
			<path class="st2" d="M120.6,89.6h1.5v-9.9h-1.5v-0.2h7.1v2.3h-0.2v-2.1h-5.1v4.7h3.9v0.2h-3.9v5h5.1v-2.1h0.2v2.3h-7.1V89.6z"/>
			<path class="st2" d="M131.4,89.6h1.7v-9.9h-3.8v2.1H129v-2.3h8.4v2.3h-0.2v-2.1h-3.8v9.9h1.6v0.2h-3.5V89.6z"/>
			<path class="st2" d="M140.9,89.6h1.7v-9.9h-3.8v2.1h-0.2v-2.3h8.4v2.3h-0.2v-2.1h-3.8v9.9h1.6v0.2h-3.5V89.6z"/>
			<path class="st2" d="M148,89.6h1.6v-9.9H148v-0.2h3.4v0.2h-1.6v9.9h4.7v-2.1h0.2v2.3H148V89.6z"/>
			<path class="st2" d="M155.9,89.6h1.5v-9.9h-1.5v-0.2h7.1v2.3h-0.2v-2.1h-5.1v4.7h3.9v0.2h-3.9v5h5.1v-2.1h0.2v2.3h-7.1V89.6z"/>
			<path class="st2" d="M164.6,89.6h1.6v-9.9h-1.6v-0.2h3.9c2.1,0,3.4,1.2,3.4,2.8c0,1.6-1.1,2.6-2.7,2.8l2.7,4.5h1.3v0.2h-1.5
				l-2.8-4.6c-0.2,0-0.4,0-0.6,0c-0.7,0-1.2,0-1.9,0v4.4h1.6v0.2h-3.4V89.6z M171.6,82.3c0-1.5-1.1-2.6-3.2-2.6h-2.1V85
				c0.6,0,1.2,0,1.9,0C170.3,85,171.6,84.1,171.6,82.3z"/>
			<path class="st2" d="M173.5,81.5c0.4-0.5,0.7-0.9,0.7-1.5c-0.2,0-0.4-0.1-0.4-0.3c0-0.1,0.1-0.3,0.3-0.3c0.2,0,0.3,0.2,0.3,0.5
				c0,0.7-0.4,1.3-0.9,1.7L173.5,81.5z"/>
			<path class="st2" d="M175.8,88c0-0.3,0.1-0.4,0.3-0.4c0.1,0,0.3,0.1,0.3,0.3c0,0.2-0.1,0.3-0.3,0.3c0.2,0.8,1.2,1.6,2.8,1.6
				c1.7,0,2.9-1,2.9-2.4c0-1.5-1.4-2.2-2.7-2.8c-1.3-0.5-2.8-1.2-2.8-2.8c0-1.4,1.2-2.4,2.9-2.4c1.6,0,2.7,1,2.7,1.9
				c0,0.3-0.1,0.4-0.3,0.4c-0.1,0-0.3-0.1-0.3-0.3c0-0.2,0.1-0.3,0.3-0.3c-0.2-0.8-1.2-1.5-2.4-1.5c-1.5,0-2.6,1-2.6,2.2
				c0,1.6,1.4,2.1,2.7,2.7c1.3,0.5,2.8,1.3,2.8,2.9c0,1.5-1.3,2.6-3.1,2.6C177,90,175.8,88.9,175.8,88z"/>
		</g>
		<g>
			<path class="st3" d="M103.8,103.2h1.1V96h-1.1v-0.1h2.5V96h-1.2v7.2h3.5v-1.5h0.2v1.7h-4.9V103.2z"/>
			<path class="st3" d="M111.7,99.6c0-2.1,1.6-3.9,3.7-3.9c2.1,0,3.7,1.7,3.7,3.9c0,2.1-1.6,3.9-3.7,3.9
				C113.3,103.5,111.7,101.7,111.7,99.6z M119,99.6c0-2.1-1.5-3.7-3.6-3.7c-2,0-3.5,1.6-3.5,3.7s1.5,3.7,3.5,3.7
				C117.5,103.3,119,101.7,119,99.6z"/>
			<path class="st3" d="M122.5,103.2h1.1V96h-1.1v-0.1h2.8c2.7,0,4.1,1.5,4.1,3.7c0,2.2-1.4,3.8-4.1,3.8h-2.8V103.2z M125.3,103.2
				c2.5,0,3.9-1.5,3.9-3.6c0-2.1-1.3-3.6-3.9-3.6h-1.5v7.2H125.3z"/>
			<path class="st3" d="M132.9,99.6c0-2.3,1.7-3.9,3.8-3.9c1.7,0,2.8,1,2.8,1.7c0,0.2-0.1,0.3-0.2,0.3c-0.1,0-0.2-0.1-0.2-0.2
				c0-0.1,0.1-0.2,0.2-0.2c-0.1-0.6-1.1-1.4-2.6-1.4c-2.1,0-3.6,1.7-3.6,3.8c0,2.1,1.5,3.7,3.5,3.7c1.1,0,2-0.4,2.8-1.2v-2h-2.5V100
				h2.7v3.3h-0.2v-1c-0.7,0.7-1.7,1.1-2.8,1.1C134.5,103.5,132.9,101.9,132.9,99.6z"/>
			<path class="st3" d="M143.2,103.2h1.1V96h-1.1v-0.1h5.2v1.7h-0.2V96h-3.7v3.4h2.8v0.1h-2.8v3.6h3.7v-1.5h0.2v1.7h-5.2V103.2z"/>
		</g>
		<g>
			<g>
				<path class="st3" d="M117.9,72.1h0.9v-3.4l-0.8,0.2l0-0.1l0.9-0.3h0v3.6h0.9v0.1L117.9,72.1L117.9,72.1z"/>
				<path class="st3" d="M122,72.9c-0.1-0.1-0.2-0.2-0.2-0.3c0-0.1,0.1-0.2,0.1-0.2c0.1,0,0.1,0.1,0.1,0.1c0,0.1,0,0.1-0.1,0.2
					C122,72.7,122,72.8,122,72.9c0.2,0.1,0.5,0.2,0.8,0.2c0.8,0,1.5-0.8,1.5-2.6v-0.2c0,0.1,0,0.2-0.1,0.3c-0.2,0.5-0.6,0.9-1.3,0.9
					c-0.8,0-1.4-0.6-1.4-1.4c0-0.8,0.6-1.4,1.4-1.4c0.4,0,0.7,0.1,1,0.4c0.3,0.3,0.4,0.7,0.4,1.5c0,1.9-0.8,2.7-1.6,2.7
					C122.5,73.2,122.2,73,122,72.9z M123,68.6c-0.7,0-1.3,0.6-1.3,1.3c0,0.7,0.5,1.3,1.3,1.3c0.8,0,1.3-0.7,1.3-1.3
					c0-0.3-0.1-0.7-0.4-1C123.7,68.8,123.4,68.6,123,68.6z"/>
				<path class="st3" d="M127,72.9c-0.1-0.1-0.2-0.2-0.2-0.3c0-0.1,0.1-0.2,0.1-0.2c0.1,0,0.1,0.1,0.1,0.1c0,0.1,0,0.1-0.1,0.2
					C126.9,72.7,127,72.8,127,72.9c0.2,0.1,0.5,0.2,0.8,0.2c0.8,0,1.5-0.8,1.5-2.6v-0.2c0,0.1,0,0.2-0.1,0.3
					c-0.2,0.5-0.6,0.9-1.3,0.9c-0.8,0-1.4-0.6-1.4-1.4c0-0.8,0.6-1.4,1.4-1.4c0.4,0,0.7,0.1,1,0.4c0.3,0.3,0.4,0.7,0.4,1.5
					c0,1.9-0.8,2.7-1.6,2.7C127.4,73.2,127.1,73,127,72.9z M128,68.6c-0.7,0-1.3,0.6-1.3,1.3c0,0.7,0.5,1.3,1.3,1.3
					c0.8,0,1.3-0.7,1.3-1.3c0-0.3-0.1-0.7-0.4-1C128.6,68.8,128.3,68.6,128,68.6z"/>
				<path class="st3" d="M131.5,71c0-0.6,0.4-1.1,1.1-1.2c-0.6-0.1-1-0.5-1-1.1c0-0.6,0.5-1.2,1.3-1.2c0.7,0,1.3,0.5,1.3,1.2
					c0,0.6-0.4,1-1,1.1c0.6,0.1,1.1,0.6,1.1,1.2c0,0.7-0.6,1.2-1.3,1.2C132.1,72.3,131.5,71.7,131.5,71z M134.1,71
					c0-0.6-0.6-1.1-1.2-1.1c-0.7,0-1.3,0.5-1.3,1.1c0,0.7,0.5,1.1,1.3,1.1C133.6,72.2,134.1,71.7,134.1,71z M134,68.8
					c0-0.6-0.5-1.1-1.2-1.1c-0.7,0-1.2,0.5-1.2,1.1c0,0.6,0.5,1.1,1.2,1.1C133.5,69.8,134,69.4,134,68.8z"/>
			</g>
		</g>
	</g>
	<g>
		<path class="st1" d="M123.3,31.1C123.3,31.1,123.3,31.2,123.3,31.1C123.4,31.2,123.4,31.1,123.3,31.1z"/>
		<path class="st1" d="M170.2,42.4C170.2,42.4,170.2,42.4,170.2,42.4C170.2,42.4,170.2,42.4,170.2,42.4z"/>
		<path class="st1" d="M157.5,44C157.5,44,157.5,44,157.5,44C157.6,44,157.6,44,157.5,44z"/>
		<path class="st1" d="M181.5,61.4c0.4,0.3,0.2-0.2-0.1-0.6c0.2,0.1,0.3,0.2,0.2,0c-0.2-0.5-0.5-0.9-0.7-1.3c0,0,0,0,0-0.1
			c0.4,0.3,0.7,0.5,0.2-0.1c-0.2-0.4-0.5-0.7-0.8-1.1c-0.1-0.1-0.2-0.2-0.2-0.3c0,0,0-0.1,0-0.1c0.1,0.1,0.3,0.3,0.6,0.7
			c0.3,0.3,1.1,0.9,0.5,0c-0.1-0.1-0.6-0.8-1.1-1.4c0,0,0-0.1,0-0.1c0.1,0.1,0.2,0.3,0.3,0.4c0.3,0.4,0.6,0.7,0.9,0.9
			c0.3,0.2-0.1-0.5-0.1-0.6c-0.1-0.1-0.1-0.1-0.2-0.2c0-0.1-0.1-0.2-0.2-0.4c-0.3-0.4-0.5-0.7-0.8-1.1c0.1,0.1,0.2,0.2,0.2,0.3
			c0.1,0.1,0.8,0.6,0.4,0c-0.2-0.3-0.5-0.8-0.8-1.3c0-0.1,0-0.2,0-0.3c0.1,0.1,0.2,0.3,0.3,0.4c0.1,0.1,1,1,0.8,0.6
			c-0.4-0.7-0.8-1.5-1.2-2l0,0c0.2,0.3,0.5,0.5,0.7,0.8c0.3,0.3,0.8,0.5,0.3-0.2c0-0.1-0.1-0.1-0.1-0.2c0,0,0-0.1-0.1-0.3
			c-0.2-0.4-0.5-0.8-0.7-1.3c0.3,0.3,0.8,0.7,0.5,0.2c0-0.1-0.1-0.2-0.3-0.4c0,0,0,0,0,0c-0.1-0.2-0.3-0.4-0.4-0.6
			c0.2,0.2,0.5,0.5,0.4,0.2c-0.2-0.5-0.5-1-0.7-1.5c0-0.1-0.1-0.1-0.1-0.2c0,0,0,0,0-0.1c0.1,0.1,0.2,0.2,0.2,0.3
			c0.1,0.1,1,1,0.8,0.6c-0.1-0.2-0.2-0.5-0.3-0.7c0.3,0.3,0.7,0.7,0.6,0.4c-0.2-0.6-0.5-1.2-0.7-1.7c0-0.1-0.1-0.2-0.2-0.4
			c-0.1-0.1-0.3-0.4-0.5-0.6c0,0,0,0,0-0.1c0-0.3-0.2-0.5-0.3-0.6c-0.1-0.2-0.4-0.5-0.6-0.7c-0.2-0.4-0.5-0.3-0.7,0.1
			c-0.2,0.2-0.5,0.5-0.6,0.7c-0.1,0.2-0.2,0.4-0.3,0.6c-0.2,0.2-0.4,0.4-0.5,0.6c-0.1,0.1-0.1,0.3-0.2,0.4c-0.2,0.5-0.4,1-0.6,1.4
			c-0.2-0.5-0.5-1.2-0.7-1.4c-0.1-0.2-0.3-0.4-0.4-0.6c0-0.1,0-0.1,0-0.2c0.4,0.4,0.9,0.8,1.4,1.1c0.1,0.1,0-0.1,0-0.3
			c0,0,0.1,0,0.1,0.1c0.4,0.3-0.1-0.7-0.2-0.8c-0.4-0.7-0.8-1.3-1.3-1.9c0,0,0,0,0-0.1c-0.2-0.2-0.3-0.5-0.4-0.7
			c0.4,0.2,1.3,0.8,1.4,0.9c0.2,0.1,0-0.4,0-0.4c0,0,0,0,0,0c0.4,0.3-0.3-0.9-0.5-1.3c0.1,0.1,0.1,0.1,0.2,0.2
			c0.4,0.4-0.3-1.1-0.3-1.2c-0.8-1.2-1.3-2.9-2.3-3.8c0,0-0.1,0-0.1,0c0-0.1-0.1-0.1-0.2,0c-0.1,0.1-0.1,0.1-0.2,0.2
			c-0.1,0-0.2,0.1-0.2,0.2c-0.8,0.9-1.3,2.3-1.9,3.3c-0.1,0.1-0.8,1.5-0.3,1.2c0.1-0.1,0.1-0.1,0.2-0.2c-0.2,0.3-0.8,1.6-0.5,1.3
			c0,0,0,0,0,0c0,0-0.2,0.5,0,0.4c0.1-0.1,1-0.7,1.4-0.9c-0.1,0.2-0.3,0.5-0.4,0.7c0,0,0,0,0,0.1c-0.5,0.6-0.9,1.2-1.3,1.9
			c-0.1,0.1-0.6,1.1-0.2,0.8c0,0,0.1,0,0.1-0.1c-0.1,0.2-0.1,0.3,0,0.3c0.6-0.4,1.1-0.8,1.6-1.3c0,0,0,0.1-0.1,0.1
			c-0.2,0.3-0.4,0.6-0.6,0.9c-0.2,0.2-0.9,1.8-0.8,1.7c0.1,0,0.1-0.1,0.2-0.2c-0.1,0.2-0.3,0.3-0.4,0.5c-0.1,0.1-0.2,0.4-0.4,0.7
			c-0.2-0.4-0.5-0.7-0.8-1.1c0.1,0.1,0.2,0.2,0.2,0.3c0.1,0.1,0.8,0.6,0.4,0c-0.2-0.3-0.5-0.8-0.8-1.3c0-0.1,0-0.2,0-0.3
			c0.1,0.1,0.2,0.3,0.3,0.4c0.1,0.1,1,1,0.8,0.6c-0.4-0.7-0.8-1.5-1.2-2l0,0c0.2,0.3,0.4,0.5,0.7,0.8c0.3,0.3,0.8,0.5,0.3-0.2
			c0-0.1-0.1-0.1-0.1-0.2c0,0,0-0.1-0.1-0.3c-0.2-0.4-0.5-0.8-0.7-1.3c0.3,0.3,0.8,0.7,0.5,0.2c0-0.1-0.1-0.2-0.3-0.4c0,0,0,0,0,0
			c-0.1-0.2-0.3-0.4-0.4-0.6c0.2,0.2,0.5,0.5,0.4,0.2c-0.2-0.5-0.5-1-0.7-1.5c0-0.1-0.1-0.1-0.1-0.2c0,0,0,0,0-0.1
			c0.1,0.1,0.2,0.2,0.2,0.3c0.1,0.1,1,1,0.8,0.6c-0.1-0.2-0.2-0.5-0.3-0.7c0.3,0.3,0.7,0.7,0.6,0.4c-0.2-0.6-0.5-1.2-0.7-1.7
			c0-0.1-0.1-0.2-0.2-0.4c-0.1-0.1-0.3-0.4-0.5-0.6c0,0,0,0,0-0.1c0-0.3-0.2-0.5-0.3-0.6c-0.1-0.2-0.4-0.5-0.6-0.6
			c-0.2-0.4-0.5-0.3-0.7,0.1c-0.2,0.2-0.5,0.5-0.6,0.7c-0.1,0.2-0.2,0.4-0.3,0.6c-0.2,0.2-0.4,0.4-0.5,0.6c-0.1,0.1-0.1,0.3-0.2,0.4
			c-0.3,0.6-0.5,1.1-0.7,1.7c-0.1,0.3,0.3,0,0.6-0.4c-0.1,0.2-0.2,0.5-0.3,0.7c-0.2,0.4,0.7-0.5,0.8-0.6c0.1-0.2,0.2-0.3,0.4-0.5
			c0,0,0,0,0,0.1c-0.1,0.1-0.1,0.2-0.2,0.3c-0.2,0.5-0.5,1-0.7,1.5c-0.1,0.3,0.2,0,0.4-0.2c-0.1,0.2-0.3,0.4-0.4,0.6c0,0,0,0,0,0
			c-0.1,0.2-0.2,0.3-0.3,0.4c-0.3,0.5,0.2,0.1,0.5-0.2c-0.2,0.4-0.5,0.8-0.7,1.3c-0.1,0.1-0.1,0.2-0.1,0.3c0,0.1-0.1,0.1-0.1,0.2
			c0,0,0,0.1-0.1,0.1c-0.2-0.4-0.5-0.7-0.8-1c0,0,0,0,0-0.1c-0.2-0.2-0.3-0.5-0.4-0.7c0.4,0.2,1.3,0.8,1.4,0.9c0.2,0.1,0-0.4,0-0.4
			c0,0,0,0,0,0c0.4,0.3-0.3-0.9-0.5-1.3c0.1,0.1,0.1,0.1,0.2,0.2c0.4,0.4-0.3-1.1-0.3-1.2c-0.8-1.2-1.3-2.9-2.3-3.8
			c0,0-0.1,0-0.1-0.1c0-0.1-0.1-0.1-0.2,0c-0.1,0.1-0.1,0.1-0.2,0.2c-0.1,0-0.2,0.1-0.2,0.2c-0.8,0.9-1.3,2.3-1.9,3.3
			c0,0-0.2,0.3-0.3,0.6c0,0,0-0.1-0.1-0.3c-0.1-0.1-0.2-0.3-0.3-0.5c0,0,0,0,0,0c-0.2-0.2-0.4-0.5-0.6-0.7c0.3,0.3,0.7,0.6,0.5,0.3
			c-0.3-0.7-0.6-1.3-0.9-2c-0.1-0.1-0.1-0.2-0.2-0.3c0,0,0,0,0-0.1c0.1,0.1,0.2,0.3,0.3,0.4c0.1,0.2,1.3,1.3,1,0.8
			c-0.1-0.3-0.3-0.6-0.4-0.9c0.4,0.4,0.9,0.9,0.8,0.5c-0.3-0.8-0.6-1.5-0.9-2.2c-0.1-0.1-0.1-0.3-0.2-0.5c-0.1-0.2-0.3-0.5-0.6-0.7
			c0,0,0-0.1,0-0.1c-0.1-0.4-0.2-0.7-0.4-0.8c-0.2-0.3-0.5-0.6-0.8-0.9c-0.3-0.5-0.7-0.4-0.9,0.1c-0.3,0.3-0.7,0.7-0.8,0.9
			c-0.1,0.2-0.2,0.5-0.4,0.7c-0.3,0.3-0.5,0.6-0.6,0.7c-0.1,0.2-0.2,0.3-0.2,0.5c-0.3,0.7-0.6,1.5-0.9,2.2c-0.2,0.4,0.4-0.1,0.8-0.5
			c-0.1,0.3-0.3,0.6-0.4,0.9c-0.2,0.5,0.9-0.6,1-0.8c0.2-0.2,0.3-0.5,0.5-0.7c0,0,0,0.1,0,0.1c-0.1,0.1-0.2,0.3-0.3,0.5
			c-0.3,0.7-0.6,1.3-0.9,2c-0.1,0.4,0.3,0,0.5-0.3c-0.2,0.2-0.4,0.5-0.6,0.7c0,0,0,0,0,0c-0.2,0.2-0.3,0.4-0.3,0.5
			c-0.4,0.7,0.3,0.1,0.6-0.3c-0.3,0.5-0.6,1-0.9,1.6c-0.1-0.2-0.2-0.3-0.2-0.3c-0.1-0.1-0.1-0.2-0.2-0.3c0-0.1-0.1-0.2-0.2-0.4
			c-0.3-0.4-0.6-0.8-0.9-1.2c0.1,0.1,0.2,0.2,0.3,0.3c0.2,0.2,0.9,0.7,0.5,0c-0.2-0.3-0.6-0.9-0.9-1.4c0-0.1,0-0.2,0-0.4
			c0.1,0.1,0.2,0.3,0.4,0.5c0.1,0.1,1.2,1.1,0.9,0.6c-0.4-0.8-0.9-1.7-1.4-2.3c0,0,0,0,0,0c0.3,0.3,0.5,0.6,0.8,0.9
			c0.3,0.4,0.9,0.6,0.3-0.2c-0.1-0.1-0.1-0.1-0.2-0.2c0,0,0-0.1-0.1-0.3c-0.3-0.5-0.6-1-0.8-1.4c0.3,0.3,0.9,0.8,0.6,0.2
			c-0.1-0.1-0.2-0.2-0.3-0.4c0,0,0,0,0,0c-0.2-0.2-0.3-0.4-0.5-0.6c0.3,0.2,0.6,0.5,0.5,0.2c-0.2-0.6-0.5-1.1-0.8-1.7
			c0-0.1-0.1-0.2-0.1-0.2c0,0,0,0,0-0.1c0.1,0.1,0.2,0.3,0.3,0.4c0.1,0.2,1.1,1.2,0.9,0.7c-0.1-0.3-0.3-0.5-0.4-0.8
			c0.3,0.4,0.8,0.8,0.7,0.4c-0.3-0.7-0.5-1.3-0.8-1.9c0-0.1-0.1-0.2-0.2-0.4c-0.1-0.2-0.3-0.4-0.5-0.6c0,0,0,0,0-0.1
			c0-0.3-0.2-0.6-0.4-0.7c-0.2-0.2-0.5-0.5-0.7-0.7c-0.2-0.4-0.6-0.3-0.8,0.1c-0.3,0.2-0.6,0.6-0.7,0.8c-0.1,0.2-0.2,0.4-0.3,0.6
			c-0.2,0.2-0.4,0.5-0.5,0.6c-0.1,0.2-0.1,0.3-0.2,0.4c-0.3,0.6-0.6,1.3-0.8,1.9c-0.1,0.4,0.3,0,0.7-0.4c-0.1,0.3-0.3,0.5-0.4,0.8
			c-0.2,0.4,0.8-0.6,0.9-0.7c0.1-0.2,0.3-0.4,0.4-0.6c0,0,0,0.1,0,0.1c-0.1,0.1-0.2,0.2-0.3,0.4c-0.2,0.6-0.5,1.1-0.8,1.7
			c-0.1,0.3,0.2,0,0.5-0.2c-0.2,0.2-0.3,0.4-0.5,0.6c0,0,0,0,0,0c-0.1,0.2-0.2,0.3-0.3,0.4c-0.4,0.6,0.2,0.1,0.6-0.2
			c-0.3,0.5-0.6,0.9-0.8,1.4c-0.1,0.2-0.1,0.2-0.1,0.3c-0.1,0.1-0.1,0.1-0.2,0.2c-0.6,0.8,0,0.6,0.3,0.2c0.3-0.3,0.5-0.6,0.8-0.9
			c0,0,0,0,0,0c-0.5,0.6-1,1.4-1.4,2.3c-0.3,0.5,0.8-0.5,0.9-0.6c0.1-0.1,0.1-0.2,0.2-0.3c0,0.2-0.1,0.4-0.1,0.5
			c-0.2,0.4-0.5,0.8-0.6,1c-0.4,0.7,0.2,0.2,0.4,0c0,0.1,0,0.1,0,0.2c-0.2,0.2-0.3,0.5-0.5,0.7c-0.1-0.1-0.3-0.1-0.4-0.2
			c-0.1-0.3-0.3-0.7-0.5-1c-0.1-0.3-0.2-0.6-0.4-0.9c0,0.1,0.1,0.1,0.1,0.2c0.3,0.4,0.3,0.4,0.3,0.2c0,0.1,0.1,0.1,0.1,0.2
			c0.2,0.3,0.3,0.2,0.2-0.2c-0.2-0.5-0.4-1-0.7-1.3c0,0,0,0,0,0c0-0.1,0-0.1-0.1-0.2c0.3,0.2,0.5,0.5,0.8,0.7
			c0.1,0.1,0.2,0.1,0.1-0.1c-0.1-0.6-0.4-1.1-0.7-1.6c0-0.2-0.5-1.4-0.6-1.5c-0.3-0.4-0.6-0.7-0.8-1.1c0.1,0.1,0.3,0.3,0.4,0.4
			c0.2,0.2,0.3,0.4,0.5,0.6c0.1,0.1,0.1,0.1,0.2,0.2c0.3,0.3,0-0.5,0-0.6c0,0,0-0.1-0.1-0.1c0,0,0-0.2-0.1-0.4
			c0.1,0.2,0.2,0.3,0.4,0.5c0.5,0.6,0.1-0.5,0-0.7c-0.4-0.8-0.8-1.4-1.3-2c0,0,0-0.1,0-0.1c0,0,0,0,0,0c0,0.1,0.1,0.1,0.1,0.2
			c0.2,0.3,0.5,0.7,0.8,0.9c0.2,0.1-0.1-0.6-0.1-0.6c-0.1-0.3-0.3-0.6-0.5-0.9c-0.2-0.4-0.4-0.8-0.6-1.1c-0.3-0.4-0.7-0.8-1.1-1.1
			c-0.1-0.1-0.1-0.1-0.2-0.2c0,0-0.1-0.1-0.1-0.1c0,0-0.1-0.1-0.1-0.1c0-0.1,0-0.1,0-0.1c0,0,0,0,0,0c0-0.1-0.1,0-0.2,0.1
			c-0.1,0.1-0.1,0.1-0.2,0.2c-0.4,0.3-0.7,0.7-1.1,1.1c-0.2,0.3-0.4,0.7-0.6,1.1c-0.2,0.3-0.3,0.6-0.5,0.9c0,0-0.3,0.7-0.1,0.6
			c0.3-0.2,0.6-0.5,0.8-0.9c0-0.1,0.1-0.1,0.1-0.2c0,0,0,0,0,0c0,0.1,0,0.1,0,0.1c-0.4,0.6-0.9,1.3-1.3,2c0,0.1-0.2,0.4-0.2,0.6
			c0-0.2-0.5-1.1-0.6-1.2c-0.3-0.4-0.7-0.8-1-1.3c0,0,0,0,0-0.1c0.2,0.3,0.5,0.5,0.7,0.7c0.4,0.4,0.1-0.2,0-0.5
			c-0.5-0.8-0.9-1.4-1.5-2c0.5,0.5,0.9,1,1.4,1.5c0.6,0.6,0.3-0.2,0-0.6c-0.3-0.3-0.6-0.8-0.8-1.4c0.1,0.1,0.2,0.2,0.2,0.3
			c0.3,0.4,0.8,0.6,0.3-0.2c-0.2-0.4-0.6-1-0.9-1.4c-0.1-0.2-0.2-0.5-0.4-0.7c-0.1-0.1-0.3-0.5-0.6-0.8c-0.1-0.2-0.2-0.3-0.3-0.3
			c0-0.1,0-0.1-0.1-0.1c-0.1-0.1-0.1,0-0.1,0.1c-0.1,0-0.2,0.1-0.3,0.3c-0.3,0.3-0.6,0.7-0.6,0.8c-0.1,0.2-0.2,0.5-0.4,0.7
			c-0.3,0.5-0.6,1-0.9,1.4c-0.5,0.8,0,0.6,0.3,0.2c0.1-0.1,0.2-0.2,0.2-0.3c-0.2,0.6-0.4,1-0.8,1.4c-0.3,0.4-0.6,1.2,0,0.6
			c0.4-0.5,0.9-1,1.3-1.4l0,0c-0.5,0.6-0.9,1.1-1.4,1.9c-0.1,0.3-0.4,0.9,0,0.5c0.2-0.2,0.5-0.5,0.7-0.7c0,0,0,0,0,0.1
			c-0.3,0.5-0.6,0.9-1,1.3c-0.1,0.1-0.3,0.5-0.5,0.8c-0.2-0.4-0.6-1.3-0.7-1.4c-0.1-0.2-0.3-0.4-0.4-0.6c0-0.1,0-0.1,0-0.2
			c0.4,0.4,0.9,0.8,1.4,1.1c0.1,0.1,0-0.1,0-0.3c0,0,0.1,0,0.1,0.1c0.4,0.3-0.1-0.7-0.2-0.8c-0.4-0.7-0.8-1.3-1.3-1.9c0,0,0,0,0-0.1
			c-0.2-0.2-0.3-0.5-0.4-0.7c0.4,0.2,1.3,0.8,1.4,0.9c0.2,0.1,0-0.4,0-0.4c0,0,0,0,0,0c0.4,0.3-0.3-0.9-0.5-1.3
			c0.1,0.1,0.1,0.1,0.2,0.2c0.4,0.4-0.3-1.1-0.3-1.2c-0.8-1.2-1.3-2.9-2.3-3.8c0,0-0.1,0-0.1-0.1c0-0.1-0.1-0.1-0.2,0
			c-0.1,0.1-0.1,0.1-0.2,0.2c-0.1,0-0.2,0.1-0.2,0.2c-0.8,0.9-1.3,2.3-1.9,3.3c-0.1,0.1-0.8,1.5-0.3,1.2c0.1-0.1,0.1-0.1,0.2-0.2
			c-0.2,0.3-0.8,1.6-0.5,1.3c0,0,0,0,0,0c0,0-0.2,0.5,0,0.4c0.1-0.1,1-0.7,1.4-0.9c-0.1,0.2-0.3,0.5-0.4,0.7c0,0,0,0,0,0.1
			c-0.5,0.6-0.9,1.2-1.3,1.9c-0.1,0.1-0.6,1.1-0.2,0.8c0,0,0.1,0,0.1-0.1c-0.1,0.2-0.1,0.3,0,0.3c0.6-0.4,1.1-0.8,1.6-1.3
			c0,0,0,0.1-0.1,0.1c-0.2,0.3-0.4,0.6-0.6,0.9c-0.2,0.2-0.9,1.8-0.8,1.7c0.1,0,0.1-0.1,0.2-0.2c-0.1,0.2-0.3,0.3-0.4,0.5
			c-0.1,0.1-0.4,0.7-0.6,1.1c0-0.2-0.3-0.6-0.5-1c0,0-0.1-0.1-0.2-0.2v0c0.5,0.5-0.1-0.7-0.3-1.1c-0.1-0.1-0.2-0.3-0.4-0.4
			c0,0,0,0,0,0c0,0,0,0,0,0c-0.2-0.2-0.4-0.4-0.5-0.5c0,0,0,0,0,0c0.2,0.2,0.5,0.5,1,1c0.3,0.3,0.7,0.6,1,0.9
			c0.6,0.5-0.4-1.1-0.5-1.2c-0.4-0.4-0.7-0.9-1.1-1.4c0,0,0,0,0-0.1c0.3,0.3,0.5,0.5,0.8,0.8c0.4,0.4,0.2-0.3,0-0.5
			c-0.5-0.9-1-1.5-1.6-2.1c0.5,0.6,1,1.1,1.5,1.7c0.6,0.7,0.3-0.2,0-0.6c-0.4-0.4-0.6-0.9-0.8-1.5c0.1,0.1,0.2,0.2,0.3,0.4
			c0.4,0.4,0.9,0.7,0.3-0.2c-0.3-0.5-0.6-1.1-1-1.6c-0.1-0.3-0.3-0.5-0.4-0.8c-0.1-0.2-0.4-0.5-0.7-0.8c-0.1-0.2-0.2-0.3-0.3-0.4
			c0-0.1,0-0.1-0.1-0.1c-0.1-0.1-0.1-0.1-0.1,0.1c-0.1,0-0.2,0.1-0.3,0.3c-0.3,0.3-0.6,0.7-0.7,0.9c-0.1,0.3-0.3,0.5-0.4,0.8
			c-0.4,0.5-0.7,1.1-1,1.6c-0.5,0.9,0,0.6,0.3,0.2c0.1-0.1,0.2-0.2,0.3-0.4c-0.2,0.6-0.5,1.1-0.8,1.5c-0.3,0.5-0.6,1.3,0,0.6
			c0.5-0.5,0.9-1,1.4-1.6c0,0,0,0,0,0c-0.6,0.6-1,1.2-1.5,2c-0.2,0.3-0.4,0.9,0,0.5c0.3-0.3,0.5-0.5,0.8-0.8c0,0,0,0,0,0.1
			c-0.3,0.5-0.7,1-1.1,1.4c-0.1,0.2-1.1,1.8-0.5,1.2c0.3-0.3,0.7-0.6,1-0.9c0.3-0.3,0.6-0.6,0.7-0.7c0,0,0,0,0,0
			c-0.1,0.1-0.2,0.2-0.3,0.3c0,0,0,0,0,0c0,0,0,0,0,0c-0.1,0.1-0.3,0.3-0.4,0.4c-0.3,0.4-0.8,1.5-0.3,1.1v0
			c-0.1,0.1-0.1,0.2-0.2,0.2c-0.5,0.7-0.9,1.7,0,0.7c0.2-0.1,0.3-0.3,0.5-0.4c-0.3,0.5-0.6,0.9-0.9,1.3c0,0.1-0.2,0.2-0.3,0.4
			c0,0,0-0.1-0.1-0.1c-0.2-0.3-0.6-0.9-0.9-1.4c0-0.1,0-0.2,0-0.3c0.1,0.1,0.2,0.3,0.4,0.5c0.1,0.1,1.1,1.1,0.9,0.6
			c-0.4-0.8-0.8-1.6-1.4-2.2c0,0,0,0,0,0c0.3,0.3,0.5,0.6,0.8,0.8c0.3,0.4,0.9,0.6,0.3-0.2c0-0.1-0.1-0.1-0.1-0.2c0,0,0-0.1-0.1-0.3
			c-0.3-0.5-0.5-0.9-0.8-1.4c0.3,0.3,0.9,0.8,0.5,0.2c0-0.1-0.2-0.2-0.3-0.4c0,0,0,0,0,0c-0.2-0.2-0.3-0.4-0.5-0.6
			c0.2,0.2,0.6,0.5,0.5,0.2c-0.2-0.6-0.5-1.1-0.7-1.7c0-0.1-0.1-0.1-0.1-0.2c0,0,0,0,0-0.1c0.1,0.1,0.2,0.2,0.3,0.4
			c0.1,0.2,1.1,1.1,0.9,0.7c-0.1-0.3-0.2-0.5-0.4-0.8c0.3,0.3,0.8,0.7,0.6,0.4c-0.2-0.7-0.5-1.3-0.8-1.9c0-0.1-0.1-0.2-0.2-0.4
			c-0.1-0.2-0.3-0.4-0.5-0.6c0,0,0,0,0-0.1c0-0.3-0.2-0.6-0.4-0.7c-0.2-0.2-0.5-0.5-0.7-0.7c-0.2-0.4-0.6-0.3-0.8,0.1
			c-0.3,0.2-0.5,0.6-0.6,0.7c-0.1,0.2-0.2,0.4-0.3,0.6c-0.2,0.2-0.4,0.5-0.5,0.6c-0.1,0.2-0.1,0.3-0.2,0.4c-0.3,0.6-0.5,1.2-0.8,1.9
			c-0.1,0.3,0.3,0,0.6-0.4c-0.1,0.3-0.3,0.5-0.4,0.8c-0.2,0.4,0.8-0.5,0.9-0.7c0.1-0.2,0.3-0.4,0.4-0.6c0,0,0,0.1,0,0.1
			c-0.1,0.1-0.2,0.2-0.2,0.4c-0.2,0.6-0.5,1.1-0.7,1.7c-0.1,0.3,0.2,0,0.5-0.2c-0.2,0.2-0.3,0.4-0.5,0.6c0,0,0,0,0,0
			c-0.1,0.2-0.2,0.3-0.3,0.4c-0.4,0.6,0.2,0.1,0.5-0.2c-0.3,0.5-0.6,0.9-0.8,1.4c-0.1,0.2-0.1,0.2-0.1,0.3c-0.1,0.1-0.1,0.1-0.1,0.2
			c-0.5,0.8,0,0.5,0.3,0.2c0.3-0.3,0.5-0.6,0.8-0.9c0,0,0,0,0,0c-0.5,0.6-0.9,1.4-1.4,2.2c-0.2,0.5,0.8-0.5,0.9-0.6
			c0.1-0.1,0.1-0.2,0.2-0.3c0,0.2-0.1,0.3-0.1,0.5c-0.2,0.4-0.5,0.7-0.6,1c-0.4,0.7,0.2,0.2,0.4,0c0,0.1,0,0.1,0,0.1
			c-0.2,0.2-0.3,0.5-0.5,0.7c-0.1,0.2-0.2,0.3-0.2,0.4c0,0.1-0.1,0.1-0.2,0.2c-0.1-0.2-0.2-0.3-0.3-0.4c0-0.2-0.5-1.4-0.6-1.6
			c-0.3-0.4-0.6-0.8-0.9-1.1c0.1,0.1,0.3,0.3,0.4,0.5c0.2,0.2,0.3,0.4,0.5,0.6c0.1,0.1,0.1,0.1,0.2,0.2c0.3,0.3,0-0.5,0-0.6
			c0,0,0-0.1-0.1-0.1c0,0,0-0.2-0.1-0.4c0.1,0.2,0.2,0.4,0.4,0.5c0.5,0.6,0.1-0.5,0-0.7c-0.4-0.8-0.8-1.4-1.3-2.1c0,0,0-0.1,0-0.1
			c0,0,0,0,0,0c0,0.1,0.1,0.1,0.1,0.2c0.2,0.3,0.5,0.7,0.8,0.9c0.2,0.1-0.1-0.6-0.1-0.6c-0.1-0.3-0.3-0.6-0.5-0.9
			c-0.2-0.4-0.4-0.8-0.6-1.1c-0.3-0.4-0.7-0.8-1.1-1.1c-0.1-0.1-0.1-0.1-0.2-0.2c0,0-0.1-0.1-0.1-0.1c0,0-0.1-0.1-0.1-0.1
			c0-0.1,0-0.1,0-0.1c0,0,0,0,0,0c0-0.1-0.1,0-0.2,0.1c-0.1,0.1-0.1,0.1-0.2,0.2c-0.4,0.3-0.7,0.7-1.1,1.1c-0.2,0.3-0.5,0.7-0.6,1.1
			c-0.2,0.3-0.3,0.6-0.5,0.9c0,0-0.3,0.8-0.1,0.6c0.3-0.2,0.6-0.5,0.8-0.9c0-0.1,0.1-0.1,0.1-0.2c0,0,0,0,0,0c0,0.1,0,0.1,0,0.1
			c-0.4,0.7-0.9,1.3-1.3,2.1c-0.1,0.2-0.5,1.3,0,0.7c0.1-0.2,0.3-0.3,0.4-0.5c-0.1,0.2-0.1,0.4-0.1,0.4c0,0,0,0.1-0.1,0.1
			c0,0.1-0.3,0.9,0,0.6c0.1-0.1,0.1-0.1,0.2-0.2c0.2-0.2,0.4-0.4,0.5-0.6c0.1-0.2,0.3-0.3,0.4-0.4c-0.3,0.4-0.6,0.8-0.9,1.1
			c-0.1,0.2-0.7,1.4-0.6,1.6c-0.3,0.4-0.5,0.9-0.7,1.5c-0.4-0.7-0.9-1.3-1.3-2c-0.9-1.4,0.7,0.4,1.1,0.7c0.4,0.3,0.2-0.2,0-0.4
			c-0.7-0.9-1.4-2.4-2.2-3.1c0,0,0.3,0.2,0.2,0c-0.1-0.3-0.2-0.5-0.4-0.8c0.1,0,0.1,0.1,0.2,0.1c0.1,0,0-0.1,0-0.1
			c-0.2-0.4-0.4-0.6-0.6-0.8c-0.1-0.1-0.2-0.2-0.3-0.2c-0.1,0-0.2-0.1-0.2-0.1c0,0,0,0,0,0c0,0,0,0,0,0c0,0-0.2,0.1-0.2,0.1
			c0,0,0,0-0.1,0c-0.3,0.3-0.5,0.5-0.8,1c0,0.1-0.1,0.2,0,0.1c0.1,0,0.1-0.1,0.2-0.1c-0.1,0.2-0.3,0.5-0.4,0.8
			c-0.1,0.2,0.1,0.1,0.2,0c0,0,0,0,0,0c-0.8,0.7-1.5,2.2-2.2,3.1c-0.2,0.2-0.4,0.7,0,0.4c0.3-0.2,1.3-1.3,1.4-1.2c0,0,0,0,0,0
			c0,0,0,0.2-0.3,0.5c-0.6,0.9-1.2,1.7-1.7,2.8c-0.1,0.2,0.6-0.3,0.7-0.3c0.3-0.3,0.7-0.6,1-1c0.2-0.2,0.3-0.3,0.3-0.3c0,0,0,0,0,0
			c-0.1,0.1-0.2,0.3-0.4,0.5c-0.4,0.5-0.9,1-1.3,1.5c-0.1,0.2-0.2,0.3-0.2,0.4c-0.3,0.4-0.9,1.3-0.3,0.8c0.1-0.1,0.3-0.2,0.5-0.3
			c-0.3,0.3-0.5,0.6-0.8,0.8c-0.2,0.2-0.9,1.3-0.2,0.8c0.4-0.3,0.7-0.5,1.1-0.9c-0.4,0.5-0.9,1.1-1.3,1.6c0,0,0,0,0,0
			c0-0.1,0-0.1-0.1-0.1c-0.4-0.8-1-1.5-1.5-2.2c0,0,0-0.1,0-0.1c-0.2-0.3-0.4-0.6-0.5-0.8c0.5,0.2,1.5,0.9,1.7,1
			c0.2,0.1,0-0.5,0-0.5c0,0,0,0,0,0c0.5,0.4-0.3-1.1-0.5-1.5c0.1,0.1,0.2,0.2,0.2,0.2c0.5,0.4-0.3-1.3-0.4-1.4
			c-0.9-1.5-1.5-3.5-2.8-4.5c0,0-0.1,0-0.1-0.1c0-0.1-0.1-0.1-0.2,0c-0.1,0.1-0.2,0.2-0.2,0.2c-0.1,0-0.2,0.1-0.3,0.3
			c-0.9,1.1-1.5,2.7-2.3,4c-0.1,0.1-0.9,1.8-0.4,1.4c0.1-0.1,0.2-0.1,0.2-0.2c-0.2,0.4-1,1.9-0.5,1.5c0,0,0,0,0,0c0,0-0.2,0.6,0,0.5
			c0.2-0.1,1.2-0.8,1.7-1c-0.2,0.3-0.3,0.6-0.5,0.8c0,0,0,0,0,0.1c-0.6,0.7-1.1,1.4-1.5,2.2c0,0,0,0,0,0c0-0.1-0.1-0.3-0.2-0.4
			c-0.5-0.8-0.9-1.4-1.5-2c0.5,0.5,0.9,1,1.4,1.5c0.6,0.6,0.3-0.2,0-0.6c-0.3-0.3-0.6-0.8-0.8-1.4c0.1,0.1,0.2,0.2,0.2,0.3
			c0.3,0.4,0.8,0.6,0.3-0.2c-0.2-0.4-0.6-1-0.9-1.4c-0.1-0.2-0.2-0.5-0.4-0.7c-0.1-0.1-0.3-0.5-0.6-0.8c-0.1-0.2-0.2-0.3-0.3-0.3
			c0-0.1,0-0.1-0.1-0.1c-0.1-0.1-0.1,0-0.1,0.1c-0.1,0-0.2,0.1-0.3,0.3c-0.3,0.3-0.6,0.7-0.6,0.8c-0.1,0.2-0.2,0.5-0.4,0.7
			c-0.3,0.5-0.6,1-0.9,1.4c-0.5,0.8,0,0.6,0.3,0.2c0.1-0.1,0.2-0.2,0.2-0.3c-0.2,0.6-0.4,1.1-0.8,1.4c-0.3,0.4-0.6,1.2,0,0.6
			c0.4-0.5,0.9-1,1.3-1.4c0,0,0,0,0,0c-0.5,0.6-0.9,1.1-1.4,1.9c-0.1,0.3-0.4,0.9,0,0.5c0.2-0.2,0.5-0.5,0.7-0.7c0,0,0,0,0,0
			c-0.3,0.5-0.6,0.9-1,1.3c-0.1,0.1-0.5,0.8-0.6,1.1c-0.2-0.6-0.4-1.1-0.7-1.6c0-0.1-0.1-0.2-0.2-0.4c-0.1-0.1-0.3-0.4-0.5-0.6
			c0,0,0,0,0-0.1c0-0.3-0.2-0.5-0.3-0.6c-0.1-0.2-0.4-0.5-0.6-0.7c-0.2-0.4-0.5-0.3-0.7,0.1c-0.2,0.2-0.5,0.5-0.6,0.7
			c-0.1,0.2-0.2,0.4-0.3,0.6c-0.2,0.2-0.4,0.4-0.5,0.6c-0.1,0.1-0.1,0.3-0.2,0.4c-0.3,0.6-0.5,1.1-0.7,1.7c-0.1,0.3,0.3,0,0.6-0.4
			c-0.1,0.2-0.2,0.5-0.3,0.7c-0.2,0.4,0.7-0.5,0.8-0.6c0.1-0.2,0.2-0.3,0.4-0.5c0,0,0,0,0,0.1c-0.1,0.1-0.1,0.2-0.2,0.3
			c-0.2,0.5-0.5,1-0.7,1.5c-0.1,0.3,0.2,0,0.4-0.2c-0.1,0.2-0.3,0.4-0.4,0.6c0,0,0,0,0,0c-0.1,0.2-0.2,0.3-0.3,0.4
			c-0.3,0.5,0.2,0.1,0.5-0.2c-0.2,0.4-0.5,0.8-0.7,1.3c-0.1,0.1-0.1,0.2-0.1,0.3c0,0.1-0.1,0.1-0.1,0.2c-0.5,0.7,0,0.5,0.3,0.2
			c0.3-0.3,0.5-0.5,0.7-0.8c0,0,0,0,0,0c-0.5,0.5-0.8,1.3-1.2,2c-0.2,0.4,0.7-0.4,0.8-0.6C72,55,72,55,72.1,54.9
			c0,0.2-0.1,0.3-0.1,0.5c-0.2,0.3-0.4,0.7-0.6,0.9c-0.4,0.6,0.2,0.2,0.4,0c0,0,0,0.1,0,0.1c-0.2,0.2-0.3,0.4-0.5,0.7
			c-0.1,0.2-0.2,0.3-0.2,0.4c-0.1,0.1-0.1,0.1-0.2,0.2c0,0.1-0.4,0.8-0.1,0.6c0.3-0.2,0.5-0.4,0.7-0.6c0,0.1,0,0.1,0,0.2
			c-0.2,0.3-0.4,0.6-0.5,0.7c-0.5,0.8,0,0.4,0.3,0.1c0,0.1-0.1,0.3-0.1,0.4c-0.1,0.1-0.1,0.2-0.2,0.3c-0.4,0.6-0.2,0.5,0.1,0.3
			c0,0.1,0,0.1,0,0.2c-0.2,0.3-0.4,0.7-0.6,1.1c-0.1,0.2,0,0.2,0.2,0c-0.3,0.4-0.5,1-0.1,0.6c-0.2,0.4-0.6,1-0.3,0.8
			c0,0-0.1,0.1-0.1,0.1h0.3c0.1-0.2,0.3-0.3,0.4-0.5c0,0,0,0.1,0,0.1c0,0.1-0.1,0.1-0.1,0.2c0,0.1-0.1,0.1-0.1,0.2h109.9
			c-0.1-0.1-0.1-0.2-0.2-0.2c0,0,0,0,0-0.1c0-0.1,0-0.1,0-0.2c0.1,0.2,0.3,0.3,0.4,0.5c0,0,0,0,0,0h0.4c0,0-0.1-0.1-0.1-0.2
			c-0.3-0.4-0.5-0.7-0.8-1c0-0.1,0-0.1,0-0.1c0.4,0.4,0.8,0.9,1.1,1.3h0.3c0,0,0-0.1-0.1-0.1C182.1,62.4,181.8,61.8,181.5,61.4z
			 M78.5,49.3c-0.1,0.1-0.2,0.2-0.2,0.3c0,0,0,0,0,0c0,0,0,0,0,0c-0.1,0.1-0.2,0.3-0.3,0.4c-0.2,0.3-0.8,1.4-0.3,1v0
			c-0.1,0.1-0.1,0.2-0.2,0.2c-0.5,0.6-0.8,1.6,0,0.7c0.2-0.1,0.3-0.2,0.5-0.4c-0.3,0.4-0.6,0.9-0.9,1.2c-0.1,0.1-0.3,0.4-0.4,0.7
			c-0.2-0.3-0.4-0.6-0.5-0.9c0.3,0.3,0.8,0.7,0.5,0.2c0-0.1-0.1-0.2-0.3-0.4c0,0,0,0,0,0c-0.1-0.2-0.3-0.4-0.4-0.6
			c0.2,0.2,0.5,0.5,0.4,0.2c-0.2-0.5-0.5-1-0.7-1.5c0-0.1-0.1-0.1-0.1-0.2c0,0,0,0,0-0.1c0.1,0.1,0.2,0.2,0.2,0.3
			c0.1,0.1,1,1,0.8,0.6c-0.1-0.2-0.2-0.5-0.3-0.7c0.3,0.3,0.7,0.6,0.6,0.4c0,0,0.1,0,0.1-0.1c0.3-0.3,0.6-0.6,0.9-0.9
			C78.1,49.7,78.3,49.4,78.5,49.3C78.5,49.3,78.5,49.3,78.5,49.3z M82.9,49.1c0,0,0.1,0.1,0.1,0.1c0,0.1-0.1,0.1-0.1,0.2
			c-0.2-0.3-0.5-0.6-0.7-0.9c0,0,0,0,0,0C82.4,48.6,82.6,48.9,82.9,49.1z M83,52.1c-0.1-0.2-0.3-0.4-0.4-0.6
			c0.2,0.1,0.3,0.2,0.5,0.4c0,0,0,0,0,0c0,0,0,0.1,0,0c0,0,0,0,0,0c0,0,0,0,0,0C83.1,52,83.1,52,83,52.1z M83.3,51.5
			c-0.1-0.1-0.1-0.2-0.2-0.3c0,0-0.1-0.1-0.2-0.2v0c0.5,0.5-0.1-0.7-0.3-1c-0.1-0.1-0.2-0.3-0.3-0.4c0,0,0,0,0,0c0,0,0,0,0,0
			c-0.2-0.2-0.3-0.4-0.5-0.5c0,0,0,0,0,0c0.2,0.2,0.4,0.4,0.9,0.9c0,0.1,0,0.1,0.1,0.1c0,0,0.1,0.1,0.1,0.1c0,0.1,0,0.1,0,0.1
			c0,0,0,0,0,0c0.2,0.2,0.4,0.4,0.6,0.6C83.5,51,83.4,51.3,83.3,51.5z M84.8,48.8c-0.2,0.3-0.5,0.7-0.7,1c-0.1,0.1-0.2,0.4-0.4,0.7
			c-0.1-0.2-0.2-0.4-0.3-0.6c0.5-0.4,1-0.8,1.5-1.3C84.8,48.7,84.8,48.8,84.8,48.8z M92.6,48.5C92.6,48.5,92.6,48.5,92.6,48.5
			c-0.3,0.4-0.7,0.8-1,1.3c0-0.1,0-0.1-0.1-0.2C91.8,49.3,92.2,48.8,92.6,48.5z M89.8,49.2c0-0.1,0-0.1,0-0.2c0.3,0.3,0.7,0.6,1,0.9
			c-0.2,0.3-0.1,0.5,0.2,0.2c0.1,0.1,0.2,0.1,0.3,0.2c0,0,0,0,0,0c-0.2,0.3-0.5,0.8,0,0.5c0.2-0.1,0.7-0.4,1.2-0.7
			c-0.2,0.2-0.4,0.4-0.6,0.5c-0.2,0.2-0.6,0.7-0.8,1c-0.2-0.5-0.7-1.5-0.8-1.7C90.1,49.7,89.9,49.4,89.8,49.2z M92.2,51.8
			c0,0-0.1,0.1-0.2,0.3c-0.2,0.1-0.4,0.1-0.7,0.2c-0.1-0.2-0.3-0.3-0.4-0.5c0,0,0.1,0,0.1,0.1c0,0,0,0,0,0c0,0,0.1,0.1,0.1,0.1
			c0,0,0,0,0-0.1c0.1,0,0.2-0.1,0.3-0.2c0.1-0.1,0.3-0.2,0.4-0.3c-0.2,0.3-0.6,0.9-0.1,0.5c0.6-0.4,1-0.8,1.5-1.3c0,0,0,0,0,0
			C92.9,51,92.6,51.4,92.2,51.8z M99.6,45.9c-0.4-0.6-0.8-1.1-1.3-1.5c-0.4-0.5-0.7-0.9,0-0.2c0.3,0.3,0.7,0.7,1,1
			c0,0,0.3,0.2,0.5,0.3C99.8,45.5,99.7,45.7,99.6,45.9C99.6,45.8,99.6,45.8,99.6,45.9z M100,46.3c0,0,0,0.1-0.1,0.1
			c0,0-0.1-0.1-0.1-0.1c0,0-0.1-0.1-0.1-0.2c0,0,0,0,0.1-0.1c0-0.1,0.1-0.1,0.1-0.2c0,0.1,0,0.1,0.3-0.2c0,0,0,0.1,0,0.1
			C100.2,45.9,100.1,46.1,100,46.3z M100.4,44.4C100.4,44.4,100.4,44.4,100.4,44.4c-0.2,0.3-0.4,0.6-0.5,0.9
			c-0.1-0.1-0.1-0.3-0.2-0.4c0.3-0.2,0.5-0.5,0.8-0.7C100.4,44.3,100.4,44.3,100.4,44.4z M107.1,44.7c-0.1,0.1-0.1,0.2-0.1,0.2
			c-0.1-0.1-0.1-0.2-0.2-0.3c0,0,0,0,0,0c0-0.1,0-0.1-0.1-0.2C106.8,44.4,106.9,44.5,107.1,44.7z M107.1,46.2
			c-0.1-0.1-0.1-0.2-0.2-0.3c-0.1-0.2-0.1-0.3-0.2-0.5c0,0.1,0.1,0.1,0.1,0.2c0.1,0.1,0.1,0.1,0.1,0.2c0,0.1,0,0.1,0.1,0.1
			c0.1,0.1,0.1,0.1,0.1,0c0,0,0.1,0.1,0.1,0.1C107.2,46.1,107.1,46.2,107.1,46.2z M107.4,45.2c-0.1,0.1-0.1,0.2-0.2,0.3
			c-0.1-0.1-0.1-0.3-0.2-0.4c0.1,0,0.2-0.1,0.3-0.2c0,0,0.1,0.1,0.1,0.1c0,0,0,0,0,0C107.4,45,107.4,45.1,107.4,45.2z M107.7,43.8
			c-0.1,0.2-0.2,0.3-0.3,0.4c0-0.1,0-0.1-0.1-0.2c0.2-0.1,0.3-0.3,0.5-0.4C107.7,43.7,107.7,43.8,107.7,43.8z M113.4,43.6
			c-0.1-0.2-0.3-0.4-0.4-0.5l0-0.1c0.1,0.1,0.2,0.3,0.4,0.5C113.4,43.4,113.4,43.5,113.4,43.6C113.4,43.5,113.4,43.6,113.4,43.6z
			 M113.5,42.7c-0.2-0.3-0.4-0.5-0.6-0.8c0.1,0.1,0.2,0.2,0.3,0.3c0.1,0.1,0.3,0.2,0.4,0.3C113.6,42.6,113.6,42.6,113.5,42.7z
			 M120.9,41.6c-0.3-0.4-0.5-0.7-0.8-1.1c0.2,0.1,0.3,0.3,0.5,0.4c0.2,0.3,0.4,0.4,0.4,0.4C121,41.4,120.9,41.6,120.9,41.6z
			 M128.3,42.4c-0.1-0.2-0.3-0.4-0.4-0.6c0.2,0.1,0.4,0.3,0.6,0.4C128.4,42.2,128.4,42.3,128.3,42.4z M130.2,38.3
			c-0.1,0.1-0.2,0.2-0.2,0.3c0,0,0,0,0,0c0,0,0,0,0,0c-0.1,0.1-0.2,0.3-0.3,0.4c-0.2,0.3-0.8,1.4-0.3,1v0c-0.1,0.1-0.1,0.2-0.2,0.2
			c0,0-0.1,0.1-0.1,0.1c-0.1-0.1-0.1-0.2-0.1-0.2c-0.1-0.1-0.2-0.2-0.3-0.3c0,0,0,0,0,0c0,0,0,0,0,0c0,0,0,0,0,0
			c0.3-0.3,0.6-0.5,0.8-0.8C129.9,38.6,130.1,38.4,130.2,38.3C130.2,38.2,130.2,38.2,130.2,38.3z M136.2,40.3
			c-0.1,0.2-0.7,1.4-0.6,1.5c0,0-0.1,0.1-0.1,0.1c-0.1-0.2-0.2-0.3-0.2-0.3c-0.3-0.4-0.6-0.8-0.9-1.2c0.2,0.1,0.3,0.2,0.5,0.4
			c0.8,0.9,0.5,0,0-0.7c0,0-0.1-0.1-0.2-0.2v0c0.5,0.5-0.1-0.7-0.3-1c-0.1-0.1-0.2-0.3-0.3-0.4v0c0,0,0,0,0,0
			c-0.2-0.2-0.3-0.4-0.5-0.5c0,0,0,0,0,0c0.2,0.2,0.4,0.4,0.9,0.9c0.3,0.3,0.6,0.6,0.9,0.9c0.1,0.1,0.1,0.1,0.2,0.1
			c-0.1,0.2,0,0.4,0.2,0c0.1-0.2,0.2-0.3,0.4-0.5c-0.1,0.2-0.1,0.4-0.1,0.4c0,0,0,0.1-0.1,0.1c0,0.1-0.3,0.9,0,0.6
			c0.1-0.1,0.1-0.1,0.2-0.2c0.2-0.2,0.4-0.4,0.5-0.6c0.1-0.2,0.3-0.3,0.4-0.4C136.7,39.6,136.4,40,136.2,40.3z M148.7,46.1
			c0.1,0.2,0.3,0.3,0.4,0.5c0.3,0.4,0.6,0.7,1,0.9c0,0.1-0.1,0.1-0.1,0.2c0,0,0,0.1-0.1,0.1c0,0,0,0,0,0c-0.1-0.2-0.7-1-1.2-1.6
			C148.7,46.2,148.7,46.1,148.7,46.1z M149,47.5c-0.1-0.1-0.2-0.3-0.2-0.4c0,0,0-0.1,0-0.1c0.1,0.1,0.3,0.4,0.6,0.8
			c0.1,0.1,0.2,0.2,0.3,0.3c-0.1,0.1-0.1,0.2-0.1,0.2C149.4,48,149.2,47.8,149,47.5z M150.7,49.4c0,0,0,0.1-0.1,0.1
			c-0.1,0-0.3,0-0.4,0c0.2-0.2,0.4-0.3,0.4-0.4c0.1-0.1,0.2-0.2,0.2-0.3C150.8,49,150.7,49.2,150.7,49.4z M151.1,47.2
			c-0.4,0.5-0.8,1.1-1.1,1.7c0-0.1-0.1-0.1-0.1-0.2c0-0.1-0.1-0.1-0.1-0.2c0.1,0,0.2-0.1,0.3-0.2c0.1,0,0.1,0,0.1-0.1c0,0,0,0,0,0
			C150.6,47.8,150.8,47.5,151.1,47.2C151.2,47.1,151.1,47.2,151.1,47.2z M156.8,46.3c-0.1,0.2-0.1,0.3-0.2,0.5
			c-0.2-0.3-0.4-0.7-0.6-1C156.3,45.9,156.7,46.3,156.8,46.3z M156.5,49.4c-0.1-0.2-0.2-0.4-0.3-0.6c0-0.1,0-0.3,0-0.4
			c0.1,0.2,0.3,0.3,0.4,0.6c0,0,0.1,0.1,0.1,0.1C156.6,49.3,156.5,49.4,156.5,49.4z M156.7,48.2c0,0,0.1-0.1,0.1-0.1
			c0,0,0,0,0.1,0.1c0.1,0.1,0.2,0.2,0.3,0.3c-0.1,0.1-0.1,0.2-0.2,0.3C156.9,48.5,156.8,48.3,156.7,48.2z M157.5,49.9
			c-0.1,0.2-0.3,0.4-0.4,0.6h0c0-0.1-0.1-0.1-0.1-0.2C157.2,50.2,157.3,50.1,157.5,49.9C157.5,49.9,157.5,49.9,157.5,49.9
			C157.5,49.9,157.5,49.9,157.5,49.9z M157.4,48.2C157.4,48.2,157.4,48.2,157.4,48.2c0-0.1-0.1-0.1-0.2-0.2c0,0,0-0.1-0.1-0.1
			c0.2-0.2,0.5-0.3,0.7-0.4C157.7,47.7,157.6,47.9,157.4,48.2z M162.6,51.2C162.6,51.2,162.6,51.2,162.6,51.2c-0.1,0-0.2,0-0.3,0
			c-0.1-0.2-0.1-0.3-0.2-0.3c-0.1-0.2-0.3-0.4-0.4-0.6c0-0.1,0-0.1,0-0.2c0.2,0.2,0.4,0.3,0.6,0.5l0,0c-0.1,0.2,0,0.1,0.1,0.1
			c0.1,0.1,0.2,0.2,0.4,0.3C162.7,51,162.6,51.1,162.6,51.2z M163.2,50.3C163.1,50.3,163.1,50.3,163.2,50.3c-0.1,0-0.1-0.1-0.2-0.1
			c0,0,0.1-0.1,0.1-0.1c0.1-0.1,0.1-0.2,0.2-0.2C163.2,50,163.2,50.1,163.2,50.3z M163.5,48.6c-0.3,0.3-0.5,0.7-0.8,1.1
			c0-0.1-0.1-0.1-0.1-0.2c0.1,0,0.1-0.1,0.2-0.2C163.1,49.1,163.3,48.8,163.5,48.6C163.5,48.6,163.5,48.6,163.5,48.6z M167.8,52.3
			c0,0.1,0.1,0.1,0.1,0.2c0,0,0,0.1,0,0.1c-0.1-0.2-0.3-0.4-0.4-0.6c0,0,0-0.1,0-0.1C167.6,52,167.7,52.1,167.8,52.3z M175.5,50.9
			C175.5,50.9,175.5,50.9,175.5,50.9c0.1,0,0.1,0,0.1,0C175.6,51,175.6,50.9,175.5,50.9c0.2-0.2,0.3-0.3,0.4-0.4
			c-0.1,0.2-0.2,0.4-0.3,0.6C175.6,51.1,175.5,51,175.5,50.9z M176.7,50.2c-0.1,0.1-0.1,0.2-0.2,0.3c-0.2,0.4-0.3,0.7-0.5,1.1
			c-0.1-0.2-0.2-0.3-0.2-0.3c0,0,0,0,0-0.1c0.2-0.2,0.6-0.5,0.6-0.6C176.5,50.5,176.6,50.3,176.7,50.2
			C176.7,50.1,176.7,50.2,176.7,50.2z"/>
		<path class="st1" d="M84.8,41.7C84.8,41.7,84.8,41.7,84.8,41.7C84.8,41.7,84.8,41.7,84.8,41.7z"/>
	</g>
	<line class="st2" x1="70.2" y1="70" x2="115.4" y2="70"/>
	<line class="st2" x1="136.5" y1="70" x2="182" y2="70"/>
</g>
<g>
	<path class="st4" d="M15.4,128.2c0.1,0,0.2,0.1,0.2,0.2c0,0.1-0.1,0.2-0.2,0.2c0,0.1,0.1,0.2,0.1,0.3c0.2,0.3,0.7,0.5,1.3,0.5
		c1,0,1.6-0.7,1.6-1.5c0-0.7-0.4-1.1-1-1.3c-0.3-0.1-0.6-0.2-1-0.2h-0.1v-0.1h0.1c0.4,0,0.8-0.1,1-0.2c0.5-0.3,0.9-0.7,0.9-1.3
		c0-0.7-0.5-1.3-1.4-1.3c-0.6,0-1,0.2-1.3,0.6c-0.1,0.1-0.1,0.2-0.1,0.3c0.1,0,0.2,0.1,0.2,0.2c0,0.1-0.1,0.2-0.2,0.2
		c-0.1,0-0.2-0.1-0.2-0.2c0-0.1,0-0.3,0.2-0.5c0.3-0.4,0.7-0.7,1.4-0.7c1,0,1.6,0.7,1.6,1.4c0,0.6-0.4,1.1-1,1.4
		c-0.2,0.1-0.3,0.1-0.5,0.2c0.2,0,0.3,0.1,0.5,0.1c0.7,0.2,1.1,0.7,1.1,1.4c0,0.9-0.7,1.6-1.7,1.6c-0.7,0-1.2-0.2-1.5-0.6
		c-0.1-0.2-0.2-0.3-0.2-0.5C15.3,128.3,15.4,128.2,15.4,128.2z"/>
	<path class="st4" d="M22.1,127.6h-2.8l0,0l2.9-4l0.1,0.1l-2.8,3.9h2.6v-2l0.1,0v2h1.1v0.1h-1.1v1.9h-0.1V127.6z"/>
	<path class="st4" d="M24,128.2h1.1v-4.5l-1.1,0.3l0-0.1l1.2-0.4h0v4.7h1.1v0.1H24V128.2z"/>
	<path class="st4" d="M30.1,126.1v-4h-1V122h2.1v0.1h-1v4c0,1.4,0.7,2.2,1.9,2.2c1.3,0,1.9-0.8,1.9-2.2v-4h-1V122h2.1v0.1h-1v4
		c0,1.5-0.7,2.3-2,2.3C30.8,128.4,30.1,127.6,30.1,126.1z"/>
	<path class="st4" d="M35.5,128.2c0-0.1,0.1-0.2,0.2-0.2s0.2,0.1,0.2,0.2c0,0.1-0.1,0.2-0.2,0.2S35.5,128.3,35.5,128.2z"/>
	<path class="st4" d="M36.8,127.2c0-0.2,0.1-0.3,0.2-0.3c0.1,0,0.2,0.1,0.2,0.2c0,0.1-0.1,0.2-0.2,0.2c0.1,0.5,0.8,1,1.7,1
		c1.1,0,1.8-0.6,1.8-1.5c0-1-0.9-1.4-1.7-1.7c-0.8-0.3-1.7-0.7-1.7-1.8c0-0.9,0.8-1.5,1.8-1.5c1,0,1.7,0.6,1.7,1.1
		c0,0.2-0.1,0.2-0.2,0.2c-0.1,0-0.2-0.1-0.2-0.2c0-0.1,0.1-0.2,0.2-0.2c-0.1-0.5-0.7-0.9-1.5-0.9c-1,0-1.6,0.6-1.6,1.4
		c0,1,0.9,1.3,1.7,1.6c0.8,0.3,1.7,0.8,1.7,1.8c0,1-0.8,1.6-1.9,1.6C37.5,128.4,36.8,127.8,36.8,127.2z"/>
	<path class="st4" d="M41.5,128.2c0-0.1,0.1-0.2,0.2-0.2c0.1,0,0.2,0.1,0.2,0.2c0,0.1-0.1,0.2-0.2,0.2
		C41.5,128.4,41.5,128.3,41.5,128.2z"/>
	<path class="st4" d="M45,128.2h1.1v-4.5L45,124l0-0.1l1.2-0.4h0v4.7h1.1v0.1H45V128.2z"/>
	<path class="st4" d="M48,129.2c0.3-0.3,0.4-0.5,0.4-0.9c-0.1,0-0.2-0.1-0.2-0.2c0-0.1,0.1-0.2,0.2-0.2c0.1,0,0.2,0.1,0.2,0.3
		C48.5,128.7,48.3,129,48,129.2L48,129.2z"/>
	<path class="st4" d="M52.1,122.1h-0.9V122h2.1v0.1h-1l1.8,6.1l1.7-5.3h0.1l1.7,5.3l1.8-6.1h-1.1V122h2.1v0.1h-0.9l-1.9,6.3h-0.1
		l-1.7-5.3l-1.7,5.3h-0.1L52.1,122.1z"/>
	<path class="st4" d="M60.1,126.3L60.1,126.3c0,1.3,0.8,2,1.8,2c0.5,0,1-0.2,1.4-0.4l0,0.1c-0.3,0.2-0.8,0.4-1.4,0.4
		c-1.1,0-2-0.8-2-2c0-1.2,0.8-2,1.8-2c1.2,0,1.7,0.9,1.7,1.9c0,0,0,0.1,0,0.1H60.1z M60.1,126.2h3.3c0-0.9-0.5-1.7-1.6-1.7
		C60.9,124.5,60.2,125.2,60.1,126.2z"/>
	<path class="st4" d="M67,125.3c-0.1,0-0.2-0.1-0.2-0.2c0-0.1,0-0.1,0.1-0.2c0-0.1-0.1-0.1-0.1-0.2c-0.2-0.2-0.5-0.3-1-0.3
		c-0.7,0-1.2,0.4-1.2,0.9c0,0.5,0.5,0.7,1.3,0.9c0.8,0.2,1.4,0.4,1.4,1.1c0,0.6-0.6,1-1.4,1c-0.7,0-1.1-0.3-1.4-0.6
		c-0.1-0.1-0.1-0.2-0.1-0.3c0-0.1,0.1-0.2,0.2-0.2c0.1,0,0.2,0.1,0.2,0.2c0,0.1,0,0.1-0.1,0.2c0.1,0.3,0.6,0.6,1.3,0.6
		c0.8,0,1.3-0.4,1.3-0.9c0-0.6-0.6-0.8-1.3-1c-0.7-0.2-1.3-0.4-1.3-1c0-0.6,0.6-1,1.3-1c0.6,0,1,0.2,1.2,0.4
		c0.1,0.1,0.2,0.2,0.2,0.3C67.2,125.2,67.1,125.3,67,125.3z"/>
	<path class="st4" d="M68.6,127.9c0-0.1-0.1-0.3-0.1-0.5v-2.9h-0.7v-0.1h0.7v-1.1l0.1,0v1.1h1.4v0.1h-1.4v2.9c0,0.2,0,0.4,0.1,0.5
		c0.1,0.3,0.3,0.4,0.6,0.4c0.3,0,0.5-0.1,0.7-0.2l0,0.1c-0.2,0.1-0.4,0.2-0.7,0.2C69,128.4,68.7,128.2,68.6,127.9z"/>
	<path class="st4" d="M70.7,126.4c0-1.1,0.8-2,2-2c1.1,0,2,0.9,2,2c0,1.1-0.8,2-2,2C71.5,128.4,70.7,127.5,70.7,126.4z M74.5,126.4
		c0-1.1-0.8-1.9-1.8-1.9c-1,0-1.8,0.8-1.8,1.9c0,1.1,0.8,1.9,1.8,1.9C73.7,128.3,74.5,127.4,74.5,126.4z"/>
	<path class="st4" d="M76.3,125.3c0.4-0.5,1-1,1.7-1c0.5,0,0.8,0.2,1,0.6c0.1,0.2,0.2,0.5,0.2,0.9v2.4h0.8v0.1h-1.7v-0.1H79v-2.4
		c0-0.3,0-0.6-0.1-0.8c-0.1-0.3-0.5-0.5-0.9-0.5c-0.7,0-1.2,0.5-1.6,1v2.7H77v0.1h-1.7v-0.1h0.8v-3.7h-0.8v-0.1h0.9V125.3z"/>
	<path class="st4" d="M80.3,129.2c0.3-0.3,0.4-0.5,0.4-0.9c-0.1,0-0.2-0.1-0.2-0.2c0-0.1,0.1-0.2,0.2-0.2c0.1,0,0.2,0.1,0.2,0.3
		C80.9,128.7,80.7,129,80.3,129.2L80.3,129.2z"/>
	<path class="st4" d="M83.8,128.2h1l0.2-6.1h-1V122h1.2l2.4,5.2l2.4-5.2H91v0.1h-1l0.2,6.1h1v0.1h-2v-0.1h0.9l-0.2-6l-2.4,5.2h-0.1
		l-2.4-5.2l-0.2,6h0.9v0.1h-2V128.2z"/>
	<path class="st4" d="M91.9,128.2h1v-6.1h-1V122h4.4v1.4h-0.1v-1.3H93v2.9h2.4v0.1H93v3.1h3.1v-1.3h0.1v1.4h-4.4V128.2z"/>
	<path class="st4" d="M99.5,125.9c0-1.4,0.8-2.5,2-2.5c1.2,0,2,1.1,2,2.5c0,1.4-0.8,2.5-2,2.5C100.3,128.4,99.5,127.3,99.5,125.9z
		 M103.4,125.9c0-1.3-0.8-2.3-1.9-2.3c-1.1,0-1.9,1-1.9,2.3c0,1.3,0.8,2.3,1.9,2.3C102.6,128.3,103.4,127.3,103.4,125.9z"/>
	<path class="st4" d="M106.8,127.6H104l0,0l2.9-4l0.1,0.1l-2.8,3.9h2.6v-2l0.1,0v2h1.1v0.1h-1.1v1.9h-0.1V127.6z"/>
	<path class="st4" d="M111.1,127.6h-2.8l0,0l2.9-4l0.1,0.1l-2.8,3.9h2.6v-2l0.1,0v2h1.1v0.1h-1.1v1.9h-0.1V127.6z"/>
	<path class="st4" d="M113.3,124.2c-0.1,0.1-0.1,0.2-0.1,0.3c0.1,0,0.2,0.1,0.2,0.2c0,0.1-0.1,0.2-0.2,0.2c-0.1,0-0.2-0.1-0.2-0.2
		c0-0.1,0-0.3,0.2-0.5c0.2-0.4,0.7-0.7,1.3-0.7c0.9,0,1.4,0.5,1.4,1.2c0,0.7-0.5,1.2-1.2,1.7c-0.7,0.5-1.4,1-1.7,1.8h3v-0.9h0.1v1
		h-3.2l0,0c0.4-1,1.1-1.5,1.8-2c0.7-0.5,1.2-0.9,1.2-1.6c0-0.6-0.5-1.1-1.3-1.1C114,123.6,113.5,123.9,113.3,124.2z"/>
	<path class="st4" d="M119.7,127.6h-2.8l0,0l2.9-4l0.1,0.1l-2.8,3.9h2.6v-2l0.1,0v2h1.1v0.1h-1.1v1.9h-0.1V127.6z"/>
	<path class="st4" d="M155.1,128.2h1v-6.1h-1V122h2.4c1.3,0,2.2,0.8,2.2,1.9c0,1.1-0.8,1.9-2.2,1.9c-0.5,0-1,0-1.2,0v2.4h1v0.1h-2.1
		V128.2z M159.6,123.9c0-1-0.8-1.8-2-1.8h-1.3v3.5c0.3,0,0.7,0,1.2,0C158.9,125.7,159.6,124.9,159.6,123.9z"/>
	<path class="st4" d="M160.3,121.5v-0.1h0.9v3.9c0.4-0.5,1-1,1.7-1c0.5,0,0.8,0.2,1,0.5c0.1,0.2,0.2,0.5,0.2,0.9v2.4h0.8v0.1h-1.7
		v-0.1h0.8v-2.4c0-0.4,0-0.7-0.2-0.9c-0.2-0.3-0.5-0.5-0.9-0.5c-0.7,0-1.2,0.5-1.6,1v2.7h0.8v0.1h-1.7v-0.1h0.8v-6.7H160.3z"/>
	<path class="st4" d="M165.3,126.4c0-1.1,0.8-2,2-2c1.1,0,2,0.9,2,2c0,1.1-0.8,2-2,2C166.1,128.4,165.3,127.5,165.3,126.4z
		 M169.1,126.4c0-1.1-0.8-1.9-1.8-1.9c-1,0-1.8,0.8-1.8,1.9c0,1.1,0.8,1.9,1.8,1.9C168.3,128.3,169.1,127.4,169.1,126.4z"/>
	<path class="st4" d="M170.9,125.3c0.4-0.5,1-1,1.7-1c0.5,0,0.8,0.2,1,0.6c0.1,0.2,0.2,0.5,0.2,0.9v2.4h0.8v0.1h-1.7v-0.1h0.8v-2.4
		c0-0.3,0-0.6-0.1-0.8c-0.1-0.3-0.5-0.5-0.9-0.5c-0.7,0-1.2,0.5-1.6,1v2.7h0.8v0.1H170v-0.1h0.8v-3.7H170v-0.1h0.9V125.3z"/>
	<path class="st4" d="M175.2,126.3L175.2,126.3c0,1.3,0.8,2,1.8,2c0.5,0,1-0.2,1.4-0.4l0,0.1c-0.3,0.2-0.8,0.4-1.4,0.4
		c-1.1,0-2-0.8-2-2c0-1.2,0.8-2,1.8-2c1.2,0,1.7,0.9,1.7,1.9c0,0,0,0.1,0,0.1H175.2z M175.2,126.2h3.3c0-0.9-0.5-1.7-1.6-1.7
		C176,124.5,175.2,125.2,175.2,126.2z"/>
	<path class="st4" d="M179.5,125.3c0-0.1,0.1-0.2,0.2-0.2c0.1,0,0.2,0.1,0.2,0.2s-0.1,0.2-0.2,0.2
		C179.6,125.5,179.5,125.4,179.5,125.3z M179.5,128.2c0-0.1,0.1-0.2,0.2-0.2c0.1,0,0.2,0.1,0.2,0.2c0,0.1-0.1,0.2-0.2,0.2
		C179.6,128.4,179.5,128.3,179.5,128.2z"/>
	<path class="st4" d="M183.2,125.8c0-1.6,0.7-3.5,2.3-4.7l0.1,0.1c-1.6,1.2-2.2,3-2.2,4.6s0.6,3.4,2.2,4.6l-0.1,0.1
		C183.9,129.3,183.2,127.4,183.2,125.8z"/>
	<path class="st4" d="M186.2,124.2c-0.1,0.1-0.1,0.2-0.1,0.3c0.1,0,0.2,0.1,0.2,0.2c0,0.1-0.1,0.2-0.2,0.2c-0.1,0-0.2-0.1-0.2-0.2
		c0-0.1,0-0.3,0.2-0.5c0.2-0.4,0.7-0.7,1.3-0.7c0.9,0,1.4,0.5,1.4,1.2c0,0.7-0.5,1.2-1.2,1.7c-0.7,0.5-1.4,1-1.7,1.8h3v-0.9h0.1v1
		h-3.2l0,0c0.4-1,1.1-1.5,1.8-2c0.7-0.5,1.2-0.9,1.2-1.6c0-0.6-0.5-1.1-1.3-1.1C186.8,123.6,186.4,123.9,186.2,124.2z"/>
	<path class="st4" d="M190,125.9c0-1.4,0.8-2.5,2-2.5c1.2,0,2,1.1,2,2.5c0,1.4-0.8,2.5-2,2.5C190.8,128.4,190,127.3,190,125.9z
		 M193.9,125.9c0-1.3-0.8-2.3-1.9-2.3c-1.1,0-1.9,1-1.9,2.3c0,1.3,0.8,2.3,1.9,2.3C193.1,128.3,193.9,127.3,193.9,125.9z"/>
	<path class="st4" d="M195.5,129.4l2.4-5.8h-3v1.2h-0.1v-1.3h3.2l0,0l-2.5,5.9L195.5,129.4z"/>
	<path class="st4" d="M198,130.4c1.5-1.2,2.2-3,2.2-4.6s-0.6-3.4-2.2-4.6l0.1-0.1c1.6,1.2,2.3,3.1,2.3,4.7
		C200.3,127.4,199.6,129.3,198,130.4L198,130.4z"/>
	<path class="st4" d="M206.1,127.6h-2.8l0,0l2.9-4l0.1,0.1l-2.8,3.9h2.6v-2l0.1,0v2h1.1v0.1h-1.1v1.9h-0.1V127.6z"/>
	<path class="st4" d="M210.4,127.6h-2.8l0,0l2.9-4l0.1,0.1l-2.8,3.9h2.6v-2l0.1,0v2h1.1v0.1h-1.1v1.9h-0.1V127.6z"/>
	<path class="st4" d="M212.2,126.8c0-0.8,0.6-1.4,1.4-1.5c-0.7-0.2-1.3-0.7-1.3-1.4c0-0.8,0.7-1.5,1.7-1.5s1.7,0.7,1.7,1.5
		c0,0.7-0.5,1.3-1.3,1.4c0.8,0.1,1.4,0.8,1.4,1.5c0,0.9-0.8,1.6-1.8,1.6C212.9,128.4,212.2,127.7,212.2,126.8z M215.6,126.8
		c0-0.8-0.7-1.5-1.6-1.5c-0.9,0-1.7,0.6-1.7,1.5c0,0.9,0.7,1.5,1.7,1.5C214.9,128.3,215.6,127.7,215.6,126.8z M215.5,123.8
		c0-0.8-0.6-1.4-1.5-1.4c-0.9,0-1.5,0.6-1.5,1.4c0,0.8,0.7,1.4,1.5,1.4C214.8,125.2,215.5,124.6,215.5,123.8z"/>
	<path class="st4" d="M216.5,125.7h1.6v0.1h-1.6V125.7z"/>
	<path class="st4" d="M219,128.2c0.1,0,0.2,0.1,0.2,0.2c0,0.1-0.1,0.2-0.2,0.2c0,0.1,0.1,0.2,0.1,0.3c0.2,0.3,0.7,0.5,1.3,0.5
		c1,0,1.6-0.7,1.6-1.5c0-0.7-0.4-1.1-1-1.3c-0.3-0.1-0.6-0.2-1-0.2H220v-0.1h0.1c0.4,0,0.7-0.1,1-0.2c0.5-0.3,0.9-0.7,0.9-1.3
		c0-0.7-0.5-1.3-1.4-1.3c-0.6,0-1,0.2-1.3,0.6c-0.1,0.1-0.1,0.2-0.1,0.3c0.1,0,0.2,0.1,0.2,0.2c0,0.1-0.1,0.2-0.2,0.2
		c-0.1,0-0.2-0.1-0.2-0.2c0-0.1,0-0.3,0.2-0.5c0.3-0.4,0.7-0.7,1.4-0.7c1,0,1.6,0.7,1.6,1.4c0,0.6-0.4,1.1-1,1.4
		c-0.2,0.1-0.3,0.1-0.5,0.2c0.2,0,0.3,0.1,0.5,0.1c0.7,0.2,1.1,0.7,1.1,1.4c0,0.9-0.7,1.6-1.7,1.6c-0.7,0-1.2-0.2-1.5-0.6
		c-0.1-0.2-0.2-0.3-0.2-0.5C218.8,128.3,218.9,128.2,219,128.2z"/>
	<path class="st4" d="M223.1,125.9c0-1.4,0.8-2.5,2-2.5c1.2,0,2,1.1,2,2.5c0,1.4-0.8,2.5-2,2.5C223.9,128.4,223.1,127.3,223.1,125.9
		z M227,125.9c0-1.3-0.8-2.3-1.9-2.3c-1.1,0-1.9,1-1.9,2.3c0,1.3,0.8,2.3,1.9,2.3C226.2,128.3,227,127.3,227,125.9z"/>
	<path class="st4" d="M227.9,125.9c0-1.4,0.8-2.5,2-2.5c1.2,0,2,1.1,2,2.5c0,1.4-0.8,2.5-2,2.5C228.7,128.4,227.9,127.3,227.9,125.9
		z M231.8,125.9c0-1.3-0.8-2.3-1.9-2.3c-1.1,0-1.9,1-1.9,2.3c0,1.3,0.8,2.3,1.9,2.3C231,128.3,231.8,127.3,231.8,125.9z"/>
	<path class="st4" d="M232.7,125.9c0-1.4,0.8-2.5,2-2.5c1.2,0,2,1.1,2,2.5c0,1.4-0.8,2.5-2,2.5C233.5,128.4,232.7,127.3,232.7,125.9
		z M236.6,125.9c0-1.3-0.8-2.3-1.9-2.3c-1.1,0-1.9,1-1.9,2.3c0,1.3,0.8,2.3,1.9,2.3C235.8,128.3,236.6,127.3,236.6,125.9z"/>
</g>
<rect x="-367" y="54.5" style="fill:none;" width="184.6" height="15.7"/>
<text transform="matrix(1 0 0 1 -366.9622 60.2691)"><tspan x="0" y="0" class="st1" style="font-family:'Archer-Thin'; font-size:8px;">341 U.S. 1, Weston, ME 04424</tspan><tspan x="89.3" y="0" class="st1" style="font-family:'Archer-Thin'; font-size:8px; letter-spacing:24;">	</tspan><tspan x="115.8" y="0" class="st1" style="font-family:'Archer-Thin'; font-size:8px;">Phone: (207) 448-3000</tspan></text>
</svg>
