<?xml version="1.0" encoding="utf-8"?>
<!-- Generator: Adobe Illustrator 22.1.0, SVG Export Plug-In . SVG Version: 6.00 Build 0)  -->
<svg version="1.1" id="Layer_1" xmlns="http://www.w3.org/2000/svg" xmlns:xlink="http://www.w3.org/1999/xlink" x="0px" y="0px"
	 viewBox="0 0 216 216" style="enable-background:new 0 0 216 216;" xml:space="preserve">
<style type="text/css">
	.st0{clip-path:url(#SVGID_2_);}
	.st1{fill:#FFFFFF;}
	.st2{fill:#909044;}
	.st3{fill:#909044;stroke:#909044;stroke-width:0.5;stroke-miterlimit:10;}
	.st4{fill:#909044;stroke:#909044;stroke-width:0.25;stroke-miterlimit:10;}
	.st5{fill:#909044;stroke:#909044;stroke-width:0.1;stroke-miterlimit:10;}
</style>
<g>
	<defs>
		<rect id="SVGID_1_" width="216" height="216"/>
	</defs>
	<clipPath id="SVGID_2_">
		<use xlink:href="#SVGID_1_"  style="overflow:visible;"/>
	</clipPath>
	<g class="st0">
		<rect x="-113.2" y="12.7" class="st1" width="442.2" height="252.7"/>
		<g>
			<g>
				<g>
					<path class="st2" d="M160.7,192.1c0.7-1,1.3-2.1,1.9-3.2c0.6,0,1.2,0,1.9,0c-0.3,0.4-0.7,0.9-1,1.3c-0.3,0.5-0.7,1-1,1.6
						c-0.1,0.3,0.2,0.6,0.4,0.4c0.4-0.5,0.7-1.1,1.1-1.6c0.3-0.5,0.7-1,1-1.4c0-0.1,0.1-0.1,0.1-0.2c4.6,0,9.2-0.1,13.9-0.2
						c7.6-0.1,15.2-0.1,22.9-0.1c0,0,0.1,0,0.1,0c-0.1,0.3-0.1,0.7-0.1,1c0,0.1,0.1,0.2,0.2,0.2c0.7,0,1.4-0.5,2-0.7
						c0.3-0.1,0.7-0.3,1-0.4c0.3-0.1,0.7-0.2,1-0.4c0.2-0.1,0.2-0.3,0.1-0.4c-0.1-0.2-0.3-0.3-0.5-0.3c-0.4-0.1-0.8-0.4-1.1-0.6
						c-0.4-0.2-0.8-0.3-1.3-0.5c-0.3-0.1-0.7-0.3-1-0.5c-0.2-0.2-0.4,0-0.4,0.2c0,0,0,0,0,0c0,0.2,0,0.4,0,0.6
						c0.1,0.3,0.1,0.5,0.1,0.8c-0.1,0-0.1,0-0.2,0c-7.6,0-15.1,0-22.6,0.1c-4.7,0.1-9.4,0.2-14.1,0.2c0-0.1,0-0.1-0.1-0.2
						c-0.4-0.5-0.7-1-1-1.4c-0.4-0.5-0.7-1.1-1.1-1.6c-0.2-0.3-0.5,0.1-0.4,0.4c0.2,0.6,0.6,1.1,1,1.6c0.3,0.5,0.6,0.9,1,1.4
						c-0.6,0-1.2,0-1.9,0c-0.6-1.1-1.2-2.2-1.9-3.3c-0.2-0.3-0.6,0-0.5,0.3c0.5,1.1,1.2,2,1.8,3c-0.6,0-1.1,0-1.7,0
						c-0.7-1.1-1.4-2.1-2.2-3.1c-0.2-0.3-0.8,0-0.6,0.3c0.7,1,1.4,1.9,2.2,2.8c-1.1,0-2.1,0-3.2,0c-0.6,0-0.6,1.1,0,1.1
						c1.1,0,2.1,0,3.2,0c-0.7,0.9-1.5,1.8-2.1,2.8c-0.2,0.3,0.3,0.7,0.6,0.3c0.7-1,1.4-2,2.1-3.1c0.6,0,1.1,0,1.7,0
						c-0.6,1-1.3,1.9-1.8,2.9C160.1,192.2,160.5,192.4,160.7,192.1z"/>
					<path class="st2" d="M55.1,184.5c-0.7,1-1.3,2.1-1.9,3.2c-0.6,0-1.2,0-1.9,0c0.3-0.4,0.7-0.9,1-1.3c0.3-0.5,0.7-1,1-1.6
						c0.1-0.3-0.2-0.6-0.4-0.4c-0.4,0.5-0.7,1.1-1.1,1.6c-0.3,0.5-0.7,1-1,1.4c0,0.1-0.1,0.1-0.1,0.2c-4.6,0-9.2,0.1-13.8,0.2
						c-7.6,0.1-15.2,0.1-22.9,0.1c0,0-0.1,0-0.1,0c0.1-0.3,0.1-0.7,0.1-1c0-0.1-0.1-0.2-0.2-0.2c-0.7,0-1.4,0.5-2,0.7
						c-0.3,0.1-0.7,0.3-1,0.4c-0.3,0.1-0.7,0.2-1,0.4c-0.2,0.1-0.2,0.3-0.1,0.4c0.1,0.2,0.3,0.3,0.5,0.3c0.4,0.1,0.8,0.4,1.1,0.6
						c0.4,0.2,0.8,0.3,1.3,0.5c0.3,0.1,0.7,0.3,1,0.5c0.2,0.2,0.4,0,0.4-0.2c0,0,0,0,0,0c0-0.2,0-0.4,0-0.6
						c-0.1-0.3-0.1-0.5-0.1-0.8c0.1,0,0.1,0,0.2,0c7.6,0,15.1,0,22.6-0.1c4.7-0.1,9.4-0.2,14.1-0.2c0,0.1,0,0.1,0.1,0.2
						c0.4,0.5,0.7,1,1,1.4c0.4,0.5,0.7,1.1,1.1,1.6c0.2,0.3,0.5-0.1,0.4-0.4c-0.2-0.6-0.6-1.1-1-1.6c-0.3-0.5-0.6-0.9-1-1.4
						c0.6,0,1.2,0,1.9,0c0.6,1.1,1.2,2.2,1.9,3.3c0.2,0.3,0.6,0,0.5-0.3c-0.5-1-1.2-2-1.8-3c0.6,0,1.1,0,1.7,0
						c0.7,1.1,1.4,2.1,2.2,3.1c0.2,0.3,0.8,0,0.6-0.3c-0.7-1-1.4-1.9-2.2-2.8c1.1,0,2.1,0,3.2,0c0.6,0,0.6-1.1,0-1.1
						c-1.1,0-2.1,0-3.2,0c0.7-0.9,1.5-1.8,2.1-2.8c0.2-0.3-0.3-0.7-0.6-0.3c-0.7,1-1.4,2-2.1,3.1c-0.6,0-1.1,0-1.7,0
						c0.6-1,1.3-1.9,1.8-2.9C55.7,184.5,55.3,184.2,55.1,184.5z"/>
				</g>
				<g>
					<path class="st3" d="M10,170h2.7v-17.3H10v-0.4h12.1v4h-0.4v-3.7h-8.6v8.4h6.6v0.4h-6.6v8.6H16v0.4h-6V170z"/>
					<path class="st3" d="M24.5,170h2.9v-17.3h-2.9v-0.4h6.1v0.4h-2.9V170h2.9v0.4h-6.1V170z"/>
					<path class="st3" d="M32.7,170h2.7v-17.3h-2.7v-0.4h6.8c3.7,0,5.9,2,5.9,4.9c0,2.8-1.8,4.5-4.7,5l4.7,7.8h2.3v0.4h-2.6
						l-4.9-8.1c-0.3,0-0.7,0.1-1.1,0.1c-1.3,0-2.1,0-3.3-0.1v7.8h2.9v0.4h-6V170z M45,157.2c0-2.7-2-4.6-5.5-4.6h-3.6v9.2
						c1.1,0,2.2,0.1,3.3,0.1C42.7,161.9,45,160.2,45,157.2z"/>
					<path class="st3" d="M49.1,167.1c0-0.5,0.2-0.7,0.5-0.7c0.2,0,0.5,0.2,0.5,0.5c0,0.3-0.2,0.5-0.5,0.6c0.3,1.4,2.1,2.8,4.9,2.8
						c3,0,5-1.7,5-4.2c0-2.7-2.4-3.9-4.8-4.8c-2.4-1-4.9-2.1-4.9-5c0-2.4,2.1-4.3,5-4.3c2.7,0,4.7,1.7,4.7,3.3
						c0,0.4-0.2,0.7-0.5,0.7c-0.2,0-0.5-0.2-0.5-0.5c0-0.3,0.2-0.5,0.5-0.6c-0.3-1.3-2.1-2.6-4.2-2.6c-2.7,0-4.7,1.7-4.7,3.9
						c0,2.7,2.5,3.7,4.8,4.7c2.4,0.9,4.9,2.3,4.9,5.1c0,2.7-2.3,4.6-5.4,4.6C51.2,170.6,49.1,168.7,49.1,167.1z"/>
					<path class="st3" d="M66.1,170H69v-17.3h-6.7v3.7h-0.4v-4.1h14.7v4.1h-0.4v-3.7h-6.7V170h2.9v0.4h-6.2V170z"/>
					<path class="st3" d="M85.2,167.1c0-0.5,0.2-0.7,0.5-0.7c0.2,0,0.5,0.2,0.5,0.5c0,0.3-0.2,0.5-0.5,0.6c0.3,1.4,2.1,2.8,4.9,2.8
						c3,0,5-1.7,5-4.2c0-2.7-2.4-3.9-4.8-4.8c-2.4-1-4.9-2.1-4.9-5c0-2.4,2.1-4.3,5-4.3c2.7,0,4.7,1.7,4.7,3.3
						c0,0.4-0.2,0.7-0.5,0.7c-0.2,0-0.5-0.2-0.5-0.5c0-0.3,0.2-0.5,0.5-0.6c-0.3-1.3-2.1-2.6-4.2-2.6c-2.7,0-4.7,1.7-4.7,3.9
						c0,2.7,2.5,3.7,4.8,4.7c2.4,0.9,4.9,2.3,4.9,5.1c0,2.7-2.3,4.6-5.4,4.6C87.2,170.6,85.2,168.7,85.2,167.1z"/>
					<path class="st3" d="M98.4,170h2.7v-17.3h-2.7v-0.4h12.4v4h-0.4v-3.7h-8.9v8.3h6.8v0.4h-6.8v8.7h8.9v-3.7h0.4v4H98.4V170z"/>
					<path class="st3" d="M117.3,170h2.9v-17.3h-6.7v3.7h-0.4v-4.1h14.7v4.1h-0.4v-3.7h-6.7V170h2.9v0.4h-6.2V170z"/>
					<path class="st3" d="M134,170h2.9v-17.3h-6.7v3.7h-0.4v-4.1h14.7v4.1H144v-3.7h-6.7V170h2.9v0.4H134V170z"/>
					<path class="st3" d="M146.5,170h2.7v-17.3h-2.7v-0.4h6v0.4h-2.9V170h8.3v-3.7h0.4v4.1h-11.9V170z"/>
					<path class="st3" d="M160.4,170h2.7v-17.3h-2.7v-0.4h12.4v4h-0.4v-3.7h-8.9v8.3h6.8v0.4h-6.8v8.7h8.9v-3.7h0.4v4h-12.4V170z"/>
					<path class="st3" d="M175.7,170h2.7v-17.3h-2.7v-0.4h6.8c3.7,0,5.9,2,5.9,4.9c0,2.8-1.8,4.5-4.7,5l4.7,7.8h2.3v0.4h-2.6
						l-4.9-8.1c-0.3,0-0.7,0.1-1.1,0.1c-1.3,0-2.1,0-3.3-0.1v7.8h2.9v0.4h-6V170z M188,157.2c0-2.7-2-4.6-5.5-4.6h-3.6v9.2
						c1.1,0,2.2,0.1,3.3,0.1C185.6,161.9,188,160.2,188,157.2z"/>
					<path class="st3" d="M191.3,155.7c0.8-0.8,1.2-1.6,1.2-2.6c-0.4,0.1-0.7-0.2-0.7-0.5c0-0.2,0.2-0.5,0.5-0.5
						c0.4,0,0.6,0.4,0.6,0.9c0,1.2-0.6,2.2-1.5,3L191.3,155.7z"/>
					<path class="st3" d="M195.2,167.1c0-0.5,0.2-0.7,0.5-0.7c0.2,0,0.5,0.2,0.5,0.5c0,0.3-0.2,0.5-0.5,0.6c0.3,1.4,2.1,2.8,4.9,2.8
						c3,0,5-1.7,5-4.2c0-2.7-2.4-3.9-4.8-4.8c-2.4-1-4.9-2.1-4.9-5c0-2.4,2.1-4.3,5-4.3c2.7,0,4.7,1.7,4.7,3.3
						c0,0.4-0.2,0.7-0.5,0.7c-0.2,0-0.5-0.2-0.5-0.5c0-0.3,0.2-0.5,0.5-0.6c-0.3-1.3-2.1-2.6-4.2-2.6c-2.7,0-4.6,1.7-4.6,3.9
						c0,2.7,2.5,3.7,4.8,4.7c2.4,0.9,4.9,2.3,4.9,5.1c0,2.7-2.3,4.6-5.4,4.6C197.3,170.6,195.2,168.7,195.2,167.1z"/>
				</g>
				<g>
					<path class="st4" d="M68.9,193.7h2v-12.6h-2v-0.3h4.4v0.3h-2.1v12.6h6.1V191h0.3v3h-8.7V193.7z"/>
					<path class="st4" d="M82.8,187.4c0-3.8,2.8-6.8,6.5-6.8c3.7,0,6.5,3,6.5,6.8c0,3.8-2.8,6.8-6.5,6.8
						C85.6,194.2,82.8,191.2,82.8,187.4z M95.6,187.4c0-3.6-2.6-6.5-6.2-6.5c-3.6,0-6.2,2.9-6.2,6.5c0,3.6,2.6,6.5,6.2,6.5
						C92.9,194,95.6,191.1,95.6,187.4z"/>
					<path class="st4" d="M101.7,193.7h2v-12.6h-2v-0.3h4.9c4.7,0,7.2,2.7,7.2,6.5c0,3.9-2.5,6.6-7.1,6.6h-4.9V193.7z M106.6,193.7
						c4.5,0,6.8-2.6,6.8-6.3c0-3.7-2.4-6.3-6.9-6.3H104v12.6H106.6z"/>
					<path class="st4" d="M120,187.5c0-4,2.9-6.9,6.6-6.9c2.9,0,4.9,1.7,4.9,3c0,0.3-0.2,0.5-0.4,0.5c-0.2,0-0.3-0.1-0.3-0.4
						c0-0.2,0.1-0.4,0.4-0.4c-0.2-1.1-2-2.4-4.6-2.4c-3.7,0-6.3,3-6.3,6.6c0,3.7,2.6,6.4,6.1,6.4c1.9,0,3.6-0.7,4.9-2.1v-3.5h-4.4
						v-0.3h4.7v5.8h-0.3v-1.8c-1.3,1.3-2.9,2-4.9,2C122.8,194.2,120,191.5,120,187.5z"/>
					<path class="st4" d="M138,193.7h2v-12.6h-2v-0.3h9.1v2.9h-0.3v-2.7h-6.5v6h5v0.3h-5v6.3h6.5V191h0.3v2.9H138V193.7z"/>
				</g>
				<g>
					<g>
						<path class="st4" d="M93.6,139.2h1.5v-6l-1.4,0.4l0-0.2l1.6-0.5h0.1v6.2h1.5v0.2h-3.2V139.2z"/>
						<path class="st4" d="M100.9,140.5c-0.2-0.2-0.3-0.4-0.3-0.6c0-0.2,0.1-0.3,0.2-0.3c0.1,0,0.2,0.1,0.2,0.2
							c0,0.1-0.1,0.2-0.2,0.3c0,0.1,0.1,0.2,0.2,0.3c0.3,0.3,0.7,0.5,1.3,0.5c1.4,0,2.7-1.4,2.7-4.6v-0.4c0,0.2-0.1,0.3-0.1,0.4
							c-0.3,0.8-1.1,1.5-2.2,1.5c-1.4,0-2.4-1-2.4-2.4c0-1.4,1-2.5,2.4-2.5c0.7,0,1.3,0.3,1.7,0.7c0.5,0.5,0.8,1.3,0.8,2.7
							c0,3.3-1.4,4.7-2.9,4.7C101.7,141,101.2,140.8,100.9,140.5z M102.7,133.1c-1.3,0-2.2,1.1-2.2,2.4c0,1.3,0.9,2.3,2.2,2.3
							c1.3,0,2.3-1.2,2.3-2.3c0-0.6-0.2-1.3-0.7-1.7C103.9,133.3,103.4,133.1,102.7,133.1z"/>
						<path class="st4" d="M109.6,140.5c-0.2-0.2-0.3-0.4-0.3-0.6c0-0.2,0.1-0.3,0.2-0.3c0.1,0,0.2,0.1,0.2,0.2
							c0,0.1-0.1,0.2-0.2,0.3c0,0.1,0.1,0.2,0.2,0.3c0.3,0.3,0.7,0.5,1.3,0.5c1.4,0,2.7-1.4,2.7-4.6v-0.4c0,0.2-0.1,0.3-0.1,0.4
							c-0.3,0.8-1.1,1.5-2.2,1.5c-1.4,0-2.4-1-2.4-2.4c0-1.4,1-2.5,2.4-2.5c0.7,0,1.3,0.3,1.7,0.7c0.5,0.5,0.8,1.3,0.8,2.7
							c0,3.3-1.4,4.7-2.9,4.7C110.3,141,109.8,140.8,109.6,140.5z M111.3,133.1c-1.3,0-2.2,1.1-2.2,2.4c0,1.3,0.9,2.3,2.2,2.3
							c1.3,0,2.3-1.2,2.3-2.3c0-0.6-0.2-1.3-0.7-1.7C112.5,133.3,112,133.1,111.3,133.1z"/>
						<path class="st4" d="M117.5,137.3c0-1,0.8-1.9,1.9-2c-1-0.2-1.7-0.9-1.7-1.9c0-1.1,0.9-2,2.2-2c1.3,0,2.2,0.9,2.2,2
							c0,1-0.7,1.7-1.7,1.9c1.1,0.2,1.9,1,1.9,2c0,1.2-1,2.1-2.4,2.1C118.6,139.5,117.5,138.5,117.5,137.3z M122.1,137.3
							c0-1.1-1-2-2.2-2c-1.2,0-2.2,0.8-2.2,2c0,1.2,0.9,2,2.2,2C121.2,139.3,122.1,138.5,122.1,137.3z M122,133.4c0-1-0.8-1.9-2-1.9
							c-1.2,0-2,0.8-2,1.9c0,1.1,0.9,1.9,2,1.9C121.1,135.2,122,134.4,122,133.4z"/>
					</g>
				</g>
			</g>
			<g>
				<path class="st2" d="M103.2,67.3C103.2,67.3,103.2,67.4,103.2,67.3C103.3,67.4,103.3,67.3,103.2,67.3z"/>
				<path class="st2" d="M185.5,87C185.4,87,185.4,87.1,185.5,87C185.5,87.1,185.5,87,185.5,87z"/>
				<path class="st2" d="M163.2,89.8C163.2,89.8,163.2,89.9,163.2,89.8C163.3,89.9,163.3,89.8,163.2,89.8z"/>
				<path class="st2" d="M205.3,120.5c0.7,0.6,0.3-0.4-0.2-1.1c0.3,0.2,0.5,0.3,0.4,0c-0.4-0.8-0.8-1.6-1.3-2.3c0,0,0-0.1-0.1-0.1
					c0.6,0.6,1.2,0.9,0.4-0.3c-0.4-0.7-0.9-1.3-1.3-1.9c-0.1-0.2-0.3-0.4-0.4-0.6c0-0.1,0-0.1,0-0.2c0.2,0.2,0.5,0.6,1,1.2
					c0.5,0.6,1.9,1.6,0.8,0c-0.2-0.3-1.1-1.5-1.9-2.4c0-0.1,0-0.1,0-0.2c0.2,0.2,0.4,0.5,0.6,0.7c0.5,0.7,1,1.2,1.6,1.5
					c0.5,0.4-0.1-0.8-0.2-1c-0.1-0.1-0.2-0.3-0.3-0.4c0-0.1-0.1-0.3-0.4-0.7c-0.4-0.7-0.9-1.3-1.4-1.9c0.1,0.2,0.3,0.3,0.4,0.5
					c0.2,0.2,1.4,1.1,0.7,0c-0.3-0.5-0.9-1.4-1.4-2.2c0-0.2,0-0.4-0.1-0.6c0.2,0.2,0.3,0.5,0.6,0.8c0.2,0.2,1.8,1.7,1.4,1
					c-0.7-1.3-1.3-2.6-2.2-3.5l0,0c0.4,0.4,0.8,0.9,1.2,1.4c0.5,0.6,1.4,0.9,0.5-0.3c-0.1-0.1-0.2-0.2-0.2-0.3c0-0.1,0-0.2-0.2-0.4
					c-0.4-0.8-0.9-1.5-1.3-2.2c0.5,0.5,1.5,1.3,0.9,0.3c-0.1-0.1-0.2-0.4-0.5-0.6c0,0,0,0,0.1,0c-0.3-0.3-0.5-0.7-0.8-1
					c0.4,0.4,0.9,0.8,0.7,0.4c-0.4-0.9-0.8-1.7-1.2-2.7c-0.1-0.1-0.1-0.2-0.2-0.3c0,0,0-0.1,0-0.1c0.1,0.2,0.3,0.4,0.4,0.6
					c0.2,0.2,1.7,1.8,1.4,1.1c-0.2-0.4-0.4-0.8-0.6-1.3c0.5,0.5,1.2,1.2,1,0.6c-0.4-1.1-0.8-2-1.3-3c-0.1-0.2-0.2-0.4-0.3-0.6
					c-0.1-0.2-0.4-0.6-0.8-1c0,0,0-0.1-0.1-0.1c-0.1-0.5-0.3-0.9-0.6-1.1c-0.3-0.4-0.7-0.8-1.1-1.1c-0.4-0.6-1-0.5-1.3,0.2
					c-0.4,0.4-0.9,0.9-1,1.2c-0.2,0.3-0.3,0.7-0.5,1c-0.3,0.4-0.7,0.7-0.8,1c-0.1,0.3-0.2,0.4-0.3,0.6c-0.4,0.8-0.7,1.7-1.1,2.5
					c-0.3-0.8-1-2.1-1.1-2.4c-0.2-0.3-0.5-0.7-0.7-1c0-0.1,0-0.2,0-0.3c0.8,0.7,1.6,1.4,2.4,1.9c0.1,0.1,0.1-0.2,0-0.5
					c0,0,0.1,0.1,0.1,0.1c0.7,0.5-0.2-1.3-0.3-1.4c-0.6-1.1-1.4-2.3-2.2-3.3c0,0,0-0.1-0.1-0.1c-0.3-0.4-0.5-0.8-0.8-1.2
					c0.7,0.3,2.2,1.4,2.5,1.5c0.3,0.2,0-0.7,0-0.7c0,0,0,0,0-0.1c0.7,0.6-0.5-1.7-0.8-2.3c0.1,0.1,0.2,0.2,0.4,0.3
					c0.7,0.6-0.5-1.9-0.6-2c-1.3-2.2-2.3-5.1-4.1-6.6c-0.1,0-0.1-0.1-0.1-0.1c0-0.1-0.1-0.1-0.3,0c-0.1,0.1-0.2,0.2-0.4,0.4
					c-0.2,0.1-0.3,0.2-0.4,0.4c-1.4,1.6-2.2,4-3.4,5.9c-0.1,0.2-1.4,2.7-0.6,2c0.1-0.1,0.2-0.2,0.4-0.3c-0.3,0.6-1.5,2.8-0.8,2.3
					c0,0,0,0,0,0.1c0,0-0.3,0.9,0,0.7c0.3-0.2,1.8-1.2,2.5-1.5c-0.2,0.4-0.5,0.8-0.8,1.2c0,0,0,0-0.1,0.1c-0.8,1-1.6,2.1-2.2,3.3
					c-0.1,0.2-1,1.9-0.3,1.4c0,0,0.1-0.1,0.1-0.1c-0.1,0.3-0.2,0.6,0,0.5c1-0.6,1.9-1.5,2.8-2.3c0,0.1-0.1,0.1-0.1,0.2
					c-0.4,0.5-0.7,1-1.1,1.5c-0.3,0.4-1.5,3.1-1.4,3c0.1-0.1,0.2-0.2,0.4-0.3c-0.2,0.3-0.5,0.6-0.7,0.9c-0.1,0.1-0.4,0.6-0.7,1.2
					c-0.4-0.6-0.9-1.3-1.3-1.9c0.1,0.2,0.3,0.3,0.4,0.5c0.2,0.2,1.4,1.1,0.7,0c-0.3-0.5-0.9-1.4-1.4-2.2c0-0.2,0-0.4-0.1-0.6
					c0.2,0.2,0.3,0.5,0.6,0.8c0.2,0.2,1.8,1.7,1.4,1c-0.7-1.3-1.3-2.6-2.2-3.5l0,0c0.4,0.4,0.8,0.9,1.2,1.4c0.5,0.6,1.4,0.9,0.5-0.3
					c-0.1-0.1-0.2-0.2-0.2-0.3c0-0.1,0-0.2-0.2-0.4c-0.4-0.8-0.9-1.5-1.3-2.2c0.5,0.5,1.5,1.3,0.9,0.3c-0.1-0.1-0.2-0.4-0.5-0.6
					c0,0,0,0,0.1,0c-0.3-0.3-0.5-0.7-0.8-1c0.4,0.4,0.9,0.8,0.7,0.4c-0.4-0.9-0.8-1.7-1.2-2.7c-0.1-0.1-0.1-0.2-0.2-0.3
					c0,0,0-0.1,0-0.1c0.1,0.2,0.3,0.4,0.4,0.6c0.2,0.2,1.7,1.8,1.4,1.1c-0.2-0.4-0.4-0.8-0.6-1.3c0.5,0.5,1.2,1.2,1,0.6
					c-0.4-1.1-0.8-2-1.3-3c-0.1-0.2-0.2-0.4-0.3-0.6c-0.1-0.2-0.4-0.6-0.8-1c0,0,0-0.1-0.1-0.1c-0.1-0.5-0.3-0.9-0.6-1.1
					c-0.3-0.4-0.7-0.8-1.1-1.1c-0.4-0.6-1-0.5-1.2,0.2c-0.4,0.4-0.9,0.9-1,1.2c-0.2,0.3-0.3,0.7-0.5,1c-0.3,0.4-0.7,0.7-0.8,1
					c-0.1,0.3-0.2,0.4-0.3,0.6c-0.4,1-0.9,2-1.3,3c-0.2,0.5,0.5-0.1,1-0.6c-0.2,0.4-0.4,0.8-0.6,1.3c-0.3,0.7,1.2-0.9,1.4-1.1
					c0.2-0.3,0.4-0.6,0.6-0.9c0,0,0,0.1-0.1,0.1c-0.1,0.2-0.2,0.4-0.4,0.6c-0.4,0.9-0.8,1.7-1.2,2.7c-0.2,0.5,0.3,0,0.7-0.4
					c-0.3,0.3-0.5,0.7-0.8,1c0,0,0,0,0.1,0c-0.2,0.3-0.4,0.5-0.5,0.6c-0.6,0.9,0.4,0.2,0.9-0.3c-0.4,0.7-0.9,1.5-1.3,2.2
					c-0.1,0.2-0.2,0.4-0.2,0.4c-0.1,0.1-0.2,0.2-0.2,0.3c0,0.1-0.1,0.1-0.1,0.2c-0.4-0.6-0.9-1.2-1.4-1.8c0,0,0-0.1-0.1-0.1
					c-0.3-0.4-0.5-0.8-0.8-1.2c0.7,0.3,2.2,1.4,2.5,1.5c0.3,0.2-0.1-0.7,0-0.7c0,0,0,0,0-0.1c0.7,0.6-0.5-1.7-0.8-2.3
					c0.1,0.1,0.2,0.2,0.4,0.3c0.7,0.6-0.5-1.9-0.6-2c-1.3-2.2-2.3-5.1-4.1-6.6c-0.1,0-0.1-0.1-0.1-0.1c0-0.1-0.1-0.1-0.3,0
					c-0.1,0.1-0.2,0.2-0.4,0.4c-0.2,0.1-0.3,0.2-0.4,0.4c-1.4,1.6-2.2,4-3.4,5.9c0,0.1-0.3,0.5-0.5,1c0-0.1-0.1-0.2-0.2-0.5
					c-0.1-0.2-0.3-0.5-0.6-0.8c0,0,0,0,0.1,0c-0.3-0.4-0.7-0.9-1-1.3c0.5,0.5,1.2,1.1,1,0.5c-0.5-1.2-1-2.3-1.5-3.5
					c-0.1-0.2-0.2-0.3-0.3-0.4c0,0,0-0.1,0-0.1c0.2,0.3,0.4,0.5,0.5,0.8c0.2,0.3,2.2,2.3,1.8,1.4c-0.2-0.6-0.5-1.1-0.8-1.7
					c0.7,0.7,1.6,1.5,1.3,0.8c-0.5-1.4-1.1-2.7-1.6-3.9c-0.1-0.2-0.2-0.5-0.4-0.8c-0.2-0.3-0.6-0.8-1-1.3c0,0,0-0.1-0.1-0.1
					c-0.1-0.7-0.4-1.2-0.8-1.5c-0.3-0.5-0.9-1.1-1.4-1.5c-0.5-0.8-1.3-0.7-1.6,0.3c-0.5,0.5-1.1,1.2-1.3,1.5
					c-0.2,0.4-0.4,0.9-0.6,1.3c-0.5,0.5-0.9,1-1,1.3c-0.2,0.3-0.3,0.6-0.4,0.8c-0.6,1.3-1.1,2.6-1.6,3.9c-0.3,0.7,0.6-0.1,1.3-0.8
					c-0.3,0.5-0.5,1.1-0.8,1.7c-0.4,0.9,1.6-1.1,1.8-1.4c0.3-0.4,0.5-0.8,0.8-1.2c0,0.1-0.1,0.1-0.1,0.2c-0.2,0.2-0.3,0.5-0.5,0.8
					c-0.5,1.2-1,2.3-1.5,3.5c-0.3,0.6,0.4,0,1-0.5c-0.3,0.4-0.7,0.8-1,1.3c0,0,0,0,0.1,0c-0.3,0.4-0.5,0.7-0.6,0.8
					c-0.8,1.2,0.5,0.2,1.1-0.4c-0.5,0.9-1.1,1.8-1.6,2.8c-0.1-0.3-0.3-0.5-0.3-0.6c-0.1-0.2-0.2-0.3-0.3-0.4c0-0.1-0.2-0.4-0.4-0.7
					c-0.5-0.7-1-1.5-1.5-2.2c0.2,0.2,0.3,0.4,0.5,0.5c0.3,0.3,1.6,1.3,0.8,0c-0.4-0.6-1-1.6-1.5-2.5c0-0.2,0-0.4-0.1-0.6
					c0.2,0.2,0.4,0.5,0.6,0.9c0.2,0.3,2.1,2,1.6,1.1c-0.8-1.5-1.5-2.9-2.5-4c0,0,0,0,0,0c0.5,0.5,0.9,1,1.4,1.5
					c0.6,0.6,1.5,1.1,0.6-0.3c-0.1-0.1-0.2-0.2-0.3-0.4c0-0.1,0-0.2-0.2-0.5c-0.5-0.9-1-1.7-1.5-2.5c0.6,0.6,1.7,1.4,1,0.4
					c-0.1-0.1-0.3-0.4-0.5-0.7c0,0,0,0,0.1,0c-0.3-0.4-0.6-0.7-0.9-1.1c0.4,0.4,1,1,0.8,0.4c-0.4-1-0.9-2-1.3-3
					c-0.1-0.1-0.2-0.3-0.2-0.4c0,0,0-0.1,0-0.1c0.2,0.2,0.3,0.4,0.5,0.7c0.2,0.3,1.9,2,1.6,1.3c-0.2-0.5-0.4-1-0.7-1.4
					c0.6,0.6,1.4,1.3,1.1,0.7c-0.4-1.2-0.9-2.3-1.4-3.4c-0.1-0.2-0.2-0.4-0.3-0.7c-0.1-0.3-0.5-0.7-0.9-1.1c0,0,0-0.1-0.1-0.1
					c-0.1-0.6-0.3-1-0.7-1.3c-0.3-0.4-0.8-0.9-1.2-1.3c-0.4-0.7-1.1-0.6-1.4,0.2c-0.5,0.4-1,1-1.1,1.3c-0.2,0.4-0.4,0.7-0.5,1.1
					c-0.4,0.4-0.8,0.8-0.9,1.1c-0.1,0.3-0.2,0.5-0.3,0.7c-0.5,1.1-1,2.2-1.4,3.4c-0.2,0.6,0.6-0.1,1.1-0.7c-0.2,0.5-0.5,0.9-0.7,1.4
					c-0.3,0.8,1.4-1,1.6-1.3c0.2-0.3,0.5-0.7,0.7-1c0,0,0,0.1-0.1,0.1c-0.1,0.2-0.3,0.4-0.4,0.7c-0.4,1.1-0.9,2-1.3,3
					c-0.2,0.5,0.4,0,0.8-0.4c-0.3,0.4-0.6,0.7-0.9,1.1c0,0,0,0,0.1,0c-0.2,0.3-0.4,0.6-0.5,0.7c-0.7,1.1,0.4,0.2,1-0.4
					c-0.5,0.8-1,1.7-1.5,2.5c-0.1,0.3-0.2,0.4-0.2,0.5c-0.1,0.1-0.2,0.2-0.3,0.4c-1,1.4,0,1,0.6,0.3c0.5-0.5,0.9-1,1.4-1.5
					c0,0,0,0,0,0c-0.9,1.1-1.7,2.5-2.5,4c-0.4,0.9,1.4-0.8,1.6-1.1c0.1-0.2,0.2-0.3,0.3-0.5c-0.1,0.3-0.1,0.6-0.2,0.9
					c-0.4,0.7-0.8,1.4-1.1,1.8c-0.7,1.2,0.3,0.4,0.7,0.1c0,0.1,0,0.2-0.1,0.3c-0.3,0.4-0.6,0.8-0.9,1.3c-0.2-0.1-0.4-0.2-0.7-0.3
					c-0.2-0.5-0.5-1.2-0.8-1.8c-0.2-0.5-0.4-1.1-0.6-1.6c0.1,0.1,0.2,0.3,0.2,0.4c0.4,0.6,0.6,0.6,0.5,0.4c0.1,0.1,0.2,0.2,0.3,0.3
					c0.4,0.5,0.5,0.3,0.3-0.3c-0.3-0.9-0.8-1.7-1.3-2.4c0,0,0,0,0-0.1c0-0.1-0.1-0.2-0.1-0.4c0.5,0.4,0.9,0.8,1.4,1.2
					c0.2,0.2,0.3,0.1,0.2-0.3c-0.3-1-0.7-1.9-1.3-2.7c0.1-0.3-0.9-2.4-1.1-2.7c-0.4-0.6-1-1.3-1.5-2c0.3,0.2,0.5,0.5,0.8,0.8
					c0.3,0.4,0.6,0.8,0.9,1.1c0.1,0.1,0.2,0.2,0.3,0.3c0.5,0.5,0-0.8-0.1-1c0-0.1-0.1-0.1-0.1-0.2c0,0,0-0.3-0.2-0.6
					c0.2,0.3,0.4,0.6,0.6,0.9c0.8,1.1,0.1-0.8-0.1-1.2c-0.6-1.3-1.4-2.4-2.2-3.6c0,0,0-0.1-0.1-0.2c0,0,0,0,0.1,0.1
					c0.1,0.1,0.1,0.2,0.2,0.4c0.4,0.6,0.9,1.2,1.4,1.5c0.3,0.2-0.2-1.1-0.2-1.1c-0.2-0.6-0.5-1.1-0.8-1.6c-0.3-0.7-0.7-1.4-1.1-1.9
					c-0.6-0.7-1.2-1.4-1.8-1.9c-0.1-0.1-0.2-0.2-0.3-0.3c-0.1-0.1-0.1-0.1-0.2-0.2c-0.1-0.1-0.2-0.1-0.2-0.1c0-0.1,0-0.1,0-0.1
					c0,0,0,0-0.1,0c0-0.1-0.2-0.1-0.4,0.2c-0.1,0.1-0.2,0.2-0.3,0.3c-0.7,0.6-1.3,1.2-1.8,1.9c-0.4,0.5-0.8,1.2-1.1,1.9
					c-0.3,0.5-0.6,1-0.8,1.6c0,0-0.5,1.3-0.2,1.1c0.5-0.3,1-0.9,1.4-1.5c0.1-0.1,0.1-0.2,0.2-0.4c0,0,0,0,0.1-0.1
					c-0.1,0.1-0.1,0.2-0.1,0.2c-0.8,1.1-1.6,2.2-2.2,3.6c-0.1,0.2-0.3,0.7-0.4,1c-0.1-0.4-1-1.9-1.1-2.1c-0.6-0.7-1.2-1.4-1.7-2.3
					c0,0,0-0.1-0.1-0.1c0.4,0.4,0.8,0.9,1.3,1.3c0.7,0.7,0.3-0.4,0-0.9c-0.8-1.4-1.6-2.4-2.6-3.5c0.8,0.9,1.6,1.8,2.4,2.7
					c1,1.1,0.5-0.3,0-1c-0.6-0.6-1-1.4-1.4-2.4c0.1,0.2,0.3,0.4,0.4,0.6c0.6,0.7,1.4,1.1,0.5-0.4c-0.4-0.7-1-1.7-1.6-2.5
					c-0.2-0.4-0.4-0.9-0.7-1.3c-0.1-0.3-0.6-0.9-1.1-1.4c-0.2-0.3-0.4-0.5-0.6-0.6c0.1-0.2,0-0.2-0.2-0.1c-0.1-0.1-0.2-0.1-0.2,0.1
					c-0.2,0-0.4,0.2-0.5,0.5c-0.5,0.5-1,1.2-1.1,1.4c-0.2,0.4-0.4,0.9-0.6,1.3c-0.6,0.8-1.1,1.8-1.6,2.5c-0.9,1.5-0.1,1.1,0.5,0.4
					c0.2-0.2,0.3-0.4,0.4-0.6c-0.3,1-0.8,1.8-1.4,2.4c-0.5,0.8-1,2.1,0,1c0.8-0.8,1.5-1.7,2.3-2.5l0,0c-0.9,1-1.6,2-2.4,3.3
					c-0.3,0.5-0.7,1.5,0,0.9c0.4-0.4,0.8-0.8,1.3-1.3c0,0,0,0.1-0.1,0.1c-0.6,0.8-1.1,1.6-1.7,2.3c-0.1,0.1-0.5,0.8-0.8,1.4
					c-0.3-0.8-1-2.2-1.2-2.5c-0.2-0.3-0.5-0.7-0.7-1c0-0.1,0-0.2,0-0.3c0.8,0.7,1.6,1.4,2.4,1.9c0.1,0.1,0.1-0.2,0-0.5
					c0,0,0.1,0.1,0.1,0.1c0.7,0.5-0.2-1.3-0.3-1.4c-0.6-1.1-1.4-2.3-2.2-3.3c0,0,0-0.1-0.1-0.1c-0.3-0.4-0.5-0.8-0.8-1.2
					c0.7,0.3,2.2,1.4,2.5,1.5c0.3,0.2,0-0.7,0-0.7c0,0,0,0,0-0.1c0.7,0.6-0.5-1.7-0.8-2.3c0.1,0.1,0.2,0.2,0.4,0.3
					c0.7,0.6-0.5-1.9-0.6-2c-1.3-2.2-2.3-5.1-4.1-6.6c-0.1,0-0.1-0.1-0.1-0.1c0-0.1-0.1-0.1-0.3,0c-0.1,0.1-0.2,0.2-0.4,0.4
					c-0.2,0.1-0.3,0.2-0.4,0.4c-1.4,1.6-2.2,4-3.4,5.9c-0.1,0.2-1.4,2.7-0.6,2c0.1-0.1,0.2-0.2,0.4-0.3c-0.3,0.6-1.5,2.8-0.8,2.3
					c0,0,0,0,0,0.1c0,0-0.3,0.9,0,0.7c0.3-0.2,1.8-1.2,2.5-1.5c-0.2,0.4-0.5,0.8-0.8,1.2c0,0,0,0.1-0.1,0.1c-0.8,1-1.6,2.1-2.2,3.3
					c-0.1,0.2-1,1.9-0.3,1.4c0,0,0.1-0.1,0.1-0.1c-0.1,0.3-0.2,0.6,0,0.5c1-0.6,1.9-1.5,2.8-2.3c0,0.1-0.1,0.1-0.1,0.2
					c-0.4,0.5-0.7,1-1.1,1.5c-0.3,0.4-1.5,3.1-1.4,3c0.1-0.1,0.2-0.2,0.4-0.3c-0.2,0.3-0.5,0.6-0.7,0.9c-0.2,0.2-0.7,1.2-1.1,2
					c-0.1-0.4-0.4-1.1-0.9-1.7c-0.1-0.1-0.2-0.2-0.3-0.4v0c0.9,0.9-0.1-1.2-0.6-1.8c-0.2-0.2-0.4-0.5-0.6-0.8c0,0,0,0,0,0
					c0,0,0,0,0,0c-0.3-0.4-0.6-0.7-0.9-1c0,0,0,0,0,0c0.3,0.3,0.8,0.8,1.7,1.7c0.6,0.6,1.1,1.1,1.7,1.7c1.1,1-0.6-1.9-0.9-2.1
					c-0.6-0.7-1.3-1.6-1.9-2.4c0,0,0-0.1-0.1-0.1c0.5,0.5,0.9,0.9,1.4,1.4c0.7,0.7,0.3-0.5,0-0.9c-0.9-1.6-1.7-2.6-2.8-3.8
					c0.9,1,1.7,2,2.6,2.9c1.1,1.2,0.6-0.3,0-1.1c-0.6-0.6-1.1-1.5-1.5-2.6c0.2,0.2,0.3,0.4,0.5,0.6c0.6,0.8,1.5,1.2,0.6-0.4
					c-0.5-0.8-1.1-1.9-1.7-2.7c-0.2-0.5-0.5-0.9-0.7-1.4c-0.1-0.3-0.7-0.9-1.1-1.5c-0.2-0.3-0.4-0.5-0.6-0.6c0.1-0.2,0-0.2-0.2-0.1
					c-0.2-0.1-0.2-0.1-0.2,0.1c-0.2,0.1-0.4,0.2-0.5,0.6c-0.5,0.6-1.1,1.3-1.2,1.5c-0.2,0.5-0.5,0.9-0.7,1.4
					c-0.6,0.9-1.2,1.9-1.7,2.7c-0.9,1.6-0.1,1.1,0.6,0.4c0.2-0.2,0.3-0.4,0.5-0.6c-0.4,1.1-0.8,2-1.5,2.6c-0.6,0.8-1.1,2.3,0,1.1
					c0.8-0.9,1.6-1.8,2.4-2.7c0,0,0,0,0,0c-1,1.1-1.8,2.1-2.6,3.6c-0.3,0.5-0.7,1.7,0,0.9c0.5-0.5,0.9-0.9,1.4-1.4
					c0,0,0,0.1-0.1,0.1c-0.6,0.9-1.2,1.7-1.9,2.4c-0.2,0.3-1.9,3.1-0.9,2.1c0.6-0.5,1.2-1.1,1.7-1.7c0.6-0.6,1-1,1.3-1.3
					c0,0,0,0,0,0.1c-0.1,0.2-0.3,0.3-0.4,0.5c0,0,0,0,0,0c0,0,0,0,0,0c-0.2,0.3-0.4,0.5-0.6,0.8c-0.5,0.6-1.5,2.7-0.6,1.8v0
					c-0.1,0.2-0.3,0.3-0.3,0.4c-1,1.2-1.5,3,0,1.3c0.3-0.2,0.6-0.4,0.9-0.7c-0.5,0.8-1.1,1.6-1.7,2.4c-0.1,0.1-0.3,0.4-0.5,0.8
					c0-0.1-0.1-0.1-0.1-0.2c-0.3-0.6-1-1.6-1.5-2.4c0-0.2,0-0.4-0.1-0.6c0.2,0.2,0.4,0.5,0.6,0.8c0.2,0.2,2,1.9,1.6,1.1
					c-0.7-1.4-1.5-2.8-2.4-3.9c0,0,0,0,0,0c0.5,0.5,0.9,1,1.4,1.5c0.6,0.6,1.5,1,0.5-0.3c-0.1-0.1-0.2-0.2-0.3-0.4
					c0-0.1,0-0.2-0.2-0.5c-0.4-0.8-0.9-1.6-1.4-2.4c0.6,0.5,1.6,1.4,1,0.4c-0.1-0.1-0.3-0.4-0.5-0.7c0,0,0,0,0.1,0
					c-0.3-0.4-0.6-0.7-0.8-1.1c0.4,0.4,1,0.9,0.8,0.4c-0.4-1-0.9-1.9-1.3-2.9c-0.1-0.1-0.2-0.3-0.2-0.4c0,0,0-0.1,0-0.1
					c0.2,0.2,0.3,0.4,0.5,0.7c0.2,0.3,1.9,2,1.5,1.2c-0.2-0.5-0.4-0.9-0.7-1.4c0.6,0.6,1.3,1.3,1.1,0.7c-0.4-1.2-0.9-2.2-1.4-3.3
					c-0.1-0.2-0.2-0.4-0.3-0.7c-0.1-0.3-0.5-0.7-0.9-1.1c0,0,0-0.1-0.1-0.1c-0.1-0.5-0.3-1-0.6-1.2c-0.3-0.4-0.8-0.9-1.2-1.3
					c-0.4-0.7-1.1-0.6-1.4,0.2c-0.5,0.4-1,1-1.1,1.3c-0.2,0.4-0.3,0.7-0.5,1.1c-0.4,0.4-0.7,0.8-0.9,1.1c-0.1,0.3-0.2,0.5-0.3,0.7
					c-0.5,1.1-0.9,2.2-1.4,3.3c-0.2,0.6,0.5-0.1,1.1-0.7c-0.2,0.5-0.4,0.9-0.7,1.4c-0.3,0.7,1.4-1,1.5-1.2c0.2-0.3,0.5-0.7,0.7-1
					c0,0,0,0.1-0.1,0.1c-0.1,0.2-0.3,0.4-0.4,0.7c-0.4,1-0.9,1.9-1.3,2.9c-0.2,0.5,0.4,0,0.8-0.4c-0.3,0.4-0.6,0.7-0.8,1.1
					c0,0,0,0,0.1,0c-0.2,0.3-0.4,0.6-0.5,0.7c-0.6,1,0.4,0.2,1-0.4c-0.5,0.8-1,1.6-1.4,2.4c-0.1,0.3-0.2,0.4-0.2,0.5
					c-0.1,0.1-0.2,0.2-0.3,0.4c-0.9,1.3,0,0.9,0.5,0.3c0.5-0.5,0.9-1,1.4-1.5c0,0,0,0,0,0c-0.9,1-1.6,2.4-2.4,3.9
					c-0.4,0.8,1.4-0.8,1.6-1.1c0.1-0.2,0.2-0.3,0.3-0.4c-0.1,0.3-0.1,0.6-0.2,0.9c-0.4,0.7-0.8,1.3-1.1,1.7
					c-0.7,1.1,0.3,0.4,0.7,0.1c0,0.1,0,0.2-0.1,0.3c-0.3,0.4-0.6,0.8-0.9,1.3C75.1,88.6,75,88.9,75,89c-0.1,0.1-0.2,0.2-0.3,0.4
					c-0.1-0.3-0.3-0.5-0.5-0.8c0.1-0.3-0.9-2.5-1.1-2.7c-0.4-0.7-1-1.3-1.5-2c0.3,0.2,0.5,0.5,0.8,0.8c0.3,0.4,0.6,0.8,0.9,1.1
					c0.1,0.1,0.2,0.2,0.3,0.3c0.5,0.5,0-0.8-0.1-1c0-0.1-0.1-0.2-0.1-0.2c0,0,0-0.3-0.2-0.7c0.2,0.3,0.4,0.6,0.7,0.9
					c0.8,1.1,0.1-0.8-0.1-1.2c-0.7-1.3-1.5-2.5-2.2-3.6c0,0,0-0.1-0.1-0.2c0,0,0,0,0.1,0.1c0.1,0.1,0.1,0.3,0.2,0.4
					c0.4,0.6,0.9,1.2,1.4,1.5c0.3,0.2-0.2-1.1-0.2-1.1c-0.2-0.6-0.5-1.1-0.8-1.6c-0.3-0.7-0.7-1.4-1.1-2c-0.6-0.7-1.2-1.4-1.9-2
					c-0.1-0.1-0.2-0.2-0.3-0.3c-0.1-0.1-0.1-0.1-0.2-0.2c-0.1-0.1-0.2-0.1-0.2-0.1c0-0.1,0-0.1,0-0.1c0,0,0,0-0.1,0
					c0-0.1-0.2-0.1-0.4,0.2c-0.1,0.1-0.2,0.2-0.3,0.3c-0.7,0.6-1.3,1.2-1.9,2c-0.4,0.5-0.8,1.2-1.1,2c-0.3,0.5-0.6,1-0.8,1.6
					c0,0-0.5,1.3-0.2,1.1c0.5-0.4,1-0.9,1.4-1.5c0.1-0.1,0.1-0.2,0.2-0.4c0,0,0,0,0.1-0.1c-0.1,0.1-0.1,0.2-0.1,0.2
					c-0.8,1.1-1.6,2.3-2.2,3.6c-0.2,0.4-0.9,2.3-0.1,1.2c0.2-0.3,0.4-0.6,0.7-0.9c-0.1,0.4-0.2,0.7-0.2,0.7c0,0.1-0.1,0.2-0.1,0.2
					c-0.1,0.2-0.6,1.5-0.1,1c0.1-0.1,0.2-0.2,0.3-0.3c0.3-0.4,0.6-0.7,0.9-1.1c0.3-0.3,0.5-0.6,0.8-0.8c-0.5,0.7-1.1,1.4-1.5,2
					c-0.2,0.3-1.2,2.5-1.1,2.7c-0.5,0.8-1,1.7-1.2,2.6c-0.7-1.3-1.5-2.3-2.3-3.6c-1.5-2.5,1.2,0.6,1.9,1.2c0.7,0.5,0.3-0.3,0-0.7
					c-1.2-1.6-2.5-4.3-3.9-5.5c0.1,0.1,0.6,0.4,0.4,0c-0.2-0.5-0.4-0.9-0.7-1.4c0.1,0.1,0.2,0.1,0.3,0.1c0.2,0.1,0.1-0.1,0-0.2
					c-0.4-0.6-0.7-1-1.1-1.4c-0.1-0.2-0.3-0.3-0.4-0.4c-0.1-0.1-0.3-0.2-0.3-0.2c0,0,0,0,0,0c0,0,0,0,0,0c-0.1,0-0.3,0.2-0.4,0.2
					c0,0-0.1,0.1-0.1,0.1c-0.6,0.5-0.9,0.9-1.4,1.7c-0.1,0.1-0.2,0.3,0,0.2c0.1,0,0.2-0.1,0.3-0.1c-0.3,0.4-0.5,0.9-0.7,1.4
					c-0.2,0.4,0.2,0.1,0.3,0c0,0,0,0,0,0c-1.4,1.2-2.6,3.9-3.9,5.5c-0.3,0.4-0.7,1.2,0,0.7c0.6-0.4,2.2-2.3,2.4-2.1c0,0,0,0,0,0
					c0,0.1-0.1,0.3-0.4,1c-1,1.7-2.2,3-2.9,4.9c-0.2,0.4,1.1-0.5,1.1-0.5c0.6-0.5,1.2-1.1,1.7-1.7c0.3-0.3,0.5-0.5,0.6-0.6
					c0,0,0,0.1,0,0.1c-0.1,0.2-0.4,0.5-0.7,0.8c-0.8,0.8-1.5,1.7-2.3,2.7c-0.2,0.3-0.3,0.5-0.4,0.6c-0.5,0.7-1.6,2.2-0.5,1.5
					c0.2-0.1,0.5-0.3,0.9-0.5c-0.5,0.5-0.9,1-1.4,1.5c-0.3,0.4-1.5,2.2-0.3,1.4c0.6-0.5,1.3-1,2-1.5c-0.8,1-1.5,1.9-2.4,2.7
					c0,0,0,0,0,0c0-0.1-0.1-0.2-0.1-0.2c-0.8-1.4-1.7-2.7-2.7-3.9c0,0,0-0.1-0.1-0.1c-0.3-0.5-0.6-1-0.9-1.5
					c0.8,0.4,2.6,1.6,2.9,1.8c0.4,0.2-0.1-0.9-0.1-0.8c0,0,0,0,0-0.1c0.8,0.7-0.5-2-0.9-2.7c0.1,0.1,0.3,0.3,0.4,0.4
					c0.9,0.8-0.6-2.2-0.7-2.4c-1.6-2.6-2.7-6.1-4.9-7.9c-0.1,0-0.1-0.1-0.2-0.1c0-0.1-0.1-0.2-0.3,0c-0.2,0.1-0.3,0.3-0.4,0.4
					c-0.2,0.1-0.3,0.2-0.4,0.5c-1.6,1.9-2.7,4.8-4,7c-0.1,0.2-1.6,3.2-0.7,2.4c0.1-0.1,0.3-0.3,0.4-0.4c-0.4,0.7-1.8,3.4-1,2.7
					c0,0,0,0,0,0.1c0,0-0.4,1.1-0.1,0.8c0.3-0.2,2.1-1.5,2.9-1.8c-0.3,0.5-0.6,1-0.9,1.5c0,0,0,0.1-0.1,0.1c-1,1.2-1.9,2.5-2.7,3.9
					c0,0,0,0,0,0.1c-0.1-0.2-0.2-0.5-0.3-0.7c-0.8-1.5-1.6-2.4-2.6-3.5c0.8,0.9,1.6,1.8,2.4,2.7c1,1.1,0.5-0.3,0-1
					c-0.6-0.6-1-1.4-1.4-2.4c0.1,0.2,0.3,0.4,0.4,0.6c0.6,0.7,1.4,1.1,0.5-0.3c-0.4-0.7-1-1.7-1.6-2.5c-0.2-0.4-0.4-0.9-0.6-1.3
					c-0.1-0.2-0.6-0.9-1.1-1.4c-0.2-0.3-0.4-0.5-0.6-0.6c0.1-0.2,0-0.2-0.2-0.1c-0.1-0.1-0.2-0.1-0.2,0.1c-0.2,0-0.4,0.2-0.5,0.5
					c-0.5,0.5-1,1.2-1.1,1.4c-0.2,0.4-0.4,0.9-0.7,1.3c-0.6,0.8-1.1,1.8-1.6,2.5c-0.9,1.5-0.1,1.1,0.5,0.3c0.2-0.2,0.3-0.4,0.4-0.6
					c-0.3,1-0.8,1.8-1.4,2.4c-0.5,0.8-1,2.1,0,1c0.8-0.8,1.5-1.7,2.3-2.5c0,0,0,0,0,0c-0.9,1-1.6,2-2.4,3.3c-0.3,0.5-0.7,1.5,0,0.9
					c0.4-0.4,0.8-0.8,1.3-1.3c0,0,0,0.1-0.1,0.1c-0.6,0.8-1.1,1.6-1.7,2.3c-0.1,0.2-0.9,1.4-1.1,1.9c-0.4-1-0.8-1.9-1.2-2.8
					c-0.1-0.2-0.2-0.4-0.3-0.6c-0.1-0.2-0.4-0.6-0.8-1c0,0,0-0.1-0.1-0.1c-0.1-0.5-0.3-0.9-0.6-1.1c-0.3-0.4-0.7-0.8-1.1-1.1
					c-0.4-0.6-1-0.5-1.2,0.2c-0.4,0.4-0.9,0.9-1,1.2c-0.2,0.3-0.3,0.7-0.5,1c-0.4,0.4-0.7,0.7-0.8,1c-0.1,0.3-0.2,0.4-0.3,0.6
					c-0.4,1-0.9,2-1.3,3c-0.2,0.5,0.5-0.1,1-0.6c-0.2,0.4-0.4,0.8-0.6,1.3c-0.3,0.7,1.2-0.9,1.4-1.1c0.2-0.3,0.4-0.6,0.6-0.9
					c0,0,0,0.1-0.1,0.1c-0.1,0.2-0.2,0.4-0.4,0.6c-0.4,0.9-0.8,1.7-1.2,2.7c-0.2,0.5,0.3,0,0.7-0.4c-0.3,0.3-0.5,0.7-0.8,1
					c0,0,0,0,0.1,0c-0.2,0.3-0.4,0.5-0.5,0.6c-0.6,0.9,0.4,0.2,0.9-0.3c-0.4,0.7-0.9,1.5-1.3,2.2c-0.1,0.2-0.2,0.4-0.2,0.4
					c-0.1,0.1-0.2,0.2-0.2,0.3c-0.9,1.2,0,0.9,0.5,0.3c0.4-0.5,0.8-0.9,1.2-1.4c0,0,0,0,0,0c-0.8,1-1.5,2.2-2.2,3.5
					c-0.4,0.8,1.3-0.7,1.4-1c0.1-0.1,0.2-0.3,0.3-0.4c-0.1,0.3-0.1,0.6-0.2,0.8c-0.4,0.6-0.7,1.2-1,1.6c-0.6,1,0.3,0.3,0.6,0
					c0,0.1,0,0.2,0,0.2c-0.3,0.4-0.6,0.8-0.8,1.2c-0.2,0.3-0.3,0.5-0.4,0.7c-0.1,0.1-0.2,0.3-0.3,0.4c-0.1,0.1-0.8,1.3-0.2,1
					c0.5-0.3,0.9-0.7,1.3-1.1c0,0.1,0,0.2-0.1,0.3c-0.4,0.6-0.8,1-0.9,1.2c-1,1.3,0,0.8,0.6,0.2c-0.1,0.3-0.1,0.5-0.2,0.7
					c-0.1,0.2-0.2,0.3-0.3,0.5c-0.7,1-0.3,0.9,0.1,0.5c0,0.1,0,0.2-0.1,0.3c-0.4,0.6-0.7,1.2-1,1.9c-0.2,0.4,0,0.3,0.4,0
					c-0.5,0.8-0.9,1.7-0.2,1.1c-0.4,0.6-1.1,1.7-0.5,1.4c0,0.1-0.1,0.2-0.1,0.2h0.6c0.3-0.3,0.5-0.5,0.7-0.8c0,0.1,0.1,0.1,0.1,0.2
					c-0.1,0.1-0.2,0.2-0.3,0.3c-0.1,0.1-0.1,0.2-0.2,0.3H204c-0.1-0.1-0.2-0.3-0.3-0.4c0,0,0-0.1-0.1-0.1c0-0.1,0-0.2-0.1-0.3
					c0.2,0.3,0.5,0.6,0.7,0.9c0,0,0,0,0,0h0.7c-0.1-0.1-0.1-0.2-0.2-0.3c-0.5-0.6-0.9-1.2-1.4-1.7c0-0.1,0-0.2,0-0.3
					c0.7,0.8,1.3,1.5,2,2.3h0.6c0-0.1-0.1-0.1-0.1-0.2C206.4,122.2,205.7,121.1,205.3,120.5z M24.5,99.2c-0.1,0.1-0.3,0.3-0.4,0.5
					c0,0,0,0,0,0c0,0,0,0,0,0c-0.2,0.2-0.4,0.5-0.6,0.7c-0.4,0.6-1.4,2.5-0.5,1.7v0c-0.1,0.2-0.2,0.3-0.3,0.4
					c-0.9,1.1-1.4,2.8,0,1.2c0.3-0.2,0.5-0.4,0.8-0.6c-0.5,0.8-1,1.5-1.5,2.2c-0.1,0.1-0.5,0.7-0.7,1.2c-0.3-0.5-0.6-1.1-0.9-1.6
					c0.5,0.5,1.5,1.3,0.9,0.3c-0.1-0.1-0.2-0.4-0.5-0.6c0,0,0,0,0.1,0c-0.3-0.3-0.5-0.7-0.8-1c0.4,0.4,0.9,0.8,0.7,0.4
					c-0.4-0.9-0.8-1.7-1.2-2.7c-0.1-0.1-0.1-0.2-0.2-0.3c0,0,0-0.1,0-0.1c0.1,0.2,0.3,0.4,0.4,0.6c0.2,0.2,1.7,1.8,1.4,1.1
					c-0.2-0.4-0.4-0.8-0.6-1.3c0.5,0.5,1.1,1.1,1,0.7c0,0,0.1-0.1,0.2-0.1c0.6-0.5,1.1-1,1.6-1.5C23.8,99.8,24.2,99.4,24.5,99.2
					C24.5,99.1,24.5,99.2,24.5,99.2z M32.2,98.8c0.1,0.1,0.1,0.1,0.2,0.2c0,0.1-0.1,0.2-0.1,0.3c-0.4-0.5-0.8-1.1-1.2-1.7
					c0,0,0-0.1-0.1-0.1C31.3,98,31.7,98.4,32.2,98.8z M32.5,104.1c-0.2-0.3-0.5-0.7-0.7-1c0.3,0.2,0.5,0.4,0.8,0.6c0,0,0,0,0,0
					c0,0.1,0,0.1,0,0.1c0,0,0,0,0,0c0,0,0,0.1,0.1,0.1C32.7,103.9,32.6,104,32.5,104.1z M32.9,103c-0.1-0.2-0.2-0.3-0.3-0.5
					c-0.1-0.1-0.2-0.2-0.3-0.4v0c0.8,0.8-0.1-1.1-0.5-1.7c-0.2-0.2-0.4-0.5-0.6-0.7c0,0,0,0,0,0c0,0,0,0,0,0
					c-0.3-0.3-0.6-0.7-0.8-0.9c0,0,0,0,0,0c0.3,0.3,0.8,0.8,1.6,1.6c0,0.1,0,0.1,0.1,0.1c0.1,0.1,0.2,0.1,0.2,0.2
					c0,0.2,0,0.2,0.1,0.2c0,0,0,0,0.1,0c0.4,0.3,0.7,0.7,1.1,1C33.2,102.2,33.1,102.6,32.9,103z M35.5,98.4
					c-0.4,0.6-0.8,1.2-1.3,1.8c-0.1,0.2-0.4,0.7-0.6,1.2c-0.2-0.3-0.4-0.8-0.6-1.1c0.9-0.7,1.8-1.4,2.6-2.2
					C35.6,98.2,35.6,98.3,35.5,98.4z M49.2,97.8C49.2,97.8,49.2,97.8,49.2,97.8c-0.6,0.7-1.2,1.5-1.7,2.2c0-0.1-0.1-0.2-0.1-0.4
					C47.8,99.1,48.7,98.3,49.2,97.8z M44.3,99c0-0.1,0-0.3-0.1-0.4c0.6,0.5,1.2,1,1.8,1.5c-0.3,0.5-0.2,0.8,0.4,0.3
					c0.1,0.1,0.3,0.2,0.5,0.3c0,0,0,0,0,0.1c-0.4,0.5-0.9,1.5,0,0.9c0.4-0.2,1.2-0.7,2.1-1.2c-0.3,0.3-0.6,0.7-1,1
					c-0.3,0.3-1.1,1.2-1.3,1.8c-0.4-0.9-1.2-2.7-1.4-3.1C44.9,99.8,44.6,99.4,44.3,99z M48.6,103.6c0,0-0.2,0.2-0.3,0.5
					c-0.4,0.1-0.8,0.2-1.1,0.3c-0.2-0.3-0.5-0.6-0.7-0.9c0,0,0.1,0.1,0.1,0.1c0,0,0,0,0.1,0c0.1,0.1,0.2,0.1,0.2,0.2
					c0,0,0-0.1-0.1-0.2c0.1-0.1,0.3-0.2,0.5-0.3c0.2-0.2,0.5-0.4,0.7-0.6c-0.4,0.6-1,1.5-0.1,1c1-0.7,1.8-1.4,2.6-2.2c0,0,0,0,0,0
					C49.8,102.1,49.2,102.8,48.6,103.6z M61.6,93.2c-0.7-1-1.5-1.9-2.3-2.7c-0.7-0.9-1.2-1.5-0.1-0.4c0.6,0.6,1.1,1.1,1.7,1.7
					c0,0,0.6,0.4,0.9,0.6c-0.1,0.2-0.2,0.4-0.3,0.6C61.6,93.1,61.6,93.1,61.6,93.2z M62.3,93.9c0,0.1-0.1,0.1-0.1,0.2
					c-0.1-0.1-0.1-0.2-0.2-0.2c0-0.1-0.1-0.2-0.2-0.3c0,0,0.1-0.1,0.1-0.1c0.1-0.1,0.2-0.2,0.3-0.3c0,0.2,0.1,0.3,0.4-0.3
					c0,0.1,0,0.1,0,0.2C62.6,93.3,62.4,93.6,62.3,93.9z M63,90.6C63,90.6,62.9,90.6,63,90.6c-0.4,0.5-0.6,1-0.9,1.5
					c-0.1-0.2-0.2-0.5-0.3-0.7c0.5-0.4,0.9-0.8,1.4-1.2C63,90.3,63,90.5,63,90.6z M74.6,91c-0.1,0.1-0.2,0.3-0.2,0.4
					c-0.1-0.2-0.2-0.4-0.4-0.6c0,0,0,0,0-0.1c0-0.1-0.1-0.3-0.1-0.4C74.1,90.6,74.4,90.8,74.6,91z M74.7,93.8
					c-0.1-0.2-0.2-0.3-0.4-0.4c-0.1-0.3-0.2-0.6-0.4-0.9c0.1,0.1,0.2,0.3,0.3,0.4c0.1,0.1,0.2,0.2,0.2,0.3c0,0.1,0,0.2,0.1,0.1
					c0.2,0.2,0.2,0.1,0.2-0.1c0.1,0.1,0.1,0.1,0.1,0.2C74.9,93.5,74.8,93.6,74.7,93.8z M75.2,91.9c-0.1,0.1-0.2,0.3-0.3,0.4
					c-0.1-0.2-0.2-0.4-0.3-0.7c0.1-0.1,0.3-0.2,0.5-0.3c0.1,0.1,0.2,0.1,0.2,0.2c0,0,0,0,0,0C75.3,91.7,75.3,91.8,75.2,91.9z
					 M75.7,89.6c-0.2,0.3-0.4,0.5-0.6,0.8c0-0.1-0.1-0.2-0.1-0.3c0.3-0.2,0.5-0.5,0.8-0.8C75.8,89.3,75.8,89.5,75.7,89.6z
					 M85.7,89.1c-0.2-0.3-0.5-0.7-0.7-1l0-0.2c0.2,0.3,0.4,0.5,0.6,0.8c0.1,0.1,0.1,0.1,0.2,0.2C85.8,89,85.8,89.1,85.7,89.1z
					 M86,87.6c-0.3-0.5-0.7-1-1-1.4c0.2,0.2,0.3,0.3,0.5,0.5c0.1,0.1,0.5,0.4,0.7,0.6C86.1,87.3,86,87.5,86,87.6z M98.9,85.7
					c-0.5-0.6-0.9-1.3-1.4-2c0.3,0.2,0.6,0.4,0.9,0.7c0.4,0.5,0.6,0.7,0.8,0.7C99.1,85.4,99,85.6,98.9,85.7z M112,87
					c-0.3-0.4-0.5-0.7-0.8-1.1c0.3,0.2,0.7,0.5,1,0.7C112.1,86.7,112.1,86.9,112,87z M115.3,79.8c-0.1,0.1-0.3,0.3-0.4,0.5
					c0,0,0,0,0,0c0,0,0,0,0,0c-0.2,0.2-0.4,0.5-0.6,0.7c-0.4,0.6-1.4,2.5-0.5,1.7v0c-0.1,0.2-0.2,0.3-0.3,0.4
					c-0.1,0.1-0.1,0.1-0.2,0.2c-0.1-0.2-0.2-0.3-0.2-0.3c-0.2-0.2-0.3-0.4-0.5-0.5c0,0,0,0,0.1-0.1c0,0,0,0,0,0c0,0,0,0,0,0
					c0.5-0.5,1-0.9,1.5-1.4C114.7,80.4,115,80,115.3,79.8C115.3,79.8,115.3,79.8,115.3,79.8z M125.8,83.4c-0.2,0.3-1.1,2.4-1.1,2.7
					c-0.1,0.1-0.1,0.2-0.2,0.3c-0.2-0.3-0.3-0.5-0.4-0.6c-0.5-0.7-1-1.4-1.5-2.2c0.3,0.2,0.5,0.4,0.8,0.6c1.4,1.6,0.9,0,0-1.2
					c-0.1-0.1-0.2-0.2-0.3-0.4v0c0.8,0.8-0.1-1.1-0.5-1.7c-0.2-0.2-0.4-0.5-0.6-0.7v0c0,0,0,0,0,0c-0.3-0.3-0.6-0.7-0.8-0.9
					c0,0,0,0,0,0c0.3,0.3,0.8,0.8,1.6,1.6c0.5,0.5,1.1,1,1.6,1.5c0.2,0.1,0.2,0.2,0.3,0.2c-0.1,0.4-0.1,0.6,0.3,0.1
					c0.2-0.3,0.4-0.6,0.6-0.9c-0.1,0.4-0.2,0.7-0.2,0.6c0,0.1-0.1,0.2-0.1,0.2c-0.1,0.2-0.6,1.5-0.1,1c0.1-0.1,0.2-0.2,0.3-0.3
					c0.3-0.4,0.6-0.7,0.9-1.1c0.2-0.3,0.5-0.6,0.8-0.8C126.7,82.1,126.2,82.8,125.8,83.4z M147.8,93.5c0.2,0.3,0.5,0.5,0.7,0.8
					c0.5,0.7,1.1,1.2,1.7,1.7c-0.1,0.2-0.1,0.3-0.1,0.3c0,0.1-0.1,0.1-0.1,0.2c0,0,0,0,0,0c-0.2-0.3-1.3-1.7-2.1-2.8
					C147.8,93.7,147.8,93.6,147.8,93.5z M148.3,96c-0.2-0.2-0.3-0.5-0.4-0.6c0-0.1,0-0.1,0-0.2c0.2,0.2,0.6,0.6,1.1,1.3
					c0.1,0.2,0.4,0.4,0.6,0.6c-0.1,0.2-0.2,0.3-0.2,0.4C149,96.9,148.7,96.5,148.3,96z M151.2,99.3c0,0.1-0.1,0.1-0.1,0.2
					c-0.3,0-0.5,0-0.8,0c0.3-0.3,0.6-0.6,0.7-0.7c0.1-0.2,0.3-0.4,0.4-0.5C151.4,98.6,151.3,98.9,151.2,99.3z M152,95.4
					c-0.7,0.9-1.4,1.9-2,3c-0.1-0.1-0.1-0.2-0.2-0.3c-0.1-0.1-0.2-0.2-0.2-0.4c0.2-0.1,0.4-0.2,0.6-0.4c0.2,0.1,0.3,0,0.2-0.2
					c0,0,0,0,0.1-0.1C151,96.5,151.5,96,152,95.4C152,95.4,152,95.4,152,95.4z M161.9,93.9c-0.1,0.3-0.2,0.6-0.3,0.8
					c-0.4-0.6-0.7-1.2-1.1-1.8C161,93.3,161.7,93.9,161.9,93.9z M161.4,99.4c-0.2-0.3-0.4-0.7-0.6-1c0-0.2,0-0.5-0.1-0.7
					c0.2,0.3,0.5,0.6,0.7,1c0,0,0.1,0.1,0.2,0.2C161.6,99.1,161.5,99.3,161.4,99.4z M161.7,97.2c0.1,0,0.2-0.1,0.2-0.2
					c0,0,0.1,0.1,0.1,0.1c0.2,0.2,0.4,0.4,0.6,0.5c-0.1,0.2-0.3,0.3-0.4,0.5C162.1,97.8,161.9,97.5,161.7,97.2z M163.2,100.3
					c-0.2,0.3-0.5,0.7-0.7,1h0c-0.1-0.1-0.1-0.2-0.2-0.3C162.6,100.7,162.9,100.5,163.2,100.3C163.2,100.2,163.2,100.3,163.2,100.3
					C163.2,100.3,163.2,100.3,163.2,100.3z M163,97.2C163,97.2,163,97.2,163,97.2c-0.1-0.1-0.2-0.2-0.3-0.4c0-0.1-0.1-0.1-0.1-0.2
					c0.4-0.3,0.9-0.5,1.2-0.7C163.5,96.4,163.3,96.8,163,97.2z M172.1,102.5c0,0,0,0.1-0.1,0.1c-0.1,0-0.3-0.1-0.4-0.1
					c-0.1-0.3-0.2-0.5-0.3-0.6c-0.2-0.3-0.5-0.7-0.7-1c0-0.1,0-0.2,0-0.3c0.3,0.3,0.7,0.6,1,0.9l0,0c-0.1,0.3,0,0.2,0.2,0.1
					c0.2,0.2,0.4,0.3,0.6,0.5C172.3,102.2,172.2,102.3,172.1,102.5z M173.1,100.9c0,0.1-0.1,0.1-0.1,0.2c-0.1-0.2-0.2-0.3-0.2-0.4
					c0.1-0.1,0.2-0.2,0.2-0.2c0.1-0.1,0.2-0.3,0.3-0.4C173.2,100.3,173.1,100.6,173.1,100.9z M173.7,97.9c-0.5,0.6-0.9,1.3-1.3,2
					c-0.1-0.1-0.2-0.2-0.2-0.4c0.1-0.1,0.2-0.2,0.3-0.3C172.9,98.8,173.3,98.3,173.7,97.9C173.7,97.9,173.7,97.9,173.7,97.9z
					 M181.2,104.4c0.1,0.1,0.2,0.2,0.3,0.3c0,0,0,0.1-0.1,0.1c-0.3-0.3-0.5-0.7-0.8-1c0-0.1,0-0.1,0-0.2
					C180.8,103.9,181,104.1,181.2,104.4z M194.7,102.1C194.7,102.1,194.8,102,194.7,102.1c0.1,0,0.1,0,0.2,0.1c0,0,0-0.1,0-0.2
					c0.2-0.2,0.4-0.4,0.6-0.6c-0.2,0.3-0.3,0.7-0.5,1.1C194.9,102.3,194.8,102.2,194.7,102.1z M196.9,100.7
					c-0.1,0.2-0.2,0.4-0.4,0.6c-0.3,0.7-0.6,1.3-0.9,1.9c-0.2-0.3-0.3-0.5-0.4-0.6c0,0-0.1-0.1-0.1-0.1c0.4-0.3,1-1,1.1-1.1
					c0.2-0.3,0.4-0.6,0.6-0.9C196.9,100.6,196.9,100.7,196.9,100.7z"/>
				<path class="st2" d="M35.5,85.8C35.5,85.8,35.5,85.9,35.5,85.8C35.6,85.9,35.6,85.8,35.5,85.8z"/>
			</g>
			<line class="st3" x1="10" y1="135.6" x2="89.3" y2="135.6"/>
			<line class="st3" x1="126.4" y1="135.6" x2="206.1" y2="135.6"/>
		</g>
		<g>
			<path class="st5" d="M-86.1,237.6c0.2,0,0.3,0.1,0.3,0.3c0,0.1-0.1,0.3-0.3,0.3c0,0.2,0.1,0.4,0.3,0.6c0.4,0.6,1.2,0.9,2.3,0.9
				c1.7,0,2.8-1.2,2.8-2.6c0-1.2-0.7-1.9-1.7-2.3c-0.5-0.2-1.1-0.3-1.8-0.3h-0.2v-0.2h0.2c0.7,0,1.3-0.1,1.8-0.4
				c0.9-0.4,1.5-1.2,1.5-2.2c0-1.2-0.9-2.2-2.5-2.2c-1,0-1.8,0.4-2.2,1c-0.1,0.2-0.2,0.4-0.2,0.6c0.2,0,0.3,0.2,0.3,0.3
				c0,0.2-0.1,0.3-0.3,0.3c-0.2,0-0.3-0.1-0.3-0.4c0-0.2,0.1-0.6,0.3-0.9c0.4-0.7,1.3-1.1,2.4-1.1c1.8,0,2.8,1.2,2.8,2.4
				c0,1.1-0.6,2-1.7,2.4c-0.3,0.1-0.6,0.2-1,0.3c0.3,0,0.6,0.1,0.9,0.2c1.1,0.4,1.9,1.2,1.9,2.5c0,1.6-1.3,2.8-3.1,2.8
				c-1.2,0-2.1-0.4-2.6-1.1c-0.2-0.3-0.3-0.6-0.3-0.8C-86.4,237.8-86.3,237.6-86.1,237.6z"/>
			<path class="st5" d="M-74.5,236.5h-4.9l0-0.1l5.1-7.1l0.2,0.1l-5,6.8h4.6v-3.5l0.2-0.1v3.5h2v0.2h-2v3.4h-0.2V236.5z"/>
			<path class="st5" d="M-71.1,237.6h2v-8l-1.9,0.6l-0.1-0.2l2.1-0.6h0.1v8.2h2v0.2h-4.2V237.6z"/>
			<path class="st5" d="M-60.4,234v-7h-1.7v-0.2h3.7v0.2h-1.7v7c0,2.5,1.2,3.9,3.3,3.9c2.2,0,3.3-1.3,3.3-3.9v-7h-1.7v-0.2h3.6v0.2
				h-1.7v7c0,2.6-1.3,4.1-3.6,4.1C-59.1,238.1-60.4,236.6-60.4,234z"/>
			<path class="st5" d="M-51,237.6c0-0.2,0.2-0.3,0.3-0.3c0.2,0,0.3,0.2,0.3,0.3c0,0.2-0.2,0.3-0.3,0.3C-50.9,238-51,237.8-51,237.6
				z"/>
			<path class="st5" d="M-48.6,235.9c0-0.3,0.1-0.5,0.3-0.5c0.1,0,0.3,0.1,0.3,0.3c0,0.2-0.1,0.3-0.3,0.4c0.2,0.8,1.3,1.7,3,1.7
				c1.9,0,3.1-1.1,3.1-2.6c0-1.7-1.5-2.4-3-3c-1.5-0.6-3.1-1.3-3.1-3.1c0-1.5,1.3-2.6,3.1-2.6c1.7,0,2.9,1,2.9,2
				c0,0.3-0.1,0.4-0.3,0.4c-0.2,0-0.3-0.1-0.3-0.3c0-0.2,0.1-0.3,0.3-0.4c-0.2-0.8-1.3-1.6-2.6-1.6c-1.7,0-2.9,1.1-2.9,2.4
				c0,1.7,1.5,2.3,3,2.9c1.5,0.6,3,1.4,3,3.2c0,1.7-1.4,2.8-3.3,2.8C-47.4,238-48.6,236.9-48.6,235.9z"/>
			<path class="st5" d="M-40.5,237.6c0-0.2,0.2-0.3,0.3-0.3c0.2,0,0.3,0.2,0.3,0.3c0,0.2-0.2,0.3-0.3,0.3
				C-40.3,238-40.5,237.8-40.5,237.6z"/>
			<path class="st5" d="M-34.3,237.6h2v-8l-1.9,0.6l-0.1-0.2l2.1-0.6h0.1v8.2h2v0.2h-4.2V237.6z"/>
			<path class="st5" d="M-29,239.5c0.5-0.5,0.7-1,0.8-1.5c-0.2,0-0.4-0.1-0.4-0.3c0-0.2,0.1-0.3,0.3-0.3c0.2,0,0.4,0.2,0.4,0.5
				c0,0.7-0.4,1.3-0.9,1.7L-29,239.5z"/>
			<path class="st5" d="M-21.9,227h-1.6v-0.2h3.7v0.2h-1.8l3.1,10.7l3-9.3h0.2l3,9.3l3.1-10.7h-1.9v-0.2h3.7v0.2H-9l-3.3,11.1h-0.2
				l-3-9.3l-3,9.3h-0.2L-21.9,227z"/>
			<path class="st5" d="M-7.7,234.3L-7.7,234.3c0,2.2,1.3,3.5,3.2,3.5c0.9,0,1.8-0.3,2.4-0.8l0,0.2c-0.6,0.4-1.4,0.7-2.4,0.7
				c-2,0-3.5-1.3-3.5-3.6c0-2,1.5-3.5,3.2-3.5c2,0,3,1.6,3,3.3c0,0.1,0,0.1,0,0.2H-7.7z M-7.7,234.1H-2c0-1.6-0.9-3-2.8-3
				C-6.3,231.1-7.6,232.3-7.7,234.1z"/>
			<path class="st5" d="M4.4,232.5c-0.2,0-0.3-0.1-0.3-0.3c0-0.1,0.1-0.2,0.3-0.3c-0.1-0.1-0.1-0.2-0.2-0.3c-0.4-0.3-1-0.6-1.8-0.6
				c-1.2,0-2.1,0.7-2.1,1.6c0,0.9,1,1.3,2.2,1.6c1.3,0.3,2.4,0.7,2.4,1.9c0,1-1,1.8-2.5,1.8c-1.2,0-2-0.5-2.4-1
				c-0.1-0.2-0.2-0.4-0.2-0.5c0-0.2,0.1-0.3,0.3-0.3c0.2,0,0.3,0.1,0.3,0.3c0,0.2-0.1,0.3-0.2,0.3c0.2,0.5,1,1.1,2.3,1.1
				c1.4,0,2.3-0.7,2.3-1.6c0-1.1-1-1.4-2.3-1.8C1,234.1,0,233.7,0,232.6c0-1,1-1.8,2.3-1.8c1,0,1.7,0.4,2.1,0.7
				c0.2,0.2,0.3,0.4,0.3,0.6C4.6,232.4,4.5,232.5,4.4,232.5z"/>
			<path class="st5" d="M7.2,237.1c-0.1-0.3-0.1-0.6-0.1-0.9v-5H5.8V231h1.3V229l0.2-0.1v2h2.4v0.2H7.3v5c0,0.3,0,0.6,0.1,0.8
				c0.2,0.5,0.6,0.7,1.1,0.7c0.5,0,0.9-0.2,1.2-0.4l0,0.2C9.4,237.8,9,238,8.5,238C7.9,238,7.4,237.7,7.2,237.1z"/>
			<path class="st5" d="M10.9,234.4c0-2,1.5-3.5,3.4-3.5c2,0,3.4,1.5,3.4,3.5c0,2-1.5,3.5-3.4,3.5C12.3,238,10.9,236.4,10.9,234.4z
				 M17.5,234.4c0-1.9-1.3-3.3-3.2-3.3c-1.8,0-3.2,1.5-3.2,3.3c0,1.9,1.4,3.3,3.2,3.3C16.2,237.8,17.5,236.3,17.5,234.4z"/>
			<path class="st5" d="M20.6,232.6c0.7-0.8,1.7-1.7,2.9-1.7c0.9,0,1.5,0.4,1.8,1c0.2,0.4,0.3,0.9,0.3,1.5v4.3h1.3v0.2H24v-0.2h1.4
				v-4.3c0-0.6-0.1-1.1-0.2-1.4c-0.3-0.5-0.8-0.9-1.6-0.9c-1.1,0-2.2,0.9-2.9,1.8v4.8H22v0.2h-2.9v-0.2h1.3v-6.5h-1.3V231h1.6V232.6
				z"/>
			<path class="st5" d="M27.8,239.5c0.5-0.5,0.7-1,0.8-1.5c-0.2,0-0.4-0.1-0.4-0.3c0-0.2,0.1-0.3,0.3-0.3c0.2,0,0.4,0.2,0.4,0.5
				c0,0.7-0.4,1.3-0.9,1.7L27.8,239.5z"/>
			<path class="st5" d="M33.8,237.6h1.8l0.4-10.7h-1.7v-0.2h2l4.1,9.1l4.2-9.1h2v0.2h-1.7l0.4,10.7H47v0.2h-3.6v-0.2h1.6l-0.4-10.5
				l-4.2,9.1h-0.1l-4.1-9.1l-0.4,10.5h1.6v0.2h-3.6V237.6z"/>
			<path class="st5" d="M48.1,237.6h1.7V227h-1.7v-0.2h7.7v2.5h-0.2V227H50v5.1h4.2v0.2H50v5.4h5.5v-2.3h0.2v2.5h-7.7V237.6z"/>
			<path class="st5" d="M61.3,233.7c0-2.4,1.5-4.3,3.5-4.3c2.1,0,3.5,1.9,3.5,4.3c0,2.4-1.5,4.3-3.5,4.3
				C62.8,238,61.3,236.1,61.3,233.7z M68.2,233.7c0-2.3-1.4-4.1-3.3-4.1c-1.9,0-3.3,1.8-3.3,4.1c0,2.3,1.4,4.1,3.3,4.1
				C66.8,237.8,68.2,236,68.2,233.7z"/>
			<path class="st5" d="M74.2,236.5h-4.9l0-0.1l5.1-7.1l0.2,0.1l-5,6.8h4.6v-3.5l0.2-0.1v3.5h2v0.2h-2v3.4h-0.2V236.5z"/>
			<path class="st5" d="M81.8,236.5h-4.9l0-0.1l5.1-7.1l0.2,0.1l-5,6.8h4.6v-3.5l0.2-0.1v3.5h2v0.2h-2v3.4h-0.2V236.5z"/>
			<path class="st5" d="M85.6,230.6c-0.1,0.2-0.2,0.4-0.2,0.5c0.2,0.1,0.3,0.2,0.3,0.3c0,0.2-0.1,0.3-0.3,0.3
				c-0.2,0-0.3-0.1-0.3-0.4c0-0.2,0.1-0.6,0.3-0.9c0.4-0.7,1.2-1.2,2.3-1.2c1.6,0,2.5,0.9,2.5,2.1c0,1.3-0.9,2-2.2,2.9
				c-1.1,0.8-2.4,1.7-3,3.2h5.2V236h0.2v1.8h-5.7l-0.1-0.1c0.6-1.7,2-2.7,3.2-3.5c1.2-0.9,2.1-1.6,2.1-2.8c0-1.1-0.8-1.9-2.3-1.9
				C86.7,229.6,86,230,85.6,230.6z"/>
			<path class="st5" d="M96.8,236.5h-4.9l0-0.1l5.1-7.1l0.2,0.1l-5,6.8h4.6v-3.5l0.2-0.1v3.5h2v0.2h-2v3.4h-0.2V236.5z"/>
			<path class="st5" d="M159,237.6h1.7V227H159v-0.2h4.2c2.3,0,3.8,1.4,3.8,3.3c0,2-1.4,3.4-3.9,3.4c-0.9,0-1.7,0-2.2-0.1v4.3h1.7
				v0.2H159V237.6z M166.8,230.1c0-1.8-1.3-3.1-3.5-3.1H161v6.2c0.5,0,1.2,0.1,2.2,0.1C165.6,233.2,166.8,231.9,166.8,230.1z"/>
			<path class="st5" d="M168,225.9v-0.2h1.6v6.9c0.6-0.8,1.7-1.7,2.9-1.7c0.8,0,1.4,0.4,1.7,0.9c0.2,0.4,0.3,0.9,0.3,1.6v4.3h1.3
				v0.2H173v-0.2h1.4v-4.3c0-0.6-0.1-1.1-0.3-1.5c-0.3-0.5-0.8-0.8-1.6-0.8c-1.1,0-2.2,0.9-2.9,1.8v4.8h1.3v0.2H168v-0.2h1.3v-11.8
				H168z"/>
			<path class="st5" d="M176.9,234.4c0-2,1.5-3.5,3.4-3.5c2,0,3.4,1.5,3.4,3.5c0,2-1.5,3.5-3.4,3.5
				C178.3,238,176.9,236.4,176.9,234.4z M183.5,234.4c0-1.9-1.3-3.3-3.2-3.3c-1.8,0-3.2,1.5-3.2,3.3c0,1.9,1.4,3.3,3.2,3.3
				C182.2,237.8,183.5,236.3,183.5,234.4z"/>
			<path class="st5" d="M186.6,232.6c0.7-0.8,1.7-1.7,2.9-1.7c0.9,0,1.5,0.4,1.8,1c0.2,0.4,0.3,0.9,0.3,1.5v4.3h1.3v0.2H190v-0.2
				h1.4v-4.3c0-0.6-0.1-1.1-0.2-1.4c-0.3-0.5-0.8-0.9-1.6-0.9c-1.1,0-2.2,0.9-2.9,1.8v4.8h1.4v0.2h-2.9v-0.2h1.3v-6.5h-1.3V231h1.6
				V232.6z"/>
			<path class="st5" d="M194.2,234.3L194.2,234.3c0,2.2,1.3,3.5,3.2,3.5c0.9,0,1.8-0.3,2.4-0.8l0,0.2c-0.6,0.4-1.4,0.7-2.4,0.7
				c-2,0-3.5-1.3-3.5-3.6c0-2,1.5-3.5,3.2-3.5c2,0,3,1.6,3,3.3c0,0.1,0,0.1,0,0.2H194.2z M194.2,234.1h5.8c0-1.6-0.9-3-2.8-3
				C195.6,231.1,194.3,232.3,194.2,234.1z"/>
			<path class="st5" d="M201.8,232.6c0-0.2,0.2-0.3,0.3-0.3c0.2,0,0.3,0.2,0.3,0.3c0,0.2-0.2,0.3-0.3,0.3
				C202,232.9,201.8,232.8,201.8,232.6z M201.8,237.6c0-0.2,0.2-0.3,0.3-0.3c0.2,0,0.3,0.2,0.3,0.3c0,0.2-0.2,0.3-0.3,0.3
				C202,238,201.8,237.8,201.8,237.6z"/>
			<path class="st5" d="M208.3,233.5c0-2.8,1.2-6.1,4-8.2l0.2,0.2c-2.7,2.1-3.9,5.3-3.9,8c0,2.7,1.1,5.9,3.9,8l-0.2,0.2
				C209.6,239.5,208.3,236.2,208.3,233.5z"/>
			<path class="st5" d="M213.5,230.6c-0.1,0.2-0.2,0.4-0.2,0.5c0.2,0.1,0.3,0.2,0.3,0.3c0,0.2-0.1,0.3-0.3,0.3
				c-0.2,0-0.3-0.1-0.3-0.4c0-0.2,0.1-0.6,0.3-0.9c0.4-0.7,1.2-1.2,2.3-1.2c1.6,0,2.5,0.9,2.5,2.1c0,1.3-0.9,2-2.2,2.9
				c-1.1,0.8-2.4,1.7-3,3.2h5.2V236h0.2v1.8h-5.7l0-0.1c0.6-1.7,2-2.7,3.2-3.5c1.2-0.9,2.1-1.6,2.1-2.8c0-1.1-0.8-1.9-2.3-1.9
				C214.6,229.6,213.9,230,213.5,230.6z"/>
			<path class="st5" d="M220.2,233.7c0-2.4,1.5-4.3,3.5-4.3c2.1,0,3.5,1.9,3.5,4.3c0,2.4-1.5,4.3-3.5,4.3
				C221.7,238,220.2,236.1,220.2,233.7z M227,233.7c0-2.3-1.4-4.1-3.3-4.1c-1.9,0-3.3,1.8-3.3,4.1c0,2.3,1.4,4.1,3.3,4.1
				C225.7,237.8,227,236,227,233.7z"/>
			<path class="st5" d="M229.8,239.8l4.2-10.1h-5.2v2.1h-0.2v-2.3h5.7l0.1,0.1l-4.3,10.3L229.8,239.8z"/>
			<path class="st5" d="M234.2,241.5c2.7-2.1,3.8-5.3,3.8-8c0-2.7-1.1-5.9-3.8-8l0.2-0.2c2.7,2.1,4,5.4,4,8.2c0,2.8-1.2,6.1-4,8.2
				L234.2,241.5z"/>
			<path class="st5" d="M248.4,236.5h-4.9l0-0.1l5.1-7.1l0.2,0.1l-5,6.8h4.6v-3.5l0.2-0.1v3.5h2v0.2h-2v3.4h-0.2V236.5z"/>
			<path class="st5" d="M255.9,236.5H251l0-0.1l5.1-7.1l0.2,0.1l-5,6.8h4.6v-3.5l0.2-0.1v3.5h2v0.2h-2v3.4h-0.2V236.5z"/>
			<path class="st5" d="M259.1,235.2c0-1.4,1-2.4,2.5-2.7c-1.3-0.3-2.2-1.2-2.2-2.5c0-1.5,1.2-2.7,2.9-2.7c1.7,0,2.9,1.2,2.9,2.7
				c0,1.3-0.9,2.2-2.2,2.5c1.4,0.2,2.5,1.3,2.5,2.7c0,1.6-1.4,2.8-3.1,2.8C260.4,238,259.1,236.8,259.1,235.2z M265.1,235.2
				c0-1.5-1.3-2.6-2.9-2.6c-1.6,0-2.9,1.1-2.9,2.6c0,1.5,1.2,2.6,2.9,2.6C263.9,237.8,265.1,236.7,265.1,235.2z M264.9,229.9
				c0-1.3-1.1-2.4-2.7-2.4c-1.6,0-2.7,1.1-2.7,2.4c0,1.4,1.2,2.4,2.7,2.4C263.7,232.4,264.9,231.4,264.9,229.9z"/>
			<path class="st5" d="M266.7,233.2h2.8v0.2h-2.8V233.2z"/>
			<path class="st5" d="M271.1,237.6c0.2,0,0.3,0.1,0.3,0.3c0,0.1-0.1,0.3-0.3,0.3c0,0.2,0.1,0.4,0.3,0.6c0.4,0.6,1.2,0.9,2.3,0.9
				c1.7,0,2.8-1.2,2.8-2.6c0-1.2-0.7-1.9-1.7-2.3c-0.5-0.2-1.1-0.3-1.8-0.3h-0.2v-0.2h0.2c0.7,0,1.3-0.1,1.8-0.4
				c0.9-0.4,1.5-1.2,1.5-2.2c0-1.2-0.9-2.2-2.5-2.2c-1,0-1.8,0.4-2.2,1c-0.1,0.2-0.2,0.4-0.2,0.6c0.2,0,0.3,0.2,0.3,0.3
				c0,0.2-0.1,0.3-0.3,0.3c-0.2,0-0.3-0.1-0.3-0.4c0-0.2,0.1-0.6,0.3-0.9c0.4-0.7,1.3-1.1,2.4-1.1c1.8,0,2.8,1.2,2.8,2.4
				c0,1.1-0.6,2-1.7,2.4c-0.3,0.1-0.6,0.2-1,0.3c0.3,0,0.6,0.1,0.9,0.2c1.1,0.4,1.9,1.2,1.9,2.5c0,1.6-1.3,2.8-3.1,2.8
				c-1.2,0-2.1-0.4-2.5-1.1c-0.2-0.3-0.3-0.6-0.3-0.8C270.8,237.8,271,237.6,271.1,237.6z"/>
			<path class="st5" d="M278.3,233.7c0-2.4,1.5-4.3,3.5-4.3c2.1,0,3.5,1.9,3.5,4.3c0,2.4-1.5,4.3-3.5,4.3
				C279.8,238,278.3,236.1,278.3,233.7z M285.1,233.7c0-2.3-1.4-4.1-3.3-4.1c-1.9,0-3.3,1.8-3.3,4.1c0,2.3,1.4,4.1,3.3,4.1
				C283.8,237.8,285.1,236,285.1,233.7z"/>
			<path class="st5" d="M286.7,233.7c0-2.4,1.5-4.3,3.5-4.3c2.1,0,3.5,1.9,3.5,4.3c0,2.4-1.5,4.3-3.5,4.3
				C288.2,238,286.7,236.1,286.7,233.7z M293.5,233.7c0-2.3-1.4-4.1-3.3-4.1c-1.9,0-3.3,1.8-3.3,4.1c0,2.3,1.4,4.1,3.3,4.1
				C292.2,237.8,293.5,236,293.5,233.7z"/>
			<path class="st5" d="M295.1,233.7c0-2.4,1.5-4.3,3.5-4.3c2.1,0,3.5,1.9,3.5,4.3c0,2.4-1.5,4.3-3.5,4.3
				C296.6,238,295.1,236.1,295.1,233.7z M301.9,233.7c0-2.3-1.4-4.1-3.3-4.1c-1.9,0-3.3,1.8-3.3,4.1c0,2.3,1.4,4.1,3.3,4.1
				C300.6,237.8,301.9,236,301.9,233.7z"/>
		</g>
	</g>
</g>
</svg>
