<?xml version="1.0" encoding="utf-8"?>
<!-- Generator: Adobe Illustrator 22.1.0, SVG Export Plug-In . SVG Version: 6.00 Build 0)  -->
<svg version="1.1" id="Layer_1" xmlns="http://www.w3.org/2000/svg" xmlns:xlink="http://www.w3.org/1999/xlink" x="0px" y="0px"
	 viewBox="0 0 216 216" style="enable-background:new 0 0 216 216;" xml:space="preserve">
<style type="text/css">
	.st0{clip-path:url(#SVGID_2_);}
	.st1{fill:#7C7D7F;}
	.st2{fill:#FFFFFF;}
	.st3{fill:#545454;}
	.st4{fill:#616161;}
</style>
<g>
	<defs>
		<rect id="SVGID_1_" x="1.3" width="213.8" height="217.3"/>
	</defs>
	<clipPath id="SVGID_2_">
		<use xlink:href="#SVGID_1_"  style="overflow:visible;"/>
	</clipPath>
	<g class="st0">
		<g>
			<path class="st1" d="M23.6,143c-1.8-0.2-3.3-1.1-4.5-2.5c-1.1-1.3-1.6-2.9-1.6-4.5c0-1.7,0.5-3.2,1.6-4.6
				c1.3-1.7,3.2-2.5,5.5-2.5c2.3,0,4.1,0.8,5.5,2.5c1.1,1.4,1.7,2.9,1.7,4.6c0,1.4-0.5,2.8-1.5,4.2c-1.2,1.6-2.7,2.5-4.5,2.8
				c0.7,1.2,1.4,1.9,1.9,2.2c0.6,0.4,1.4,0.6,2.4,0.6c0.4,0,0.8-0.1,1.2-0.4l0.1,0.5c-0.3,0.3-0.7,0.5-1.2,0.7
				c-0.5,0.2-1,0.3-1.3,0.3c-0.9,0-1.8-0.3-2.6-0.9C25.4,145.5,24.5,144.5,23.6,143z M19.4,136c0,1.9,0.5,3.4,1.4,4.5
				c0.9,1.1,2.2,1.6,3.8,1.6c1.3,0,2.5-0.5,3.5-1.5c1.2-1.2,1.7-2.7,1.7-4.6c0-2-0.5-3.6-1.5-4.7c-0.9-1-2.2-1.5-3.7-1.5
				c-1.6,0-2.8,0.5-3.7,1.5C19.9,132.4,19.4,134,19.4,136z"/>
			<path class="st1" d="M50.1,129.3l1.6-0.2v8.6c0,2.9,1.3,4.3,3.8,4.3c1.2,0,2.2-0.4,2.9-1.1c0.7-0.7,1-1.8,1-3.1v-8.5l1.6-0.2v8.8
				c0,1.6-0.5,2.9-1.5,3.8c-1,0.8-2.3,1.3-4,1.3c-1.7,0-3-0.4-3.9-1.3c-1-0.9-1.5-2.2-1.5-3.8V129.3z"/>
			<path class="st1" d="M80.1,129.3l1.6-0.2v13.6l-1.6,0.2V129.3z"/>
			<path class="st1" d="M111.4,130.1c0,0.1-0.1,0.5-0.3,1.1c-1.2-0.9-2.6-1.4-4-1.4c-1.6,0-2.8,0.5-3.8,1.6s-1.4,2.5-1.4,4.3
				c0,1.9,0.5,3.4,1.4,4.6c0.9,1.2,2.2,1.7,3.8,1.7c1.3,0,2.2-0.2,2.8-0.7v-4.9l1.6-0.2v6.1c-1.2,0.4-2.7,0.6-4.4,0.6
				c-2.1,0-3.9-0.7-5.2-2.2c-1.3-1.4-1.9-3.1-1.9-5.1c0-1.9,0.7-3.5,2.1-4.9c1.4-1.3,3.1-2,5-2C108.7,128.9,110.1,129.3,111.4,130.1
				z"/>
			<path class="st1" d="M132.1,141.8h5.9l-0.3,0.9h-7.2v-13.5l1.6-0.2V141.8z"/>
			<path class="st1" d="M157.5,135.4h4.7l-0.3,1h-4.5v5.5h5.8l-0.3,1h-7.1v-13.6h7.2l-0.3,1h-5.4V135.4z"/>
			<path class="st1" d="M184.6,135.4l-4.6-6.2l1.9-0.2l3.9,5.3l3.6-5.2l1.4-0.2l-4.6,6.5v7.1l-1.6,0.2V135.4z"/>
		</g>
		<rect x="1" y="-0.9" class="st2" width="451.1" height="257.9"/>
		<g>
			<g>
				<g>
					<path class="st3" d="M53.7,189.3c0-0.5,0.5-5.1,0.3-6.6c-0.2-6.7-1.6-9.1-4.3-16.8c-1.8-5-4.8-13.6-5.3-18.9
						c-0.2-2.2-0.2-4.5-0.3-6.7c0-1.2,0.3-2.1,1.1-3c3.1-3.7,6-7.5,8.3-11.7c0.7-1.3,1.4-2.7,2.1-4c0.1-0.2,0.2-0.3,0.4-0.6
						c0.7,0.5,1.2,1.2,2.2,0.7c1.4-0.8,0.4-1.9,0.4-2.9c-0.4-0.3-0.9,0.1-1.4-0.1c-0.1-0.1-0.2-0.2-0.1-0.3c0.6-2.3,1.5-4.6,2-6.9
						c0.1-0.5,0.5-0.6,0.9-0.4c0.4,0.2,0.7,0.4,1.1,0.5c0.7,0.2,1.8-0.5,2-1.1c0.3-0.9,0-1.8-0.7-2.2c-0.5-0.2-0.9-0.6-1.6-0.5
						c-0.9,0.1-1.3-0.3-1.2-1.1c0.1-1.9,0.3-3.8,0.4-5.8c0.1-0.8,0.7-0.6,1.2-0.7c1.4-0.2,1.8-0.9,1.3-2.3c-0.1-0.3,0-0.6-0.1-0.9
						c-0.2,0-0.3-0.1-0.4-0.1c-1.3,0.3-1.7,0.4-1.7-1.5c0.1-1.4,0.2-2.7,0.3-4.1c0.1-1,0.3-1.1,1.3-1c1.7,0.1,1.6,0,2.4-1.2
						c0.6-1-0.1-1.4-0.4-2.1c-0.3-0.7-0.9-0.4-1.5-0.4c-0.5,0-0.8,0.5-1.4,0.5c-0.1-1.3,0.1-2.5,0.2-3.8c0-0.3,0.3-0.5,0.7-0.5
						c0.2,0,0.4,0.1,0.6,0c0.7-0.1,1.4-0.1,1.6-1c0.2-0.8-0.5-1.1-0.9-1.5c-0.3-0.3-0.6-0.5-0.9-0.8c-0.8-0.6-0.8-0.9,0.1-1.4
						c0.5-0.2,0.9-0.5,1.3-0.8c0.6-0.6,0.6-1.9,0.1-2.5c-1-1.3-2.2-1.1-3,0.4c-0.4,0.8-0.5,1.5,0,2.3c0.6,0.9,0.6,2,0.2,3
						c-0.7,0.1-0.7-1-1.5-0.8c-0.3,0.6,0.2,1.7-1,1.7c0.3,0.6,0.8,0.5,1.1,0.5c1.1,0.3,1.3,0.5,1.2,1.6c0,0.5-0.2,1-0.2,1.6
						c-0.1,0.8-0.1,1.5-1.4,1.3c-0.8-0.2-1.3,0.5-1.3,1.4c0,0.5,0,1,0,1.5c0.1,0,0.1,0.1,0.2,0.1c2.3,0.3,2.3,0.4,2.1,2.7
						c-0.1,0.8-0.2,1.5-0.3,2.3c-0.4,0.1-0.9-0.9-1.2,0.1c-0.2,0.6-0.7,0.5-1.2,0.5c0.2,0.7,0.7,1,1.2,1.4c0.8,0.7,1.1,1.4,1,2.5
						c-0.2,1.9-0.3,3.8-0.4,5.8c-0.1,1.3-0.5,2.3-1.7,3c-0.3,0.2-0.8,0.4-1,0.9c0.1,0.4,0.3,0.6,0.6,0.8c1.2,0.6,1.1,1.5,0.8,2.7
						c-0.4,1.4-0.7,2.8-1.2,4.2c-0.3,0.8-0.6,0.8-1,0.1c-0.1-0.1-0.1-0.3-0.2-0.4c-0.5-0.7-1.5-0.6-2,0.1c-0.6,0.9-0.2,2.3,0.6,2.9
						c0.4,0.3,1,0.2,1.2,0.7c0.2,0.6-0.3,1.1-0.5,1.6c-1.8,3.8-4,7.3-7.1,10.2c-0.4,0.4-0.7,0.8-1.2,0.9c-0.3-0.1-0.2-0.3-0.1-0.5
						c1.9-3.5,2.5-7.3,2.9-11.1c0.4-3.9,0.5-7.9,1.1-11.8c0.6-3.8,1.9-7.4,3.2-11c0.1-0.2,0.2-0.5,0.4-1.1c-0.9,0.7-1.2,1.4-1.5,2
						c-1.3,2.9-2,5.9-2.4,9c-0.4,3.3-0.8,6.6-1.2,9.9c-0.2,1.9-0.1,3.9-0.4,5.8c-0.4,2.4-0.9,4.7-2.1,6.9c-0.4,0.7-0.7,1.4-1.4,1.8
						c-0.6-0.3-0.4-0.7-0.4-1.1c0.1-2.4,0.2-4.9,0.4-7.3c0.2-3.1,0.5-6.2,0.8-9.3c0.3-3.1,0.6-6.2,1-9.3c0.1-0.6,0.3-1.1,0.5-1.6
						c2.5-5.8,3.9-11.9,4.8-18.1c0.5-3.6,1.1-7.2,1-10.9c0-0.9,0.3-1.7,0.4-2.6c0.1-0.5,0.3-1.1-0.1-1.9c-0.5,1.3-0.7,2.5-0.7,3.7
						c-0.1,8.3-1.8,16.4-4.7,24.1c-0.2,0.4-0.1,0.9-0.8,1.2c-0.3-0.9-0.1-1.9,0-2.8c0.4-3.7,0.3-7.4,0-11.1
						c-0.3-3.4-0.6-6.8-0.9-10.1c-0.1-0.6,0.1-1.2,0.5-1.6c2.9-3.3,4.5-7.4,7.2-10.8c1.3-1.7,2.6-3.4,4.1-5c1-1.1,1.1-1,2.1,0
						c0.4,0.4,0.8,0.6,1.2,0.9c0.9,0.7,1.5-0.3,2.3-0.4c0.3-0.1,0.7-2,0.4-2.3c-0.6-0.5-1.1-1.2-2-1.3c-0.1,0-0.3-0.1-0.6-0.2
						c1.2-1.4,2.5-2.6,3.9-3.6c0.4-0.3,0.7-0.1,0.9,0.3c0.3,0.5,0.8,0.7,1.3,1c0.6,0.4,1.2,0.4,1.7-0.1c0.4-0.4,0.3-1.3,0-1.5
						c-0.7-0.6-0.3-1.4-0.7-2c0.7-0.5,1.5-0.3,2.2-0.4c1.4-0.1,1.9-0.4,2-1.8c0.1-0.7-0.3-1.4-0.8-1.9c-0.4-0.4-0.9-0.7-1.5-0.2
						c-0.4,0.3-0.9,0.2-1.4,0.5c-0.7,0.6-1,1-0.7,1.9c0.2,0.6,0,1.1-0.6,1.4c-0.4,0.2-0.7,0.6-1.1,0.7c-0.3-0.2-0.3-0.4-0.3-0.6
						c0-0.4,0-0.9-0.5-1.1c-0.5-0.2-0.6,0.3-0.8,0.6c-0.5,0.7-1-0.2-1.6-0.1c0.2,0.7,0.8,1.2,1.2,1.6c0.3,0.4,0.3,0.8-0.1,1.1
						c-1.1,0.8-2.1,1.9-3.1,2.8c-0.5,0.4-0.8,0.6-1.4-0.1c-0.9-1.2-1.8-1.1-2.7,0.2c-0.3,0.4-0.6,0.3-0.9,0.6c0.4,0.6,1,1.1,1.5,1.5
						c0.5,0.4,0.6,0.8,0.1,1.3c-4,4.6-7.4,9.6-10.8,14.6c-0.2,0.2-0.3,0.5-0.8,0.6c-0.1-1.5-0.3-2.9-0.3-4.3c-0.1-3.1-0.1-6.3,0-9.4
						c0-1.5,0.2-3,0.4-4.5c0.2-1.4,0.8-2.6,1.7-3.7c1.2-1.5,2.5-3,3.3-4.7c0.3-0.6,0.6-0.6,1.1-0.3c0.7,0.4,1.4,0.7,2.3,0.2
						c0.8-0.4,1-1.1,1.1-1.7c0.1-0.6-0.4-1.1-1-1.5c-0.7-0.5-1.5-0.4-2.2-0.7c-0.4-0.2-0.6,0.1-0.8,0.3c-0.5,0.7-1.5,1.3-0.9,2.4
						c0,0.1,0,0.2,0,0.3c-0.5,1.8-1.6,3.2-3,4.3c-0.4-0.3-0.4-0.5-0.3-0.7c0.5-2,1.1-4,1.9-6c0.3-0.6,0.7-1,1-1.6
						c0.6-0.8,1.3-1.1,2.3-1.1c1,0.1,1.9-0.1,2.2-1.4c0.2-0.9-0.1-2.1-0.8-2.5c-0.3-0.2-0.5,0-0.7,0.1c-1.1,0.3-1.6-0.1-1.4-1.3
						c0.2-0.9,0.4-1.7,0.5-2.6c0.1-0.6,0.4-1.1,1.1-1.1c0.2,0,0.4-0.1,0.6-0.1c0.7-0.1,1.3-0.4,1.2-1.2c-0.1-0.5-0.5-1.1-1.1-1.3
						c-1.5-0.5-1.6-1.4-0.4-2.4c0.4-0.3,0.7-0.6,0.9-1c0.5-0.9,0.1-2.1-1-2.5c-0.4-0.1-0.5-0.6-1.1-0.5c-0.7,0.1-1.7,0.9-1.9,1.8
						c-0.1,0.4,0,0.8-0.3,1.2c-0.3,0.3,0.1,0.5,0.4,0.7c1.6,1.4,1.6,1.6,0.8,3.8c-0.6-0.1-0.7-0.9-1.2-1.2c-0.4-0.3-0.9-0.4-0.9,0.2
						c0.1,0.8-0.5,1-1.1,1.3c0.7,0.5,1.4,0.5,2.1,0.6c1,0.2,1.2,0.3,1,1.2c-0.2,1.3-0.6,2.7-0.9,4c-0.2,0.7-0.6,1-1.4,0.7
						c-1-0.4-2,0.3-2,1.3c0,0.6-0.1,1.3,0.3,2.1c0.6,1.1,1,2.6,0.5,3.9c-0.9,2.4-1.5,5-2.4,7.4c-0.1,0.2-0.2,0.5-0.4,0.7
						c-0.6-0.1-0.6-0.6-0.8-1c-0.8-1.7-1.7-3.3-3.1-4.7c-0.8-0.8-0.8-1,0-2c0.3-0.4,0.7-0.6,0.6-1.3c-0.2-1-0.6-1.8-1.4-2.5
						c-0.5-0.4-1.9,0.2-2.4,0.9c-0.7,1-0.7,1.8,0.3,2.6c0.9,0.7,1.3,1.5,1.6,2.6c0.4,1.2,1.2,2.2,2,3.1c1.7,1.7,2.2,3.8,2.3,6.1
						c0.1,4.8-0.3,9.6-0.7,14.4c-0.1,0.6,0.1,1.4-0.6,1.6c-0.7,0.2-1-0.6-1.4-1c-0.3-0.4-0.6-0.8-0.9-1.3c-0.5-1-0.5-1,0.6-1.5
						c0.3-0.2,0.4-0.3,0.4-0.7c-0.1-1.7-0.3-1.9-1.3-2.3c-0.4-0.1-0.7,0.1-1,0.2c-1,0.4-1.2,0.2-1.8-0.7c-0.6-1.1-1-2.2-1.2-3.4
						c-0.2-1.2-0.1-1.3,1-1.7c0.8-0.2,1.6-0.3,2.5-0.8c-0.7-0.3-1.4-0.5-1.3-1.4c0.1-0.4-0.4-0.4-0.7-0.2c-0.5,0.3-0.6,0.8-0.9,1.3
						c-0.3,0.4-0.6,0.4-0.8-0.1c-0.3-1-0.5-2.2,0.3-3c1-1,0.6-1.9,0.2-2.8c-0.7-1.4-1-1.5-2.5-0.8c-0.8,0.3-1.3,1.7-0.9,2.5
						c0.3,0.5,0.7,0.9,1.2,1.2c1,0.7,1.1,1.4,0.1,2.2c-0.4,0.3-0.7,0.5-1,0.9c-0.5,0.8-0.4,1.5,0.5,1.6c1.5,0.1,1.8,1,2,2.1
						c0.2,0.7,0.5,1.4,0.7,2.1c0.2,0.7-0.3,1.2-0.8,0.9c-0.8-0.4-1.1,0.3-1.4,0.6c-0.3,0.5-0.5,1.2-0.2,1.8c0.5,1.2,0.8,1.4,2.1,1.3
						c0.3,0,0.5,0,0.8-0.1c1.4-0.5,2.3,0,3,1.2c0.7,1.1,1.5,2.1,2.4,3.1c0.6,0.7,0.9,1.5,0.9,2.4c0.3,4.9,0.8,9.9,1.2,14.8
						c0.2,2.1,0.3,4.2,0.4,6.2c0,0.3,0,0.5-0.3,0.8c-0.8-0.6-1-1.6-1.4-2.5c-0.5-0.9-0.9-1.8-1.3-2.7c-0.4-0.9-0.8-1.8-1.2-2.8
						c-0.5,0.4-0.4,0.8-0.4,1.2c0.2,1.3,0.5,2.5,1.1,3.6c0.7,1.2,1.4,2.5,2,3.7c0.6,1.2,1.2,2.5,1.1,3.9c-0.3,0.2-0.5,0.2-0.7,0
						c-2.1-2-4.3-3.8-6.1-6c-1.5-1.9-2.5-3.9-3.2-6.2c-0.5-1.6-0.4-1.8,1.3-1.9c0.2,0,0.4,0,0.6-0.1c0.2-0.5-0.1-0.9-0.1-1.3
						c0.1-1.1-0.8-1.8-1.9-1.5c-0.4,0.1-0.8,0-1,0.2c-0.5,0.3-0.8,0.4-1.2,0c-0.5-0.4-1.1,0-1.6-0.4c-0.1-0.1-0.3-0.1-0.4,0
						c-0.4,0.3-1.2,1.9-1.1,2.3c0.4,1.2,1.1,1.7,2.3,1.7c0.1,0,0.1,0,0.2,0c0.7,0,1.5-0.5,2.1,0.1c0.5,0.5,0.5,1.2,0.7,1.9
						c0.7,2.7,2.3,4.9,4.2,6.9c1.5,1.6,3.2,3,4.5,4.8c1.3,1.7,1.7,3.4,1.5,5.5c-0.5,5.2-1.8,10.3-2.9,15.4c-0.6,2.6-1.3,5.2-1.1,7.9
						c0,0.3-0.1,0.6-0.2,0.9c-0.1,0.4-0.4,0.4-0.7,0.1c-0.5-0.5-0.7-1.2-0.9-1.8c-1.2-3.5-2-7.1-2.8-10.7c-0.1-0.7-0.2-1.3-0.6-1.9
						c0.5-1.2,1.5-0.1,2.3-0.5c0.1-0.3-0.1-0.7,0.2-1.1c0.3-0.3,0.2-0.5,0.1-0.9c-0.3-0.9-1-1.4-1.9-1.2c-1.3,0.3-1.3,0.3-1.6-1
						c-0.2-0.8-0.4-1.5-0.6-2.3c-0.4-1.7-0.4-1.7,1.2-2.3c0.5-0.2,1.1-0.2,1.6-0.9c-0.9,0.1-1.3-0.2-1.4-1c-0.1-0.6-0.4-0.6-0.8-0.2
						c-0.4,0.4-0.4,1.1-1.2,1.4c-0.6-2-1.9-3.8-0.8-6c0.1-0.3,0.3-0.6,0-0.8c-0.7-0.4-1-1.2-1.9-1.5c-0.7-0.2-1.3-0.2-1.5,0.1
						c-0.3,0.5-1,0.8-0.9,1.7c0.1,1.4,0.9,1.9,2,2.2c1.8,0.5,2.2,2.4,0.9,3.7c-0.2,0.2-0.4,0.5-0.6,0.7c-0.5,0.4-0.2,0.7,0,1.1
						c0.4,0.7,1.1,0.5,1.7,0.5c0.5,0,1.1-0.1,1.3,0.6c0.4,1.4,0.7,2.8,1,4.2c-0.6,0.3-0.8-0.2-1.1-0.2c-0.3,0-0.7,0.1-1.1,0.1
						c-1.3,0.2-1.9,1.4-1.3,2.6c0.6,1.2,1.3,1.4,2.5,1.1c0.6-0.2,1.3-0.6,1.9-0.1c0.1,2.9,0.5,5.7,1.1,8.5c0,0.2,0.1,0.4,0.2,0.6
						c1,2.2,2,4.4,3.2,6.6c0.3,0.7,0.6,1.3,0.6,2c0.2,4.5,0.4,9.1,0.7,13.6c0.1,1.8,0.4,3.6,0.5,5.4c0,0.3,0.2,0.8-0.2,1
						c-0.4,0.2-0.7-0.1-0.9-0.4c-2.3-2.5-5.1-4.4-7.4-6.7c-0.3-0.3-0.5-0.5-0.8-0.8c-0.6-0.7-0.6-0.8,0.2-1.3
						c0.3-0.2,0.6-0.3,0.8-0.5c0.5-0.4,0.7-1.2,0.3-2c-0.1-0.3-1.4-1.4-1.6-1.3c-0.4,0.1-0.6,0.5-0.9,0.8c-0.3,0.4-0.3,1-0.9,0.9
						c-0.5-0.1-0.6-0.7-0.8-1.1c-0.6-1-0.7-1.9,0.2-2.8c0.3-0.3,0.6-0.7,0.6-1.4c-0.9,0.3-1.3-0.7-2.2-0.6c-0.5,0-0.8-0.6-1-1.1
						c-0.5-1.6-1-3.2-1.5-4.8c-0.2-0.7,0-1.3,0.7-1.8c0.6-0.4,1.2-0.8,1.7-1.7c-0.9,0.3-1.5,0.3-2-0.5c-0.4-0.6-0.6,0.3-1.1,0.4
						c-0.5-1.2-0.6-2.6-0.7-3.9c-0.1-0.5,0.2-0.8,0.7-0.8c0.5-0.1,1-0.1,1.6-0.2c0.1-0.4-0.2-0.7-0.2-1.2c0-1.3-0.4-1.9-1.7-1.8
						c-0.7,0-0.8-0.2-0.9-0.7c0-1.4,0-2.8,0-4.2c0-0.7,0.4-1,1.1-1.1c0.7-0.1,1.3-0.3,2.3-0.5c-0.9-0.4-1.4-0.8-1.3-1.6
						c0.1-0.5-0.4-0.4-0.8-0.2c-0.4,0.3-0.5,0.8-1.1,1c-0.4-0.7-0.2-1.4,0-2.1c0.1-0.5,0.4-1,0.6-1.4c0.2-0.4,0.7-0.8,0.4-1.3
						c-0.4-0.5-0.4-1.2-1-1.5c-0.7-0.4-1.2-1.2-2.1-0.6c-0.8,0.6-1.2,1.5-1.2,2.4c0,0.7,0.7,1,1.3,1.3c0.4,0.2,0.8,0.3,1.1,0.5
						c0.3,0.2,0.4,0.6,0.3,1c-0.1,0.4-0.4,0.2-0.6,0.3c-0.7,0.1-1.2,0.6-1.7,0.9c-0.3,0.2-0.9,0.4-0.6,1.1c0.2,0.5,0.4,0.9,1,1
						c0.1,0,0.2,0,0.3,0.1c1.5,0.3,1.5,0.3,1.5,2c0,1.1,0,2.3-0.1,3.4c0,0.6-0.2,1-0.9,0.5c-0.5-0.4-1.2-0.3-1.8-0.4
						c-0.8-0.2-1.6,1.4-1.3,2.4c0.5,1.3,1,1.7,2.4,1.5c1.7-0.2,1.7-0.2,2,1.5c0.2,1.3,0.5,2.6,0.8,3.8c0.1,0.6,0,1-0.8,0.9
						c-0.4-0.1-1.1-0.6-1.2,0.3c-0.1,0.8-0.8,1.5,0,2.3c0.6,0.6,1.5,0.6,2.1,0.2c0.2-0.1,0.2-0.5,0.7-0.5c0.6,1.5,1.2,3.1,1.7,4.7
						c0.2,0.5-0.6,1.6-1.3,1.6c-0.8,0-1.1,0.8-1.7,0.9c-0.3,0.1-0.3,0.4-0.3,0.7c0,0.8,0.2,1.6,0.8,2c0.8,0.5,1.8,0.7,2.7-0.2
						c0.1-0.2,0.3-0.3,0.4-0.5c0.4-0.5,0.8-0.5,1.1,0.1c0.4,0.7,0.8,1.5,1.2,2.2c0.3,0.7,0.2,0.9-0.6,0.9c-0.4,0-0.7-0.1-1.1-0.2
						c-0.4,0.3-0.1,0.8-0.4,1.2c-0.4,0.7-0.1,1.2,0.5,1.8c0.6,0.6,1.2,0.2,1.7,0c0.6-0.3,0.4-1.1,0.7-1.6c0.4-0.2,0.6,0.2,0.7,0.4
						c2.7,3.6,5.7,6.8,9,9.8c0.6,0.5,1.1,1.1,1.7,1.6c0.5,0.4,0.8,1,0.9,1.6c1,4.8,2.8,7.7,4.5,12.2c1.6,4.3,3.8,9.2,3.6,14.8
						c0.2,1,0,1.3,0,1.9 M38.1,77.6c-0.9-0.5-0.9-0.5-1-1.5c-0.1-0.6-0.4-0.5-0.8-0.3c-0.2,0.1-0.3,0.3-0.4,0.4
						c-0.3,0.3-0.4,1.2-1,0.9c-0.6-0.3-0.6-1-0.6-1.7c0-0.7,0.3-1.3,0.9-1.6c1-0.6,0.9-1.4,0.7-2.3c-0.2-0.7-0.6-1.3-1-1.8
						c-0.4-0.4-2.1,0.3-2.5,0.9c-0.7,1.2-0.5,1.8,0.7,2.9c1.1,1,1,1.8-0.4,2.5c-1,0.5-1.3,1.7-0.6,2.1c0.6,0.4,1.5,0.8,2.1,0.4
						C35.3,78,36.7,78.2,38.1,77.6z"/>
				</g>
			</g>
			<g>
				<path class="st3" d="M64.6,197.2h-13v-16.6h2.1V195h10.8V197.2z"/>
				<path class="st3" d="M90.2,190.7c0,1.6-0.3,2.9-1,4c-0.7,1-1.6,1.8-2.8,2.3c-1.2,0.5-2.6,0.7-4.2,0.7c-2.5,0-4.4-0.6-5.9-1.7
					c-1.4-1.1-2.2-2.9-2.2-5.3v-10.1h2.2v10.1c0,1.2,0.3,2.2,0.8,2.9c0.5,0.7,1.2,1.2,2.1,1.4s1.9,0.4,3.1,0.4
					c1.2,0,2.2-0.1,3.1-0.4c0.9-0.3,1.5-0.8,2-1.5c0.5-0.7,0.7-1.6,0.7-2.8v-10.1h2.1V190.7z"/>
				<path class="st3" d="M119.6,183.3l-1.3,1.8c-0.7-0.6-1.5-1.1-2.3-1.6c-0.8-0.4-1.6-0.8-2.5-1c-0.8-0.2-1.8-0.3-2.7-0.3
					c-1,0-2,0.1-2.9,0.4c-0.9,0.3-1.7,0.7-2.5,1.3c-0.7,0.6-1.3,1.3-1.7,2.1s-0.6,1.8-0.6,2.8c0,2.2,0.8,3.8,2.5,4.9
					c1.6,1.1,3.6,1.7,5.9,1.7c1,0,1.8-0.1,2.6-0.2c0.8-0.2,1.5-0.4,2.3-0.8s1.5-0.8,2.3-1.3l0.9,2c-1.1,0.9-2.4,1.5-3.8,1.9
					c-1.4,0.4-2.8,0.6-4.4,0.6c-1.8,0-3.5-0.3-5.1-1c-1.6-0.7-2.9-1.7-3.8-3s-1.5-2.9-1.5-4.8c0-1.8,0.4-3.3,1.3-4.7
					c0.9-1.3,2.1-2.4,3.6-3.1c1.5-0.7,3.1-1.1,4.9-1.1C114.1,180,117.1,181.1,119.6,183.3z"/>
				<path class="st3" d="M143.1,180.6l-7.5,8.4v8.2h-2.2V189l-7.5-8.4h2.9l5.8,6.4l5.7-6.4H143.1z"/>
				<path class="st3" d="M182.6,197.2h-2.2v-7.4H169v7.4h-2.2v-16.6h2.2v6.9h11.5v-6.9h2.2V197.2z"/>
				<path class="st3" d="M212,197.2h-2.3l-2.3-4.1H196l-2.4,4.1h-2.3l9.4-16.6h2L212,197.2z M206.2,190.9l-4.5-8l-4.5,8H206.2z"/>
				<path class="st3" d="M237,197.2h-2.7l-4.7-6.7h-7.4v6.7H220v-16.6h10.3c1.1,0,2.2,0.2,3.1,0.5c1,0.3,1.7,0.9,2.3,1.6
					c0.6,0.7,0.9,1.7,0.9,2.8c0,1.3-0.4,2.4-1.2,3.2c-0.8,0.8-1.9,1.4-3.3,1.6L237,197.2z M234.5,185.5c0-1.8-1.4-2.7-4.1-2.7h-8.2
					v5.5h8.2C233.1,188.3,234.5,187.4,234.5,185.5z"/>
				<path class="st3" d="M260.2,182.7h-6.8v14.4h-2.1v-14.4h-6.7v-2.1h15.6V182.7z"/>
				<path class="st3" d="M288.3,197.2h-2.2v-12.7l-7,10.5l-7-10.5v12.7H270v-16.6h2.2l6.9,10.5l7-10.5h2.2V197.2z"/>
				<path class="st3" d="M317.7,197.2h-2.3l-2.3-4.1h-11.5l-2.4,4.1H297l9.4-16.6h2L317.7,197.2z M311.8,190.9l-4.5-8l-4.5,8H311.8z
					"/>
				<path class="st3" d="M342.3,197.2h-2.1l-11.7-13.3v13.3h-2.1v-16.6h2.1l11.7,13.3v-13.3h2.1V197.2z"/>
			</g>
		</g>
		<g>
			<path class="st4" d="M230.5,224.2h-0.7l-5.6-6.9v6.9h-0.7v-8h0.7l5.6,6.8v-6.8h0.7V224.2z"/>
			<path class="st4" d="M242.1,224.2h-0.8l-1.4-2.9h-4.1l-1.4,2.9h-0.8l3.9-8h0.7L242.1,224.2z M239.5,220.6l-1.7-3.5l-1.7,3.5
				H239.5z"/>
			<path class="st4" d="M250.9,216.9h-3v7.3h-0.7v-7.3H244v-0.7h6.8V216.9z"/>
			<path class="st4" d="M261.4,221.3c0,0.5-0.1,1-0.3,1.4s-0.4,0.7-0.8,1c-0.3,0.2-0.7,0.4-1.1,0.5c-0.4,0.1-0.9,0.2-1.4,0.2
				c-0.7,0-1.3-0.1-1.8-0.3c-0.5-0.2-0.9-0.6-1.2-1c-0.3-0.5-0.4-1-0.4-1.7v-5.1h0.7v5.1c0,0.6,0.1,1,0.4,1.4c0.2,0.4,0.6,0.6,1,0.8
				c0.4,0.2,0.9,0.2,1.5,0.2c0.5,0,1-0.1,1.4-0.2s0.8-0.4,1.1-0.8c0.1-0.2,0.2-0.4,0.3-0.6c0-0.2,0.1-0.4,0.1-0.7v-5.1h0.7V221.3z"
				/>
			<path class="st4" d="M272.7,218.5c0,0.2,0,0.5-0.1,0.7c-0.1,0.2-0.2,0.5-0.3,0.7c-0.1,0.2-0.3,0.4-0.5,0.5
				c-0.2,0.1-0.4,0.2-0.7,0.3s-0.5,0.1-0.6,0.1l2,3.4h-0.8l-2-3.4h-3.5v3.4h-0.7v-8h4.7c0.4,0,0.7,0,0.9,0.1c0.2,0,0.4,0.1,0.6,0.3
				c0.3,0.2,0.6,0.4,0.8,0.8C272.6,217.7,272.7,218.1,272.7,218.5z M272,218.4c0-0.6-0.2-1-0.7-1.3c-0.1-0.1-0.3-0.2-0.5-0.2
				c-0.2,0-0.5-0.1-1-0.1h-3.6v3.2h3.6c0.4,0,0.8,0,1-0.1c0.2,0,0.4-0.1,0.6-0.2c0.2-0.1,0.3-0.3,0.5-0.6
				C272,218.9,272,218.7,272,218.4z"/>
			<path class="st4" d="M284.3,220.2c0,0.6-0.1,1.1-0.3,1.6c-0.2,0.5-0.5,1-0.9,1.3c-0.4,0.4-0.9,0.7-1.4,0.9
				c-0.5,0.2-1.1,0.3-1.7,0.3c-0.8,0-1.5-0.2-2.2-0.5c-0.7-0.4-1.2-0.9-1.6-1.5c-0.4-0.6-0.6-1.4-0.6-2.1c0-0.6,0.1-1.1,0.3-1.6
				c0.2-0.5,0.5-1,0.9-1.3c0.4-0.4,0.9-0.7,1.4-0.9s1.1-0.3,1.6-0.3c0.8,0,1.5,0.2,2.2,0.5c0.7,0.4,1.2,0.9,1.6,1.5
				C284.1,218.7,284.3,219.4,284.3,220.2z M283.6,220.2c0-0.5-0.1-1-0.3-1.4c-0.2-0.4-0.4-0.8-0.8-1.1c-0.3-0.3-0.7-0.6-1.1-0.7
				c-0.4-0.2-0.9-0.3-1.4-0.3c-0.6,0-1.2,0.1-1.8,0.4c-0.6,0.3-1,0.7-1.3,1.2c-0.3,0.5-0.5,1.1-0.5,1.8c0,0.7,0.2,1.3,0.5,1.8
				c0.3,0.5,0.7,0.9,1.3,1.2c0.5,0.3,1.2,0.4,1.8,0.4c0.5,0,1-0.1,1.4-0.2c0.4-0.2,0.8-0.4,1.1-0.7c0.3-0.3,0.6-0.7,0.8-1.1
				C283.5,221.1,283.6,220.7,283.6,220.2z"/>
			<path class="st4" d="M294.6,218.5c0,0.4-0.1,0.7-0.2,1.1c-0.2,0.3-0.4,0.6-0.7,0.8c-0.3,0.3-0.9,0.4-1.8,0.4h-3.5v3.4h-0.7v-8
				h4.6c0.4,0,0.7,0,0.9,0.1c0.2,0.1,0.5,0.2,0.7,0.4c0.3,0.2,0.4,0.5,0.6,0.8C294.6,217.8,294.6,218.1,294.6,218.5z M293.9,218.4
				c0-1-0.5-1.6-1.6-1.6h-3.9v3.1h3.5c0.2,0,0.4,0,0.6,0s0.3,0,0.4-0.1s0.2-0.1,0.3-0.1c0.2-0.1,0.4-0.3,0.5-0.5
				S293.9,218.7,293.9,218.4z"/>
			<path class="st4" d="M305.6,224.2h-0.8l-1.4-2.9h-4.1l-1.4,2.9H297l3.9-8h0.7L305.6,224.2z M303,220.6l-1.7-3.5l-1.7,3.5H303z"/>
			<path class="st4" d="M314.4,216.9h-3v7.3h-0.7v-7.3h-3.1v-0.7h6.8V216.9z"/>
			<path class="st4" d="M325.1,224.2h-0.7v-3.8h-5.6v3.8H318v-8h0.7v3.5h5.6v-3.5h0.7V224.2z"/>
			<path class="st4" d="M330.4,224.2h-0.7v-8h0.7V224.2z"/>
			<path class="st4" d="M342.3,222.7c-0.4,0.4-0.8,0.7-1.2,0.9s-0.8,0.4-1.3,0.6c-0.5,0.1-0.9,0.2-1.4,0.2c-0.8,0-1.5-0.2-2.2-0.5
				s-1.2-0.9-1.6-1.5s-0.6-1.4-0.6-2.1c0-0.6,0.1-1.2,0.3-1.7c0.2-0.5,0.5-1,0.9-1.3c0.4-0.4,0.9-0.7,1.4-0.9
				c0.5-0.2,1.1-0.3,1.7-0.3c0.5,0,1,0.1,1.5,0.2c0.4,0.1,0.9,0.3,1.3,0.5c0.4,0.2,0.8,0.5,1.1,0.9l-0.5,0.5c-0.3-0.3-0.6-0.6-1-0.8
				c-0.3-0.2-0.7-0.4-1.1-0.4c-0.4-0.1-0.8-0.1-1.2-0.1c-0.5,0-1,0.1-1.4,0.2c-0.5,0.2-0.8,0.4-1.2,0.7c-0.3,0.3-0.6,0.7-0.8,1.1
				c-0.2,0.4-0.3,0.9-0.3,1.4c0,0.7,0.2,1.2,0.5,1.8c0.3,0.5,0.8,0.9,1.3,1.2c0.6,0.3,1.2,0.4,1.8,0.4c1.2,0,2.3-0.5,3.4-1.4
				L342.3,222.7z"/>
			<path class="st4" d="M357.7,218.5c0,0.4-0.1,0.7-0.2,1.1c-0.2,0.3-0.4,0.6-0.7,0.8c-0.3,0.3-0.9,0.4-1.8,0.4h-3.5v3.4h-0.7v-8
				h4.6c0.4,0,0.7,0,0.9,0.1c0.2,0.1,0.5,0.2,0.7,0.4c0.3,0.2,0.4,0.5,0.6,0.8C357.6,217.8,357.7,218.1,357.7,218.5z M357,218.4
				c0-1-0.5-1.6-1.6-1.6h-3.9v3.1h3.5c0.2,0,0.4,0,0.6,0c0.2,0,0.3,0,0.4-0.1c0.1,0,0.2-0.1,0.3-0.1c0.2-0.1,0.4-0.3,0.5-0.5
				S357,218.7,357,218.4z"/>
			<path class="st4" d="M368.7,224.2H368v-3.8h-5.6v3.8h-0.7v-8h0.7v3.5h5.6v-3.5h0.7V224.2z"/>
			<path class="st4" d="M379.9,216.2l-3.6,4.5v3.5h-0.7v-3.5l-3.6-4.5h1l3.1,3.8l3-3.8H379.9z"/>
			<path class="st4" d="M389.6,221.9c0,0.6-0.2,1.1-0.6,1.5s-0.9,0.6-1.5,0.8c-0.6,0.2-1.2,0.2-1.8,0.2c-0.7,0-1.4-0.1-2-0.3
				c-0.3-0.1-0.5-0.2-0.7-0.3c-0.2-0.1-0.4-0.3-0.6-0.4c-0.2-0.1-0.4-0.3-0.6-0.6l0.5-0.5c0.3,0.3,0.5,0.5,0.8,0.7
				c0.3,0.2,0.5,0.3,0.8,0.4c0.3,0.1,0.6,0.2,0.9,0.2c0.3,0,0.6,0.1,1,0.1c0.4,0,0.9,0,1.4-0.1c0.5-0.1,0.9-0.3,1.2-0.5
				s0.5-0.6,0.5-1.1c0-0.5-0.2-0.8-0.6-1.1s-0.8-0.4-1.2-0.4c-0.1,0-0.3,0-0.5,0s-0.5,0-0.9,0c-0.4,0-0.6,0-0.7,0
				c-0.7,0-1.3-0.2-1.8-0.5c-0.5-0.3-0.8-0.8-0.8-1.5c0-0.4,0.1-0.7,0.3-1c0.2-0.3,0.4-0.5,0.7-0.7c0.3-0.2,0.7-0.3,1-0.5
				c0.5-0.1,1-0.2,1.5-0.2c0.6,0,1.2,0.1,1.7,0.3c0.5,0.2,1,0.5,1.5,0.9l-0.5,0.5c-0.5-0.3-1-0.6-1.4-0.7s-0.9-0.2-1.4-0.2
				c-0.4,0-0.7,0-1,0.1c-0.3,0.1-0.5,0.2-0.8,0.3s-0.5,0.3-0.6,0.5c-0.2,0.2-0.2,0.5-0.2,0.7c0,0.8,0.6,1.2,1.8,1.2
				c0.2,0,0.4,0,0.7,0c0.3,0,0.6,0,0.9,0c0.3,0,0.5,0,0.5,0c0.3,0,0.7,0.1,1,0.2s0.6,0.3,0.8,0.4c0.2,0.2,0.4,0.4,0.5,0.7
				S389.6,221.5,389.6,221.9z"/>
			<path class="st4" d="M393.7,224.2h-0.7v-8h0.7V224.2z"/>
			<path class="st4" d="M405.5,222.7c-0.4,0.4-0.8,0.7-1.2,0.9c-0.4,0.2-0.8,0.4-1.3,0.6c-0.5,0.1-0.9,0.2-1.4,0.2
				c-0.8,0-1.5-0.2-2.2-0.5s-1.2-0.9-1.6-1.5c-0.4-0.6-0.6-1.4-0.6-2.1c0-0.6,0.1-1.2,0.3-1.7c0.2-0.5,0.5-1,0.9-1.3
				c0.4-0.4,0.9-0.7,1.4-0.9c0.5-0.2,1.1-0.3,1.7-0.3c0.5,0,1,0.1,1.5,0.2c0.4,0.1,0.9,0.3,1.3,0.5c0.4,0.2,0.8,0.5,1.1,0.9
				l-0.5,0.5c-0.3-0.3-0.6-0.6-1-0.8c-0.3-0.2-0.7-0.4-1.1-0.4c-0.4-0.1-0.8-0.1-1.2-0.1c-0.5,0-1,0.1-1.4,0.2
				c-0.5,0.2-0.8,0.4-1.2,0.7c-0.3,0.3-0.6,0.7-0.8,1.1c-0.2,0.4-0.3,0.9-0.3,1.4c0,0.7,0.2,1.2,0.5,1.8c0.3,0.5,0.8,0.9,1.3,1.2
				c0.6,0.3,1.2,0.4,1.8,0.4c1.2,0,2.3-0.5,3.4-1.4L405.5,222.7z"/>
			<path class="st4" d="M409.9,224.2h-0.7v-8h0.7V224.2z"/>
			<path class="st4" d="M421.4,224.2h-0.8l-1.4-2.9H415l-1.4,2.9h-0.8l3.9-8h0.7L421.4,224.2z M418.8,220.6l-1.7-3.5l-1.7,3.5H418.8
				z"/>
			<path class="st4" d="M431.5,224.2h-0.7l-5.6-6.9v6.9h-0.7v-8h0.7l5.6,6.8v-6.8h0.7V224.2z"/>
			<path class="st4" d="M227.9,236.4c0,0.3-0.1,0.6-0.4,0.9c-0.3,0.2-0.6,0.4-0.9,0.5c-0.3,0.1-0.7,0.2-1.1,0.2
				c-0.8,0-1.6-0.2-2.3-0.7l0.3-0.4c0.3,0.2,0.5,0.3,0.7,0.3c0.2,0.1,0.4,0.1,0.6,0.2c0.2,0,0.5,0.1,0.8,0.1c0.3,0,0.5,0,0.8-0.1
				c0.3-0.1,0.6-0.2,0.8-0.4c0.2-0.2,0.3-0.4,0.3-0.6c0-0.2-0.1-0.3-0.2-0.5c-0.1-0.1-0.3-0.2-0.4-0.3c-0.2-0.1-0.4-0.1-0.5-0.2
				c-0.2,0-0.4-0.1-0.5-0.1c-0.2,0-0.4,0-0.5,0c-0.2,0-0.3,0.1-0.5,0.1c-0.2,0-0.3,0.1-0.5,0.2c-0.2,0.1-0.3,0.1-0.5,0.2l-0.3-0.3
				v-2.4h4.1v0.5h-3.7v1.6c0.4-0.2,0.7-0.3,1-0.3c0.3-0.1,0.6-0.1,0.9-0.1c0.3,0,0.6,0,0.9,0.1c0.2,0.1,0.4,0.2,0.6,0.3
				c0.2,0.1,0.3,0.3,0.4,0.5C227.9,235.9,227.9,236.1,227.9,236.4z"/>
			<path class="st4" d="M235,235.5c0,0.5-0.1,0.9-0.4,1.3c-0.3,0.4-0.6,0.7-1.1,0.9c-0.4,0.2-0.9,0.3-1.4,0.3c-0.3,0-0.5,0-0.7-0.1
				c-0.2-0.1-0.4-0.1-0.6-0.2c-0.2-0.1-0.4-0.2-0.7-0.4l0.3-0.4c0.2,0.1,0.4,0.3,0.6,0.3c0.2,0.1,0.3,0.1,0.5,0.2
				c0.2,0,0.4,0.1,0.6,0.1c0.4,0,0.8-0.1,1.1-0.2c0.4-0.2,0.6-0.4,0.9-0.7c0.2-0.3,0.3-0.7,0.3-1.1c-0.7,0.5-1.5,0.7-2.4,0.7
				c-0.3,0-0.7,0-1-0.1c-0.3-0.1-0.6-0.2-0.9-0.4c-0.2-0.2-0.3-0.5-0.3-0.8c0-0.2,0.1-0.5,0.2-0.6c0.1-0.2,0.3-0.3,0.6-0.5
				c0.2-0.1,0.5-0.2,0.7-0.3c0.3-0.1,0.6-0.1,0.9-0.1c0.4,0,0.7,0.1,1,0.2c0.3,0.1,0.6,0.3,0.9,0.5c0.3,0.2,0.4,0.4,0.6,0.7
				S235,235.1,235,235.5z M234.4,234.9c-0.1-0.3-0.3-0.5-0.5-0.7c-0.2-0.2-0.5-0.3-0.7-0.4c-0.3-0.1-0.6-0.1-0.9-0.1
				c-0.3,0-0.5,0-0.8,0.1c-0.3,0.1-0.6,0.2-0.8,0.4c-0.3,0.2-0.4,0.4-0.4,0.6c0,0.2,0.1,0.4,0.3,0.5c0.2,0.1,0.4,0.2,0.7,0.3
				c0.2,0.1,0.5,0.1,0.8,0.1c0.3,0,0.5,0,0.8-0.1c0.3-0.1,0.6-0.1,0.8-0.3C234,235.2,234.2,235,234.4,234.9z"/>
			<path class="st4" d="M241.4,237.8h-4.2c0-0.1,0-0.2,0-0.2c0-0.4,0.1-0.7,0.2-1.1c0.1-0.3,0.4-0.6,0.6-0.8c0.3-0.2,0.6-0.4,1-0.4
				c0.2,0,0.3,0,0.5,0c0.1,0,0.3,0,0.6-0.1c0.2,0,0.4-0.1,0.5-0.2c0.1-0.1,0.2-0.3,0.2-0.5c0-0.2-0.1-0.4-0.2-0.5
				c-0.2-0.1-0.3-0.2-0.6-0.3c-0.2-0.1-0.4-0.1-0.7-0.1c-0.2,0-0.5,0-0.7,0.1c-0.2,0-0.4,0.1-0.6,0.2c-0.2,0.1-0.4,0.2-0.6,0.3
				l-0.2-0.4c0.4-0.2,0.7-0.3,1-0.4c0.3-0.1,0.7-0.1,1.1-0.1c0.3,0,0.6,0,0.9,0.1c0.3,0.1,0.6,0.2,0.8,0.4c0.2,0.2,0.3,0.5,0.3,0.8
				c0,0.2-0.1,0.4-0.2,0.6c-0.1,0.2-0.3,0.3-0.5,0.4c-0.2,0.1-0.4,0.1-0.7,0.2c-0.1,0-0.3,0-0.4,0c-0.1,0-0.3,0-0.5,0
				c-0.3,0-0.5,0.1-0.8,0.2c-0.2,0.1-0.4,0.3-0.5,0.6c-0.1,0.2-0.2,0.5-0.2,0.8h3.7V237.8z"/>
			<path class="st4" d="M244.8,237.5c0,0.1,0,0.2-0.1,0.3c-0.1,0.1-0.2,0.1-0.3,0.1c-0.1,0-0.2,0-0.3-0.1c-0.1-0.1-0.1-0.2-0.1-0.3
				c0-0.1,0-0.2,0.1-0.3s0.2-0.1,0.3-0.1c0.1,0,0.2,0,0.3,0.1S244.8,237.4,244.8,237.5z"/>
			<path class="st4" d="M251.5,237.8h-4.2c0-0.1,0-0.2,0-0.2c0-0.4,0.1-0.7,0.2-1.1c0.1-0.3,0.4-0.6,0.6-0.8c0.3-0.2,0.6-0.4,1-0.4
				c0.2,0,0.3,0,0.5,0c0.1,0,0.3,0,0.6-0.1c0.2,0,0.4-0.1,0.5-0.2c0.1-0.1,0.2-0.3,0.2-0.5c0-0.2-0.1-0.4-0.2-0.5
				c-0.2-0.1-0.3-0.2-0.6-0.3c-0.2-0.1-0.4-0.1-0.7-0.1c-0.2,0-0.5,0-0.7,0.1c-0.2,0-0.4,0.1-0.6,0.2c-0.2,0.1-0.4,0.2-0.6,0.3
				l-0.2-0.4c0.4-0.2,0.7-0.3,1-0.4c0.3-0.1,0.7-0.1,1.1-0.1c0.3,0,0.6,0,0.9,0.1c0.3,0.1,0.6,0.2,0.8,0.4c0.2,0.2,0.3,0.5,0.3,0.8
				c0,0.2-0.1,0.4-0.2,0.6c-0.1,0.2-0.3,0.3-0.5,0.4c-0.2,0.1-0.4,0.1-0.7,0.2c-0.1,0-0.3,0-0.4,0c-0.1,0-0.3,0-0.5,0
				c-0.3,0-0.5,0.1-0.8,0.2c-0.2,0.1-0.4,0.3-0.5,0.6c-0.1,0.2-0.2,0.5-0.2,0.8h3.7V237.8z"/>
			<path class="st4" d="M258.9,236.6h-1.2v1.2h-0.5v-1.2H254l-0.2-0.5l3.5-2.8h0.5v2.8h1.2V236.6z M257.3,236.1v-2.2l-2.8,2.2H257.3
				z"/>
			<path class="st4" d="M265.7,235.5c0,0.5-0.1,0.9-0.4,1.3c-0.3,0.4-0.6,0.7-1.1,0.9c-0.4,0.2-0.9,0.3-1.4,0.3
				c-0.3,0-0.5,0-0.7-0.1c-0.2-0.1-0.4-0.1-0.6-0.2c-0.2-0.1-0.4-0.2-0.7-0.4l0.3-0.4c0.2,0.1,0.4,0.3,0.6,0.3
				c0.2,0.1,0.3,0.1,0.5,0.2c0.2,0,0.4,0.1,0.6,0.1c0.4,0,0.8-0.1,1.1-0.2c0.4-0.2,0.6-0.4,0.9-0.7c0.2-0.3,0.3-0.7,0.3-1.1
				c-0.7,0.5-1.5,0.7-2.4,0.7c-0.3,0-0.7,0-1-0.1c-0.3-0.1-0.6-0.2-0.9-0.4c-0.2-0.2-0.3-0.5-0.3-0.8c0-0.2,0.1-0.5,0.2-0.6
				c0.1-0.2,0.3-0.3,0.6-0.5s0.5-0.2,0.7-0.3c0.3-0.1,0.6-0.1,0.9-0.1c0.4,0,0.7,0.1,1,0.2c0.3,0.1,0.6,0.3,0.9,0.5
				c0.3,0.2,0.4,0.4,0.6,0.7C265.6,234.8,265.7,235.1,265.7,235.5z M265.1,234.9c-0.1-0.3-0.3-0.5-0.5-0.7c-0.2-0.2-0.5-0.3-0.7-0.4
				c-0.3-0.1-0.6-0.1-0.9-0.1c-0.3,0-0.5,0-0.8,0.1c-0.3,0.1-0.6,0.2-0.8,0.4c-0.3,0.2-0.4,0.4-0.4,0.6c0,0.2,0.1,0.4,0.3,0.5
				c0.2,0.1,0.4,0.2,0.7,0.3c0.2,0.1,0.5,0.1,0.8,0.1c0.3,0,0.5,0,0.8-0.1c0.3-0.1,0.6-0.1,0.8-0.3C264.7,235.2,265,235,265.1,234.9
				z"/>
			<path class="st4" d="M268.7,237.5c0,0.1,0,0.2-0.1,0.3c-0.1,0.1-0.2,0.1-0.3,0.1c-0.1,0-0.2,0-0.3-0.1c-0.1-0.1-0.1-0.2-0.1-0.3
				c0-0.1,0-0.2,0.1-0.3c0.1-0.1,0.2-0.1,0.3-0.1c0.1,0,0.2,0,0.3,0.1S268.7,237.4,268.7,237.5z"/>
			<path class="st4" d="M272.5,237.8h-0.5v-4.5h0.5V237.8z"/>
			<path class="st4" d="M280.2,237.8h-4.2c0-0.1,0-0.2,0-0.2c0-0.4,0.1-0.7,0.2-1.1c0.1-0.3,0.4-0.6,0.6-0.8c0.3-0.2,0.6-0.4,1-0.4
				c0.2,0,0.3,0,0.5,0c0.1,0,0.3,0,0.6-0.1c0.2,0,0.4-0.1,0.5-0.2c0.1-0.1,0.2-0.3,0.2-0.5c0-0.2-0.1-0.4-0.2-0.5
				c-0.2-0.1-0.3-0.2-0.6-0.3c-0.2-0.1-0.4-0.1-0.7-0.1c-0.2,0-0.5,0-0.7,0.1c-0.2,0-0.4,0.1-0.6,0.2c-0.2,0.1-0.4,0.2-0.6,0.3
				l-0.2-0.4c0.4-0.2,0.7-0.3,1-0.4c0.3-0.1,0.7-0.1,1.1-0.1c0.3,0,0.6,0,0.9,0.1c0.3,0.1,0.6,0.2,0.8,0.4c0.2,0.2,0.3,0.5,0.3,0.8
				c0,0.2-0.1,0.4-0.2,0.6c-0.1,0.2-0.3,0.3-0.5,0.4c-0.2,0.1-0.4,0.1-0.7,0.2c-0.1,0-0.3,0-0.4,0c-0.1,0-0.3,0-0.5,0
				c-0.3,0-0.5,0.1-0.8,0.2c-0.2,0.1-0.4,0.3-0.5,0.6c-0.1,0.2-0.2,0.5-0.2,0.8h3.7V237.8z"/>
			<path class="st4" d="M284.2,237.8h-0.5v-4.5h0.5V237.8z"/>
			<path class="st4" d="M291.9,237.8h-4.2c0-0.1,0-0.2,0-0.2c0-0.4,0.1-0.7,0.2-1.1c0.1-0.3,0.4-0.6,0.6-0.8c0.3-0.2,0.6-0.4,1-0.4
				c0.2,0,0.3,0,0.5,0c0.1,0,0.3,0,0.6-0.1c0.2,0,0.4-0.1,0.5-0.2c0.1-0.1,0.2-0.3,0.2-0.5c0-0.2-0.1-0.4-0.2-0.5
				c-0.2-0.1-0.3-0.2-0.6-0.3c-0.2-0.1-0.4-0.1-0.7-0.1c-0.2,0-0.5,0-0.7,0.1c-0.2,0-0.4,0.1-0.6,0.2c-0.2,0.1-0.4,0.2-0.6,0.3
				l-0.2-0.4c0.4-0.2,0.7-0.3,1-0.4c0.3-0.1,0.7-0.1,1.1-0.1c0.3,0,0.6,0,0.9,0.1s0.6,0.2,0.8,0.4c0.2,0.2,0.3,0.5,0.3,0.8
				c0,0.2-0.1,0.4-0.2,0.6c-0.1,0.2-0.3,0.3-0.5,0.4c-0.2,0.1-0.4,0.1-0.7,0.2c-0.1,0-0.3,0-0.4,0c-0.1,0-0.3,0-0.5,0
				c-0.3,0-0.5,0.1-0.8,0.2c-0.2,0.1-0.4,0.3-0.5,0.6c-0.1,0.2-0.2,0.5-0.2,0.8h3.7V237.8z"/>
			<path class="st4" d="M325.1,233.1l-1.7,5.3h-0.5l-1.2-4.4l-1.2,4.4H320l-1.7-5.3h0.5l1.5,4.4l1.2-4.4h0.5l1.2,4.4l1.4-4.4H325.1z
				"/>
			<path class="st4" d="M333,233.1l-1.7,5.3h-0.5l-1.2-4.4l-1.2,4.4h-0.5l-1.7-5.3h0.5l1.5,4.4l1.2-4.4h0.5l1.2,4.4l1.4-4.4H333z"/>
			<path class="st4" d="M340.9,233.1l-1.7,5.3h-0.5l-1.2-4.4l-1.2,4.4h-0.5l-1.7-5.3h0.5l1.5,4.4l1.2-4.4h0.5l1.2,4.4l1.4-4.4H340.9
				z"/>
			<path class="st4" d="M343.5,238.1c0,0.1,0,0.2-0.1,0.3c-0.1,0.1-0.2,0.1-0.3,0.1c-0.1,0-0.2,0-0.3-0.1c-0.1-0.1-0.1-0.2-0.1-0.3
				c0-0.1,0-0.2,0.1-0.3c0.1-0.1,0.2-0.1,0.3-0.1c0.1,0,0.2,0,0.3,0.1S343.5,238,343.5,238.1z"/>
			<path class="st4" d="M351.1,235.8c0,0.4-0.1,0.8-0.2,1.1c-0.1,0.3-0.3,0.6-0.6,0.8c-0.2,0.2-0.5,0.4-0.8,0.6s-0.6,0.2-1,0.2H346
				v-5.3h2.5c0.4,0,0.7,0.1,1.1,0.2c0.3,0.1,0.6,0.3,0.8,0.5s0.4,0.5,0.5,0.8C351,235,351.1,235.4,351.1,235.8z M350.6,235.8
				c0-0.4-0.1-0.7-0.2-0.9c-0.1-0.3-0.2-0.5-0.4-0.7s-0.4-0.3-0.7-0.4c-0.3-0.1-0.5-0.1-0.8-0.1h-2v4.4h2c0.4,0,0.7-0.1,1-0.2
				c0.3-0.2,0.6-0.4,0.8-0.7S350.6,236.3,350.6,235.8z"/>
			<path class="st4" d="M358.2,234.7c0,0.1,0,0.3-0.1,0.5s-0.1,0.3-0.2,0.5c-0.1,0.1-0.2,0.3-0.3,0.3c-0.1,0.1-0.3,0.2-0.4,0.2
				c-0.2,0-0.3,0.1-0.4,0.1l1.4,2.3h-0.6l-1.3-2.3h-2.3v2.3h-0.5v-5.3h3.1c0.3,0,0.5,0,0.6,0c0.1,0,0.3,0.1,0.4,0.2
				c0.2,0.1,0.4,0.3,0.5,0.6C358.1,234.2,358.2,234.4,358.2,234.7z M357.7,234.6c0-0.4-0.1-0.7-0.4-0.9c-0.1-0.1-0.2-0.1-0.3-0.1
				c-0.1,0-0.4,0-0.7,0h-2.4v2.1h2.4c0.3,0,0.5,0,0.7,0c0.1,0,0.3-0.1,0.4-0.2c0.1-0.1,0.2-0.2,0.3-0.4S357.7,234.8,357.7,234.6z"/>
			<path class="st4" d="M365.4,238.5H365v-2.5h-3.7v2.5h-0.5v-5.3h0.5v2.3h3.7v-2.3h0.5V238.5z"/>
			<path class="st4" d="M373.2,238.5h-0.5l-0.9-1.9H369l-0.9,1.9h-0.5l2.6-5.3h0.5L373.2,238.5z M371.5,236.1l-1.1-2.3l-1.1,2.3
				H371.5z"/>
			<path class="st4" d="M379.8,234.7c0,0.1,0,0.3-0.1,0.5c0,0.2-0.1,0.3-0.2,0.5c-0.1,0.1-0.2,0.3-0.3,0.3c-0.1,0.1-0.3,0.2-0.4,0.2
				c-0.2,0-0.3,0.1-0.4,0.1l1.4,2.3h-0.6l-1.3-2.3h-2.3v2.3h-0.5v-5.3h3.1c0.3,0,0.5,0,0.6,0c0.1,0,0.3,0.1,0.4,0.2
				c0.2,0.1,0.4,0.3,0.5,0.6C379.7,234.2,379.8,234.4,379.8,234.7z M379.3,234.6c0-0.4-0.1-0.7-0.4-0.9c-0.1-0.1-0.2-0.1-0.3-0.1
				s-0.4,0-0.7,0h-2.4v2.1h2.4c0.3,0,0.5,0,0.7,0c0.1,0,0.3-0.1,0.4-0.2c0.1-0.1,0.2-0.2,0.3-0.4S379.3,234.8,379.3,234.6z"/>
			<path class="st4" d="M386.1,233.6h-2v4.9h-0.5v-4.9h-2v-0.5h4.6V233.6z"/>
			<path class="st4" d="M393.7,238.5h-0.5v-4.4l-2.2,3.6l-2.2-3.6v4.4h-0.5v-5.3h0.5l2.2,3.6l2.2-3.6h0.5V238.5z"/>
			<path class="st4" d="M401.3,238.5h-0.5l-0.9-1.9h-2.7l-0.9,1.9h-0.5l2.6-5.3h0.5L401.3,238.5z M399.6,236.1l-1.1-2.3l-1.1,2.3
				H399.6z"/>
			<path class="st4" d="M408,238.5h-0.5l-3.8-4.6v4.6h-0.5v-5.3h0.5l3.8,4.6v-4.6h0.5V238.5z"/>
			<path class="st4" d="M411.6,238.1c0,0.1,0,0.2-0.1,0.3c-0.1,0.1-0.2,0.1-0.3,0.1c-0.1,0-0.2,0-0.3-0.1c-0.1-0.1-0.1-0.2-0.1-0.3
				c0-0.1,0-0.2,0.1-0.3c0.1-0.1,0.2-0.1,0.3-0.1c0.1,0,0.2,0,0.3,0.1C411.6,237.9,411.6,238,411.6,238.1z"/>
			<path class="st4" d="M419.1,238.5h-0.5l-3.8-4.6v4.6h-0.5v-5.3h0.5l3.8,4.6v-4.6h0.5V238.5z"/>
			<path class="st4" d="M426.5,238.5h-4.6v-5.3h4.4v0.5h-3.9v1.8h2.1v0.5h-2.1v2h4.1V238.5z"/>
			<path class="st4" d="M432.8,233.6h-2v4.9h-0.5v-4.9h-2v-0.5h4.6V233.6z"/>
		</g>
	</g>
</g>
</svg>
