<?xml version="1.0" encoding="utf-8"?>
<!-- Generator: Adobe Illustrator 22.1.0, SVG Export Plug-In . SVG Version: 6.00 Build 0)  -->
<svg version="1.1" id="Layer_1" xmlns="http://www.w3.org/2000/svg" xmlns:xlink="http://www.w3.org/1999/xlink" x="0px" y="0px"
	 viewBox="0 0 252 144.1" style="enable-background:new 0 0 252 144.1;" xml:space="preserve">
<style type="text/css">
	.st0{fill:#FFFFFF;}
	.st1{fill:#545454;}
	.st2{fill:#616161;}
</style>
<rect class="st0" width="252" height="144.1"/>
<rect x="-294.5" y="-92.5" style="fill:none;" width="249" height="81.5"/>
<text transform="matrix(1 0 0 1 -294.5 -86.31)" style="font-family:'SackersGothicLight'; font-size:12px; letter-spacing:1;">sue hartman</text>
<g>
	<g>
		<g>
			<path class="st1" d="M29.4,106.3c0-0.3,0.3-2.8,0.1-3.7c-0.1-3.7-0.9-5.1-2.4-9.4c-1-2.8-2.7-7.6-2.9-10.6
				c-0.1-1.3-0.1-2.5-0.1-3.8c0-0.6,0.2-1.2,0.6-1.7c1.7-2,3.3-4.2,4.7-6.5c0.4-0.7,0.8-1.5,1.2-2.2c0.1-0.1,0.1-0.2,0.2-0.3
				c0.4,0.3,0.7,0.7,1.2,0.4c0.8-0.4,0.2-1.1,0.2-1.6c-0.2-0.2-0.5,0.1-0.8-0.1c0,0-0.1-0.1-0.1-0.1c0.3-1.3,0.8-2.5,1.1-3.9
				c0.1-0.3,0.3-0.3,0.5-0.2c0.2,0.1,0.4,0.2,0.6,0.3c0.4,0.1,1-0.3,1.1-0.6c0.1-0.5,0-1-0.4-1.2c-0.3-0.1-0.5-0.3-0.9-0.3
				c-0.5,0.1-0.7-0.2-0.7-0.6c0.1-1.1,0.2-2.1,0.2-3.2c0-0.4,0.4-0.4,0.7-0.4c0.8-0.1,1-0.5,0.7-1.3c-0.1-0.2,0-0.3,0-0.5
				c-0.1,0-0.2-0.1-0.2,0c-0.7,0.2-1,0.2-0.9-0.8c0-0.8,0.1-1.5,0.2-2.3c0.1-0.5,0.2-0.6,0.7-0.6c0.9,0.1,0.9,0,1.4-0.7
				c0.3-0.5,0-0.8-0.2-1.1c-0.2-0.4-0.5-0.2-0.8-0.2c-0.3,0-0.4,0.3-0.8,0.3c-0.1-0.7,0-1.4,0.1-2.1c0-0.2,0.2-0.3,0.4-0.3
				c0.1,0,0.2,0,0.3,0c0.4-0.1,0.8-0.1,0.9-0.5c0.1-0.5-0.3-0.6-0.5-0.8c-0.2-0.1-0.4-0.3-0.5-0.4c-0.4-0.4-0.5-0.5,0-0.8
				c0.3-0.1,0.5-0.3,0.7-0.5c0.3-0.3,0.4-1,0.1-1.4c-0.6-0.7-1.3-0.6-1.7,0.2c-0.2,0.4-0.3,0.8,0,1.3c0.3,0.5,0.3,1.1,0.1,1.7
				c-0.4,0-0.4-0.5-0.8-0.5c-0.1,0.3,0.1,0.9-0.6,0.9c0.2,0.3,0.4,0.3,0.6,0.3c0.6,0.1,0.7,0.3,0.6,0.9c0,0.3-0.1,0.6-0.1,0.9
				c0,0.5-0.1,0.8-0.8,0.7c-0.5-0.1-0.7,0.3-0.7,0.8c0,0.3,0,0.6,0,0.8c0,0,0.1,0,0.1,0c1.3,0.2,1.3,0.2,1.2,1.5
				C33.1,52.6,33,53,33,53.4c-0.2,0.1-0.5-0.5-0.7,0c-0.1,0.3-0.4,0.3-0.7,0.3c0.1,0.4,0.4,0.6,0.7,0.8c0.4,0.4,0.6,0.8,0.6,1.4
				c-0.1,1.1-0.2,2.1-0.3,3.2c-0.1,0.7-0.3,1.3-0.9,1.7c-0.2,0.1-0.5,0.2-0.6,0.5c0,0.2,0.2,0.3,0.3,0.4c0.7,0.3,0.6,0.9,0.5,1.5
				c-0.2,0.8-0.4,1.6-0.7,2.3C31,66,30.9,66,30.6,65.6c-0.1-0.1-0.1-0.2-0.1-0.2c-0.3-0.4-0.9-0.3-1.1,0.1c-0.3,0.5-0.1,1.3,0.4,1.6
				c0.2,0.1,0.6,0.1,0.7,0.4c0.1,0.3-0.2,0.6-0.3,0.9c-1,2.1-2.3,4.1-4,5.7c-0.2,0.2-0.4,0.5-0.7,0.5c-0.2-0.1-0.1-0.2-0.1-0.3
				c1.1-1.9,1.4-4.1,1.6-6.2c0.2-2.2,0.3-4.4,0.6-6.6c0.3-2.1,1.1-4.1,1.8-6.1c0-0.1,0.1-0.3,0.2-0.6c-0.5,0.4-0.7,0.8-0.8,1.1
				c-0.8,1.6-1.1,3.3-1.3,5c-0.3,1.8-0.5,3.7-0.6,5.6c-0.1,1.1-0.1,2.2-0.2,3.2c-0.2,1.3-0.5,2.6-1.1,3.8c-0.2,0.4-0.4,0.8-0.8,1
				c-0.3-0.1-0.2-0.4-0.2-0.6c0.1-1.4,0.1-2.7,0.2-4.1c0.1-1.7,0.3-3.5,0.5-5.2c0.2-1.7,0.4-3.5,0.5-5.2c0-0.3,0.1-0.6,0.3-0.9
				c1.4-3.2,2.2-6.6,2.7-10.1c0.3-2,0.6-4,0.6-6.1c0-0.5,0.2-1,0.2-1.5c0-0.3,0.2-0.6,0-1c-0.3,0.7-0.4,1.4-0.4,2.1
				c-0.1,4.7-1,9.1-2.6,13.5c-0.1,0.2-0.1,0.5-0.5,0.7c-0.1-0.5-0.1-1,0-1.5c0.2-2.1,0.2-4.1,0-6.2c-0.2-1.9-0.3-3.8-0.5-5.7
				c0-0.3,0-0.6,0.3-0.9c1.6-1.8,2.5-4.1,4-6c0.7-0.9,1.5-1.9,2.3-2.8c0.5-0.6,0.6-0.6,1.2,0c0.2,0.2,0.5,0.4,0.7,0.5
				c0.5,0.4,0.8-0.2,1.3-0.2c0.2,0,0.4-1.1,0.2-1.3c-0.3-0.3-0.6-0.6-1.1-0.7c-0.1,0-0.2,0-0.4-0.1c0.7-0.8,1.4-1.5,2.2-2
				c0.2-0.1,0.4,0,0.5,0.2c0.2,0.3,0.5,0.4,0.7,0.6c0.3,0.2,0.7,0.2,0.9-0.1c0.2-0.3,0.2-0.7,0-0.9c-0.4-0.3-0.2-0.8-0.4-1.1
				c0.4-0.3,0.8-0.2,1.3-0.2c0.8,0,1-0.2,1.1-1c0.1-0.4-0.2-0.8-0.4-1c-0.2-0.2-0.5-0.4-0.9-0.1c-0.2,0.2-0.5,0.1-0.8,0.3
				c-0.4,0.3-0.6,0.6-0.4,1.1c0.1,0.3,0,0.6-0.3,0.8c-0.2,0.1-0.4,0.3-0.6,0.4c-0.2-0.1-0.2-0.2-0.2-0.3c0-0.2,0-0.5-0.3-0.6
				c-0.3-0.1-0.3,0.2-0.4,0.3c-0.3,0.4-0.6-0.1-0.9,0c0.1,0.4,0.4,0.6,0.7,0.9c0.2,0.2,0.2,0.4,0,0.6c-0.6,0.5-1.2,1.1-1.8,1.6
				c-0.3,0.2-0.5,0.3-0.8-0.1c-0.5-0.7-1-0.6-1.5,0.1c-0.1,0.2-0.4,0.2-0.5,0.3c0.2,0.3,0.5,0.6,0.8,0.9c0.3,0.2,0.3,0.5,0.1,0.7
				c-2.2,2.6-4.1,5.3-6,8.1c-0.1,0.1-0.2,0.3-0.5,0.3c-0.1-0.8-0.2-1.6-0.2-2.4c0-1.7,0-3.5,0-5.2c0-0.8,0.1-1.7,0.2-2.5
				c0.1-0.8,0.5-1.4,0.9-2c0.6-0.9,1.4-1.7,1.8-2.7c0.2-0.3,0.4-0.3,0.6-0.2c0.4,0.2,0.8,0.4,1.3,0.1c0.4-0.2,0.6-0.6,0.6-0.9
				c0.1-0.3-0.2-0.6-0.6-0.8c-0.4-0.3-0.8-0.2-1.2-0.4c-0.2-0.1-0.3,0-0.4,0.2c-0.3,0.4-0.8,0.7-0.5,1.3c0,0,0,0.1,0,0.2
				c-0.3,1-0.9,1.8-1.7,2.4c-0.2-0.2-0.2-0.3-0.2-0.4c0.3-1.1,0.6-2.3,1.1-3.3c0.1-0.3,0.4-0.6,0.6-0.9c0.3-0.4,0.7-0.6,1.3-0.6
				c0.6,0,1.1-0.1,1.3-0.8c0.1-0.5-0.1-1.2-0.5-1.4c-0.2-0.1-0.3,0-0.4,0c-0.6,0.2-0.9-0.1-0.8-0.7c0.1-0.5,0.2-1,0.3-1.5
				c0.1-0.4,0.2-0.6,0.6-0.6c0.1,0,0.2,0,0.3-0.1c0.4-0.1,0.7-0.2,0.7-0.6c0-0.3-0.3-0.6-0.6-0.7c-0.8-0.3-0.9-0.8-0.2-1.4
				c0.2-0.2,0.4-0.3,0.5-0.6c0.3-0.5,0.1-1.2-0.5-1.4c-0.2-0.1-0.3-0.3-0.6-0.3c-0.4,0.1-1,0.5-1.1,1c-0.1,0.2,0,0.4-0.2,0.7
				c-0.2,0.2,0.1,0.3,0.2,0.4c0.9,0.8,0.9,0.9,0.4,2.1c-0.4-0.1-0.4-0.5-0.7-0.6c-0.2-0.1-0.5-0.2-0.5,0.1c0,0.5-0.3,0.6-0.6,0.8
				c0.4,0.3,0.8,0.3,1.2,0.3c0.5,0.1,0.6,0.2,0.6,0.7c-0.1,0.7-0.3,1.5-0.5,2.2c-0.1,0.4-0.3,0.6-0.8,0.4c-0.6-0.2-1.1,0.1-1.1,0.7
				c0,0.4-0.1,0.7,0.2,1.2c0.3,0.6,0.5,1.5,0.3,2.2c-0.5,1.4-0.9,2.8-1.3,4.2c0,0.1-0.1,0.3-0.2,0.4c-0.3,0-0.4-0.3-0.4-0.6
				c-0.4-1-1-1.9-1.7-2.6c-0.5-0.5-0.4-0.6,0-1.1c0.2-0.2,0.4-0.3,0.3-0.7c-0.1-0.6-0.3-1-0.8-1.4c-0.3-0.2-1.1,0.1-1.3,0.5
				c-0.4,0.6-0.4,1,0.2,1.4c0.5,0.4,0.7,0.9,0.9,1.4c0.2,0.7,0.7,1.2,1.1,1.7c1,1,1.2,2.1,1.3,3.4c0,2.7-0.2,5.4-0.4,8
				c0,0.3,0,0.8-0.3,0.9c-0.4,0.1-0.6-0.3-0.8-0.6c-0.2-0.2-0.4-0.5-0.5-0.7c-0.3-0.5-0.3-0.6,0.3-0.9c0.2-0.1,0.2-0.2,0.2-0.4
				c-0.1-0.9-0.2-1.1-0.7-1.3c-0.2-0.1-0.4,0-0.6,0.1c-0.5,0.2-0.7,0.1-1-0.4c-0.3-0.6-0.6-1.2-0.7-1.9c-0.1-0.7,0-0.7,0.6-0.9
				c0.4-0.1,0.9-0.1,1.4-0.5c-0.4-0.2-0.8-0.3-0.7-0.8c0-0.3-0.2-0.2-0.4-0.1c-0.3,0.2-0.3,0.5-0.5,0.7c-0.2,0.2-0.4,0.2-0.4-0.1
				c-0.2-0.6-0.3-1.2,0.2-1.7c0.6-0.5,0.3-1,0.1-1.5c-0.4-0.8-0.6-0.8-1.4-0.5c-0.5,0.2-0.7,1-0.5,1.4c0.2,0.3,0.4,0.5,0.7,0.7
				c0.6,0.4,0.6,0.8,0,1.2c-0.2,0.2-0.4,0.3-0.6,0.5c-0.3,0.5-0.2,0.9,0.3,0.9c0.8,0.1,1,0.6,1.1,1.2c0.1,0.4,0.3,0.8,0.4,1.2
				c0.1,0.4-0.1,0.6-0.5,0.5c-0.5-0.2-0.6,0.2-0.8,0.3c-0.2,0.3-0.3,0.7-0.1,1c0.3,0.7,0.4,0.8,1.2,0.7c0.1,0,0.3,0,0.4-0.1
				c0.8-0.3,1.3,0,1.7,0.7c0.4,0.6,0.9,1.2,1.3,1.7c0.3,0.4,0.5,0.8,0.5,1.4c0.1,2.8,0.4,5.5,0.7,8.3c0.1,1.2,0.1,2.3,0.2,3.5
				c0,0.1,0,0.3-0.2,0.5c-0.4-0.4-0.5-0.9-0.8-1.4c-0.3-0.5-0.5-1-0.7-1.5c-0.2-0.5-0.4-1-0.7-1.6c-0.3,0.2-0.2,0.5-0.2,0.7
				c0.1,0.7,0.3,1.4,0.6,2c0.4,0.7,0.8,1.4,1.1,2.1c0.3,0.7,0.7,1.4,0.6,2.2c-0.2,0.1-0.3,0.1-0.4,0c-1.2-1.1-2.4-2.1-3.4-3.4
				c-0.8-1-1.4-2.2-1.8-3.5c-0.3-0.9-0.2-1,0.7-1.1c0.1,0,0.2,0,0.4,0c0.1-0.3-0.1-0.5,0-0.7c0-0.6-0.5-1-1.1-0.9
				c-0.2,0-0.4,0-0.6,0.1c-0.3,0.2-0.4,0.2-0.7,0c-0.3-0.2-0.6,0-0.9-0.2c-0.1-0.1-0.2,0-0.2,0c-0.2,0.2-0.7,1.1-0.6,1.3
				c0.2,0.7,0.6,0.9,1.3,0.9c0,0,0.1,0,0.1,0c0.4,0,0.8-0.3,1.2,0c0.3,0.3,0.3,0.7,0.4,1c0.4,1.5,1.3,2.7,2.3,3.8
				c0.8,0.9,1.8,1.7,2.5,2.7c0.7,0.9,1,1.9,0.8,3.1c-0.3,2.9-1,5.7-1.6,8.6c-0.3,1.4-0.7,2.9-0.6,4.4c0,0.2,0,0.3-0.1,0.5
				c-0.1,0.2-0.2,0.2-0.4,0.1c-0.3-0.3-0.4-0.6-0.5-1c-0.7-2-1.1-4-1.6-6c-0.1-0.4-0.1-0.7-0.3-1.1c0.3-0.6,0.8-0.1,1.3-0.3
				c0-0.2,0-0.4,0.1-0.6c0.2-0.1,0.1-0.3,0.1-0.5c-0.1-0.5-0.5-0.8-1.1-0.7c-0.7,0.2-0.7,0.2-0.9-0.6c-0.1-0.4-0.2-0.8-0.3-1.3
				c-0.2-0.9-0.2-1,0.7-1.3c0.3-0.1,0.6-0.1,0.9-0.5c-0.5,0.1-0.7-0.1-0.8-0.6c0-0.3-0.3-0.3-0.5-0.1c-0.2,0.2-0.2,0.6-0.7,0.8
				c-0.3-1.1-1.1-2.1-0.5-3.3c0.1-0.1,0.2-0.3,0-0.5c-0.4-0.2-0.6-0.7-1-0.8c-0.4-0.1-0.7-0.1-0.8,0.1c-0.2,0.3-0.5,0.4-0.5,0.9
				c0.1,0.8,0.5,1,1.1,1.2c1,0.3,1.2,1.3,0.5,2.1c-0.1,0.1-0.2,0.3-0.3,0.4c-0.3,0.2-0.1,0.4,0,0.6c0.2,0.4,0.6,0.3,0.9,0.3
				c0.3,0,0.6-0.1,0.7,0.3c0.2,0.8,0.4,1.6,0.6,2.3c-0.3,0.2-0.5-0.1-0.6-0.1c-0.2,0-0.4,0.1-0.6,0.1c-0.7,0.1-1.1,0.8-0.7,1.4
				c0.4,0.7,0.7,0.8,1.4,0.6c0.4-0.1,0.7-0.3,1.1-0.1c0.1,1.6,0.3,3.2,0.6,4.8c0,0.1,0,0.2,0.1,0.3c0.6,1.2,1.1,2.5,1.8,3.7
				c0.2,0.4,0.3,0.7,0.4,1.1c0.1,2.5,0.2,5.1,0.4,7.6c0.1,1,0.2,2,0.3,3c0,0.2,0.1,0.4-0.1,0.6c-0.2,0.1-0.4-0.1-0.5-0.2
				c-1.3-1.4-2.8-2.4-4.1-3.7c-0.1-0.1-0.3-0.3-0.4-0.4c-0.3-0.4-0.3-0.4,0.1-0.7c0.1-0.1,0.3-0.2,0.4-0.3c0.3-0.2,0.4-0.7,0.2-1.1
				c-0.1-0.2-0.8-0.8-0.9-0.7c-0.3,0.1-0.3,0.3-0.5,0.5c-0.1,0.2-0.2,0.6-0.5,0.5c-0.3,0-0.3-0.4-0.4-0.6c-0.3-0.6-0.4-1.1,0.1-1.6
				c0.2-0.2,0.3-0.4,0.3-0.8c-0.5,0.2-0.8-0.4-1.2-0.4c-0.3,0-0.4-0.4-0.5-0.6c-0.3-0.9-0.6-1.8-0.8-2.7c-0.1-0.4,0-0.7,0.4-1
				c0.3-0.2,0.7-0.5,0.9-1c-0.5,0.2-0.8,0.1-1.1-0.3c-0.2-0.3-0.3,0.2-0.6,0.2c-0.3-0.7-0.3-1.4-0.4-2.2c0-0.3,0.1-0.4,0.4-0.5
				c0.3,0,0.6-0.1,0.9-0.1c0-0.2-0.1-0.4-0.1-0.7c0-0.7-0.2-1-1-1c-0.4,0-0.5-0.1-0.5-0.4c0-0.8,0-1.6,0-2.4c0-0.4,0.2-0.6,0.6-0.6
				c0.4-0.1,0.7-0.1,1.3-0.3c-0.5-0.2-0.8-0.4-0.7-0.9c0-0.3-0.2-0.3-0.4-0.1c-0.2,0.2-0.3,0.5-0.6,0.6c-0.2-0.4-0.1-0.8,0-1.1
				c0.1-0.3,0.2-0.5,0.3-0.8c0.1-0.2,0.4-0.5,0.2-0.7c-0.2-0.3-0.2-0.7-0.6-0.9c-0.4-0.2-0.7-0.7-1.2-0.3c-0.5,0.3-0.7,0.8-0.6,1.4
				c0,0.4,0.4,0.6,0.7,0.7c0.2,0.1,0.4,0.2,0.6,0.3c0.2,0.1,0.2,0.3,0.2,0.6c0,0.2-0.2,0.1-0.3,0.2c-0.4,0-0.7,0.3-1,0.5
				c-0.2,0.1-0.5,0.2-0.4,0.6c0.1,0.3,0.2,0.5,0.6,0.6c0.1,0,0.1,0,0.2,0c0.9,0.2,0.8,0.2,0.8,1.1c0,0.6,0,1.3,0,1.9
				c0,0.3-0.1,0.6-0.5,0.3c-0.3-0.2-0.7-0.2-1-0.2c-0.5-0.1-0.9,0.8-0.7,1.3c0.3,0.7,0.6,0.9,1.4,0.8c0.9-0.1,0.9-0.1,1.1,0.8
				c0.1,0.7,0.3,1.4,0.4,2.1c0.1,0.4,0,0.6-0.5,0.5c-0.2,0-0.6-0.3-0.7,0.2c-0.1,0.4-0.5,0.9,0,1.3c0.3,0.3,0.8,0.4,1.2,0.1
				c0.1-0.1,0.1-0.3,0.4-0.3c0.3,0.9,0.7,1.7,1,2.6c0.1,0.3-0.4,0.9-0.7,0.9c-0.5,0-0.6,0.4-1,0.5c-0.2,0-0.2,0.2-0.2,0.4
				c0,0.4,0.1,0.9,0.5,1.1c0.5,0.3,1,0.4,1.5-0.1c0.1-0.1,0.2-0.2,0.2-0.3c0.2-0.3,0.4-0.3,0.6,0.1c0.2,0.4,0.5,0.8,0.7,1.2
				c0.2,0.4,0.1,0.5-0.4,0.5c-0.2,0-0.4-0.1-0.6-0.1c-0.2,0.2-0.1,0.4-0.2,0.6c-0.2,0.4-0.1,0.7,0.3,1c0.3,0.3,0.7,0.1,0.9,0
				c0.4-0.2,0.2-0.6,0.4-0.9c0.2-0.1,0.3,0.1,0.4,0.2c1.5,2,3.2,3.8,5,5.4c0.3,0.3,0.6,0.6,0.9,0.9c0.3,0.2,0.4,0.5,0.5,0.9
				c0.6,2.7,1.5,4.3,2.5,6.8c0.9,2.4,2.1,5.1,2,8.3c0.1,0.5,0,0.7,0,1 M20.7,43.9c-0.5-0.3-0.5-0.3-0.6-0.9c0-0.3-0.2-0.3-0.4-0.2
				c-0.1,0.1-0.2,0.2-0.2,0.3c-0.2,0.2-0.2,0.7-0.6,0.5c-0.3-0.1-0.3-0.6-0.4-0.9c0-0.4,0.2-0.7,0.5-0.9c0.6-0.3,0.5-0.8,0.4-1.3
				c-0.1-0.4-0.3-0.7-0.6-1c-0.2-0.2-1.2,0.2-1.4,0.5c-0.4,0.7-0.3,1,0.4,1.6c0.6,0.6,0.6,1-0.2,1.4c-0.5,0.3-0.7,0.9-0.3,1.2
				c0.3,0.2,0.8,0.4,1.2,0.2C19.1,44.1,19.9,44.2,20.7,43.9z"/>
		</g>
	</g>
	<g>
		<path class="st1" d="M35.5,110.7h-7.2v-9.3h1.2v8h6V110.7z"/>
		<path class="st1" d="M49.8,107c0,0.9-0.2,1.6-0.6,2.2s-0.9,1-1.6,1.3c-0.7,0.3-1.5,0.4-2.3,0.4c-1.4,0-2.5-0.3-3.3-0.9
			s-1.2-1.6-1.2-2.9v-5.7h1.2v5.7c0,0.7,0.1,1.2,0.4,1.6c0.3,0.4,0.7,0.7,1.2,0.8c0.5,0.2,1.1,0.2,1.7,0.2s1.2-0.1,1.7-0.2
			c0.5-0.2,0.9-0.4,1.1-0.8c0.3-0.4,0.4-0.9,0.4-1.6v-5.7h1.2V107z"/>
		<path class="st1" d="M66.2,102.9l-0.7,1c-0.4-0.3-0.8-0.6-1.3-0.9c-0.4-0.2-0.9-0.4-1.4-0.5c-0.5-0.1-1-0.2-1.5-0.2
			c-0.6,0-1.1,0.1-1.6,0.2c-0.5,0.2-1,0.4-1.4,0.7c-0.4,0.3-0.7,0.7-1,1.2s-0.4,1-0.4,1.6c0,1.2,0.5,2.1,1.4,2.8
			c0.9,0.6,2,0.9,3.3,0.9c0.5,0,1,0,1.5-0.1c0.4-0.1,0.9-0.2,1.3-0.4s0.8-0.4,1.3-0.8l0.5,1.1c-0.6,0.5-1.3,0.8-2.1,1.1
			c-0.8,0.2-1.6,0.4-2.4,0.4c-1,0-2-0.2-2.9-0.6c-0.9-0.4-1.6-0.9-2.2-1.7c-0.5-0.8-0.8-1.6-0.8-2.7c0-1,0.3-1.9,0.8-2.6
			c0.5-0.8,1.2-1.3,2-1.7s1.8-0.6,2.7-0.6C63.2,101.1,64.8,101.7,66.2,102.9z"/>
		<path class="st1" d="M79.4,101.4l-4.2,4.7v4.6h-1.2v-4.6l-4.2-4.7h1.6l3.2,3.6l3.2-3.6H79.4z"/>
		<path class="st1" d="M101.5,110.7h-1.2v-4.2h-6.4v4.2h-1.2v-9.3h1.2v3.9h6.4v-3.9h1.2V110.7z"/>
		<path class="st1" d="M117.9,110.7h-1.3l-1.3-2.3h-6.4l-1.3,2.3h-1.3l5.3-9.3h1.1L117.9,110.7z M114.6,107.1l-2.5-4.5l-2.5,4.5
			H114.6z"/>
		<path class="st1" d="M131.9,110.7h-1.5l-2.6-3.7h-4.1v3.7h-1.2v-9.3h5.8c0.6,0,1.2,0.1,1.7,0.3s1,0.5,1.3,0.9
			c0.3,0.4,0.5,0.9,0.5,1.6c0,0.7-0.2,1.3-0.7,1.8c-0.5,0.5-1.1,0.8-1.8,0.9L131.9,110.7z M130.5,104.1c0-1-0.8-1.5-2.3-1.5h-4.6
			v3.1h4.6C129.7,105.7,130.5,105.2,130.5,104.1z"/>
		<path class="st1" d="M144.8,102.6H141v8.1h-1.2v-8.1h-3.7v-1.2h8.7V102.6z"/>
		<path class="st1" d="M160.5,110.7h-1.2v-7.1l-3.9,5.9l-3.9-5.9v7.1h-1.2v-9.3h1.2l3.9,5.9l3.9-5.9h1.2V110.7z"/>
		<path class="st1" d="M176.9,110.7h-1.3l-1.3-2.3h-6.4l-1.3,2.3h-1.3l5.3-9.3h1.1L176.9,110.7z M173.7,107.1l-2.5-4.5l-2.5,4.5
			H173.7z"/>
		<path class="st1" d="M190.7,110.7h-1.2l-6.5-7.4v7.4h-1.2v-9.3h1.2l6.5,7.4v-7.4h1.2V110.7z"/>
	</g>
</g>
<g>
	<path class="st2" d="M128.2,125.7h-0.4l-3.1-3.8v3.8h-0.4v-4.5h0.4l3.2,3.8v-3.8h0.4V125.7z"/>
	<path class="st2" d="M134.7,125.7h-0.5l-0.8-1.6h-2.3l-0.8,1.6h-0.5l2.2-4.5h0.4L134.7,125.7z M133.2,123.7l-0.9-2l-1,2H133.2z"/>
	<path class="st2" d="M139.6,121.7h-1.7v4.1h-0.4v-4.1h-1.7v-0.4h3.8V121.7z"/>
	<path class="st2" d="M145.5,124.1c0,0.3-0.1,0.6-0.2,0.8s-0.2,0.4-0.4,0.5s-0.4,0.2-0.6,0.3s-0.5,0.1-0.8,0.1c-0.4,0-0.7-0.1-1-0.2
		s-0.5-0.3-0.7-0.6s-0.3-0.6-0.3-1v-2.9h0.4v2.9c0,0.3,0.1,0.6,0.2,0.8s0.3,0.3,0.6,0.4s0.5,0.1,0.8,0.1c0.3,0,0.5,0,0.8-0.1
		s0.5-0.2,0.6-0.4c0.1-0.1,0.1-0.2,0.1-0.3s0-0.3,0-0.4v-2.9h0.4V124.1z"/>
	<path class="st2" d="M151.8,122.5c0,0.1,0,0.3-0.1,0.4s-0.1,0.3-0.2,0.4s-0.2,0.2-0.3,0.3c-0.1,0.1-0.2,0.1-0.4,0.2
		s-0.3,0.1-0.4,0.1l1.1,1.9h-0.5l-1.1-1.9h-2v1.9h-0.4v-4.5h2.6c0.2,0,0.4,0,0.5,0s0.2,0.1,0.4,0.1c0.2,0.1,0.3,0.2,0.4,0.5
		S151.8,122.3,151.8,122.5z M151.4,122.5c0-0.3-0.1-0.6-0.4-0.7c-0.1,0-0.2-0.1-0.3-0.1s-0.3,0-0.6,0h-2v1.8h2c0.2,0,0.4,0,0.5,0
		s0.2-0.1,0.3-0.1c0.1-0.1,0.2-0.2,0.3-0.3S151.4,122.7,151.4,122.5z"/>
	<path class="st2" d="M158.3,123.5c0,0.3-0.1,0.6-0.2,0.9s-0.3,0.5-0.5,0.8s-0.5,0.4-0.8,0.5s-0.6,0.2-0.9,0.2
		c-0.4,0-0.8-0.1-1.2-0.3s-0.7-0.5-0.9-0.8s-0.3-0.8-0.3-1.2c0-0.3,0.1-0.6,0.2-0.9s0.3-0.5,0.5-0.7s0.5-0.4,0.8-0.5
		s0.6-0.2,0.9-0.2c0.4,0,0.8,0.1,1.2,0.3s0.7,0.5,0.9,0.8S158.3,123.1,158.3,123.5z M157.9,123.5c0-0.3-0.1-0.5-0.2-0.8
		s-0.2-0.4-0.4-0.6s-0.4-0.3-0.6-0.4s-0.5-0.1-0.8-0.1c-0.4,0-0.7,0.1-1,0.2s-0.6,0.4-0.7,0.7s-0.3,0.6-0.3,1c0,0.4,0.1,0.7,0.3,1
		s0.4,0.5,0.7,0.7s0.6,0.2,1,0.2c0.3,0,0.5,0,0.8-0.1s0.5-0.2,0.6-0.4s0.3-0.4,0.4-0.6S157.9,123.8,157.9,123.5z"/>
	<path class="st2" d="M164.1,122.6c0,0.2,0,0.4-0.1,0.6s-0.2,0.3-0.4,0.5c-0.2,0.1-0.5,0.2-1,0.2h-2v1.9h-0.4v-4.5h2.6
		c0.2,0,0.4,0,0.5,0.1s0.3,0.1,0.4,0.2c0.1,0.1,0.2,0.3,0.3,0.4S164.1,122.4,164.1,122.6z M163.6,122.5c0-0.6-0.3-0.9-0.9-0.9h-2.2
		v1.7h2c0.1,0,0.3,0,0.3,0s0.2,0,0.2,0s0.1,0,0.2-0.1c0.1-0.1,0.2-0.2,0.3-0.3S163.6,122.7,163.6,122.5z"/>
	<path class="st2" d="M170.2,125.7h-0.5l-0.8-1.6h-2.3l-0.8,1.6h-0.5l2.2-4.5h0.4L170.2,125.7z M168.7,123.7l-0.9-2l-1,2H168.7z"/>
	<path class="st2" d="M175.1,121.7h-1.7v4.1H173v-4.1h-1.7v-0.4h3.8V121.7z"/>
	<path class="st2" d="M181.1,125.7h-0.4v-2.1h-3.1v2.1h-0.4v-4.5h0.4v1.9h3.1v-1.9h0.4V125.7z"/>
	<path class="st2" d="M184,125.7h-0.4v-4.5h0.4V125.7z"/>
	<path class="st2" d="M190.7,124.9c-0.2,0.2-0.4,0.4-0.7,0.5s-0.5,0.2-0.7,0.3s-0.5,0.1-0.8,0.1c-0.4,0-0.8-0.1-1.2-0.3
		s-0.7-0.5-0.9-0.8s-0.3-0.8-0.3-1.2c0-0.3,0.1-0.7,0.2-0.9s0.3-0.5,0.5-0.7s0.5-0.4,0.8-0.5s0.6-0.2,1-0.2c0.3,0,0.6,0,0.8,0.1
		s0.5,0.2,0.7,0.3s0.4,0.3,0.6,0.5l-0.3,0.3c-0.2-0.2-0.3-0.3-0.5-0.4s-0.4-0.2-0.6-0.2s-0.4-0.1-0.7-0.1c-0.3,0-0.6,0-0.8,0.1
		s-0.5,0.2-0.7,0.4s-0.3,0.4-0.4,0.6s-0.2,0.5-0.2,0.8c0,0.4,0.1,0.7,0.3,1s0.4,0.5,0.7,0.7s0.7,0.2,1,0.2c0.7,0,1.3-0.3,1.9-0.8
		L190.7,124.9z"/>
	<path class="st2" d="M199.3,122.6c0,0.2,0,0.4-0.1,0.6s-0.2,0.3-0.4,0.5c-0.2,0.1-0.5,0.2-1,0.2h-2v1.9h-0.4v-4.5h2.6
		c0.2,0,0.4,0,0.5,0.1s0.3,0.1,0.4,0.2c0.1,0.1,0.2,0.3,0.3,0.4S199.3,122.4,199.3,122.6z M198.9,122.5c0-0.6-0.3-0.9-0.9-0.9h-2.2
		v1.7h2c0.1,0,0.3,0,0.3,0s0.2,0,0.2,0s0.1,0,0.2-0.1c0.1-0.1,0.2-0.2,0.3-0.3S198.9,122.7,198.9,122.5z"/>
	<path class="st2" d="M205.4,125.7H205v-2.1h-3.1v2.1h-0.4v-4.5h0.4v1.9h3.1v-1.9h0.4V125.7z"/>
	<path class="st2" d="M211.7,121.3l-2,2.5v2h-0.4v-2l-2-2.5h0.5l1.7,2.1l1.7-2.1H211.7z"/>
	<path class="st2" d="M217.1,124.4c0,0.3-0.1,0.6-0.3,0.8s-0.5,0.4-0.8,0.4s-0.7,0.1-1,0.1c-0.4,0-0.8-0.1-1.1-0.2
		c-0.1,0-0.3-0.1-0.4-0.2s-0.2-0.1-0.3-0.2s-0.2-0.2-0.4-0.3l0.3-0.3c0.1,0.1,0.3,0.3,0.4,0.4s0.3,0.2,0.5,0.2s0.3,0.1,0.5,0.1
		s0.4,0,0.6,0c0.2,0,0.5,0,0.8-0.1s0.5-0.2,0.7-0.3s0.3-0.3,0.3-0.6c0-0.3-0.1-0.5-0.3-0.6s-0.4-0.2-0.7-0.2c-0.1,0-0.1,0-0.3,0
		s-0.3,0-0.5,0s-0.3,0-0.4,0c-0.4,0-0.7-0.1-1-0.3s-0.4-0.4-0.4-0.8c0-0.2,0.1-0.4,0.2-0.6s0.2-0.3,0.4-0.4s0.4-0.2,0.6-0.3
		c0.3-0.1,0.5-0.1,0.8-0.1c0.3,0,0.7,0.1,0.9,0.2s0.6,0.3,0.9,0.5l-0.3,0.3c-0.3-0.2-0.6-0.3-0.8-0.4s-0.5-0.1-0.8-0.1
		c-0.2,0-0.4,0-0.6,0.1c-0.2,0-0.3,0.1-0.4,0.2s-0.3,0.2-0.4,0.3s-0.1,0.3-0.1,0.4c0,0.4,0.3,0.7,1,0.7c0.1,0,0.2,0,0.4,0
		s0.3,0,0.5,0s0.3,0,0.3,0c0.2,0,0.4,0.1,0.5,0.1s0.3,0.1,0.4,0.2s0.2,0.2,0.3,0.4S217.1,124.3,217.1,124.4z"/>
	<path class="st2" d="M219.4,125.7H219v-4.5h0.4V125.7z"/>
	<path class="st2" d="M226,124.9c-0.2,0.2-0.4,0.4-0.7,0.5s-0.5,0.2-0.7,0.3s-0.5,0.1-0.8,0.1c-0.4,0-0.8-0.1-1.2-0.3
		s-0.7-0.5-0.9-0.8s-0.3-0.8-0.3-1.2c0-0.3,0.1-0.7,0.2-0.9s0.3-0.5,0.5-0.7s0.5-0.4,0.8-0.5s0.6-0.2,1-0.2c0.3,0,0.6,0,0.8,0.1
		s0.5,0.2,0.7,0.3s0.4,0.3,0.6,0.5l-0.3,0.3c-0.2-0.2-0.3-0.3-0.5-0.4s-0.4-0.2-0.6-0.2s-0.4-0.1-0.7-0.1c-0.3,0-0.6,0-0.8,0.1
		s-0.5,0.2-0.7,0.4s-0.3,0.4-0.4,0.6s-0.2,0.5-0.2,0.8c0,0.4,0.1,0.7,0.3,1s0.4,0.5,0.7,0.7s0.7,0.2,1,0.2c0.7,0,1.3-0.3,1.9-0.8
		L226,124.9z"/>
	<path class="st2" d="M228.4,125.7H228v-4.5h0.4V125.7z"/>
	<path class="st2" d="M234.8,125.7h-0.5l-0.8-1.6h-2.3l-0.8,1.6h-0.5l2.2-4.5h0.4L234.8,125.7z M233.4,123.7l-0.9-2l-1,2H233.4z"/>
	<path class="st2" d="M240.5,125.7h-0.4l-3.1-3.8v3.8h-0.4v-4.5h0.4l3.2,3.8v-3.8h0.4V125.7z"/>
	<path class="st2" d="M126.8,132.6c0,0.2-0.1,0.4-0.2,0.5c-0.1,0.1-0.3,0.2-0.5,0.3c-0.2,0.1-0.4,0.1-0.6,0.1
		c-0.5,0-0.9-0.1-1.3-0.4l0.1-0.2c0.2,0.1,0.3,0.2,0.4,0.2c0.1,0,0.2,0.1,0.3,0.1s0.3,0,0.4,0c0.1,0,0.3,0,0.4,0
		c0.2,0,0.3-0.1,0.5-0.2c0.1-0.1,0.2-0.2,0.2-0.4c0-0.1,0-0.2-0.1-0.3c-0.1-0.1-0.1-0.1-0.2-0.2s-0.2-0.1-0.3-0.1
		c-0.1,0-0.2,0-0.3,0c-0.1,0-0.2,0-0.3,0c-0.1,0-0.2,0-0.3,0.1s-0.2,0.1-0.3,0.1s-0.2,0.1-0.3,0.1l-0.2-0.1v-1.3h2.3v0.3h-2v0.9
		c0.2-0.1,0.4-0.2,0.6-0.2c0.1,0,0.3-0.1,0.5-0.1c0.2,0,0.4,0,0.5,0.1c0.1,0,0.2,0.1,0.3,0.2c0.1,0.1,0.2,0.2,0.2,0.3
		C126.8,132.3,126.8,132.4,126.8,132.6z"/>
	<path class="st2" d="M130.7,132.1c0,0.3-0.1,0.5-0.2,0.7c-0.2,0.2-0.3,0.4-0.6,0.5c-0.2,0.1-0.5,0.2-0.8,0.2c-0.1,0-0.3,0-0.4,0
		c-0.1,0-0.2-0.1-0.4-0.1c-0.1-0.1-0.2-0.1-0.4-0.2l0.2-0.2c0.1,0.1,0.3,0.1,0.3,0.2c0.1,0,0.2,0.1,0.3,0.1c0.1,0,0.2,0,0.4,0
		c0.2,0,0.4,0,0.6-0.1c0.2-0.1,0.4-0.2,0.5-0.4s0.2-0.4,0.2-0.6c-0.4,0.3-0.8,0.4-1.3,0.4c-0.2,0-0.4,0-0.6-0.1
		c-0.2,0-0.3-0.1-0.5-0.3c-0.1-0.1-0.2-0.3-0.2-0.5c0-0.1,0-0.3,0.1-0.4c0.1-0.1,0.2-0.2,0.3-0.3c0.1-0.1,0.3-0.1,0.4-0.2
		c0.2,0,0.3-0.1,0.5-0.1c0.2,0,0.4,0,0.6,0.1c0.2,0.1,0.3,0.1,0.5,0.3c0.1,0.1,0.2,0.2,0.3,0.4S130.7,131.9,130.7,132.1z
		 M130.4,131.7c-0.1-0.2-0.2-0.3-0.3-0.4c-0.1-0.1-0.3-0.2-0.4-0.2c-0.2,0-0.3-0.1-0.5-0.1c-0.1,0-0.3,0-0.4,0
		c-0.2,0-0.3,0.1-0.5,0.2c-0.1,0.1-0.2,0.2-0.2,0.4c0,0.1,0.1,0.2,0.2,0.3c0.1,0.1,0.2,0.1,0.4,0.2c0.1,0,0.3,0.1,0.4,0.1
		c0.1,0,0.3,0,0.5,0c0.2,0,0.3-0.1,0.5-0.1C130.2,131.9,130.3,131.8,130.4,131.7z"/>
	<path class="st2" d="M134.3,133.4H132c0-0.1,0-0.1,0-0.1c0-0.2,0-0.4,0.1-0.6c0.1-0.2,0.2-0.3,0.4-0.5c0.2-0.1,0.3-0.2,0.6-0.2
		c0.1,0,0.2,0,0.3,0c0.1,0,0.2,0,0.3,0c0.1,0,0.2-0.1,0.3-0.1c0.1-0.1,0.1-0.1,0.1-0.3c0-0.1,0-0.2-0.1-0.3
		c-0.1-0.1-0.2-0.1-0.3-0.1c-0.1,0-0.2,0-0.4,0c-0.1,0-0.3,0-0.4,0c-0.1,0-0.2,0.1-0.3,0.1c-0.1,0-0.2,0.1-0.3,0.2l-0.1-0.2
		c0.2-0.1,0.4-0.2,0.6-0.2c0.2-0.1,0.4-0.1,0.6-0.1c0.2,0,0.3,0,0.5,0.1c0.2,0,0.3,0.1,0.4,0.2c0.1,0.1,0.2,0.3,0.2,0.4
		c0,0.1,0,0.2-0.1,0.3c-0.1,0.1-0.2,0.2-0.3,0.2c-0.1,0.1-0.2,0.1-0.4,0.1c-0.1,0-0.1,0-0.2,0c-0.1,0-0.1,0-0.3,0
		c-0.2,0-0.3,0.1-0.4,0.1c-0.1,0.1-0.2,0.2-0.3,0.3c-0.1,0.1-0.1,0.3-0.1,0.4h2.1V133.4z"/>
	<path class="st2" d="M136.2,133.2c0,0.1,0,0.1-0.1,0.2c0,0-0.1,0.1-0.2,0.1c-0.1,0-0.1,0-0.2-0.1c0,0-0.1-0.1-0.1-0.2
		c0-0.1,0-0.1,0.1-0.2s0.1-0.1,0.2-0.1c0.1,0,0.1,0,0.2,0.1C136.2,133.1,136.2,133.1,136.2,133.2z"/>
	<path class="st2" d="M140,133.4h-2.3c0-0.1,0-0.1,0-0.1c0-0.2,0-0.4,0.1-0.6c0.1-0.2,0.2-0.3,0.4-0.5c0.2-0.1,0.3-0.2,0.6-0.2
		c0.1,0,0.2,0,0.3,0c0.1,0,0.2,0,0.3,0c0.1,0,0.2-0.1,0.3-0.1c0.1-0.1,0.1-0.1,0.1-0.3c0-0.1,0-0.2-0.1-0.3
		c-0.1-0.1-0.2-0.1-0.3-0.1c-0.1,0-0.2,0-0.4,0c-0.1,0-0.3,0-0.4,0c-0.1,0-0.2,0.1-0.3,0.1c-0.1,0-0.2,0.1-0.3,0.2l-0.1-0.2
		c0.2-0.1,0.4-0.2,0.6-0.2c0.2-0.1,0.4-0.1,0.6-0.1c0.2,0,0.3,0,0.5,0.1c0.2,0,0.3,0.1,0.4,0.2c0.1,0.1,0.2,0.3,0.2,0.4
		c0,0.1,0,0.2-0.1,0.3c-0.1,0.1-0.2,0.2-0.3,0.2c-0.1,0.1-0.2,0.1-0.4,0.1c-0.1,0-0.1,0-0.2,0c-0.1,0-0.1,0-0.3,0
		c-0.2,0-0.3,0.1-0.4,0.1c-0.1,0.1-0.2,0.2-0.3,0.3c-0.1,0.1-0.1,0.3-0.1,0.4h2.1V133.4z"/>
	<path class="st2" d="M144.1,132.7h-0.6v0.7h-0.3v-0.7h-1.8l-0.1-0.3l2-1.6h0.3v1.6h0.6V132.7z M143.2,132.4v-1.2l-1.6,1.2H143.2z"
		/>
	<path class="st2" d="M147.9,132.1c0,0.3-0.1,0.5-0.2,0.7c-0.2,0.2-0.3,0.4-0.6,0.5c-0.2,0.1-0.5,0.2-0.8,0.2c-0.1,0-0.3,0-0.4,0
		c-0.1,0-0.2-0.1-0.4-0.1c-0.1-0.1-0.2-0.1-0.4-0.2l0.2-0.2c0.1,0.1,0.3,0.1,0.3,0.2c0.1,0,0.2,0.1,0.3,0.1c0.1,0,0.2,0,0.4,0
		c0.2,0,0.4,0,0.6-0.1c0.2-0.1,0.4-0.2,0.5-0.4s0.2-0.4,0.2-0.6c-0.4,0.3-0.8,0.4-1.3,0.4c-0.2,0-0.4,0-0.6-0.1
		c-0.2,0-0.3-0.1-0.5-0.3c-0.1-0.1-0.2-0.3-0.2-0.5c0-0.1,0-0.3,0.1-0.4c0.1-0.1,0.2-0.2,0.3-0.3c0.1-0.1,0.3-0.1,0.4-0.2
		c0.2,0,0.3-0.1,0.5-0.1c0.2,0,0.4,0,0.6,0.1c0.2,0.1,0.3,0.1,0.5,0.3c0.1,0.1,0.2,0.2,0.3,0.4C147.9,131.7,147.9,131.9,147.9,132.1
		z M147.6,131.7c-0.1-0.2-0.2-0.3-0.3-0.4c-0.1-0.1-0.3-0.2-0.4-0.2c-0.2,0-0.3-0.1-0.5-0.1c-0.1,0-0.3,0-0.4,0
		c-0.2,0-0.3,0.1-0.5,0.2c-0.1,0.1-0.2,0.2-0.2,0.4c0,0.1,0.1,0.2,0.2,0.3c0.1,0.1,0.2,0.1,0.4,0.2c0.1,0,0.3,0.1,0.4,0.1
		c0.1,0,0.3,0,0.5,0c0.2,0,0.3-0.1,0.5-0.1C147.4,131.9,147.5,131.8,147.6,131.7z"/>
	<path class="st2" d="M149.6,133.2c0,0.1,0,0.1-0.1,0.2c0,0-0.1,0.1-0.2,0.1c-0.1,0-0.1,0-0.2-0.1s-0.1-0.1-0.1-0.2
		c0-0.1,0-0.1,0.1-0.2s0.1-0.1,0.2-0.1c0.1,0,0.1,0,0.2,0.1C149.5,133.1,149.6,133.1,149.6,133.2z"/>
	<path class="st2" d="M151.7,133.4h-0.3v-2.5h0.3V133.4z"/>
	<path class="st2" d="M156,133.4h-2.3c0-0.1,0-0.1,0-0.1c0-0.2,0-0.4,0.1-0.6c0.1-0.2,0.2-0.3,0.4-0.5c0.2-0.1,0.3-0.2,0.6-0.2
		c0.1,0,0.2,0,0.3,0c0.1,0,0.2,0,0.3,0c0.1,0,0.2-0.1,0.3-0.1c0.1-0.1,0.1-0.1,0.1-0.3c0-0.1,0-0.2-0.1-0.3
		c-0.1-0.1-0.2-0.1-0.3-0.1c-0.1,0-0.2,0-0.4,0c-0.1,0-0.3,0-0.4,0c-0.1,0-0.2,0.1-0.3,0.1c-0.1,0-0.2,0.1-0.3,0.2l-0.1-0.2
		c0.2-0.1,0.4-0.2,0.6-0.2c0.2-0.1,0.4-0.1,0.6-0.1c0.2,0,0.3,0,0.5,0.1c0.2,0,0.3,0.1,0.4,0.2c0.1,0.1,0.2,0.3,0.2,0.4
		c0,0.1,0,0.2-0.1,0.3c-0.1,0.1-0.2,0.2-0.3,0.2c-0.1,0.1-0.2,0.1-0.4,0.1c-0.1,0-0.1,0-0.2,0c-0.1,0-0.1,0-0.3,0
		c-0.2,0-0.3,0.1-0.4,0.1c-0.1,0.1-0.2,0.2-0.3,0.3c-0.1,0.1-0.1,0.3-0.1,0.4h2.1V133.4z"/>
	<path class="st2" d="M158.2,133.4H158v-2.5h0.3V133.4z"/>
	<path class="st2" d="M162.5,133.4h-2.3c0-0.1,0-0.1,0-0.1c0-0.2,0-0.4,0.1-0.6c0.1-0.2,0.2-0.3,0.4-0.5c0.2-0.1,0.3-0.2,0.6-0.2
		c0.1,0,0.2,0,0.3,0c0.1,0,0.2,0,0.3,0c0.1,0,0.2-0.1,0.3-0.1c0.1-0.1,0.1-0.1,0.1-0.3c0-0.1,0-0.2-0.1-0.3
		c-0.1-0.1-0.2-0.1-0.3-0.1c-0.1,0-0.2,0-0.4,0c-0.1,0-0.3,0-0.4,0c-0.1,0-0.2,0.1-0.3,0.1c-0.1,0-0.2,0.1-0.3,0.2l-0.1-0.2
		c0.2-0.1,0.4-0.2,0.6-0.2c0.2-0.1,0.4-0.1,0.6-0.1c0.2,0,0.3,0,0.5,0.1c0.2,0,0.3,0.1,0.4,0.2c0.1,0.1,0.2,0.3,0.2,0.4
		c0,0.1,0,0.2-0.1,0.3c-0.1,0.1-0.2,0.2-0.3,0.2c-0.1,0.1-0.2,0.1-0.4,0.1c-0.1,0-0.1,0-0.2,0c-0.1,0-0.1,0-0.3,0
		c-0.2,0-0.3,0.1-0.4,0.1c-0.1,0.1-0.2,0.2-0.3,0.3c-0.1,0.1-0.1,0.3-0.1,0.4h2.1V133.4z"/>
	<path class="st2" d="M181.1,130.8l-1,3h-0.3l-0.7-2.5l-0.7,2.5h-0.3l-1-3h0.3l0.8,2.5l0.7-2.5h0.3l0.7,2.5l0.8-2.5H181.1z"/>
	<path class="st2" d="M185.5,130.8l-1,3h-0.3l-0.7-2.5l-0.7,2.5h-0.3l-1-3h0.3l0.8,2.5l0.7-2.5h0.3l0.7,2.5l0.8-2.5H185.5z"/>
	<path class="st2" d="M189.9,130.8l-1,3h-0.3l-0.7-2.5l-0.7,2.5H187l-1-3h0.3l0.8,2.5l0.7-2.5h0.3l0.7,2.5l0.8-2.5H189.9z"/>
	<path class="st2" d="M191.4,133.5c0,0.1,0,0.1-0.1,0.2s-0.1,0.1-0.2,0.1c-0.1,0-0.1,0-0.2-0.1s-0.1-0.1-0.1-0.2
		c0-0.1,0-0.1,0.1-0.2s0.1-0.1,0.2-0.1c0.1,0,0.1,0,0.2,0.1S191.4,133.5,191.4,133.5z"/>
	<path class="st2" d="M195.6,132.2c0,0.2,0,0.4-0.1,0.6s-0.2,0.3-0.3,0.5s-0.3,0.2-0.5,0.3s-0.4,0.1-0.6,0.1h-1.4v-3h1.4
		c0.2,0,0.4,0,0.6,0.1s0.3,0.2,0.5,0.3s0.2,0.3,0.3,0.5S195.6,132,195.6,132.2z M195.3,132.2c0-0.2,0-0.4-0.1-0.5s-0.1-0.3-0.2-0.4
		s-0.2-0.2-0.4-0.2s-0.3-0.1-0.5-0.1H193v2.4h1.1c0.2,0,0.4,0,0.6-0.1s0.3-0.2,0.4-0.4S195.3,132.5,195.3,132.2z"/>
	<path class="st2" d="M199.5,131.6c0,0.1,0,0.2,0,0.3s-0.1,0.2-0.1,0.3s-0.1,0.1-0.2,0.2c-0.1,0-0.2,0.1-0.2,0.1s-0.2,0-0.2,0
		l0.8,1.3h-0.3l-0.8-1.3h-1.3v1.3h-0.3v-3h1.8c0.1,0,0.3,0,0.3,0s0.1,0,0.2,0.1c0.1,0.1,0.2,0.2,0.3,0.3S199.5,131.5,199.5,131.6z
		 M199.3,131.6c0-0.2-0.1-0.4-0.2-0.5c-0.1,0-0.1-0.1-0.2-0.1s-0.2,0-0.4,0h-1.4v1.2h1.4c0.2,0,0.3,0,0.4,0s0.2,0,0.2-0.1
		c0.1-0.1,0.1-0.1,0.2-0.2S199.3,131.7,199.3,131.6z"/>
	<path class="st2" d="M203.6,133.7h-0.3v-1.4h-2.1v1.4H201v-3h0.3v1.3h2.1v-1.3h0.3V133.7z"/>
	<path class="st2" d="M208,133.7h-0.3l-0.5-1.1h-1.5l-0.5,1.1h-0.3l1.5-3h0.3L208,133.7z M207,132.4l-0.6-1.3l-0.6,1.3H207z"/>
	<path class="st2" d="M211.6,131.6c0,0.1,0,0.2,0,0.3s-0.1,0.2-0.1,0.3s-0.1,0.1-0.2,0.2c-0.1,0-0.2,0.1-0.2,0.1s-0.2,0-0.2,0
		l0.8,1.3h-0.3l-0.8-1.3h-1.3v1.3h-0.3v-3h1.8c0.1,0,0.3,0,0.3,0s0.1,0,0.2,0.1c0.1,0.1,0.2,0.2,0.3,0.3S211.6,131.5,211.6,131.6z
		 M211.4,131.6c0-0.2-0.1-0.4-0.2-0.5c-0.1,0-0.1-0.1-0.2-0.1s-0.2,0-0.4,0h-1.4v1.2h1.4c0.2,0,0.3,0,0.4,0s0.2,0,0.2-0.1
		c0.1-0.1,0.1-0.1,0.2-0.2S211.4,131.7,211.4,131.6z"/>
	<path class="st2" d="M215.2,131h-1.1v2.7h-0.3V131h-1.1v-0.3h2.5V131z"/>
	<path class="st2" d="M219.4,133.7h-0.3v-2.4l-1.2,2l-1.2-2v2.4h-0.3v-3h0.3l1.2,2l1.2-2h0.3V133.7z"/>
	<path class="st2" d="M223.6,133.7h-0.3l-0.5-1.1h-1.5l-0.5,1.1h-0.3l1.5-3h0.3L223.6,133.7z M222.7,132.4l-0.6-1.3l-0.6,1.3H222.7z
		"/>
	<path class="st2" d="M227.4,133.7h-0.3l-2.1-2.6v2.6h-0.3v-3h0.3l2.1,2.5v-2.5h0.3V133.7z"/>
	<path class="st2" d="M229.4,133.5c0,0.1,0,0.1-0.1,0.2s-0.1,0.1-0.2,0.1c-0.1,0-0.1,0-0.2-0.1s-0.1-0.1-0.1-0.2
		c0-0.1,0-0.1,0.1-0.2s0.1-0.1,0.2-0.1c0.1,0,0.1,0,0.2,0.1S229.4,133.5,229.4,133.5z"/>
	<path class="st2" d="M233.6,133.7h-0.3l-2.1-2.6v2.6H231v-3h0.3l2.1,2.5v-2.5h0.3V133.7z"/>
	<path class="st2" d="M237.7,133.7h-2.6v-3h2.5v0.3h-2.2v1h1.2v0.3h-1.2v1.1h2.3V133.7z"/>
	<path class="st2" d="M241.2,131h-1.1v2.7h-0.3V131h-1.1v-0.3h2.5V131z"/>
</g>
</svg>
