<?xml version="1.0" encoding="utf-8"?>
<!-- Generator: Adobe Illustrator 22.1.0, SVG Export Plug-In . SVG Version: 6.00 Build 0)  -->
<svg version="1.1" id="Layer_1" xmlns="http://www.w3.org/2000/svg" xmlns:xlink="http://www.w3.org/1999/xlink" x="0px" y="0px"
	 viewBox="0 0 216 216" style="enable-background:new 0 0 216 216;" xml:space="preserve">
<style type="text/css">
	.st0{fill:#FFFFFF;}
	.st1{fill:#DB5228;}
</style>
<rect class="st0" width="216" height="216"/>
<g>
	<g>
		<g>
			<path class="st1" d="M22.9,109.5c0.8-50.6,42.5-86,87.6-84.7c46.2,1.3,84.2,40.3,82.7,88c-1.4,42.9-36.4,82.3-85.3,82.2
				C59.9,194.9,23,156.4,22.9,109.5z M88.3,154c0.1-0.7,0.1-1.3,0.1-1.8c-0.1-17.6,7.2-32.4,17.7-46c1.8-2.3,2.1-2.2,4,0.2
				c2.9,3.6,5.6,7.4,8,11.4c6.3,10.5,10,21.7,9.2,34.2c0,0.6-0.5,1.5,0.6,1.9c0.8-0.6,1-1.5,1.4-2.3c3.5-7.2,6.2-14.7,8.2-22.5
				c3.1-11.8,4.3-23.8,2.3-36c-3.2-20.5-13.8-36.6-29.1-50.1c-2.3-2-2.4-2-4.8,0.2c-3.9,3.6-7.5,7.4-10.7,11.7
				C83.1,70.9,75.9,88.6,76,108.9c0.1,15.4,4.1,29.8,10.7,43.6C87,153,87.2,153.7,88.3,154z M124.1,148.6c-0.1-2.5-0.2-4.9-0.6-7.3
				c-1.8-11.1-7-20.7-13.6-29.6c-1.8-2.4-2-2.3-3.8,0.2c-6.4,8.9-11.2,18.5-13.4,29.3c-3.2,15.6,1.5,28.7,12.4,39.9
				c2.1,2.1,2.4,2.1,4.3,0c2.1-2.4,4.1-5,6.2-7.4C121.7,166.4,123.9,157.8,124.1,148.6z M100.7,182.5c-8.1-11.3-15.3-23-20.3-35.9
				c-5.1-12.9-7.9-26.2-7.8-40.6c-1.6,0.9-1.9,1.9-2.4,2.8c-2.7,5.3-4.8,10.8-6.1,16.7c-2.3,10.5-1,20.5,4.3,29.9
				C75.7,168.4,87.3,176.4,100.7,182.5z M112.7,182.6c1.1,0,1.3,0.1,1.6,0c10.2-4.4,19.4-10.1,26.9-18.4
				c8.2-9.1,12.4-19.7,11.6-32.1c-0.5-8.4-3.1-16.1-6.7-23.6c-0.2-0.4-0.5-1-1.4-0.4C143.1,136.5,131,160.7,112.7,182.6z"/>
		</g>
	</g>
</g>
</svg>
