<?xml version="1.0" encoding="utf-8"?>
<!-- Generator: Adobe Illustrator 22.1.0, SVG Export Plug-In . SVG Version: 6.00 Build 0)  -->
<svg version="1.1" id="Layer_1" xmlns="http://www.w3.org/2000/svg" xmlns:xlink="http://www.w3.org/1999/xlink" x="0px" y="0px"
	 viewBox="0 0 200.7 182.7" style="enable-background:new 0 0 200.7 182.7;" xml:space="preserve">
<style type="text/css">
	.st0{fill:#DB5228;}
	.st1{fill:none;stroke:#DB5228;stroke-width:0.5;stroke-miterlimit:10;}
</style>
<g>
	<g>
		<g>
			<path class="st0" d="M47.1,65.3C47.6,34,73.5,12,101.5,12.8c28.6,0.8,52.2,25,51.3,54.6c-0.9,26.6-22.5,51.1-52.9,51
				C70.1,118.3,47.2,94.4,47.1,65.3z M87.7,92.9c0-0.5,0.1-0.8,0.1-1.1c-0.1-10.9,4.5-20.1,11-28.5c1.1-1.4,1.3-1.4,2.5,0.1
				c1.8,2.2,3.5,4.6,5,7.1c3.9,6.5,6.2,13.5,5.7,21.2c0,0.4-0.3,1,0.3,1.2c0.5-0.3,0.6-0.9,0.9-1.4c2.1-4.5,3.9-9.1,5.1-13.9
				c1.9-7.3,2.6-14.8,1.5-22.3c-2-12.7-8.5-22.7-18-31.1c-1.4-1.2-1.5-1.2-3,0.1c-2.4,2.2-4.7,4.6-6.7,7.2c-7.6,9.9-12,20.9-12,33.5
				c0.1,9.5,2.6,18.5,6.6,27C86.9,92.3,87,92.7,87.7,92.9z M109.9,89.5c0-1.5-0.1-3-0.3-4.5c-1.1-6.9-4.3-12.8-8.4-18.3
				c-1.1-1.5-1.3-1.5-2.4,0.1c-3.9,5.5-6.9,11.5-8.3,18.2c-2,9.7,0.9,17.8,7.7,24.8c1.3,1.3,1.5,1.3,2.7,0c1.3-1.5,2.5-3.1,3.8-4.6
				C108.5,100.6,109.8,95.3,109.9,89.5z M95.4,110.6c-5-7-9.5-14.3-12.6-22.3c-3.1-8-4.9-16.3-4.9-25.2c-1,0.6-1.2,1.2-1.5,1.8
				c-1.7,3.3-3,6.7-3.8,10.3c-1.4,6.5-0.6,12.7,2.6,18.6C79.9,101.8,87.1,106.8,95.4,110.6z M102.8,110.7c0.7,0,0.8,0,1,0
				c6.3-2.7,12-6.3,16.7-11.4c5.1-5.6,7.7-12.2,7.2-19.9c-0.3-5.2-1.9-10-4.2-14.6c-0.1-0.3-0.3-0.6-0.9-0.3
				C121.7,82.1,114.2,97,102.8,110.7z"/>
		</g>
	</g>
	<line class="st1" x1="12.7" y1="130.6" x2="187.2" y2="130.6"/>
	<g>
		<path class="st0" d="M16.9,161.6c0,0.8,0.2,1.3,2.5,1.3c2,0,3.5-0.3,5-1.2c1-0.6,1.6-1.1,1.7-2.2h0.2c0,0.6,0,1-0.6,1.9
			c-0.2,0.4-1.2,1.7-1.4,2.3c-1,0-2-0.1-3-0.1h-7.3c-0.3,0-0.4,0.1-0.6,0.1c-0.2,0-0.4,0-0.6-0.1v-0.4c0.2,0,0.4,0,0.6,0
			c1.2,0,1.5-0.6,1.5-1.7v-12.8c0-1.4,0-2.9-1.8-2.9c-0.2,0-0.4,0-0.6,0v-0.4c0.3,0,0.6-0.1,0.9-0.1c1,0,2,0.2,2.3,0.2
			c0.3,0,1.2-0.2,2-0.2c0.4,0,0.8,0,1.2,0.1v0.4c-0.2,0-0.3,0-0.7,0c-0.6,0-0.8,0.1-1,0.2c-0.2,0.2-0.5,0.6-0.5,1.2V161.6z"/>
		<path class="st0" d="M26.9,163.1c0.2,0,0.3,0,0.5,0c0.2,0,0.5,0,0.6-0.1c0,0,0.5-0.4,0.6-0.4c0.3-0.4,0.7-1,0.8-1.3l4.8-12.7h0.4
			l4.8,12.1c0.6,1.4,0.8,1.8,1.1,2.3c0,0.1,0.5,0.1,0.7,0.1c0.2,0,0.6-0.1,0.7-0.1v0.4c-0.2,0-0.4,0.1-0.7,0.1
			c-0.3,0-1.3-0.1-2.1-0.1c-0.8,0-1.5,0.1-2,0.1c-0.2,0-0.4,0-0.6,0v-0.4c0.2,0,0.4,0.1,0.6,0.1c0.1,0,0.4,0,0.5-0.1
			c0.2,0,0.4-0.3,0.4-0.8c0-0.3-0.1-0.6-0.2-0.8l-1.9-4.6h-4.3l-1.5,4.1c-0.2,0.5-0.2,0.9-0.2,1.1c0,0.5,0.2,1.1,0.9,1.1
			c0.2,0,0.5,0,0.7,0v0.3c-0.2,0-0.4,0-0.6,0c-0.6,0-1.3-0.1-1.9-0.1c-0.7,0-1.2,0.1-1.5,0.1c-0.3,0-0.4,0-0.6,0V163.1z M35.8,156.3
			l-2-5l-1.8,5H35.8z"/>
		<path class="st0" d="M55.7,152.5c-1.6-3.7-2.4-5.7-3.2-6.7c-0.2,0-0.4,0-0.6,0c-0.2,0-0.4,0-0.7,0.1v-0.4c0.3,0,0.5,0,0.8,0
			c0.3,0,1.8,0.1,2,0.1c0.4,0,2-0.1,2.4-0.1c0.4,0,0.6,0,0.9,0.1v0.4c-0.2,0-0.4-0.1-0.7-0.1c-0.9,0-1.3,0.3-1.3,0.7
			c0,0.1,0,0.3,0.1,0.6l5.7,13.3l5-11.9c0.2-0.4,0.2-0.9,0.2-1.2c0-0.7-0.2-1.1-0.4-1.4c-0.3-0.1-0.3-0.1-0.7-0.1
			c-0.3,0-0.3,0-0.6,0v-0.4c0.3,0,0.6,0,0.9,0c0.2,0,1.3,0.1,1.6,0.1c0.3,0,1.5-0.1,1.7-0.1s0.4,0,0.7,0v0.4c-0.1,0-0.2-0.1-0.4-0.1
			c-1,0-1.6,1.5-1.9,2.1l-6.7,15.8h-0.1L55.7,152.5z"/>
		<path class="st0" d="M70.3,163.1c0.2,0,0.5,0,0.8,0c0.2,0,0.4,0,0.7,0c0.4-0.4,0.6-0.7,0.6-2.2v-9.6c0-1.2-0.1-1.5-0.7-2
			c-0.3,0-0.5,0-0.8,0c-0.2,0-0.4,0-0.7,0v-0.3c0.3-0.1,0.6-0.1,1.1-0.1c0.3,0,1.7,0.1,2,0.1c0.3,0,1.8-0.1,2.1-0.1
			c0.3,0,0.7,0.1,0.9,0.1v0.3c-0.3,0-0.4,0-0.8,0c-0.9,0-1.3,0.6-1.3,1.5v10.9c0,0.8,0.4,1.3,0.7,1.6c0.2,0,0.4,0.1,0.7,0.1
			c0.2,0,0.5,0,0.7-0.1v0.3c-0.2,0.1-0.2,0.1-0.6,0.1c-0.4,0-2.1-0.1-2.5-0.1c-0.3,0-1.9,0.1-2.2,0.1c-0.2,0-0.5,0-0.7-0.1V163.1z"
			/>
		<path class="st0" d="M79,163.1c0.2,0,0.5,0.1,0.7,0.1c0.1,0,0.7,0,0.9-0.2c0.3-0.2,0.5-0.6,0.5-1.8v-10.7c0-0.7-0.4-1.2-0.7-1.3
			c-0.2,0-0.4,0-0.6,0c-0.3,0-0.5,0.1-0.7,0.1v-0.4c0.3-0.1,0.5-0.1,0.8-0.1c0.9,0,1.5,0.2,2.5,0.2c0.8,0,1.8-0.2,4.2-0.2
			c6.8,0,8.1,5.4,8.1,7.4s-0.8,4.1-2.7,5.7c-1.6,1.3-3.2,1.6-4.9,1.6c-1.1,0-4-0.1-4.7-0.1c-0.7,0-2,0.1-2.4,0.1
			c-0.3,0-0.7,0-0.9-0.1V163.1z M82.9,161.6c0,0.8,0,1.3,3.2,1.3c1.3,0,6.6,0,6.6-6.1c0-2.6-1.2-7.4-6.6-7.4c-3.1,0-3.1,0.1-3.1,0.8
			V161.6z"/>
		<path class="st0" d="M96.4,163.1c0.2,0,0.3,0,0.5,0s0.5,0,0.6-0.1c0,0,0.5-0.4,0.6-0.4c0.3-0.4,0.7-1,0.8-1.3l4.8-12.7h0.4
			l4.8,12.1c0.6,1.4,0.8,1.8,1.1,2.3c0,0.1,0.5,0.1,0.7,0.1c0.2,0,0.6-0.1,0.7-0.1v0.4c-0.2,0-0.4,0.1-0.7,0.1
			c-0.3,0-1.3-0.1-2.1-0.1c-0.8,0-1.5,0.1-2,0.1c-0.2,0-0.4,0-0.6,0v-0.4c0.2,0,0.4,0.1,0.6,0.1c0.1,0,0.4,0,0.5-0.1
			c0.2,0,0.4-0.3,0.4-0.8c0-0.3-0.1-0.6-0.2-0.8l-1.9-4.6h-4.3l-1.5,4.1c-0.2,0.5-0.2,0.9-0.2,1.1c0,0.5,0.2,1.1,0.9,1.1
			c0.2,0,0.5,0,0.7,0v0.3c-0.2,0-0.4,0-0.6,0c-0.6,0-1.3-0.1-1.9-0.1c-0.7,0-1.2,0.1-1.5,0.1c-0.3,0-0.4,0-0.6,0V163.1z
			 M105.2,156.3l-2-5l-1.8,5H105.2z"/>
		<path class="st0" d="M125.1,162.9c0.3,0.1,0.7,0.1,1.1,0.1c0.1,0,0.3,0,0.3,0c0.7-0.5,0.9-1.8,0.9-2.9v-6.1l-4.6-7.2
			c-0.3-0.5-0.8-0.9-1.1-1.1c-0.7,0-0.8,0-1.1,0v-0.4c0.3,0,0.6-0.1,1-0.1c0.5,0,1.5,0.1,1.9,0.1c0.6,0,1.2-0.1,2-0.1
			c0.6,0,0.8,0,1.1,0.1v0.5c-0.3-0.1-0.6-0.2-1-0.2c-0.3,0-0.5,0.1-0.7,0.2c-0.1,0.1-0.2,0.3-0.2,0.4c0,0.2,0.4,0.8,0.6,1l3.8,5.9
			l3.1-4.8c0.3-0.4,0.9-1.4,0.9-1.9c0-0.3-0.1-0.6-0.3-0.8c-0.3,0-0.6-0.1-0.9-0.1c-0.2,0-0.4,0-0.7,0v-0.4c0.3,0,0.4,0,0.8,0
			c0.7,0,1.6,0.1,1.8,0.1c0.3,0,1.2-0.1,1.7-0.1c0.5,0,0.6,0,0.8,0.1v0.4c-0.2-0.1-0.3-0.1-0.6-0.1c-0.5,0-0.8,0.2-0.9,0.3
			c-0.2,0.1-0.7,0.5-1.5,1.8l-4.1,6.4v6.4c0,1.1,0.5,1.9,1.1,2.3c0,0,0.4,0,0.6,0c0.1,0,0.4,0,0.6-0.1v0.4c-0.3,0-0.7,0.1-1,0.1
			c-0.8,0-1.8-0.1-2.3-0.1c-0.5,0-1.4,0.1-2.1,0.1c-0.3,0-0.7,0-1.1-0.1V162.9z"/>
		<path class="st0" d="M145,148.6c5.5,0,8.1,3.6,8.1,6.9c0,3.5-2.1,8.2-8.1,8.2c-5.5,0-8.1-3.6-8.1-6.9
			C136.9,153.4,139.1,148.6,145,148.6z M145.4,163.1c3.3,0,5.9-2.1,5.9-6.1c0-3.8-2.8-7.7-6.9-7.7c-3.3,0-5.9,2.1-5.9,6.1
			C138.5,159.2,141.3,163.1,145.4,163.1z"/>
		<path class="st0" d="M167.7,158.3c0-1.1-0.8-1.1-1.1-1.1c-0.2,0-0.5,0-0.7,0.1v-0.4c0.2,0,0.3-0.1,0.7-0.1c0.3,0,1.6,0.1,1.9,0.1
			c0.3,0,1.6-0.1,1.9-0.1c0.3,0,0.6,0,0.8,0.1v0.3c-0.3-0.1-0.5-0.1-0.8-0.1c-0.9,0-0.9,1.4-0.9,2.2v1.1c0,0.3,0.1,0.6,0.1,0.8
			c-1,0.9-2.6,2.2-6.2,2.2c-5.5,0-7.9-4.1-7.9-7.4c0-1.5,0.5-2.8,0.7-3.3c1.1-2.3,3.8-4.4,7-4.4c2,0,3.6,0.9,4.6,0.9
			c0.4,0,0.6-0.2,0.7-0.3h0.1c0,0.9,0.5,2.1,0.5,3c0,0.5-0.1,0.9-0.2,1.2h-0.3c0.1-0.2,0.1-0.4,0.1-0.7c0-1.1-2.1-3.4-5.1-3.4
			c-2.7,0-6.2,1.7-6.2,6.8c0,2.8,1.8,7.1,6.2,7.1c2,0,4-1,4-2.6V158.3z"/>
		<path class="st0" d="M172.3,163.1c0.2,0,0.3,0,0.5,0s0.5,0,0.6-0.1c0,0,0.5-0.4,0.6-0.4c0.3-0.4,0.7-1,0.8-1.3l4.8-12.7h0.4
			l4.8,12.1c0.6,1.4,0.8,1.8,1.1,2.3c0,0.1,0.5,0.1,0.7,0.1s0.6-0.1,0.7-0.1v0.4c-0.2,0-0.4,0.1-0.7,0.1c-0.3,0-1.3-0.1-2.1-0.1
			c-0.8,0-1.5,0.1-2,0.1c-0.2,0-0.4,0-0.6,0v-0.4c0.2,0,0.4,0.1,0.6,0.1c0.1,0,0.4,0,0.5-0.1c0.2,0,0.4-0.3,0.4-0.8
			c0-0.3-0.1-0.6-0.2-0.8l-1.9-4.6H177l-1.5,4.1c-0.2,0.5-0.2,0.9-0.2,1.1c0,0.5,0.2,1.1,0.9,1.1c0.2,0,0.5,0,0.7,0v0.3
			c-0.2,0-0.4,0-0.6,0c-0.6,0-1.3-0.1-1.9-0.1c-0.7,0-1.2,0.1-1.5,0.1c-0.3,0-0.4,0-0.6,0V163.1z M181.1,156.3l-2-5l-1.8,5H181.1z"
			/>
	</g>
</g>
<rect x="577.8" y="188.7" style="fill:none;" width="151.7" height="34.7"/>
<text transform="matrix(1 0 0 1 577.8301 198.9433)" style="font-family:'SerlioLH'; font-size:24px;">La Vida Yoga</text>
</svg>
