<?xml version="1.0" encoding="utf-8"?>
<!-- Generator: Adobe Illustrator 22.1.0, SVG Export Plug-In . SVG Version: 6.00 Build 0)  -->
<svg version="1.1" id="Layer_1" xmlns="http://www.w3.org/2000/svg" xmlns:xlink="http://www.w3.org/1999/xlink" x="0px" y="0px"
	 viewBox="0 0 216 216" style="enable-background:new 0 0 216 216;" xml:space="preserve">
<style type="text/css">
	.st0{clip-path:url(#SVGID_2_);fill:#FFFFFF;}
	.st1{clip-path:url(#SVGID_2_);}
	.st2{fill:#7C7D7F;}
	.st3{clip-path:url(#SVGID_2_);fill:none;stroke:#231F20;stroke-width:0.25;stroke-miterlimit:10;}
	.st4{clip-path:url(#SVGID_2_);fill:#EB2426;}
</style>
<g>
	<defs>
		<rect id="SVGID_1_" x="1.3" width="213.8" height="217.3"/>
	</defs>
	<clipPath id="SVGID_2_">
		<use xlink:href="#SVGID_1_"  style="overflow:visible;"/>
	</clipPath>
	<rect x="-230" y="21.2" class="st0" width="447" height="254.7"/>
	<rect x="-230" y="21.2" class="st0" width="447" height="254.7"/>
	<g class="st1">
		<path class="st2" d="M-202.9,212c0,0.7,0.1,1.2,0.2,1.3c0.1,0.2,0.4,0.3,0.8,0.3l0.9,0.1v0.5c-0.8,0-1.5-0.1-2.1-0.1
			c-0.6,0-1.3,0-2.1,0.1v-0.5l0.8-0.1c0.4,0,0.6-0.1,0.7-0.3c0.1-0.2,0.1-0.6,0.1-1.3v-8c0-0.7-0.1-1.2-0.2-1.3
			c-0.1-0.2-0.4-0.3-0.8-0.3l-0.9-0.1v-0.5c0.7,0,1.2,0,1.7,0c0.5,0,1.1,0,1.7-0.1c0.2,0.6,0.4,1,0.5,1.2c0.1,0.2,0.3,0.6,0.5,1
			l3.7,7.7h0l3.7-7.7c0.2-0.4,0.3-0.7,0.5-1c0.1-0.2,0.3-0.7,0.5-1.2c0.7,0,1.2,0,1.7,0c0.5,0,1.1,0,1.7-0.1v0.5l-0.9,0.1
			c-0.4,0-0.7,0.1-0.8,0.3c-0.1,0.2-0.2,0.6-0.2,1.3v8c0,0.7,0.1,1.2,0.2,1.3c0.1,0.2,0.4,0.3,0.8,0.3l0.9,0.1v0.5
			c-1,0-1.9-0.1-2.6-0.1s-1.6,0-2.6,0.1v-0.5l0.9-0.1c0.4,0,0.7-0.1,0.8-0.3c0.1-0.2,0.2-0.6,0.2-1.3v-8.1h0
			c-0.8,1.5-1.5,2.9-2.1,4.1c-0.6,1.2-1.2,2.6-1.9,4.2c-0.2,0.3-0.3,0.7-0.5,1.1c-0.2,0.4-0.3,0.7-0.4,1h-0.2h-0.2
			c-0.1-0.2-0.2-0.5-0.4-0.9c-0.2-0.4-0.4-0.8-0.6-1.2l-2-4.2l-2-4h0V212z"/>
		<path class="st2" d="M-187,212.3v-3.9c0-0.6,0-1-0.1-1.1s-0.3-0.2-0.6-0.2h-0.7v-0.5c0.5-0.1,1-0.2,1.4-0.3
			c0.4-0.1,0.8-0.3,1.4-0.4l0.2,0.1v0v6.3c0,0.6,0,0.9,0.1,1.1s0.3,0.2,0.6,0.3l0.7,0.1v0.5c-0.9,0-1.6-0.1-2.2-0.1s-1.4,0-2.2,0.1
			v-0.5l0.7-0.1c0.3,0,0.6-0.1,0.6-0.3C-187.1,213.2-187,212.9-187,212.3z M-186.4,202c0.3,0,0.5,0.1,0.7,0.3
			c0.2,0.2,0.3,0.4,0.3,0.7c0,0.3-0.1,0.5-0.3,0.7c-0.2,0.2-0.4,0.3-0.7,0.3s-0.5-0.1-0.7-0.3c-0.2-0.2-0.3-0.4-0.3-0.7
			c0-0.3,0.1-0.5,0.3-0.7C-186.9,202.1-186.6,202-186.4,202z"/>
		<path class="st2" d="M-176.4,213.4l-0.4,0.6c-0.4,0.2-0.8,0.3-1.1,0.4c-0.4,0.1-0.8,0.1-1.2,0.1c-1.2,0-2.2-0.4-3-1.2
			c-0.8-0.8-1.1-1.8-1.1-3c0-0.7,0.1-1.3,0.4-1.9c0.3-0.6,0.6-1.1,1.1-1.4c0.2-0.2,0.4-0.3,0.7-0.5c0.3-0.2,0.5-0.3,0.8-0.4
			c0.3-0.1,0.6-0.2,0.9-0.3c0.3-0.1,0.6-0.1,0.8-0.1c0.4,0,0.8,0.1,1.2,0.2c0.4,0.1,0.7,0.3,1,0.4c-0.1,0.4-0.2,0.8-0.2,1.1
			c0,0.3-0.1,0.7-0.1,1.1h-0.5l-0.1-0.9c0-0.1,0-0.1,0-0.2c0,0-0.1-0.1-0.1-0.1c-0.2-0.2-0.4-0.3-0.7-0.4c-0.3-0.1-0.7-0.2-1-0.2
			c-0.8,0-1.4,0.3-1.9,0.8c-0.5,0.5-0.7,1.2-0.7,2.1c0,1.2,0.3,2.2,0.9,2.9c0.6,0.7,1.4,1.1,2.4,1.1c0.3,0,0.6,0,0.9-0.1
			c0.3-0.1,0.6-0.2,0.9-0.4L-176.4,213.4z"/>
		<path class="st2" d="M-174.2,212.3v-9c0-0.4,0-0.6-0.1-0.7c-0.1-0.1-0.2-0.2-0.5-0.2h-0.9v-0.5c0.5-0.1,1-0.2,1.4-0.2
			c0.4-0.1,0.8-0.2,1.4-0.4l0.2,0.1v0v6c0.7-0.7,1.2-1.1,1.4-1.3c0.3-0.2,0.8-0.4,1.3-0.4c1,0,1.7,0.3,2.2,0.8s0.7,1.3,0.7,2.3v3.4
			c0,0.6,0,0.9,0.1,1.1c0.1,0.1,0.3,0.2,0.6,0.2l0.7,0.1v0.5c-0.6,0-1-0.1-1.4-0.1c-0.4,0-0.9,0-1.4,0.1v-0.5v-4.4
			c0-0.8-0.2-1.4-0.5-1.8c-0.4-0.4-0.9-0.6-1.5-0.6c-0.6,0-1.1,0.2-1.5,0.6c-0.2,0.2-0.3,0.3-0.5,0.5c-0.1,0.1-0.1,0.2-0.1,0.3
			c0,0.1,0,0.2,0,0.3v3.7c0,0.6,0,0.9,0.1,1.1c0.1,0.1,0.3,0.2,0.6,0.2l0.7,0.1v0.5c-0.9,0-1.6-0.1-2.2-0.1c-0.6,0-1.4,0-2.2,0.1
			v-0.5l0.7-0.1c0.3,0,0.6-0.1,0.6-0.3C-174.3,213.2-174.2,212.9-174.2,212.3z"/>
		<path class="st2" d="M-162.7,214.4c-0.7,0-1.2-0.2-1.6-0.6c-0.4-0.4-0.6-0.9-0.6-1.6c0-0.7,0.3-1.4,0.8-1.8s1.3-0.8,2.4-1l2-0.4
			V209c0-0.7-0.2-1.3-0.6-1.6c-0.4-0.4-0.9-0.6-1.6-0.6c-0.3,0-0.5,0-0.7,0l-0.1,0c-0.2,0-0.3,0.1-0.4,0.2c-0.1,0.1-0.2,0.2-0.3,0.4
			l-0.4,0.9l-0.4-0.1V207c0.6-0.4,1.2-0.7,1.6-0.9c0.4-0.2,0.9-0.3,1.3-0.3c1.1,0,1.9,0.3,2.3,0.8c0.4,0.5,0.6,1.4,0.6,2.8v3
			c0,0.6,0,0.9,0.1,1.1s0.2,0.2,0.5,0.3l0.6,0.1v0.5c-0.5,0-1-0.1-1.3-0.1c-0.4,0-0.8,0-1.3,0.1c0-0.5,0-0.9,0.1-1.1v-0.4l-2,1.4
			l-0.2,0.1C-162.1,214.3-162.3,214.4-162.7,214.4z M-159.7,209.6l-1.3,0.3c-0.8,0.2-1.4,0.4-1.8,0.7c-0.4,0.3-0.6,0.8-0.6,1.3
			c0,0.4,0.1,0.8,0.4,1.1c0.3,0.3,0.6,0.4,1,0.4c0.4,0,0.8-0.2,1.3-0.5c0.3-0.2,0.7-0.5,1-0.9V209.6z"/>
		<path class="st2" d="M-152.1,214.5c-1.2,0-2.2-0.4-2.9-1.1s-1.1-1.7-1.1-3c0-0.8,0.1-1.4,0.3-2c0.2-0.6,0.5-1,0.9-1.4
			c0.2-0.2,0.5-0.4,0.7-0.5c0.2-0.1,0.4-0.2,0.6-0.3c0.3-0.1,0.6-0.2,0.8-0.3c0.3-0.1,0.5-0.1,0.7-0.1h0c1,0,1.9,0.3,2.5,0.9
			c0.6,0.6,0.9,1.4,0.9,2.3v0.2v0.6c-0.2,0.1-0.7,0.1-1.5,0.2c-0.8,0.1-1.3,0.1-1.8,0.1h-2.6c0,1.1,0.3,2,0.8,2.5
			c0.5,0.6,1.3,1,2.4,1c0.3,0,0.7-0.1,1.1-0.2c0.4-0.2,0.8-0.4,1.1-0.6l0.2,0.2l-0.3,0.6c-0.4,0.3-0.9,0.5-1.5,0.7
			C-151.1,214.4-151.6,214.5-152.1,214.5z M-150.2,209.4c0-0.9-0.2-1.7-0.5-2.2c-0.3-0.5-0.8-0.8-1.4-0.8h0c-0.8,0-1.3,0.3-1.8,0.9
			c-0.4,0.5-0.6,1.2-0.6,2.1c0.8,0.1,1.5,0.1,2.1,0.1C-151.7,209.5-151,209.5-150.2,209.4z"/>
		<path class="st2" d="M-146.1,212.3v-9c0-0.4,0-0.6-0.1-0.7c-0.1-0.1-0.2-0.2-0.5-0.2h-0.9v-0.5c0.5-0.1,1-0.2,1.4-0.2
			c0.4-0.1,0.8-0.2,1.4-0.4l0.2,0.1v0v10.9c0,0.6,0,0.9,0.1,1.1s0.3,0.2,0.6,0.3l0.7,0.1v0.5c-0.9,0-1.6-0.1-2.2-0.1s-1.4,0-2.2,0.1
			v-0.5l0.7-0.1c0.3,0,0.6-0.1,0.6-0.3C-146.2,213.2-146.1,212.9-146.1,212.3z"/>
		<path class="st2" d="M-124.8,216.3l-1.5,1c-0.2,0-0.5-0.1-1.1-0.2c-0.6-0.2-1.3-0.4-2-0.6c-0.9-0.3-1.5-0.5-1.9-0.6
			c-0.4-0.1-0.7-0.2-0.9-0.2c-0.1,0-0.3,0.1-0.5,0.2c-0.2,0.1-0.6,0.3-1,0.6l0-0.6c0.5-0.4,0.9-0.7,1.4-1c0.3-0.2,0.6-0.3,0.8-0.4
			h-0.2c-1.8,0-3.4-0.6-4.5-1.8c-1.2-1.2-1.8-2.8-1.8-4.7c0-1.9,0.6-3.5,1.9-4.7c1.3-1.2,3-1.8,5-1.8c1.9,0,3.4,0.5,4.5,1.6
			c1.2,1.1,1.8,2.5,1.8,4.2c0,2.1-0.6,3.8-1.9,5.1c-1.2,1.2-2.6,1.9-4.4,2c0.2,0,0.4,0.1,0.6,0.1c0.3,0.1,0.8,0.3,1.7,0.6
			c0.7,0.3,1.3,0.5,1.8,0.6c0.5,0.1,1,0.2,1.4,0.2c0.2,0,0.4,0,0.6,0c0.2,0,0.3,0,0.4-0.1L-124.8,216.3z M-134.9,203.6
			c-0.8,0.9-1.2,2.1-1.2,3.7c0,2,0.4,3.6,1.3,4.7c0.9,1.2,2.1,1.7,3.6,1.7c1.4,0,2.5-0.5,3.3-1.5c0.8-1,1.2-2.4,1.2-4.1
			c0-1.8-0.4-3.3-1.3-4.3c-0.9-1.1-2.1-1.6-3.6-1.6C-133,202.3-134.1,202.7-134.9,203.6z"/>
		<path class="st2" d="M-121.1,206v5.3c0,0.8,0.1,1.3,0.4,1.7c0.3,0.3,0.8,0.5,1.5,0.5c0.6,0,1.1-0.2,1.5-0.7
			c0.2-0.2,0.4-0.5,0.6-0.8c0.1-0.1,0.1-0.2,0.1-0.3c0-0.1,0-0.2,0-0.3v-2.9c0-0.6,0-1-0.1-1.1c-0.1-0.2-0.3-0.2-0.6-0.2h-0.7v-0.5
			c0.5-0.1,1-0.2,1.4-0.3c0.4-0.1,0.8-0.3,1.4-0.4l0.2,0.1v0v6.3c0,0.6,0,0.9,0.1,1.1c0.1,0.1,0.3,0.2,0.6,0.2l0.7,0.1v0.5
			c-0.6,0-1.1-0.1-1.5-0.1c-0.4,0-0.9,0-1.5,0.1c0-0.3,0.1-0.6,0.1-0.8l0-0.8c-0.9,0.8-1.4,1.3-1.7,1.5c-0.4,0.3-0.9,0.4-1.6,0.4
			c-0.9,0-1.5-0.2-1.9-0.6c-0.4-0.4-0.6-1.1-0.6-2v-3.5c0-0.6,0-1-0.1-1.1c-0.1-0.2-0.3-0.2-0.6-0.2h-0.7v-0.5
			c0.5-0.1,1-0.2,1.4-0.3c0.4-0.1,0.8-0.3,1.4-0.4L-121.1,206L-121.1,206z"/>
		<path class="st2" d="M-111.8,212.3v-3.9c0-0.6,0-1-0.1-1.1s-0.3-0.2-0.6-0.2h-0.7v-0.5c0.5-0.1,1-0.2,1.4-0.3
			c0.4-0.1,0.8-0.3,1.4-0.4l0.2,0.1v0v6.3c0,0.6,0,0.9,0.1,1.1c0.1,0.1,0.3,0.2,0.6,0.3l0.7,0.1v0.5c-0.9,0-1.6-0.1-2.2-0.1
			c-0.6,0-1.4,0-2.2,0.1v-0.5l0.7-0.1c0.3,0,0.6-0.1,0.6-0.3C-111.8,213.2-111.8,212.9-111.8,212.3z M-111.1,202
			c0.3,0,0.5,0.1,0.7,0.3c0.2,0.2,0.3,0.4,0.3,0.7c0,0.3-0.1,0.5-0.3,0.7c-0.2,0.2-0.4,0.3-0.7,0.3c-0.3,0-0.5-0.1-0.7-0.3
			c-0.2-0.2-0.3-0.4-0.3-0.7c0-0.3,0.1-0.5,0.3-0.7C-111.6,202.1-111.4,202-111.1,202z"/>
		<path class="st2" d="M-105.5,212.5c0,0.2,0.1,0.4,0.3,0.5c0.2,0.1,0.5,0.2,1,0.2h2.7c0.7,0,1.3,0.2,1.7,0.6
			c0.4,0.4,0.6,0.9,0.6,1.6c0,1.1-0.5,2-1.4,2.7c-0.9,0.7-2.1,1.1-3.4,1.1c-1.1,0-2-0.3-2.7-0.8c-0.7-0.5-1.1-1.1-1.1-1.9
			c0-0.6,0.1-1.1,0.3-1.3c0.2-0.2,0.8-0.6,1.8-1c-0.2-0.1-0.4-0.1-0.5-0.2c-0.5-0.2-0.7-0.5-0.7-0.9c0-0.3,0.1-0.5,0.2-0.6
			c0.1-0.1,0.6-0.5,1.4-1.1c-0.5-0.1-1-0.3-1.3-0.6c-0.5-0.4-0.8-1.1-0.8-1.9c0-0.8,0.4-1.6,1.1-2.2c0.8-0.6,1.6-0.9,2.7-0.9h0
			c0.9,0,1.6,0.2,2.2,0.7l0.1,0.1l2.6-0.1l0.1,0.2l-0.5,0.7h-1.6c0.1,0.3,0.2,0.6,0.2,0.9c0,0.9-0.4,1.7-1.1,2.3
			c-0.7,0.6-1.6,0.9-2.7,0.9h0l-0.3,0c-0.2,0.2-0.4,0.3-0.6,0.5C-105.5,212.2-105.5,212.4-105.5,212.5z M-106.5,216.5
			c0,0.6,0.3,1.1,0.8,1.5c0.5,0.4,1.1,0.6,1.9,0.6c0.9,0,1.7-0.3,2.4-0.8c0.6-0.5,1-1.2,1-1.9c0-0.5-0.2-0.9-0.5-1.1
			c-0.3-0.3-0.8-0.4-1.5-0.4h-1.7c-0.2,0-0.4,0-0.6,0.1c-0.2,0-0.3,0.1-0.5,0.1c-0.3,0.1-0.5,0.3-0.7,0.6
			C-106.4,215.5-106.5,216-106.5,216.5z M-104.1,206.4c-0.6,0-1,0.2-1.3,0.5s-0.5,0.9-0.5,1.5c0,0.8,0.2,1.4,0.5,1.8
			c0.4,0.4,0.9,0.7,1.5,0.7h0c0.6,0,1-0.2,1.3-0.6c0.3-0.4,0.5-0.9,0.5-1.5c0-0.7-0.2-1.3-0.6-1.8
			C-103.1,206.6-103.5,206.4-104.1,206.4L-104.1,206.4z"/>
		<path class="st2" d="M-96.7,212.3v-9c0-0.4,0-0.6-0.1-0.7c-0.1-0.1-0.2-0.2-0.5-0.2h-0.9v-0.5c0.5-0.1,1-0.2,1.4-0.2
			c0.4-0.1,0.8-0.2,1.4-0.4l0.2,0.1v0v10.9c0,0.6,0,0.9,0.1,1.1c0.1,0.1,0.3,0.2,0.6,0.3l0.7,0.1v0.5c-0.9,0-1.6-0.1-2.2-0.1
			c-0.6,0-1.4,0-2.2,0.1v-0.5l0.7-0.1c0.3,0,0.6-0.1,0.6-0.3C-96.7,213.2-96.7,212.9-96.7,212.3z"/>
		<path class="st2" d="M-88.9,214.5c-1.2,0-2.2-0.4-2.9-1.1c-0.7-0.7-1.1-1.7-1.1-3c0-0.8,0.1-1.4,0.3-2c0.2-0.6,0.5-1,0.9-1.4
			c0.2-0.2,0.5-0.4,0.7-0.5c0.2-0.1,0.4-0.2,0.6-0.3c0.3-0.1,0.6-0.2,0.8-0.3s0.5-0.1,0.7-0.1h0c1,0,1.9,0.3,2.5,0.9
			c0.6,0.6,0.9,1.4,0.9,2.3v0.2v0.6c-0.2,0.1-0.7,0.1-1.5,0.2c-0.8,0.1-1.3,0.1-1.8,0.1h-2.6c0,1.1,0.3,2,0.8,2.5
			c0.5,0.6,1.3,1,2.4,1c0.3,0,0.7-0.1,1.1-0.2c0.4-0.2,0.8-0.4,1.1-0.6l0.2,0.2l-0.3,0.6c-0.4,0.3-0.9,0.5-1.5,0.7
			C-87.9,214.4-88.4,214.5-88.9,214.5z M-87,209.4c0-0.9-0.2-1.7-0.5-2.2c-0.3-0.5-0.8-0.8-1.4-0.8h0c-0.8,0-1.3,0.3-1.8,0.9
			c-0.4,0.5-0.6,1.2-0.6,2.1c0.8,0.1,1.5,0.1,2.1,0.1C-88.5,209.5-87.8,209.5-87,209.4z"/>
		<path class="st2" d="M-76.7,207.9l-4.1,9.3c-0.4,0.8-0.8,1.4-1.1,1.7c-0.4,0.3-0.8,0.5-1.4,0.5c-0.4,0-0.7-0.1-1-0.3l0.4-1.3h0.2
			c0.2,0.3,0.5,0.4,1,0.4c0.2,0,0.5-0.1,0.7-0.3c0.2-0.2,0.5-0.5,0.6-0.8l1.1-2.5v0l-2.4-5.8c-0.4-1-0.7-1.6-0.8-1.8
			c-0.2-0.2-0.3-0.4-0.6-0.4l-0.5-0.1V206c0.8,0,1.5,0.1,2.1,0.1c0.6,0,1.3,0,2.1-0.1v0.5l-0.7,0.1c-0.3,0-0.5,0.1-0.6,0.2
			c0,0.1,0.1,0.5,0.3,1.1l1.9,4.8h0l1.7-4c0.4-0.9,0.6-1.5,0.6-1.7c0-0.2-0.2-0.4-0.5-0.4l-0.8-0.1V206c0.7,0,1.2,0.1,1.7,0.1
			c0.5,0,1,0,1.7-0.1v0.5l-0.5,0.1c-0.2,0-0.4,0.1-0.5,0.3C-76.3,207-76.5,207.3-76.7,207.9z"/>
	</g>
	<g class="st1">
		<path class="st2" d="M-204.1,241.9v-3.5c0-0.6,0-0.9-0.1-1s-0.3-0.2-0.6-0.2h-0.6v-0.4c0.5-0.1,0.9-0.2,1.3-0.3
			c0.3-0.1,0.8-0.2,1.2-0.4l0.1,0.1v0v1.3c0.6-0.6,1.1-0.9,1.2-1.1c0.3-0.2,0.6-0.3,1-0.3c0.9,0,1.5,0.2,1.9,0.7
			c0.2,0.2,0.4,0.5,0.5,0.8c0.7-0.6,1.2-1,1.4-1.2c0.3-0.2,0.6-0.3,1-0.3c0.9,0,1.5,0.2,1.9,0.7c0.4,0.5,0.6,1.1,0.6,2v3.1
			c0,0.5,0,0.8,0.1,1c0.1,0.1,0.3,0.2,0.6,0.2l0.6,0v0.5c-0.5,0-1,0-1.3,0c-0.4,0-0.8,0-1.3,0v-0.5v-4c0-0.7-0.1-1.2-0.4-1.5
			c-0.3-0.4-0.7-0.5-1.2-0.5c-0.5,0-0.9,0.2-1.3,0.5c-0.2,0.1-0.3,0.3-0.4,0.5c0,0.1-0.1,0.1-0.1,0.2c0,0.1,0,0.2,0,0.3v3.3
			c0,0.5,0,0.8,0.1,1s0.3,0.2,0.6,0.2l0.6,0v0.5c-0.8,0-1.4,0-2,0s-1.2,0-2,0v-0.5l0.6,0c0.3,0,0.5-0.1,0.6-0.2
			c0.1-0.1,0.1-0.5,0.1-1v-2.8c0-0.7-0.1-1.2-0.4-1.6c-0.3-0.4-0.7-0.5-1.2-0.5c-0.5,0-0.9,0.2-1.3,0.5c-0.2,0.1-0.3,0.3-0.4,0.5
			c0,0.1-0.1,0.2-0.1,0.3c0,0.1,0,0.2,0,0.3v3.3c0,0.5,0,0.8,0.1,1c0.1,0.1,0.3,0.2,0.5,0.2l0.6,0v0.5c-0.8,0-1.4,0-2,0
			c-0.6,0-1.2,0-2,0v-0.5l0.6,0c0.3,0,0.5-0.1,0.6-0.2C-204.2,242.7-204.1,242.4-204.1,241.9z"/>
		<path class="st2" d="M-189.9,241.9v-3.5c0-0.6,0-0.9-0.1-1s-0.3-0.2-0.6-0.2h-0.6v-0.4c0.5-0.1,0.9-0.2,1.3-0.3
			c0.3-0.1,0.8-0.2,1.2-0.4l0.1,0.1v0v5.7c0,0.5,0,0.8,0.1,1c0.1,0.1,0.3,0.2,0.6,0.2l0.6,0v0.5c-0.8,0-1.4,0-2,0c-0.6,0-1.2,0-2,0
			v-0.5l0.6,0c0.3,0,0.5-0.1,0.6-0.2C-189.9,242.7-189.9,242.4-189.9,241.9z M-189.3,232.6c0.2,0,0.5,0.1,0.6,0.3
			c0.2,0.2,0.3,0.4,0.3,0.6c0,0.2-0.1,0.5-0.3,0.6c-0.2,0.2-0.4,0.3-0.6,0.3c-0.2,0-0.5-0.1-0.6-0.3c-0.2-0.2-0.3-0.4-0.3-0.6
			c0-0.3,0.1-0.5,0.3-0.6C-189.8,232.7-189.6,232.6-189.3,232.6z"/>
		<path class="st2" d="M-180.3,242.8l-0.4,0.6c-0.3,0.2-0.7,0.3-1,0.4c-0.3,0.1-0.7,0.1-1.1,0.1c-1.1,0-2-0.3-2.7-1
			c-0.7-0.7-1-1.6-1-2.7c0-0.6,0.1-1.1,0.4-1.7c0.2-0.5,0.6-1,1-1.3c0.2-0.1,0.4-0.3,0.6-0.4c0.2-0.1,0.5-0.3,0.7-0.4
			c0.3-0.1,0.6-0.2,0.8-0.3c0.3-0.1,0.5-0.1,0.7-0.1c0.3,0,0.7,0.1,1.1,0.2c0.4,0.1,0.7,0.2,0.9,0.4c-0.1,0.4-0.2,0.7-0.2,1
			c0,0.3-0.1,0.6-0.1,1h-0.5l-0.1-0.8c0-0.1,0-0.1,0-0.2c0,0-0.1-0.1-0.1-0.1c-0.2-0.2-0.4-0.3-0.6-0.4c-0.3-0.1-0.6-0.2-0.9-0.2
			c-0.7,0-1.3,0.2-1.7,0.7c-0.4,0.5-0.6,1.1-0.6,1.9c0,1.1,0.3,2,0.8,2.7c0.5,0.6,1.3,1,2.2,1c0.3,0,0.5,0,0.8-0.1
			c0.3-0.1,0.6-0.2,0.8-0.4L-180.3,242.8z"/>
		<path class="st2" d="M-178.4,241.9v-8.1c0-0.3,0-0.6-0.1-0.7c-0.1-0.1-0.2-0.1-0.4-0.1h-0.8v-0.5c0.5-0.1,0.9-0.1,1.3-0.2
			c0.3-0.1,0.8-0.2,1.2-0.4l0.1,0.1v0v5.4c0.7-0.6,1.1-1,1.3-1.1c0.3-0.2,0.7-0.3,1.2-0.3c0.9,0,1.6,0.2,2,0.7
			c0.4,0.5,0.7,1.2,0.7,2.1v3c0,0.5,0,0.8,0.1,1c0.1,0.1,0.2,0.2,0.5,0.2l0.6,0v0.5c-0.5,0-0.9,0-1.3,0c-0.4,0-0.8,0-1.3,0v-0.5
			v-3.9c0-0.7-0.2-1.2-0.5-1.6c-0.3-0.4-0.8-0.6-1.4-0.6c-0.5,0-1,0.2-1.4,0.5c-0.2,0.1-0.3,0.3-0.4,0.5c-0.1,0.1-0.1,0.2-0.1,0.3
			c0,0.1,0,0.2,0,0.3v3.3c0,0.5,0,0.8,0.1,1c0.1,0.1,0.3,0.2,0.6,0.2l0.6,0v0.5c-0.8,0-1.4,0-2,0s-1.2,0-2,0v-0.5l0.6,0
			c0.3,0,0.5-0.1,0.6-0.2C-178.4,242.7-178.4,242.4-178.4,241.9z"/>
		<path class="st2" d="M-168,243.7c-0.6,0-1.1-0.2-1.4-0.5c-0.3-0.3-0.5-0.8-0.5-1.4c0-0.7,0.2-1.2,0.7-1.6s1.2-0.7,2.2-0.9l1.8-0.3
			v-0.1c0-0.6-0.2-1.1-0.5-1.5c-0.3-0.3-0.8-0.5-1.4-0.5c-0.3,0-0.5,0-0.7,0l0,0c-0.1,0-0.3,0.1-0.4,0.2c-0.1,0.1-0.2,0.2-0.3,0.4
			l-0.4,0.8l-0.4-0.1v-1c0.6-0.4,1.1-0.7,1.5-0.8c0.4-0.2,0.8-0.2,1.2-0.2c1,0,1.7,0.2,2.1,0.7c0.4,0.5,0.6,1.3,0.6,2.5v2.7
			c0,0.5,0,0.8,0.1,1s0.2,0.2,0.5,0.2l0.5,0v0.5c-0.5,0-0.9,0-1.2,0c-0.3,0-0.7,0-1.2,0c0-0.4,0-0.8,0-1v-0.4l-1.8,1.3l-0.2,0.1
			C-167.4,243.7-167.7,243.7-168,243.7z M-165.3,239.4l-1.2,0.2c-0.7,0.1-1.3,0.4-1.6,0.7c-0.3,0.3-0.5,0.7-0.5,1.2
			c0,0.4,0.1,0.7,0.4,0.9c0.2,0.3,0.5,0.4,0.9,0.4c0.3,0,0.7-0.1,1.1-0.4c0.3-0.2,0.6-0.5,0.9-0.8V239.4z"/>
		<path class="st2" d="M-158.4,243.9c-1.1,0-2-0.3-2.6-1c-0.6-0.7-1-1.6-1-2.7c0-0.7,0.1-1.3,0.3-1.8c0.2-0.5,0.5-0.9,0.8-1.2
			c0.2-0.2,0.4-0.3,0.6-0.4c0.2-0.1,0.4-0.2,0.6-0.3c0.3-0.1,0.5-0.2,0.8-0.3c0.2-0.1,0.4-0.1,0.6-0.1h0c0.9,0,1.7,0.3,2.2,0.8
			c0.5,0.5,0.8,1.2,0.8,2.1v0.2v0.5c-0.2,0-0.6,0.1-1.3,0.1c-0.7,0.1-1.2,0.1-1.6,0.1h-2.4c0,1,0.3,1.8,0.7,2.3
			c0.5,0.6,1.2,0.9,2.2,0.9c0.3,0,0.6-0.1,1-0.2c0.4-0.1,0.7-0.3,1-0.6l0.2,0.2l-0.3,0.5c-0.4,0.3-0.8,0.5-1.3,0.6
			C-157.6,243.8-158,243.9-158.4,243.9z M-156.7,239.3c0-0.9-0.1-1.5-0.4-2c-0.3-0.5-0.7-0.7-1.3-0.7h0c-0.7,0-1.2,0.3-1.6,0.8
			c-0.3,0.5-0.5,1.1-0.6,1.9c0.7,0,1.3,0.1,1.9,0.1C-158.1,239.3-157.4,239.3-156.7,239.3z"/>
		<path class="st2" d="M-153.1,241.9v-8.1c0-0.3,0-0.6-0.1-0.7s-0.2-0.1-0.4-0.1h-0.8v-0.5c0.5-0.1,0.9-0.1,1.3-0.2
			c0.3-0.1,0.8-0.2,1.2-0.4l0.1,0.1v0v9.8c0,0.5,0,0.8,0.1,1c0.1,0.1,0.3,0.2,0.6,0.2l0.6,0v0.5c-0.8,0-1.4,0-2,0s-1.2,0-2,0v-0.5
			l0.6,0c0.3,0,0.5-0.1,0.6-0.2C-153.1,242.7-153.1,242.4-153.1,241.9z"/>
		<path class="st2" d="M-141.8,240.9c0.6,0,1.1-0.4,1.6-1.3c0.5-0.8,0.8-1.7,0.8-2.6c0-1.1-0.4-2-1.3-2.7c-0.9-0.7-1.9-1.1-3.1-1.1
			c-1.5,0-2.7,0.5-3.6,1.4c-1,0.9-1.4,2.1-1.4,3.5c0,1.4,0.5,2.6,1.5,3.5c1,0.9,2.2,1.4,3.7,1.4c0.8,0,1.6-0.2,2.3-0.6
			c0.7-0.4,1.3-1,1.7-1.7h1c-0.4,0.8-1.1,1.6-2.1,2.2c-1,0.6-2,0.9-3,0.9c-1.7,0-3.1-0.5-4.3-1.6c-1.2-1.1-1.7-2.4-1.7-4
			c0-1.7,0.6-3.1,1.7-4.2c1.1-1.1,2.5-1.7,4.2-1.7c1.5,0,2.7,0.4,3.7,1.3c1,0.9,1.5,2,1.5,3.2c0,1.1-0.4,2.1-1.2,3
			c-0.8,0.9-1.6,1.4-2.6,1.4c-0.5,0-0.9-0.2-1.1-0.7c-0.1-0.2-0.1-0.4-0.1-0.6c-0.1,0.1-0.2,0.3-0.3,0.4c-0.5,0.5-1,0.8-1.6,0.8
			c-0.6,0-1.2-0.2-1.6-0.6c-0.4-0.4-0.6-1-0.6-1.6c0-1,0.3-1.8,1-2.6c0.7-0.7,1.5-1.1,2.4-1.1c0.7,0,1.1,0.3,1.3,0.9l0.1,0.3l0.3-1
			h1.4l-1.1,3.9c-0.2,0.6-0.2,0.9-0.2,1.2C-142.2,240.8-142.1,240.9-141.8,240.9z M-143.8,235.8c-0.5,0-1.1,0.4-1.6,1.2
			c-0.5,0.8-0.7,1.6-0.7,2.5c0,0.5,0.1,0.8,0.2,1c0.2,0.2,0.4,0.4,0.7,0.4c0.4,0,0.8-0.2,1.1-0.7s0.6-1,0.8-1.7
			c0.2-0.8,0.3-1.5,0.2-2C-143.2,236.1-143.4,235.8-143.8,235.8z"/>
		<path class="st2" d="M-134.4,243.7c-0.9,0-1.7-0.3-2.3-1c-0.6-0.6-0.9-1.5-0.9-2.5c0-0.7,0.1-1.3,0.4-1.8c0.3-0.5,0.6-1,1.1-1.3
			c0.2-0.2,0.5-0.3,0.8-0.5c0.3-0.2,0.5-0.3,0.6-0.4c0.2-0.1,0.3-0.2,0.6-0.2c0.2-0.1,0.4-0.1,0.7-0.1c0.6,0,1.2,0.1,1.7,0.3
			l0.5,0.2l0.8-0.5l0.3,0.2c-0.1,0.2-0.2,0.6-0.3,1.1c-0.1,0.5-0.1,1.1-0.1,1.7v7.4c0,0.5,0,0.8,0.1,1c0.1,0.1,0.3,0.2,0.6,0.2
			l0.6,0v0.5c-0.8,0-1.5,0-2.1,0s-1.3,0-2.1,0v-0.5l0.7,0c0.4,0,0.6-0.1,0.7-0.2c0.1-0.1,0.1-0.5,0.1-1v-3.9
			c-1.1,0.7-1.7,1.1-1.8,1.2S-134,243.7-134.4,243.7z M-133.9,236.8c-0.7,0-1.3,0.2-1.7,0.7c-0.4,0.5-0.6,1.1-0.6,2
			c0,1.1,0.2,1.9,0.7,2.5c0.4,0.6,1,0.9,1.8,0.9c0.3,0,0.7-0.1,1.1-0.3c0.4-0.2,0.6-0.5,0.8-0.8v-4.3c-0.2-0.1-0.4-0.3-0.6-0.4
			C-132.9,236.9-133.4,236.8-133.9,236.8z"/>
		<path class="st2" d="M-126.2,236.2v4.8c0,0.7,0.1,1.2,0.4,1.5c0.3,0.3,0.7,0.4,1.4,0.4c0.5,0,1-0.2,1.4-0.6
			c0.2-0.2,0.4-0.4,0.5-0.7c0-0.1,0.1-0.2,0.1-0.3c0-0.1,0-0.2,0-0.3v-2.6c0-0.6,0-0.9-0.1-1s-0.3-0.2-0.6-0.2h-0.6v-0.4
			c0.5-0.1,0.9-0.2,1.3-0.3c0.3-0.1,0.8-0.2,1.2-0.4l0.1,0.1v0v5.7c0,0.5,0,0.8,0.1,1c0.1,0.1,0.2,0.2,0.5,0.2l0.6,0v0.5
			c-0.5,0-1,0-1.3,0c-0.4,0-0.8,0-1.3,0c0-0.3,0-0.5,0.1-0.8l0-0.7c-0.8,0.7-1.3,1.2-1.5,1.3c-0.4,0.2-0.8,0.4-1.4,0.4
			c-0.8,0-1.3-0.2-1.7-0.5c-0.3-0.4-0.5-1-0.5-1.8v-3.2c0-0.6,0-0.9-0.1-1s-0.3-0.2-0.6-0.2h-0.6v-0.4c0.5-0.1,0.9-0.2,1.3-0.3
			c0.3-0.1,0.8-0.2,1.2-0.4L-126.2,236.2L-126.2,236.2z"/>
		<path class="st2" d="M-117.8,241.9v-3.5c0-0.6,0-0.9-0.1-1s-0.3-0.2-0.6-0.2h-0.6v-0.4c0.5-0.1,0.9-0.2,1.3-0.3
			c0.3-0.1,0.8-0.2,1.2-0.4l0.1,0.1v0v5.7c0,0.5,0,0.8,0.1,1c0.1,0.1,0.3,0.2,0.6,0.2l0.6,0v0.5c-0.8,0-1.4,0-2,0c-0.6,0-1.2,0-2,0
			v-0.5l0.6,0c0.3,0,0.5-0.1,0.6-0.2C-117.9,242.7-117.8,242.4-117.8,241.9z M-117.2,232.6c0.2,0,0.5,0.1,0.6,0.3
			c0.2,0.2,0.3,0.4,0.3,0.6c0,0.2-0.1,0.5-0.3,0.6c-0.2,0.2-0.4,0.3-0.6,0.3c-0.2,0-0.5-0.1-0.6-0.3c-0.2-0.2-0.3-0.4-0.3-0.6
			c0-0.3,0.1-0.5,0.3-0.6C-117.7,232.7-117.5,232.6-117.2,232.6z"/>
		<path class="st2" d="M-112.2,242c0,0.2,0.1,0.4,0.3,0.5c0.2,0.1,0.5,0.2,0.9,0.2h2.5c0.7,0,1.2,0.2,1.5,0.5
			c0.4,0.3,0.5,0.8,0.5,1.4c0,1-0.4,1.8-1.3,2.5c-0.8,0.7-1.9,1-3.1,1c-1,0-1.8-0.2-2.4-0.7c-0.7-0.5-1-1-1-1.7
			c0-0.6,0.1-0.9,0.3-1.1c0.2-0.2,0.7-0.5,1.6-0.9c-0.2,0-0.3-0.1-0.5-0.2c-0.4-0.2-0.6-0.5-0.6-0.8c0-0.3,0.1-0.4,0.2-0.6
			c0.1-0.1,0.5-0.5,1.3-1c-0.5-0.1-0.9-0.3-1.2-0.5c-0.5-0.4-0.7-1-0.7-1.7c0-0.8,0.3-1.4,1-2c0.7-0.6,1.5-0.8,2.4-0.8h0
			c0.8,0,1.5,0.2,2,0.6l0.1,0.1l2.4-0.1l0.1,0.2l-0.4,0.7h-1.5c0.1,0.2,0.2,0.5,0.2,0.8c0,0.8-0.3,1.5-1,2c-0.7,0.6-1.5,0.8-2.4,0.8
			h0l-0.3,0c-0.2,0.2-0.4,0.3-0.5,0.5C-112.2,241.8-112.2,241.9-112.2,242z M-113.1,245.6c0,0.5,0.2,1,0.7,1.4
			c0.5,0.4,1,0.6,1.7,0.6c0.8,0,1.5-0.2,2.1-0.7c0.6-0.5,0.9-1,0.9-1.7c0-0.4-0.2-0.8-0.5-1c-0.3-0.2-0.8-0.3-1.4-0.3h-1.6
			c-0.2,0-0.3,0-0.5,0c-0.2,0-0.3,0.1-0.4,0.1c-0.3,0.1-0.5,0.3-0.6,0.5C-113,244.8-113.1,245.2-113.1,245.6z M-111,236.6
			c-0.5,0-0.9,0.2-1.2,0.5c-0.3,0.3-0.4,0.8-0.4,1.3c0,0.7,0.2,1.2,0.5,1.6c0.3,0.4,0.8,0.6,1.3,0.6h0c0.5,0,0.9-0.2,1.2-0.5
			c0.3-0.3,0.4-0.8,0.4-1.4c0-0.6-0.2-1.2-0.5-1.6C-110,236.8-110.4,236.6-111,236.6L-111,236.6z"/>
		<path class="st2" d="M-104.3,241.9v-8.1c0-0.3,0-0.6-0.1-0.7c-0.1-0.1-0.2-0.1-0.4-0.1h-0.8v-0.5c0.5-0.1,0.9-0.1,1.3-0.2
			c0.3-0.1,0.8-0.2,1.2-0.4l0.1,0.1v0v9.8c0,0.5,0,0.8,0.1,1c0.1,0.1,0.3,0.2,0.6,0.2l0.6,0v0.5c-0.8,0-1.4,0-2,0c-0.6,0-1.2,0-2,0
			v-0.5l0.6,0c0.3,0,0.5-0.1,0.6-0.2C-104.3,242.7-104.3,242.4-104.3,241.9z"/>
		<path class="st2" d="M-97.2,243.9c-1.1,0-2-0.3-2.6-1s-1-1.6-1-2.7c0-0.7,0.1-1.3,0.3-1.8c0.2-0.5,0.5-0.9,0.8-1.2
			c0.2-0.2,0.4-0.3,0.6-0.4c0.2-0.1,0.4-0.2,0.6-0.3c0.3-0.1,0.5-0.2,0.8-0.3c0.2-0.1,0.4-0.1,0.6-0.1h0c0.9,0,1.7,0.3,2.2,0.8
			c0.5,0.5,0.8,1.2,0.8,2.1v0.2v0.5c-0.2,0-0.6,0.1-1.3,0.1c-0.7,0.1-1.2,0.1-1.6,0.1h-2.4c0,1,0.3,1.8,0.7,2.3
			c0.5,0.6,1.2,0.9,2.2,0.9c0.3,0,0.6-0.1,1-0.2c0.4-0.1,0.7-0.3,1-0.6l0.2,0.2l-0.3,0.5c-0.4,0.3-0.8,0.5-1.3,0.6
			C-96.4,243.8-96.8,243.9-97.2,243.9z M-95.5,239.3c0-0.9-0.1-1.5-0.4-2c-0.3-0.5-0.7-0.7-1.3-0.7h0c-0.7,0-1.2,0.3-1.6,0.8
			c-0.3,0.5-0.5,1.1-0.6,1.9c0.7,0,1.3,0.1,1.9,0.1C-96.9,239.3-96.2,239.3-95.5,239.3z"/>
		<path class="st2" d="M-86.3,237.9l-3.7,8.4c-0.3,0.7-0.7,1.2-1,1.5c-0.3,0.3-0.7,0.4-1.2,0.4c-0.4,0-0.7-0.1-0.9-0.3l0.4-1.2h0.2
			c0.2,0.3,0.5,0.4,0.9,0.4c0.2,0,0.4-0.1,0.6-0.3c0.2-0.2,0.4-0.4,0.6-0.8l1-2.2v0l-2.1-5.2c-0.4-0.9-0.6-1.4-0.8-1.6
			s-0.3-0.3-0.5-0.4l-0.5,0v-0.5c0.7,0,1.3,0,1.8,0c0.5,0,1.1,0,1.9,0v0.5l-0.6,0c-0.3,0-0.5,0.1-0.5,0.2c0,0.1,0.1,0.5,0.3,1
			l1.8,4.3h0l1.5-3.6c0.3-0.8,0.5-1.3,0.5-1.5c0-0.2-0.2-0.3-0.5-0.3l-0.7,0v-0.5c0.6,0,1.1,0,1.5,0c0.4,0,0.9,0,1.5,0v0.5l-0.5,0
			c-0.2,0-0.4,0.1-0.5,0.2C-85.9,237.1-86.1,237.4-86.3,237.9z"/>
		<path class="st2" d="M-82.7,241.8c0.3,0,0.5,0.1,0.7,0.3c0.2,0.2,0.3,0.4,0.3,0.7c0,0.3-0.1,0.5-0.3,0.7c-0.2,0.2-0.4,0.3-0.7,0.3
			s-0.5-0.1-0.7-0.3c-0.2-0.2-0.3-0.4-0.3-0.7c0-0.3,0.1-0.5,0.3-0.7C-83.2,241.9-82.9,241.8-82.7,241.8z"/>
		<path class="st2" d="M-74,242.8l-0.4,0.6c-0.3,0.2-0.7,0.3-1,0.4c-0.3,0.1-0.7,0.1-1.1,0.1c-1.1,0-2-0.3-2.7-1
			c-0.7-0.7-1-1.6-1-2.7c0-0.6,0.1-1.1,0.4-1.7c0.2-0.5,0.6-1,1-1.3c0.2-0.1,0.4-0.3,0.6-0.4c0.2-0.1,0.5-0.3,0.7-0.4
			c0.3-0.1,0.6-0.2,0.8-0.3c0.3-0.1,0.5-0.1,0.7-0.1c0.3,0,0.7,0.1,1.1,0.2c0.4,0.1,0.7,0.2,0.9,0.4c-0.1,0.4-0.2,0.7-0.2,1
			c0,0.3-0.1,0.6-0.1,1h-0.5l-0.1-0.8c0-0.1,0-0.1,0-0.2c0,0-0.1-0.1-0.1-0.1c-0.2-0.2-0.4-0.3-0.6-0.4c-0.3-0.1-0.6-0.2-0.9-0.2
			c-0.7,0-1.3,0.2-1.7,0.7c-0.4,0.5-0.6,1.1-0.6,1.9c0,1.1,0.3,2,0.8,2.7c0.5,0.6,1.3,1,2.2,1c0.3,0,0.5,0,0.8-0.1
			c0.3-0.1,0.6-0.2,0.8-0.4L-74,242.8z"/>
		<path class="st2" d="M-72,242.8c-0.7-0.7-1-1.7-1-2.9c0-1.1,0.4-2.1,1.1-2.8c0.8-0.7,1.7-1.1,2.9-1.1c1.1,0,2,0.3,2.6,1
			c0.7,0.7,1,1.5,1,2.6c0,1.2-0.4,2.3-1.1,3c-0.8,0.8-1.7,1.2-2.9,1.2C-70.5,243.9-71.3,243.5-72,242.8z M-67.4,242.5
			c0.4-0.6,0.6-1.3,0.6-2.3c0-1.1-0.2-2-0.7-2.7c-0.5-0.7-1.1-1-1.9-1c-0.7,0-1.2,0.2-1.6,0.7c-0.4,0.5-0.6,1.2-0.6,2
			c0,1.2,0.2,2.2,0.7,2.9c0.5,0.7,1.1,1.1,1.9,1.1C-68.3,243.4-67.8,243.1-67.4,242.5z"/>
		<path class="st2" d="M-63.2,241.9v-3.5c0-0.6,0-0.9-0.1-1s-0.3-0.2-0.6-0.2h-0.6v-0.4c0.5-0.1,0.9-0.2,1.3-0.3
			c0.3-0.1,0.8-0.2,1.2-0.4l0.1,0.1v0v1.3c0.6-0.6,1.1-0.9,1.2-1.1c0.3-0.2,0.6-0.3,1-0.3c0.9,0,1.5,0.2,1.9,0.7
			c0.2,0.2,0.4,0.5,0.5,0.8c0.7-0.6,1.2-1,1.4-1.2c0.3-0.2,0.6-0.3,1-0.3c0.9,0,1.5,0.2,1.9,0.7c0.4,0.5,0.6,1.1,0.6,2v3.1
			c0,0.5,0,0.8,0.1,1c0.1,0.1,0.3,0.2,0.6,0.2l0.6,0v0.5c-0.5,0-1,0-1.3,0c-0.4,0-0.8,0-1.3,0v-0.5v-4c0-0.7-0.1-1.2-0.4-1.5
			c-0.3-0.4-0.7-0.5-1.2-0.5c-0.5,0-0.9,0.2-1.3,0.5c-0.2,0.1-0.3,0.3-0.4,0.5c0,0.1-0.1,0.1-0.1,0.2c0,0.1,0,0.2,0,0.3v3.3
			c0,0.5,0,0.8,0.1,1c0.1,0.1,0.3,0.2,0.6,0.2l0.6,0v0.5c-0.8,0-1.4,0-2,0s-1.2,0-2,0v-0.5l0.6,0c0.3,0,0.5-0.1,0.6-0.2
			c0.1-0.1,0.1-0.5,0.1-1v-2.8c0-0.7-0.1-1.2-0.4-1.6c-0.3-0.4-0.7-0.5-1.2-0.5c-0.5,0-0.9,0.2-1.3,0.5c-0.2,0.1-0.3,0.3-0.4,0.5
			c0,0.1-0.1,0.2-0.1,0.3c0,0.1,0,0.2,0,0.3v3.3c0,0.5,0,0.8,0.1,1c0.1,0.1,0.3,0.2,0.5,0.2l0.6,0v0.5c-0.8,0-1.4,0-2,0
			c-0.6,0-1.2,0-2,0v-0.5l0.6,0c0.3,0,0.5-0.1,0.6-0.2C-63.2,242.7-63.2,242.4-63.2,241.9z"/>
	</g>
	<g class="st1">
		<path class="st2" d="M-44.2,247.6v-16h0.9v16H-44.2z"/>
	</g>
	<g class="st1">
		<path class="st2" d="M-35.5,241.9v-8.1c0-0.3,0-0.6-0.1-0.7c-0.1-0.1-0.2-0.1-0.4-0.1h-0.8v-0.5c0.5-0.1,0.9-0.1,1.3-0.2
			c0.3-0.1,0.8-0.2,1.2-0.4l0.1,0.1v0v5.4c0.7-0.6,1.1-1,1.3-1.1c0.3-0.2,0.7-0.3,1.2-0.3c0.9,0,1.6,0.2,2,0.7
			c0.4,0.5,0.7,1.2,0.7,2.1v3c0,0.5,0,0.8,0.1,1c0.1,0.1,0.2,0.2,0.5,0.2l0.6,0v0.5c-0.5,0-0.9,0-1.3,0c-0.4,0-0.8,0-1.3,0v-0.5
			v-3.9c0-0.7-0.2-1.2-0.5-1.6c-0.3-0.4-0.8-0.6-1.4-0.6c-0.5,0-1,0.2-1.4,0.5c-0.2,0.1-0.3,0.3-0.4,0.5c-0.1,0.1-0.1,0.2-0.1,0.3
			c0,0.1,0,0.2,0,0.3v3.3c0,0.5,0,0.8,0.1,1c0.1,0.1,0.3,0.2,0.6,0.2l0.6,0v0.5c-0.8,0-1.4,0-2,0s-1.2,0-2,0v-0.5l0.6,0
			c0.3,0,0.5-0.1,0.6-0.2C-35.5,242.7-35.5,242.4-35.5,241.9z"/>
		<path class="st2" d="M-24.2,243.7c-0.7,0-1.1-0.1-1.4-0.4c-0.2-0.3-0.4-0.8-0.4-1.5v-4.4l-1.2,0.1v-0.3l0.3-0.1l1-0.4V236
			c0-0.4,0-0.8,0-1.2s0-0.6-0.1-0.6l1.4-0.6l0.2,0.2c0,0.3-0.1,0.6-0.1,1.1c0,0.5,0,0.9,0,1.3v0.5h0l2.2-0.1l-0.1,0.9h-0.8h-1.3v4.2
			c0,0.4,0.1,0.6,0.2,0.8c0.1,0.2,0.3,0.3,0.6,0.3c0.2,0,0.3,0,0.5-0.1c0.2-0.1,0.3-0.1,0.5-0.2l0.2,0.3l-0.8,0.9
			c-0.1,0-0.2,0.1-0.4,0.1C-24,243.7-24.1,243.7-24.2,243.7z"/>
		<path class="st2" d="M-19,243.7c-0.7,0-1.1-0.1-1.4-0.4c-0.2-0.3-0.4-0.8-0.4-1.5v-4.4l-1.2,0.1v-0.3l0.3-0.1l1-0.4V236
			c0-0.4,0-0.8,0-1.2c0-0.3,0-0.6-0.1-0.6l1.4-0.6l0.2,0.2c0,0.3-0.1,0.6-0.1,1.1c0,0.5,0,0.9,0,1.3v0.5h0l2.2-0.1l-0.1,0.9h-0.8
			h-1.3v4.2c0,0.4,0.1,0.6,0.2,0.8c0.1,0.2,0.3,0.3,0.6,0.3c0.2,0,0.3,0,0.5-0.1c0.2-0.1,0.3-0.1,0.5-0.2l0.2,0.3l-0.8,0.9
			c-0.1,0-0.2,0.1-0.4,0.1C-18.7,243.7-18.9,243.7-19,243.7z"/>
		<path class="st2" d="M-15.7,238.4c0-0.6,0-0.9-0.1-1s-0.3-0.2-0.6-0.2H-17v-0.4c0.5-0.1,0.9-0.2,1.3-0.3c0.3-0.1,0.8-0.2,1.2-0.4
			l0.1,0.1v0v1.4c0.7-0.7,1.2-1.1,1.5-1.3c0.3-0.2,0.8-0.3,1.4-0.3c0.9,0,1.7,0.3,2.3,0.9c0.6,0.6,0.9,1.4,0.9,2.3
			c0,0.5-0.2,1.1-0.5,1.8c-0.3,0.6-0.7,1.1-1.1,1.3l-1.5,1c-0.2,0.1-0.4,0.2-0.6,0.3c-0.2,0.1-0.4,0.1-0.7,0.1
			c-0.6,0-1.2-0.1-1.8-0.4v3c0,0.5,0,0.8,0.1,1c0.1,0.1,0.3,0.2,0.6,0.2l0.6,0v0.5c-0.8,0-1.4,0-2,0s-1.2,0-2,0v-0.5l0.6,0
			c0.3,0,0.5-0.1,0.6-0.2c0.1-0.1,0.1-0.5,0.1-1V238.4z M-12.1,242.9c0.7,0,1.3-0.3,1.7-0.9c0.5-0.6,0.7-1.3,0.7-2.2
			c0-0.8-0.2-1.5-0.7-2c-0.4-0.5-1.1-0.7-1.8-0.7c-0.5,0-0.9,0.1-1.3,0.3c-0.4,0.2-0.7,0.6-0.9,1v3.6c0.2,0.2,0.4,0.4,0.8,0.6
			C-13.2,242.8-12.6,242.9-12.1,242.9z"/>
		<path class="st2" d="M-5.5,236.2c0.3,0,0.5,0.1,0.7,0.3c0.2,0.2,0.3,0.4,0.3,0.7c0,0.3-0.1,0.5-0.3,0.7c-0.2,0.2-0.4,0.3-0.7,0.3
			c-0.3,0-0.5-0.1-0.7-0.3c-0.2-0.2-0.3-0.4-0.3-0.7c0-0.3,0.1-0.5,0.3-0.7C-6,236.3-5.8,236.2-5.5,236.2z M-5.5,241.8
			c0.3,0,0.5,0.1,0.7,0.3c0.2,0.2,0.3,0.4,0.3,0.7c0,0.3-0.1,0.5-0.3,0.7c-0.2,0.2-0.4,0.3-0.7,0.3c-0.3,0-0.5-0.1-0.7-0.3
			c-0.2-0.2-0.3-0.4-0.3-0.7c0-0.3,0.1-0.5,0.3-0.7C-6,241.9-5.8,241.8-5.5,241.8z"/>
		<path class="st2" d="M4.8,231.9l-6,13.5h-1l6-13.5H4.8z"/>
		<path class="st2" d="M10.9,231.9l-6,13.5h-1l6-13.5H10.9z"/>
		<path class="st2" d="M15.2,243.7c-0.9,0-1.7-0.3-2.3-1c-0.6-0.6-0.9-1.5-0.9-2.5c0-0.7,0.1-1.3,0.4-1.8c0.3-0.5,0.6-1,1.1-1.3
			c0.2-0.2,0.5-0.3,0.8-0.5c0.3-0.2,0.5-0.3,0.6-0.4c0.2-0.1,0.3-0.2,0.6-0.2c0.2-0.1,0.4-0.1,0.7-0.1c0.6,0,1.2,0.1,1.7,0.3
			l0.5,0.2l0.8-0.5l0.3,0.2c-0.1,0.2-0.2,0.6-0.3,1.1c-0.1,0.5-0.1,1.1-0.1,1.7v7.4c0,0.5,0,0.8,0.1,1c0.1,0.1,0.3,0.2,0.6,0.2
			l0.7,0v0.5c-0.8,0-1.5,0-2.1,0s-1.3,0-2.1,0v-0.5l0.7,0c0.4,0,0.6-0.1,0.7-0.2c0.1-0.1,0.1-0.5,0.1-1v-3.9
			c-1.1,0.7-1.6,1.1-1.8,1.2C15.9,243.7,15.6,243.7,15.2,243.7z M15.7,236.8c-0.7,0-1.3,0.2-1.7,0.7c-0.4,0.5-0.6,1.1-0.6,2
			c0,1.1,0.2,1.9,0.7,2.5c0.4,0.6,1,0.9,1.8,0.9c0.3,0,0.7-0.1,1.1-0.3c0.4-0.2,0.6-0.5,0.8-0.8v-4.3c-0.2-0.1-0.4-0.3-0.6-0.4
			C16.7,236.9,16.2,236.8,15.7,236.8z"/>
		<path class="st2" d="M23.4,236.2v4.8c0,0.7,0.1,1.2,0.4,1.5c0.3,0.3,0.7,0.4,1.4,0.4c0.5,0,1-0.2,1.4-0.6c0.2-0.2,0.4-0.4,0.5-0.7
			c0-0.1,0.1-0.2,0.1-0.3c0-0.1,0-0.2,0-0.3v-2.6c0-0.6,0-0.9-0.1-1s-0.3-0.2-0.6-0.2h-0.6v-0.4c0.5-0.1,0.9-0.2,1.3-0.3
			c0.3-0.1,0.8-0.2,1.2-0.4l0.1,0.1v0v5.7c0,0.5,0,0.8,0.1,1c0.1,0.1,0.2,0.2,0.5,0.2l0.6,0v0.5c-0.5,0-1,0-1.3,0
			c-0.4,0-0.8,0-1.3,0c0-0.3,0-0.5,0.1-0.8l0-0.7c-0.8,0.7-1.3,1.2-1.5,1.3c-0.4,0.2-0.8,0.4-1.4,0.4c-0.8,0-1.3-0.2-1.7-0.5
			c-0.3-0.4-0.5-1-0.5-1.8v-3.2c0-0.6,0-0.9-0.1-1s-0.3-0.2-0.6-0.2h-0.6v-0.4c0.5-0.1,0.9-0.2,1.3-0.3c0.3-0.1,0.8-0.2,1.2-0.4
			L23.4,236.2L23.4,236.2z"/>
		<path class="st2" d="M31.8,241.9v-3.5c0-0.6,0-0.9-0.1-1s-0.3-0.2-0.6-0.2h-0.6v-0.4c0.5-0.1,0.9-0.2,1.3-0.3
			c0.3-0.1,0.8-0.2,1.2-0.4l0.1,0.1v0v5.7c0,0.5,0,0.8,0.1,1c0.1,0.1,0.3,0.2,0.6,0.2l0.7,0v0.5c-0.8,0-1.4,0-2,0c-0.6,0-1.2,0-2,0
			v-0.5l0.6,0c0.3,0,0.5-0.1,0.6-0.2C31.7,242.7,31.8,242.4,31.8,241.9z M32.4,232.6c0.2,0,0.5,0.1,0.6,0.3c0.2,0.2,0.3,0.4,0.3,0.6
			c0,0.2-0.1,0.5-0.3,0.6c-0.2,0.2-0.4,0.3-0.6,0.3c-0.2,0-0.5-0.1-0.6-0.3c-0.2-0.2-0.3-0.4-0.3-0.6c0-0.3,0.1-0.5,0.3-0.6
			C31.9,232.7,32.1,232.6,32.4,232.6z"/>
		<path class="st2" d="M37.4,242c0,0.2,0.1,0.4,0.3,0.5c0.2,0.1,0.5,0.2,0.9,0.2H41c0.7,0,1.2,0.2,1.5,0.5c0.4,0.3,0.5,0.8,0.5,1.4
			c0,1-0.4,1.8-1.3,2.5c-0.8,0.7-1.9,1-3.1,1c-1,0-1.8-0.2-2.4-0.7c-0.7-0.5-1-1-1-1.7c0-0.6,0.1-0.9,0.3-1.1
			c0.2-0.2,0.7-0.5,1.6-0.9c-0.2,0-0.3-0.1-0.5-0.2c-0.4-0.2-0.6-0.5-0.6-0.8c0-0.3,0.1-0.4,0.2-0.6c0.1-0.1,0.5-0.5,1.3-1
			c-0.5-0.1-0.9-0.3-1.2-0.5c-0.5-0.4-0.7-1-0.7-1.7c0-0.8,0.3-1.4,1-2c0.7-0.6,1.5-0.8,2.4-0.8h0c0.8,0,1.5,0.2,2,0.6l0.1,0.1
			l2.4-0.1l0.1,0.2l-0.4,0.7h-1.5c0.1,0.2,0.2,0.5,0.2,0.8c0,0.8-0.3,1.5-1,2c-0.7,0.6-1.5,0.8-2.4,0.8h0l-0.3,0
			c-0.2,0.2-0.4,0.3-0.5,0.5C37.5,241.8,37.4,241.9,37.4,242z M36.5,245.6c0,0.5,0.2,1,0.7,1.4s1,0.6,1.7,0.6c0.8,0,1.5-0.2,2.1-0.7
			c0.6-0.5,0.9-1,0.9-1.7c0-0.4-0.2-0.8-0.5-1c-0.3-0.2-0.8-0.3-1.4-0.3h-1.6c-0.2,0-0.3,0-0.5,0c-0.2,0-0.3,0.1-0.4,0.1
			c-0.3,0.1-0.5,0.3-0.6,0.5C36.6,244.8,36.5,245.2,36.5,245.6z M38.6,236.6c-0.5,0-0.9,0.2-1.2,0.5c-0.3,0.3-0.4,0.8-0.4,1.3
			c0,0.7,0.2,1.2,0.5,1.6c0.3,0.4,0.8,0.6,1.3,0.6h0c0.5,0,0.9-0.2,1.2-0.5c0.3-0.3,0.4-0.8,0.4-1.4c0-0.6-0.2-1.2-0.5-1.6
			C39.6,236.8,39.2,236.6,38.6,236.6L38.6,236.6z"/>
		<path class="st2" d="M45.4,241.9v-8.1c0-0.3,0-0.6-0.1-0.7c-0.1-0.1-0.2-0.1-0.4-0.1h-0.8v-0.5c0.5-0.1,0.9-0.1,1.3-0.2
			c0.3-0.1,0.8-0.2,1.2-0.4l0.1,0.1v0v9.8c0,0.5,0,0.8,0.1,1c0.1,0.1,0.3,0.2,0.6,0.2l0.7,0v0.5c-0.8,0-1.4,0-2,0s-1.2,0-2,0v-0.5
			l0.6,0c0.3,0,0.5-0.1,0.6-0.2C45.3,242.7,45.4,242.4,45.4,241.9z"/>
		<path class="st2" d="M52.4,243.9c-1.1,0-2-0.3-2.6-1c-0.6-0.7-1-1.6-1-2.7c0-0.7,0.1-1.3,0.3-1.8c0.2-0.5,0.5-0.9,0.8-1.2
			c0.2-0.2,0.4-0.3,0.6-0.4c0.2-0.1,0.4-0.2,0.6-0.3c0.3-0.1,0.5-0.2,0.8-0.3c0.2-0.1,0.4-0.1,0.6-0.1h0c0.9,0,1.7,0.3,2.2,0.8
			c0.5,0.5,0.8,1.2,0.8,2.1v0.2v0.5c-0.2,0-0.6,0.1-1.3,0.1s-1.2,0.1-1.6,0.1h-2.4c0,1,0.3,1.8,0.7,2.3c0.5,0.6,1.2,0.9,2.1,0.9
			c0.3,0,0.6-0.1,1-0.2c0.4-0.1,0.7-0.3,1-0.6l0.2,0.2L55,243c-0.4,0.3-0.8,0.5-1.3,0.6C53.3,243.8,52.8,243.9,52.4,243.9z
			 M54.1,239.3c0-0.9-0.1-1.5-0.4-2c-0.3-0.5-0.7-0.7-1.3-0.7h0c-0.7,0-1.2,0.3-1.6,0.8c-0.3,0.5-0.5,1.1-0.6,1.9
			c0.7,0,1.3,0.1,1.9,0.1C52.7,239.3,53.4,239.3,54.1,239.3z"/>
		<path class="st2" d="M63.3,237.9l-3.7,8.4c-0.3,0.7-0.7,1.2-1,1.5c-0.3,0.3-0.7,0.4-1.2,0.4c-0.4,0-0.7-0.1-0.9-0.3l0.4-1.2H57
			c0.2,0.3,0.5,0.4,0.9,0.4c0.2,0,0.4-0.1,0.6-0.3c0.2-0.2,0.4-0.4,0.6-0.8l1-2.2v0l-2.1-5.2c-0.4-0.9-0.6-1.4-0.8-1.6
			c-0.1-0.2-0.3-0.3-0.5-0.4l-0.5,0v-0.5c0.7,0,1.3,0,1.8,0c0.5,0,1.1,0,1.9,0v0.5l-0.6,0c-0.3,0-0.5,0.1-0.5,0.2
			c0,0.1,0.1,0.5,0.3,1l1.8,4.3h0l1.5-3.6c0.3-0.8,0.5-1.3,0.5-1.5c0-0.2-0.2-0.3-0.5-0.3l-0.7,0v-0.5c0.6,0,1.1,0,1.5,0
			c0.4,0,0.9,0,1.5,0v0.5l-0.5,0c-0.2,0-0.4,0.1-0.5,0.2C63.7,237.1,63.5,237.4,63.3,237.9z"/>
		<path class="st2" d="M66.9,241.8c0.3,0,0.5,0.1,0.7,0.3c0.2,0.2,0.3,0.4,0.3,0.7c0,0.3-0.1,0.5-0.3,0.7c-0.2,0.2-0.4,0.3-0.7,0.3
			c-0.3,0-0.5-0.1-0.7-0.3c-0.2-0.2-0.3-0.4-0.3-0.7c0-0.3,0.1-0.5,0.3-0.7C66.5,241.9,66.7,241.8,66.9,241.8z"/>
		<path class="st2" d="M75.6,242.8l-0.4,0.6c-0.3,0.2-0.7,0.3-1,0.4c-0.3,0.1-0.7,0.1-1.1,0.1c-1.1,0-2-0.3-2.7-1
			c-0.7-0.7-1-1.6-1-2.7c0-0.6,0.1-1.1,0.4-1.7c0.2-0.5,0.6-1,1-1.3c0.2-0.1,0.4-0.3,0.6-0.4c0.2-0.1,0.5-0.3,0.7-0.4
			c0.3-0.1,0.6-0.2,0.8-0.3c0.3-0.1,0.5-0.1,0.7-0.1c0.3,0,0.7,0.1,1.1,0.2c0.4,0.1,0.7,0.2,0.9,0.4c-0.1,0.4-0.2,0.7-0.2,1
			c0,0.3-0.1,0.6-0.1,1h-0.5l-0.1-0.8c0-0.1,0-0.1,0-0.2c0,0-0.1-0.1-0.1-0.1c-0.2-0.2-0.4-0.3-0.6-0.4c-0.3-0.1-0.6-0.2-0.9-0.2
			c-0.7,0-1.3,0.2-1.7,0.7c-0.4,0.5-0.6,1.1-0.6,1.9c0,1.1,0.3,2,0.8,2.7s1.3,1,2.2,1c0.3,0,0.5,0,0.8-0.1c0.3-0.1,0.6-0.2,0.8-0.4
			L75.6,242.8z"/>
		<path class="st2" d="M77.6,242.8c-0.7-0.7-1-1.7-1-2.9c0-1.1,0.4-2.1,1.1-2.8c0.8-0.7,1.7-1.1,2.9-1.1c1.1,0,2,0.3,2.6,1
			c0.7,0.7,1,1.5,1,2.6c0,1.2-0.4,2.3-1.1,3c-0.8,0.8-1.7,1.2-2.9,1.2C79.2,243.9,78.3,243.5,77.6,242.8z M82.2,242.5
			c0.4-0.6,0.6-1.3,0.6-2.3c0-1.1-0.2-2-0.7-2.7c-0.5-0.7-1.1-1-1.9-1c-0.7,0-1.2,0.2-1.6,0.7c-0.4,0.5-0.6,1.2-0.6,2
			c0,1.2,0.2,2.2,0.7,2.9c0.5,0.7,1.1,1.1,1.9,1.1C81.3,243.4,81.8,243.1,82.2,242.5z"/>
		<path class="st2" d="M86.4,241.9v-3.5c0-0.6,0-0.9-0.1-1s-0.3-0.2-0.6-0.2h-0.6v-0.4c0.5-0.1,0.9-0.2,1.3-0.3
			c0.3-0.1,0.8-0.2,1.2-0.4l0.1,0.1v0v1.3c0.6-0.6,1.1-0.9,1.2-1.1c0.3-0.2,0.6-0.3,1-0.3c0.9,0,1.5,0.2,1.9,0.7
			c0.2,0.2,0.4,0.5,0.5,0.8c0.7-0.6,1.2-1,1.4-1.2c0.3-0.2,0.6-0.3,1-0.3c0.9,0,1.5,0.2,1.9,0.7c0.4,0.5,0.6,1.1,0.6,2v3.1
			c0,0.5,0,0.8,0.1,1c0.1,0.1,0.3,0.2,0.6,0.2l0.7,0v0.5c-0.5,0-1,0-1.3,0c-0.4,0-0.8,0-1.3,0v-0.5v-4c0-0.7-0.1-1.2-0.4-1.5
			c-0.3-0.4-0.7-0.5-1.2-0.5c-0.5,0-0.9,0.2-1.3,0.5c-0.2,0.1-0.3,0.3-0.4,0.5c0,0.1-0.1,0.1-0.1,0.2c0,0.1,0,0.2,0,0.3v3.3
			c0,0.5,0,0.8,0.1,1c0.1,0.1,0.3,0.2,0.6,0.2l0.7,0v0.5c-0.8,0-1.4,0-2,0c-0.6,0-1.2,0-2,0v-0.5l0.6,0c0.3,0,0.5-0.1,0.6-0.2
			c0.1-0.1,0.1-0.5,0.1-1v-2.8c0-0.7-0.1-1.2-0.4-1.6c-0.3-0.4-0.7-0.5-1.2-0.5c-0.5,0-0.9,0.2-1.3,0.5c-0.2,0.1-0.3,0.3-0.4,0.5
			c0,0.1-0.1,0.2-0.1,0.3c0,0.1,0,0.2,0,0.3v3.3c0,0.5,0,0.8,0.1,1c0.1,0.1,0.3,0.2,0.5,0.2l0.6,0v0.5c-0.8,0-1.4,0-2,0
			c-0.6,0-1.2,0-2,0v-0.5l0.7,0c0.3,0,0.5-0.1,0.6-0.2C86.4,242.7,86.4,242.4,86.4,241.9z"/>
	</g>
	<g class="st1">
		<path class="st2" d="M105.3,247.6v-16h0.9v16H105.3z"/>
	</g>
	<g class="st1">
		<path class="st2" d="M113.6,243.6l-0.1-0.1c0.2-0.4,0.5-0.9,1.1-1.8c0.6-0.9,1.2-1.9,1.8-2.9c0.8-1.2,1.4-2.3,1.9-3.2l0.3-0.6
			h-3.8c-0.3,0-0.5,0.1-0.6,0.2c-0.1,0.1-0.2,0.4-0.2,0.8l-0.1,0.8h-0.4c0-0.6,0.1-1.1,0.1-1.5c0-0.4,0-0.9-0.1-1.5
			c1.2,0,2.3,0.1,3.2,0.1c0.9,0,2,0,3.2-0.1v0.2v0.2c0,0.1-0.3,0.5-0.7,1.3c-0.4,0.8-1,1.8-1.6,2.9c-0.5,0.8-0.9,1.7-1.3,2.5
			c-0.3,0.5-0.5,1-0.7,1.6c-0.2,0.5-0.4,0.9-0.5,1.2c-0.3,0-0.5,0-0.7,0C114.1,243.6,113.8,243.6,113.6,243.6z"/>
		<path class="st2" d="M120.9,242.5c-0.5-0.9-0.7-2.2-0.7-3.8c0-1.6,0.3-2.9,0.9-3.7c0.6-0.8,1.4-1.3,2.5-1.3c0.9,0,1.7,0.4,2.1,1.2
			c0.5,0.8,0.7,1.9,0.7,3.5c0,1.8-0.3,3.1-0.9,4.1c-0.6,0.9-1.4,1.4-2.5,1.4C122.1,243.8,121.4,243.4,120.9,242.5z M124.7,242.2
			c0.3-0.8,0.5-1.9,0.5-3.5c0-1.5-0.2-2.7-0.5-3.4c-0.3-0.7-0.8-1.1-1.5-1.1c-0.6,0-1.1,0.3-1.4,1c-0.3,0.7-0.5,1.7-0.5,3.1
			c0,1.7,0.2,2.9,0.5,3.7c0.3,0.8,0.8,1.2,1.4,1.2C123.9,243.4,124.4,243,124.7,242.2z"/>
		<path class="st2" d="M127,241l-0.1-0.2l-0.1-0.2l4-6.6l1.1-0.4l0.2,0.1c0,0.2,0,0.5-0.1,0.8c0,0.3,0,0.6,0,0.9v4.6h0.4
			c0.3,0,0.5,0,0.7,0s0.4,0,0.4,0v1c-0.1,0-0.2,0-0.4,0c-0.2,0-0.5,0-0.7,0h-0.4v0.8c0,0.6,0,0.9,0.1,1.1c0.1,0.1,0.3,0.2,0.7,0.2
			l0.8,0v0.4c-0.9,0-1.6,0-2.3,0s-1.4,0-2.3,0v-0.4l0.9,0c0.4,0,0.7-0.1,0.8-0.2s0.1-0.5,0.1-1.1V241H127z M130.9,240.1v-5l-1.4,2.3
			c-0.5,0.8-1,1.7-1.6,2.7H130.9z"/>
		<path class="st2" d="M135.8,242c0.2,0,0.4,0.1,0.6,0.2c0.2,0.2,0.2,0.4,0.2,0.6s-0.1,0.4-0.2,0.6c-0.2,0.2-0.4,0.2-0.6,0.2
			c-0.2,0-0.4-0.1-0.6-0.2c-0.2-0.2-0.2-0.4-0.2-0.6s0.1-0.4,0.2-0.6C135.4,242,135.6,242,135.8,242z"/>
		<path class="st2" d="M142.4,236.4c0-0.5-0.2-0.9-0.5-1.2c-0.3-0.3-0.7-0.5-1.2-0.5c-0.4,0-0.7,0.1-1,0.3c-0.2,0.1-0.4,0.3-0.6,0.4
			c0,0.1-0.1,0.1-0.1,0.2c0,0.1-0.1,0.2-0.1,0.3l-0.2,0.5h-0.4l0.4-1.8c0.3-0.3,0.6-0.5,1-0.7s0.9-0.3,1.4-0.3
			c0.7,0,1.3,0.2,1.8,0.6c0.5,0.4,0.7,0.9,0.7,1.5c0,0.6-0.3,1.3-1,1.9c-0.2,0.2-0.4,0.3-0.6,0.5c0.6,0.1,1.1,0.3,1.5,0.5
			c0.5,0.4,0.8,0.9,0.8,1.6c0,0.9-0.4,1.7-1.3,2.4s-1.8,1.1-2.8,1.1c-0.3,0-0.6,0-0.9-0.1s-0.6-0.2-0.8-0.3
			c-0.1-0.4-0.2-0.8-0.2-1.1s-0.2-0.6-0.3-1l0.4-0.2l0.1,0.3c0.1,0.3,0.2,0.5,0.3,0.6s0.2,0.3,0.3,0.4c0.2,0.2,0.4,0.3,0.6,0.4
			c0.4,0.2,0.8,0.3,1.3,0.3c0.6,0,1.1-0.2,1.5-0.7c0.4-0.4,0.6-1,0.6-1.7c0-0.6-0.2-1.1-0.5-1.5c-0.3-0.4-0.8-0.6-1.4-0.6
			c-0.2,0-0.4,0-0.7,0.1c-0.2,0.1-0.3,0.1-0.5,0.2l-0.1-0.1l0.2-0.8c0.1,0,0.3,0.1,0.5,0.1c0.2,0,0.3,0,0.4,0
			c0.3-0.1,0.6-0.2,0.8-0.4C142.1,237.5,142.4,237,142.4,236.4z"/>
		<path class="st2" d="M151.2,240c0,1-0.4,1.9-1.2,2.6c-0.8,0.8-1.8,1.2-2.9,1.2c-0.2,0-0.5,0-0.8-0.1c-0.3-0.1-0.5-0.1-0.8-0.2
			c-0.1-0.4-0.2-0.7-0.3-1c-0.1-0.3-0.2-0.6-0.4-0.9l0.4-0.2l0.6,1c0.1,0.2,0.2,0.3,0.3,0.4s0.2,0.1,0.3,0.2l0.4,0.1
			c0.2,0.1,0.5,0.1,0.8,0.1c0.8,0,1.4-0.2,1.8-0.7s0.7-1,0.7-1.8c0-0.8-0.2-1.4-0.6-1.9c-0.4-0.5-0.9-0.7-1.6-0.7
			c-0.4,0-0.7,0.1-1,0.2c-0.3,0.2-0.6,0.4-0.8,0.7l-0.3-0.1c0.1-1,0.1-1.9,0.1-2.6c0-0.7,0-1.6,0-2.5c0-0.1,0-0.1,0.1-0.1
			c1,0,1.8,0,2.5,0c0.7,0,1.5,0,2.5,0l0.1,0.1v1.1l-0.1,0.1l-2.5,0l-1.9-0.1l-0.1,3c0.1-0.1,0.2-0.2,0.4-0.3c0.5-0.3,1-0.5,1.6-0.5
			c0.9,0,1.6,0.2,2.1,0.7C151,238.5,151.2,239.2,151.2,240z"/>
		<path class="st2" d="M152.6,236.3c0-0.7,0.3-1.3,0.8-1.8c0.5-0.5,1.2-0.7,1.9-0.7c0.9,0,1.5,0.2,2,0.6c0.5,0.4,0.7,0.9,0.7,1.6
			c0,0.5-0.2,1-0.7,1.4c-0.3,0.3-0.7,0.6-1.1,0.8c0.7,0.3,1.2,0.6,1.5,1c0.4,0.4,0.6,1,0.6,1.6c0,0.9-0.3,1.6-1,2.2
			c-0.6,0.6-1.4,0.9-2.3,0.9c-0.9,0-1.6-0.2-2.1-0.7c-0.5-0.5-0.8-1.1-0.8-1.9c0-0.6,0.3-1.2,0.8-1.7c0.3-0.3,0.7-0.6,1.2-0.8
			c-0.5-0.2-0.8-0.5-1.1-0.8C152.8,237.4,152.6,236.9,152.6,236.3z M153.3,241.2c0,0.7,0.2,1.2,0.5,1.6c0.4,0.4,0.8,0.6,1.4,0.6
			c0.7,0,1.2-0.2,1.6-0.6c0.4-0.4,0.6-0.9,0.6-1.6c0-0.5-0.2-0.9-0.7-1.3c-0.4-0.4-1.1-0.7-1.9-1c-0.4,0.2-0.7,0.5-0.9,0.8
			C153.5,240.1,153.3,240.6,153.3,241.2z M157.1,235.9c0-0.5-0.2-0.9-0.5-1.2c-0.3-0.3-0.7-0.5-1.2-0.5c-0.5,0-1,0.1-1.3,0.4
			c-0.3,0.3-0.5,0.7-0.5,1.2c0,0.4,0.2,0.8,0.6,1.1c0.4,0.3,0.9,0.7,1.7,0.9c0.3-0.2,0.5-0.4,0.7-0.6
			C156.9,236.9,157.1,236.5,157.1,235.9z"/>
		<path class="st2" d="M160.7,242c0.2,0,0.4,0.1,0.6,0.2s0.2,0.4,0.2,0.6s-0.1,0.4-0.2,0.6s-0.4,0.2-0.6,0.2s-0.4-0.1-0.6-0.2
			s-0.2-0.4-0.2-0.6s0.1-0.4,0.2-0.6S160.5,242,160.7,242z"/>
		<path class="st2" d="M163.3,236.3c0-0.7,0.3-1.3,0.8-1.8c0.5-0.5,1.2-0.7,1.9-0.7c0.9,0,1.5,0.2,2,0.6c0.5,0.4,0.7,0.9,0.7,1.6
			c0,0.5-0.2,1-0.7,1.4c-0.3,0.3-0.7,0.6-1.1,0.8c0.7,0.3,1.2,0.6,1.5,1c0.4,0.4,0.6,1,0.6,1.6c0,0.9-0.3,1.6-1,2.2
			c-0.6,0.6-1.4,0.9-2.3,0.9c-0.9,0-1.6-0.2-2.1-0.7c-0.5-0.5-0.8-1.1-0.8-1.9c0-0.6,0.3-1.2,0.8-1.7c0.3-0.3,0.7-0.6,1.2-0.8
			c-0.5-0.2-0.8-0.5-1.1-0.8C163.5,237.4,163.3,236.9,163.3,236.3z M164,241.2c0,0.7,0.2,1.2,0.5,1.6c0.4,0.4,0.8,0.6,1.4,0.6
			c0.7,0,1.2-0.2,1.6-0.6c0.4-0.4,0.6-0.9,0.6-1.6c0-0.5-0.2-0.9-0.7-1.3c-0.4-0.4-1.1-0.7-1.9-1c-0.4,0.2-0.7,0.5-0.9,0.8
			C164.1,240.1,164,240.6,164,241.2z M167.7,235.9c0-0.5-0.2-0.9-0.5-1.2c-0.3-0.3-0.7-0.5-1.2-0.5c-0.5,0-1,0.1-1.3,0.4
			c-0.3,0.3-0.5,0.7-0.5,1.2c0,0.4,0.2,0.8,0.6,1.1c0.4,0.3,0.9,0.7,1.7,0.9c0.3-0.2,0.5-0.4,0.7-0.6
			C167.6,236.9,167.7,236.5,167.7,235.9z"/>
		<path class="st2" d="M170.8,242.5c-0.5-0.9-0.7-2.2-0.7-3.8c0-1.6,0.3-2.9,0.9-3.7c0.6-0.8,1.4-1.3,2.5-1.3c0.9,0,1.7,0.4,2.1,1.2
			c0.5,0.8,0.7,1.9,0.7,3.5c0,1.8-0.3,3.1-0.9,4.1c-0.6,0.9-1.4,1.4-2.5,1.4C172,243.8,171.3,243.4,170.8,242.5z M174.6,242.2
			c0.3-0.8,0.5-1.9,0.5-3.5c0-1.5-0.2-2.7-0.5-3.4c-0.3-0.7-0.8-1.1-1.5-1.1c-0.6,0-1.1,0.3-1.4,1c-0.3,0.7-0.5,1.7-0.5,3.1
			c0,1.7,0.2,2.9,0.5,3.7s0.8,1.2,1.4,1.2C173.8,243.4,174.3,243,174.6,242.2z"/>
		<path class="st2" d="M181.5,236.4c0-0.5-0.2-0.9-0.5-1.2c-0.3-0.3-0.7-0.5-1.2-0.5c-0.4,0-0.7,0.1-1,0.3c-0.2,0.1-0.4,0.3-0.6,0.4
			c0,0.1-0.1,0.1-0.1,0.2c0,0.1-0.1,0.2-0.1,0.3l-0.2,0.5h-0.4l0.4-1.8c0.3-0.3,0.6-0.5,1-0.7c0.4-0.2,0.9-0.3,1.4-0.3
			c0.7,0,1.3,0.2,1.8,0.6c0.5,0.4,0.7,0.9,0.7,1.5c0,0.6-0.3,1.3-1,1.9c-0.2,0.2-0.4,0.3-0.6,0.5c0.6,0.1,1.1,0.3,1.5,0.5
			c0.5,0.4,0.8,0.9,0.8,1.6c0,0.9-0.4,1.7-1.3,2.4c-0.8,0.7-1.8,1.1-2.8,1.1c-0.3,0-0.6,0-0.9-0.1c-0.3-0.1-0.6-0.2-0.8-0.3
			c-0.1-0.4-0.2-0.8-0.2-1.1c-0.1-0.3-0.2-0.6-0.3-1l0.4-0.2l0.1,0.3c0.1,0.3,0.2,0.5,0.3,0.6s0.2,0.3,0.3,0.4
			c0.2,0.2,0.4,0.3,0.6,0.4c0.4,0.2,0.8,0.3,1.3,0.3c0.6,0,1.1-0.2,1.5-0.7c0.4-0.4,0.6-1,0.6-1.7c0-0.6-0.2-1.1-0.5-1.5
			c-0.3-0.4-0.8-0.6-1.4-0.6c-0.2,0-0.4,0-0.7,0.1c-0.2,0.1-0.3,0.1-0.5,0.2l-0.1-0.1l0.2-0.8c0.1,0,0.3,0.1,0.5,0.1
			c0.2,0,0.3,0,0.4,0c0.3-0.1,0.6-0.2,0.8-0.4C181.3,237.5,181.5,237,181.5,236.4z"/>
		<path class="st2" d="M185,242.5c-0.5-0.9-0.7-2.2-0.7-3.8c0-1.6,0.3-2.9,0.9-3.7c0.6-0.8,1.4-1.3,2.5-1.3c0.9,0,1.7,0.4,2.1,1.2
			c0.5,0.8,0.7,1.9,0.7,3.5c0,1.8-0.3,3.1-0.9,4.1c-0.6,0.9-1.4,1.4-2.5,1.4C186.2,243.8,185.5,243.4,185,242.5z M188.9,242.2
			c0.3-0.8,0.5-1.9,0.5-3.5c0-1.5-0.2-2.7-0.5-3.4c-0.3-0.7-0.8-1.1-1.5-1.1c-0.6,0-1.1,0.3-1.4,1c-0.3,0.7-0.5,1.7-0.5,3.1
			c0,1.7,0.2,2.9,0.5,3.7c0.3,0.8,0.8,1.2,1.4,1.2C188,243.4,188.5,243,188.9,242.2z"/>
	</g>
	<path class="st3" d="M-230,21.2"/>
	<path class="st4" d="M180.5,54.5h-20v9.1h20V54.5z M190.5,63.7h-10v27.4h10V63.7z M180.5,91.1h-10v9.1h10V91.1z M170.6,100.2h-10
		v9.1h10V100.2z M180.5,109.3h-10v9.1h10V109.3z M150.6,100.2h10V63.7h-10V100.2z"/>
	<g class="st1">
		<path class="st2" d="M23.6,143c-1.8-0.2-3.3-1.1-4.5-2.5c-1.1-1.3-1.6-2.9-1.6-4.5c0-1.7,0.5-3.2,1.6-4.6c1.3-1.7,3.2-2.5,5.5-2.5
			c2.3,0,4.1,0.8,5.5,2.5c1.1,1.4,1.7,2.9,1.7,4.6c0,1.4-0.5,2.8-1.5,4.2c-1.2,1.6-2.7,2.5-4.5,2.8c0.7,1.2,1.4,1.9,1.9,2.2
			c0.6,0.4,1.4,0.6,2.4,0.6c0.4,0,0.8-0.1,1.2-0.4l0.1,0.5c-0.3,0.3-0.7,0.5-1.2,0.7c-0.5,0.2-1,0.3-1.3,0.3c-0.9,0-1.8-0.3-2.6-0.9
			C25.4,145.5,24.5,144.5,23.6,143z M19.4,136c0,1.9,0.5,3.4,1.4,4.5c0.9,1.1,2.2,1.6,3.8,1.6c1.3,0,2.5-0.5,3.5-1.5
			c1.2-1.2,1.7-2.7,1.7-4.6c0-2-0.5-3.6-1.5-4.7c-0.9-1-2.2-1.5-3.7-1.5c-1.6,0-2.8,0.5-3.7,1.5C19.9,132.4,19.4,134,19.4,136z"/>
		<path class="st2" d="M50.1,129.3l1.6-0.2v8.6c0,2.9,1.3,4.3,3.8,4.3c1.2,0,2.2-0.4,2.9-1.1c0.7-0.7,1-1.8,1-3.1v-8.5l1.6-0.2v8.8
			c0,1.6-0.5,2.9-1.5,3.8c-1,0.8-2.3,1.3-4,1.3c-1.7,0-3-0.4-3.9-1.3c-1-0.9-1.5-2.2-1.5-3.8V129.3z"/>
		<path class="st2" d="M80.1,129.3l1.6-0.2v13.6l-1.6,0.2V129.3z"/>
		<path class="st2" d="M111.4,130.1c0,0.1-0.1,0.5-0.3,1.1c-1.2-0.9-2.6-1.4-4-1.4c-1.6,0-2.8,0.5-3.8,1.6s-1.4,2.5-1.4,4.3
			c0,1.9,0.5,3.4,1.4,4.6c0.9,1.2,2.2,1.7,3.8,1.7c1.3,0,2.2-0.2,2.8-0.7v-4.9l1.6-0.2v6.1c-1.2,0.4-2.7,0.6-4.4,0.6
			c-2.1,0-3.9-0.7-5.2-2.2c-1.3-1.4-1.9-3.1-1.9-5.1c0-1.9,0.7-3.5,2.1-4.9c1.4-1.3,3.1-2,5-2C108.7,128.9,110.1,129.3,111.4,130.1z
			"/>
		<path class="st2" d="M132.1,141.8h5.9l-0.3,0.9h-7.2v-13.5l1.6-0.2V141.8z"/>
		<path class="st2" d="M157.5,135.4h4.7l-0.3,1h-4.5v5.5h5.8l-0.3,1h-7.1v-13.6h7.2l-0.3,1h-5.4V135.4z"/>
		<path class="st2" d="M184.6,135.4l-4.6-6.2l1.9-0.2l3.9,5.3l3.6-5.2l1.4-0.2l-4.6,6.5v7.1l-1.6,0.2V135.4z"/>
	</g>
</g>
</svg>
