<?xml version="1.0" encoding="utf-8"?>
<!-- Generator: Adobe Illustrator 22.1.0, SVG Export Plug-In . SVG Version: 6.00 Build 0)  -->
<svg version="1.1" id="Layer_1" xmlns="http://www.w3.org/2000/svg" xmlns:xlink="http://www.w3.org/1999/xlink" x="0px" y="0px"
	 viewBox="0 0 328 176" style="enable-background:new 0 0 328 176;" xml:space="preserve">
<style type="text/css">
	.st0{opacity:0.9;}
	.st1{fill:#FFFFFF;}
	.st2{fill:none;}
	.st3{fill-rule:evenodd;clip-rule:evenodd;fill:#6D6E71;}
	.st4{fill:#E97E98;}
</style>
<g class="st0">
	<path class="st1" d="M130.3,124.4"/>
	<g>
		<path class="st2" d="M130.3,58.3"/>
	</g>
	<g>
		<path class="st2" d="M130.3,62.9"/>
	</g>
	<path class="st3" d="M55.1,132c3.9,2.7,6.5-2.2,3.7-4.1c-3.2-2.3-6.4-4.7-9.4-7.3c-1.8-1.5-1.6-4-0.3-5.5l10.6-11.6
		C56.3,100.4,53,97,50,93.4c-2.3,3.7-4.6,7.6-6.7,11.5c-4.1,1.7-8.3,3.3-12.6,4.7C37.8,118.1,46,125.6,55.1,132L55.1,132z
		 M70.4,96.1c8.3,7.1,17.8,12.7,28,16.4c10.2,3.8,21,5.7,31.9,5.7c10.9,0,21.7-1.9,31.9-5.7c10.2-3.8,19.7-9.4,28-16.4
		c0.9-0.8,2.6-0.4,3.8,0.9l15.8,17.6c0,0,0,0.1,0,0.2c-0.1,0.1-0.1,0.1-0.2,0.1c-1-0.4-2.2-0.3-3,0.4c-10.5,9-22.6,16.1-35.6,20.9
		c-13,4.8-26.8,7.2-40.6,7.2c-13.8,0-27.7-2.4-40.6-7.2c-13-4.8-25.1-11.9-35.6-20.9c-0.8-0.7-2-0.8-3-0.4c-0.1,0-0.2,0-0.2-0.1
		c0-0.1-0.1-0.2,0-0.2L66.6,97C67.8,95.7,69.4,95.4,70.4,96.1L70.4,96.1L70.4,96.1z M210.1,120.5L210.1,120.5
		c1.5-1.2,1.2-2.9,0.3-3.8c-1-1-2.6-1.3-3.5-0.5c-3.5,3-7.2,5.7-11.1,8.3l3.9,5.9c0-1,0.4-2.1,1.5-2.9c0,0,0.1-0.1,0.1-0.1
		C204.3,125.1,207.3,122.9,210.1,120.5L210.1,120.5z M205.5,132c9-6.4,17.2-14,24.3-22.4c-4.3-1.4-8.5-3-12.6-4.7
		c-2.1-3.9-4.3-7.8-6.7-11.5c-3,3.6-6.3,7-9.8,10.1l10.6,11.6c1.3,1.5,1.5,4-0.3,5.5c-3,2.6-6.1,5-9.4,7.3
		C199,129.9,201.6,134.7,205.5,132L205.5,132L205.5,132z M50.4,120.5L50.4,120.5c-1.5-1.2-1.2-2.9-0.3-3.8c1-1,2.6-1.3,3.5-0.5
		c3.5,3,7.2,5.7,11.1,8.3l-3.9,5.9c0-1-0.4-2.1-1.5-2.9c0,0-0.1-0.1-0.1-0.1C56.2,125.1,53.3,122.9,50.4,120.5z"/>
	<g>
		<g>
			<path class="st1" d="M75,110.1c0.3,0.2,0.5,0.3,0.8,0.5c-0.4,2.3-0.7,4.7-1,7.1c2.1-1.3,4.1-2.6,6-4.1c0.3,0.2,0.6,0.3,0.8,0.5
				c-2.5,1.8-5.1,3.6-7.8,5.3c-0.1,0-0.1-0.1-0.2-0.1C74.1,116.1,74.5,113.1,75,110.1z"/>
			<path class="st1" d="M82.9,114.7c0.3,0.1,0.5,0.3,0.8,0.4c-1.3,2.5-2.7,5-4,7.4c-0.3-0.1-0.6-0.3-0.8-0.4
				C80.2,119.6,81.6,117.2,82.9,114.7z"/>
			<path class="st1" d="M81.6,123.5c1.3-2.5,2.6-5,3.9-7.5c0.1,0,0.1,0.1,0.2,0.1c0.8,2.8,1.7,5.6,2.8,8.3c0.9-2,1.7-3.9,2.6-5.9
				c0.3,0.1,0.5,0.2,0.8,0.3c-1.1,2.6-2.2,5.2-3.3,7.7c-0.1,0-0.1-0.1-0.2-0.1c-1.1-2.8-2.1-5.5-2.9-8.3c-1,1.9-1.9,3.8-2.9,5.7
				C82.2,123.8,81.9,123.7,81.6,123.5z"/>
			<path class="st1" d="M92.7,120.1c0.1-0.3,0.2-0.5,0.3-0.8c1.5,0.6,3,1.2,4.6,1.7c-0.1,0.3-0.2,0.5-0.3,0.8
				c-0.6-0.2-1.3-0.4-1.9-0.7c-0.9,2.4-1.8,4.7-2.7,7.1c-0.3-0.1-0.6-0.2-0.9-0.3c0.9-2.4,1.9-4.7,2.8-7.1
				C94,120.6,93.4,120.4,92.7,120.1z"/>
			<path class="st1" d="M102.3,122.5c0.5,3.1,1.2,6.1,1.9,9.2c-0.3-0.1-0.7-0.2-1-0.3c-0.2-1-0.5-2-0.7-3c-1.3-0.4-2.6-0.7-3.9-1.1
				c-0.8,0.7-1.5,1.5-2.3,2.2c-0.3-0.1-0.7-0.2-1-0.3c2.4-2.2,4.7-4.4,6.8-6.7C102.2,122.4,102.3,122.5,102.3,122.5z M101.7,124.2
				c-0.8,0.8-1.6,1.6-2.4,2.5c1,0.3,2,0.6,3.1,0.9C102.1,126.4,101.9,125.3,101.7,124.2z"/>
			<path class="st1" d="M115.9,126.8c-0.3,0.2-0.5,0.3-0.8,0.5c-0.4-0.5-0.9-1-1.5-1.3c-0.5-0.3-1.1-0.6-1.7-0.7
				c-0.7-0.1-1.4-0.1-2.1,0.1c-0.7,0.2-1.3,0.5-1.8,1c-0.5,0.5-0.8,1-0.9,1.6c-0.1,0.6-0.1,1.2,0.1,1.9c0.2,0.6,0.7,1.2,1.3,1.6
				c0.6,0.5,1.3,0.8,2.1,0.9c1,0.2,1.8,0.1,2.6-0.3c0.8-0.4,1.3-0.9,1.5-1.7c-1-0.1-2-0.3-3-0.5c0.1-0.3,0.1-0.5,0.2-0.8
				c1.3,0.2,2.6,0.4,4,0.6c-0.2,1.3-0.8,2.2-1.8,2.9c-1,0.6-2.2,0.8-3.7,0.5c-1.8-0.3-3-1.1-3.8-2.4c-0.6-1-0.7-2-0.5-3
				c0.2-0.8,0.6-1.4,1.2-2c0.6-0.6,1.3-1,2.1-1.2c0.8-0.2,1.7-0.3,2.6-0.1c0.7,0.1,1.4,0.4,2,0.7
				C114.8,125.7,115.4,126.2,115.9,126.8z"/>
			<path class="st1" d="M118.4,125.7c1.7,0.2,3.4,0.4,5.1,0.5c0,0.3,0,0.5-0.1,0.8c-1.4-0.1-2.8-0.2-4.2-0.4
				c-0.1,0.9-0.2,1.7-0.3,2.6c1.4,0.2,2.9,0.3,4.3,0.4c0,0.3,0,0.5-0.1,0.8c-1.5-0.1-2.9-0.2-4.4-0.4c-0.1,1.1-0.3,2.2-0.4,3.3
				c1.5,0.2,3,0.3,4.5,0.4c0,0.3,0,0.5-0.1,0.8c-1.8-0.1-3.7-0.3-5.5-0.5C117.6,131.3,118,128.5,118.4,125.7z"/>
			<path class="st1" d="M136.9,127.9c-0.2,0.2-0.5,0.4-0.7,0.5c-0.4-0.5-0.9-0.8-1.5-1c-0.6-0.2-1.2-0.3-1.8-0.3
				c-0.7,0-1.4,0.2-2,0.5c-0.6,0.3-1.1,0.7-1.5,1.3c-0.4,0.5-0.5,1.1-0.6,1.8c0,1,0.3,1.9,1.1,2.6c0.8,0.7,1.8,1,3,1
				c1.4,0,2.5-0.5,3.3-1.5c0.3,0.2,0.5,0.3,0.8,0.5c-0.4,0.6-1,1-1.7,1.3c-0.7,0.3-1.5,0.5-2.4,0.5c-1.7,0-3.1-0.5-4-1.5
				c-0.8-0.8-1.2-1.9-1.1-3c0-1.2,0.5-2.2,1.5-3.1c0.9-0.8,2.1-1.2,3.5-1.3c0.8,0,1.6,0.1,2.3,0.4
				C135.8,127,136.4,127.4,136.9,127.9z"/>
			<path class="st1" d="M138.6,126.3c0.3,0,0.6,0,0.9-0.1c0.2,2.5,0.4,5,0.6,7.6c1.2-0.1,2.5-0.2,3.7-0.4c0,0.3,0.1,0.5,0.1,0.8
				c-1.6,0.2-3.1,0.3-4.7,0.4C139,131.9,138.8,129.1,138.6,126.3z"/>
			<path class="st1" d="M148.4,124.9c1.3-0.2,2.5,0,3.6,0.6c1.1,0.6,1.8,1.6,2,2.8c0.3,1.2,0,2.3-0.7,3.4c-0.8,1-1.9,1.7-3.3,1.9
				c-1.4,0.2-2.7,0-3.8-0.7c-1.1-0.7-1.7-1.7-1.9-2.9c-0.1-0.8,0-1.6,0.3-2.3c0.3-0.7,0.8-1.3,1.5-1.8
				C146.9,125.3,147.6,125,148.4,124.9z M148.6,125.7c-0.7,0.1-1.3,0.4-1.8,0.8c-0.5,0.4-0.9,0.9-1.2,1.5c-0.3,0.6-0.3,1.2-0.3,1.9
				c0.1,1,0.6,1.8,1.5,2.3c0.9,0.6,1.9,0.8,3,0.6c0.7-0.1,1.4-0.4,1.9-0.8c0.6-0.4,1-0.9,1.2-1.6c0.2-0.6,0.3-1.2,0.1-1.9
				c-0.1-0.7-0.4-1.2-0.9-1.7c-0.4-0.5-1-0.8-1.7-1C150,125.6,149.3,125.6,148.6,125.7z"/>
			<path class="st1" d="M154.2,124.8c-0.1-0.3-0.1-0.5-0.2-0.8c1.6-0.4,3.2-0.7,4.7-1.2c0.1,0.3,0.2,0.5,0.2,0.8
				c-0.6,0.2-1.3,0.3-1.9,0.5c0.7,2.4,1.3,4.9,2,7.3c-0.3,0.1-0.6,0.2-1,0.2c-0.7-2.4-1.3-4.9-1.9-7.3
				C155.5,124.5,154.9,124.7,154.2,124.8z"/>
			<path class="st1" d="M160,122.5c0.3-0.1,0.6-0.2,0.9-0.2c0.3,1.1,0.7,2.2,1.1,3.4c1.5-0.4,3-0.9,4.5-1.4
				c-0.4-1.1-0.8-2.2-1.2-3.3c0.3-0.1,0.6-0.2,0.8-0.3c1,2.6,2,5.3,3,7.9c-0.3,0.1-0.6,0.2-0.9,0.3c-0.5-1.3-0.9-2.5-1.4-3.8
				c-1.5,0.5-3,1-4.5,1.4c0.4,1.3,0.8,2.6,1.2,3.9c-0.3,0.1-0.6,0.2-0.9,0.3C161.6,127.9,160.8,125.2,160,122.5z"/>
			<path class="st1" d="M167.9,119.9c0.3-0.1,0.6-0.2,0.8-0.3c1,2.6,2.1,5.2,3.2,7.8c-0.3,0.1-0.6,0.2-0.9,0.3
				C170,125.1,168.9,122.5,167.9,119.9z"/>
			<path class="st1" d="M174,126.5c-1.1-2.6-2.3-5.1-3.4-7.7c0.1,0,0.1,0,0.2-0.1c2.7,1.2,5.4,2.4,8.3,3.4c-1-1.9-2-3.8-2.9-5.8
				c0.3-0.1,0.5-0.3,0.8-0.4c1.3,2.5,2.6,5,3.9,7.5c-0.1,0-0.1,0.1-0.2,0.1c-2.9-1-5.7-2-8.4-3.2c0.9,1.9,1.7,3.9,2.6,5.8
				C174.6,126.3,174.3,126.4,174,126.5z"/>
			<path class="st1" d="M187,111.9c-0.1,0.3-0.2,0.6-0.3,0.9c-0.7-0.1-1.3-0.1-2,0c-0.6,0.1-1.2,0.3-1.7,0.6
				c-0.6,0.3-1.1,0.8-1.5,1.4c-0.4,0.6-0.6,1.2-0.7,1.9c0,0.7,0.1,1.2,0.4,1.8c0.3,0.6,0.8,1,1.4,1.3c0.6,0.3,1.3,0.5,2.1,0.4
				c0.8,0,1.5-0.3,2.2-0.7c0.8-0.5,1.4-1.1,1.7-1.9c0.3-0.8,0.3-1.5,0-2.2c-0.8,0.5-1.7,1-2.5,1.5c-0.1-0.2-0.3-0.5-0.4-0.7
				c1.1-0.7,2.3-1.4,3.4-2.1c0.7,1.1,0.9,2.2,0.6,3.3c-0.3,1.1-1.1,2-2.3,2.8c-1.5,0.9-3,1.1-4.5,0.7c-1.1-0.3-1.9-1-2.4-1.9
				c-0.4-0.7-0.5-1.5-0.5-2.3c0.1-0.8,0.3-1.5,0.8-2.2c0.5-0.7,1.1-1.3,1.9-1.7c0.6-0.4,1.3-0.6,2-0.7
				C185.4,111.8,186.2,111.8,187,111.9z"/>
		</g>
	</g>
	<g>
		<path class="st1" d="M195.7,109.4c0,0,0,0.2-0.4,0.7c-0.2,0.4-0.2,0.6,0.1,1.4c0,0.2,0,0.3-0.2,0.5c-0.1,0.1-0.2,0.1-0.3,0.1
			c-0.8-0.6-0.9-0.5-2.1,0.1c-0.1,0.1-0.1,0-0.3-0.1c-0.3-0.3-0.2-0.6,0.2-1.5c0.1-0.2,0.1-0.4-0.2-1c-0.1-0.3,0-0.5,0.1-0.6
			c0.1-0.1,0.5-0.1,0.7,0.1c0.6,0.4,0.7,0.4,1.5,0C195.2,109.1,195.5,109.2,195.7,109.4L195.7,109.4z"/>
	</g>
	<g>
		<path class="st1" d="M68.1,109.4c0,0,0,0.2-0.4,0.7c-0.2,0.4-0.2,0.6,0.1,1.4c0,0.2,0,0.3-0.2,0.5c-0.1,0.1-0.2,0.1-0.3,0.1
			c-0.8-0.6-0.9-0.5-2.1,0.1c-0.1,0.1-0.1,0-0.3-0.1c-0.3-0.3-0.2-0.6,0.2-1.5c0.1-0.2,0.1-0.4-0.2-1c-0.1-0.3,0-0.5,0.1-0.6
			c0.1-0.1,0.5-0.1,0.7,0.1c0.6,0.4,0.7,0.4,1.5,0C67.5,109.1,67.8,109.2,68.1,109.4L68.1,109.4z"/>
	</g>
</g>
<g>
	<path class="st4" d="M54.5,67.4c9.1,3.7,11.8-16.4,8-19c-7.2,4.8-9.1,13.8-11.3,20.7c-2.5,7.6-5.8,15.1-11.1,20.1
		c-4.4,4-14.9,9.3-20.4,5.2c-2-1.5-2.1-3.1-1.9-4.2c0.6-2.8,4.1-5.3,6.5-6.1c4.1-1.2,10.8-0.9,14.8,1.4l-0.2,0.5
		c-4.2-2.4-10.2-2.6-14.3-1.4c-2.5,0.7-5.7,3.3-6.2,5.7c-0.2,1.3,0.4,2.6,1.8,3.5c5.7,4.1,12.7-1.8,16.4-5.2
		c5.3-4.9,7.1-12.3,9.6-20.2c2.5-8,8.1-16.8,14.8-21.3c-8.4-5.6-26.5-5.7-33.6,7c-2,3.6-2,6.5-0.5,8.8c1.9,2.7,5.5,4.6,10.6,3.8
		c2.7-0.4,5.2-1.9,6.8-4.3c1.7-2.5,2.2-5.9,1.4-8.8c-0.9-3.1-3.1-3.8-4.4-3.9c-2.2-0.2-4.6,0.9-5.4,2.5c-0.4,0.8-0.8,2.1,0.5,3.6
		l-0.4,0.5c-1.1-1.4-1.3-2.9-0.6-4.3c1-2,3.6-3.1,6.1-2.9c1.3,0.2,3.8,0.9,4.9,4.3c0.9,3.1,0.4,6.5-1.4,9.2
		c-1.8,2.6-4.4,4.2-7.3,4.6c-4.2,0.5-8.7-0.5-11.1-4c-1.2-1.7-2.1-4.8,0.5-9.5c7.3-13,25.9-12.9,34.7-7c1.7-1,5.5-2.3,7.7-2.9
		l0.4,0.4c-2.2,0.5-4.9,2.6-6.6,3.6c5.8,4.4,7.6,11.8,2.5,17.3c-2.4,2.5-7.6,6-11.5,2.2L54.5,67.4z"/>
	<path class="st4" d="M72.5,67.2c1.1-0.4,2.3,0.1,2.7,0.6c0.7,0.9,0.4,2.5-0.4,3.7c-1,1.7-3.4,4.4-6.1,6.8c-0.4,8,5.3,4.1,8.4,1
		c2.3-2.2,4.8-5,5.8-6.5v0.9c-1.3,1.8-3.6,4-5.4,6.1c-5.2,5.8-14.2,5.6-13.8-1.8C64.1,74.3,68.8,68.4,72.5,67.2z M70.6,70.7
		c-1.1,2.1-1.5,4-1.8,6.7c2.4-2.2,4.6-4.8,5.6-6.3c0.5-0.9,0.9-2.3,0.4-3c-0.4-0.5-0.9-0.6-1.6-0.4C72.2,68,71.2,69.5,70.6,70.7z"/>
	<path class="st4" d="M107.2,72.7v0.9c-3.6,4.4-7.9,8.8-9.6,9.3c-0.9,0.2-4.9,0-5.3-1.1c-1.3-3.2,1.3-8.6,2.3-12
		c0.4-1.3,0.8-2.3-0.5-2.4c-3.5-0.2-7.1,8.5-9.2,13.8c-0.4,0.8-0.7,1.5-0.9,2.2l-3.7-0.2c0.4-3.4,2.7-12.9,3.9-15.4
		c0,0,3.8,0.3,2,8.6c1.6-3.3,4.4-9.6,7.8-9.6c2,0,4.6,1.3,4.7,2.8c0.4,4.8-2.8,8.5-2.6,11.8c0,0.6,0.4,1,1.1,1
		C98.5,82.4,103.2,77.8,107.2,72.7z"/>
	<path class="st4" d="M131.3,72.7v0.9c-3.6,4.4-7.9,8.8-9.6,9.3c-0.9,0.2-4.9,0-5.3-1.1c-1.3-3.2,1.3-8.6,2.3-12
		c0.4-1.3,0.8-2.3-0.5-2.4c-3.5-0.2-7.1,8.5-9.2,13.8c-0.4,0.8-0.7,1.5-0.9,2.2l-3.7-0.2c0.4-3.4,2.7-12.9,3.9-15.4
		c0,0,3.8,0.3,2,8.6c1.6-3.3,4.4-9.6,7.8-9.6c2,0,4.6,1.3,4.7,2.8c0.4,4.8-2.8,8.5-2.6,11.8c0,0.6,0.4,1,1.1,1
		C122.5,82.4,127.3,77.8,131.3,72.7z"/>
	<path class="st4" d="M131.6,71.1c0.4-1,1.8-4,0.4-4.3c-0.5,0-1.1,0.3-1.6,1c-0.7,0.9-1.3,2.2-0.9,3l-0.5,0.3c-0.6-1,0-2.7,1-3.7
		c1.5-1.9,4-1.6,5.4-1.1c1.9,0.7,1.1,4,0.7,5c-1.3,3.7-3.2,8.9-1.9,10.5c2.4,2.7,8-6.1,9-8.5c0.4-0.8,0.7-1.9,0.9-3.2l3.7,0.1
		c0.4,1.8-0.6,5-1,6.7c-0.9,4-3,13.5-3.9,16.7h0c2.6-0.2,4.1-0.2,6.6,0c6.3,0.4,17.1,2.2,9.9,9.9l-0.4-0.5c7.4-7.9-6.7-8.7-9.7-8.9
		c-2.2-0.1-5,0-6.6,0.1c-2.5,8-9.8,19.5-17.4,18.2c-5.4-0.9-6-7.2-3.9-10.9c2.9-4.9,10.7-7.2,16.8-7.8c1-3.3,3.4-13.9,4.1-17.6
		c-4.3,8-10.3,9-12.8,6C128.3,80.3,130.1,75.3,131.6,71.1z M138.3,94.4c-9.4,1-14.5,4.6-16,7.4c-2.2,3.6-1.6,9.3,3.4,10.1
		C132.3,113,136,102.1,138.3,94.4z"/>
	<path class="st4" d="M231.3,60.6c-2.7,7.6-6.6,15.4-4.6,23.1c-6.2-7.6-2.9-15.7-0.2-23.4c0.7-2,1.9-5.2,2.5-7.2
		c-2.9,6.7-6.7,11.5-10.1,16.4c-3.3,4.9-6.9,10-9.5,15.4l-0.4-0.5c-1.1-11.6-3.2-18.2,2.8-35.2c-6,3.7-8.5,10.9-11.5,18.3
		c-3.2,8.2-7,16.7-15.1,20.6c-2.6,1.3-7.1,2.5-11.3,2.5c-2.1,0-4.3-0.4-6-1.2c-2.1-1-3.3-2.6-3.9-4.8c-1.1-4.4,2.1-8.7,5.8-10.9
		c4.3-2.5,8.7-2.6,11.5-0.1l-0.4,0.5c-3.2-2.9-7.7-1.7-10.8,0.1c-3.5,2.1-6.6,6.2-5.5,10.3c0.5,1.9,1.8,3.5,3.6,4.4
		c1.7,0.9,3.7,1.1,5.7,1.2c11.7,0.1,16.8-13.8,20.4-22.8c5-12.2,8.4-15.3,16.5-18.2c-4,0.4-9.1-0.1-14.3-0.5
		c-11-0.9-23.6-1.9-29.4,4.2c-2.9,3-4,7.6-3.3,13.8l-0.6,0c-0.7-6.3,0.4-11,3.5-14.2c6.1-6.3,18.7-5.3,29.9-4.4
		c6,0.4,11.6,1,15.7,0.3l0.6,0.2c-4.9,15.6-3.1,22.9-3.3,34.7c2.2-4.4,6-10,8.8-14c4.8-6.8,9-12.5,11.6-20.3
		C233.1,53,232.7,56.9,231.3,60.6z"/>
	<path class="st4" d="M254.8,72.7v0.9c-2.9,3.6-6.3,7-8.3,8.5c-1.8,1.3-2.6,0.3-2.8-0.3c-0.4-0.9-0.5-2.5-0.4-4.6
		c-0.9,2.1-2.1,4.3-3.6,5.5c-1,0.8-4.4,1.3-5.8,0.6c-1.1-0.7-1.8-2.6-1.6-4.8c0.7-5.6,3.9-9,6.7-10.3c2.4-1.1,5.9-1.3,7.8-0.1
		c1.6,1,1.6,3.9,1.6,6v0.7H248v-0.7c0-1.8-0.1-4.6-1.4-5.5c-0.9-0.7-2.6-0.4-4,0.1c-2.7,1.2-4.4,4.6-5.4,9.9
		c-0.3,1.6-0.4,3.6,0.3,4.1c0.5,0.3,1.3,0,1.9-0.5c2.2-1.7,3.9-5.6,4.6-8.7l0.2-1l1.7,0.1c1.4,0-0.7,7.5-0.4,8.9
		c0.1,0.4,0.4,0.5,0.8,0C248.1,80.2,251.8,76.6,254.8,72.7z"/>
	<path class="st4" d="M265.6,74.2c0.3-1.5,0.5-2.8,0.8-4.2l3.7,0.2c-0.4,9.4-3.4,22.4-7.2,31.3c5,1.1,6.5,1.2,11.3,2.5
		c5.4,1.4,10.9,3,16.5,4.1c4.9,0.9,15.8,3.9,20.1,0.4c2.9-2.3,1.9-6.2-0.9-8c-3.3-2.2-9.2-2.8-11.8-1.8l-0.3-0.5
		c2.7-1.1,8.8-0.6,12.4,1.8c3.4,2.2,4,6.5,0.9,8.9c-4.7,3.7-15.5,1.3-20.6,0.4c-5.6-1.1-11.1-3.1-16.4-4.5
		c-4.9-1.3-6.3-1.7-11.5-2.8c-3.7,7.2-11.1,11.6-19.1,10.7c-3.1-0.4-6.7-1.7-8.4-4.3c-0.8-1.3-1.4-2.7-1.1-4.1
		c0.5-2.2,2.5-3.3,4.5-4.1c6.9-2.6,13.3-1.1,20,0.2c2.6-5.8,4.2-12.8,5.6-19.3l0.6-3.1c-1.7,2.4-3.9,4.3-5.8,4.5
		c-7.7,1-7.3-4.5-3.7-11.5c1-1.9,1.7-4,0.2-4.3c-0.4,0-1.1,0.3-1.6,1c-0.7,0.9-1.3,2.2-0.8,3l-0.5,0.3c-0.6-1,0-2.7,0.9-3.7
		c1.6-1.9,4-1.6,5.5-1.1c1.9,0.7,0.9,4,0.6,5c-1.2,4-3.6,9.1-2.4,10.5c0.3,0.3,0.9,0.4,1.7,0.3c2.2-0.5,4.5-2.8,6.2-5.5l0.1-0.5
		L265.6,74.2z M242.9,112.1c7.5,1.2,12.6-5,15.5-11.1c-6.4-1.3-12.9-2.8-19.6-0.2c-1.8,0.7-3.8,1.8-4.2,3.7c-0.2,1.3,0.3,2.5,1,3.6
		C237.1,110.4,240.3,111.7,242.9,112.1z"/>
</g>
<text transform="matrix(1 0 0 1 502.7961 186.466)" style="font-family:'BombshellPro'; font-size:20.4737px;">Penny May</text>
<text transform="matrix(1 0 0 1 515.7247 115.1493)" class="st4" style="font-family:'CarolynaProBlack'; font-size:20.4737px;">Penny May</text>
</svg>
