<?xml version="1.0" encoding="utf-8"?>
<!-- Generator: Adobe Illustrator 22.1.0, SVG Export Plug-In . SVG Version: 6.00 Build 0)  -->
<svg version="1.1" id="Layer_1" xmlns="http://www.w3.org/2000/svg" xmlns:xlink="http://www.w3.org/1999/xlink" x="0px" y="0px"
	 viewBox="0 0 216 216" style="enable-background:new 0 0 216 216;" xml:space="preserve">
<style type="text/css">
	.st0{clip-path:url(#SVGID_2_);}
	.st1{opacity:0.9;}
	.st2{fill:#FFFFFF;}
	.st3{fill:none;}
	.st4{fill-rule:evenodd;clip-rule:evenodd;fill:#6D6E71;}
	.st5{fill:#E97E98;}
</style>
<g>
	<defs>
		<rect id="SVGID_1_" width="216" height="216"/>
	</defs>
	<clipPath id="SVGID_2_">
		<use xlink:href="#SVGID_1_"  style="overflow:visible;"/>
	</clipPath>
	<g class="st0">
		<g class="st1">
			<path class="st2" d="M223.3,168.1"/>
			<g>
				<path class="st3" d="M223.3,48.4"/>
			</g>
			<g>
				<path class="st3" d="M223.3,56.7"/>
			</g>
			<path class="st4" d="M87.3,181.8c7,4.8,11.8-3.9,6.7-7.4c-5.9-4.1-11.5-8.5-17-13.2c-3.2-2.8-2.9-7.3-0.5-9.9l19.1-21
				c-6.3-5.7-12.2-11.8-17.6-18.3c-4.2,6.7-8.3,13.7-12,20.8c-7.4,3.1-15,5.9-22.8,8.5C56.1,156.6,71,170.2,87.3,181.8L87.3,181.8z
				 M115,116.9c15,12.8,32.2,22.9,50.6,29.7c18.4,6.8,38,10.3,57.8,10.3c19.7,0,39.3-3.5,57.8-10.3c18.4-6.8,35.6-16.9,50.6-29.7
				c1.7-1.4,4.7-0.7,6.8,1.6l28.5,31.8c0.1,0.1,0.1,0.3,0,0.4c-0.1,0.1-0.2,0.2-0.4,0.1c-1.8-0.8-3.9-0.6-5.4,0.7
				c-19,16.3-40.9,29.1-64.4,37.8c-23.5,8.7-48.5,13.1-73.5,13.1c-25,0-50-4.4-73.5-13.1c-23.5-8.7-45.4-21.6-64.4-37.8
				c-1.5-1.2-3.5-1.4-5.4-0.7c-0.1,0-0.3,0-0.4-0.1c-0.1-0.1-0.1-0.3,0-0.4l28.5-31.8C110.3,116.2,113.3,115.5,115,116.9L115,116.9
				L115,116.9z M367.8,160.9L367.8,160.9c2.6-2.2,2.1-5.2,0.5-6.9c-1.7-1.8-4.6-2.4-6.3-0.9c-6.4,5.4-13.1,10.4-20,14.9l7.1,10.6
				c0-1.9,0.8-3.8,2.7-5.2c0-0.1,0.1-0.1,0.2-0.2C357.3,169.4,362.6,165.2,367.8,160.9L367.8,160.9z M359.4,181.8
				c16.3-11.6,31.1-25.3,44-40.6c-7.8-2.6-15.3-5.4-22.8-8.5c-3.8-7.1-7.8-14.1-12-20.8c-5.5,6.5-11.4,12.6-17.6,18.3l19.1,21
				c2.4,2.6,2.8,7.2-0.5,9.9c-5.4,4.7-11.1,9-17,13.2C347.6,177.9,352.4,186.7,359.4,181.8L359.4,181.8L359.4,181.8z M78.9,160.9
				L78.9,160.9c-2.6-2.2-2.1-5.2-0.5-6.9c1.7-1.8,4.6-2.4,6.3-0.9c6.4,5.4,13.1,10.4,20,14.9l-7.1,10.6c0-1.9-0.8-3.8-2.7-5.2
				c0-0.1-0.1-0.1-0.2-0.2C89.3,169.4,84,165.2,78.9,160.9z"/>
			<g>
				<g>
					<path class="st2" d="M123.4,142.1c0.5,0.3,1,0.6,1.5,0.9c-0.7,4.2-1.2,8.5-1.7,12.8c3.7-2.3,7.4-4.8,10.9-7.3
						c0.5,0.3,1,0.6,1.5,0.8c-4.5,3.3-9.2,6.5-14.1,9.5c-0.1-0.1-0.2-0.1-0.3-0.2C121.7,153.1,122.5,147.6,123.4,142.1z"/>
					<path class="st2" d="M137.7,150.5c0.5,0.2,0.9,0.5,1.4,0.7c-2.4,4.5-4.8,9-7.3,13.4c-0.5-0.3-1-0.5-1.5-0.8
						C132.8,159.4,135.3,154.9,137.7,150.5z"/>
					<path class="st2" d="M135.4,166.4c2.4-4.5,4.7-9,7-13.6c0.1,0.1,0.2,0.1,0.3,0.2c1.4,5,3.1,10.1,5,15.1
						c1.6-3.6,3.2-7.1,4.7-10.7c0.5,0.2,1,0.4,1.5,0.6c-2,4.7-4,9.3-6.1,14c-0.1,0-0.2-0.1-0.4-0.1c-2-5-3.7-10-5.2-15
						c-1.7,3.4-3.5,6.9-5.2,10.3C136.4,166.9,135.9,166.7,135.4,166.4z"/>
					<path class="st2" d="M155.5,160.3c0.2-0.5,0.4-0.9,0.6-1.4c2.7,1.1,5.5,2.1,8.3,3c-0.2,0.5-0.3,0.9-0.5,1.4
						c-1.1-0.4-2.3-0.8-3.4-1.2c-1.6,4.3-3.3,8.6-4.9,12.8c-0.6-0.2-1.1-0.4-1.7-0.6c1.7-4.3,3.4-8.5,5.1-12.8
						C157.7,161.1,156.6,160.7,155.5,160.3z"/>
					<path class="st2" d="M172.8,164.6c0.9,5.6,2.1,11.1,3.4,16.7c-0.6-0.1-1.2-0.3-1.8-0.5c-0.4-1.8-0.9-3.7-1.3-5.5
						c-2.4-0.6-4.7-1.3-7-2c-1.4,1.3-2.8,2.6-4.2,3.9c-0.6-0.2-1.2-0.4-1.8-0.6c4.3-3.9,8.5-7.9,12.4-12.1
						C172.5,164.5,172.6,164.5,172.8,164.6z M171.6,167.6c-1.4,1.5-2.9,3-4.4,4.5c1.8,0.6,3.7,1.1,5.5,1.6
						C172.4,171.6,172,169.6,171.6,167.6z"/>
					<path class="st2" d="M197.4,172.4c-0.5,0.3-1,0.6-1.4,0.9c-0.8-1-1.7-1.7-2.7-2.3c-1-0.6-2-1-3-1.2c-1.3-0.2-2.5-0.2-3.8,0.2
						c-1.3,0.3-2.3,0.9-3.2,1.8c-0.9,0.8-1.4,1.8-1.7,2.9c-0.3,1.1-0.2,2.2,0.2,3.4c0.4,1.2,1.2,2.1,2.3,3c1.1,0.8,2.4,1.4,3.8,1.6
						c1.8,0.3,3.3,0.1,4.7-0.5c1.4-0.7,2.3-1.7,2.7-3.1c-1.8-0.3-3.6-0.6-5.3-0.9c0.1-0.5,0.2-1,0.3-1.4c2.4,0.4,4.8,0.8,7.2,1.1
						c-0.4,2.3-1.4,4.1-3.2,5.2c-1.8,1.1-4,1.5-6.7,1c-3.2-0.6-5.5-2.1-6.9-4.3c-1.1-1.7-1.3-3.6-0.8-5.4c0.4-1.4,1.1-2.6,2.1-3.6
						c1.1-1,2.3-1.7,3.8-2.2c1.5-0.4,3-0.5,4.7-0.1c1.3,0.2,2.6,0.7,3.7,1.3C195.3,170.3,196.4,171.3,197.4,172.4z"/>
					<path class="st2" d="M201.8,170.5c3.1,0.4,6.1,0.7,9.2,0.9c0,0.5-0.1,1-0.1,1.5c-2.6-0.2-5.1-0.4-7.7-0.7
						c-0.2,1.6-0.4,3.2-0.6,4.7c2.6,0.3,5.2,0.5,7.8,0.7c0,0.5-0.1,1-0.1,1.5c-2.6-0.2-5.3-0.4-7.9-0.7c-0.2,2-0.5,4-0.7,5.9
						c2.7,0.3,5.4,0.6,8.1,0.8c0,0.5-0.1,1-0.1,1.5c-3.3-0.2-6.6-0.6-9.9-1C200.5,180.5,201.1,175.5,201.8,170.5z"/>
					<path class="st2" d="M235.2,174.4c-0.4,0.3-0.8,0.7-1.2,1c-0.8-0.8-1.6-1.4-2.7-1.9c-1-0.4-2.1-0.6-3.3-0.6
						c-1.3,0-2.5,0.3-3.6,0.9c-1.1,0.6-2,1.3-2.6,2.3c-0.6,1-1,2.1-1,3.3c0,1.9,0.6,3.4,2.1,4.7c1.4,1.3,3.3,1.9,5.5,1.8
						c2.4,0,4.5-1,6-2.7c0.5,0.3,0.9,0.6,1.4,0.8c-0.8,1-1.9,1.8-3.1,2.4c-1.3,0.6-2.7,0.9-4.4,0.9c-3.1,0-5.5-0.9-7.2-2.7
						c-1.4-1.5-2.1-3.4-2-5.5c0.1-2.2,1-4.1,2.7-5.6c1.7-1.5,3.8-2.2,6.3-2.3c1.5,0,2.9,0.2,4.1,0.7
						C233.4,172.7,234.4,173.5,235.2,174.4z"/>
					<path class="st2" d="M238.3,171.4c0.5,0,1.1-0.1,1.6-0.1c0.4,4.6,0.8,9.1,1.2,13.7c2.2-0.2,4.5-0.4,6.7-0.6
						c0.1,0.5,0.1,1,0.2,1.5c-2.8,0.3-5.6,0.6-8.5,0.8C239.1,181.5,238.7,176.5,238.3,171.4z"/>
					<path class="st2" d="M256.2,168.9c2.4-0.4,4.6,0,6.5,1.2c1.9,1.2,3.2,2.8,3.7,5c0.5,2.2,0.1,4.2-1.3,6.1
						c-1.4,1.9-3.4,3-5.9,3.5c-2.6,0.4-4.9,0-6.9-1.3c-2-1.3-3.1-3-3.4-5.2c-0.2-1.4,0-2.8,0.6-4.2c0.6-1.3,1.5-2.4,2.7-3.3
						C253.4,169.7,254.7,169.2,256.2,168.9z M256.5,170.3c-1.2,0.2-2.3,0.7-3.2,1.4c-1,0.7-1.7,1.6-2.2,2.7
						c-0.5,1.1-0.6,2.2-0.5,3.4c0.3,1.8,1.2,3.2,2.8,4.2c1.6,1,3.4,1.4,5.4,1.1c1.3-0.2,2.5-0.7,3.5-1.5c1-0.8,1.7-1.7,2.1-2.8
						c0.4-1.1,0.5-2.2,0.2-3.4c-0.3-1.2-0.8-2.2-1.6-3c-0.8-0.8-1.8-1.4-3-1.8C258.9,170.2,257.8,170.1,256.5,170.3z"/>
					<path class="st2" d="M266.7,168.8c-0.1-0.5-0.2-1-0.3-1.4c2.9-0.6,5.7-1.4,8.6-2.1c0.1,0.5,0.3,1,0.4,1.4
						c-1.2,0.3-2.3,0.6-3.5,0.9c1.2,4.4,2.4,8.8,3.6,13.3c-0.6,0.1-1.2,0.3-1.7,0.4c-1.2-4.4-2.3-8.9-3.5-13.3
						C269,168.2,267.9,168.5,266.7,168.8z"/>
					<path class="st2" d="M277.1,164.6c0.5-0.1,1-0.3,1.5-0.4c0.6,2,1.3,4.1,1.9,6.1c2.7-0.8,5.4-1.7,8.1-2.6c-0.7-2-1.5-4-2.2-6
						c0.5-0.2,1-0.4,1.5-0.5c1.8,4.8,3.6,9.5,5.4,14.3c-0.5,0.2-1.1,0.4-1.6,0.6c-0.9-2.3-1.7-4.6-2.6-6.9c-2.7,0.9-5.4,1.8-8.1,2.6
						c0.7,2.3,1.5,4.7,2.2,7c-0.6,0.2-1.1,0.3-1.7,0.5C280.1,174.3,278.6,169.4,277.1,164.6z"/>
					<path class="st2" d="M291.4,159.8c0.5-0.2,1-0.4,1.5-0.6c1.9,4.7,3.8,9.4,5.8,14.1c-0.5,0.2-1.1,0.4-1.6,0.6
						C295.2,169.3,293.3,164.6,291.4,159.8z"/>
					<path class="st2" d="M302.4,171.9c-2.1-4.7-4.1-9.3-6.1-14c0.1,0,0.2-0.1,0.3-0.1c4.8,2.2,9.8,4.3,15,6.1
						c-1.8-3.5-3.5-6.9-5.3-10.4c0.5-0.2,0.9-0.5,1.4-0.7c2.3,4.5,4.6,9,7,13.5c-0.1,0.1-0.2,0.1-0.3,0.2
						c-5.2-1.7-10.3-3.7-15.1-5.8c1.6,3.5,3.1,7,4.7,10.5C303.5,171.4,303,171.7,302.4,171.9z"/>
					<path class="st2" d="M326,145.4c-0.1,0.5-0.3,1.1-0.5,1.6c-1.2-0.2-2.4-0.2-3.5-0.1c-1.1,0.2-2.1,0.5-3,1
						c-1.1,0.6-2,1.5-2.7,2.5c-0.7,1.1-1.1,2.2-1.2,3.4c-0.1,1.2,0.2,2.3,0.7,3.2c0.6,1,1.4,1.8,2.5,2.4c1.1,0.6,2.4,0.8,3.7,0.8
						c1.4-0.1,2.7-0.5,3.9-1.2c1.5-0.9,2.6-2,3.1-3.4c0.6-1.4,0.5-2.7-0.1-4c-1.5,0.9-3,1.9-4.6,2.8c-0.3-0.4-0.5-0.8-0.8-1.3
						c2.1-1.2,4.1-2.5,6.1-3.8c1.3,2,1.7,3.9,1.2,5.9c-0.5,2-2,3.7-4.2,5c-2.8,1.6-5.5,2-8.1,1.2c-2-0.6-3.4-1.8-4.3-3.5
						c-0.7-1.3-1-2.6-0.9-4.1c0.1-1.5,0.6-2.8,1.4-4c0.8-1.2,2-2.3,3.4-3.1c1.2-0.7,2.4-1.1,3.6-1.3
						C323.1,145.2,324.5,145.2,326,145.4z"/>
				</g>
			</g>
			<g>
				<path class="st2" d="M341.8,140.9c0.1,0.1-0.1,0.3-0.6,1.3c-0.4,0.8-0.5,1.1,0.3,2.5c0.1,0.3,0.1,0.6-0.3,1
					c-0.2,0.2-0.4,0.2-0.6,0.2c-1.5-1-1.6-1-3.8,0.2c-0.1,0.1-0.3,0-0.6-0.3c-0.5-0.5-0.3-1,0.4-2.7c0.1-0.4,0.1-0.7-0.4-1.8
					c-0.2-0.5,0-1,0.1-1.1c0.2-0.2,0.9-0.1,1.3,0.1c1,0.7,1.3,0.8,2.8,0C340.7,140.3,341.3,140.5,341.8,140.9L341.8,140.9z"/>
			</g>
			<g>
				<path class="st2" d="M110.8,140.9c0.1,0.1-0.1,0.3-0.6,1.3c-0.4,0.8-0.5,1.1,0.3,2.5c0.1,0.3,0.1,0.6-0.3,1
					c-0.2,0.2-0.4,0.2-0.6,0.2c-1.5-1-1.6-1-3.8,0.2c-0.1,0.1-0.3,0-0.6-0.3c-0.5-0.5-0.3-1,0.4-2.7c0.1-0.4,0.1-0.7-0.4-1.8
					c-0.2-0.5,0-1,0.1-1.1c0.2-0.2,0.9-0.1,1.3,0.1c1,0.7,1.3,0.8,2.8,0C109.8,140.3,110.3,140.5,110.8,140.9L110.8,140.9z"/>
			</g>
		</g>
		<g>
			<path class="st5" d="M86.2,64.9c16.4,6.7,21.3-29.7,14.6-34.3c-13,8.6-16.4,25-20.5,37.5c-4.5,13.8-10.5,27.2-20.2,36.3
				c-8,7.2-26.9,16.9-36.8,9.4c-3.6-2.7-3.8-5.6-3.4-7.6c1.1-5.1,7.5-9.7,11.7-11c7.5-2.2,19.5-1.6,26.8,2.6l-0.4,1
				c-7.6-4.3-18.5-4.6-25.9-2.6c-4.5,1.3-10.2,6-11.1,10.3c-0.4,2.4,0.7,4.6,3.2,6.3c10.3,7.4,23-3.3,29.7-9.4
				c9.5-8.8,12.8-22.2,17.4-36.5c4.6-14.4,14.7-30.4,26.8-38.5c-15.2-10.1-48-10.3-60.8,12.6c-3.6,6.4-3.7,11.7-0.9,15.9
				c3.4,4.9,10,8.3,19.2,6.9c5-0.8,9.4-3.5,12.4-7.8c3-4.6,4-10.7,2.5-15.9c-1.6-5.5-5.5-6.8-8-7.1c-4.1-0.3-8.3,1.6-9.8,4.6
				c-0.7,1.5-1.4,3.7,0.9,6.5L52.6,45c-2-2.5-2.4-5.2-1.1-7.7c1.8-3.6,6.5-5.6,11-5.2c2.4,0.3,6.9,1.6,8.8,7.8
				c1.5,5.6,0.7,11.7-2.6,16.7c-3.2,4.6-7.9,7.6-13.3,8.4c-7.6,1-15.8-0.9-20.2-7.3c-2.1-3.1-3.8-8.6,0.9-17.2
				c13.2-23.6,46.9-23.3,62.7-12.6c3.1-1.9,9.9-4.2,13.9-5.3l0.7,0.8c-3.9,1-8.9,4.7-12,6.6c10.4,8,13.7,21.4,4.6,31.2
				c-4.3,4.6-13.7,10.9-20.7,3.9L86.2,64.9z"/>
			<path class="st5" d="M118.9,64.5c2-0.7,4.2,0.2,5,1.1c1.3,1.7,0.6,4.6-0.7,6.7c-1.9,3.1-6.1,8-11,12.3
				c-0.7,14.5,9.5,7.4,15.3,1.8c4.1-4.1,8.6-9,10.6-11.7v1.7c-2.4,3.2-6.5,7.2-9.8,11c-9.3,10.6-25.6,10.1-24.9-3.2
				C103.7,77.5,112.1,66.7,118.9,64.5z M115.4,70.8c-2,3.7-2.7,7.3-3.2,12.2c4.4-3.9,8.4-8.7,10.1-11.5c1-1.5,1.6-4.2,0.6-5.4
				c-0.6-0.9-1.7-1.1-2.9-0.7C118.2,66.1,116.4,68.8,115.4,70.8z"/>
			<path class="st5" d="M181.6,74.5v1.7c-6.6,8-14.3,15.9-17.4,16.8c-1.7,0.4-8.9-0.1-9.6-2c-2.3-5.9,2.3-15.6,4.1-21.8
				c0.7-2.4,1.4-4.2-1-4.4c-6.3-0.3-12.8,15.4-16.7,24.9c-0.7,1.4-1.3,2.7-1.6,4.1l-6.7-0.4c0.7-6.1,4.9-23.4,7-27.9
				c0.1,0,6.8,0.6,3.7,15.6c2.8-6,8-17.3,14.1-17.3c3.7,0,8.3,2.3,8.5,5c0.7,8.7-5.1,15.4-4.7,21.4c0.1,1.1,0.7,1.8,2,1.8
				C165.8,92.1,174.4,83.6,181.6,74.5z"/>
			<path class="st5" d="M225.2,74.5v1.7c-6.6,8-14.3,15.9-17.4,16.8c-1.7,0.4-8.9-0.1-9.6-2c-2.3-5.9,2.3-15.6,4.1-21.8
				c0.7-2.4,1.4-4.2-1-4.4c-6.3-0.3-12.8,15.4-16.7,24.9c-0.7,1.4-1.3,2.7-1.6,4.1l-6.7-0.4c0.7-6.1,4.9-23.4,7-27.9
				c0.1,0,6.8,0.6,3.7,15.6c2.8-6,8-17.3,14.1-17.3c3.7,0,8.3,2.3,8.5,5c0.7,8.7-5.1,15.4-4.7,21.4c0.1,1.1,0.7,1.8,2,1.8
				C209.4,92.1,218,83.6,225.2,74.5z"/>
			<path class="st5" d="M225.8,71.6c0.7-1.8,3.3-7.2,0.7-7.8c-0.9-0.1-2,0.6-2.9,1.9c-1.3,1.5-2.4,4-1.5,5.4l-1,0.5
				c-1.1-1.8,0-4.9,1.8-6.7c2.8-3.4,7.3-2.8,9.8-2c3.5,1.2,2,7.3,1.3,9.1c-2.4,6.7-5.9,16.2-3.4,18.9c4.4,4.8,14.6-11,16.3-15.4
				c0.7-1.5,1.3-3.5,1.7-5.8l6.7,0.2c0.8,3.3-1.1,9.1-1.8,12.1c-1.6,7.2-5.4,24.5-7.1,30.2h0.1c4.6-0.4,7.5-0.3,11.9-0.1
				c11.5,0.7,30.9,4,17.9,18l-0.7-0.9c13.4-14.2-12-15.8-17.5-16.1c-4-0.2-9.1,0-12,0.2c-4.6,14.4-17.8,35.2-31.5,33
				c-9.8-1.6-10.9-13-7-19.8c5.3-8.9,19.4-13,30.3-14.1c1.8-6,6.1-25.2,7.4-31.9c-7.7,14.6-18.6,16.3-23.1,10.8
				C219.8,88.3,223.1,79.2,225.8,71.6z M237.8,113.7c-17,1.8-26.2,8.4-29,13.3c-3.9,6.5-2.8,16.8,6.2,18.3
				C227,147.5,233.8,127.7,237.8,113.7z"/>
			<path class="st5" d="M406.2,52.6c-5,13.8-12,27.9-8.3,41.8c-11.2-13.7-5.3-28.5-0.3-42.3c1.3-3.6,3.4-9.4,4.5-13
				c-5.2,12-12.1,20.7-18.2,29.8c-6,8.9-12.4,18.1-17.2,27.8l-0.7-0.8c-2-21.1-5.8-33,5-63.7c-10.9,6.7-15.4,19.7-20.7,33.1
				c-5.8,14.8-12.7,30.2-27.3,37.3c-4.6,2.3-12.8,4.6-20.5,4.6c-3.8,0-7.7-0.7-10.9-2.2c-3.7-1.8-6-4.6-7-8.7
				c-2-8,3.8-15.7,10.4-19.7c7.7-4.6,15.8-4.7,20.8-0.2l-0.7,0.9c-5.8-5.2-14-3.1-19.5,0.2c-6.3,3.8-11.9,11.1-10,18.6
				c0.9,3.5,3.2,6.3,6.5,7.9c3,1.5,6.7,2,10.3,2.1c21.1,0.2,30.4-24.9,37-41.3c9-22,15.3-27.7,29.8-32.8c-7.2,0.7-16.4-0.2-25.9-0.9
				c-19.9-1.6-42.6-3.4-53.2,7.6c-5.2,5.4-7.3,13.7-6,24.9l-1.1,0.1c-1.3-11.5,0.6-19.9,6.3-25.7c11-11.5,33.8-9.6,54.1-8
				c10.8,0.7,21.1,1.8,28.4,0.6l1.1,0.3c-8.9,28.1-5.5,41.5-6,62.9c4.1-8.1,10.8-18.1,15.9-25.4c8.6-12.3,16.3-22.7,21-36.8
				C409.3,38.8,408.6,45.8,406.2,52.6z"/>
			<path class="st5" d="M448.6,74.5v1.7c-5.3,6.6-11.4,12.7-15,15.4c-3.2,2.4-4.7,0.5-5-0.5c-0.7-1.7-0.9-4.6-0.7-8.3
				c-1.5,3.7-3.7,7.7-6.6,9.9c-1.8,1.4-8.1,2.4-10.4,1.1c-2-1.2-3.3-4.6-2.8-8.6c1.3-10.2,7-16.3,12.2-18.6c4.4-2,10.7-2.4,14.1-0.2
				c2.8,1.8,2.9,7,2.9,10.8v1.2h-1.1v-1.2c0-3.3-0.2-8.3-2.5-9.9c-1.5-1.2-4.6-0.8-7.2,0.2c-5,2.1-8.1,8.3-9.8,17.9
				c-0.6,2.9-0.8,6.6,0.5,7.4c0.9,0.6,2.4-0.1,3.4-0.9c4-3.1,7.1-10.1,8.3-15.8l0.4-1.9l3.1,0.2c2.5,0-1.2,13.5-0.8,16.1
				c0.2,0.7,0.6,0.8,1.5,0.1C436.6,88.1,443.2,81.5,448.6,74.5z"/>
			<path class="st5" d="M468.1,77.2c0.6-2.7,1-5.1,1.5-7.6l6.7,0.3c-0.6,17.1-6.1,40.6-13,56.6c9.1,2,11.7,2.2,20.5,4.6
				c9.8,2.6,19.7,5.4,29.8,7.4c8.9,1.6,28.6,7,36.4,0.7c5.3-4.2,3.4-11.1-1.5-14.4c-5.9-4-16.7-5.1-21.3-3.2l-0.6-1
				c5-2,15.9-1.1,22.5,3.3c6.1,3.9,7.2,11.7,1.5,16.1c-8.5,6.7-28,2.4-37.3,0.7c-10.1-2-20.1-5.5-29.7-8.1c-8.8-2.4-11.5-3.1-20.8-5
				c-6.7,13.1-20,21-34.5,19.4c-5.5-0.6-12.2-3.1-15.3-7.8c-1.5-2.3-2.5-4.9-2-7.5c0.8-3.9,4.6-6,8.2-7.5c12.4-4.7,24.2-2,36.3,0.4
				c4.7-10.5,7.6-23.1,10.2-34.9l1.1-5.5c-3.1,4.3-7.1,7.7-10.5,8.1c-14,1.8-13.3-8.1-6.7-20.8c1.9-3.5,3.1-7.2,0.4-7.8
				c-0.8-0.1-2,0.6-2.9,1.9c-1.2,1.5-2.4,4-1.5,5.4l-0.9,0.5c-1.1-1.8,0-4.9,1.6-6.7c2.9-3.4,7.2-2.8,9.9-2c3.5,1.2,1.6,7.3,1.1,9.1
				c-2.2,7.2-6.4,16.5-4.3,18.9c0.6,0.6,1.5,0.7,3,0.5c3.9-0.8,8.1-5,11.2-9.9l0.2-0.8L468.1,77.2z M427.1,145.8
				c13.6,2.2,22.8-9.1,28-20c-11.6-2.4-23.3-5.1-35.5-0.4c-3.3,1.2-6.9,3.2-7.6,6.7c-0.3,2.3,0.6,4.5,1.9,6.5
				C416.6,142.8,422.4,145,427.1,145.8z"/>
		</g>
	</g>
</g>
</svg>
