<?xml version="1.0" encoding="utf-8"?>
<!-- Generator: Adobe Illustrator 22.1.0, SVG Export Plug-In . SVG Version: 6.00 Build 0)  -->
<svg version="1.1" id="Layer_1" xmlns="http://www.w3.org/2000/svg" xmlns:xlink="http://www.w3.org/1999/xlink" x="0px" y="0px"
	 viewBox="0 0 612 496" style="enable-background:new 0 0 612 496;" xml:space="preserve">
<style type="text/css">
	.st0{fill:#FFFFFF;}
	.st1{fill:none;stroke:#000000;stroke-width:0.5;}
	.st2{font-family:'HelveticaNeue-BoldExt';}
	.st3{font-size:5px;}
	.st4{font-size:19px;}
	.st5{letter-spacing:5;}
	.st6{letter-spacing:1;}
	.st7{font-size:10px;}
	.st8{letter-spacing:15;}
</style>
<rect x="34" y="40.9" class="st0" width="414" height="315"/>
<rect x="34" y="40.9" class="st1" width="414" height="315"/>
<polygon class="st0" points="34.5,40.7 45.8,202.4 436.8,202.4 448,40.7 "/>
<polygon class="st1" points="34.5,40.7 45.8,202.4 436.8,202.4 448,40.7 "/>
<rect x="187" y="159.1" class="st0" width="391" height="301"/>
<rect x="187" y="159.1" class="st1" width="391" height="301"/>
<text transform="matrix(1 0 0 1 133.0464 88.9351)"><tspan x="0" y="0" class="st2 st3">8</tspan><tspan x="4.4" y="0" class="st2 st3">1</tspan><tspan x="7.4" y="0" class="st2 st3">3</tspan><tspan x="11.7" y="0" class="st2 st3"> </tspan><tspan x="14.2" y="0" class="st2 st3">P</tspan><tspan x="18.6" y="0" class="st2 st3">R</tspan><tspan x="23.3" y="0" class="st2 st3">O</tspan><tspan x="28.3" y="0" class="st2 st3">V</tspan><tspan x="32.7" y="0" class="st2 st3">ID</tspan><tspan x="39.7" y="0" class="st2 st3">E</tspan><tspan x="44" y="0" class="st2 st3">N</tspan><tspan x="49" y="0" class="st2 st3">C</tspan><tspan x="53.9" y="0" class="st2 st3">E</tspan><tspan x="58.1" y="0" class="st2 st3"> </tspan><tspan x="60.5" y="0" class="st2 st3">R</tspan><tspan x="65.2" y="0" class="st2 st3">O</tspan><tspan x="70.2" y="0" class="st2 st3">A</tspan><tspan x="74.8" y="0" class="st2 st3">D</tspan><tspan x="79.6" y="0" class="st2 st3"> </tspan></text>
<text transform="matrix(1 0 0 1 215.1509 88.9351)"><tspan x="0" y="0" class="st2 st3">|</tspan><tspan x="1.4" y="0" class="st2 st3"> </tspan></text>
<text transform="matrix(1 0 0 1 218.9819 88.9351)"><tspan x="0" y="0" class="st2 st3">C</tspan><tspan x="4.9" y="0" class="st2 st3">HA</tspan><tspan x="14.6" y="0" class="st2 st3">R</tspan><tspan x="19.3" y="0" class="st2 st3">L</tspan><tspan x="23.2" y="0" class="st2 st3">O</tspan><tspan x="28.3" y="0" class="st2 st3">T</tspan><tspan x="32.4" y="0" class="st2 st3">T</tspan><tspan x="36.4" y="0" class="st2 st3">E</tspan><tspan x="40.7" y="0" class="st2 st3">,</tspan><tspan x="42.9" y="0" class="st2 st3"> </tspan><tspan x="45.3" y="0" class="st2 st3">NO</tspan><tspan x="55.5" y="0" class="st2 st3">R</tspan><tspan x="60.2" y="0" class="st2 st3">T</tspan><tspan x="64.2" y="0" class="st2 st3">H</tspan><tspan x="69.1" y="0" class="st2 st3"> </tspan><tspan x="71.5" y="0" class="st2 st3">C</tspan><tspan x="76.4" y="0" class="st2 st3">AR</tspan><tspan x="85.6" y="0" class="st2 st3">O</tspan><tspan x="90.7" y="0" class="st2 st3">L</tspan><tspan x="94.7" y="0" class="st2 st3">I</tspan><tspan x="96.7" y="0" class="st2 st3">N</tspan><tspan x="101.8" y="0" class="st2 st3">A</tspan><tspan x="106.2" y="0" class="st2 st3"> </tspan><tspan x="108.7" y="0" class="st2 st3">2</tspan><tspan x="113" y="0" class="st2 st3">8</tspan><tspan x="117.4" y="0" class="st2 st3">2</tspan><tspan x="121.8" y="0" class="st2 st3">0</tspan><tspan x="126.2" y="0" class="st2 st3">7</tspan></text>
<text transform="matrix(1 0 0 1 274.4624 196.2842)"><tspan x="0" y="0" class="st2 st4 st5">P</tspan><tspan x="21" y="0" class="st2 st4 st5">E</tspan><tspan x="41.5" y="0" class="st2 st4 st5">R</tspan><tspan x="63.4" y="0" class="st2 st4 st5">R</tspan><tspan x="85" y="0" class="st2 st4 st5">Y</tspan><tspan x="105.4" y="0" class="st2 st4 st6"> </tspan><tspan x="113.6" y="0" class="st2 st4 st5">P</tspan><tspan x="135" y="0" class="st2 st4 st5">O</tspan><tspan x="158.6" y="0" class="st2 st4 st5">O</tspan><tspan x="182.1" y="0" class="st2 st4 st5">L</tspan><tspan x="201.1" y="0" class="st2 st4">E</tspan></text>
<text transform="matrix(1 0 0 1 274.4624 207.2842)"><tspan x="0" y="0" class="st2 st7 st8">A</tspan><tspan x="23.7" y="0" class="st2 st7 st8">R</tspan><tspan x="47.6" y="0" class="st2 st7 st8">C</tspan><tspan x="72" y="0" class="st2 st7 st8">H</tspan><tspan x="96.6" y="0" class="st2 st7 st8">I</tspan><tspan x="115.2" y="0" class="st2 st7 st8">T</tspan><tspan x="137.7" y="0" class="st2 st7 st8">E</tspan><tspan x="160.7" y="0" class="st2 st7 st8">C</tspan><tspan x="185.1" y="0" class="st2 st7 st8">T</tspan><tspan x="207.8" y="0" class="st2 st7">S</tspan></text>
</svg>
