<?xml version="1.0" encoding="utf-8"?>
<!-- Generator: Adobe Illustrator 22.1.0, SVG Export Plug-In . SVG Version: 6.00 Build 0)  -->
<svg version="1.1" id="Layer_1" xmlns="http://www.w3.org/2000/svg" xmlns:xlink="http://www.w3.org/1999/xlink" x="0px" y="0px"
	 viewBox="0 0 252 126" style="enable-background:new 0 0 252 126;" xml:space="preserve">
<style type="text/css">
	.st0{fill:#FBF7F6;}
	.st1{fill:#FFFFFF;}
</style>
<rect x="0.1" y="0.1" class="st0" width="251.7" height="125.8"/>
<rect x="0.1" y="0.1" class="st1" width="251.7" height="125.8"/>
<g>
	<path d="M19.3,30.9h9.1c3.9,0,4.8,2.3,4.8,4.1c0,2.9-1.5,4.6-4.5,4.6H23v4.8h-3.7V30.9z M23,37.2h4c1.1,0,2.5,0,2.5-1.9
		c0-1.8-1.1-1.9-2.1-1.9H23V37.2z"/>
	<path d="M40.3,30.9H53v2.6h-9v2.8h8.5v2.5H44v3.1h9.1v2.6H40.3V30.9z"/>
	<path d="M60.8,30.9h9.9c3.8,0,4.4,2.3,4.4,3.7c0,1.7-0.7,2.7-2.2,3.3v0c1.6,0.2,1.9,2.3,1.9,3.6c0,0.7,0.1,2.3,0.7,2.9h-4
		C71,43.8,71,43.3,71,41.9c0-1.9-0.8-2.4-2-2.4h-4.6v5h-3.7V30.9z M64.5,36.9h4.9c0.8,0,1.8-0.5,1.8-1.7c0-1.3-1.1-1.7-2-1.7h-4.7
		V36.9z"/>
	<path d="M82.7,30.9h9.9c3.8,0,4.4,2.3,4.4,3.7c0,1.7-0.7,2.7-2.2,3.3v0c1.6,0.2,1.9,2.3,1.9,3.6c0,0.7,0.1,2.3,0.7,2.9h-4
		c-0.3-0.6-0.4-1.2-0.4-2.6c0-1.9-0.8-2.4-2-2.4h-4.6v5h-3.7V30.9z M86.4,36.9h4.9c0.8,0,1.8-0.5,1.8-1.7c0-1.3-1.1-1.7-2-1.7h-4.7
		V36.9z"/>
	<path d="M108.6,39.7l-6-8.8h4.3l3.5,5.9l3.5-5.9h4.3l-6,8.8v4.7h-3.7V39.7z"/>
	<path d="M132.9,30.9h9.1c3.9,0,4.8,2.3,4.8,4.1c0,2.9-1.5,4.6-4.5,4.6h-5.7v4.8h-3.7V30.9z M136.6,37.2h4c1.1,0,2.5,0,2.5-1.9
		c0-1.8-1.1-1.9-2.1-1.9h-4.3V37.2z"/>
	<path d="M161.9,30.5c7.3,0,8.4,4.3,8.4,7.2c0,2.8-1.1,7.2-8.4,7.2s-8.4-4.3-8.4-7.2C153.5,34.9,154.6,30.5,161.9,30.5z M161.9,42.3
		c3.3,0,4.5-2.5,4.5-4.6c0-2.1-1.2-4.6-4.5-4.6c-3.3,0-4.5,2.5-4.5,4.6C157.4,39.8,158.6,42.3,161.9,42.3z"/>
	<path d="M185.5,30.5c7.3,0,8.4,4.3,8.4,7.2c0,2.8-1.1,7.2-8.4,7.2s-8.4-4.3-8.4-7.2C177.1,34.9,178.2,30.5,185.5,30.5z M185.5,42.3
		c3.3,0,4.5-2.5,4.5-4.6c0-2.1-1.2-4.6-4.5-4.6c-3.3,0-4.5,2.5-4.5,4.6C181,39.8,182.2,42.3,185.5,42.3z"/>
	<path d="M201.4,30.9h3.7v10.9h8.3v2.7h-11.9V30.9z"/>
	<path d="M220.4,30.9h12.7v2.6h-9v2.8h8.5v2.5h-8.5v3.1h9.1v2.6h-12.7V30.9z"/>
</g>
<g>
	<path d="M23.8,54h-3.3l-0.6,1.5h-2.1l3.1-7.1h2.3l3.1,7.1h-2.1L23.8,54z M22.2,49.9L21,52.7h2.2L22.2,49.9z"/>
	<path d="M42.4,48.3h5.2c2,0,2.3,1.2,2.3,1.9c0,0.9-0.3,1.4-1.2,1.7v0c0.8,0.1,1,1.2,1,1.9c0,0.4,0,1.2,0.4,1.5H48
		c-0.2-0.3-0.2-0.6-0.2-1.4c0-1-0.4-1.2-1-1.2h-2.4v2.6h-1.9V48.3z M44.3,51.5h2.6c0.4,0,0.9-0.2,0.9-0.9c0-0.7-0.6-0.9-1-0.9h-2.5
		V51.5z"/>
	<path d="M72.3,51c-0.2-1-1-1.5-2-1.5c-1.8,0-2.2,1.4-2.2,2.4c0,1,0.4,2.4,2.2,2.4c0.9,0,1.8-0.4,2-1.6h2.1
		c-0.2,2.1-1.9,2.9-4.2,2.9c-2.6,0-4.2-1.1-4.2-3.8c0-2.6,1.6-3.8,4.2-3.8c1.7,0,3.9,0.4,4.2,2.9H72.3z"/>
	<path d="M90.7,48.3h1.9V51h4v-2.7h1.9v7.1h-1.9v-3.1h-4v3.1h-1.9V48.3z"/>
	<path d="M115.2,48.3h1.9v7.1h-1.9V48.3z"/>
	<path d="M135.8,49.7h-2.6v-1.4h7.2v1.4h-2.6v5.8h-1.9V49.7z"/>
	<path d="M156.4,48.3h6.7v1.4h-4.7v1.5h4.5v1.3h-4.5v1.6h4.8v1.4h-6.7V48.3z"/>
	<path d="M185.4,51c-0.2-1-1-1.5-2-1.5c-1.8,0-2.2,1.4-2.2,2.4c0,1,0.4,2.4,2.2,2.4c0.9,0,1.8-0.4,2-1.6h2.1
		c-0.2,2.1-1.9,2.9-4.2,2.9c-2.6,0-4.2-1.1-4.2-3.8c0-2.6,1.6-3.8,4.2-3.8c1.7,0,3.9,0.4,4.2,2.9H185.4z"/>
	<path d="M205.8,49.7h-2.6v-1.4h7.2v1.4h-2.6v5.8h-1.9V49.7z"/>
	<path d="M231.3,50.4c-0.1-0.9-1-1-1.8-1c-0.8,0-1.3,0.4-1.3,0.8c0,0.4,0.3,0.6,0.8,0.7l2.4,0.4c1.3,0.2,2.3,0.7,2.3,2
		c0,1.3-0.9,2.4-3.7,2.4c-1.7,0-4-0.2-4-2.4h2.2c0,1,1,1.1,1.8,1.1c0.9,0,1.5-0.3,1.5-0.9c0-0.5-0.4-0.7-1.2-0.8l-1.8-0.3
		c-1.2-0.2-2.4-0.6-2.4-2c0-1.6,1.3-2.2,3.5-2.2c1.5,0,3.6,0.3,3.8,2.3H231.3z"/>
</g>
<g>
	<path d="M18.8,59.9h5.8c2.4,0,3,1.5,3,2.6c0,1.8-1,2.9-2.8,2.9h-3.6v3.1h-2.3V59.9z M21.1,63.9h2.5c0.7,0,1.6,0,1.6-1.2
		c0-1.1-0.7-1.2-1.3-1.2h-2.7V63.9z"/>
	<path d="M34.3,59.9h8v1.6h-5.7v1.8H42v1.6h-5.4v2h5.7v1.6h-8V59.9z"/>
	<path d="M49.4,59.9h6.2c2.4,0,2.8,1.5,2.8,2.3c0,1-0.4,1.7-1.4,2.1v0c1,0.2,1.2,1.5,1.2,2.3c0,0.4,0,1.4,0.4,1.9h-2.5
		c-0.2-0.4-0.2-0.7-0.2-1.6c0-1.2-0.5-1.5-1.2-1.5h-2.9v3.1h-2.3V59.9z M51.8,63.7h3.1c0.5,0,1.1-0.3,1.1-1.1c0-0.9-0.7-1.1-1.2-1.1
		h-3V63.7z"/>
	<path d="M65.5,59.9h6.2c2.4,0,2.8,1.5,2.8,2.3c0,1-0.4,1.7-1.4,2.1v0c1,0.2,1.2,1.5,1.2,2.3c0,0.4,0,1.4,0.4,1.9h-2.5
		c-0.2-0.4-0.2-0.7-0.2-1.6c0-1.2-0.5-1.5-1.2-1.5h-2.9v3.1h-2.3V59.9z M67.8,63.7h3.1c0.5,0,1.1-0.3,1.1-1.1c0-0.9-0.7-1.1-1.2-1.1
		h-3V63.7z"/>
	<path d="M84,65.5l-3.8-5.6h2.7l2.2,3.7l2.2-3.7h2.7l-3.8,5.6v3H84V65.5z"/>
	<path d="M103.1,59.9h5.8c2.4,0,3,1.5,3,2.6c0,1.8-1,2.9-2.8,2.9h-3.6v3.1h-2.3V59.9z M105.4,63.9h2.5c0.7,0,1.6,0,1.6-1.2
		c0-1.1-0.7-1.2-1.3-1.2h-2.7V63.9z"/>
	<path d="M123.6,59.7c4.6,0,5.3,2.7,5.3,4.5c0,1.8-0.7,4.5-5.3,4.5s-5.3-2.7-5.3-4.5C118.3,62.4,119,59.7,123.6,59.7z M123.6,67.1
		c2.1,0,2.9-1.6,2.9-2.9c0-1.3-0.7-2.9-2.9-2.9c-2.1,0-2.9,1.6-2.9,2.9C120.8,65.5,121.5,67.1,123.6,67.1z"/>
	<path d="M140.7,59.7c4.6,0,5.3,2.7,5.3,4.5c0,1.8-0.7,4.5-5.3,4.5s-5.3-2.7-5.3-4.5C135.4,62.4,136.1,59.7,140.7,59.7z M140.7,67.1
		c2.1,0,2.9-1.6,2.9-2.9c0-1.3-0.7-2.9-2.9-2.9c-2.1,0-2.9,1.6-2.9,2.9C137.9,65.5,138.6,67.1,140.7,67.1z"/>
	<path d="M153,59.9h2.3v6.9h5.2v1.7H153V59.9z"/>
	<path d="M167.2,59.9h8v1.6h-5.7v1.8h5.4v1.6h-5.4v2h5.7v1.6h-8V59.9z"/>
	<path d="M182.6,66.4h2.3V68c0,1.5-0.8,2.5-2.3,2.7v-0.8c0.8-0.2,1-0.6,1.1-1.4h-1.1V66.4z"/>
	<path d="M205.4,66.7h-3.9l-0.7,1.8h-2.5l3.8-8.6h2.8l3.8,8.6H206L205.4,66.7z M203.4,61.8l-1.3,3.4h2.7L203.4,61.8z"/>
	<path d="M215,59.9h2.3v8.6H215V59.9z"/>
	<path d="M230.9,66.7H227l-0.7,1.8h-2.5l3.8-8.6h2.8l3.8,8.6h-2.5L230.9,66.7z M228.9,61.8l-1.3,3.4h2.7L228.9,61.8z"/>
</g>
<g>
	<path d="M18.5,73.5h3.4c1.4,0,1.8,0.8,1.8,1.5c0,1.1-0.6,1.7-1.7,1.7h-2.1v1.8h-1.4V73.5z M19.8,75.8h1.5c0.4,0,0.9,0,0.9-0.7
		c0-0.7-0.4-0.7-0.8-0.7h-1.6V75.8z"/>
	<path d="M25.8,73.5h4.7v1h-3.3v1h3.1v0.9h-3.1v1.1h3.3v1h-4.7V73.5z"/>
	<path d="M32.8,73.5h3.6c1.4,0,1.6,0.8,1.6,1.4c0,0.6-0.2,1-0.8,1.2v0c0.6,0.1,0.7,0.8,0.7,1.3c0,0.2,0,0.8,0.3,1.1h-1.5
		c-0.1-0.2-0.1-0.4-0.1-1c0-0.7-0.3-0.9-0.7-0.9h-1.7v1.8h-1.4V73.5z M34.2,75.7H36c0.3,0,0.7-0.2,0.7-0.6c0-0.5-0.4-0.6-0.7-0.6
		h-1.7V75.7z"/>
	<path d="M40.4,73.5H44c1.4,0,1.6,0.8,1.6,1.4c0,0.6-0.2,1-0.8,1.2v0c0.6,0.1,0.7,0.8,0.7,1.3c0,0.2,0,0.8,0.3,1.1h-1.5
		c-0.1-0.2-0.1-0.4-0.1-1c0-0.7-0.3-0.9-0.7-0.9h-1.7v1.8h-1.4V73.5z M41.7,75.7h1.8c0.3,0,0.7-0.2,0.7-0.6c0-0.5-0.4-0.6-0.7-0.6
		h-1.7V75.7z"/>
	<path d="M49.4,76.7l-2.2-3.3h1.6l1.3,2.2l1.3-2.2H53l-2.2,3.3v1.7h-1.4V76.7z"/>
	<path d="M58.1,74.7h0.6l-0.4,1.8c0,0.2,0,0.2,0,0.3c0,0.1,0,0.1,0.1,0.1c0.3,0,0.7-0.5,0.7-1.2c0-1-0.8-1.7-1.9-1.7
		c-1.2,0-2,0.9-2,2c0,1.2,0.9,2,2,2c0.6,0,1.2-0.2,1.5-0.5h0.6c-0.5,0.7-1.3,1.1-2.2,1.1c-1.5,0-2.8-1.1-2.8-2.6
		c0-1.5,1.2-2.6,2.8-2.6c1.3,0,2.5,0.9,2.5,2.2c0,1.5-1.3,2-1.8,2c-0.3,0-0.4-0.1-0.4-0.4h0c-0.2,0.2-0.5,0.4-0.9,0.4
		c-0.5,0-1-0.5-1-1.2c0-0.9,0.6-1.8,1.5-1.8c0.4,0,0.7,0.1,0.9,0.5L58.1,74.7z M56.9,76.8c0.5,0,0.8-0.5,0.8-0.9
		c0-0.3-0.2-0.6-0.5-0.6c-0.5,0-0.8,0.5-0.8,0.9C56.4,76.5,56.6,76.8,56.9,76.8z"/>
	<path d="M62.3,73.5h3.4c1.4,0,1.8,0.8,1.8,1.5c0,1.1-0.6,1.7-1.7,1.7h-2.1v1.8h-1.4V73.5z M63.7,75.8h1.5c0.4,0,0.9,0,0.9-0.7
		c0-0.7-0.4-0.7-0.8-0.7h-1.6V75.8z"/>
	<path d="M69.6,73.5h4.7v1h-3.3v1h3.1v0.9h-3.1v1.1h3.3v1h-4.7V73.5z"/>
	<path d="M76.6,73.5h3.6c1.4,0,1.6,0.8,1.6,1.4c0,0.6-0.2,1-0.8,1.2v0c0.6,0.1,0.7,0.8,0.7,1.3c0,0.2,0,0.8,0.3,1.1h-1.5
		c-0.1-0.2-0.1-0.4-0.1-1c0-0.7-0.3-0.9-0.7-0.9H78v1.8h-1.4V73.5z M78,75.7h1.8c0.3,0,0.7-0.2,0.7-0.6c0-0.5-0.4-0.6-0.7-0.6H78
		V75.7z"/>
	<path d="M84.2,73.5h3.6c1.4,0,1.6,0.8,1.6,1.4c0,0.6-0.2,1-0.8,1.2v0c0.6,0.1,0.7,0.8,0.7,1.3c0,0.2,0,0.8,0.3,1.1h-1.5
		C88,78.2,88,78,88,77.5c0-0.7-0.3-0.9-0.7-0.9h-1.7v1.8h-1.4V73.5z M85.6,75.7h1.8c0.3,0,0.7-0.2,0.7-0.6c0-0.5-0.4-0.6-0.7-0.6
		h-1.7V75.7z"/>
	<path d="M93.2,76.7L91,73.5h1.6l1.3,2.2l1.3-2.2h1.6l-2.2,3.3v1.7h-1.4V76.7z"/>
	<path d="M98.8,73.5h3.4c1.4,0,1.8,0.8,1.8,1.5c0,1.1-0.6,1.7-1.7,1.7h-2.1v1.8h-1.4V73.5z M100.1,75.8h1.5c0.4,0,0.9,0,0.9-0.7
		c0-0.7-0.4-0.7-0.8-0.7h-1.6V75.8z"/>
	<path d="M109,73.3c2.7,0,3.1,1.6,3.1,2.6c0,1-0.4,2.6-3.1,2.6s-3.1-1.6-3.1-2.6C105.9,74.9,106.3,73.3,109,73.3z M109,77.7
		c1.2,0,1.7-0.9,1.7-1.7s-0.4-1.7-1.7-1.7c-1.2,0-1.7,0.9-1.7,1.7S107.7,77.7,109,77.7z"/>
	<path d="M117.2,73.3c2.7,0,3.1,1.6,3.1,2.6c0,1-0.4,2.6-3.1,2.6s-3.1-1.6-3.1-2.6C114.1,74.9,114.5,73.3,117.2,73.3z M117.2,77.7
		c1.2,0,1.7-0.9,1.7-1.7s-0.4-1.7-1.7-1.7c-1.2,0-1.7,0.9-1.7,1.7S115.9,77.7,117.2,77.7z"/>
	<path d="M122.5,73.5h1.4v4h3v1h-4.4V73.5z"/>
	<path d="M129.1,73.5h4.7v1h-3.3v1h3.1v0.9h-3.1v1.1h3.3v1h-4.7V73.5z"/>
	<path d="M139.8,77.4h-2.3l-0.4,1h-1.5l2.2-5h1.6l2.2,5h-1.5L139.8,77.4z M138.6,74.6l-0.8,2h1.6L138.6,74.6z"/>
	<path d="M143.6,73.5h3.6c1.4,0,1.6,0.8,1.6,1.4c0,0.6-0.2,1-0.8,1.2v0c0.6,0.1,0.7,0.8,0.7,1.3c0,0.2,0,0.8,0.3,1.1h-1.5
		c-0.1-0.2-0.1-0.4-0.1-1c0-0.7-0.3-0.9-0.7-0.9H145v1.8h-1.4V73.5z M145,75.7h1.8c0.3,0,0.7-0.2,0.7-0.6c0-0.5-0.4-0.6-0.7-0.6H145
		V75.7z"/>
	<path d="M155.4,75.4c-0.1-0.7-0.7-1.1-1.4-1.1c-1.3,0-1.6,1-1.6,1.7c0,0.7,0.3,1.7,1.6,1.7c0.7,0,1.3-0.3,1.4-1.1h1.5
		c-0.2,1.5-1.4,2.1-3,2.1c-1.8,0-3-0.8-3-2.6c0-1.9,1.1-2.6,3-2.6c1.2,0,2.7,0.3,2.9,2H155.4z"/>
	<path d="M159.1,73.5h1.4v1.9h2.8v-1.9h1.4v5h-1.4v-2.2h-2.8v2.2h-1.4V73.5z"/>
	<path d="M167.1,73.5h1.4v5h-1.4V73.5z"/>
	<path d="M172.4,74.4h-1.9v-1h5.1v1h-1.9v4h-1.4V74.4z"/>
	<path d="M177.6,73.5h4.7v1H179v1h3.1v0.9H179v1.1h3.3v1h-4.7V73.5z"/>
	<path d="M188.8,75.4c-0.1-0.7-0.7-1.1-1.4-1.1c-1.3,0-1.6,1-1.6,1.7c0,0.7,0.3,1.7,1.6,1.7c0.7,0,1.3-0.3,1.4-1.1h1.5
		c-0.2,1.5-1.4,2.1-3,2.1c-1.8,0-3-0.8-3-2.6c0-1.9,1.1-2.6,3-2.6c1.2,0,2.7,0.3,2.9,2H188.8z"/>
	<path d="M193.9,74.4H192v-1h5.1v1h-1.9v4h-1.4V74.4z"/>
	<path d="M202.6,74.9c-0.1-0.7-0.7-0.7-1.3-0.7c-0.6,0-0.9,0.3-0.9,0.6c0,0.3,0.2,0.4,0.6,0.5l1.7,0.3c0.9,0.1,1.6,0.5,1.6,1.4
		c0,0.9-0.6,1.7-2.6,1.7c-1.2,0-2.8-0.2-2.8-1.7h1.5c0,0.7,0.7,0.8,1.3,0.8c0.6,0,1.1-0.2,1.1-0.6c0-0.4-0.3-0.5-0.8-0.6l-1.2-0.2
		c-0.9-0.1-1.7-0.4-1.7-1.4c0-1.1,0.9-1.6,2.5-1.6c1,0,2.6,0.2,2.6,1.6H202.6z"/>
	<path d="M206.6,77.3h1.4v1.2h-1.4V77.3z"/>
	<path d="M214.6,75.4c-0.1-0.7-0.7-1.1-1.4-1.1c-1.3,0-1.6,1-1.6,1.7c0,0.7,0.3,1.7,1.6,1.7c0.7,0,1.3-0.3,1.4-1.1h1.5
		c-0.2,1.5-1.4,2.1-3,2.1c-1.8,0-3-0.8-3-2.6c0-1.9,1.1-2.6,3-2.6c1.2,0,2.7,0.3,2.9,2H214.6z"/>
	<path d="M221.1,73.3c2.7,0,3.1,1.6,3.1,2.6c0,1-0.4,2.6-3.1,2.6S218,77,218,76C218,74.9,218.4,73.3,221.1,73.3z M221.1,77.7
		c1.2,0,1.7-0.9,1.7-1.7s-0.4-1.7-1.7-1.7c-1.2,0-1.7,0.9-1.7,1.7S219.9,77.7,221.1,77.7z"/>
	<path d="M231.4,73.5h2v5h-1.3v-4h0l-1.6,4h-1.1l-1.6-4h0v4h-1.3v-5h2l1.5,3.6L231.4,73.5z"/>
</g>
<g>
	<path d="M20.4,83.3H18V82h6.5v1.2h-2.4v5.2h-1.7V83.3z"/>
	<path d="M28.2,82h6v1.2H30v1.3h4v1.2h-4v1.5h4.3v1.2h-6V82z"/>
	<path d="M38.4,82h1.7v5.1H44v1.3h-5.7V82z"/>
	<path d="M47.9,82h6v1.2h-4.3v1.3h4v1.2h-4v1.5h4.3v1.2h-6V82z"/>
	<path d="M58,82h4.3c1.8,0,2.3,1.1,2.3,2c0,1.4-0.7,2.2-2.1,2.2h-2.7v2.3H58V82z M59.8,85h1.9c0.5,0,1.2,0,1.2-0.9
		c0-0.8-0.5-0.9-1-0.9h-2V85z"/>
	<path d="M68.5,82h1.7v2.4h3.6V82h1.7v6.4h-1.7v-2.8h-3.6v2.8h-1.7V82z"/>
	<path d="M83.6,81.9c3.5,0,4,2.1,4,3.4c0,1.3-0.5,3.4-4,3.4s-4-2.1-4-3.4C79.6,83.9,80.1,81.9,83.6,81.9z M83.6,87.4
		c1.6,0,2.1-1.2,2.1-2.2s-0.6-2.2-2.1-2.2c-1.6,0-2.1,1.2-2.1,2.2S82,87.4,83.6,87.4z"/>
	<path d="M97,82h1.7v6.4h-1.9L93.3,84h0v4.5h-1.7V82h2l3.4,4.5h0V82z"/>
	<path d="M103,82h6v1.2h-4.3v1.3h4v1.2h-4v1.5h4.3v1.2h-6V82z"/>
	<path d="M120.5,82.2h6.3v1.4c-1.4,1.4-2.8,2.9-3.2,4.9h-2.1c0.3-2.1,2-3.7,3.5-5h-4.5V82.2z"/>
	<path d="M133.7,82.1c2.1,0,3.3,1.2,3.3,3.3c0,2-1.1,3.3-3.3,3.3c-2.1,0-3.3-1.2-3.3-3.3S131.6,82.1,133.7,82.1z M133.7,87.5
		c1.2,0,1.6-1,1.6-2.1s-0.4-2.1-1.6-2.1c-1.2,0-1.6,1-1.6,2.1S132.5,87.5,133.7,87.5z"/>
	<path d="M144.7,87.3h-4v-1.2l3.5-3.9h2v3.9h1.1v1.1h-1.1v1.2h-1.5V87.3z M144.7,83.5l-2.3,2.6h2.3V83.5z"/>
	<path d="M151.5,85.3h3.2v1.2h-3.2V85.3z"/>
	<path d="M160.5,86.8c0.2,0.6,0.8,0.7,1.3,0.7c1.2,0,1.6-0.6,1.6-1.7c-0.5,0.4-1.2,0.6-1.9,0.6c-1.3,0-2.9-0.4-2.9-2.1
		c0-1.5,1.3-2.2,3.1-2.2c2.6,0,3.4,1.4,3.4,3.3c0,1.7-0.7,3.3-3.5,3.3c-1.2,0-2.7-0.4-2.9-1.8H160.5z M163.3,84.2c0-0.5-0.4-1-1.5-1
		c-0.8,0-1.4,0.4-1.4,1c0,0.5,0.3,1,1.5,1C162.8,85.2,163.3,84.9,163.3,84.2z"/>
	<path d="M172.3,82.1c2.1,0,3.3,1.2,3.3,3.3c0,2-1.1,3.3-3.3,3.3c-2.1,0-3.3-1.2-3.3-3.3S170.2,82.1,172.3,82.1z M172.3,87.5
		c1.2,0,1.6-1,1.6-2.1s-0.4-2.1-1.6-2.1c-1.2,0-1.6,1-1.6,2.1S171.1,87.5,172.3,87.5z"/>
	<path d="M180.2,82.2h5.2v1.2h-4.1l-0.2,1.2c0.4-0.3,1.3-0.4,1.8-0.4c1.3,0,2.9,0.5,2.9,2.1c0,1.6-1.5,2.3-3.3,2.3
		c-1.3,0-3.2-0.4-3.3-2h1.8c0.2,0.7,0.7,0.9,1.4,0.9c1,0,1.5-0.4,1.5-1.1c0-0.9-1-1.1-1.5-1.1c-0.4,0-1,0.1-1.3,0.4h-1.7L180.2,82.2
		z"/>
	<path d="M190,85.3h3.2v1.2H190V85.3z"/>
	<path d="M196.4,82.2h6.3v1.4c-1.4,1.4-2.8,2.9-3.2,4.9h-2.1c0.3-2.1,2-3.7,3.5-5h-4.5V82.2z"/>
	<path d="M206.4,86.6c0-0.8,0.5-1.3,1.3-1.5v0c-0.7-0.2-1-0.6-1-1.3c0-1.4,1.8-1.7,3.1-1.7c1.3,0,3,0.3,3,1.7c0,0.7-0.3,1.1-1,1.3v0
		c0.8,0.2,1.3,0.7,1.3,1.5c0,1.5-1.6,2-3.3,2C208,88.6,206.4,88.2,206.4,86.6z M208.2,86.6c0,0.6,0.6,0.9,1.5,0.9
		c0.9,0,1.5-0.3,1.5-0.9c0-0.6-0.6-0.9-1.5-0.9C208.8,85.7,208.2,85.9,208.2,86.6z M210.9,83.9c0-0.5-0.7-0.7-1.3-0.7
		c-0.9,0-1.3,0.3-1.3,0.7c0,0.4,0.4,0.7,1.3,0.7C210.6,84.7,210.9,84.3,210.9,83.9z"/>
	<path d="M223.1,87.3v1.2h-6.4c0.2-3.7,4.7-2.8,4.7-4.4c0-0.5-0.4-0.9-1.2-0.9c-0.7,0-1.4,0.3-1.5,1.2h-1.8c0.1-1.8,1.5-2.3,3.2-2.3
		c2.3,0,3.1,1.1,3.1,2.1c0,1.2-1,1.6-2.7,2.2l-0.7,0.2c-0.4,0.1-0.9,0.3-1.1,0.7H223.1z"/>
	<path d="M227.8,82.2h5.2v1.2h-4.1l-0.2,1.2c0.4-0.3,1.3-0.4,1.8-0.4c1.3,0,2.9,0.5,2.9,2.1c0,1.6-1.5,2.3-3.3,2.3
		c-1.3,0-3.2-0.4-3.3-2h1.8c0.2,0.7,0.7,0.9,1.4,0.9c1,0,1.5-0.4,1.5-1.1c0-0.9-1-1.1-1.5-1.1c-0.4,0-1,0.1-1.3,0.4h-1.7L227.8,82.2
		z"/>
</g>
<g>
	<path d="M18.2,95.4c0-0.4,0.3-0.7,0.7-0.8v0c-0.4-0.1-0.6-0.4-0.6-0.7c0-0.8,1-1,1.7-1s1.7,0.2,1.7,1c0,0.4-0.2,0.6-0.6,0.7v0
		c0.4,0.1,0.7,0.4,0.7,0.8c0,0.9-0.9,1.1-1.8,1.1S18.2,96.3,18.2,95.4z M19.2,95.4c0,0.4,0.3,0.5,0.8,0.5c0.5,0,0.8-0.2,0.8-0.5
		c0-0.3-0.3-0.5-0.8-0.5C19.5,94.9,19.2,95.1,19.2,95.4z M20.7,93.9c0-0.3-0.4-0.4-0.7-0.4c-0.5,0-0.7,0.1-0.7,0.4
		c0,0.2,0.2,0.4,0.7,0.4C20.6,94.4,20.7,94.2,20.7,93.9z"/>
	<path d="M23.6,94.3h-1.1v-0.6c0.8,0,1.1-0.1,1.3-0.6h0.7v3.5h-0.9V94.3z"/>
	<path d="M26.9,94.4h0.7c0.3,0,0.4-0.2,0.4-0.4c0-0.3-0.3-0.4-0.7-0.4c-0.4,0-0.6,0.2-0.7,0.5h-1c0.1-0.9,1-1.1,1.8-1.1
		c1.1,0,1.6,0.4,1.6,1c0,0.4-0.2,0.6-0.6,0.7v0c0.4,0.1,0.7,0.4,0.7,0.8c0,0.6-0.4,1.1-1.9,1.1c-1.1,0-1.7-0.3-1.8-1.2h1
		c0,0.5,0.5,0.6,0.9,0.6c0.5,0,0.8-0.2,0.8-0.5c0-0.3-0.3-0.4-0.6-0.4h-0.7V94.4z"/>
	<path d="M32.5,92.9h2.4c1,0,1.3,0.6,1.3,1.1c0,0.8-0.4,1.2-1.2,1.2h-1.5v1.3h-1V92.9z M33.5,94.5h1c0.3,0,0.7,0,0.7-0.5
		c0-0.5-0.3-0.5-0.6-0.5h-1.1V94.5z"/>
	<path d="M37,92.9h2.6c1,0,1.2,0.6,1.2,1c0,0.4-0.2,0.7-0.6,0.9v0c0.4,0.1,0.5,0.6,0.5,1c0,0.2,0,0.6,0.2,0.8h-1.1
		c-0.1-0.2-0.1-0.3-0.1-0.7c0-0.5-0.2-0.6-0.5-0.6h-1.2v1.3h-1V92.9z M37.9,94.5h1.3c0.2,0,0.5-0.1,0.5-0.5c0-0.4-0.3-0.4-0.5-0.4
		h-1.2V94.5z"/>
	<path d="M43.7,92.8c1.9,0,2.2,1.1,2.2,1.9c0,0.7-0.3,1.9-2.2,1.9s-2.2-1.1-2.2-1.9C41.4,93.9,41.7,92.8,43.7,92.8z M43.7,95.9
		c0.9,0,1.2-0.7,1.2-1.2c0-0.6-0.3-1.2-1.2-1.2s-1.2,0.7-1.2,1.2C42.5,95.2,42.8,95.9,43.7,95.9z"/>
	<path d="M46.2,92.9h1.1l1,2.7l1-2.7h1.1l-1.6,3.6h-1L46.2,92.9z"/>
	<path d="M51.1,92.9h1v3.6h-1V92.9z"/>
	<path d="M53.1,92.9h2.2c1.2,0,1.8,0.7,1.8,1.8s-0.6,1.8-1.7,1.8h-2.3V92.9z M54.1,95.8h1.1c0.6,0,0.9-0.4,0.9-1.1
		c0-0.7-0.3-1.1-1-1.1h-1V95.8z"/>
	<path d="M58,92.9h3.3v0.7H59v0.7h2.2V95H59v0.8h2.4v0.7H58V92.9z"/>
	<path d="M65.3,92.9h0.9v3.6h-1.1L63.3,94h0v2.5h-0.9v-3.6h1.1l1.9,2.5h0V92.9z"/>
	<path d="M70.4,94.3c-0.1-0.5-0.5-0.8-1-0.8c-0.9,0-1.1,0.7-1.1,1.2c0,0.5,0.2,1.2,1.1,1.2c0.5,0,0.9-0.2,1-0.8h1.1
		c-0.1,1-1,1.5-2.1,1.5c-1.3,0-2.1-0.6-2.1-1.9s0.8-1.9,2.1-1.9c0.9,0,2,0.2,2.1,1.5H70.4z"/>
	<path d="M72.3,92.9h3.3v0.7h-2.4v0.7h2.2V95h-2.2v0.8h2.4v0.7h-3.4V92.9z"/>
	<path d="M78.9,92.9h2.6c1,0,1.2,0.6,1.2,1c0,0.4-0.2,0.7-0.6,0.9v0c0.4,0.1,0.5,0.6,0.5,1c0,0.2,0,0.6,0.2,0.8h-1.1
		c-0.1-0.2-0.1-0.3-0.1-0.7c0-0.5-0.2-0.6-0.5-0.6h-1.2v1.3h-1V92.9z M79.9,94.5h1.3c0.2,0,0.5-0.1,0.5-0.5c0-0.4-0.3-0.4-0.5-0.4
		h-1.2V94.5z"/>
	<path d="M85.6,92.8c1.9,0,2.2,1.1,2.2,1.9c0,0.7-0.3,1.9-2.2,1.9s-2.2-1.1-2.2-1.9C83.4,93.9,83.7,92.8,85.6,92.8z M85.6,95.9
		c0.9,0,1.2-0.7,1.2-1.2c0-0.6-0.3-1.2-1.2-1.2s-1.2,0.7-1.2,1.2C84.4,95.2,84.7,95.9,85.6,95.9z"/>
	<path d="M91.1,95.7h-1.6l-0.3,0.7h-1l1.6-3.6h1.2l1.6,3.6h-1L91.1,95.7z M90.3,93.7l-0.6,1.4h1.1L90.3,93.7z"/>
	<path d="M93.1,92.9h2.2c1.2,0,1.8,0.7,1.8,1.8s-0.6,1.8-1.7,1.8h-2.3V92.9z M94.1,95.8h1.1c0.6,0,0.9-0.4,0.9-1.1
		c0-0.7-0.3-1.1-1-1.1h-1V95.8z"/>
</g>
<g>
	<path d="M100.3,92.8h0.6v3.8h-0.6V92.8z"/>
</g>
<g>
	<path d="M107.3,94.3c-0.1-0.5-0.5-0.8-1-0.8c-0.9,0-1.1,0.7-1.1,1.2c0,0.5,0.2,1.2,1.1,1.2c0.5,0,0.9-0.2,1-0.8h1.1
		c-0.1,1-1,1.5-2.1,1.5c-1.3,0-2.1-0.6-2.1-1.9s0.8-1.9,2.1-1.9c0.9,0,2,0.2,2.1,1.5H107.3z"/>
	<path d="M109.2,92.9h1v1.3h2v-1.3h1v3.6h-1v-1.6h-2v1.6h-1V92.9z"/>
	<path d="M116.8,95.7h-1.6l-0.3,0.7h-1l1.6-3.6h1.2l1.6,3.6h-1L116.8,95.7z M116,93.7l-0.6,1.4h1.1L116,93.7z"/>
	<path d="M118.9,92.9h2.6c1,0,1.2,0.6,1.2,1c0,0.4-0.2,0.7-0.6,0.9v0c0.4,0.1,0.5,0.6,0.5,1c0,0.2,0,0.6,0.2,0.8h-1.1
		c-0.1-0.2-0.1-0.3-0.1-0.7c0-0.5-0.2-0.6-0.5-0.6h-1.2v1.3h-1V92.9z M119.8,94.5h1.3c0.2,0,0.5-0.1,0.5-0.5c0-0.4-0.3-0.4-0.5-0.4
		h-1.2V94.5z"/>
	<path d="M123.6,92.9h1v2.9h2.2v0.7h-3.1V92.9z"/>
	<path d="M129.5,92.8c1.9,0,2.2,1.1,2.2,1.9c0,0.7-0.3,1.9-2.2,1.9s-2.2-1.1-2.2-1.9C127.3,93.9,127.6,92.8,129.5,92.8z M129.5,95.9
		c0.9,0,1.2-0.7,1.2-1.2c0-0.6-0.3-1.2-1.2-1.2s-1.2,0.7-1.2,1.2C128.3,95.2,128.6,95.9,129.5,95.9z"/>
	<path d="M133.5,93.6h-1.3v-0.7h3.6v0.7h-1.3v2.9h-1V93.6z"/>
	<path d="M137.7,93.6h-1.3v-0.7h3.6v0.7h-1.3v2.9h-1V93.6z"/>
	<path d="M140.7,92.9h3.3v0.7h-2.4v0.7h2.2V95h-2.2v0.8h2.4v0.7h-3.4V92.9z"/>
	<path d="M145.1,95.6h1v0.6c0,0.6-0.3,1-1,1.1V97c0.3-0.1,0.4-0.2,0.5-0.6h-0.5V95.6z"/>
	<path d="M152.6,92.9h0.9v3.6h-1.1l-1.9-2.5h0v2.5h-0.9v-3.6h1.1l1.9,2.5h0V92.9z"/>
	<path d="M156.6,92.8c1.9,0,2.2,1.1,2.2,1.9c0,0.7-0.3,1.9-2.2,1.9s-2.2-1.1-2.2-1.9C154.4,93.9,154.7,92.8,156.6,92.8z M156.6,95.9
		c0.9,0,1.2-0.7,1.2-1.2c0-0.6-0.3-1.2-1.2-1.2s-1.2,0.7-1.2,1.2C155.4,95.2,155.8,95.9,156.6,95.9z"/>
	<path d="M159.7,92.9h2.6c1,0,1.2,0.6,1.2,1c0,0.4-0.2,0.7-0.6,0.9v0c0.4,0.1,0.5,0.6,0.5,1c0,0.2,0,0.6,0.2,0.8h-1.1
		c-0.1-0.2-0.1-0.3-0.1-0.7c0-0.5-0.2-0.6-0.5-0.6h-1.2v1.3h-1V92.9z M160.7,94.5h1.3c0.2,0,0.5-0.1,0.5-0.5c0-0.4-0.3-0.4-0.5-0.4
		h-1.2V94.5z"/>
	<path d="M165.4,93.6h-1.3v-0.7h3.6v0.7h-1.3v2.9h-1V93.6z"/>
	<path d="M168.4,92.9h1v1.3h2v-1.3h1v3.6h-1v-1.6h-2v1.6h-1V92.9z"/>
	<path d="M178.8,94.3c-0.1-0.5-0.5-0.8-1-0.8c-0.9,0-1.1,0.7-1.1,1.2c0,0.5,0.2,1.2,1.1,1.2c0.5,0,0.9-0.2,1-0.8h1.1
		c-0.1,1-1,1.5-2.1,1.5c-1.3,0-2.1-0.6-2.1-1.9s0.8-1.9,2.1-1.9c0.9,0,2,0.2,2.1,1.5H178.8z"/>
	<path d="M183.2,95.7h-1.6l-0.3,0.7h-1l1.6-3.6h1.2l1.6,3.6h-1L183.2,95.7z M182.4,93.7l-0.6,1.4h1.1L182.4,93.7z"/>
	<path d="M185.2,92.9h2.6c1,0,1.2,0.6,1.2,1c0,0.4-0.2,0.7-0.6,0.9v0c0.4,0.1,0.5,0.6,0.5,1c0,0.2,0,0.6,0.2,0.8H188
		c-0.1-0.2-0.1-0.3-0.1-0.7c0-0.5-0.2-0.6-0.5-0.6h-1.2v1.3h-1V92.9z M186.2,94.5h1.3c0.2,0,0.5-0.1,0.5-0.5c0-0.4-0.3-0.4-0.5-0.4
		h-1.2V94.5z"/>
	<path d="M191.9,92.8c1.9,0,2.2,1.1,2.2,1.9c0,0.7-0.3,1.9-2.2,1.9s-2.2-1.1-2.2-1.9C189.7,93.9,190,92.8,191.9,92.8z M191.9,95.9
		c0.9,0,1.2-0.7,1.2-1.2c0-0.6-0.3-1.2-1.2-1.2s-1.2,0.7-1.2,1.2C190.7,95.2,191,95.9,191.9,95.9z"/>
	<path d="M195,92.9h1v2.9h2.2v0.7H195V92.9z"/>
	<path d="M199,92.9h1v3.6h-1V92.9z"/>
	<path d="M204,92.9h0.9v3.6h-1.1l-1.9-2.5h0v2.5H201v-3.6h1.1l1.9,2.5h0V92.9z"/>
	<path d="M208.6,95.7H207l-0.3,0.7h-1l1.6-3.6h1.2l1.6,3.6h-1L208.6,95.7z M207.8,93.7l-0.6,1.4h1.1L207.8,93.7z"/>
	<path d="M216.4,95.8v0.7h-3.6c0.1-2.1,2.6-1.6,2.6-2.4c0-0.3-0.2-0.5-0.7-0.5c-0.4,0-0.8,0.2-0.8,0.7h-1c0-1,0.9-1.3,1.8-1.3
		c1.3,0,1.7,0.6,1.7,1.2c0,0.7-0.5,0.9-1.5,1.2l-0.4,0.1c-0.2,0.1-0.5,0.2-0.6,0.4H216.4z"/>
	<path d="M217.2,95.4c0-0.4,0.3-0.7,0.7-0.8v0c-0.4-0.1-0.6-0.4-0.6-0.7c0-0.8,1-1,1.7-1s1.7,0.2,1.7,1c0,0.4-0.2,0.6-0.6,0.7v0
		c0.4,0.1,0.7,0.4,0.7,0.8c0,0.9-0.9,1.1-1.8,1.1S217.2,96.3,217.2,95.4z M218.2,95.4c0,0.4,0.3,0.5,0.8,0.5c0.5,0,0.8-0.2,0.8-0.5
		c0-0.3-0.3-0.5-0.8-0.5C218.5,94.9,218.2,95.1,218.2,95.4z M219.7,93.9c0-0.3-0.4-0.4-0.7-0.4c-0.5,0-0.7,0.1-0.7,0.4
		c0,0.2,0.2,0.4,0.7,0.4C219.5,94.4,219.7,94.2,219.7,93.9z"/>
	<path d="M225.1,95.8v0.7h-3.6c0.1-2.1,2.6-1.6,2.6-2.4c0-0.3-0.2-0.5-0.7-0.5c-0.4,0-0.8,0.2-0.8,0.7h-1c0-1,0.9-1.3,1.8-1.3
		c1.3,0,1.7,0.6,1.7,1.2c0,0.7-0.5,0.9-1.5,1.2l-0.4,0.1c-0.2,0.1-0.5,0.2-0.6,0.4H225.1z"/>
	<path d="M227.8,92.9c1.2,0,1.8,0.7,1.8,1.8c0,1.1-0.6,1.8-1.8,1.8c-1.2,0-1.8-0.7-1.8-1.8S226.6,92.9,227.8,92.9z M227.8,95.9
		c0.7,0,0.9-0.6,0.9-1.2c0-0.6-0.2-1.2-0.9-1.2s-0.9,0.6-0.9,1.2C226.9,95.4,227.1,95.9,227.8,95.9z"/>
	<path d="M230.2,93h3.5v0.8c-0.8,0.8-1.5,1.6-1.8,2.7h-1.2c0.2-1.2,1.1-2,1.9-2.8h-2.5V93z"/>
</g>
</svg>
