<?xml version="1.0" encoding="utf-8"?>
<!-- Generator: Adobe Illustrator 22.1.0, SVG Export Plug-In . SVG Version: 6.00 Build 0)  -->
<svg version="1.1" id="Layer_1" xmlns="http://www.w3.org/2000/svg" xmlns:xlink="http://www.w3.org/1999/xlink" x="0px" y="0px"
	 viewBox="0 0 216 216" style="enable-background:new 0 0 216 216;" xml:space="preserve">
<style type="text/css">
	.st0{clip-path:url(#SVGID_2_);}
	.st1{fill:#FBF7F6;}
	.st2{fill:#FFFFFF;}
</style>
<g>
	<defs>
		<rect id="SVGID_1_" width="216" height="216"/>
	</defs>
	<clipPath id="SVGID_2_">
		<use xlink:href="#SVGID_1_"  style="overflow:visible;"/>
	</clipPath>
	<g class="st0">
		<rect x="-209.2" y="0.1" class="st1" width="638.4" height="318.9"/>
		<rect x="-209.2" y="0.1" class="st2" width="638.4" height="318.9"/>
		<g>
			<path d="M-160.6,78.2h23.1c9.8,0,12.1,5.8,12.1,10.5c0,7.3-3.9,11.7-11.4,11.7h-14.5v12.3h-9.3V78.2z M-151.2,94h10
				c2.9,0,6.3-0.1,6.3-4.7c0-4.5-2.7-4.9-5.4-4.9h-10.9V94z"/>
			<path d="M-107.2,78.2h32.1v6.6h-22.8v7.1h21.6v6.3h-21.6v7.9h23v6.6h-32.3V78.2z"/>
			<path d="M-55.4,78.2h25c9.5,0,11.1,5.8,11.1,9.3c0,4.2-1.7,6.9-5.6,8.3v0.1c4.1,0.6,4.7,5.8,4.7,9.2c0,1.7,0.1,5.7,1.8,7.5h-10.2
				c-0.9-1.6-0.9-3-0.9-6.6c0-4.8-2.1-6-5-6H-46v12.6h-9.3V78.2z M-46,93.4h12.4c2.1,0,4.5-1.2,4.5-4.4c0-3.4-2.7-4.3-5-4.3H-46
				V93.4z"/>
			<path d="M0.2,78.2h25c9.5,0,11.1,5.8,11.1,9.3c0,4.2-1.7,6.9-5.6,8.3v0.1c4.1,0.6,4.7,5.8,4.7,9.2c0,1.7,0.1,5.7,1.8,7.5H27.1
				c-0.9-1.6-0.9-3-0.9-6.6c0-4.8-2.1-6-5-6H9.6v12.6H0.2V78.2z M9.6,93.4H22c2.1,0,4.5-1.2,4.5-4.4c0-3.4-2.7-4.3-5-4.3H9.6V93.4z"
				/>
			<path d="M65.8,100.6L50.5,78.2h11l8.9,15l8.9-15h11l-15.2,22.4v12h-9.3V100.6z"/>
			<path d="M127.5,78.2h23.1c9.8,0,12.1,5.8,12.1,10.5c0,7.3-3.9,11.7-11.4,11.7h-14.5v12.3h-9.3V78.2z M136.9,94h10
				c2.9,0,6.3-0.1,6.3-4.7c0-4.5-2.7-4.9-5.4-4.9h-10.9V94z"/>
			<path d="M201.1,77.2c18.5,0,21.4,11,21.4,18.2c0,7.2-2.9,18.2-21.4,18.2s-21.4-11-21.4-18.2C179.8,88.2,182.6,77.2,201.1,77.2z
				 M201.1,107c8.5,0,11.5-6.3,11.5-11.6c0-5.3-3-11.6-11.5-11.6c-8.5,0-11.5,6.3-11.5,11.6C189.7,100.7,192.7,107,201.1,107z"/>
			<path d="M261,77.2c18.5,0,21.4,11,21.4,18.2c0,7.2-2.9,18.2-21.4,18.2s-21.4-11-21.4-18.2C239.6,88.2,242.5,77.2,261,77.2z
				 M261,107c8.5,0,11.5-6.3,11.5-11.6c0-5.3-3-11.6-11.5-11.6c-8.5,0-11.5,6.3-11.5,11.6C249.5,100.7,252.5,107,261,107z"/>
			<path d="M301.3,78.2h9.3v27.6h21v6.8h-30.3V78.2z"/>
			<path d="M349.4,78.2h32.1v6.6h-22.8v7.1h21.6v6.3h-21.6v7.9h23v6.6h-32.3V78.2z"/>
		</g>
		<g>
			<path d="M-149.1,136.8h-8.3l-1.5,3.7h-5.3l8-18.1h5.9l8,18.1h-5.3L-149.1,136.8z M-153.3,126.3l-2.8,7.2h5.7L-153.3,126.3z"/>
			<path d="M-102,122.4h13.2c5,0,5.9,3.1,5.9,4.9c0,2.2-0.9,3.6-2.9,4.4v0.1c2.2,0.3,2.5,3.1,2.5,4.8c0,0.9,0.1,3,0.9,3.9h-5.4
				c-0.5-0.8-0.5-1.6-0.5-3.5c0-2.5-1.1-3.2-2.6-3.2h-6.1v6.6h-4.9V122.4z M-97.1,130.4h6.5c1.1,0,2.4-0.6,2.4-2.3
				c0-1.8-1.4-2.3-2.6-2.3h-6.3V130.4z"/>
			<path d="M-26.3,129.2c-0.5-2.6-2.6-3.9-5.2-3.9c-4.7,0-5.7,3.6-5.7,6.1c0,2.5,1,6.1,5.7,6.1c2.4,0,4.7-1.1,5.2-4h5.3
				c-0.6,5.3-4.9,7.5-10.7,7.5c-6.6,0-10.7-2.8-10.7-9.6c0-6.7,4.1-9.6,10.7-9.6c4.4,0,9.9,1.1,10.6,7.3H-26.3z"/>
			<path d="M20.4,122.4h4.9v6.8h10.2v-6.8h4.9v18.1h-4.9v-7.9H25.3v7.9h-4.9V122.4z"/>
			<path d="M82.7,122.4h4.9v18.1h-4.9V122.4z"/>
			<path d="M134.9,125.8h-6.7v-3.4h18.3v3.4h-6.7v14.6h-4.9V125.8z"/>
			<path d="M187,122.4h16.9v3.4h-12v3.8h11.4v3.3H192v4.2H204v3.4h-17V122.4z"/>
			<path d="M260.7,129.2c-0.5-2.6-2.6-3.9-5.2-3.9c-4.7,0-5.7,3.6-5.7,6.1c0,2.5,1,6.1,5.7,6.1c2.4,0,4.7-1.1,5.2-4h5.3
				c-0.6,5.3-4.9,7.5-10.7,7.5c-6.6,0-10.7-2.8-10.7-9.6c0-6.7,4.1-9.6,10.7-9.6c4.4,0,9.9,1.1,10.6,7.3H260.7z"/>
			<path d="M312.3,125.8h-6.7v-3.4H324v3.4h-6.7v14.6h-4.9V125.8z"/>
			<path d="M377.1,127.6c-0.3-2.4-2.6-2.6-4.5-2.6c-2,0-3.3,0.9-3.3,2.1c0,1,0.8,1.5,2.1,1.7l6.2,1c3.3,0.5,5.8,1.8,5.8,5.1
				c0,3.4-2.3,6.1-9.4,6.1c-4.4,0-10.1-0.6-10.2-6.2h5.5c0.1,2.5,2.5,2.9,4.7,2.9c2.3,0,3.9-0.7,3.9-2.3c0-1.4-1.1-1.8-3.1-2.1
				l-4.5-0.7c-3.1-0.5-6.2-1.4-6.2-5.1c0-4,3.3-5.7,9-5.7c3.7,0,9.3,0.6,9.6,5.8H377.1z"/>
		</g>
		<g>
			<path d="M-161.8,151.7h14.6c6.2,0,7.7,3.7,7.7,6.6c0,4.6-2.4,7.4-7.2,7.4h-9.2v7.8h-5.9V151.7z M-155.9,161.7h6.3
				c1.8,0,4-0.1,4-3c0-2.8-1.7-3.1-3.4-3.1h-6.9V161.7z"/>
			<path d="M-122.5,151.7h20.3v4.1h-14.4v4.5h13.7v4h-13.7v5h14.5v4.1h-20.4V151.7z"/>
			<path d="M-84.2,151.7h15.8c6,0,7,3.7,7,5.9c0,2.6-1.1,4.3-3.5,5.2v0.1c2.6,0.4,3,3.7,3,5.8c0,1.1,0.1,3.6,1.1,4.7h-6.4
				c-0.5-1-0.6-1.9-0.6-4.2c0-3-1.3-3.8-3.1-3.8h-7.3v8h-5.9V151.7z M-78.3,161.3h7.8c1.3,0,2.8-0.7,2.8-2.8c0-2.2-1.7-2.7-3.1-2.7
				h-7.5V161.3z"/>
			<path d="M-43.5,151.7h15.8c6,0,7,3.7,7,5.9c0,2.6-1.1,4.3-3.5,5.2v0.1c2.6,0.4,3,3.7,3,5.8c0,1.1,0.1,3.6,1.1,4.7h-6.4
				c-0.5-1-0.6-1.9-0.6-4.2c0-3-1.3-3.8-3.1-3.8h-7.3v8h-5.9V151.7z M-37.6,161.3h7.8c1.3,0,2.8-0.7,2.8-2.8c0-2.2-1.7-2.7-3.1-2.7
				h-7.5V161.3z"/>
			<path d="M3.5,165.9l-9.6-14.1h6.9l5.6,9.5l5.6-9.5H19l-9.6,14.1v7.6H3.5V165.9z"/>
			<path d="M51.9,151.7h14.6c6.2,0,7.7,3.7,7.7,6.6c0,4.6-2.4,7.4-7.2,7.4h-9.2v7.8h-5.9V151.7z M57.8,161.7h6.3c1.8,0,4-0.1,4-3
				c0-2.8-1.7-3.1-3.4-3.1h-6.9V161.7z"/>
			<path d="M104,151.1c11.7,0,13.5,6.9,13.5,11.5c0,4.5-1.8,11.5-13.5,11.5s-13.5-6.9-13.5-11.5C90.5,158.1,92.3,151.1,104,151.1z
				 M104,169.9c5.4,0,7.2-4,7.2-7.3c0-3.4-1.9-7.3-7.2-7.3c-5.4,0-7.2,4-7.2,7.3C96.8,166,98.6,169.9,104,169.9z"/>
			<path d="M147.4,151.1c11.7,0,13.5,6.9,13.5,11.5c0,4.5-1.8,11.5-13.5,11.5c-11.7,0-13.5-6.9-13.5-11.5
				C133.9,158.1,135.7,151.1,147.4,151.1z M147.4,169.9c5.4,0,7.2-4,7.2-7.3c0-3.4-1.9-7.3-7.2-7.3c-5.4,0-7.2,4-7.2,7.3
				C140.2,166,142,169.9,147.4,169.9z"/>
			<path d="M178.4,151.7h5.9v17.4h13.2v4.3h-19.1V151.7z"/>
			<path d="M214.5,151.7h20.3v4.1h-14.4v4.5H234v4h-13.7v5h14.5v4.1h-20.4V151.7z"/>
			<path d="M253.4,168.3h5.9v3.9c0,3.9-1.9,6.3-5.9,6.8v-2.1c2-0.5,2.6-1.4,2.7-3.4h-2.7V168.3z"/>
			<path d="M311.2,169h-10l-1.8,4.5h-6.4l9.6-21.7h7.1l9.6,21.7H313L311.2,169z M306.2,156.4l-3.4,8.6h6.8L306.2,156.4z"/>
			<path d="M335.7,151.7h5.9v21.7h-5.9V151.7z"/>
			<path d="M376,169h-10l-1.8,4.5h-6.4l9.6-21.7h7.1l9.6,21.7h-6.4L376,169z M371,156.4l-3.4,8.6h6.8L371,156.4z"/>
		</g>
		<g>
			<path d="M-162.7,186.1h8.5c3.6,0,4.5,2.1,4.5,3.9c0,2.7-1.4,4.3-4.2,4.3h-5.3v4.5h-3.4V186.1z M-159.2,192h3.7
				c1.1,0,2.3,0,2.3-1.7c0-1.7-1-1.8-2-1.8h-4V192z"/>
			<path d="M-144.2,186.1h11.8v2.4h-8.4v2.6h8v2.3h-8v2.9h8.5v2.4h-11.9V186.1z"/>
			<path d="M-126.3,186.1h9.2c3.5,0,4.1,2.1,4.1,3.4c0,1.5-0.6,2.5-2.1,3.1v0c1.5,0.2,1.7,2.1,1.7,3.4c0,0.6,0.1,2.1,0.7,2.8h-3.8
				c-0.3-0.6-0.3-1.1-0.3-2.4c0-1.8-0.8-2.2-1.8-2.2h-4.3v4.7h-3.4V186.1z M-122.9,191.7h4.6c0.8,0,1.7-0.4,1.7-1.6
				c0-1.3-1-1.6-1.8-1.6h-4.4V191.7z"/>
			<path d="M-107.1,186.1h9.2c3.5,0,4.1,2.1,4.1,3.4c0,1.5-0.6,2.5-2.1,3.1v0c1.5,0.2,1.7,2.1,1.7,3.4c0,0.6,0.1,2.1,0.7,2.8h-3.8
				c-0.3-0.6-0.3-1.1-0.3-2.4c0-1.8-0.8-2.2-1.8-2.2h-4.3v4.7h-3.4V186.1z M-103.7,191.7h4.6c0.8,0,1.7-0.4,1.7-1.6
				c0-1.3-1-1.6-1.8-1.6h-4.4V191.7z"/>
			<path d="M-84.2,194.4l-5.6-8.3h4l3.3,5.5l3.3-5.5h4.1l-5.6,8.3v4.4h-3.4V194.4z"/>
			<path d="M-62.2,189.2h1.6l-1,4.5c-0.1,0.4-0.1,0.6-0.1,0.7c0,0.3,0.1,0.4,0.3,0.4c0.8,0,1.9-1.2,1.9-3.1c0-2.6-2.1-4.2-4.9-4.2
				c-3,0-5,2.3-5,5.1c0,2.9,2.2,5,5.2,5c1.6,0,2.9-0.5,3.9-1.2h1.6c-1.3,1.8-3.3,2.8-5.6,2.8c-3.9,0-7.1-2.8-7.1-6.7
				c0-3.8,3.1-6.7,7-6.7c3.3,0,6.4,2.2,6.4,5.5c0,3.8-3.4,5.2-4.5,5.2c-0.7,0-1.1-0.3-1.1-1h0c-0.5,0.5-1.2,1-2.2,1
				c-1.3,0-2.6-1.2-2.6-3.1c0-2.2,1.5-4.4,3.9-4.4c0.9,0,1.7,0.4,2.2,1.2L-62.2,189.2z M-65.2,194.6c1.2,0,2.1-1.3,2.1-2.4
				c0-0.8-0.6-1.4-1.4-1.4c-1.2,0-2.1,1.3-2.1,2.3C-66.5,193.9-66,194.6-65.2,194.6z"/>
			<path d="M-51.5,186.1h8.5c3.6,0,4.5,2.1,4.5,3.9c0,2.7-1.4,4.3-4.2,4.3h-5.3v4.5h-3.4V186.1z M-48.1,192h3.7c1.1,0,2.3,0,2.3-1.7
				c0-1.7-1-1.8-2-1.8h-4V192z"/>
			<path d="M-33.1,186.1h11.8v2.4h-8.4v2.6h8v2.3h-8v2.9h8.5v2.4h-11.9V186.1z"/>
			<path d="M-15.2,186.1H-6c3.5,0,4.1,2.1,4.1,3.4c0,1.5-0.6,2.5-2.1,3.1v0c1.5,0.2,1.7,2.1,1.7,3.4c0,0.6,0.1,2.1,0.7,2.8h-3.8
				c-0.3-0.6-0.3-1.1-0.3-2.4c0-1.8-0.8-2.2-1.8-2.2h-4.3v4.7h-3.4V186.1z M-11.8,191.7h4.6c0.8,0,1.7-0.4,1.7-1.6
				c0-1.3-1-1.6-1.8-1.6h-4.4V191.7z"/>
			<path d="M4,186.1h9.2c3.5,0,4.1,2.1,4.1,3.4c0,1.5-0.6,2.5-2.1,3.1v0c1.5,0.2,1.7,2.1,1.7,3.4c0,0.6,0.1,2.1,0.7,2.8h-3.8
				c-0.3-0.6-0.3-1.1-0.3-2.4c0-1.8-0.8-2.2-1.8-2.2H7.5v4.7H4V186.1z M7.5,191.7H12c0.8,0,1.7-0.4,1.7-1.6c0-1.3-1-1.6-1.8-1.6H7.5
				V191.7z"/>
			<path d="M26.9,194.4l-5.6-8.3h4l3.3,5.5l3.3-5.5H36l-5.6,8.3v4.4h-3.4V194.4z"/>
			<path d="M40.9,186.1h8.5c3.6,0,4.5,2.1,4.5,3.9c0,2.7-1.4,4.3-4.2,4.3h-5.3v4.5h-3.4V186.1z M44.3,192H48c1.1,0,2.3,0,2.3-1.7
				c0-1.7-1-1.8-2-1.8h-4V192z"/>
			<path d="M66.8,185.8c6.8,0,7.9,4,7.9,6.7c0,2.6-1.1,6.7-7.9,6.7s-7.9-4-7.9-6.7C58.9,189.8,60,185.8,66.8,185.8z M66.8,196.7
				c3.1,0,4.2-2.3,4.2-4.3s-1.1-4.3-4.2-4.3c-3.1,0-4.2,2.3-4.2,4.3S63.7,196.7,66.8,196.7z"/>
			<path d="M87.6,185.8c6.8,0,7.9,4,7.9,6.7c0,2.6-1.1,6.7-7.9,6.7c-6.8,0-7.9-4-7.9-6.7C79.7,189.8,80.8,185.8,87.6,185.8z
				 M87.6,196.7c3.1,0,4.2-2.3,4.2-4.3s-1.1-4.3-4.2-4.3c-3.1,0-4.2,2.3-4.2,4.3S84.5,196.7,87.6,196.7z"/>
			<path d="M101.2,186.1h3.4v10.2h7.7v2.5h-11.2V186.1z"/>
			<path d="M117.7,186.1h11.8v2.4h-8.4v2.6h8v2.3h-8v2.9h8.5v2.4h-11.9V186.1z"/>
			<path d="M145,196.2h-5.8l-1,2.6h-3.7l5.6-12.7h4.2l5.6,12.7H146L145,196.2z M142,188.9l-2,5h4L142,188.9z"/>
			<path d="M154.7,186.1h9.2c3.5,0,4.1,2.1,4.1,3.4c0,1.5-0.6,2.5-2.1,3.1v0c1.5,0.2,1.7,2.1,1.7,3.4c0,0.6,0.1,2.1,0.7,2.8h-3.8
				c-0.3-0.6-0.3-1.1-0.3-2.4c0-1.8-0.8-2.2-1.8-2.2h-4.3v4.7h-3.4V186.1z M158.2,191.7h4.6c0.8,0,1.7-0.4,1.7-1.6
				c0-1.3-1-1.6-1.8-1.6h-4.4V191.7z"/>
			<path d="M184.5,190.9c-0.3-1.8-1.8-2.7-3.6-2.7c-3.3,0-4,2.6-4,4.3c0,1.7,0.7,4.3,4,4.3c1.7,0,3.3-0.8,3.6-2.8h3.7
				c-0.4,3.7-3.5,5.2-7.5,5.2c-4.6,0-7.5-2-7.5-6.7c0-4.7,2.9-6.7,7.5-6.7c3.1,0,6.9,0.8,7.5,5.2H184.5z"/>
			<path d="M193.9,186.1h3.4v4.8h7.1v-4.8h3.4v12.7h-3.4v-5.5h-7.1v5.5h-3.4V186.1z"/>
			<path d="M214.3,186.1h3.4v12.7h-3.4V186.1z"/>
			<path d="M227.6,188.5h-4.7v-2.4h12.9v2.4H231v10.3h-3.4V188.5z"/>
			<path d="M240.9,186.1h11.8v2.4h-8.4v2.6h8v2.3h-8v2.9h8.5v2.4h-11.9V186.1z"/>
			<path d="M269.3,190.9c-0.3-1.8-1.8-2.7-3.6-2.7c-3.3,0-4,2.6-4,4.3c0,1.7,0.7,4.3,4,4.3c1.7,0,3.3-0.8,3.6-2.8h3.7
				c-0.4,3.7-3.5,5.2-7.5,5.2c-4.6,0-7.5-2-7.5-6.7c0-4.7,2.9-6.7,7.5-6.7c3.1,0,6.9,0.8,7.5,5.2H269.3z"/>
			<path d="M282.1,188.5h-4.7v-2.4h12.9v2.4h-4.7v10.3h-3.4V188.5z"/>
			<path d="M304.2,189.8c-0.2-1.7-1.8-1.8-3.2-1.8c-1.4,0-2.3,0.6-2.3,1.5c0,0.7,0.6,1,1.5,1.2l4.3,0.7c2.3,0.4,4.1,1.2,4.1,3.6
				c0,2.4-1.6,4.3-6.6,4.3c-3.1,0-7.1-0.4-7.1-4.4h3.9c0,1.7,1.8,2,3.3,2c1.6,0,2.7-0.5,2.7-1.6c0-1-0.8-1.2-2.1-1.5l-3.1-0.5
				c-2.2-0.3-4.3-1-4.3-3.6c0-2.8,2.3-4,6.3-4c2.6,0,6.5,0.4,6.7,4H304.2z"/>
			<path d="M314.3,195.8h3.4v3h-3.4V195.8z"/>
			<path d="M334.6,190.9c-0.3-1.8-1.8-2.7-3.6-2.7c-3.3,0-4,2.6-4,4.3c0,1.7,0.7,4.3,4,4.3c1.7,0,3.3-0.8,3.6-2.8h3.7
				c-0.4,3.7-3.5,5.2-7.5,5.2c-4.6,0-7.5-2-7.5-6.7c0-4.7,2.9-6.7,7.5-6.7c3.1,0,6.9,0.8,7.5,5.2H334.6z"/>
			<path d="M351.2,185.8c6.8,0,7.9,4,7.9,6.7c0,2.6-1.1,6.7-7.9,6.7s-7.9-4-7.9-6.7C343.3,189.8,344.4,185.8,351.2,185.8z
				 M351.2,196.7c3.1,0,4.2-2.3,4.2-4.3s-1.1-4.3-4.2-4.3c-3.1,0-4.2,2.3-4.2,4.3S348.1,196.7,351.2,196.7z"/>
			<path d="M377.4,186.1h5.1v12.7h-3.3v-10.2h0l-4,10.2h-2.9l-4-10.2h0v10.2h-3.3v-12.7h5.1l3.8,9.1L377.4,186.1z"/>
		</g>
		<g>
			<path d="M-157.8,211h-6v-3.1h16.5v3.1h-6v13.2h-4.4V211z"/>
			<path d="M-138,207.9h15.2v3.1h-10.8v3.4h10.2v3h-10.2v3.7h10.9v3.1H-138V207.9z"/>
			<path d="M-112.2,207.9h4.4v13.1h9.9v3.2h-14.4V207.9z"/>
			<path d="M-88.1,207.9h15.2v3.1h-10.8v3.4h10.2v3h-10.2v3.7h10.9v3.1h-15.3V207.9z"/>
			<path d="M-62.4,207.9h11c4.6,0,5.8,2.8,5.8,5c0,3.5-1.8,5.5-5.4,5.5h-6.9v5.8h-4.4V207.9z M-57.9,215.4h4.7c1.4,0,3,0,3-2.2
				c0-2.1-1.3-2.3-2.6-2.3h-5.2V215.4z"/>
			<path d="M-35.9,207.9h4.4v6.1h9.2v-6.1h4.4v16.3h-4.4v-7.1h-9.2v7.1h-4.4V207.9z"/>
			<path d="M2.4,207.4c8.8,0,10.1,5.2,10.1,8.6c0,3.4-1.4,8.6-10.1,8.6s-10.1-5.2-10.1-8.6C-7.7,212.6-6.3,207.4,2.4,207.4z
				 M2.4,221.5c4,0,5.4-3,5.4-5.5s-1.4-5.5-5.4-5.5c-4,0-5.4,3-5.4,5.5S-1.6,221.5,2.4,221.5z"/>
			<path d="M36.5,207.9h4.3v16.3h-4.8l-8.9-11.4h0v11.4h-4.3v-16.3h5.1l8.6,11.4h0V207.9z"/>
			<path d="M51.8,207.9H67v3.1H56.2v3.4h10.2v3H56.2v3.7h10.9v3.1H51.8V207.9z"/>
			<path d="M96.1,208.3h16.1v3.5c-3.4,3.4-7.1,7.2-8,12.3h-5.4c0.8-5.3,5-9.3,8.9-12.7H96.1V208.3z"/>
			<path d="M129.6,207.9c5.3,0,8.4,3,8.4,8.3c0,5-2.8,8.3-8.4,8.3c-5.3,0-8.4-3-8.4-8.3C121.2,210.9,124.3,207.9,129.6,207.9z
				 M129.6,221.6c3,0,4.1-2.5,4.1-5.4c0-2.9-1-5.4-4.1-5.4c-3,0-4.1,2.5-4.1,5.4C125.5,219.1,126.6,221.6,129.6,221.6z"/>
			<path d="M157.5,221.1h-10v-3l8.9-9.8h5v10h2.9v2.8h-2.9v3.1h-3.9V221.1z M157.5,211.6l-5.9,6.7h5.9V211.6z"/>
			<path d="M174.6,216.1h8.1v3.1h-8.1V216.1z"/>
			<path d="M197.5,219.9c0.5,1.5,1.9,1.7,3.3,1.7c3,0,4.1-1.6,4.1-4.4c-1.2,1.1-3,1.6-4.7,1.6c-3.3,0-7.4-1-7.4-5.2
				c0-3.7,3.2-5.7,7.9-5.7c6.6,0,8.6,3.6,8.6,8.3c0,4.4-1.9,8.4-8.8,8.4c-3.1,0-6.9-1-7.3-4.6H197.5z M204.5,213.4
				c0-1.2-0.9-2.5-3.9-2.5c-2,0-3.4,0.9-3.4,2.5c0,1.2,0.7,2.6,3.9,2.6C203.3,216,204.5,215,204.5,213.4z"/>
			<path d="M227.4,207.9c5.3,0,8.4,3,8.4,8.3c0,5-2.8,8.3-8.4,8.3c-5.3,0-8.4-3-8.4-8.3C219.1,210.9,222.1,207.9,227.4,207.9z
				 M227.4,221.6c3,0,4.1-2.5,4.1-5.4c0-2.9-1-5.4-4.1-5.4c-3,0-4.1,2.5-4.1,5.4C223.4,219.1,224.4,221.6,227.4,221.6z"/>
			<path d="M247.4,208.3h13.2v3h-10.3l-0.5,3.1c1.1-0.7,3.3-1,4.5-1c3.4,0,7.4,1.2,7.4,5.3c0,4.1-3.9,5.8-8.2,5.8
				c-3.4,0-8.1-1-8.3-5.1h4.6c0.4,1.7,1.8,2.2,3.7,2.2c2.6,0,3.9-0.9,3.9-2.7c0-2.3-2.6-2.8-3.9-2.8c-1.1,0-2.5,0.3-3.3,1.1h-4.2
				L247.4,208.3z"/>
			<path d="M272.3,216.1h8.1v3.1h-8.1V216.1z"/>
			<path d="M288.5,208.3h16.1v3.5c-3.4,3.4-7.1,7.2-8,12.3h-5.4c0.8-5.3,5-9.3,8.9-12.7h-11.5V208.3z"/>
			<path d="M313.8,219.5c0-2,1.3-3.4,3.2-3.9v0c-1.7-0.6-2.6-1.6-2.6-3.3c0-3.7,4.5-4.3,7.7-4.3c3.2,0,7.7,0.7,7.6,4.3
				c0,1.7-0.8,2.7-2.5,3.3v0c1.9,0.5,3.2,1.9,3.2,3.9c0,3.9-4,5.1-8.4,5.1C317.8,224.6,313.8,223.4,313.8,219.5z M318.4,219.3
				c0,1.6,1.5,2.3,3.8,2.3c2.3,0,3.8-0.7,3.8-2.3c0-1.6-1.5-2.3-3.8-2.3C319.9,217,318.4,217.7,318.4,219.3z M325.4,212.6
				c0-1.3-1.7-1.8-3.2-1.8c-2.3,0-3.3,0.7-3.3,1.8c0,1.1,1,1.9,3.3,1.9C324.6,214.5,325.4,213.7,325.4,212.6z"/>
			<path d="M356.2,221.1v3.1h-16.3c0.4-9.5,11.8-7.1,11.8-11c0-1.3-1.1-2.2-3-2.2c-1.8,0-3.6,0.7-3.8,3h-4.6c0.2-4.5,3.9-6,8.2-6
				c5.8,0,7.8,2.7,7.8,5.3c0,3.1-2.5,4.2-6.8,5.5l-1.8,0.6c-1,0.3-2.2,0.9-2.9,1.8H356.2z"/>
			<path d="M368.1,208.3h13.2v3H371l-0.5,3.1c1.1-0.7,3.3-1,4.5-1c3.4,0,7.4,1.2,7.4,5.3c0,4.1-3.9,5.8-8.2,5.8
				c-3.4,0-8.1-1-8.3-5.1h4.6c0.4,1.7,1.8,2.2,3.7,2.2c2.6,0,3.9-0.9,3.9-2.7c0-2.3-2.6-2.8-3.9-2.8c-1.1,0-2.5,0.3-3.3,1.1h-4.2
				L368.1,208.3z"/>
		</g>
		<g>
			<path d="M-163.3,241.8c0-1.1,0.7-1.9,1.8-2.1v0c-0.9-0.3-1.4-0.9-1.4-1.8c0-2,2.5-2.4,4.3-2.4s4.3,0.4,4.3,2.4
				c0,0.9-0.5,1.5-1.4,1.8v0c1.1,0.3,1.8,1.1,1.8,2.1c0,2.2-2.2,2.8-4.6,2.8S-163.3,244-163.3,241.8z M-160.8,241.7
				c0,0.9,0.9,1.3,2.1,1.3c1.3,0,2.1-0.4,2.1-1.3c0-0.9-0.9-1.3-2.1-1.3C-159.9,240.5-160.8,240.9-160.8,241.7z M-156.9,238
				c0-0.7-0.9-1-1.8-1c-1.3,0-1.8,0.4-1.8,1c0,0.6,0.5,1,1.8,1C-157.3,239.1-156.9,238.6-156.9,238z"/>
			<path d="M-149.6,238.8h-2.7v-1.6c2,0,2.7-0.2,3.2-1.6h1.8v8.8h-2.3V238.8z"/>
			<path d="M-141.3,239.1h1.9c0.8,0,1.1-0.5,1.1-1c0-0.8-0.8-1.1-1.8-1.1c-0.9,0-1.6,0.4-1.8,1.2h-2.5c0.3-2.2,2.4-2.8,4.5-2.8
				c2.9,0,4.1,1.1,4.1,2.6c0,0.9-0.5,1.5-1.4,1.7v0c1.1,0.2,1.8,1,1.8,2.1c0,1.4-1,2.9-4.7,2.9c-2.7,0-4.4-0.8-4.5-3.1h2.5
				c0,1.1,1.2,1.5,2.2,1.5c1.3,0,2-0.5,2-1.2c0-0.9-0.9-1.1-1.6-1.1h-1.6V239.1z"/>
			<path d="M-127.1,235.4h6.1c2.6,0,3.2,1.5,3.2,2.8c0,1.9-1,3.1-3,3.1h-3.8v3.2h-2.5V235.4z M-124.7,239.6h2.6c0.8,0,1.7,0,1.7-1.2
				c0-1.2-0.7-1.3-1.4-1.3h-2.9V239.6z"/>
			<path d="M-115.8,235.4h6.6c2.5,0,2.9,1.5,2.9,2.5c0,1.1-0.4,1.8-1.5,2.2v0c1.1,0.2,1.2,1.5,1.2,2.4c0,0.4,0,1.5,0.5,2h-2.7
				c-0.2-0.4-0.2-0.8-0.2-1.7c0-1.3-0.5-1.6-1.3-1.6h-3.1v3.3h-2.5V235.4z M-113.3,239.4h3.3c0.5,0,1.2-0.3,1.2-1.2
				c0-0.9-0.7-1.1-1.3-1.1h-3.1V239.4z"/>
			<path d="M-98.8,235.1c4.9,0,5.6,2.9,5.6,4.8c0,1.9-0.8,4.8-5.6,4.8c-4.9,0-5.6-2.9-5.6-4.8C-104.4,238-103.7,235.1-98.8,235.1z
				 M-98.8,243c2.2,0,3-1.7,3-3.1c0-1.4-0.8-3.1-3-3.1c-2.2,0-3,1.7-3,3.1C-101.8,241.3-101,243-98.8,243z"/>
			<path d="M-92.4,235.4h2.7l2.6,6.9l2.6-6.9h2.7l-4,9.1h-2.6L-92.4,235.4z"/>
			<path d="M-80,235.4h2.5v9.1H-80V235.4z"/>
			<path d="M-74.9,235.4h5.6c3.1,0,4.5,1.8,4.5,4.5s-1.4,4.5-4.2,4.5h-5.9V235.4z M-72.4,242.7h2.7c1.6,0,2.4-1,2.4-2.9
				c0-1.7-0.7-2.7-2.6-2.7h-2.5V242.7z"/>
			<path d="M-62.4,235.4h8.5v1.7h-6v1.9h5.7v1.6h-5.7v2.1h6.1v1.7h-8.5V235.4z"/>
			<path d="M-43.8,235.4h2.4v9.1h-2.7l-4.9-6.3h0v6.3h-2.4v-9.1h2.9l4.8,6.3h0V235.4z"/>
			<path d="M-31.1,238.8c-0.2-1.3-1.3-2-2.6-2c-2.3,0-2.8,1.8-2.8,3.1c0,1.2,0.5,3.1,2.8,3.1c1.2,0,2.3-0.6,2.6-2h2.7
				c-0.3,2.6-2.5,3.7-5.4,3.7c-3.3,0-5.4-1.4-5.4-4.8s2.1-4.8,5.4-4.8c2.2,0,5,0.6,5.3,3.7H-31.1z"/>
			<path d="M-26.2,235.4h8.5v1.7h-6v1.9h5.7v1.6h-5.7v2.1h6.1v1.7h-8.5V235.4z"/>
			<path d="M-9.5,235.4h6.6c2.5,0,2.9,1.5,2.9,2.5c0,1.1-0.4,1.8-1.5,2.2v0c1.1,0.2,1.2,1.5,1.2,2.4c0,0.4,0,1.5,0.5,2h-2.7
				c-0.2-0.4-0.2-0.8-0.2-1.7c0-1.3-0.5-1.6-1.3-1.6H-7v3.3h-2.5V235.4z M-7,239.4h3.3c0.5,0,1.2-0.3,1.2-1.2c0-0.9-0.7-1.1-1.3-1.1
				H-7V239.4z"/>
			<path d="M7.5,235.1c4.9,0,5.6,2.9,5.6,4.8c0,1.9-0.8,4.8-5.6,4.8s-5.6-2.9-5.6-4.8C1.9,238,2.6,235.1,7.5,235.1z M7.5,243
				c2.2,0,3-1.7,3-3.1c0-1.4-0.8-3.1-3-3.1s-3,1.7-3,3.1C4.5,241.3,5.3,243,7.5,243z"/>
			<path d="M21.5,242.6h-4.2l-0.7,1.9H14l4-9.1h3l4,9.1h-2.7L21.5,242.6z M19.5,237.3l-1.4,3.6h2.8L19.5,237.3z"/>
			<path d="M26.7,235.4h5.6c3.1,0,4.5,1.8,4.5,4.5s-1.4,4.5-4.2,4.5h-5.9V235.4z M29.1,242.7h2.7c1.6,0,2.4-1,2.4-2.9
				c0-1.7-0.7-2.7-2.6-2.7h-2.5V242.7z"/>
		</g>
		<g>
			<path d="M45,235.1h1.6v9.6H45V235.1z"/>
		</g>
		<g>
			<path d="M62.6,238.8c-0.2-1.3-1.3-2-2.6-2c-2.3,0-2.8,1.8-2.8,3.1c0,1.2,0.5,3.1,2.8,3.1c1.2,0,2.3-0.6,2.6-2h2.7
				c-0.3,2.6-2.5,3.7-5.4,3.7c-3.3,0-5.4-1.4-5.4-4.8s2.1-4.8,5.4-4.8c2.2,0,5,0.6,5.3,3.7H62.6z"/>
			<path d="M67.4,235.4h2.5v3.4H75v-3.4h2.5v9.1H75v-3.9h-5.1v3.9h-2.5V235.4z"/>
			<path d="M86.8,242.6h-4.2l-0.7,1.9h-2.7l4-9.1h3l4,9.1h-2.7L86.8,242.6z M84.7,237.3l-1.4,3.6h2.8L84.7,237.3z"/>
			<path d="M91.9,235.4h6.6c2.5,0,2.9,1.5,2.9,2.5c0,1.1-0.4,1.8-1.5,2.2v0c1.1,0.2,1.2,1.5,1.2,2.4c0,0.4,0,1.5,0.5,2H99
				c-0.2-0.4-0.2-0.8-0.2-1.7c0-1.3-0.5-1.6-1.3-1.6h-3.1v3.3h-2.5V235.4z M94.3,239.4h3.3c0.5,0,1.2-0.3,1.2-1.2
				c0-0.9-0.7-1.1-1.3-1.1h-3.1V239.4z"/>
			<path d="M103.8,235.4h2.5v7.3h5.5v1.8h-8V235.4z"/>
			<path d="M118.9,235.1c4.9,0,5.6,2.9,5.6,4.8c0,1.9-0.8,4.8-5.6,4.8c-4.9,0-5.6-2.9-5.6-4.8C113.2,238,114,235.1,118.9,235.1z
				 M118.9,243c2.2,0,3-1.7,3-3.1c0-1.4-0.8-3.1-3-3.1c-2.2,0-3,1.7-3,3.1C115.8,241.3,116.6,243,118.9,243z"/>
			<path d="M129.1,237.1h-3.4v-1.7h9.2v1.7h-3.4v7.3h-2.5V237.1z"/>
			<path d="M139.6,237.1h-3.4v-1.7h9.2v1.7h-3.4v7.3h-2.5V237.1z"/>
			<path d="M147.3,235.4h8.5v1.7h-6v1.9h5.7v1.6h-5.7v2.1h6.1v1.7h-8.5V235.4z"/>
			<path d="M158.5,242.3h2.5v1.6c0,1.6-0.8,2.6-2.5,2.9v-0.9c0.8-0.2,1.1-0.6,1.1-1.4h-1.1V242.3z"/>
			<path d="M177.4,235.4h2.4v9.1h-2.7l-4.9-6.3h0v6.3h-2.4v-9.1h2.9l4.8,6.3h0V235.4z"/>
			<path d="M187.7,235.1c4.9,0,5.6,2.9,5.6,4.8c0,1.9-0.8,4.8-5.6,4.8s-5.6-2.9-5.6-4.8C182,238,182.8,235.1,187.7,235.1z
				 M187.7,243c2.2,0,3-1.7,3-3.1c0-1.4-0.8-3.1-3-3.1s-3,1.7-3,3.1C184.7,241.3,185.4,243,187.7,243z"/>
			<path d="M195.5,235.4h6.6c2.5,0,2.9,1.5,2.9,2.5c0,1.1-0.4,1.8-1.5,2.2v0c1.1,0.2,1.2,1.5,1.2,2.4c0,0.4,0,1.5,0.5,2h-2.7
				c-0.2-0.4-0.2-0.8-0.2-1.7c0-1.3-0.5-1.6-1.3-1.6H198v3.3h-2.5V235.4z M198,239.4h3.3c0.5,0,1.2-0.3,1.2-1.2
				c0-0.9-0.7-1.1-1.3-1.1H198V239.4z"/>
			<path d="M210,237.1h-3.4v-1.7h9.2v1.7h-3.4v7.3H210V237.1z"/>
			<path d="M217.6,235.4h2.5v3.4h5.1v-3.4h2.5v9.1h-2.5v-3.9h-5.1v3.9h-2.5V235.4z"/>
			<path d="M243.9,238.8c-0.2-1.3-1.3-2-2.6-2c-2.3,0-2.8,1.8-2.8,3.1c0,1.2,0.5,3.1,2.8,3.1c1.2,0,2.3-0.6,2.6-2h2.7
				c-0.3,2.6-2.5,3.7-5.4,3.7c-3.3,0-5.4-1.4-5.4-4.8s2.1-4.8,5.4-4.8c2.2,0,5,0.6,5.3,3.7H243.9z"/>
			<path d="M255,242.6h-4.2l-0.7,1.9h-2.7l4-9.1h3l4,9.1h-2.7L255,242.6z M252.9,237.3l-1.4,3.6h2.8L252.9,237.3z"/>
			<path d="M260.2,235.4h6.6c2.5,0,2.9,1.5,2.9,2.5c0,1.1-0.4,1.8-1.5,2.2v0c1.1,0.2,1.2,1.5,1.2,2.4c0,0.4,0,1.5,0.5,2h-2.7
				c-0.2-0.4-0.2-0.8-0.2-1.7c0-1.3-0.5-1.6-1.3-1.6h-3.1v3.3h-2.5V235.4z M262.6,239.4h3.3c0.5,0,1.2-0.3,1.2-1.2
				c0-0.9-0.7-1.1-1.3-1.1h-3.1V239.4z"/>
			<path d="M277.1,235.1c4.9,0,5.6,2.9,5.6,4.8c0,1.9-0.8,4.8-5.6,4.8c-4.9,0-5.6-2.9-5.6-4.8C271.5,238,272.3,235.1,277.1,235.1z
				 M277.1,243c2.2,0,3-1.7,3-3.1c0-1.4-0.8-3.1-3-3.1s-3,1.7-3,3.1C274.1,241.3,274.9,243,277.1,243z"/>
			<path d="M285,235.4h2.5v7.3h5.5v1.8h-8V235.4z"/>
			<path d="M295,235.4h2.5v9.1H295V235.4z"/>
			<path d="M307.8,235.4h2.4v9.1h-2.7l-4.9-6.3h0v6.3h-2.4v-9.1h2.9l4.8,6.3h0V235.4z"/>
			<path d="M319.5,242.6h-4.2l-0.7,1.9h-2.7l4-9.1h3l4,9.1h-2.7L319.5,242.6z M317.4,237.3l-1.4,3.6h2.8L317.4,237.3z"/>
			<path d="M339.1,242.7v1.7h-9.1c0.2-5.3,6.6-4,6.6-6.1c0-0.7-0.6-1.2-1.7-1.2c-1,0-2,0.4-2.1,1.7h-2.5c0.1-2.5,2.2-3.3,4.6-3.3
				c3.2,0,4.3,1.5,4.3,2.9c0,1.8-1.4,2.3-3.8,3.1l-1,0.3c-0.5,0.2-1.2,0.5-1.6,1H339.1z"/>
			<path d="M341.2,241.8c0-1.1,0.7-1.9,1.8-2.1v0c-0.9-0.3-1.4-0.9-1.4-1.8c0-2,2.5-2.4,4.3-2.4s4.3,0.4,4.3,2.4
				c0,0.9-0.5,1.5-1.4,1.8v0c1.1,0.3,1.8,1.1,1.8,2.1c0,2.2-2.2,2.8-4.6,2.8S341.2,244,341.2,241.8z M343.8,241.7
				c0,0.9,0.8,1.3,2.1,1.3c1.3,0,2.1-0.4,2.1-1.3c0-0.9-0.8-1.3-2.1-1.3C344.6,240.5,343.8,240.9,343.8,241.7z M347.7,238
				c0-0.7-0.9-1-1.8-1c-1.3,0-1.8,0.4-1.8,1c0,0.6,0.5,1,1.8,1C347.2,239.1,347.7,238.6,347.7,238z"/>
			<path d="M361.4,242.7v1.7h-9.1c0.2-5.3,6.6-4,6.6-6.1c0-0.7-0.6-1.2-1.7-1.2c-1,0-2,0.4-2.1,1.7h-2.5c0.1-2.5,2.2-3.3,4.6-3.3
				c3.2,0,4.3,1.5,4.3,2.9c0,1.8-1.4,2.3-3.8,3.1l-1,0.3c-0.5,0.2-1.2,0.5-1.6,1H361.4z"/>
			<path d="M368.1,235.4c3,0,4.6,1.7,4.6,4.6c0,2.8-1.5,4.6-4.6,4.6c-3,0-4.6-1.7-4.6-4.6S365.2,235.4,368.1,235.4z M368.1,243
				c1.7,0,2.3-1.4,2.3-3c0-1.6-0.6-3-2.3-3c-1.7,0-2.3,1.4-2.3,3C365.9,241.6,366.4,243,368.1,243z"/>
			<path d="M374.3,235.6h8.9v1.9c-1.9,1.9-3.9,4-4.5,6.9h-3c0.4-2.9,2.8-5.2,4.9-7.1h-6.4V235.6z"/>
		</g>
	</g>
</g>
</svg>
