<?xml version="1.0" encoding="utf-8"?>
<!-- Generator: Adobe Illustrator 22.1.0, SVG Export Plug-In . SVG Version: 6.00 Build 0)  -->
<svg version="1.1" id="Layer_1" xmlns="http://www.w3.org/2000/svg" xmlns:xlink="http://www.w3.org/1999/xlink" x="0px" y="0px"
	 viewBox="0 0 247.5 346.5" style="enable-background:new 0 0 247.5 346.5;" xml:space="preserve">
<style type="text/css">
	.st0{fill:#B5AA92;}
</style>
<rect x="-3.7" y="-3.8" width="254.7" height="356"/>
<g>
	<path class="st0" d="M215.4,319.5h0.6v-2.8h0l1.5,2.3h0.1l1.5-2.3h0v2.8h0.6v-3.9H219l-1.5,2.4h0l-1.5-2.4h-0.6V319.5z
		 M208.2,317.5c0-0.8,0.7-1.5,1.6-1.5c0.9,0,1.6,0.7,1.6,1.5c0,0.8-0.7,1.5-1.6,1.5C208.9,319,208.2,318.4,208.2,317.5 M207.5,317.5
		c0,1.1,1,2.1,2.3,2.1c1.3,0,2.3-0.9,2.3-2.1c0-1.1-1-2.1-2.3-2.1C208.5,315.5,207.5,316.4,207.5,317.5 M204.3,318.4
		c-0.4,0.4-0.9,0.7-1.6,0.7c-1,0-1.7-0.7-1.7-1.5c0-0.8,0.7-1.5,1.6-1.5c0.5,0,1.1,0.2,1.5,0.6l0.4-0.4c-0.5-0.4-1.2-0.7-1.9-0.7
		c-1.3,0-2.3,0.9-2.3,2.1c0,1.1,0.9,2.1,2.3,2.1c0.9,0,1.6-0.4,2-0.8L204.3,318.4z M196.6,319.1c0,0.2,0.2,0.4,0.5,0.4
		c0.3,0,0.5-0.2,0.5-0.4c0-0.2-0.2-0.4-0.5-0.4C196.8,318.7,196.6,318.9,196.6,319.1 M191.4,316.3L191.4,316.3l0.8,1.6h-1.6
		L191.4,316.3z M189.2,319.5h0.6l0.5-1.1h2l0.5,1.1h0.7l-1.9-3.9h-0.6L189.2,319.5z M186.5,315.6l-1.3,1.5l-1.3-1.5h-0.8l1.7,2.1
		v1.8h0.6v-1.8l1.7-2.1H186.5z M179.6,315.6v2.9h0l-2.6-2.9h-0.5v3.9h0.6v-2.9h0l2.6,2.9h0.5v-3.9H179.6z M172.7,315.6l-1.3,1.5
		l-1.3-1.5h-0.8l1.7,2.1v1.8h0.6v-1.8l1.7-2.1H172.7z M165.2,316.3L165.2,316.3l0.8,1.6h-1.6L165.2,316.3z M163,319.5h0.6l0.5-1.1h2
		l0.5,1.1h0.7l-1.9-3.9h-0.6L163,319.5z M157,318.9v-2.8h1.3c0.6,0,0.9,0.1,1.1,0.4c0.3,0.3,0.4,0.6,0.4,1c0,0.4-0.1,0.8-0.4,1
		c-0.3,0.2-0.5,0.4-1.1,0.4H157z M158.2,319.5c0.8,0,1.2-0.2,1.6-0.6c0.4-0.4,0.6-0.8,0.6-1.4c0-0.5-0.2-1-0.5-1.4
		c-0.4-0.3-0.8-0.6-1.6-0.6h-1.9v3.9H158.2z M149.6,318.5c-0.3,0-0.6-0.2-0.6-0.7c0-0.8,0.7-1.3,1.1-1.3c0.4,0,0.6,0.3,0.7,0.7
		l-0.3,0.9C150.2,318.4,149.9,318.5,149.6,318.5 M151.1,316.2l-0.2,0.5c-0.1-0.3-0.4-0.6-0.8-0.6c-0.7,0-1.7,0.8-1.7,1.9
		c0,0.8,0.5,1.1,1,1.1c0.4,0,0.8-0.2,1.1-0.6v0.1c0,0.3,0.3,0.5,0.7,0.5c0.8,0,1.8-0.8,1.8-2.1c0-1.3-1.1-2.2-2.7-2.2
		c-1.8,0-3.4,1.2-3.4,3c0,1.8,1.7,2.7,3.1,2.7c0.8,0,1.6-0.3,2-0.5l-0.1-0.4c-0.4,0.2-1.1,0.4-1.8,0.4c-1.2,0-2.6-0.7-2.6-2.3
		c0-1.6,1.4-2.6,2.9-2.6c1.4,0,2.3,0.8,2.3,1.8c0,1-0.8,1.6-1.3,1.6c-0.2,0-0.4-0.1-0.4-0.4c0,0,0-0.1,0-0.1l0.6-1.9H151.1z
		 M142.1,316.3L142.1,316.3l0.8,1.6h-1.6L142.1,316.3z M140,319.5h0.6l0.5-1.1h2l0.5,1.1h0.7l-1.9-3.9h-0.6L140,319.5z M137.3,315.6
		l-1.3,1.5l-1.3-1.5H134l1.7,2.1v1.8h0.6v-1.8l1.7-2.1H137.3z M130.3,315.6v2.9h0l-2.6-2.9h-0.5v3.9h0.6v-2.9h0l2.6,2.9h0.5v-3.9
		H130.3z M123.4,315.6l-1.3,1.5l-1.3-1.5h-0.8l1.7,2.1v1.8h0.6v-1.8l1.7-2.1H123.4z M115.9,316.3L115.9,316.3l0.8,1.6h-1.6
		L115.9,316.3z M113.7,319.5h0.6l0.5-1.1h2l0.5,1.1h0.7l-1.9-3.9h-0.6L113.7,319.5z M107.7,318.9v-2.8h1.3c0.6,0,0.9,0.1,1.1,0.4
		c0.3,0.3,0.4,0.6,0.4,1c0,0.4-0.1,0.8-0.4,1c-0.3,0.2-0.5,0.4-1.1,0.4H107.7z M109,319.5c0.8,0,1.2-0.2,1.6-0.6
		c0.4-0.4,0.6-0.8,0.6-1.4c0-0.5-0.2-1-0.5-1.4c-0.4-0.3-0.8-0.6-1.6-0.6h-1.9v3.9H109z M100.6,316.8c0,0.2,0.2,0.4,0.5,0.4
		c0.3,0,0.5-0.2,0.5-0.4c0-0.2-0.2-0.4-0.5-0.4C100.8,316.4,100.6,316.5,100.6,316.8 M100.6,319.1c0,0.2,0.2,0.4,0.5,0.4
		c0.3,0,0.5-0.2,0.5-0.4c0-0.2-0.2-0.4-0.5-0.4C100.8,318.7,100.6,318.9,100.6,319.1 M97.3,315.6l-1.3,1.5l-1.3-1.5H94l1.7,2.1v1.8
		h0.6v-1.8l1.7-2.1H97.3z M88.8,315.6v3.9H92v-0.5h-2.6v-3.4H88.8z M84.2,316.1c0.3,0,0.5,0,0.7,0.2c0.1,0.1,0.2,0.2,0.2,0.4
		c0,0.2-0.1,0.3-0.2,0.4c-0.2,0.2-0.4,0.2-0.7,0.2h-1.6v-1.3H84.2z M82.5,319.5v-1.5h1.6c0.6,0,0.9-0.1,1.2-0.4
		c0.2-0.2,0.3-0.5,0.3-0.8c0-0.3-0.1-0.6-0.3-0.8c-0.3-0.3-0.7-0.4-1.2-0.4h-2.3v3.9H82.5z M77.6,317.2h-1.7v-1h2.7v-0.5h-3.3v3.9
		h3.5v-0.5h-2.9v-1.2h1.7V317.2z M70.4,316.1c0.3,0,0.6,0,0.8,0.2c0.1,0.1,0.2,0.2,0.2,0.4c0,0.4-0.3,0.6-0.8,0.6h-1.8v-1.3H70.4z
		 M68.7,319.5v-1.5h1.6l0.9,1.5h0.7l-1-1.6c0.6-0.1,1-0.5,1-1.1c0-0.3-0.1-0.6-0.3-0.8c-0.3-0.3-0.6-0.4-1.2-0.4h-2.3v3.9H68.7z
		 M62.3,315.6l-1.3,1.5l-1.3-1.5H59l1.7,2.1v1.8h0.6v-1.8l1.7-2.1H62.3z M53.8,315.6v3.9H57v-0.5h-2.6v-3.4H53.8z M47.1,318.9v-2.8
		h1.3c0.6,0,0.9,0.1,1.1,0.4c0.3,0.3,0.4,0.6,0.4,1c0,0.4-0.1,0.8-0.4,1c-0.3,0.2-0.5,0.4-1.1,0.4H47.1z M48.3,319.5
		c0.8,0,1.2-0.2,1.6-0.6c0.4-0.4,0.6-0.8,0.6-1.4c0-0.5-0.2-1-0.5-1.4c-0.4-0.3-0.8-0.6-1.6-0.6h-1.9v3.9H48.3z M42.2,315.6v2.9h0
		l-2.6-2.9h-0.5v3.9h0.6v-2.9h0l2.6,2.9h0.5v-3.9H42.2z M35.5,315.6h-0.6v3.9h0.6V315.6z M30.8,315.6l-2.3,2v-2h-0.6v3.9h0.6v-1.2
		l1-0.8l1.7,2h0.8l-2-2.4l1.7-1.5H30.8z"/>
	<path class="st0" d="M219.6,282.1l-1.3,1.5l-1.3-1.5h-0.8l1.7,2.1v1.8h0.6v-1.8l1.7-2.1H219.6z M210.2,283.7h-1.7v-1h2.7v-0.5h-3.3
		v3.9h3.5v-0.5h-2.9v-1.2h1.7V283.7z M199.5,282.1v3.9h3.2v-0.5h-2.6v-3.4H199.5z M193.9,282.6c-0.5-0.4-1.2-0.7-1.9-0.7
		c-1.3,0-2.3,0.9-2.3,2.1c0,1.1,1,2.1,2.3,2.1c0.7,0,1.4-0.2,1.9-0.6v-1.7H192v0.5h1.3v0.8c-0.3,0.2-0.8,0.4-1.3,0.4
		c-1.1,0-1.7-0.7-1.7-1.5c0-0.8,0.7-1.5,1.7-1.5c0.5,0,1.1,0.2,1.5,0.5L193.9,282.6z M184.3,282.1h-0.6v3.9h0.6V282.1z M177.3,282.1
		v2.6c0,0.6-0.5,0.9-1.2,0.9c-0.7,0-1.2-0.3-1.2-0.9v-2.6h-0.6v2.6c0,0.9,0.8,1.4,1.8,1.4c1,0,1.8-0.5,1.8-1.4v-2.6H177.3z
		 M166.4,284.8l0.5,0.7c-0.1,0-0.2,0-0.4,0c-0.9,0-1.6-0.7-1.6-1.5c0-0.8,0.7-1.5,1.6-1.5c0.9,0,1.6,0.7,1.6,1.5
		c0,0.5-0.3,1-0.7,1.3l-0.5-0.7L166.4,284.8z M164.4,284c0,1.1,1,2.1,2.3,2.1c0.2,0,0.5,0,0.7-0.1l0.5,0.7l0.6-0.2l-0.6-0.8
		c0.6-0.4,1-1,1-1.7c0-1.1-1-2.1-2.3-2.1C165.4,282,164.4,282.9,164.4,284 M152.1,282.1v3.9h3.2v-0.5h-2.6v-3.4H152.1z M145.6,283.7
		h-1.7v-1h2.7v-0.5h-3.3v3.9h3.5v-0.5h-2.9v-1.2h1.7V283.7z M135.9,282.8L135.9,282.8l0.8,1.6h-1.6L135.9,282.8z M133.7,286h0.6
		l0.5-1.1h2l0.5,1.1h0.7l-1.9-3.9h-0.6L133.7,286z M125.4,286v-1.8h2.5v1.8h0.6v-3.9h-0.6v1.5h-2.5v-1.5h-0.6v3.9H125.4z
		 M119.1,284.9c-0.4,0.4-0.9,0.7-1.6,0.7c-1,0-1.7-0.7-1.7-1.5c0-0.8,0.7-1.5,1.6-1.5c0.5,0,1.1,0.2,1.5,0.6l0.4-0.4
		c-0.5-0.4-1.2-0.7-1.9-0.7c-1.3,0-2.3,0.9-2.3,2.1c0,1.1,0.9,2.1,2.3,2.1c0.9,0,1.6-0.4,2-0.8L119.1,284.9z M109.8,282.1h-0.6v3.9
		h0.6V282.1z M99.1,286h0.6v-2.8h0l1.5,2.3h0.1l1.5-2.3h0v2.8h0.6v-3.9h-0.6l-1.5,2.4h0l-1.5-2.4h-0.6V286z M86.8,284l1.2,1.1
		c-0.5,0.3-0.9,0.5-1.2,0.5c-0.5,0-1-0.2-1-0.8c0-0.6,0.5-0.8,0.9-1L86.8,284z M88.5,281.9c-0.3-0.2-0.7-0.4-1.2-0.4
		c-0.7,0-1.3,0.4-1.3,1.1c0,0.3,0.1,0.5,0.3,0.7c-0.6,0.2-1.1,0.6-1.1,1.4c0,0.9,0.9,1.3,1.6,1.3c0.4,0,1-0.2,1.7-0.6l0.6,0.5h0.8
		l-0.9-0.9c0.3-0.3,0.6-0.6,0.9-1.1l-0.5-0.3c-0.3,0.4-0.5,0.7-0.8,1l-1.1-1.1c-0.2-0.2-0.8-0.7-0.8-1c0-0.3,0.3-0.5,0.7-0.5
		c0.4,0,0.7,0.2,0.9,0.3L88.5,281.9z M73.6,282.8L73.6,282.8l0.8,1.6h-1.6L73.6,282.8z M71.4,286H72l0.5-1.1h2l0.5,1.1h0.7l-1.9-3.9
		h-0.6L71.4,286z M66.5,282.1l-1.3,1.5l-1.3-1.5h-0.8l1.7,2.1v1.8h0.6v-1.8l1.7-2.1H66.5z M57.5,282.1v2.9h0l-2.6-2.9h-0.5v3.9h0.6
		V283h0l2.6,2.9h0.5v-3.9H57.5z M48.5,282.1l-1.3,1.5l-1.3-1.5h-0.8l1.7,2.1v1.8h0.6v-1.8l1.7-2.1H48.5z M38.8,282.8L38.8,282.8
		l0.8,1.6H38L38.8,282.8z M36.6,286h0.6l0.5-1.1h2l0.5,1.1H41l-1.9-3.9h-0.6L36.6,286z M28.4,285.4v-2.8h1.3c0.6,0,0.9,0.1,1.1,0.4
		c0.3,0.3,0.4,0.6,0.4,1c0,0.4-0.1,0.8-0.4,1c-0.3,0.2-0.5,0.4-1.1,0.4H28.4z M29.7,286c0.8,0,1.2-0.2,1.6-0.6
		c0.4-0.3,0.6-0.8,0.6-1.4c0-0.5-0.2-1-0.5-1.4c-0.4-0.3-0.8-0.6-1.6-0.6h-1.9v3.9H29.7z"/>
	<path class="st0" d="M218.9,272.7h-1.7v-1h2.7v-0.5h-3.3v3.9h3.5v-0.5h-2.9v-1.2h1.7V272.7z M204.7,271.1v2.9h0l-2.6-2.9h-0.5v3.9
		h0.6V272h0l2.6,2.9h0.5v-3.9H204.7z M188.6,271.8L188.6,271.8l0.8,1.6h-1.6L188.6,271.8z M186.5,275h0.6l0.5-1.1h2l0.5,1.1h0.7
		l-1.9-3.9h-0.6L186.5,275z M172.9,271.1v3.9h3.2v-0.5h-2.6v-3.4H172.9z M149.2,271.1v3.9h3.2v-0.5h-2.6v-3.4H149.2z M137.9,271.1
		h-0.6v3.9h0.6V271.1z M124.7,271.6c0.3,0,0.6,0,0.8,0.2c0.1,0.1,0.2,0.2,0.2,0.4c0,0.3-0.3,0.6-0.8,0.6h-1.8v-1.3H124.7z
		 M123.1,275v-1.5h1.6l0.9,1.5h0.7l-1-1.6c0.6-0.1,1-0.5,1-1.1c0-0.3-0.1-0.6-0.3-0.8c-0.3-0.3-0.6-0.4-1.2-0.4h-2.3v3.9H123.1z
		 M110.2,271.6c0.3,0,0.5,0,0.7,0.2c0.1,0.1,0.2,0.2,0.2,0.4c0,0.2-0.1,0.3-0.2,0.4c-0.2,0.2-0.4,0.2-0.7,0.2h-1.6v-1.3H110.2z
		 M108.5,275v-1.5h1.6c0.6,0,0.9-0.1,1.2-0.4c0.2-0.2,0.3-0.5,0.3-0.8c0-0.3-0.1-0.6-0.3-0.8c-0.3-0.3-0.7-0.4-1.2-0.4h-2.3v3.9
		H108.5z M94.9,271.8L94.9,271.8l0.8,1.6h-1.6L94.9,271.8z M92.8,275h0.6l0.5-1.1h2l0.5,1.1h0.7l-1.9-3.9h-0.6L92.8,275z M69.1,273
		c0-0.8,0.7-1.5,1.5-1.5c0.8,0,1.5,0.7,1.5,1.5s-0.7,1.5-1.5,1.5C69.8,274.5,69.1,273.9,69.1,273 M68.5,273c0,1.1,1,2.1,2.1,2.1
		c1.2,0,2.1-0.9,2.1-2.1c0-1.1-1-2.1-2.1-2.1C69.4,271,68.5,271.9,68.5,273 M54.2,273c0-0.8,0.7-1.5,1.5-1.5c0.8,0,1.5,0.7,1.5,1.5
		s-0.7,1.5-1.5,1.5C54.9,274.5,54.2,273.9,54.2,273 M53.6,273c0,1.1,1,2.1,2.1,2.1c1.2,0,2.1-0.9,2.1-2.1c0-1.1-1-2.1-2.1-2.1
		C54.6,271,53.6,271.9,53.6,273 M40.2,272.1c0.4-0.3,0.7-0.6,1.4-0.6c0.5,0,0.9,0.2,0.9,0.6c0,0.5-0.7,0.7-1,0.7
		c-0.9,0.2-1.7,0.7-1.7,1.7v0.5h3.2v-0.5h-2.6v-0.1c0-0.6,0.5-0.9,1.1-1.1c0.6-0.2,1.6-0.4,1.6-1.3c0-0.7-0.8-1.1-1.6-1.1
		c-0.8,0-1.3,0.3-1.7,0.7L40.2,272.1z M27.3,272.1l1-0.5v3.3h0.6v-3.9h-0.6l-1.2,0.5L27.3,272.1z"/>
	<path class="st0" d="M215.4,264h0.6v-2.8h0l1.5,2.3h0.1l1.5-2.3h0v2.8h0.6v-3.9H219l-1.5,2.4h0l-1.5-2.4h-0.6V264z M209.5,260.6
		c0.3,0,0.5,0,0.7,0.2c0.1,0.1,0.2,0.2,0.2,0.4c0,0.2-0.1,0.3-0.2,0.4c-0.2,0.2-0.4,0.2-0.7,0.2h-1.6v-1.3H209.5z M207.9,264v-1.5
		h1.6c0.6,0,0.9-0.1,1.2-0.4c0.2-0.2,0.3-0.5,0.3-0.8c0-0.3-0.1-0.6-0.3-0.8c-0.3-0.3-0.7-0.4-1.2-0.4h-2.3v3.9H207.9z M201.1,261.9
		c0.8,0,1.1,0.4,1.1,0.7c0,0.5-0.5,0.9-1.2,0.9c-0.7,0-1.4-0.4-1.5-1.1C199.9,262.2,200.5,261.9,201.1,261.9 M202.6,260.4
		c-0.2-0.1-0.6-0.4-1.5-0.4c-1.2,0-2.2,0.8-2.2,2.1c0,1.3,1,2,2.1,2c1,0,1.8-0.6,1.8-1.4c0-0.6-0.5-1.2-1.6-1.2
		c-0.7,0-1.3,0.3-1.7,0.6c0-1,0.8-1.5,1.6-1.5c0.4,0,0.9,0.1,1.2,0.3L202.6,260.4z M190.6,266.1h0.5v-8.5h-0.5V266.1z M180.9,261.1
		l1.1-0.5v3.3h0.6v-3.9H182l-1.2,0.5L180.9,261.1z M174,261.1c0.4-0.3,0.7-0.6,1.4-0.6c0.5,0,0.9,0.2,0.9,0.6c0,0.5-0.7,0.7-1,0.7
		c-0.9,0.2-1.7,0.7-1.7,1.7v0.5h3.2v-0.5h-2.6v-0.1c0-0.6,0.5-0.9,1.1-1.1c0.6-0.2,1.6-0.4,1.6-1.3c0-0.7-0.8-1.1-1.6-1.1
		c-0.8,0-1.3,0.3-1.7,0.7L174,261.1z M162.1,260.6c0.3,0,0.6,0,0.8,0.2c0.1,0.1,0.2,0.2,0.2,0.4c0,0.4-0.3,0.6-0.8,0.6h-1.8v-1.3
		H162.1z M160.4,264v-1.5h1.6l0.9,1.5h0.7l-1-1.6c0.6-0.1,1-0.5,1-1.1c0-0.3-0.1-0.6-0.3-0.8c-0.3-0.3-0.6-0.4-1.2-0.4h-2.3v3.9
		H160.4z M154.2,261.7h-1.7v-1h2.7v-0.5h-3.3v3.9h3.5v-0.5h-2.9v-1.2h1.7V261.7z M145.7,260.6c0.3,0,0.5,0,0.7,0.2
		c0.1,0.1,0.1,0.2,0.1,0.3c0,0.1-0.1,0.3-0.2,0.4c-0.1,0.1-0.3,0.2-0.5,0.2H144v-1.1H145.7z M145.9,262.2c0.3,0,0.5,0.1,0.6,0.2
		c0.1,0.1,0.2,0.2,0.2,0.4c0,0.1,0,0.3-0.2,0.4c-0.1,0.1-0.4,0.2-0.7,0.2H144v-1.2H145.9z M145.9,264c0.5,0,0.8-0.1,1.1-0.3
		c0.2-0.2,0.3-0.5,0.3-0.8c0-0.5-0.3-0.9-0.8-1c0.3-0.1,0.6-0.4,0.6-0.8c0-0.2-0.1-0.4-0.2-0.6c-0.2-0.3-0.6-0.4-1.1-0.4h-2.4v3.9
		H145.9z M134.3,264h0.6v-2.8h0l1.5,2.3h0.1l1.5-2.3h0v2.8h0.6v-3.9h-0.6l-1.5,2.4h0l-1.5-2.4h-0.6V264z M128.7,261.7H127v-1h2.7
		v-0.5h-3.3v3.9h3.5v-0.5H127v-1.2h1.7V261.7z M121.6,262.9c-0.4,0.4-0.9,0.7-1.6,0.7c-1,0-1.7-0.7-1.7-1.5c0-0.8,0.7-1.5,1.6-1.5
		c0.5,0,1.1,0.2,1.5,0.6l0.4-0.4c-0.5-0.4-1.2-0.7-1.9-0.7c-1.3,0-2.3,0.9-2.3,2.1c0,1.1,0.9,2.1,2.3,2.1c0.9,0,1.6-0.4,2-0.8
		L121.6,262.9z M112.6,261.7h-1.7v-1h2.7v-0.5h-3.3v3.9h3.5v-0.5h-2.9v-1.2h1.7V261.7z M102.3,263.4v-2.8h1.3c0.6,0,0.9,0.1,1.1,0.4
		c0.3,0.3,0.4,0.6,0.4,1c0,0.4-0.1,0.8-0.4,1c-0.3,0.2-0.5,0.4-1.1,0.4H102.3z M103.6,264c0.8,0,1.2-0.2,1.6-0.6
		c0.4-0.3,0.6-0.8,0.6-1.4c0-0.5-0.2-1-0.5-1.4c-0.4-0.3-0.8-0.6-1.6-0.6h-1.9v3.9H103.6z M91.7,265.2c0.5-0.2,1.1-0.5,1.1-1.3
		c0-0.4-0.3-0.7-0.7-0.7c-0.2,0-0.4,0.2-0.4,0.4c0,0.2,0.2,0.4,0.4,0.4c0.1,0,0.1,0,0.2,0c0,0,0.1,0.1,0.1,0.2
		c0,0.4-0.5,0.7-0.9,0.8L91.7,265.2z M87.5,260.1l-1.3,1.5l-1.3-1.5h-0.8l1.7,2.1v1.8h0.6v-1.8l1.7-2.1H87.5z M78.8,260.8
		L78.8,260.8l0.8,1.6H78L78.8,260.8z M76.6,264h0.6l0.5-1.1h2l0.5,1.1H81l-1.9-3.9h-0.6L76.6,264z M69.4,263.4v-2.8h1.3
		c0.6,0,0.9,0.1,1.1,0.4c0.3,0.3,0.4,0.6,0.4,1c0,0.4-0.1,0.8-0.4,1c-0.3,0.2-0.5,0.4-1.1,0.4H69.4z M70.7,264
		c0.8,0,1.2-0.2,1.6-0.6c0.4-0.3,0.6-0.8,0.6-1.4c0-0.5-0.2-1-0.5-1.4c-0.4-0.3-0.8-0.6-1.6-0.6h-1.9v3.9H70.7z M64,260.5
		c-0.3-0.2-1-0.6-1.9-0.6c-0.7,0-1.7,0.3-1.7,1.2c0,0.9,1,1,1.9,1c0.7,0,1.3,0.1,1.3,0.7c0,0.5-0.6,0.7-1.2,0.7
		c-0.9,0-1.5-0.4-1.9-0.7l-0.4,0.4c0.5,0.4,1.1,0.8,2.2,0.8c1,0,1.8-0.4,1.8-1.3c0-1.1-1.2-1.1-1.9-1.2c-0.7,0-1.3-0.1-1.3-0.5
		c0-0.4,0.5-0.6,1-0.6c0.8,0,1.3,0.3,1.5,0.5L64,260.5z M54.6,260.6c0.3,0,0.6,0,0.8,0.2c0.1,0.1,0.2,0.2,0.2,0.4
		c0,0.4-0.3,0.6-0.8,0.6h-1.8v-1.3H54.6z M52.9,264v-1.5h1.6l0.9,1.5h0.7l-1-1.6c0.6-0.1,1-0.5,1-1.1c0-0.3-0.1-0.6-0.3-0.8
		c-0.3-0.3-0.6-0.4-1.2-0.4h-2.3v3.9H52.9z M46.9,260.1v2.6c0,0.6-0.5,0.9-1.2,0.9c-0.7,0-1.2-0.3-1.2-0.9v-2.6h-0.6v2.6
		c0,0.9,0.8,1.4,1.8,1.4c1,0,1.8-0.5,1.8-1.4v-2.6H46.9z M36,264v-1.8h2.5v1.8h0.6v-3.9h-0.6v1.5H36v-1.5h-0.6v3.9H36z M27.3,260.6
		h1.6v3.3h0.6v-3.3h1.6v-0.5h-3.8V260.6z"/>
	<path class="st0" d="M219.8,249.5c-0.3-0.2-1-0.6-1.9-0.6c-0.7,0-1.7,0.3-1.7,1.2c0,0.9,1,1,1.9,1c0.7,0,1.3,0.1,1.3,0.7
		c0,0.5-0.6,0.7-1.2,0.7c-0.9,0-1.5-0.4-1.9-0.7l-0.4,0.4c0.5,0.4,1.1,0.8,2.2,0.8c1,0,1.8-0.4,1.8-1.3c0-1.1-1.2-1.1-1.9-1.2
		c-0.7,0-1.3-0.1-1.3-0.5c0-0.4,0.5-0.6,1-0.6c0.8,0,1.3,0.3,1.5,0.5L219.8,249.5z M206.9,252.4v-2.8h1.3c0.6,0,0.9,0.1,1.1,0.4
		c0.3,0.3,0.4,0.6,0.4,1c0,0.4-0.1,0.8-0.4,1c-0.3,0.2-0.5,0.4-1.1,0.4H206.9z M208.1,253c0.8,0,1.2-0.2,1.6-0.6
		c0.4-0.3,0.6-0.8,0.6-1.4c0-0.5-0.2-1-0.5-1.4c-0.4-0.3-0.8-0.6-1.6-0.6h-1.9v3.9H208.1z M199.2,249.1v2.9h0l-2.6-2.9h-0.5v3.9h0.6
		V250h0l2.6,2.9h0.5v-3.9H199.2z M188.9,250.7h-1.7v-1h2.7v-0.5h-3.3v3.9h3.5v-0.5h-2.9v-1.2h1.7V250.7z M180.2,249.1h-0.6v3.9h0.6
		V249.1z M171.9,249.6c0.3,0,0.6,0,0.8,0.2c0.1,0.1,0.2,0.2,0.2,0.4c0,0.4-0.3,0.6-0.8,0.6h-1.8v-1.3H171.9z M170.2,253v-1.5h1.6
		l0.9,1.5h0.7l-1-1.6c0.6-0.1,1-0.5,1-1.1c0-0.3-0.1-0.6-0.3-0.8c-0.3-0.3-0.6-0.4-1.2-0.4h-2.3v3.9H170.2z M161,253v-1.8h1.7v-0.5
		H161v-1.1h2.7v-0.5h-3.3v3.9H161z M142.7,255.1h0.5v-8.5h-0.5V255.1z M122.4,252.4v-2.8h1.3c0.6,0,0.9,0.1,1.1,0.4
		c0.3,0.3,0.4,0.6,0.4,1c0,0.4-0.1,0.8-0.4,1c-0.3,0.2-0.5,0.4-1.1,0.4H122.4z M123.7,253c0.8,0,1.2-0.2,1.6-0.6
		c0.4-0.3,0.6-0.8,0.6-1.4c0-0.5-0.2-1-0.5-1.4c-0.4-0.3-0.8-0.6-1.6-0.6h-1.9v3.9H123.7z M111.8,251c0-0.8,0.7-1.5,1.6-1.5
		c0.9,0,1.6,0.7,1.6,1.5c0,0.8-0.7,1.5-1.6,1.5C112.5,252.5,111.8,251.9,111.8,251 M111.1,251c0,1.1,1,2.1,2.3,2.1
		c1.3,0,2.3-0.9,2.3-2.1c0-1.1-1-2.1-2.3-2.1C112.1,249,111.1,249.9,111.1,251 M101.4,251c0-0.8,0.7-1.5,1.6-1.5
		c0.9,0,1.6,0.7,1.6,1.5c0,0.8-0.7,1.5-1.6,1.5C102.1,252.5,101.4,251.9,101.4,251 M100.8,251c0,1.1,1,2.1,2.3,2.1
		c1.3,0,2.3-0.9,2.3-2.1c0-1.1-1-2.1-2.3-2.1C101.8,249,100.8,249.9,100.8,251 M92.6,253v-1.8h1.7v-0.5h-1.7v-1.1h2.7v-0.5H92v3.9
		H92.6z M74.3,255.1h0.5v-8.5h-0.5V255.1z M56.3,250.7h-1.7v-1h2.7v-0.5h-3.3v3.9h3.5v-0.5h-2.9v-1.2h1.7V250.7z M46.3,249.6
		c0.3,0,0.6,0,0.8,0.2c0.1,0.1,0.2,0.2,0.2,0.4c0,0.4-0.3,0.6-0.8,0.6h-1.8v-1.3H46.3z M44.7,253v-1.5h1.6l0.9,1.5h0.7l-1-1.6
		c0.6-0.1,1-0.5,1-1.1c0-0.3-0.1-0.6-0.3-0.8c-0.3-0.3-0.6-0.4-1.2-0.4h-2.3v3.9H44.7z M37.6,249.1H37v3.9h0.6V249.1z M28.4,253
		v-1.8h1.7v-0.5h-1.7v-1.1h2.7v-0.5h-3.3v3.9H28.4z"/>
	<path class="st0" d="M219.8,228.6c-0.8-0.6-1.7-0.9-2.6-0.9c-1.7,0-3,1.2-3,2.7c0,1.5,1.3,2.7,3.1,2.7c0.9,0,1.9-0.3,2.6-0.8V230
		H217v1h1.6v0.8c-0.3,0.2-0.9,0.3-1.3,0.3c-1.2,0-1.8-0.8-1.8-1.7c0-0.9,0.7-1.7,1.7-1.7c0.6,0,1.3,0.2,1.8,0.6L219.8,228.6z
		 M209.5,227.8v3.1h0l-2.7-3.1h-1.1v5.1h1.3v-3h0l2.7,3h1.1v-5.1H209.5z M201.8,227.8h-1.3v5.1h1.3V227.8z M194.9,228.9
		c0.3,0,0.5,0,0.7,0.2c0.1,0.1,0.2,0.2,0.2,0.4c0,0.1-0.1,0.3-0.2,0.4c-0.1,0.1-0.3,0.2-0.6,0.2h-1.9v-1.2H194.9z M193.1,233v-1.8
		h1.5l1.1,1.8h1.4l-1.3-2c0.6-0.3,1.1-0.8,1.1-1.4c0-0.4-0.2-0.8-0.4-1.1c-0.3-0.3-0.9-0.6-1.7-0.6h-3v5.1H193.1z M186.9,229.8h-2
		v-0.9h3.3v-1.1h-4.6v5.1h4.8v-1.1h-3.5v-1.1h2V229.8z M176.1,233v-2.2h2.5v2.2h1.3v-5.1h-1.3v1.9h-2.5v-1.9h-1.3v5.1H176.1z
		 M166.5,228.9h2v4h1.3v-4h2v-1.1h-5.2V228.9z M161.3,229.3L161.3,229.3l0.8,1.7h-1.6L161.3,229.3z M158.3,233h1.3l0.5-1h2.5l0.5,1
		h1.4l-2.5-5.1h-1.1L158.3,233z M155.5,228.6c-0.8-0.6-1.7-0.9-2.6-0.9c-1.7,0-3,1.2-3,2.7c0,1.5,1.3,2.7,3.1,2.7
		c0.9,0,1.9-0.3,2.6-0.8V230h-2.8v1h1.6v0.8c-0.3,0.2-0.9,0.3-1.3,0.3c-1.2,0-1.8-0.8-1.8-1.7c0-0.9,0.7-1.7,1.7-1.7
		c0.6,0,1.3,0.2,1.8,0.6L155.5,228.6z M140.4,229.8h-2v-0.9h3.3v-1.1h-4.6v5.1h4.8v-1.1h-3.5v-1.1h2V229.8z M133.1,231.3
		c-0.5,0.4-1.2,0.8-1.9,0.8c-1.1,0-1.8-0.8-1.8-1.7c0-0.9,0.7-1.7,1.8-1.7c0.6,0,1.3,0.2,1.8,0.6l0.8-0.8c-0.7-0.5-1.7-0.9-2.7-0.9
		c-1.8,0-3,1.3-3,2.7c0,1.5,1.2,2.7,3,2.7c1.2,0,2.2-0.5,2.8-1.1L133.1,231.3z M124.7,227.8h-1.3v5.1h1.3V227.8z M115,228.9h2v4h1.3
		v-4h2v-1.1H115V228.9z M112,228.4c-0.5-0.3-1.5-0.7-2.6-0.7c-1,0-2.3,0.4-2.3,1.7c0,1.3,1.4,1.5,2.6,1.5c0.8,0.1,1.3,0.2,1.3,0.6
		c0,0.4-0.5,0.6-1.2,0.6c-1.1,0-1.9-0.5-2.3-0.8l-0.7,0.8c0.6,0.5,1.6,1,3,1c1.3,0,2.5-0.5,2.5-1.8c0-1.4-1.6-1.5-2.6-1.6
		c-0.7,0-1.4-0.1-1.4-0.5c0-0.4,0.5-0.5,1-0.5c0.9,0,1.6,0.3,1.9,0.5L112,228.4z M99.5,227.8v5.1h4.4v-1.1h-3.2v-4.1H99.5z
		 M91.2,230.4c0-0.9,0.8-1.7,1.7-1.7c1,0,1.8,0.7,1.8,1.7c0,0.9-0.8,1.7-1.8,1.7C92,232.1,91.2,231.3,91.2,230.4 M89.9,230.4
		c0,1.5,1.3,2.7,3.1,2.7c1.7,0,3.1-1.2,3.1-2.7c0-1.5-1.4-2.7-3.1-2.7C91.3,227.7,89.9,228.9,89.9,230.4 M86.6,228.4
		c-0.5-0.3-1.5-0.7-2.6-0.7c-1,0-2.3,0.4-2.3,1.7c0,1.3,1.4,1.5,2.6,1.5c0.8,0.1,1.3,0.2,1.3,0.6c0,0.4-0.5,0.6-1.2,0.6
		c-1.1,0-1.9-0.5-2.3-0.8l-0.7,0.8c0.6,0.5,1.6,1,3,1c1.3,0,2.5-0.5,2.5-1.8c0-1.4-1.6-1.5-2.6-1.6c-0.7,0-1.4-0.1-1.4-0.5
		c0-0.4,0.4-0.5,1-0.5c0.9,0,1.6,0.3,1.9,0.5L86.6,228.4z M71.4,228.9c0.3,0,0.5,0,0.7,0.2c0.1,0.1,0.2,0.2,0.2,0.4
		c0,0.1-0.1,0.3-0.2,0.4c-0.1,0.1-0.3,0.2-0.6,0.2h-1.9v-1.2H71.4z M69.5,233v-1.8h1.5l1.1,1.8h1.4l-1.3-2c0.6-0.3,1.1-0.8,1.1-1.4
		c0-0.4-0.2-0.8-0.4-1.1c-0.3-0.3-0.9-0.6-1.7-0.6h-3v5.1H69.5z M63.3,229.8h-2v-0.9h3.3v-1.1h-4.6v5.1h4.8v-1.1h-3.5v-1.1h2V229.8z
		 M51.7,228.9h2v4H55v-4h2v-1.1h-5.2V228.9z M47.3,227.8v3.1h0l-2.7-3.1h-1.1v5.1h1.3v-3h0l2.7,3h1.1v-5.1H47.3z M39.7,227.8h-1.3
		v5.1h1.3V227.8z M27.3,227.8l1.7,5.1h1.2l1-2.9h0l1,2.9h1.2l1.7-5.1h-1.3l-1,3.3h-0.1l-1.1-3.3h-0.9l-1.1,3.3h-0.1l-1-3.3H27.3z"/>
	<path class="st0" d="M218.9,212.8c0,0.3,0.2,0.5,0.6,0.5s0.6-0.2,0.6-0.5c0-0.3-0.2-0.5-0.6-0.5S218.9,212.5,218.9,212.8
		 M211.1,212.8c0,0.3,0.2,0.5,0.6,0.5c0.3,0,0.6-0.2,0.6-0.5c0-0.3-0.2-0.5-0.6-0.5C211.3,212.3,211.1,212.5,211.1,212.8
		 M203.3,212.8c0,0.3,0.2,0.5,0.6,0.5c0.3,0,0.6-0.2,0.6-0.5c0-0.3-0.2-0.5-0.6-0.5C203.5,212.3,203.3,212.5,203.3,212.8
		 M193.2,209.9h1.7v3.3h0.8v-3.3h1.7v-0.7h-4.1V209.9z M183.5,213.2v-1.8h2.2v1.8h0.8v-4h-0.8v1.5h-2.2v-1.5h-0.8v4H183.5z
		 M175.7,209.8c-0.6-0.5-1.3-0.7-2-0.7c-1.3,0-2.3,1-2.3,2.1c0,1.2,1,2.1,2.4,2.1c0.7,0,1.4-0.2,2-0.6v-1.8h-2v0.7h1.3v0.7
		c-0.3,0.2-0.8,0.3-1.2,0.3c-1.1,0-1.6-0.7-1.6-1.4c0-0.8,0.6-1.4,1.5-1.4c0.5,0,1.1,0.2,1.4,0.5L175.7,209.8z M164.4,209.2h-0.8v4
		h0.8V209.2z M153.6,209.2v4h3.4v-0.7h-2.6v-3.3H153.6z M138.7,210.7H137v-0.9h2.7v-0.7h-3.5v4h3.6v-0.7H137v-1h1.6V210.7z
		 M126,213.2v-1.8h2.2v1.8h0.8v-4h-0.8v1.5H126v-1.5h-0.8v4H126z M114.4,209.9h1.7v3.3h0.8v-3.3h1.7v-0.7h-4.1V209.9z M97.4,211.2
		c0-0.8,0.7-1.4,1.5-1.4c0.9,0,1.5,0.6,1.5,1.4c0,0.8-0.7,1.4-1.5,1.4C98,212.6,97.4,211.9,97.4,211.2 M96.6,211.2
		c0,1.2,1,2.1,2.3,2.1c1.3,0,2.3-1,2.3-2.1c0-1.2-1-2.1-2.3-2.1C97.6,209,96.6,210,96.6,211.2 M86.1,209.9h1.7v3.3h0.8v-3.3h1.7
		v-0.7h-4.1V209.9z M78.6,209.2v2.6h0l-2.4-2.6h-0.7v4h0.8v-2.6h0l2.4,2.6h0.7v-4H78.6z M68.3,209.2h-0.8v4h0.8V209.2z M50.4,212.5
		v-2.6h1.3c0.5,0,0.8,0.1,1,0.3c0.2,0.2,0.4,0.6,0.4,1c0,0.4-0.1,0.7-0.4,1c-0.2,0.2-0.4,0.3-1,0.3H50.4z M51.7,213.2
		c0.8,0,1.2-0.2,1.6-0.5c0.4-0.4,0.6-0.9,0.6-1.4c0-0.6-0.2-1.1-0.5-1.4c-0.4-0.3-0.8-0.6-1.6-0.6h-2.1v4H51.7z M41.6,209.2v2.6h0
		l-2.4-2.6h-0.7v4h0.8v-2.6h0l2.4,2.6h0.7v-4H41.6z M29.5,210.1L29.5,210.1l0.7,1.4h-1.4L29.5,210.1z M27.2,213.2H28l0.5-1h2l0.5,1
		h0.9l-2-4h-0.7L27.2,213.2z"/>
	<path class="st0" d="M219.8,198.7c-0.3-0.2-1-0.6-1.9-0.6c-0.8,0-1.7,0.3-1.7,1.2c0,0.9,1,1,1.9,1c0.7,0,1.3,0.1,1.3,0.7
		c0,0.5-0.6,0.7-1.2,0.7c-0.9,0-1.5-0.4-1.9-0.7l-0.4,0.4c0.5,0.4,1.1,0.8,2.2,0.8c1,0,1.8-0.4,1.8-1.3c0-1.1-1.2-1.1-1.9-1.2
		c-0.7,0-1.3-0.1-1.3-0.5c0-0.4,0.5-0.6,1-0.6c0.8,0,1.3,0.3,1.5,0.5L219.8,198.7z M208.6,198.7c-0.3-0.2-1-0.6-1.9-0.6
		c-0.7,0-1.7,0.3-1.7,1.2c0,0.9,1,1,1.9,1c0.7,0,1.3,0.1,1.3,0.7c0,0.5-0.6,0.7-1.2,0.7c-0.9,0-1.5-0.4-1.9-0.7l-0.4,0.4
		c0.5,0.4,1.1,0.8,2.2,0.8c1,0,1.8-0.4,1.8-1.3c0-1.1-1.2-1.1-1.9-1.2c-0.7,0-1.3-0.1-1.3-0.5c0-0.4,0.5-0.6,1-0.6
		c0.8,0,1.3,0.3,1.5,0.5L208.6,198.7z M196.5,199.9h-1.7v-1h2.7v-0.5h-3.3v3.9h3.5v-0.5h-2.9v-1.2h1.7V199.9z M185.8,198.3v2.9h0
		l-2.6-2.9h-0.5v3.9h0.6v-2.9h0l2.6,2.9h0.5v-3.9H185.8z M174.3,198.3l-2.3,2v-2h-0.6v3.9h0.6V201l1-0.8l1.7,2h0.8l-2-2.4l1.7-1.5
		H174.3z M162.3,198.8c0.3,0,0.6,0,0.8,0.2c0.1,0.1,0.2,0.2,0.2,0.4c0,0.3-0.3,0.6-0.8,0.6h-1.8v-1.3H162.3z M160.6,202.2v-1.5h1.6
		l0.9,1.5h0.7l-1-1.6c0.6-0.1,1-0.5,1-1.1c0-0.3-0.1-0.6-0.3-0.8c-0.3-0.3-0.6-0.4-1.2-0.4H160v3.9H160.6z M150.5,199L150.5,199
		l0.8,1.6h-1.6L150.5,199z M148.3,202.2h0.6l0.5-1.1h2l0.5,1.1h0.7l-1.9-3.9h-0.6L148.3,202.2z M138.1,201.6v-2.8h1.3
		c0.6,0,0.9,0.1,1.1,0.4c0.3,0.3,0.4,0.6,0.4,1s-0.1,0.8-0.4,1c-0.3,0.2-0.5,0.4-1.1,0.4H138.1z M139.3,202.2c0.8,0,1.2-0.2,1.6-0.6
		c0.4-0.3,0.6-0.8,0.6-1.4c0-0.5-0.2-1-0.5-1.4c-0.4-0.3-0.8-0.6-1.6-0.6h-1.9v3.9H139.3z M121.9,199.9h-1.7v-1h2.7v-0.5h-3.3v3.9
		h3.5v-0.5h-2.9v-1.2h1.7V199.9z M108.7,202.2v-1.8h2.5v1.8h0.6v-3.9h-0.6v1.5h-2.5v-1.5h-0.6v3.9H108.7z M97,198.8h1.6v3.3h0.6
		v-3.3h1.6v-0.5H97V198.8z M80.7,202.2v-1.8h1.7v-0.5h-1.7v-1.1h2.7v-0.5h-3.3v3.9H80.7z M68.7,200.2c0-0.8,0.7-1.5,1.6-1.5
		c0.9,0,1.6,0.7,1.6,1.5c0,0.8-0.7,1.5-1.6,1.5C69.4,201.7,68.7,201.1,68.7,200.2 M68.1,200.2c0,1.1,1,2.1,2.3,2.1
		c1.3,0,2.3-0.9,2.3-2.1c0-1.1-1-2.1-2.3-2.1C69.1,198.2,68.1,199.1,68.1,200.2 M50.4,198.8H52v3.3h0.6v-3.3h1.6v-0.5h-3.8V198.8z
		 M42.5,198.3v2.6c0,0.6-0.5,0.9-1.2,0.9c-0.7,0-1.2-0.3-1.2-0.9v-2.6h-0.6v2.6c0,0.9,0.8,1.4,1.8,1.4c1,0,1.8-0.5,1.8-1.4v-2.6
		H42.5z M28.1,200.2c0-0.8,0.7-1.5,1.6-1.5c0.9,0,1.6,0.7,1.6,1.5c0,0.8-0.7,1.5-1.6,1.5C28.8,201.7,28.1,201.1,28.1,200.2
		 M27.5,200.2c0,1.1,1,2.1,2.3,2.1c1.3,0,2.3-0.9,2.3-2.1c0-1.1-1-2.1-2.3-2.1C28.5,198.2,27.5,199.1,27.5,200.2"/>
	<path class="st0" d="M137.4,116.1c0.3-0.6,0.5-1.2,0.4-1.8c-0.2-1.6,0-3.2,0-4.8c0-0.8,0.3-1.5,0.9-2.1c1-1,2-2,3-3.1
		c0.5-0.5,1.1-0.9,1.2-1.6c-0.1-0.6-0.5-0.8-0.8-1.1c-1.2-1-2.2-2.3-3.4-3.3c-1.1-0.9-1.4-2.1-1.3-3.4c0-1.1,0.1-2.2,0.1-3.3
		c0-0.7,0.2-1.4-0.3-2c-0.4-0.3-0.9-0.3-1.3-0.3c-1.6,0-3.2,0-4.8,0c-1.2,0-2.2-0.3-2.9-1.2c-0.4-0.5-0.9-1-1.4-1.4
		c-1-0.9-1.9-1.9-3.1-2.7c-0.6,0.3-1,0.8-1.4,1.2c-1.1,1.1-2.3,2.2-3.4,3.3c-0.6,0.6-1.3,1-2.3,1.1c-1.6,0.1-3.2,0-4.8-0.1
		c-1.1,0-1.4,0.2-1.4,1.3c-0.1,1.5-0.1,3.1-0.1,4.6c0,1.1-0.3,2-1.2,2.7c-1.5,1.2-2.7,2.7-4.1,4.1c-0.2,0.2-0.2,0.4-0.2,0.6
		c0,0.4,0.3,0.5,0.5,0.8c1.4,1.4,2.7,2.8,4.1,4.1c0.7,0.7,1,1.4,1,2.3c0,1.7,0,3.4,0.1,5.1c0.1,1.1,0.3,1.3,1.4,1.4
		c1.6,0,3.2,0,4.8-0.1c1.2-0.1,2.2,0.1,2.8,1.2c0.3,0.4,0.6,0.8,1,1.1c0.8,0.6,1.6,1.3,2.2,2.2c0.3,0.4,0.7,0.7,1.2,0.8
		c0.4-0.1,0.7-0.3,1-0.6c1.2-1.2,2.6-2.2,3.6-3.6c0.6-0.7,1.3-1,2.2-1c1.2,0,2.4,0,3.6,0C135.3,116.4,136.3,116.4,137.4,116.1
		 M102.9,103.3c1.6-2.1,3-3.9,5-5.3c0.8-0.6,1.1-1.3,1.1-2.2c0-2,0.4-3.9,0.3-5.9c0-0.4,0-0.8,0.3-1.1c0.4-0.3,1-0.2,1.5-0.2
		c1.5,0,3.1,0,4.6,0.1c1,0.1,1.8-0.2,2.5-1c0.8-0.9,1.6-1.6,2.5-2.4c0.5-0.5,1.1-0.9,1.4-1.6c0.2-0.3,0.5-0.6,0.8-0.8
		c0.4-0.3,0.8-0.4,1.2,0c0.1,0.1,0.2,0.2,0.3,0.4c1.4,1.5,2.9,3,4.4,4.3c0.5,0.4,1,0.6,1.6,0.6c1.8,0,3.6,0,5.4,0c0.3,0,0.7,0,1,0
		c1.5,0.2,1.8,0.3,1.8,1.9c-0.1,1.9,0,3.8,0,5.8c0,0.8,0.3,1.3,0.9,1.8c1.5,1.3,3,2.7,4.5,4.1c0.8,0.8,0.8,1.1,0,1.9
		c-1.4,1.5-2.8,2.9-4.3,4.3c-0.6,0.6-0.8,1.1-0.8,1.9c0,0.8,0,1.5,0,2.3c0.1,1.7-0.1,3.3-0.3,4.8c-0.4,0.4-0.9,0.3-1.3,0.3
		c-1.9,0-3.8,0.1-5.8,0.1c-1.2,0-2,0.5-2.7,1.2c-1.4,1.4-2.8,2.7-4.2,4c-0.2,0.2-0.4,0.3-0.6,0.5c-0.9,0-1.2-0.7-1.6-1.2
		c-1-1.4-2.2-2.5-3.6-3.6c-0.6-0.4-1.2-0.7-1.9-0.7c-2.1,0-4.3-0.1-6.4-0.1c-0.2,0-0.4,0-0.7,0c-0.6,0-0.8-0.3-0.8-0.8
		c0.4-2.2-0.1-4.4,0.2-6.6c0.1-0.8-0.2-1.3-0.9-1.8C106.4,106.9,104.9,104.9,102.9,103.3"/>
	<path class="st0" d="M132.2,103.3c-0.1-1.2-0.2-2.3-0.5-3.3c-1.5-3.9-6.1-5.7-9.4-5.1c-1.8,0.3-3.2,1.3-4.6,2.5
		c-0.5,0.5-1.1,1-1.4,1.6c-1.1,2.5-1.4,5-0.2,7.5c0.4,0.9,0.9,1.7,1.9,2.2c0.4,0.2,0.8,0.6,1.2,0.9c1.6,1.2,3.4,1.7,5.4,1.5
		c1.2-0.1,2.2-0.6,3.3-1.1C130.8,108.6,132,106.2,132.2,103.3 M115.5,97.7c0.3-0.2,0.5-0.4,0.7-0.6c-0.8-1.5-2-2.4-3.1-3.4
		c-0.4-0.4-0.8-0.9-1.2-1.3c-0.2-0.2-0.1-0.5,0.2-0.7c0.2-0.1,0.4-0.2,0.6,0c0.1,0.1,0.3,0.2,0.4,0.3c1.1,1.5,2.8,2.6,3.9,4.1
		c0.3-0.1,0.5-0.3,0.6-0.6c-0.5-1.2-1.5-2.1-1.9-3.6c1.6,0.5,1.8,2.2,2.8,3c0.5,0,0.8-0.4,1-0.6c0.1-0.8-0.7-1.3-0.4-2.2
		c0.7,0.5,0.7,1.3,1.3,1.8c0.4,0.2,0.7,0,1-0.2c0-0.1,0.1-0.2,0.1-0.3c-0.2-0.7-0.4-1.5-0.6-2.2c-0.1-0.4-0.3-0.8-0.2-1.3
		c0.3-0.3,0.7-0.2,0.8,0.2c0.3,0.8,0.4,1.7,0.7,2.5c0.1,0.3,0.1,0.7,0.7,0.6c0.2-0.9,0.2-1.9,0.2-2.8c0-0.9,0-1.9,0-2.8
		c0-0.2,0-0.4,0.1-0.6c0.1-0.2,0.3-0.3,0.6-0.2c0.1,0,0.3,0.2,0.4,0.3c0.1,0.3,0.1,0.7,0.1,1c-0.1,1.7,0.2,3.5,0,5.2
		c0.5,0.4,0.9,0.3,1.4,0.3l0,0c0.4,0.3,0.9,0.4,1.4,0.3c0.5-0.4,0.5-1.2,1.3-1.7c-0.1,0.8-0.2,1.5-0.4,2.2c1,0.6,1.8,1.6,3,1.9l0,0
		c0.1,0.2,0.2,0.6,0.4,0.7c1.2,1.2,1.6,2.7,2.1,4.2c0.4,1.1,0.1,2.2,0.3,3.3c0.8,0.4,1.8,0.4,2.7,0.5c0.3,0.1,0.6,0.1,1,0.2
		c0.2,0,0.2,0.2,0.2,0.4c0,0.1-0.1,0.2-0.2,0.2c-0.3,0-0.5,0.1-0.8,0c-1-0.2-1.9-0.3-3-0.5c-0.3,1-1,2-1.3,3.1l0,0
		c-0.6,0.3-1,0.8-1.3,1.3l0,0c-0.6,0.4-1.3,0.7-1.7,1.3l0,0c-0.2,0.1-0.4,0.1-0.6,0.2c-1.3,0.7-2.7,1.2-4.3,1.2
		c0.5,2,0.3,3.9,0.2,5.8c0,0.1,0,0.2,0,0.3c-0.1,0.3-0.2,0.5-0.5,0.5c-0.2,0-0.4-0.2-0.4-0.4c0-0.5-0.1-1-0.1-1.5c0-1.5,0-2.9,0-4.5
		c-0.7-0.2-1.4-0.4-2.1-0.5c-1-0.2-1.8-0.7-2.7-1.3c-1.2-0.8-2.1-1.9-3-3c-0.7-0.8-1-1.8-1.2-2.9c-0.3-2-0.4-3.9,0.6-5.8
		C115.3,98.7,115.6,98.2,115.5,97.7L115.5,97.7z"/>
	<path class="st0" d="M113.7,103.1c-0.1,0.3-0.3,0.4-0.6,0.5c-1.7,0.2-3.5,0.1-5.2-0.1c-0.3,0-0.5-0.2-0.5-0.6
		c0-0.3,0.2-0.5,0.5-0.5c0.1,0,0.2,0,0.3,0c1.2,0,2.4,0.1,3.6,0.1c0.5,0,1,0.1,1.5,0.2C113.5,102.7,113.6,102.8,113.7,103.1"/>
	<path class="st0" d="M130.8,96.1c-0.2-0.5,0-0.9,0.4-1.3c1.1-1,2.2-1.9,3.1-3.2c0.1-0.1,0.2-0.2,0.4-0.3c0.1,0,0.3,0,0.5,0
		c0.2,0.1,0.3,0.3,0.3,0.6c0,0.2-0.1,0.3-0.2,0.4c-1.2,1.2-2.3,2.4-3.5,3.7C131.4,96.3,131,96.2,130.8,96.1L130.8,96.1z"/>
	<path class="st0" d="M133.8,103.2c0-0.5,0.2-0.7,0.7-0.8c0.5-0.1,1,0,1.5-0.1c1,0,2.1,0,3.1,0c0.3,0,0.5,0,0.8,0.1
		c0.2,0.1,0.4,0.2,0.4,0.5c0,0.3-0.1,0.4-0.3,0.5c-0.2,0.1-0.4,0.1-0.6,0.1c-1.6,0-3.2,0-4.7-0.1C134.3,103.5,134,103.4,133.8,103.2
		"/>
	<path class="st0" d="M130.7,109.6c0.6,0,1,0.2,1.4,0.6c1,1.1,2,2.1,3,3.2c0.2,0.2,0.2,0.5,0,0.7c-0.6,0.1-1-0.4-1.4-0.8
		c-0.9-0.8-1.6-1.8-2.6-2.5C130.8,110.6,130.7,110.1,130.7,109.6L130.7,109.6z"/>
	<path class="st0" d="M112.6,114.4c-0.3-0.1-0.4-0.2-0.3-0.5c0-0.2,0.1-0.3,0.2-0.4c1.2-1.2,2.4-2.3,3.5-3.4
		c0.1-0.1,0.2-0.1,0.3-0.2c0.2-0.1,0.5-0.1,0.6,0.1c0.1,0.1,0.1,0.3,0,0.5c0,0.1-0.2,0.3-0.3,0.4c-1.1,1.1-2.3,2.2-3.4,3.3
		C113,114.3,112.8,114.4,112.6,114.4"/>
	<path class="st0" d="M131.3,91.8c0,0.1,0,0.2,0,0.3c-0.5,0.8-1,1.6-1.6,2.4c-0.1,0.1-0.3,0.1-0.4,0c-0.1-0.1-0.2-0.3-0.2-0.4
		c0-0.1,0-0.2,0.1-0.3c0.5-0.7,0.9-1.5,1.4-2.2c0.1-0.2,0.3-0.3,0.6-0.1C131.2,91.6,131.2,91.7,131.3,91.8"/>
	<path class="st0" d="M115.6,108.7c-0.9,1-2,1.6-3.1,1.9c-0.2-0.2-0.2-0.4-0.1-0.6c0.8-0.7,1.6-1.3,2.6-1.7
		C115.2,108.3,115.4,108.3,115.6,108.7"/>
	<path class="st0" d="M129.1,110.9c0.1,0,0.2,0,0.3,0c0.8,0.4,2,2.1,2.3,3.2c-0.1,0.2-0.3,0.2-0.4,0.1c-0.7-0.9-1.4-1.8-2.1-2.7
		C129,111.4,129.1,111.1,129.1,110.9L129.1,110.9z"/>
	<path class="st0" d="M125.5,93.5c-0.1-0.1-0.3-0.3-0.3-0.4c0-1.1,0.1-2.2,0.7-3.2c0,0,0.1,0,0.2,0c0.4,0.1,0.4,0.5,0.3,0.8
		C126.2,91.6,126.4,92.7,125.5,93.5L125.5,93.5z"/>
	<path class="st0" d="M118.4,111.2c-0.3,1-0.9,2-1.6,2.8c-0.1,0.1-0.3,0.1-0.5,0c0-0.1-0.1-0.3-0.1-0.4c0.4-0.8,0.8-1.6,1.3-2.4
		C117.8,111,118.1,110.8,118.4,111.2"/>
	<path class="st0" d="M110.4,105.7c1-0.9,2.2-0.9,3.3-1.1c0.2,0.3,0.2,0.6,0,0.7C112.6,105.6,111.5,105.9,110.4,105.7"/>
	<path class="st0" d="M133.8,101.3c-0.2-0.5-0.1-0.8,0.1-0.8c1.1-0.2,2.1-0.8,3.2-0.4c0,0.3-0.1,0.5-0.3,0.6
		C135.9,100.9,134.9,101.1,133.8,101.3"/>
	<path class="st0" d="M132,108.3c0.5,0,1,0.1,1.4,0.4c0.8,0.5,1.5,1.1,1.8,1.7C134.1,110.3,132.7,109.4,132,108.3L132,108.3z"/>
	<path class="st0" d="M113.9,101.2c-1.4,0.4-2.5,0.1-3.5-0.5c-0.1,0-0.1-0.3-0.1-0.4c0-0.1,0.1-0.2,0.2-0.2
		C110.9,100,113.1,100.7,113.9,101.2"/>
	<path class="st0" d="M115.6,97.7c-1.3-0.2-2.4-0.9-3.4-1.8c-0.1,0,0.1-0.3,0.1-0.6c1.1,0.7,2.2,1.3,3.2,1.9
		C115.6,97.3,115.6,97.6,115.6,97.7L115.6,97.7z"/>
	<path class="st0" d="M121.5,116.5c-0.1-1.5,0-2.6,0.4-3.7c0.4,0.1,0.5,0.4,0.4,0.6C122.1,114.3,122.5,115.3,121.5,116.5"/>
	<path class="st0" d="M125.7,112.7c0.8,0.8,0.9,1.9,1.1,2.8c0.1,0.2,0,0.4-0.4,0.6C125.8,115.1,125.7,113.9,125.7,112.7"/>
	<path class="st0" d="M132.3,97.4c-0.1-0.2-0.1-0.2-0.1-0.3c0.6-0.9,1.5-1.3,2.3-1.9c0.1,0,0.3,0.1,0.4,0.2c0.1,0.1,0,0.4-0.1,0.4
		C134,96.6,133.4,97.3,132.3,97.4"/>
	<path class="st0" d="M114.7,106.7c-0.6,0.7-1,1-1.7,0.9C113.3,106.9,113.3,106.8,114.7,106.7"/>
	<path class="st0" d="M119.5,113.8c-0.1-0.6-0.1-1.1,0.3-1.4c0.3-0.1,0.4,0.1,0.4,0.3C120.1,113.1,120.1,113.5,119.5,113.8"/>
	<path class="st0" d="M133,106.6c1-0.1,1.5,0.3,2.2,0.7C134.2,107.6,133.7,107.3,133,106.6"/>
	<path class="st0" d="M133.1,99c0.9-0.7,0.9-0.7,1.7-0.9C134.2,98.8,134.2,98.8,133.1,99"/>
	<path class="st0" d="M128.5,113.8c-0.9-0.5-1-1.1-1.2-1.9C128.2,112.4,128.3,113,128.5,113.8"/>
	<path class="st0" d="M114.2,99.1c-0.7,0.2-1.2,0.1-1.6-0.5C113.4,98.4,113.7,98.6,114.2,99.1"/>
	<path class="st0" d="M126.5,105.8c0.3,0.4,0.3,0.7,0.1,1c-0.2,0.2-0.5,0.2-0.8,0.2c-0.5-0.1-1.1-0.2-1.6,0.1
		c-0.3,0.2-0.6,0.2-0.9,0c-0.6-0.3-1.1-0.2-1.8,0c-0.5,0.2-0.8-0.1-0.9-0.5c-0.1-0.5,0.3-1,0.7-0.9c0.6,0.1,1.2-0.1,1.8-0.1
		C124.2,105.7,125.3,105.8,126.5,105.8"/>
	<path class="st0" d="M121.9,101.2c-0.4,0.4-1.1,0.2-0.8,0.9c0,0.1-0.2,0.3-0.3,0.4c-0.4,0.3-0.8,0.3-1.3,0.2
		c-0.5,0-0.6-0.3-0.8-0.7c-0.1-0.5-0.7-0.2-1-0.5c0.2-0.9,1-1.3,1.7-1.4C120.5,99.8,121.2,100.4,121.9,101.2"/>
	<path class="st0" d="M127,101.9c-0.4-0.3-0.8,0.1-1-0.2c-0.1-0.5,0.3-0.7,0.6-0.9c1.3-0.8,2.5-0.6,3.6,0.7
		c-0.2,0.6-0.9,0.1-1.1,0.5c-0.1,0.3,0.4,0.4,0.2,0.7c-1,0.5-1,0.5-2.3-0.1C127,102.4,127,102.2,127,101.9"/>
	<path class="st0" d="M130.7,100c-0.4,0.3-0.6,0.2-0.9,0.1c-1.2-0.5-2.4-0.5-3.6,0c-0.3,0.1-0.7,0.3-0.9-0.1
		c-0.2-0.5,0.2-0.7,0.5-0.9C127.5,98.2,129.4,98.5,130.7,100"/>
	<path class="st0" d="M117,100.1c0.2-0.8,0.8-1,1.3-1.3c0.7-0.4,1.6-0.5,2.4-0.3c1,0.2,1.3,0.5,1.4,1.5c-0.9,0-1.6-0.5-2.5-0.5
		C118.7,99.4,118,99.9,117,100.1"/>
	<path class="st0" d="M121.9,104.6c0.3-1,0.4-1.1,0.9-0.9c0.6,0.3,1.2,0.3,1.9,0c0.1-0.1,0.3-0.1,0.5,0c0.3,0,0.5,0.2,0.6,0.5
		c0.1,0.3-0.1,0.5-0.4,0.6c-0.6,0.3-1.2,0.3-1.8,0.2C123.1,104.9,122.5,104.7,121.9,104.6"/>
	<path class="st0" d="M122.2,108c1-0.3,1.8-0.3,2.6-0.2C124.2,108.9,123.8,108.9,122.2,108"/>
</g>
</svg>
