<?xml version="1.0" encoding="utf-8"?>
<!-- Generator: Adobe Illustrator 22.1.0, SVG Export Plug-In . SVG Version: 6.00 Build 0)  -->
<svg version="1.1" id="Layer_1" xmlns="http://www.w3.org/2000/svg" xmlns:xlink="http://www.w3.org/1999/xlink" x="0px" y="0px"
	 viewBox="0 0 216 216" style="enable-background:new 0 0 216 216;" xml:space="preserve">
<style type="text/css">
	.st0{clip-path:url(#SVGID_2_);}
	.st1{fill:#B5AA92;}
</style>
<g>
	<defs>
		<rect id="SVGID_1_" width="216" height="216"/>
	</defs>
	<clipPath id="SVGID_2_">
		<use xlink:href="#SVGID_1_"  style="overflow:visible;"/>
	</clipPath>
	<g class="st0">
		<rect x="-19.7" y="-8.8" width="254.7" height="356"/>
		<g>
			<path class="st1" d="M199.4,314.5h0.6v-2.8h0l1.5,2.3h0.1l1.5-2.3h0v2.8h0.6v-3.9H203l-1.5,2.4h0l-1.5-2.4h-0.6V314.5z
				 M192.2,312.5c0-0.8,0.7-1.5,1.6-1.5c0.9,0,1.6,0.7,1.6,1.5c0,0.8-0.7,1.5-1.6,1.5C192.9,314,192.2,313.4,192.2,312.5
				 M191.5,312.5c0,1.1,1,2.1,2.3,2.1c1.3,0,2.3-0.9,2.3-2.1c0-1.1-1-2.1-2.3-2.1C192.5,310.5,191.5,311.4,191.5,312.5 M188.3,313.4
				c-0.4,0.4-0.9,0.7-1.6,0.7c-1,0-1.7-0.7-1.7-1.5c0-0.8,0.7-1.5,1.6-1.5c0.5,0,1.1,0.2,1.5,0.6l0.4-0.4c-0.5-0.4-1.2-0.7-1.9-0.7
				c-1.3,0-2.3,0.9-2.3,2.1c0,1.1,0.9,2.1,2.3,2.1c0.9,0,1.6-0.4,2-0.8L188.3,313.4z M180.6,314.1c0,0.2,0.2,0.4,0.5,0.4
				c0.3,0,0.5-0.2,0.5-0.4c0-0.2-0.2-0.4-0.5-0.4C180.8,313.7,180.6,313.9,180.6,314.1 M175.4,311.3L175.4,311.3l0.8,1.6h-1.6
				L175.4,311.3z M173.2,314.5h0.6l0.5-1.1h2l0.5,1.1h0.7l-1.9-3.9h-0.6L173.2,314.5z M170.5,310.6l-1.3,1.5l-1.3-1.5h-0.8l1.7,2.1
				v1.8h0.6v-1.8l1.7-2.1H170.5z M163.6,310.6v2.9h0l-2.6-2.9h-0.5v3.9h0.6v-2.9h0l2.6,2.9h0.5v-3.9H163.6z M156.7,310.6l-1.3,1.5
				l-1.3-1.5h-0.8l1.7,2.1v1.8h0.6v-1.8l1.7-2.1H156.7z M149.2,311.3L149.2,311.3l0.8,1.6h-1.6L149.2,311.3z M147,314.5h0.6l0.5-1.1
				h2l0.5,1.1h0.7l-1.9-3.9h-0.6L147,314.5z M141,313.9v-2.8h1.3c0.6,0,0.9,0.1,1.1,0.4c0.3,0.3,0.4,0.6,0.4,1c0,0.4-0.1,0.8-0.4,1
				c-0.3,0.2-0.5,0.4-1.1,0.4H141z M142.2,314.5c0.8,0,1.2-0.2,1.6-0.6c0.4-0.4,0.6-0.8,0.6-1.4c0-0.5-0.2-1-0.5-1.4
				c-0.4-0.3-0.8-0.6-1.6-0.6h-1.9v3.9H142.2z M133.6,313.5c-0.3,0-0.6-0.2-0.6-0.7c0-0.8,0.7-1.3,1.1-1.3c0.4,0,0.6,0.3,0.7,0.7
				l-0.3,0.9C134.2,313.4,133.9,313.5,133.6,313.5 M135.1,311.2l-0.2,0.5c-0.1-0.3-0.4-0.6-0.8-0.6c-0.7,0-1.7,0.8-1.7,1.9
				c0,0.8,0.5,1.1,1,1.1c0.4,0,0.8-0.2,1.1-0.6v0.1c0,0.3,0.3,0.5,0.7,0.5c0.8,0,1.8-0.8,1.8-2.1c0-1.3-1.1-2.2-2.7-2.2
				c-1.8,0-3.4,1.2-3.4,3c0,1.8,1.7,2.7,3.1,2.7c0.8,0,1.6-0.3,2-0.5l-0.1-0.4c-0.4,0.2-1.1,0.4-1.8,0.4c-1.2,0-2.6-0.7-2.6-2.3
				c0-1.6,1.4-2.6,2.9-2.6c1.4,0,2.3,0.8,2.3,1.8c0,1-0.8,1.6-1.3,1.6c-0.2,0-0.4-0.1-0.4-0.4c0,0,0-0.1,0-0.1l0.6-1.9H135.1z
				 M126.1,311.3L126.1,311.3l0.8,1.6h-1.6L126.1,311.3z M124,314.5h0.6l0.5-1.1h2l0.5,1.1h0.7l-1.9-3.9h-0.6L124,314.5z
				 M121.3,310.6l-1.3,1.5l-1.3-1.5H118l1.7,2.1v1.8h0.6v-1.8l1.7-2.1H121.3z M114.3,310.6v2.9h0l-2.6-2.9h-0.5v3.9h0.6v-2.9h0
				l2.6,2.9h0.5v-3.9H114.3z M107.4,310.6l-1.3,1.5l-1.3-1.5h-0.8l1.7,2.1v1.8h0.6v-1.8l1.7-2.1H107.4z M99.9,311.3L99.9,311.3
				l0.8,1.6h-1.6L99.9,311.3z M97.7,314.5h0.6l0.5-1.1h2l0.5,1.1h0.7l-1.9-3.9h-0.6L97.7,314.5z M91.7,313.9v-2.8H93
				c0.6,0,0.9,0.1,1.1,0.4c0.3,0.3,0.4,0.6,0.4,1c0,0.4-0.1,0.8-0.4,1c-0.3,0.2-0.5,0.4-1.1,0.4H91.7z M93,314.5
				c0.8,0,1.2-0.2,1.6-0.6c0.4-0.4,0.6-0.8,0.6-1.4c0-0.5-0.2-1-0.5-1.4c-0.4-0.3-0.8-0.6-1.6-0.6h-1.9v3.9H93z M84.6,311.8
				c0,0.2,0.2,0.4,0.5,0.4c0.3,0,0.5-0.2,0.5-0.4c0-0.2-0.2-0.4-0.5-0.4C84.8,311.4,84.6,311.5,84.6,311.8 M84.6,314.1
				c0,0.2,0.2,0.4,0.5,0.4c0.3,0,0.5-0.2,0.5-0.4c0-0.2-0.2-0.4-0.5-0.4C84.8,313.7,84.6,313.9,84.6,314.1 M81.3,310.6l-1.3,1.5
				l-1.3-1.5H78l1.7,2.1v1.8h0.6v-1.8l1.7-2.1H81.3z M72.8,310.6v3.9H76v-0.5h-2.6v-3.4H72.8z M68.2,311.1c0.3,0,0.5,0,0.7,0.2
				c0.1,0.1,0.2,0.2,0.2,0.4c0,0.2-0.1,0.3-0.2,0.4c-0.2,0.2-0.4,0.2-0.7,0.2h-1.6v-1.3H68.2z M66.5,314.5v-1.5h1.6
				c0.6,0,0.9-0.1,1.2-0.4c0.2-0.2,0.3-0.5,0.3-0.8c0-0.3-0.1-0.6-0.3-0.8c-0.3-0.3-0.7-0.4-1.2-0.4h-2.3v3.9H66.5z M61.6,312.2
				h-1.7v-1h2.7v-0.5h-3.3v3.9h3.5v-0.5h-2.9v-1.2h1.7V312.2z M54.4,311.1c0.3,0,0.6,0,0.8,0.2c0.1,0.1,0.2,0.2,0.2,0.4
				c0,0.4-0.3,0.6-0.8,0.6h-1.8v-1.3H54.4z M52.7,314.5v-1.5h1.6l0.9,1.5h0.7l-1-1.6c0.6-0.1,1-0.5,1-1.1c0-0.3-0.1-0.6-0.3-0.8
				c-0.3-0.3-0.6-0.4-1.2-0.4h-2.3v3.9H52.7z M46.3,310.6l-1.3,1.5l-1.3-1.5H43l1.7,2.1v1.8h0.6v-1.8l1.7-2.1H46.3z M37.8,310.6v3.9
				H41v-0.5h-2.6v-3.4H37.8z M31.1,313.9v-2.8h1.3c0.6,0,0.9,0.1,1.1,0.4c0.3,0.3,0.4,0.6,0.4,1c0,0.4-0.1,0.8-0.4,1
				c-0.3,0.2-0.5,0.4-1.1,0.4H31.1z M32.3,314.5c0.8,0,1.2-0.2,1.6-0.6c0.4-0.4,0.6-0.8,0.6-1.4c0-0.5-0.2-1-0.5-1.4
				c-0.4-0.3-0.8-0.6-1.6-0.6h-1.9v3.9H32.3z M26.2,310.6v2.9h0l-2.6-2.9h-0.5v3.9h0.6v-2.9h0l2.6,2.9h0.5v-3.9H26.2z M19.5,310.6
				h-0.6v3.9h0.6V310.6z M14.8,310.6l-2.3,2v-2h-0.6v3.9h0.6v-1.2l1-0.8l1.7,2h0.8l-2-2.4l1.7-1.5H14.8z"/>
			<path class="st1" d="M203.6,277.1l-1.3,1.5l-1.3-1.5h-0.8l1.7,2.1v1.8h0.6v-1.8l1.7-2.1H203.6z M194.2,278.7h-1.7v-1h2.7v-0.5
				h-3.3v3.9h3.5v-0.5h-2.9v-1.2h1.7V278.7z M183.5,277.1v3.9h3.2v-0.5h-2.6v-3.4H183.5z M177.9,277.6c-0.5-0.4-1.2-0.7-1.9-0.7
				c-1.3,0-2.3,0.9-2.3,2.1c0,1.1,1,2.1,2.3,2.1c0.7,0,1.4-0.2,1.9-0.6v-1.7H176v0.5h1.3v0.8c-0.3,0.2-0.8,0.4-1.3,0.4
				c-1.1,0-1.7-0.7-1.7-1.5c0-0.8,0.7-1.5,1.7-1.5c0.5,0,1.1,0.2,1.5,0.5L177.9,277.6z M168.3,277.1h-0.6v3.9h0.6V277.1z
				 M161.3,277.1v2.6c0,0.6-0.5,0.9-1.2,0.9c-0.7,0-1.2-0.3-1.2-0.9v-2.6h-0.6v2.6c0,0.9,0.8,1.4,1.8,1.4c1,0,1.8-0.5,1.8-1.4v-2.6
				H161.3z M150.4,279.8l0.5,0.7c-0.1,0-0.2,0-0.4,0c-0.9,0-1.6-0.7-1.6-1.5c0-0.8,0.7-1.5,1.6-1.5c0.9,0,1.6,0.7,1.6,1.5
				c0,0.5-0.3,1-0.7,1.3l-0.5-0.7L150.4,279.8z M148.4,279c0,1.1,1,2.1,2.3,2.1c0.2,0,0.5,0,0.7-0.1l0.5,0.7l0.6-0.2l-0.6-0.8
				c0.6-0.4,1-1,1-1.7c0-1.1-1-2.1-2.3-2.1C149.4,277,148.4,277.9,148.4,279 M136.1,277.1v3.9h3.2v-0.5h-2.6v-3.4H136.1z
				 M129.6,278.7h-1.7v-1h2.7v-0.5h-3.3v3.9h3.5v-0.5h-2.9v-1.2h1.7V278.7z M119.9,277.8L119.9,277.8l0.8,1.6h-1.6L119.9,277.8z
				 M117.7,281h0.6l0.5-1.1h2l0.5,1.1h0.7l-1.9-3.9h-0.6L117.7,281z M109.4,281v-1.8h2.5v1.8h0.6v-3.9h-0.6v1.5h-2.5v-1.5h-0.6v3.9
				H109.4z M103.1,279.9c-0.4,0.4-0.9,0.7-1.6,0.7c-1,0-1.7-0.7-1.7-1.5c0-0.8,0.7-1.5,1.6-1.5c0.5,0,1.1,0.2,1.5,0.6l0.4-0.4
				c-0.5-0.4-1.2-0.7-1.9-0.7c-1.3,0-2.3,0.9-2.3,2.1c0,1.1,0.9,2.1,2.3,2.1c0.9,0,1.6-0.4,2-0.8L103.1,279.9z M93.8,277.1h-0.6v3.9
				h0.6V277.1z M83.1,281h0.6v-2.8h0l1.5,2.3h0.1l1.5-2.3h0v2.8h0.6v-3.9h-0.6l-1.5,2.4h0l-1.5-2.4h-0.6V281z M70.8,279l1.2,1.1
				c-0.5,0.3-0.9,0.5-1.2,0.5c-0.5,0-1-0.2-1-0.8c0-0.6,0.5-0.8,0.9-1L70.8,279z M72.5,276.9c-0.3-0.2-0.7-0.4-1.2-0.4
				c-0.7,0-1.3,0.4-1.3,1.1c0,0.3,0.1,0.5,0.3,0.7c-0.6,0.2-1.1,0.6-1.1,1.4c0,0.9,0.9,1.3,1.6,1.3c0.4,0,1-0.2,1.7-0.6l0.6,0.5h0.8
				l-0.9-0.9c0.3-0.3,0.6-0.6,0.9-1.1l-0.5-0.3c-0.3,0.4-0.5,0.7-0.8,1l-1.1-1.1c-0.2-0.2-0.8-0.7-0.8-1c0-0.3,0.3-0.5,0.7-0.5
				c0.4,0,0.7,0.2,0.9,0.3L72.5,276.9z M57.6,277.8L57.6,277.8l0.8,1.6h-1.6L57.6,277.8z M55.4,281H56l0.5-1.1h2l0.5,1.1h0.7
				l-1.9-3.9h-0.6L55.4,281z M50.5,277.1l-1.3,1.5l-1.3-1.5h-0.8l1.7,2.1v1.8h0.6v-1.8l1.7-2.1H50.5z M41.5,277.1v2.9h0l-2.6-2.9
				h-0.5v3.9h0.6V278h0l2.6,2.9h0.5v-3.9H41.5z M32.5,277.1l-1.3,1.5l-1.3-1.5h-0.8l1.7,2.1v1.8h0.6v-1.8l1.7-2.1H32.5z M22.8,277.8
				L22.8,277.8l0.8,1.6H22L22.8,277.8z M20.6,281h0.6l0.5-1.1h2l0.5,1.1H25l-1.9-3.9h-0.6L20.6,281z M12.4,280.4v-2.8h1.3
				c0.6,0,0.9,0.1,1.1,0.4c0.3,0.3,0.4,0.6,0.4,1c0,0.4-0.1,0.8-0.4,1c-0.3,0.2-0.5,0.4-1.1,0.4H12.4z M13.7,281
				c0.8,0,1.2-0.2,1.6-0.6c0.4-0.3,0.6-0.8,0.6-1.4c0-0.5-0.2-1-0.5-1.4c-0.4-0.3-0.8-0.6-1.6-0.6h-1.9v3.9H13.7z"/>
			<path class="st1" d="M202.9,267.7h-1.7v-1h2.7v-0.5h-3.3v3.9h3.5v-0.5h-2.9v-1.2h1.7V267.7z M188.7,266.1v2.9h0l-2.6-2.9h-0.5
				v3.9h0.6V267h0l2.6,2.9h0.5v-3.9H188.7z M172.6,266.8L172.6,266.8l0.8,1.6h-1.6L172.6,266.8z M170.5,270h0.6l0.5-1.1h2l0.5,1.1
				h0.7l-1.9-3.9h-0.6L170.5,270z M156.9,266.1v3.9h3.2v-0.5h-2.6v-3.4H156.9z M133.2,266.1v3.9h3.2v-0.5h-2.6v-3.4H133.2z
				 M121.9,266.1h-0.6v3.9h0.6V266.1z M108.7,266.6c0.3,0,0.6,0,0.8,0.2c0.1,0.1,0.2,0.2,0.2,0.4c0,0.3-0.3,0.6-0.8,0.6h-1.8v-1.3
				H108.7z M107.1,270v-1.5h1.6l0.9,1.5h0.7l-1-1.6c0.6-0.1,1-0.5,1-1.1c0-0.3-0.1-0.6-0.3-0.8c-0.3-0.3-0.6-0.4-1.2-0.4h-2.3v3.9
				H107.1z M94.2,266.6c0.3,0,0.5,0,0.7,0.2c0.1,0.1,0.2,0.2,0.2,0.4c0,0.2-0.1,0.3-0.2,0.4c-0.2,0.2-0.4,0.2-0.7,0.2h-1.6v-1.3
				H94.2z M92.5,270v-1.5h1.6c0.6,0,0.9-0.1,1.2-0.4c0.2-0.2,0.3-0.5,0.3-0.8c0-0.3-0.1-0.6-0.3-0.8c-0.3-0.3-0.7-0.4-1.2-0.4h-2.3
				v3.9H92.5z M78.9,266.8L78.9,266.8l0.8,1.6h-1.6L78.9,266.8z M76.8,270h0.6l0.5-1.1h2l0.5,1.1h0.7l-1.9-3.9h-0.6L76.8,270z
				 M53.1,268c0-0.8,0.7-1.5,1.5-1.5c0.8,0,1.5,0.7,1.5,1.5s-0.7,1.5-1.5,1.5C53.8,269.5,53.1,268.9,53.1,268 M52.5,268
				c0,1.1,1,2.1,2.1,2.1c1.2,0,2.1-0.9,2.1-2.1c0-1.1-1-2.1-2.1-2.1C53.4,266,52.5,266.9,52.5,268 M38.2,268c0-0.8,0.7-1.5,1.5-1.5
				c0.8,0,1.5,0.7,1.5,1.5s-0.7,1.5-1.5,1.5C38.9,269.5,38.2,268.9,38.2,268 M37.6,268c0,1.1,1,2.1,2.1,2.1c1.2,0,2.1-0.9,2.1-2.1
				c0-1.1-1-2.1-2.1-2.1C38.6,266,37.6,266.9,37.6,268 M24.2,267.1c0.4-0.3,0.7-0.6,1.4-0.6c0.5,0,0.9,0.2,0.9,0.6
				c0,0.5-0.7,0.7-1,0.7c-0.9,0.2-1.7,0.7-1.7,1.7v0.5h3.2v-0.5h-2.6v-0.1c0-0.6,0.5-0.9,1.1-1.1c0.6-0.2,1.6-0.4,1.6-1.3
				c0-0.7-0.8-1.1-1.6-1.1c-0.8,0-1.3,0.3-1.7,0.7L24.2,267.1z M11.3,267.1l1-0.5v3.3h0.6v-3.9h-0.6l-1.2,0.5L11.3,267.1z"/>
			<path class="st1" d="M199.4,259h0.6v-2.8h0l1.5,2.3h0.1l1.5-2.3h0v2.8h0.6v-3.9H203l-1.5,2.4h0l-1.5-2.4h-0.6V259z M193.5,255.6
				c0.3,0,0.5,0,0.7,0.2c0.1,0.1,0.2,0.2,0.2,0.4c0,0.2-0.1,0.3-0.2,0.4c-0.2,0.2-0.4,0.2-0.7,0.2h-1.6v-1.3H193.5z M191.9,259v-1.5
				h1.6c0.6,0,0.9-0.1,1.2-0.4c0.2-0.2,0.3-0.5,0.3-0.8c0-0.3-0.1-0.6-0.3-0.8c-0.3-0.3-0.7-0.4-1.2-0.4h-2.3v3.9H191.9z
				 M185.1,256.9c0.8,0,1.1,0.4,1.1,0.7c0,0.5-0.5,0.9-1.2,0.9c-0.7,0-1.4-0.4-1.5-1.1C183.9,257.2,184.5,256.9,185.1,256.9
				 M186.6,255.4c-0.2-0.1-0.6-0.4-1.5-0.4c-1.2,0-2.2,0.8-2.2,2.1c0,1.3,1,2,2.1,2c1,0,1.8-0.6,1.8-1.4c0-0.6-0.5-1.2-1.6-1.2
				c-0.7,0-1.3,0.3-1.7,0.6c0-1,0.8-1.5,1.6-1.5c0.4,0,0.9,0.1,1.2,0.3L186.6,255.4z M174.6,261.1h0.5v-8.5h-0.5V261.1z
				 M164.9,256.1l1.1-0.5v3.3h0.6v-3.9H166l-1.2,0.5L164.9,256.1z M158,256.1c0.4-0.3,0.7-0.6,1.4-0.6c0.5,0,0.9,0.2,0.9,0.6
				c0,0.5-0.7,0.7-1,0.7c-0.9,0.2-1.7,0.7-1.7,1.7v0.5h3.2v-0.5h-2.6v-0.1c0-0.6,0.5-0.9,1.1-1.1c0.6-0.2,1.6-0.4,1.6-1.3
				c0-0.7-0.8-1.1-1.6-1.1c-0.8,0-1.3,0.3-1.7,0.7L158,256.1z M146.1,255.6c0.3,0,0.6,0,0.8,0.2c0.1,0.1,0.2,0.2,0.2,0.4
				c0,0.4-0.3,0.6-0.8,0.6h-1.8v-1.3H146.1z M144.4,259v-1.5h1.6l0.9,1.5h0.7l-1-1.6c0.6-0.1,1-0.5,1-1.1c0-0.3-0.1-0.6-0.3-0.8
				c-0.3-0.3-0.6-0.4-1.2-0.4h-2.3v3.9H144.4z M138.2,256.7h-1.7v-1h2.7v-0.5h-3.3v3.9h3.5v-0.5h-2.9v-1.2h1.7V256.7z M129.7,255.6
				c0.3,0,0.5,0,0.7,0.2c0.1,0.1,0.1,0.2,0.1,0.3c0,0.1-0.1,0.3-0.2,0.4c-0.1,0.1-0.3,0.2-0.5,0.2H128v-1.1H129.7z M129.9,257.2
				c0.3,0,0.5,0.1,0.6,0.2c0.1,0.1,0.2,0.2,0.2,0.4c0,0.1,0,0.3-0.2,0.4c-0.1,0.1-0.4,0.2-0.7,0.2H128v-1.2H129.9z M129.9,259
				c0.5,0,0.8-0.1,1.1-0.3c0.2-0.2,0.3-0.5,0.3-0.8c0-0.5-0.3-0.9-0.8-1c0.3-0.1,0.6-0.4,0.6-0.8c0-0.2-0.1-0.4-0.2-0.6
				c-0.2-0.3-0.6-0.4-1.1-0.4h-2.4v3.9H129.9z M118.3,259h0.6v-2.8h0l1.5,2.3h0.1l1.5-2.3h0v2.8h0.6v-3.9h-0.6l-1.5,2.4h0l-1.5-2.4
				h-0.6V259z M112.7,256.7H111v-1h2.7v-0.5h-3.3v3.9h3.5v-0.5H111v-1.2h1.7V256.7z M105.6,257.9c-0.4,0.4-0.9,0.7-1.6,0.7
				c-1,0-1.7-0.7-1.7-1.5c0-0.8,0.7-1.5,1.6-1.5c0.5,0,1.1,0.2,1.5,0.6l0.4-0.4c-0.5-0.4-1.2-0.7-1.9-0.7c-1.3,0-2.3,0.9-2.3,2.1
				c0,1.1,0.9,2.1,2.3,2.1c0.9,0,1.6-0.4,2-0.8L105.6,257.9z M96.6,256.7h-1.7v-1h2.7v-0.5h-3.3v3.9h3.5v-0.5h-2.9v-1.2h1.7V256.7z
				 M86.3,258.4v-2.8h1.3c0.6,0,0.9,0.1,1.1,0.4c0.3,0.3,0.4,0.6,0.4,1c0,0.4-0.1,0.8-0.4,1c-0.3,0.2-0.5,0.4-1.1,0.4H86.3z
				 M87.6,259c0.8,0,1.2-0.2,1.6-0.6c0.4-0.3,0.6-0.8,0.6-1.4c0-0.5-0.2-1-0.5-1.4c-0.4-0.3-0.8-0.6-1.6-0.6h-1.9v3.9H87.6z
				 M75.7,260.2c0.5-0.2,1.1-0.5,1.1-1.3c0-0.4-0.3-0.7-0.7-0.7c-0.2,0-0.4,0.2-0.4,0.4c0,0.2,0.2,0.4,0.4,0.4c0.1,0,0.1,0,0.2,0
				c0,0,0.1,0.1,0.1,0.2c0,0.4-0.5,0.7-0.9,0.8L75.7,260.2z M71.5,255.1l-1.3,1.5l-1.3-1.5h-0.8l1.7,2.1v1.8h0.6v-1.8l1.7-2.1H71.5z
				 M62.8,255.8L62.8,255.8l0.8,1.6H62L62.8,255.8z M60.6,259h0.6l0.5-1.1h2l0.5,1.1H65l-1.9-3.9h-0.6L60.6,259z M53.4,258.4v-2.8
				h1.3c0.6,0,0.9,0.1,1.1,0.4c0.3,0.3,0.4,0.6,0.4,1c0,0.4-0.1,0.8-0.4,1c-0.3,0.2-0.5,0.4-1.1,0.4H53.4z M54.7,259
				c0.8,0,1.2-0.2,1.6-0.6c0.4-0.3,0.6-0.8,0.6-1.4c0-0.5-0.2-1-0.5-1.4c-0.4-0.3-0.8-0.6-1.6-0.6h-1.9v3.9H54.7z M48,255.5
				c-0.3-0.2-1-0.6-1.9-0.6c-0.7,0-1.7,0.3-1.7,1.2c0,0.9,1,1,1.9,1c0.7,0,1.3,0.1,1.3,0.7c0,0.5-0.6,0.7-1.2,0.7
				c-0.9,0-1.5-0.4-1.9-0.7l-0.4,0.4c0.5,0.4,1.1,0.8,2.2,0.8c1,0,1.8-0.4,1.8-1.3c0-1.1-1.2-1.1-1.9-1.2c-0.7,0-1.3-0.1-1.3-0.5
				c0-0.4,0.5-0.6,1-0.6c0.8,0,1.3,0.3,1.5,0.5L48,255.5z M38.6,255.6c0.3,0,0.6,0,0.8,0.2c0.1,0.1,0.2,0.2,0.2,0.4
				c0,0.4-0.3,0.6-0.8,0.6h-1.8v-1.3H38.6z M36.9,259v-1.5h1.6l0.9,1.5h0.7l-1-1.6c0.6-0.1,1-0.5,1-1.1c0-0.3-0.1-0.6-0.3-0.8
				c-0.3-0.3-0.6-0.4-1.2-0.4h-2.3v3.9H36.9z M30.9,255.1v2.6c0,0.6-0.5,0.9-1.2,0.9c-0.7,0-1.2-0.3-1.2-0.9v-2.6h-0.6v2.6
				c0,0.9,0.8,1.4,1.8,1.4c1,0,1.8-0.5,1.8-1.4v-2.6H30.9z M20,259v-1.8h2.5v1.8h0.6v-3.9h-0.6v1.5H20v-1.5h-0.6v3.9H20z
				 M11.3,255.6h1.6v3.3h0.6v-3.3h1.6v-0.5h-3.8V255.6z"/>
			<path class="st1" d="M203.8,244.5c-0.3-0.2-1-0.6-1.9-0.6c-0.7,0-1.7,0.3-1.7,1.2c0,0.9,1,1,1.9,1c0.7,0,1.3,0.1,1.3,0.7
				c0,0.5-0.6,0.7-1.2,0.7c-0.9,0-1.5-0.4-1.9-0.7l-0.4,0.4c0.5,0.4,1.1,0.8,2.2,0.8c1,0,1.8-0.4,1.8-1.3c0-1.1-1.2-1.1-1.9-1.2
				c-0.7,0-1.3-0.1-1.3-0.5c0-0.4,0.5-0.6,1-0.6c0.8,0,1.3,0.3,1.5,0.5L203.8,244.5z M190.9,247.4v-2.8h1.3c0.6,0,0.9,0.1,1.1,0.4
				c0.3,0.3,0.4,0.6,0.4,1c0,0.4-0.1,0.8-0.4,1c-0.3,0.2-0.5,0.4-1.1,0.4H190.9z M192.1,248c0.8,0,1.2-0.2,1.6-0.6
				c0.4-0.3,0.6-0.8,0.6-1.4c0-0.5-0.2-1-0.5-1.4c-0.4-0.3-0.8-0.6-1.6-0.6h-1.9v3.9H192.1z M183.2,244.1v2.9h0l-2.6-2.9h-0.5v3.9
				h0.6V245h0l2.6,2.9h0.5v-3.9H183.2z M172.9,245.7h-1.7v-1h2.7v-0.5h-3.3v3.9h3.5v-0.5h-2.9v-1.2h1.7V245.7z M164.2,244.1h-0.6
				v3.9h0.6V244.1z M155.9,244.6c0.3,0,0.6,0,0.8,0.2c0.1,0.1,0.2,0.2,0.2,0.4c0,0.4-0.3,0.6-0.8,0.6h-1.8v-1.3H155.9z M154.2,248
				v-1.5h1.6l0.9,1.5h0.7l-1-1.6c0.6-0.1,1-0.5,1-1.1c0-0.3-0.1-0.6-0.3-0.8c-0.3-0.3-0.6-0.4-1.2-0.4h-2.3v3.9H154.2z M145,248
				v-1.8h1.7v-0.5H145v-1.1h2.7v-0.5h-3.3v3.9H145z M126.7,250.1h0.5v-8.5h-0.5V250.1z M106.4,247.4v-2.8h1.3c0.6,0,0.9,0.1,1.1,0.4
				c0.3,0.3,0.4,0.6,0.4,1c0,0.4-0.1,0.8-0.4,1c-0.3,0.2-0.5,0.4-1.1,0.4H106.4z M107.7,248c0.8,0,1.2-0.2,1.6-0.6
				c0.4-0.3,0.6-0.8,0.6-1.4c0-0.5-0.2-1-0.5-1.4c-0.4-0.3-0.8-0.6-1.6-0.6h-1.9v3.9H107.7z M95.8,246c0-0.8,0.7-1.5,1.6-1.5
				c0.9,0,1.6,0.7,1.6,1.5c0,0.8-0.7,1.5-1.6,1.5C96.5,247.5,95.8,246.9,95.8,246 M95.1,246c0,1.1,1,2.1,2.3,2.1
				c1.3,0,2.3-0.9,2.3-2.1c0-1.1-1-2.1-2.3-2.1C96.1,244,95.1,244.9,95.1,246 M85.4,246c0-0.8,0.7-1.5,1.6-1.5
				c0.9,0,1.6,0.7,1.6,1.5c0,0.8-0.7,1.5-1.6,1.5C86.1,247.5,85.4,246.9,85.4,246 M84.8,246c0,1.1,1,2.1,2.3,2.1
				c1.3,0,2.3-0.9,2.3-2.1c0-1.1-1-2.1-2.3-2.1C85.8,244,84.8,244.9,84.8,246 M76.6,248v-1.8h1.7v-0.5h-1.7v-1.1h2.7v-0.5H76v3.9
				H76.6z M58.3,250.1h0.5v-8.5h-0.5V250.1z M40.3,245.7h-1.7v-1h2.7v-0.5h-3.3v3.9h3.5v-0.5h-2.9v-1.2h1.7V245.7z M30.3,244.6
				c0.3,0,0.6,0,0.8,0.2c0.1,0.1,0.2,0.2,0.2,0.4c0,0.4-0.3,0.6-0.8,0.6h-1.8v-1.3H30.3z M28.7,248v-1.5h1.6l0.9,1.5h0.7l-1-1.6
				c0.6-0.1,1-0.5,1-1.1c0-0.3-0.1-0.6-0.3-0.8c-0.3-0.3-0.6-0.4-1.2-0.4h-2.3v3.9H28.7z M21.6,244.1H21v3.9h0.6V244.1z M12.4,248
				v-1.8h1.7v-0.5h-1.7v-1.1h2.7v-0.5h-3.3v3.9H12.4z"/>
			<path class="st1" d="M203.8,223.6c-0.8-0.6-1.7-0.9-2.6-0.9c-1.7,0-3,1.2-3,2.7c0,1.5,1.3,2.7,3.1,2.7c0.9,0,1.9-0.3,2.6-0.8V225
				H201v1h1.6v0.8c-0.3,0.2-0.9,0.3-1.3,0.3c-1.2,0-1.8-0.8-1.8-1.7c0-0.9,0.7-1.7,1.7-1.7c0.6,0,1.3,0.2,1.8,0.6L203.8,223.6z
				 M193.5,222.8v3.1h0l-2.7-3.1h-1.1v5.1h1.3v-3h0l2.7,3h1.1v-5.1H193.5z M185.8,222.8h-1.3v5.1h1.3V222.8z M178.9,223.9
				c0.3,0,0.5,0,0.7,0.2c0.1,0.1,0.2,0.2,0.2,0.4c0,0.1-0.1,0.3-0.2,0.4c-0.1,0.1-0.3,0.2-0.6,0.2h-1.9v-1.2H178.9z M177.1,228v-1.8
				h1.5l1.1,1.8h1.4l-1.3-2c0.6-0.3,1.1-0.8,1.1-1.4c0-0.4-0.2-0.8-0.4-1.1c-0.3-0.3-0.9-0.6-1.7-0.6h-3v5.1H177.1z M170.9,224.8h-2
				v-0.9h3.3v-1.1h-4.6v5.1h4.8v-1.1h-3.5v-1.1h2V224.8z M160.1,228v-2.2h2.5v2.2h1.3v-5.1h-1.3v1.9h-2.5v-1.9h-1.3v5.1H160.1z
				 M150.5,223.9h2v4h1.3v-4h2v-1.1h-5.2V223.9z M145.3,224.3L145.3,224.3l0.8,1.7h-1.6L145.3,224.3z M142.3,228h1.3l0.5-1h2.5
				l0.5,1h1.4l-2.5-5.1h-1.1L142.3,228z M139.5,223.6c-0.8-0.6-1.7-0.9-2.6-0.9c-1.7,0-3,1.2-3,2.7c0,1.5,1.3,2.7,3.1,2.7
				c0.9,0,1.9-0.3,2.6-0.8V225h-2.8v1h1.6v0.8c-0.3,0.2-0.9,0.3-1.3,0.3c-1.2,0-1.8-0.8-1.8-1.7c0-0.9,0.7-1.7,1.7-1.7
				c0.6,0,1.3,0.2,1.8,0.6L139.5,223.6z M124.4,224.8h-2v-0.9h3.3v-1.1h-4.6v5.1h4.8v-1.1h-3.5v-1.1h2V224.8z M117.1,226.3
				c-0.5,0.4-1.2,0.8-1.9,0.8c-1.1,0-1.8-0.8-1.8-1.7c0-0.9,0.7-1.7,1.8-1.7c0.6,0,1.3,0.2,1.8,0.6l0.8-0.8
				c-0.7-0.5-1.7-0.9-2.7-0.9c-1.8,0-3,1.3-3,2.7c0,1.5,1.2,2.7,3,2.7c1.2,0,2.2-0.5,2.8-1.1L117.1,226.3z M108.7,222.8h-1.3v5.1
				h1.3V222.8z M99,223.9h2v4h1.3v-4h2v-1.1H99V223.9z M96,223.4c-0.5-0.3-1.5-0.7-2.6-0.7c-1,0-2.3,0.4-2.3,1.7
				c0,1.3,1.4,1.5,2.6,1.5c0.8,0.1,1.3,0.2,1.3,0.6c0,0.4-0.5,0.6-1.2,0.6c-1.1,0-1.9-0.5-2.3-0.8l-0.7,0.8c0.6,0.5,1.6,1,3,1
				c1.3,0,2.5-0.5,2.5-1.8c0-1.4-1.6-1.5-2.6-1.6c-0.7,0-1.4-0.1-1.4-0.5c0-0.4,0.5-0.5,1-0.5c0.9,0,1.6,0.3,1.9,0.5L96,223.4z
				 M83.5,222.8v5.1h4.4v-1.1h-3.2v-4.1H83.5z M75.2,225.4c0-0.9,0.8-1.7,1.7-1.7c1,0,1.8,0.7,1.8,1.7c0,0.9-0.8,1.7-1.8,1.7
				C76,227.1,75.2,226.3,75.2,225.4 M73.9,225.4c0,1.5,1.3,2.7,3.1,2.7c1.7,0,3.1-1.2,3.1-2.7c0-1.5-1.4-2.7-3.1-2.7
				C75.3,222.7,73.9,223.9,73.9,225.4 M70.6,223.4c-0.5-0.3-1.5-0.7-2.6-0.7c-1,0-2.3,0.4-2.3,1.7c0,1.3,1.4,1.5,2.6,1.5
				c0.8,0.1,1.3,0.2,1.3,0.6c0,0.4-0.5,0.6-1.2,0.6c-1.1,0-1.9-0.5-2.3-0.8l-0.7,0.8c0.6,0.5,1.6,1,3,1c1.3,0,2.5-0.5,2.5-1.8
				c0-1.4-1.6-1.5-2.6-1.6c-0.7,0-1.4-0.1-1.4-0.5c0-0.4,0.4-0.5,1-0.5c0.9,0,1.6,0.3,1.9,0.5L70.6,223.4z M55.4,223.9
				c0.3,0,0.5,0,0.7,0.2c0.1,0.1,0.2,0.2,0.2,0.4c0,0.1-0.1,0.3-0.2,0.4c-0.1,0.1-0.3,0.2-0.6,0.2h-1.9v-1.2H55.4z M53.5,228v-1.8
				h1.5l1.1,1.8h1.4l-1.3-2c0.6-0.3,1.1-0.8,1.1-1.4c0-0.4-0.2-0.8-0.4-1.1c-0.3-0.3-0.9-0.6-1.7-0.6h-3v5.1H53.5z M47.3,224.8h-2
				v-0.9h3.3v-1.1h-4.6v5.1h4.8v-1.1h-3.5v-1.1h2V224.8z M35.7,223.9h2v4H39v-4h2v-1.1h-5.2V223.9z M31.3,222.8v3.1h0l-2.7-3.1h-1.1
				v5.1h1.3v-3h0l2.7,3h1.1v-5.1H31.3z M23.7,222.8h-1.3v5.1h1.3V222.8z M11.3,222.8l1.7,5.1h1.2l1-2.9h0l1,2.9h1.2l1.7-5.1h-1.3
				l-1,3.3h-0.1l-1.1-3.3h-0.9l-1.1,3.3h-0.1l-1-3.3H11.3z"/>
			<path class="st1" d="M202.9,207.8c0,0.3,0.2,0.5,0.6,0.5s0.6-0.2,0.6-0.5c0-0.3-0.2-0.5-0.6-0.5S202.9,207.5,202.9,207.8
				 M195.1,207.8c0,0.3,0.2,0.5,0.6,0.5c0.3,0,0.6-0.2,0.6-0.5c0-0.3-0.2-0.5-0.6-0.5C195.3,207.3,195.1,207.5,195.1,207.8
				 M187.3,207.8c0,0.3,0.2,0.5,0.6,0.5c0.3,0,0.6-0.2,0.6-0.5c0-0.3-0.2-0.5-0.6-0.5C187.5,207.3,187.3,207.5,187.3,207.8
				 M177.2,204.9h1.7v3.3h0.8v-3.3h1.7v-0.7h-4.1V204.9z M167.5,208.2v-1.8h2.2v1.8h0.8v-4h-0.8v1.5h-2.2v-1.5h-0.8v4H167.5z
				 M159.7,204.8c-0.6-0.5-1.3-0.7-2-0.7c-1.3,0-2.3,1-2.3,2.1c0,1.2,1,2.1,2.4,2.1c0.7,0,1.4-0.2,2-0.6v-1.8h-2v0.7h1.3v0.7
				c-0.3,0.2-0.8,0.3-1.2,0.3c-1.1,0-1.6-0.7-1.6-1.4c0-0.8,0.6-1.4,1.5-1.4c0.5,0,1.1,0.2,1.4,0.5L159.7,204.8z M148.4,204.2h-0.8
				v4h0.8V204.2z M137.6,204.2v4h3.4v-0.7h-2.6v-3.3H137.6z M122.7,205.7H121v-0.9h2.7v-0.7h-3.5v4h3.6v-0.7H121v-1h1.6V205.7z
				 M110,208.2v-1.8h2.2v1.8h0.8v-4h-0.8v1.5H110v-1.5h-0.8v4H110z M98.4,204.9h1.7v3.3h0.8v-3.3h1.7v-0.7h-4.1V204.9z M81.4,206.2
				c0-0.8,0.7-1.4,1.5-1.4c0.9,0,1.5,0.6,1.5,1.4c0,0.8-0.7,1.4-1.5,1.4C82,207.6,81.4,206.9,81.4,206.2 M80.6,206.2
				c0,1.2,1,2.1,2.3,2.1c1.3,0,2.3-1,2.3-2.1c0-1.2-1-2.1-2.3-2.1C81.6,204,80.6,205,80.6,206.2 M70.1,204.9h1.7v3.3h0.8v-3.3h1.7
				v-0.7h-4.1V204.9z M62.6,204.2v2.6h0l-2.4-2.6h-0.7v4h0.8v-2.6h0l2.4,2.6h0.7v-4H62.6z M52.3,204.2h-0.8v4h0.8V204.2z
				 M34.4,207.5v-2.6h1.3c0.5,0,0.8,0.1,1,0.3c0.2,0.2,0.4,0.6,0.4,1c0,0.4-0.1,0.7-0.4,1c-0.2,0.2-0.4,0.3-1,0.3H34.4z M35.7,208.2
				c0.8,0,1.2-0.2,1.6-0.5c0.4-0.4,0.6-0.9,0.6-1.4c0-0.6-0.2-1.1-0.5-1.4c-0.4-0.3-0.8-0.6-1.6-0.6h-2.1v4H35.7z M25.6,204.2v2.6h0
				l-2.4-2.6h-0.7v4h0.8v-2.6h0l2.4,2.6h0.7v-4H25.6z M13.5,205.1L13.5,205.1l0.7,1.4h-1.4L13.5,205.1z M11.2,208.2H12l0.5-1h2
				l0.5,1h0.9l-2-4h-0.7L11.2,208.2z"/>
			<path class="st1" d="M203.8,193.7c-0.3-0.2-1-0.6-1.9-0.6c-0.8,0-1.7,0.3-1.7,1.2c0,0.9,1,1,1.9,1c0.7,0,1.3,0.1,1.3,0.7
				c0,0.5-0.6,0.7-1.2,0.7c-0.9,0-1.5-0.4-1.9-0.7l-0.4,0.4c0.5,0.4,1.1,0.8,2.2,0.8c1,0,1.8-0.4,1.8-1.3c0-1.1-1.2-1.1-1.9-1.2
				c-0.7,0-1.3-0.1-1.3-0.5c0-0.4,0.5-0.6,1-0.6c0.8,0,1.3,0.3,1.5,0.5L203.8,193.7z M192.6,193.7c-0.3-0.2-1-0.6-1.9-0.6
				c-0.7,0-1.7,0.3-1.7,1.2c0,0.9,1,1,1.9,1c0.7,0,1.3,0.1,1.3,0.7c0,0.5-0.6,0.7-1.2,0.7c-0.9,0-1.5-0.4-1.9-0.7l-0.4,0.4
				c0.5,0.4,1.1,0.8,2.2,0.8c1,0,1.8-0.4,1.8-1.3c0-1.1-1.2-1.1-1.9-1.2c-0.7,0-1.3-0.1-1.3-0.5c0-0.4,0.5-0.6,1-0.6
				c0.8,0,1.3,0.3,1.5,0.5L192.6,193.7z M180.5,194.9h-1.7v-1h2.7v-0.5h-3.3v3.9h3.5v-0.5h-2.9v-1.2h1.7V194.9z M169.8,193.3v2.9h0
				l-2.6-2.9h-0.5v3.9h0.6v-2.9h0l2.6,2.9h0.5v-3.9H169.8z M158.3,193.3l-2.3,2v-2h-0.6v3.9h0.6V196l1-0.8l1.7,2h0.8l-2-2.4l1.7-1.5
				H158.3z M146.3,193.8c0.3,0,0.6,0,0.8,0.2c0.1,0.1,0.2,0.2,0.2,0.4c0,0.3-0.3,0.6-0.8,0.6h-1.8v-1.3H146.3z M144.6,197.2v-1.5
				h1.6l0.9,1.5h0.7l-1-1.6c0.6-0.1,1-0.5,1-1.1c0-0.3-0.1-0.6-0.3-0.8c-0.3-0.3-0.6-0.4-1.2-0.4H144v3.9H144.6z M134.5,194
				L134.5,194l0.8,1.6h-1.6L134.5,194z M132.3,197.2h0.6l0.5-1.1h2l0.5,1.1h0.7l-1.9-3.9h-0.6L132.3,197.2z M122.1,196.6v-2.8h1.3
				c0.6,0,0.9,0.1,1.1,0.4c0.3,0.3,0.4,0.6,0.4,1s-0.1,0.8-0.4,1c-0.3,0.2-0.5,0.4-1.1,0.4H122.1z M123.3,197.2
				c0.8,0,1.2-0.2,1.6-0.6c0.4-0.3,0.6-0.8,0.6-1.4c0-0.5-0.2-1-0.5-1.4c-0.4-0.3-0.8-0.6-1.6-0.6h-1.9v3.9H123.3z M105.9,194.9
				h-1.7v-1h2.7v-0.5h-3.3v3.9h3.5v-0.5h-2.9v-1.2h1.7V194.9z M92.7,197.2v-1.8h2.5v1.8h0.6v-3.9h-0.6v1.5h-2.5v-1.5h-0.6v3.9H92.7z
				 M81,193.8h1.6v3.3h0.6v-3.3h1.6v-0.5H81V193.8z M64.7,197.2v-1.8h1.7v-0.5h-1.7v-1.1h2.7v-0.5h-3.3v3.9H64.7z M52.7,195.2
				c0-0.8,0.7-1.5,1.6-1.5c0.9,0,1.6,0.7,1.6,1.5c0,0.8-0.7,1.5-1.6,1.5C53.4,196.7,52.7,196.1,52.7,195.2 M52.1,195.2
				c0,1.1,1,2.1,2.3,2.1c1.3,0,2.3-0.9,2.3-2.1c0-1.1-1-2.1-2.3-2.1C53.1,193.2,52.1,194.1,52.1,195.2 M34.4,193.8H36v3.3h0.6v-3.3
				h1.6v-0.5h-3.8V193.8z M26.5,193.3v2.6c0,0.6-0.5,0.9-1.2,0.9c-0.7,0-1.2-0.3-1.2-0.9v-2.6h-0.6v2.6c0,0.9,0.8,1.4,1.8,1.4
				c1,0,1.8-0.5,1.8-1.4v-2.6H26.5z M12.1,195.2c0-0.8,0.7-1.5,1.6-1.5c0.9,0,1.6,0.7,1.6,1.5c0,0.8-0.7,1.5-1.6,1.5
				C12.8,196.7,12.1,196.1,12.1,195.2 M11.5,195.2c0,1.1,1,2.1,2.3,2.1c1.3,0,2.3-0.9,2.3-2.1c0-1.1-1-2.1-2.3-2.1
				C12.5,193.2,11.5,194.1,11.5,195.2"/>
			<path class="st1" d="M121.4,111.1c0.3-0.6,0.5-1.2,0.4-1.8c-0.2-1.6,0-3.2,0-4.8c0-0.8,0.3-1.5,0.9-2.1c1-1,2-2,3-3.1
				c0.5-0.5,1.1-0.9,1.2-1.6c-0.1-0.6-0.5-0.8-0.8-1.1c-1.2-1-2.2-2.3-3.4-3.3c-1.1-0.9-1.4-2.1-1.3-3.4c0-1.1,0.1-2.2,0.1-3.3
				c0-0.7,0.2-1.4-0.3-2c-0.4-0.3-0.9-0.3-1.3-0.3c-1.6,0-3.2,0-4.8,0c-1.2,0-2.2-0.3-2.9-1.2c-0.4-0.5-0.9-1-1.4-1.4
				c-1-0.9-1.9-1.9-3.1-2.7c-0.6,0.3-1,0.8-1.4,1.2c-1.1,1.1-2.3,2.2-3.4,3.3c-0.6,0.6-1.3,1-2.3,1.1c-1.6,0.1-3.2,0-4.8-0.1
				c-1.1,0-1.4,0.2-1.4,1.3c-0.1,1.5-0.1,3.1-0.1,4.6c0,1.1-0.3,2-1.2,2.7c-1.5,1.2-2.7,2.7-4.1,4.1c-0.2,0.2-0.2,0.4-0.2,0.6
				c0,0.4,0.3,0.5,0.5,0.8c1.4,1.4,2.7,2.8,4.1,4.1c0.7,0.7,1,1.4,1,2.3c0,1.7,0,3.4,0.1,5.1c0.1,1.1,0.3,1.3,1.4,1.4
				c1.6,0,3.2,0,4.8-0.1c1.2-0.1,2.2,0.1,2.8,1.2c0.3,0.4,0.6,0.8,1,1.1c0.8,0.6,1.6,1.3,2.2,2.2c0.3,0.4,0.7,0.7,1.2,0.8
				c0.4-0.1,0.7-0.3,1-0.6c1.2-1.2,2.6-2.2,3.6-3.6c0.6-0.7,1.3-1,2.2-1c1.2,0,2.4,0,3.6,0C119.3,111.4,120.3,111.4,121.4,111.1
				 M86.9,98.3c1.6-2.1,3-3.9,5-5.3c0.8-0.6,1.1-1.3,1.1-2.2c0-2,0.4-3.9,0.3-5.9c0-0.4,0-0.8,0.3-1.1c0.4-0.3,1-0.2,1.5-0.2
				c1.5,0,3.1,0,4.6,0.1c1,0.1,1.8-0.2,2.5-1c0.8-0.9,1.6-1.6,2.5-2.4c0.5-0.5,1.1-0.9,1.4-1.6c0.2-0.3,0.5-0.6,0.8-0.8
				c0.4-0.3,0.8-0.4,1.2,0c0.1,0.1,0.2,0.2,0.3,0.4c1.4,1.5,2.9,3,4.4,4.3c0.5,0.4,1,0.6,1.6,0.6c1.8,0,3.6,0,5.4,0c0.3,0,0.7,0,1,0
				c1.5,0.2,1.8,0.3,1.8,1.9c-0.1,1.9,0,3.8,0,5.8c0,0.8,0.3,1.3,0.9,1.8c1.5,1.3,3,2.7,4.5,4.1c0.8,0.8,0.8,1.1,0,1.9
				c-1.4,1.5-2.8,2.9-4.3,4.3c-0.6,0.6-0.8,1.1-0.8,1.9c0,0.8,0,1.5,0,2.3c0.1,1.7-0.1,3.3-0.3,4.8c-0.4,0.4-0.9,0.3-1.3,0.3
				c-1.9,0-3.8,0.1-5.8,0.1c-1.2,0-2,0.5-2.7,1.2c-1.4,1.4-2.8,2.7-4.2,4c-0.2,0.2-0.4,0.3-0.6,0.5c-0.9,0-1.2-0.7-1.6-1.2
				c-1-1.4-2.2-2.5-3.6-3.6c-0.6-0.4-1.2-0.7-1.9-0.7c-2.1,0-4.3-0.1-6.4-0.1c-0.2,0-0.4,0-0.7,0c-0.6,0-0.8-0.3-0.8-0.8
				c0.4-2.2-0.1-4.4,0.2-6.6c0.1-0.8-0.2-1.3-0.9-1.8C90.4,101.9,88.9,99.9,86.9,98.3"/>
			<path class="st1" d="M116.2,98.3c-0.1-1.2-0.2-2.3-0.5-3.3c-1.5-3.9-6.1-5.7-9.4-5.1c-1.8,0.3-3.2,1.3-4.6,2.5
				c-0.5,0.5-1.1,1-1.4,1.6c-1.1,2.5-1.4,5-0.2,7.5c0.4,0.9,0.9,1.7,1.9,2.2c0.4,0.2,0.8,0.6,1.2,0.9c1.6,1.2,3.4,1.7,5.4,1.5
				c1.2-0.1,2.2-0.6,3.3-1.1C114.8,103.6,116,101.2,116.2,98.3 M99.5,92.7c0.3-0.2,0.5-0.4,0.7-0.6c-0.8-1.5-2-2.4-3.1-3.4
				c-0.4-0.4-0.8-0.9-1.2-1.3c-0.2-0.2-0.1-0.5,0.2-0.7c0.2-0.1,0.4-0.2,0.6,0c0.1,0.1,0.3,0.2,0.4,0.3c1.1,1.5,2.8,2.6,3.9,4.1
				c0.3-0.1,0.5-0.3,0.6-0.6c-0.5-1.2-1.5-2.1-1.9-3.6c1.6,0.5,1.8,2.2,2.8,3c0.5,0,0.8-0.4,1-0.6c0.1-0.8-0.7-1.3-0.4-2.2
				c0.7,0.5,0.7,1.3,1.3,1.8c0.4,0.2,0.7,0,1-0.2c0-0.1,0.1-0.2,0.1-0.3c-0.2-0.7-0.4-1.5-0.6-2.2c-0.1-0.4-0.3-0.8-0.2-1.3
				c0.3-0.3,0.7-0.2,0.8,0.2c0.3,0.8,0.4,1.7,0.7,2.5c0.1,0.3,0.1,0.7,0.7,0.6c0.2-0.9,0.2-1.9,0.2-2.8c0-0.9,0-1.9,0-2.8
				c0-0.2,0-0.4,0.1-0.6c0.1-0.2,0.3-0.3,0.6-0.2c0.1,0,0.3,0.2,0.4,0.3c0.1,0.3,0.1,0.7,0.1,1c-0.1,1.7,0.2,3.5,0,5.2
				c0.5,0.4,0.9,0.3,1.4,0.3l0,0c0.4,0.3,0.9,0.4,1.4,0.3c0.5-0.4,0.5-1.2,1.3-1.7c-0.1,0.8-0.2,1.5-0.4,2.2c1,0.6,1.8,1.6,3,1.9
				l0,0c0.1,0.2,0.2,0.6,0.4,0.7c1.2,1.2,1.6,2.7,2.1,4.2c0.4,1.1,0.1,2.2,0.3,3.3c0.8,0.4,1.8,0.4,2.7,0.5c0.3,0.1,0.6,0.1,1,0.2
				c0.2,0,0.2,0.2,0.2,0.4c0,0.1-0.1,0.2-0.2,0.2c-0.3,0-0.5,0.1-0.8,0c-1-0.2-1.9-0.3-3-0.5c-0.3,1-1,2-1.3,3.1l0,0
				c-0.6,0.3-1,0.8-1.3,1.3l0,0c-0.6,0.4-1.3,0.7-1.7,1.3l0,0c-0.2,0.1-0.4,0.1-0.6,0.2c-1.3,0.7-2.7,1.2-4.3,1.2
				c0.5,2,0.3,3.9,0.2,5.8c0,0.1,0,0.2,0,0.3c-0.1,0.3-0.2,0.5-0.5,0.5c-0.2,0-0.4-0.2-0.4-0.4c0-0.5-0.1-1-0.1-1.5
				c0-1.5,0-2.9,0-4.5c-0.7-0.2-1.4-0.4-2.1-0.5c-1-0.2-1.8-0.7-2.7-1.3c-1.2-0.8-2.1-1.9-3-3c-0.7-0.8-1-1.8-1.2-2.9
				c-0.3-2-0.4-3.9,0.6-5.8C99.3,93.7,99.6,93.2,99.5,92.7L99.5,92.7z"/>
			<path class="st1" d="M97.7,98.1c-0.1,0.3-0.3,0.4-0.6,0.5c-1.7,0.2-3.5,0.1-5.2-0.1c-0.3,0-0.5-0.2-0.5-0.6
				c0-0.3,0.2-0.5,0.5-0.5c0.1,0,0.2,0,0.3,0c1.2,0,2.4,0.1,3.6,0.1c0.5,0,1,0.1,1.5,0.2C97.5,97.7,97.6,97.8,97.7,98.1"/>
			<path class="st1" d="M114.8,91.1c-0.2-0.5,0-0.9,0.4-1.3c1.1-1,2.2-1.9,3.1-3.2c0.1-0.1,0.2-0.2,0.4-0.3c0.1,0,0.3,0,0.5,0
				c0.2,0.1,0.3,0.3,0.3,0.6c0,0.2-0.1,0.3-0.2,0.4c-1.2,1.2-2.3,2.4-3.5,3.7C115.4,91.3,115,91.2,114.8,91.1L114.8,91.1z"/>
			<path class="st1" d="M117.8,98.2c0-0.5,0.2-0.7,0.7-0.8c0.5-0.1,1,0,1.5-0.1c1,0,2.1,0,3.1,0c0.3,0,0.5,0,0.8,0.1
				c0.2,0.1,0.4,0.2,0.4,0.5c0,0.3-0.1,0.4-0.3,0.5c-0.2,0.1-0.4,0.1-0.6,0.1c-1.6,0-3.2,0-4.7-0.1C118.3,98.5,118,98.4,117.8,98.2"
				/>
			<path class="st1" d="M114.7,104.6c0.6,0,1,0.2,1.4,0.6c1,1.1,2,2.1,3,3.2c0.2,0.2,0.2,0.5,0,0.7c-0.6,0.1-1-0.4-1.4-0.8
				c-0.9-0.8-1.6-1.8-2.6-2.5C114.8,105.6,114.7,105.1,114.7,104.6L114.7,104.6z"/>
			<path class="st1" d="M96.6,109.4c-0.3-0.1-0.4-0.2-0.3-0.5c0-0.2,0.1-0.3,0.2-0.4c1.2-1.2,2.4-2.3,3.5-3.4
				c0.1-0.1,0.2-0.1,0.3-0.2c0.2-0.1,0.5-0.1,0.6,0.1c0.1,0.1,0.1,0.3,0,0.5c0,0.1-0.2,0.3-0.3,0.4c-1.1,1.1-2.3,2.2-3.4,3.3
				C97,109.3,96.8,109.4,96.6,109.4"/>
			<path class="st1" d="M115.3,86.8c0,0.1,0,0.2,0,0.3c-0.5,0.8-1,1.6-1.6,2.4c-0.1,0.1-0.3,0.1-0.4,0c-0.1-0.1-0.2-0.3-0.2-0.4
				c0-0.1,0-0.2,0.1-0.3c0.5-0.7,0.9-1.5,1.4-2.2c0.1-0.2,0.3-0.3,0.6-0.1C115.2,86.6,115.2,86.7,115.3,86.8"/>
			<path class="st1" d="M99.6,103.7c-0.9,1-2,1.6-3.1,1.9c-0.2-0.2-0.2-0.4-0.1-0.6c0.8-0.7,1.6-1.3,2.6-1.7
				C99.2,103.3,99.4,103.3,99.6,103.7"/>
			<path class="st1" d="M113.1,105.9c0.1,0,0.2,0,0.3,0c0.8,0.4,2,2.1,2.3,3.2c-0.1,0.2-0.3,0.2-0.4,0.1c-0.7-0.9-1.4-1.8-2.1-2.7
				C113,106.4,113.1,106.1,113.1,105.9L113.1,105.9z"/>
			<path class="st1" d="M109.5,88.5c-0.1-0.1-0.3-0.3-0.3-0.4c0-1.1,0.1-2.2,0.7-3.2c0,0,0.1,0,0.2,0c0.4,0.1,0.4,0.5,0.3,0.8
				C110.2,86.6,110.4,87.7,109.5,88.5L109.5,88.5z"/>
			<path class="st1" d="M102.4,106.2c-0.3,1-0.9,2-1.6,2.8c-0.1,0.1-0.3,0.1-0.5,0c0-0.1-0.1-0.3-0.1-0.4c0.4-0.8,0.8-1.6,1.3-2.4
				C101.8,106,102.1,105.8,102.4,106.2"/>
			<path class="st1" d="M94.4,100.7c1-0.9,2.2-0.9,3.3-1.1c0.2,0.3,0.2,0.6,0,0.7C96.6,100.6,95.5,100.9,94.4,100.7"/>
			<path class="st1" d="M117.8,96.3c-0.2-0.5-0.1-0.8,0.1-0.8c1.1-0.2,2.1-0.8,3.2-0.4c0,0.3-0.1,0.5-0.3,0.6
				C119.9,95.9,118.9,96.1,117.8,96.3"/>
			<path class="st1" d="M116,103.3c0.5,0,1,0.1,1.4,0.4c0.8,0.5,1.5,1.1,1.8,1.7C118.1,105.3,116.7,104.4,116,103.3L116,103.3z"/>
			<path class="st1" d="M97.9,96.2c-1.4,0.4-2.5,0.1-3.5-0.5c-0.1,0-0.1-0.3-0.1-0.4c0-0.1,0.1-0.2,0.2-0.2
				C94.9,95,97.1,95.7,97.9,96.2"/>
			<path class="st1" d="M99.6,92.7c-1.3-0.2-2.4-0.9-3.4-1.8c-0.1,0,0.1-0.3,0.1-0.6c1.1,0.7,2.2,1.3,3.2,1.9
				C99.6,92.3,99.6,92.6,99.6,92.7L99.6,92.7z"/>
			<path class="st1" d="M105.5,111.5c-0.1-1.5,0-2.6,0.4-3.7c0.4,0.1,0.5,0.4,0.4,0.6C106.1,109.3,106.5,110.3,105.5,111.5"/>
			<path class="st1" d="M109.7,107.7c0.8,0.8,0.9,1.9,1.1,2.8c0.1,0.2,0,0.4-0.4,0.6C109.8,110.1,109.7,108.9,109.7,107.7"/>
			<path class="st1" d="M116.3,92.4c-0.1-0.2-0.1-0.2-0.1-0.3c0.6-0.9,1.5-1.3,2.3-1.9c0.1,0,0.3,0.1,0.4,0.2c0.1,0.1,0,0.4-0.1,0.4
				C118,91.6,117.4,92.3,116.3,92.4"/>
			<path class="st1" d="M98.7,101.7c-0.6,0.7-1,1-1.7,0.9C97.3,101.9,97.3,101.8,98.7,101.7"/>
			<path class="st1" d="M103.5,108.8c-0.1-0.6-0.1-1.1,0.3-1.4c0.3-0.1,0.4,0.1,0.4,0.3C104.1,108.1,104.1,108.5,103.5,108.8"/>
			<path class="st1" d="M117,101.6c1-0.1,1.5,0.3,2.2,0.7C118.2,102.6,117.7,102.3,117,101.6"/>
			<path class="st1" d="M117.1,94c0.9-0.7,0.9-0.7,1.7-0.9C118.2,93.8,118.2,93.8,117.1,94"/>
			<path class="st1" d="M112.5,108.8c-0.9-0.5-1-1.1-1.2-1.9C112.2,107.4,112.3,108,112.5,108.8"/>
			<path class="st1" d="M98.2,94.1c-0.7,0.2-1.2,0.1-1.6-0.5C97.4,93.4,97.7,93.6,98.2,94.1"/>
			<path class="st1" d="M110.5,100.8c0.3,0.4,0.3,0.7,0.1,1c-0.2,0.2-0.5,0.2-0.8,0.2c-0.5-0.1-1.1-0.2-1.6,0.1
				c-0.3,0.2-0.6,0.2-0.9,0c-0.6-0.3-1.1-0.2-1.8,0c-0.5,0.2-0.8-0.1-0.9-0.5c-0.1-0.5,0.3-1,0.7-0.9c0.6,0.1,1.2-0.1,1.8-0.1
				C108.2,100.7,109.3,100.8,110.5,100.8"/>
			<path class="st1" d="M105.9,96.2c-0.4,0.4-1.1,0.2-0.8,0.9c0,0.1-0.2,0.3-0.3,0.4c-0.4,0.3-0.8,0.3-1.3,0.2
				c-0.5,0-0.6-0.3-0.8-0.7c-0.1-0.5-0.7-0.2-1-0.5c0.2-0.9,1-1.3,1.7-1.4C104.5,94.8,105.2,95.4,105.9,96.2"/>
			<path class="st1" d="M111,96.9c-0.4-0.3-0.8,0.1-1-0.2c-0.1-0.5,0.3-0.7,0.6-0.9c1.3-0.8,2.5-0.6,3.6,0.7
				c-0.2,0.6-0.9,0.1-1.1,0.5c-0.1,0.3,0.4,0.4,0.2,0.7c-1,0.5-1,0.5-2.3-0.1C111,97.4,111,97.2,111,96.9"/>
			<path class="st1" d="M114.7,95c-0.4,0.3-0.6,0.2-0.9,0.1c-1.2-0.5-2.4-0.5-3.6,0c-0.3,0.1-0.7,0.3-0.9-0.1
				c-0.2-0.5,0.2-0.7,0.5-0.9C111.5,93.2,113.4,93.5,114.7,95"/>
			<path class="st1" d="M101,95.1c0.2-0.8,0.8-1,1.3-1.3c0.7-0.4,1.6-0.5,2.4-0.3c1,0.2,1.3,0.5,1.4,1.5c-0.9,0-1.6-0.5-2.5-0.5
				C102.7,94.4,102,94.9,101,95.1"/>
			<path class="st1" d="M105.9,99.6c0.3-1,0.4-1.1,0.9-0.9c0.6,0.3,1.2,0.3,1.9,0c0.1-0.1,0.3-0.1,0.5,0c0.3,0,0.5,0.2,0.6,0.5
				c0.1,0.3-0.1,0.5-0.4,0.6c-0.6,0.3-1.2,0.3-1.8,0.2C107.1,99.9,106.5,99.7,105.9,99.6"/>
			<path class="st1" d="M106.2,103c1-0.3,1.8-0.3,2.6-0.2C108.2,103.9,107.8,103.9,106.2,103"/>
		</g>
	</g>
</g>
</svg>
