<?xml version="1.0" encoding="utf-8"?>
<!-- Generator: Adobe Illustrator 22.1.0, SVG Export Plug-In . SVG Version: 6.00 Build 0)  -->
<svg version="1.1" id="Layer_1" xmlns="http://www.w3.org/2000/svg" xmlns:xlink="http://www.w3.org/1999/xlink" x="0px" y="0px"
	 viewBox="0 0 216 216" style="enable-background:new 0 0 216 216;" xml:space="preserve">
<style type="text/css">
	.st0{clip-path:url(#SVGID_2_);fill:#DCDDDE;}
	.st1{clip-path:url(#SVGID_2_);}
	.st2{fill:#424143;}
</style>
<g>
	<defs>
		<rect id="SVGID_1_" width="216" height="216"/>
	</defs>
	<clipPath id="SVGID_2_">
		<use xlink:href="#SVGID_1_"  style="overflow:visible;"/>
	</clipPath>
	<rect x="-197" y="-14" class="st0" width="612" height="792"/>
	<g class="st1">
		<path class="st2" d="M65.9,22.3h1.6l3.8,12.2L76,22h0.1l4.7,12.5l3.8-12.2h1.5l-5.2,15.9h-0.1L76,25.6l-4.9,12.7h-0.1L65.9,22.3z"
			/>
		<path class="st2" d="M109.9,37c0-0.6,0.5-1.1,1.1-1.1c0.6,0,1.1,0.5,1.1,1.1c0,0.6-0.5,1.1-1.1,1.1
			C110.4,38.1,109.9,37.7,109.9,37z"/>
		<path class="st2" d="M149.2,22.3h1.5V38h-1.5v-5.2h-8.5V38h-1.5V22.3h1.5v9.2h8.5V22.3z"/>
		<path class="st2" d="M65.9,57.9l1.2-0.8c0.6,1.1,1.4,1.7,2.7,1.7c1.5,0,2.6-0.9,2.6-2.9V44.3h1.5v11.6c0,2.8-1.7,4.3-4.1,4.3
			C67.8,60.2,66.6,59.2,65.9,57.9z"/>
		<path class="st2" d="M81.2,52.2c0-4.6,3.6-8,8-8s8,3.4,8,8s-3.6,8-8,8S81.2,56.8,81.2,52.2z M95.7,52.2c0-3.8-2.7-6.6-6.5-6.6
			c-3.7,0-6.5,2.9-6.5,6.6c0,3.8,2.7,6.6,6.5,6.6C92.9,58.8,95.7,56,95.7,52.2z"/>
		<path class="st2" d="M106,47.7V60h-1.4V44h0.1l10.5,12.6V44.3h1.4v16h-0.1L106,47.7z"/>
		<path class="st2" d="M125.1,44.3h9.4v1.3h-7.9v7.8h7.1v1.3h-7.1v3.8h8.3V60h-9.8V44.3z"/>
		<path class="st2" d="M142.6,56.4c0.8,1.6,2.3,2.5,4.1,2.5c2.1,0,3.4-1.1,3.4-2.7c0-1.7-1.1-2.5-2.9-3.4l-1.3-0.6
			c-2.3-1.1-3.6-2.1-3.6-4.3c0-2.2,1.7-3.7,4-3.7c2,0,3.3,0.7,4.3,2.3l-1.2,0.7c-0.7-1.2-1.7-1.7-3.1-1.7c-1.5,0-2.6,1-2.6,2.4
			c0,1.5,0.9,2,2.8,2.9l1.3,0.6c2.5,1.2,3.8,2.3,3.8,4.7c0,2.6-2,4.1-4.9,4.1c-2.6,0-4.4-1.2-5.4-3.2L142.6,56.4z"/>
	</g>
</g>
</svg>
