<?xml version="1.0" encoding="utf-8"?>
<!-- Generator: Adobe Illustrator 22.1.0, SVG Export Plug-In . SVG Version: 6.00 Build 0)  -->
<svg version="1.1" id="Layer_1" xmlns="http://www.w3.org/2000/svg" xmlns:xlink="http://www.w3.org/1999/xlink" x="0px" y="0px"
	 viewBox="0 0 612 792" style="enable-background:new 0 0 612 792;" xml:space="preserve">
<style type="text/css">
	.st0{fill:#DCDDDE;}
	.st1{fill:#414042;}
	.st2{fill:#A7A9AB;}
</style>
<rect class="st0" width="612" height="792"/>
<g>
	<path class="st1" d="M262.9,36.3h1.6l3.8,12.2L273,36h0.1l4.7,12.5l3.8-12.2h1.5l-5.2,15.9h-0.1L273,39.6l-4.9,12.7h-0.1
		L262.9,36.3z"/>
	<path class="st1" d="M306.9,51c0-0.6,0.5-1.1,1.1-1.1c0.6,0,1.1,0.5,1.1,1.1c0,0.6-0.5,1.1-1.1,1.1C307.4,52.1,306.9,51.7,306.9,51
		z"/>
	<path class="st1" d="M346.2,36.3h1.5V52h-1.5v-5.2h-8.5V52h-1.5V36.3h1.5v9.2h8.5V36.3z"/>
	<path class="st1" d="M262.9,71.9l1.2-0.8c0.6,1.1,1.4,1.7,2.7,1.7c1.5,0,2.6-0.9,2.6-2.9V58.3h1.5v11.6c0,2.8-1.7,4.3-4.1,4.3
		C264.8,74.2,263.6,73.2,262.9,71.9z"/>
	<path class="st1" d="M278.2,66.2c0-4.6,3.6-8,8-8s8,3.4,8,8s-3.6,8-8,8S278.2,70.8,278.2,66.2z M292.7,66.2c0-3.8-2.7-6.6-6.5-6.6
		c-3.7,0-6.5,2.9-6.5,6.6c0,3.8,2.7,6.6,6.5,6.6C289.9,72.8,292.7,70,292.7,66.2z"/>
	<path class="st1" d="M303,61.7V74h-1.4V58h0.1l10.5,12.6V58.3h1.4v16h-0.1L303,61.7z"/>
	<path class="st1" d="M322.1,58.3h9.4v1.3h-7.9v7.8h7.1v1.3h-7.1v3.8h8.3V74h-9.8V58.3z"/>
	<path class="st1" d="M339.6,70.4c0.8,1.6,2.3,2.5,4.1,2.5c2.1,0,3.4-1.1,3.4-2.7c0-1.7-1.1-2.5-2.9-3.4l-1.3-0.6
		c-2.3-1.1-3.6-2.1-3.6-4.3c0-2.2,1.7-3.7,4-3.7c2,0,3.3,0.7,4.3,2.3l-1.2,0.7c-0.7-1.2-1.7-1.7-3.1-1.7c-1.5,0-2.6,1-2.6,2.4
		c0,1.5,0.9,2,2.8,2.9l1.3,0.6c2.5,1.2,3.8,2.3,3.8,4.7c0,2.6-2,4.1-4.9,4.1c-2.6,0-4.4-1.2-5.4-3.2L339.6,70.4z"/>
</g>
<rect x="-173.5" y="257.5" style="fill:none;" width="87.5" height="55"/>
<text transform="matrix(1 0 0 1 -173.5 273.8296)"><tspan x="0" y="0" style="font-family:'NeutrafaceDisplay-Medium'; font-size:23px; letter-spacing:23;">W.</tspan><tspan x="72" y="0" style="font-family:'NeutrafaceDisplay-Medium'; font-size:23px;">H</tspan><tspan x="0" y="22" style="font-family:'NeutrafaceDisplay-Medium'; font-size:23px; letter-spacing:4;">JONE</tspan><tspan x="75.4" y="22" style="font-family:'NeutrafaceDisplay-Medium'; font-size:23px;">S</tspan><tspan x="0" y="37" style="font-family:'NeutrafaceDisplay-Light'; font-size:10px;">ATTORNEY</tspan><tspan x="49" y="37" style="font-family:'NeutrafaceDisplay-Light'; font-size:10px; letter-spacing:1;"> </tspan><tspan x="52.1" y="37" style="font-family:'NeutrafaceDisplay-Light'; font-size:10px;">AT</tspan><tspan x="63.7" y="37" style="font-family:'NeutrafaceDisplay-Light'; font-size:10px; letter-spacing:1;"> </tspan><tspan x="66.8" y="37" style="font-family:'NeutrafaceDisplay-Light'; font-size:10px;">LAW</tspan></text>
<g>
	<path class="st1" d="M195.7,763.6c0-0.7,0.5-1.2,1.4-1.2s1.4,0.6,1.4,1.2c0,0.5-0.3,0.8-0.6,1c0.6,0.2,1.1,0.8,1.1,1.4
		c0,0.9-0.7,1.6-1.9,1.6c-1.1,0-1.9-0.7-1.9-1.6c0-0.7,0.4-1.2,1.1-1.4C196,764.4,195.7,764.1,195.7,763.6z M198.3,766
		c0-0.6-0.5-1.1-1.2-1.1c-0.7,0-1.2,0.5-1.2,1.1c0,0.6,0.5,1.1,1.2,1.1C197.8,767.1,198.3,766.7,198.3,766z M197.9,763.7
		c0-0.4-0.3-0.7-0.8-0.7c-0.4,0-0.8,0.3-0.8,0.7c0,0.4,0.3,0.7,0.8,0.7C197.6,764.4,197.9,764.1,197.9,763.7z"/>
	<path class="st1" d="M200.3,763h-0.9v-0.5h1.5v5.1h-0.6V763z"/>
	<path class="st1" d="M205,763h-2.8v-0.5h3.7v0l-2.5,5.1h-0.7L205,763z"/>
	<path class="st1" d="M210.1,767.6h-0.5l2.1-5.2h0l2.2,5.2h-0.5l-0.4-0.9h-2.6L210.1,767.6z M211.8,763.4l-1.1,2.8h2.3L211.8,763.4z
		"/>
	<path class="st1" d="M215.3,763.6v4h-0.5v-5.2h0l3.4,4.1v-4h0.5v5.2h0L215.3,763.6z"/>
	<path class="st1" d="M220.1,762.5h1.3c1.7,0,2.7,1,2.7,2.6s-1,2.6-2.7,2.6h-1.3V762.5z M221.3,767.2c1.5,0,2.2-0.9,2.2-2.1
		c0-1.2-0.7-2.1-2.2-2.1h-0.7v4.2H221.3z"/>
	<path class="st1" d="M224.7,765c0-1.5,1.2-2.6,2.6-2.6c1.4,0,2.6,1.1,2.6,2.6s-1.2,2.6-2.6,2.6C225.9,767.7,224.7,766.6,224.7,765z
		 M229.5,765c0-1.2-0.9-2.2-2.1-2.2c-1.2,0-2.1,0.9-2.1,2.2c0,1.2,0.9,2.2,2.1,2.2C228.6,767.2,229.5,766.3,229.5,765z"/>
	<path class="st1" d="M234.1,767.6h-0.6l-1-1.3c-0.1,0-0.3,0-0.4,0h-0.6v1.3h-0.5v-5.1h1.1c1.4,0,2.1,0.8,2.1,1.9
		c0,0.8-0.4,1.5-1.2,1.8L234.1,767.6z M232,765.9c1.2,0,1.6-0.6,1.6-1.5c0-0.9-0.5-1.5-1.6-1.5h-0.6v3H232z"/>
	<path class="st1" d="M235.2,767.6h-0.5l2.1-5.2h0l2.2,5.2h-0.5l-0.4-0.9h-2.6L235.2,767.6z M236.9,763.4l-1.1,2.8h2.3L236.9,763.4z
		"/>
	<path class="st1" d="M242.5,767.6H242l2.1-5.2h0l2.2,5.2h-0.5l-0.4-0.9h-2.6L242.5,767.6z M244.2,763.4l-1.1,2.8h2.3L244.2,763.4z"
		/>
	<path class="st1" d="M246,762.5h0.5l1.7,4.1l1.7-4.1h0.5l-2.2,5.2h0L246,762.5z"/>
	<path class="st1" d="M251.2,762.5h3.1v0.4h-2.6v2.6h2.3v0.4h-2.3v1.3h2.7v0.4h-3.2V762.5z"/>
	<path class="st1" d="M255.8,763.6v4h-0.5v-5.2h0l3.4,4.1v-4h0.5v5.2h0L255.8,763.6z"/>
	<path class="st1" d="M260.6,765.9v-3.4h0.5v3.3c0,0.9,0.5,1.4,1.3,1.4c0.8,0,1.3-0.5,1.3-1.4v-3.3h0.5v3.4c0,1.2-0.8,1.8-1.8,1.8
		C261.4,767.7,260.6,767.1,260.6,765.9z"/>
	<path class="st1" d="M265.5,762.5h3.1v0.4h-2.6v2.6h2.3v0.4h-2.3v1.3h2.7v0.4h-3.2V762.5z"/>
	<path class="st2" d="M272.1,761.4h0.5v7.2h-0.5V761.4z"/>
	<path class="st1" d="M276.9,767.6h-0.5v-5.1h1.1c1.4,0,2.1,0.8,2.1,1.9c0,1.1-0.7,1.9-2.1,1.9h-0.6V767.6z M277.5,765.9
		c1.2,0,1.6-0.6,1.6-1.5c0-0.9-0.5-1.5-1.6-1.5h-0.6v3H277.5z"/>
	<path class="st1" d="M280.6,762.5h0.5v5.1h-0.5V762.5z"/>
	<path class="st1" d="M283.6,762.9H282v-0.4h3.6v0.4h-1.6v4.7h-0.5V762.9z"/>
	<path class="st1" d="M287.6,762.9H286v-0.4h3.6v0.4h-1.6v4.7h-0.5V762.9z"/>
	<path class="st1" d="M290.4,766.4c0.3,0.5,0.7,0.8,1.3,0.8c0.7,0,1.1-0.3,1.1-0.9c0-0.6-0.3-0.8-1-1.1l-0.4-0.2
		c-0.7-0.3-1.2-0.7-1.2-1.4c0-0.7,0.6-1.2,1.3-1.2c0.6,0,1.1,0.2,1.4,0.8l-0.4,0.2c-0.2-0.4-0.5-0.6-1-0.6c-0.5,0-0.8,0.3-0.8,0.8
		c0,0.5,0.3,0.7,0.9,1l0.4,0.2c0.8,0.4,1.2,0.8,1.2,1.5c0,0.8-0.6,1.3-1.6,1.3c-0.8,0-1.4-0.4-1.8-1L290.4,766.4z"/>
	<path class="st1" d="M294.4,762.5h1.7c1,0,1.4,0.6,1.4,1.3c0,0.5-0.2,0.8-0.7,1c0.6,0.2,1.1,0.7,1.1,1.3c0,0.8-0.5,1.5-1.6,1.5
		h-1.9V762.5z M296.1,764.6c0.6,0,0.9-0.4,0.9-0.8c0-0.5-0.3-0.8-1-0.8h-1.1v1.7H296.1z M296.2,767.2c0.8,0,1.2-0.5,1.2-1.1
		c0-0.6-0.4-1.1-1.2-1.1h-1.3v2.1H296.2z"/>
	<path class="st1" d="M298.8,765.9v-3.4h0.5v3.3c0,0.9,0.5,1.4,1.3,1.4c0.8,0,1.3-0.5,1.3-1.4v-3.3h0.5v3.4c0,1.2-0.8,1.8-1.8,1.8
		C299.5,767.7,298.8,767.1,298.8,765.9z"/>
	<path class="st1" d="M306.8,767.6h-0.6l-1-1.3c-0.1,0-0.3,0-0.4,0h-0.6v1.3h-0.5v-5.1h1.1c1.4,0,2.1,0.8,2.1,1.9
		c0,0.8-0.4,1.5-1.2,1.8L306.8,767.6z M304.7,765.9c1.2,0,1.6-0.6,1.6-1.5c0-0.9-0.5-1.5-1.6-1.5h-0.6v3H304.7z"/>
	<path class="st1" d="M307.6,765c0-1.5,1.2-2.6,2.6-2.6c0.9,0,1.5,0.3,1.9,0.8l-0.3,0.3c-0.4-0.4-0.8-0.7-1.6-0.7
		c-1.2,0-2.1,0.9-2.1,2.2c0,1.2,0.9,2.2,2.2,2.2c0.8,0,1.2-0.2,1.6-0.5v-0.8h-1.5v-0.4h2v1.5c-0.5,0.4-1.1,0.7-2,0.7
		C308.7,767.7,307.6,766.6,307.6,765z"/>
	<path class="st1" d="M316.6,762.5h0.5v5.1h-0.5v-1.7h-2.8v1.7h-0.5v-5.1h0.5v3h2.8V762.5z"/>
	<path class="st1" d="M320.8,767.6c-0.1,0-0.2-0.2-0.2-0.3c0-0.2,0.2-0.4,0.4-0.4c0.2,0,0.4,0.1,0.4,0.4c0,0.1,0,0.2-0.1,0.3
		l-0.4,0.6h-0.3L320.8,767.6z"/>
	<path class="st1" d="M325.2,767.6h-0.5v-5.1h1.1c1.4,0,2.1,0.8,2.1,1.9c0,1.1-0.7,1.9-2.1,1.9h-0.6V767.6z M325.8,765.9
		c1.2,0,1.6-0.6,1.6-1.5c0-0.9-0.5-1.5-1.6-1.5h-0.6v3H325.8z"/>
	<path class="st1" d="M328.5,767.6H328l2.1-5.2h0l2.2,5.2h-0.5l-0.4-0.9h-2.6L328.5,767.6z M330.2,763.4l-1.1,2.8h2.3L330.2,763.4z"
		/>
	<path class="st1" d="M337.1,763h-0.9v-0.5h1.5v5.1h-0.6V763z"/>
	<path class="st1" d="M338.8,766.7l0.5-0.3c0.2,0.4,0.6,0.7,1.3,0.7c0.7,0,1.2-0.5,1.2-1.2c0-0.8-0.5-1.2-1.3-1.2
		c-0.6,0-1,0.2-1.3,0.4l0,0v-2.6h2.9v0.5h-2.3v1.3c0.2-0.1,0.5-0.2,0.9-0.2c1.1,0,1.8,0.7,1.8,1.8c0,1-0.7,1.8-1.9,1.8
		C339.7,767.7,339.1,767.2,338.8,766.7z"/>
	<path class="st1" d="M343,767.6l1.8-1.8c0.6-0.6,1.2-1.2,1.2-1.8c0-0.6-0.4-0.9-1-0.9c-0.6,0-1,0.4-1.2,1l-0.6-0.2
		c0.3-0.8,0.9-1.3,1.7-1.3c0.9,0,1.6,0.5,1.6,1.5c0,0.7-0.7,1.5-1.3,2.1l-1.1,1h2.5v0.5L343,767.6L343,767.6z"/>
	<path class="st1" d="M347.3,766.5l0.5-0.3c0.3,0.6,0.7,0.9,1.4,0.9c0.8,0,1.3-0.5,1.3-1.2c0-0.8-0.5-1.2-1.3-1.2
		c-0.3,0-0.6,0.1-0.8,0.1l0-0.1l1.5-1.7h-2.2v-0.5h3.3v0l-1.5,1.7c0.9,0,1.6,0.7,1.6,1.7c0,1-0.7,1.8-1.9,1.8
		C348.3,767.7,347.6,767.1,347.3,766.5z"/>
	<path class="st1" d="M354.6,763h-2.8v-0.5h3.7v0l-2.5,5.1h-0.7L354.6,763z"/>
	<path class="st1" d="M365.2,767.6h-0.5v-5.1h1.1c1.4,0,2.1,0.8,2.1,1.9c0,1.1-0.7,1.9-2.1,1.9h-0.6V767.6z M365.8,765.9
		c1.2,0,1.6-0.6,1.6-1.5c0-0.9-0.5-1.5-1.6-1.5h-0.6v3H365.8z"/>
	<path class="st1" d="M375.9,766.1v0.5h-0.7v0.9h-0.6v-0.9h-2.8v-0.3l3.4-4h0.1v3.8H375.9z M374.6,763.8l-1.9,2.3h1.9V763.8z"/>
	<path class="st1" d="M377.4,763h-0.9v-0.5h1.5v5.1h-0.6V763z"/>
	<path class="st1" d="M379,767.6l1.8-1.8c0.6-0.6,1.2-1.2,1.2-1.8c0-0.6-0.4-0.9-1-0.9c-0.6,0-1,0.4-1.2,1l-0.6-0.2
		c0.3-0.8,0.9-1.3,1.7-1.3c0.9,0,1.6,0.5,1.6,1.5c0,0.7-0.7,1.5-1.3,2.1l-1.1,1h2.5v0.5L379,767.6L379,767.6z"/>
	<path class="st1" d="M383.5,767.2c0-0.3,0.2-0.5,0.5-0.5c0.2,0,0.5,0.2,0.5,0.5c0,0.3-0.2,0.5-0.5,0.5
		C383.7,767.7,383.5,767.5,383.5,767.2z"/>
	<path class="st1" d="M385.1,766.7l0.5-0.3c0.2,0.4,0.6,0.7,1.3,0.7c0.7,0,1.2-0.5,1.2-1.2c0-0.8-0.5-1.2-1.3-1.2
		c-0.6,0-1,0.2-1.3,0.4l0,0v-2.6h2.9v0.5h-2.3v1.3c0.2-0.1,0.5-0.2,0.9-0.2c1.1,0,1.8,0.7,1.8,1.8c0,1-0.7,1.8-1.9,1.8
		C386,767.7,385.4,767.2,385.1,766.7z"/>
	<path class="st1" d="M391.7,765.8c-0.2,0.1-0.4,0.2-0.6,0.2c-1,0-1.8-0.7-1.8-1.8c0-1,0.8-1.8,1.9-1.8c1,0,1.9,0.7,1.9,1.8
		c0,0.5-0.2,1-0.6,1.5l-1.3,1.9h-0.7L391.7,765.8z M392.5,764.2c0-0.7-0.5-1.2-1.2-1.2c-0.7,0-1.2,0.5-1.2,1.2
		c0,0.7,0.5,1.2,1.2,1.2C392,765.4,392.5,764.9,392.5,764.2z"/>
	<path class="st1" d="M394.1,763.6c0-0.7,0.5-1.2,1.4-1.2c0.8,0,1.4,0.6,1.4,1.2c0,0.5-0.2,0.8-0.6,1c0.6,0.2,1.1,0.8,1.1,1.4
		c0,0.9-0.7,1.6-1.9,1.6c-1.1,0-1.9-0.7-1.9-1.6c0-0.7,0.4-1.2,1.1-1.4C394.3,764.4,394.1,764.1,394.1,763.6z M396.7,766
		c0-0.6-0.5-1.1-1.2-1.1c-0.7,0-1.2,0.5-1.2,1.1c0,0.6,0.5,1.1,1.2,1.1C396.2,767.1,396.7,766.7,396.7,766z M396.2,763.7
		c0-0.4-0.3-0.7-0.8-0.7c-0.5,0-0.8,0.3-0.8,0.7c0,0.4,0.3,0.7,0.8,0.7C395.9,764.4,396.2,764.1,396.2,763.7z"/>
	<path class="st1" d="M398,767.2c0-0.3,0.2-0.5,0.5-0.5c0.2,0,0.5,0.2,0.5,0.5c0,0.3-0.2,0.5-0.5,0.5
		C398.2,767.7,398,767.5,398,767.2z"/>
	<path class="st1" d="M403.6,766.1v0.5h-0.7v0.9h-0.6v-0.9h-2.8v-0.3l3.4-4h0.1v3.8H403.6z M402.3,763.8l-1.9,2.3h1.9V763.8z"/>
	<path class="st1" d="M407,763h-2.8v-0.5h3.7v0l-2.5,5.1h-0.7L407,763z"/>
	<path class="st1" d="M408.2,766.7l0.5-0.3c0.2,0.4,0.6,0.7,1.3,0.7c0.7,0,1.2-0.5,1.2-1.2c0-0.8-0.5-1.2-1.3-1.2
		c-0.6,0-1,0.2-1.3,0.4l0,0v-2.6h2.9v0.5h-2.3v1.3c0.2-0.1,0.5-0.2,0.9-0.2c1.1,0,1.8,0.7,1.8,1.8c0,1-0.7,1.8-1.9,1.8
		C409.1,767.7,408.5,767.2,408.2,766.7z"/>
	<path class="st1" d="M413.1,763.6c0-0.7,0.5-1.2,1.4-1.2c0.8,0,1.4,0.6,1.4,1.2c0,0.5-0.2,0.8-0.6,1c0.6,0.2,1.1,0.8,1.1,1.4
		c0,0.9-0.7,1.6-1.9,1.6c-1.1,0-1.9-0.7-1.9-1.6c0-0.7,0.4-1.2,1.1-1.4C413.3,764.4,413.1,764.1,413.1,763.6z M415.7,766
		c0-0.6-0.5-1.1-1.2-1.1c-0.7,0-1.2,0.5-1.2,1.1c0,0.6,0.5,1.1,1.2,1.1C415.2,767.1,415.7,766.7,415.7,766z M415.3,763.7
		c0-0.4-0.3-0.7-0.8-0.7c-0.5,0-0.8,0.3-0.8,0.7c0,0.4,0.3,0.7,0.8,0.7C415,764.4,415.3,764.1,415.3,763.7z"/>
	<path class="st2" d="M359.7,761.4h0.5v7.2h-0.5V761.4z"/>
</g>
<rect x="127.9" y="880.5" style="fill:none;" width="374.2" height="10"/>
<text transform="matrix(1 0 0 1 127.9041 887.5996)"><tspan x="0" y="0" style="font-family:'NeutrafaceDisplay-Medium'; font-size:10px;">817</tspan><tspan x="11.3" y="0" style="font-family:'NeutrafaceDisplay-Medium'; font-size:10px; letter-spacing:1;"> </tspan><tspan x="14.2" y="0" style="font-family:'NeutrafaceDisplay-Medium'; font-size:7.5px;">ANDORA</tspan><tspan x="44.1" y="0" style="font-family:'NeutrafaceDisplay-Medium'; font-size:7.5px;"> </tspan><tspan x="46.2" y="0" style="font-family:'NeutrafaceDisplay-Medium'; font-size:7.5px;">AVENUE</tspan><tspan x="74.3" y="0" style="font-family:'NeutrafaceDisplay-Medium'; font-size:7.5px;"> </tspan><tspan x="76.5" y="0" style="font-family:'NeutrafaceDisplay-Medium'; font-size:7.5px;">|</tspan><tspan x="78.2" y="0" style="font-family:'NeutrafaceDisplay-Medium'; font-size:7.5px;"> </tspan><tspan x="80.3" y="0" style="font-family:'NeutrafaceDisplay-Medium'; font-size:7.5px;">PITTSBURGH</tspan><tspan x="122.4" y="0" style="font-family:'NeutrafaceDisplay-Medium'; font-size:7.5px;"> </tspan><tspan x="124.6" y="0" style="font-family:'NeutrafaceDisplay-Medium'; font-size:7.5px;">,</tspan><tspan x="125.9" y="0" style="font-family:'NeutrafaceDisplay-Medium'; font-size:7.5px;"> </tspan><tspan x="128" y="0" style="font-family:'NeutrafaceDisplay-Medium'; font-size:7.5px;">PA</tspan><tspan x="137" y="0" style="font-family:'NeutrafaceDisplay-Medium'; font-size:10px; letter-spacing:1;"> </tspan><tspan x="139.9" y="0" style="font-family:'NeutrafaceDisplay-Medium'; font-size:10px;">15237</tspan><tspan x="159.7" y="0" style="font-family:'NeutrafaceDisplay-Medium'; font-size:10px; letter-spacing:1;"> </tspan><tspan x="162.6" y="0" style="font-family:'NeutrafaceDisplay-Medium'; font-size:7.5px;">|</tspan><tspan x="164.3" y="0" style="font-family:'NeutrafaceDisplay-Medium'; font-size:10px; letter-spacing:1;"> </tspan><tspan x="167.2" y="0" style="font-family:'NeutrafaceDisplay-Medium'; font-size:7.5px;">P</tspan><tspan x="171.4" y="0" style="font-family:'NeutrafaceDisplay-Medium'; font-size:10px; letter-spacing:1;"> </tspan><tspan x="174.3" y="0" style="font-family:'NeutrafaceDisplay-Medium'; font-size:10px;">412.598.4758</tspan><tspan x="219.8" y="0" style="font-family:'NeutrafaceDisplay-Medium'; font-size:10px; letter-spacing:1;"> </tspan><tspan x="222.7" y="0" style="font-family:'NeutrafaceDisplay-Medium'; font-size:7.5px;">F</tspan><tspan x="226.8" y="0" style="font-family:'NeutrafaceDisplay-Medium'; font-size:10px; letter-spacing:1;"> </tspan><tspan x="229.7" y="0" style="font-family:'NeutrafaceDisplay-Medium'; font-size:10px;">412.598.4958</tspan><tspan x="275.4" y="0" style="font-family:'NeutrafaceDisplay-Medium'; font-size:10px; letter-spacing:1;"> </tspan><tspan x="278.3" y="0" style="font-family:'NeutrafaceDisplay-Medium'; font-size:7.5px;">|</tspan><tspan x="280" y="0" style="font-family:'NeutrafaceDisplay-Medium'; font-size:10px; letter-spacing:1;"> </tspan><tspan x="282.9" y="0" style="font-family:'NeutrafaceDisplay-Medium'; font-size:7.5px;">WWW.WHJONESLAW.COM</tspan></text>
</svg>
