<?xml version="1.0" encoding="utf-8"?>
<!-- Generator: Adobe Illustrator 22.1.0, SVG Export Plug-In . SVG Version: 6.00 Build 0)  -->
<svg version="1.1" id="Layer_1" xmlns="http://www.w3.org/2000/svg" xmlns:xlink="http://www.w3.org/1999/xlink" x="0px" y="0px"
	 viewBox="0 0 426.7 393.3" style="enable-background:new 0 0 426.7 393.3;" xml:space="preserve">
<style type="text/css">
	.st0{fill:#8B8D90;}
	.st1{fill:#E96F35;}
</style>
<g>
	<path class="st0" d="M65.8,344.6l5.9-17.4c0.9-2.5,1-4.2,0.4-5.1c-0.6-0.9-2.2-1.4-4.9-1.4V319h16v1.7c-1.3,0-2.4,0.1-3.3,0.3
		c-0.9,0.2-1.6,0.6-2.3,1.1c-0.6,0.5-1.2,1.3-1.7,2.3c-0.5,1-1,2.3-1.5,3.8l-9.8,29.1h-1.1l-8.7-26.6l-8.9,26.6H45l-9.5-29.1
		c-0.5-1.5-1-2.8-1.5-3.8c-0.5-1-1-1.8-1.6-2.3c-0.6-0.5-1.3-0.9-2.1-1.1c-0.8-0.2-1.9-0.3-3.1-0.3V319h18.9v1.7
		c-1.2,0-2.3,0.1-3.1,0.3c-0.8,0.2-1.4,0.5-1.7,1c-0.4,0.5-0.5,1.1-0.5,2c0.1,0.9,0.3,1.9,0.7,3.2l5.7,17.4l8.6-25.5h1.7L65.8,344.6
		z"/>
	<path class="st0" d="M86.5,355.9v-1.6c1.2,0,2.2-0.1,2.9-0.3c0.7-0.2,1.3-0.5,1.7-1c0.4-0.5,0.6-1.2,0.8-2.2
		c0.1-0.9,0.2-2.2,0.2-3.7v-10.9c0-1.5-0.1-2.8-0.2-3.7c-0.1-0.9-0.4-1.6-0.8-2.1c-0.4-0.5-0.9-0.9-1.7-1c-0.7-0.2-1.7-0.3-2.9-0.3
		v-1.6h16.9v1.6c-1.2,0-2.2,0.1-2.9,0.3c-0.7,0.2-1.3,0.5-1.7,1c-0.4,0.5-0.6,1.2-0.8,2.1c-0.1,0.9-0.2,2.1-0.2,3.7v10.9
		c0,1.5,0.1,2.8,0.2,3.7c0.1,0.9,0.4,1.7,0.8,2.2c0.4,0.5,0.9,0.9,1.7,1c0.7,0.2,1.7,0.3,2.9,0.3v1.6H86.5z"/>
	<path class="st0" d="M122.7,349.8c0.1,0.9,0.4,1.6,0.8,2.1c0.4,0.5,0.9,0.9,1.6,1c0.7,0.2,1.6,0.3,2.6,0.3h3c1.5,0,2.8-0.1,3.7-0.2
		c0.9-0.1,1.7-0.4,2.2-0.6c0.5-0.3,0.9-0.7,1.2-1.2c0.3-0.5,0.5-1.1,0.6-1.8l0.4-1.5h1.4l-0.6,8h-28.5v-1.6c1.2,0,2.2-0.1,2.9-0.3
		c0.7-0.2,1.3-0.5,1.7-1c0.4-0.5,0.6-1.2,0.8-2.2c0.1-0.9,0.2-2.2,0.2-3.7v-10.9c0-1.5-0.1-2.8-0.2-3.7c-0.1-0.9-0.4-1.6-0.8-2.1
		c-0.4-0.5-0.9-0.9-1.7-1c-0.7-0.2-1.7-0.3-2.9-0.3v-1.6h16.9v1.6c-1.2,0-2.2,0.1-2.9,0.3c-0.7,0.2-1.3,0.5-1.7,1
		c-0.4,0.5-0.6,1.2-0.8,2.1c-0.1,0.9-0.2,2.1-0.2,3.7v10C122.5,347.7,122.6,348.9,122.7,349.8z"/>
	<path class="st0" d="M166.7,347.9c0,1.4-0.3,2.6-0.8,3.7c-0.5,1.1-1.3,2.1-2.2,2.9c-0.9,0.8-2,1.4-3.3,1.9c-1.2,0.5-2.6,0.7-4,0.7
		c-1.7,0-3.3-0.3-4.7-1c-1.4-0.7-2.4-1.3-3.1-1.9c-0.2,0.2-0.5,0.6-0.8,1.1c-0.3,0.5-0.5,1.1-0.6,1.7h-1.6v-11.7h1.8
		c0.3,2.8,1.3,5,3.1,6.6c1.8,1.6,3.9,2.3,6.5,2.3c1.4,0,2.5-0.4,3.5-1.1c1-0.7,1.4-1.7,1.4-3c0-1.1-0.5-2.1-1.4-3
		c-0.9-0.9-2.3-1.7-4-2.5l-4.8-2.3c-1.8-0.8-3.2-1.9-4.3-3.3c-1.1-1.4-1.7-3-1.7-4.9c0-1,0.2-2,0.7-2.9c0.5-0.9,1.1-1.7,1.9-2.4
		c0.8-0.7,1.7-1.3,2.9-1.7c1.1-0.4,2.3-0.6,3.6-0.6c1.4,0,2.7,0.2,3.8,0.6c1.1,0.4,2.1,1,2.9,1.6c0.2-0.2,0.4-0.5,0.6-0.9
		c0.2-0.4,0.4-0.9,0.5-1.4h1.6v10h-1.8c-0.3-2-1-3.7-2.2-5.2c-1.2-1.4-2.9-2.2-5.1-2.2c-1.2,0-2.3,0.3-3.3,0.9
		c-0.9,0.6-1.4,1.5-1.4,2.6c0,1.1,0.5,2.1,1.4,2.8c0.9,0.7,2.4,1.5,4.5,2.5l4.8,2.3c2,1,3.5,2.2,4.3,3.6
		C166.3,345.2,166.7,346.6,166.7,347.9z"/>
	<path class="st0" d="M209.2,341.7c0,2.1-0.5,4.1-1.4,6c-0.9,1.9-2.1,3.5-3.7,4.9c-1.5,1.4-3.3,2.5-5.4,3.3
		c-2.1,0.8-4.3,1.2-6.6,1.2c-2.3,0-4.5-0.4-6.6-1.2c-2.1-0.8-3.9-1.9-5.4-3.3c-1.5-1.4-2.8-3-3.7-4.9c-0.9-1.9-1.4-3.9-1.4-6
		c0-2.1,0.5-4.1,1.4-5.9c0.9-1.8,2.1-3.5,3.7-4.9c1.5-1.4,3.3-2.5,5.4-3.3c2.1-0.8,4.3-1.2,6.6-1.2c2.3,0,4.5,0.4,6.6,1.2
		c2.1,0.8,3.9,1.9,5.4,3.3c1.5,1.4,2.8,3,3.7,4.9C208.7,337.6,209.2,339.6,209.2,341.7z M202.7,341.7c0-1.4-0.2-2.8-0.6-4.3
		c-0.4-1.5-1-2.9-1.8-4.1c-0.8-1.2-1.9-2.2-3.2-3c-1.3-0.8-3-1.2-5-1.2c-1.9,0-3.6,0.4-4.9,1.2c-1.4,0.8-2.5,1.8-3.3,3
		c-0.8,1.2-1.4,2.6-1.8,4.1c-0.4,1.5-0.6,2.9-0.6,4.3c0,1.4,0.2,2.9,0.6,4.3c0.4,1.5,1,2.8,1.8,4c0.8,1.2,1.9,2.2,3.3,3
		c1.4,0.8,3,1.2,4.9,1.2c2,0,3.6-0.4,5-1.2c1.3-0.8,2.4-1.8,3.2-3c0.8-1.2,1.4-2.6,1.8-4C202.5,344.5,202.7,343.1,202.7,341.7z"/>
	<path class="st0" d="M249.8,329.4c-0.7,0.2-1.3,0.5-1.7,1c-0.4,0.5-0.6,1.2-0.8,2.1c-0.1,0.9-0.2,2.1-0.2,3.7v20.7h-1.8l-19.8-21.1
		v11.3c0,1.5,0.1,2.8,0.2,3.7c0.1,0.9,0.4,1.7,0.8,2.2c0.4,0.5,0.9,0.9,1.7,1c0.7,0.2,1.7,0.3,2.9,0.3v1.6h-13.7v-1.6
		c1.2,0,2.2-0.1,2.9-0.3c0.7-0.2,1.3-0.5,1.7-1c0.4-0.5,0.6-1.2,0.8-2.2c0.1-0.9,0.2-2.2,0.2-3.7v-10.9c0-1.5-0.1-2.8-0.2-3.7
		c-0.1-0.9-0.4-1.6-0.8-2.1c-0.4-0.5-0.9-0.9-1.7-1c-0.7-0.2-1.7-0.3-2.9-0.3v-1.6h8.4l18.7,19.8v-11.2c0-1.5-0.1-2.8-0.2-3.7
		c-0.1-0.9-0.4-1.6-0.8-2.1c-0.4-0.5-0.9-0.9-1.7-1c-0.7-0.2-1.7-0.3-2.9-0.3v-1.6h13.7v1.6C251.5,329.1,250.5,329.2,249.8,329.4z"
		/>
	<path class="st0" d="M273,349.3c0.2,1.3,0.5,2.3,1,3.1c0.5,0.7,1.2,1.2,2,1.4c0.9,0.2,2,0.3,3.4,0.3v1.7h-19.5v-1.7
		c1.4,0,2.6-0.1,3.4-0.3c0.9-0.2,1.6-0.7,2-1.4c0.5-0.7,0.8-1.8,1-3.1c0.2-1.3,0.3-3,0.3-5.1v-13.6c0-2.2-0.1-3.9-0.3-5.2
		c-0.2-1.3-0.5-2.3-1-3c-0.5-0.7-1.2-1.2-2-1.4c-0.9-0.2-2-0.3-3.4-0.3V319h17.6c4.4,0,7.8,1,10.1,3c2.3,2,3.5,4.5,3.5,7.6
		c0,3-1.2,5.4-3.5,7.4c-2.3,2-5.7,3-10.1,3h-4.9v4.2C272.7,346.3,272.8,348,273,349.3z M284.5,329.6c0-2-0.6-3.8-1.7-5.3
		c-1.1-1.5-2.9-2.2-5.3-2.2h-4.9v14.8h4.9c2.4,0,4.1-0.7,5.3-2.2C284,333.3,284.5,331.6,284.5,329.6z"/>
	<path class="st0" d="M309.1,344v3.1c0,1.5,0.1,2.8,0.2,3.7c0.1,0.9,0.4,1.7,0.8,2.2c0.4,0.5,0.9,0.9,1.7,1c0.7,0.2,1.7,0.3,2.9,0.3
		v1.6h-16.9v-1.6c1.2,0,2.2-0.1,2.9-0.3c0.7-0.2,1.3-0.5,1.7-1c0.4-0.5,0.6-1.2,0.8-2.2c0.1-0.9,0.2-2.2,0.2-3.7v-10.9
		c0-1.5-0.1-2.8-0.2-3.7c-0.1-0.9-0.4-1.6-0.8-2.1c-0.4-0.5-0.9-0.9-1.7-1c-0.7-0.2-1.7-0.3-2.9-0.3v-1.6h15c3.7,0,6.6,0.8,8.6,2.3
		c2,1.6,2.9,3.5,2.9,5.9c0,1.9-0.7,3.6-2,5.1c-1.4,1.5-3.4,2.5-6,2.9l3.9,4.3c1.7,1.9,3.3,3.3,4.7,4.3c1.4,1,3,1.6,4.9,1.9v1.6H320
		l-9.5-11.8H309.1z M318.2,335.8c0-1.5-0.4-2.9-1.3-4c-0.9-1.1-2.3-1.7-4.2-1.7h-3.5v11.3h3.5c1.9,0,3.3-0.6,4.2-1.7
		C317.7,338.6,318.2,337.3,318.2,335.8z"/>
	<path class="st0" d="M333.7,355.9v-1.6c1.2,0,2.2-0.1,2.9-0.3c0.7-0.2,1.3-0.5,1.7-1c0.4-0.5,0.6-1.2,0.8-2.2
		c0.1-0.9,0.2-2.2,0.2-3.7v-10.9c0-1.5-0.1-2.8-0.2-3.7c-0.1-0.9-0.4-1.6-0.8-2.1c-0.4-0.5-0.9-0.9-1.7-1c-0.7-0.2-1.7-0.3-2.9-0.3
		v-1.6h16.9v1.6c-1.2,0-2.2,0.1-2.9,0.3c-0.7,0.2-1.3,0.5-1.7,1c-0.4,0.5-0.6,1.2-0.8,2.1c-0.1,0.9-0.2,2.1-0.2,3.7v10.9
		c0,1.5,0.1,2.8,0.2,3.7c0.1,0.9,0.4,1.7,0.8,2.2c0.4,0.5,0.9,0.9,1.7,1c0.7,0.2,1.7,0.3,2.9,0.3v1.6H333.7z"/>
	<path class="st0" d="M383.1,355.9v-1.6c1.2,0,2.2-0.1,2.9-0.3c0.7-0.2,1.3-0.5,1.7-1c0.4-0.5,0.6-1.2,0.8-2.2
		c0.1-0.9,0.2-2.2,0.2-3.7v-12.4L378.3,357h-1.4l-10.3-22.1v12.3c0,1.5,0.1,2.8,0.2,3.7c0.1,0.9,0.4,1.7,0.8,2.2
		c0.4,0.5,0.9,0.9,1.7,1c0.7,0.2,1.7,0.3,2.9,0.3v1.6h-13.7v-1.6c1.2,0,2.2-0.1,2.9-0.3c0.7-0.2,1.3-0.5,1.7-1
		c0.4-0.5,0.6-1.2,0.8-2.2c0.1-0.9,0.2-2.2,0.2-3.7v-10.9c0-1.5-0.1-2.8-0.2-3.7c-0.1-0.9-0.4-1.6-0.8-2.1c-0.4-0.5-0.9-0.9-1.7-1
		c-0.7-0.2-1.7-0.3-2.9-0.3v-1.6h10.5l10.1,21.7l10.1-21.7h10.3v1.6c-1.2,0-2.2,0.1-2.9,0.3c-0.7,0.2-1.3,0.5-1.7,1
		c-0.4,0.5-0.6,1.2-0.8,2.1c-0.1,0.9-0.2,2.1-0.2,3.7v10.9c0,1.5,0.1,2.8,0.2,3.7c0.1,0.9,0.4,1.7,0.8,2.2c0.4,0.5,0.9,0.9,1.7,1
		c0.7,0.2,1.7,0.3,2.9,0.3v1.6H383.1z"/>
	<path class="st1" d="M34.3,369.7c0,0.7-0.2,1.2-0.7,1.6c-0.4,0.3-1,0.5-1.8,0.5h-4.5v-6.8h4.5c0.6,0,1.2,0.2,1.5,0.5
		c0.4,0.3,0.6,0.8,0.6,1.4c0,0.3,0,0.5-0.1,0.7c-0.1,0.2-0.2,0.4-0.4,0.6c0.3,0.2,0.5,0.5,0.7,0.7S34.3,369.3,34.3,369.7z
		 M33.1,366.7c0-0.4-0.1-0.6-0.3-0.7c-0.2-0.1-0.5-0.2-0.9-0.2h-3.6v1.9h3.5c0.4,0,0.7-0.1,0.9-0.2C33,367.3,33.1,367.1,33.1,366.7z
		 M33.4,369.7c0-0.8-0.5-1.2-1.6-1.2h-3.5v2.2h3.5c0.5,0,0.9-0.1,1.1-0.2C33.3,370.4,33.4,370.2,33.4,369.7z"/>
	<path class="st1" d="M45.3,369c0,0.7-0.1,1.2-0.4,1.6c-0.3,0.4-0.7,0.7-1.2,0.9c-0.5,0.2-1.1,0.3-1.7,0.3c-1,0-1.8-0.2-2.4-0.7
		c-0.6-0.5-0.9-1.2-0.9-2.2v-4.2h0.9v4.2c0,0.5,0.1,0.9,0.3,1.2c0.2,0.3,0.5,0.5,0.9,0.6c0.4,0.1,0.8,0.2,1.3,0.2
		c0.5,0,0.9-0.1,1.3-0.2c0.4-0.1,0.6-0.3,0.8-0.6c0.2-0.3,0.3-0.7,0.3-1.2v-4.2h0.9V369z"/>
	<path class="st1" d="M51.1,371.7h-0.9v-6.8h0.9V371.7z"/>
	<path class="st1" d="M60.9,371.7h-5.4v-6.8h0.9v5.9h4.5V371.7z"/>
	<path class="st1" d="M71.1,368.3c0,0.5-0.1,1-0.2,1.4c-0.2,0.4-0.4,0.8-0.7,1.1c-0.3,0.3-0.6,0.5-1.1,0.7c-0.4,0.2-0.9,0.2-1.4,0.2
		h-3.8v-6.8h3.8c0.5,0,0.9,0,1.2,0.1c0.3,0.1,0.6,0.3,1,0.6c0.4,0.3,0.7,0.8,0.9,1.2C71,367.3,71.1,367.8,71.1,368.3z M70.2,368.3
		c0-0.8-0.3-1.4-0.8-2c-0.2-0.2-0.5-0.4-0.7-0.5c-0.2-0.1-0.6-0.1-0.9-0.1h-3v5h3c0.5,0,1-0.1,1.3-0.3c0.4-0.2,0.7-0.5,0.8-0.9
		C70.1,369.3,70.2,368.8,70.2,368.3z"/>
	<path class="st1" d="M76.3,371.7h-0.9v-6.8h0.9V371.7z"/>
	<path class="st1" d="M87.7,371.7h-0.9l-4.8-5.5v5.5h-0.9v-6.8H82l4.8,5.5v-5.5h0.9V371.7z"/>
	<path class="st1" d="M99.2,370.6c-0.4,0.4-1,0.7-1.6,0.9c-0.6,0.2-1.2,0.3-1.9,0.3c-0.7,0-1.4-0.1-2.1-0.4
		c-0.6-0.3-1.1-0.7-1.5-1.3c-0.4-0.6-0.6-1.2-0.6-1.9c0-0.7,0.2-1.4,0.6-1.9s0.9-1,1.5-1.3c0.6-0.3,1.3-0.4,2.1-0.4
		c0.6,0,1.2,0.1,1.7,0.3c0.5,0.2,1,0.5,1.5,0.8l-0.5,0.8c-0.3-0.2-0.6-0.4-0.9-0.5c-0.3-0.1-0.6-0.2-0.8-0.3c-0.3-0.1-0.6-0.1-1-0.1
		c-0.6,0-1.1,0.1-1.6,0.3c-0.5,0.2-0.9,0.5-1.2,0.9c-0.3,0.4-0.5,0.9-0.5,1.5c0,0.4,0.1,0.8,0.3,1.2c0.2,0.3,0.4,0.6,0.7,0.9
		c0.3,0.2,0.7,0.4,1,0.5c0.4,0.1,0.8,0.2,1.2,0.2c0.5,0,0.9-0.1,1.4-0.2c0.4-0.1,0.8-0.3,1.2-0.6v-1.3h-2.3v-0.9h3.2V370.6z"/>
	<path class="st1" d="M117.1,366l-0.5,0.8c-0.3-0.3-0.6-0.5-0.9-0.7c-0.3-0.2-0.7-0.3-1-0.4c-0.3-0.1-0.7-0.1-1.1-0.1
		c-0.4,0-0.8,0.1-1.2,0.2c-0.4,0.1-0.7,0.3-1,0.5c-0.3,0.2-0.5,0.5-0.7,0.9c-0.2,0.3-0.3,0.7-0.3,1.2c0,0.9,0.3,1.6,1,2
		c0.7,0.5,1.5,0.7,2.4,0.7c0.4,0,0.8,0,1.1-0.1c0.3-0.1,0.6-0.2,0.9-0.3c0.3-0.1,0.6-0.3,0.9-0.6l0.4,0.8c-0.5,0.4-1,0.6-1.6,0.8
		c-0.6,0.2-1.2,0.3-1.8,0.3c-0.8,0-1.5-0.1-2.1-0.4s-1.2-0.7-1.6-1.3c-0.4-0.6-0.6-1.2-0.6-2c0-0.7,0.2-1.4,0.6-1.9
		c0.4-0.6,0.9-1,1.5-1.3c0.6-0.3,1.3-0.4,2-0.4C114.9,364.6,116.1,365.1,117.1,366z"/>
	<path class="st1" d="M128.5,368.3c0,0.6-0.1,1.1-0.3,1.5c-0.2,0.5-0.5,0.8-0.9,1.1c-0.4,0.3-0.8,0.5-1.4,0.7s-1,0.2-1.6,0.2
		c-0.6,0-1.1-0.1-1.6-0.2c-0.5-0.2-0.9-0.4-1.3-0.7c-0.4-0.3-0.7-0.7-0.9-1.2c-0.2-0.5-0.3-1-0.3-1.6c0-0.7,0.2-1.4,0.6-1.9
		c0.4-0.6,0.9-1,1.5-1.3c0.6-0.3,1.3-0.4,2-0.4c0.7,0,1.4,0.2,2.1,0.5c0.7,0.3,1.2,0.7,1.6,1.3C128.3,366.9,128.5,367.6,128.5,368.3
		z M127.6,368.3c0-0.6-0.2-1.1-0.5-1.5c-0.3-0.4-0.7-0.7-1.2-1c-0.5-0.2-1.1-0.3-1.6-0.3c-0.6,0-1.1,0.1-1.6,0.3
		c-0.5,0.2-0.9,0.5-1.2,0.9c-0.3,0.4-0.5,0.9-0.5,1.5c0,0.9,0.3,1.6,1,2.1c0.7,0.5,1.4,0.7,2.3,0.7c0.6,0,1.1-0.1,1.6-0.3
		c0.5-0.2,0.9-0.5,1.2-0.9C127.4,369.4,127.6,368.9,127.6,368.3z"/>
	<path class="st1" d="M140,371.7h-0.9v-5.2l-2.9,4.3l-2.9-4.3v5.2h-0.9v-6.8h0.9l2.8,4.3l2.9-4.3h0.9V371.7z"/>
	<path class="st1" d="M152.4,371.7h-0.9v-5.2l-2.9,4.3l-2.9-4.3v5.2h-0.9v-6.8h0.9l2.8,4.3l2.9-4.3h0.9V371.7z"/>
	<path class="st1" d="M163.9,369c0,0.7-0.1,1.2-0.4,1.6c-0.3,0.4-0.7,0.7-1.2,0.9c-0.5,0.2-1.1,0.3-1.7,0.3c-1,0-1.8-0.2-2.4-0.7
		c-0.6-0.5-0.9-1.2-0.9-2.2v-4.2h0.9v4.2c0,0.5,0.1,0.9,0.3,1.2c0.2,0.3,0.5,0.5,0.9,0.6c0.4,0.1,0.8,0.2,1.3,0.2
		c0.5,0,0.9-0.1,1.3-0.2c0.4-0.1,0.6-0.3,0.8-0.6c0.2-0.3,0.3-0.7,0.3-1.2v-4.2h0.9V369z"/>
	<path class="st1" d="M175.3,371.7h-0.9l-4.8-5.5v5.5h-0.9v-6.8h0.9l4.8,5.5v-5.5h0.9V371.7z"/>
	<path class="st1" d="M181.1,371.7h-0.9v-6.8h0.9V371.7z"/>
	<path class="st1" d="M191.1,365.7h-2.8v6h-0.9v-6h-2.8v-0.9h6.4V365.7z"/>
	<path class="st1" d="M200.1,364.8l-3.1,3.4v3.4h-0.9v-3.4l-3.1-3.4h1.2l2.4,2.6l2.4-2.6H200.1z"/>
	<path class="st1" d="M214.2,365.7h-2.8v6h-0.9v-6h-2.8v-0.9h6.4V365.7z"/>
	<path class="st1" d="M224.3,371.7h-0.9v-3.1h-4.7v3.1h-0.9v-6.8h0.9v2.9h4.7v-2.9h0.9V371.7z"/>
	<path class="st1" d="M235.9,371.7h-1.1l-2-2.8h-3v2.8h-0.9v-6.8h4.3c0.5,0,0.9,0.1,1.3,0.2c0.4,0.1,0.7,0.4,1,0.7
		c0.2,0.3,0.4,0.7,0.4,1.2c0,0.5-0.2,1-0.5,1.3c-0.3,0.3-0.8,0.6-1.3,0.7L235.9,371.7z M234.9,366.9c0-0.8-0.6-1.1-1.7-1.1h-3.4v2.3
		h3.4C234.3,368,234.9,367.6,234.9,366.9z"/>
	<path class="st1" d="M247.4,368.3c0,0.6-0.1,1.1-0.3,1.5c-0.2,0.5-0.5,0.8-0.9,1.1c-0.4,0.3-0.8,0.5-1.4,0.7
		c-0.5,0.2-1,0.2-1.6,0.2c-0.6,0-1.1-0.1-1.6-0.2c-0.5-0.2-0.9-0.4-1.3-0.7c-0.4-0.3-0.7-0.7-0.9-1.2c-0.2-0.5-0.3-1-0.3-1.6
		c0-0.7,0.2-1.4,0.6-1.9c0.4-0.6,0.9-1,1.5-1.3c0.6-0.3,1.3-0.4,2-0.4c0.7,0,1.4,0.2,2.1,0.5c0.7,0.3,1.2,0.7,1.6,1.3
		C247.2,366.9,247.4,367.6,247.4,368.3z M246.5,368.3c0-0.6-0.2-1.1-0.5-1.5c-0.3-0.4-0.7-0.7-1.2-1c-0.5-0.2-1.1-0.3-1.6-0.3
		c-0.6,0-1.1,0.1-1.6,0.3c-0.5,0.2-0.9,0.5-1.2,0.9s-0.5,0.9-0.5,1.5c0,0.9,0.3,1.6,1,2.1c0.7,0.5,1.4,0.7,2.3,0.7
		c0.6,0,1.1-0.1,1.6-0.3c0.5-0.2,0.9-0.5,1.2-0.9C246.3,369.4,246.5,368.9,246.5,368.3z"/>
	<path class="st1" d="M258,369c0,0.7-0.1,1.2-0.4,1.6s-0.7,0.7-1.2,0.9c-0.5,0.2-1.1,0.3-1.7,0.3c-1,0-1.8-0.2-2.4-0.7
		c-0.6-0.5-0.9-1.2-0.9-2.2v-4.2h0.9v4.2c0,0.5,0.1,0.9,0.3,1.2s0.5,0.5,0.9,0.6c0.4,0.1,0.8,0.2,1.3,0.2c0.5,0,0.9-0.1,1.3-0.2
		s0.6-0.3,0.8-0.6c0.2-0.3,0.3-0.7,0.3-1.2v-4.2h0.9V369z"/>
	<path class="st1" d="M269.4,370.6c-0.4,0.4-1,0.7-1.6,0.9c-0.6,0.2-1.2,0.3-1.9,0.3c-0.7,0-1.4-0.1-2.1-0.4
		c-0.6-0.3-1.1-0.7-1.5-1.3c-0.4-0.6-0.6-1.2-0.6-1.9c0-0.7,0.2-1.4,0.6-1.9s0.9-1,1.5-1.3c0.6-0.3,1.3-0.4,2.1-0.4
		c0.6,0,1.2,0.1,1.7,0.3c0.5,0.2,1,0.5,1.5,0.8l-0.5,0.8c-0.3-0.2-0.6-0.4-0.9-0.5c-0.3-0.1-0.6-0.2-0.8-0.3c-0.3-0.1-0.6-0.1-1-0.1
		c-0.6,0-1.1,0.1-1.6,0.3c-0.5,0.2-0.9,0.5-1.2,0.9c-0.3,0.4-0.5,0.9-0.5,1.5c0,0.4,0.1,0.8,0.3,1.2c0.2,0.3,0.4,0.6,0.7,0.9
		c0.3,0.2,0.7,0.4,1,0.5c0.4,0.1,0.8,0.2,1.2,0.2c0.5,0,0.9-0.1,1.4-0.2c0.4-0.1,0.8-0.3,1.2-0.6v-1.3h-2.3v-0.9h3.2V370.6z"/>
	<path class="st1" d="M280.1,371.7h-0.9v-3.1h-4.7v3.1h-0.9v-6.8h0.9v2.9h4.7v-2.9h0.9V371.7z"/>
	<path class="st1" d="M296.4,368.3c0,0.5-0.1,1-0.2,1.4c-0.2,0.4-0.4,0.8-0.7,1.1c-0.3,0.3-0.6,0.5-1.1,0.7
		c-0.4,0.2-0.9,0.2-1.4,0.2h-3.8v-6.8h3.8c0.5,0,0.9,0,1.2,0.1c0.3,0.1,0.6,0.3,1,0.6c0.4,0.3,0.7,0.8,0.9,1.2
		C296.3,367.3,296.4,367.8,296.4,368.3z M295.5,368.3c0-0.8-0.3-1.4-0.8-2c-0.2-0.2-0.5-0.4-0.7-0.5c-0.2-0.1-0.6-0.1-0.9-0.1h-3v5
		h3c0.5,0,1-0.1,1.3-0.3c0.4-0.2,0.7-0.5,0.8-0.9C295.4,369.2,295.5,368.8,295.5,368.3z"/>
	<path class="st1" d="M306.4,371.7h-6.2v-6.8h6v0.9h-5.1v2h2.9v0.9h-2.9v2.1h5.3V371.7z"/>
	<path class="st1" d="M317.3,364.8l-3.7,6.8h-0.9l-3.7-6.8h1l3.1,5.8l3.1-5.8H317.3z"/>
	<path class="st1" d="M326.1,371.7H320v-6.8h6v0.9h-5.1v2h2.9v0.9h-2.9v2.1h5.3V371.7z"/>
	<path class="st1" d="M335.3,371.7H330v-6.8h0.9v5.9h4.5V371.7z"/>
	<path class="st1" d="M346.3,368.3c0,0.6-0.1,1.1-0.3,1.5c-0.2,0.5-0.5,0.8-0.9,1.1s-0.8,0.5-1.4,0.7c-0.5,0.2-1,0.2-1.6,0.2
		c-0.6,0-1.1-0.1-1.6-0.2c-0.5-0.2-0.9-0.4-1.3-0.7c-0.4-0.3-0.7-0.7-0.9-1.2c-0.2-0.5-0.3-1-0.3-1.6c0-0.7,0.2-1.4,0.6-1.9
		c0.4-0.6,0.9-1,1.5-1.3c0.6-0.3,1.3-0.4,2-0.4c0.7,0,1.4,0.2,2.1,0.5c0.7,0.3,1.2,0.7,1.6,1.3S346.3,367.6,346.3,368.3z
		 M345.4,368.3c0-0.6-0.2-1.1-0.5-1.5c-0.3-0.4-0.7-0.7-1.2-1c-0.5-0.2-1.1-0.3-1.6-0.3c-0.6,0-1.1,0.1-1.6,0.3
		c-0.5,0.2-0.9,0.5-1.2,0.9c-0.3,0.4-0.5,0.9-0.5,1.5c0,0.9,0.3,1.6,1,2.1c0.7,0.5,1.4,0.7,2.3,0.7c0.6,0,1.1-0.1,1.6-0.3
		c0.5-0.2,0.9-0.5,1.2-0.9C345.3,369.4,345.4,368.9,345.4,368.3z"/>
	<path class="st1" d="M356.6,367c0,0.7-0.2,1.2-0.7,1.6c-0.4,0.3-1,0.5-1.8,0.5h-3.3v2.6H350v-6.8h4.2c0.7,0,1.3,0.2,1.8,0.5
		S356.6,366.3,356.6,367z M355.7,367c0-0.5-0.1-0.8-0.4-1c-0.3-0.2-0.6-0.3-1.1-0.3h-3.3v2.4h3.3c0.3,0,0.6,0,0.8-0.1
		c0.2-0.1,0.4-0.2,0.5-0.4C355.7,367.6,355.7,367.3,355.7,367z"/>
	<path class="st1" d="M368.1,371.7h-0.9v-5.2l-2.9,4.3l-2.9-4.3v5.2h-0.9v-6.8h0.9l2.8,4.3l2.9-4.3h0.9V371.7z"/>
	<path class="st1" d="M378.7,371.7h-6.2v-6.8h6v0.9h-5.1v2h2.9v0.9h-2.9v2.1h5.3V371.7z"/>
	<path class="st1" d="M389.5,371.7h-0.9l-4.8-5.5v5.5h-0.9v-6.8h0.9l4.8,5.5v-5.5h0.9V371.7z"/>
	<path class="st1" d="M399.5,365.7h-2.8v6h-0.9v-6h-2.8v-0.9h6.4V365.7z"/>
</g>
<rect x="-621.7" y="278.5" style="fill:none;" width="367" height="67"/>
<text transform="matrix(1 0 0 1 -621.3024 306.1387)"><tspan x="0" y="0" style="font-family:'MrsEavesPetiteCaps'; font-size:83px;">WilsonPrim</tspan><tspan x="-0.3" y="15.6" style="font-family:'SackersGothicLight'; font-size:13px;">building community through development</tspan></text>
<g>
	<defs>
		<rect id="SVGID_1_" x="14" y="22" width="400.7" height="289.4"/>
	</defs>
	<clipPath id="SVGID_2_">
		<use xlink:href="#SVGID_1_"  style="overflow:visible;"/>
	</clipPath>
	<g style="clip-path:url(#SVGID_2_);">
		
			<image style="overflow:visible;" width="1800" height="1800" xlink:href="E3C98680.jpg"  transform="matrix(0.24 0 0 0.24 -2.6667 -4)">
		</image>
	</g>
</g>
</svg>
